<?xml version="1.0" standalone="no"?>
<!DOCTYPE svg PUBLIC "-//W3C//DTD SVG 20010904//EN"
 "http://www.w3.org/TR/2001/REC-SVG-20010904/DTD/svg10.dtd">
<svg version="1.0" xmlns="http://www.w3.org/2000/svg"
 width="2048.000000pt" height="2048.000000pt" viewBox="0 0 2048.000000 2048.000000"
 preserveAspectRatio="xMidYMid meet">
<metadata>
Created by potrace 1.16, written by Peter Selinger 2001-2019
</metadata>
<g transform="translate(0.000000,2048.000000) scale(0.100000,-0.100000)"
fill="#000000" stroke="none">
<path d="M10164 14886 c-3 -8 -4 -29 -2 -47 3 -39 32 -51 52 -24 7 10 19 15
27 12 10 -4 9 -6 -3 -6 -14 -1 -18 -10 -18 -34 0 -32 -2 -33 -30 -29 -30 4
-30 4 -30 -42 0 -42 2 -46 24 -46 14 0 28 5 31 10 3 6 14 9 23 9 15 -1 15 -2
0 -6 -13 -3 -18 -14 -18 -37 0 -30 -2 -32 -30 -28 -30 4 -30 4 -30 -42 0 -41
3 -46 22 -46 12 0 29 7 39 16 11 10 19 12 24 5 3 -6 -1 -11 -9 -11 -11 0 -16
-10 -16 -33 0 -32 -2 -33 -30 -29 -30 4 -30 4 -30 -42 0 -42 2 -46 24 -46 13
0 29 7 36 15 12 14 15 14 31 -1 17 -15 18 -15 25 10 3 14 4 33 1 41 -5 11 0
13 23 8 30 -5 30 -5 30 41 0 51 -17 61 -53 29 -19 -17 -20 -17 -8 4 6 12 11
31 11 43 0 17 4 19 25 14 24 -6 25 -5 25 45 0 43 -3 51 -19 51 -10 0 -24 -7
-31 -15 -7 -8 -18 -15 -24 -15 -6 0 -3 5 7 11 10 6 17 22 17 38 0 25 3 28 25
23 24 -4 25 -2 25 41 0 52 -13 66 -39 43 -10 -9 -24 -16 -32 -16 -10 1 -9 3 4
11 20 11 23 64 5 75 -6 4 -14 2 -16 -4 -5 -17 -27 -15 -42 3 -16 19 -39 19
-46 1z M10280 14395 c-9 -11 -16 -13 -24 -5 -20 20 -36 10 -36 -23 0 -32 -2
-33 -30 -29 -30 4 -30 4 -30 -42 0 -43 2 -46 25 -46 14 0 28 7 31 15 4 8 11
15 17 15 7 0 7 -4 -1 -12 -7 -7 -12 -26 -12 -43 0 -29 -2 -31 -30 -27 -30 4
-30 4 -30 -42 0 -43 2 -46 25 -46 14 0 28 7 31 15 4 8 11 15 16 15 6 0 5 -6
-2 -15 -7 -8 -10 -31 -8 -50 3 -23 1 -32 -6 -25 -6 6 -20 10 -33 10 -21 0 -23
-5 -23 -45 0 -41 2 -45 25 -45 14 0 28 7 31 15 4 8 11 15 16 15 6 0 5 -6 -2
-15 -7 -8 -10 -31 -8 -50 3 -23 1 -32 -6 -25 -6 6 -20 10 -33 10 -21 0 -23 -5
-23 -45 0 -41 2 -45 24 -45 13 0 26 7 30 15 3 8 13 14 23 14 17 -1 17 -2 1 -6
-21 -5 -26 -78 -5 -86 9 -4 9 -6 0 -6 -6 -1 -15 4 -18 9 -3 6 -17 10 -31 10
-22 0 -24 -4 -24 -45 0 -41 2 -45 24 -45 13 0 26 7 30 15 3 8 13 14 23 14 17
-1 17 -2 1 -6 -13 -3 -18 -15 -18 -44 0 -23 5 -39 12 -39 6 0 8 -3 5 -7 -4 -3
-16 2 -27 12 -31 28 -50 13 -50 -40 0 -37 3 -45 19 -45 10 0 24 7 31 15 7 8
20 14 29 14 13 -1 13 -2 -1 -6 -21 -5 -26 -78 -5 -86 7 -4 8 -6 1 -6 -6 -1
-17 6 -24 14 -7 8 -21 15 -31 15 -16 0 -19 -8 -19 -50 0 -42 3 -50 19 -50 10
0 24 7 31 15 7 8 20 14 29 14 13 -1 13 -2 -1 -6 -21 -5 -26 -78 -5 -86 9 -4 9
-6 -1 -6 -7 -1 -15 6 -18 14 -4 8 -17 15 -30 15 -22 0 -24 -4 -24 -45 0 -52
19 -68 50 -40 10 9 25 15 32 12 8 -4 7 -6 -4 -6 -14 -1 -18 -10 -18 -34 0 -32
-2 -33 -30 -29 -30 4 -30 4 -30 -42 0 -42 2 -46 24 -46 14 0 28 5 31 10 3 6
12 10 18 9 9 0 9 -2 0 -6 -7 -2 -13 -19 -13 -37 0 -30 -2 -32 -30 -28 -30 4
-30 4 -30 -42 0 -41 3 -46 22 -46 12 0 30 7 40 17 11 9 18 11 18 5 0 -7 -4
-12 -10 -12 -5 0 -10 -15 -10 -33 0 -32 -2 -33 -30 -29 -30 4 -30 4 -30 -42 0
-43 2 -46 25 -46 14 0 28 7 31 15 4 8 11 15 17 15 7 0 7 -4 -1 -12 -7 -7 -12
-26 -12 -43 0 -29 -2 -31 -30 -27 -30 4 -30 4 -30 -42 0 -43 2 -46 25 -46 14
0 28 7 31 15 4 8 11 15 17 15 7 0 7 -4 -1 -12 -7 -7 -12 -26 -12 -43 0 -29 -2
-31 -30 -27 -30 4 -30 4 -30 -43 0 -47 0 -47 30 -43 28 4 30 2 30 -27 0 -29
-2 -31 -30 -27 -30 4 -30 4 -30 -42 0 -42 2 -46 24 -46 13 0 26 7 30 15 3 8
11 15 18 14 10 0 10 -2 1 -6 -7 -2 -13 -22 -13 -43 0 -21 6 -41 13 -43 9 -4 9
-6 0 -6 -6 -1 -15 4 -18 9 -3 6 -17 10 -31 10 -22 0 -24 -4 -24 -45 0 -37 3
-45 19 -45 10 0 24 7 31 15 7 8 18 15 24 14 7 0 6 -2 -1 -6 -17 -6 -17 -83 -1
-83 6 0 9 -3 5 -6 -3 -3 -16 1 -29 10 -39 27 -48 21 -48 -34 0 -42 3 -50 19
-50 10 0 24 7 31 15 7 8 18 15 24 14 7 0 6 -2 -1 -6 -7 -2 -13 -22 -13 -43 0
-21 6 -41 13 -43 7 -4 8 -6 1 -6 -6 -1 -17 6 -24 14 -7 8 -21 15 -31 15 -16 0
-19 -8 -19 -50 0 -42 3 -50 19 -50 10 0 24 7 31 15 7 8 18 15 24 14 7 0 6 -2
-1 -6 -7 -2 -13 -22 -13 -43 0 -21 6 -41 13 -43 7 -4 8 -6 1 -6 -6 -1 -17 6
-24 14 -7 8 -21 15 -31 15 -16 0 -19 -8 -19 -50 0 -42 3 -50 19 -50 10 0 24 7
31 15 7 8 18 15 24 14 7 0 6 -2 -1 -6 -7 -2 -13 -22 -13 -43 0 -21 6 -41 13
-43 7 -4 8 -6 1 -6 -6 -1 -17 6 -24 14 -7 8 -21 15 -31 15 -16 0 -19 -8 -19
-45 0 -41 2 -45 24 -45 14 0 28 5 31 10 3 6 10 10 16 10 5 0 0 -9 -11 -20 -23
-23 -24 -29 -5 -53 10 -15 18 -16 32 -9 13 8 22 7 35 -5 29 -26 50 -9 46 39
-2 36 -7 44 -25 46 -13 2 -23 9 -23 17 0 7 -3 22 -7 32 -6 16 -5 16 10 4 28
-22 47 -6 47 39 0 48 -20 62 -50 35 -11 -10 -23 -15 -27 -12 -3 4 -1 7 6 7 9
0 12 13 9 44 -3 40 -1 43 13 30 32 -29 49 -18 49 31 0 53 -19 68 -50 40 -11
-10 -23 -15 -27 -12 -3 4 -1 7 6 7 9 0 12 13 9 44 -3 40 -1 43 13 30 32 -28
49 -18 49 31 0 41 -2 45 -24 45 -14 0 -28 -4 -31 -10 -3 -5 -12 -10 -18 -9 -9
0 -9 2 1 6 6 2 12 22 12 43 0 21 -6 41 -12 43 -8 4 -9 6 -2 6 6 1 17 -6 24
-14 7 -8 21 -15 31 -15 16 0 19 8 19 45 0 41 -2 45 -24 45 -14 0 -28 -4 -31
-10 -3 -5 -12 -10 -18 -9 -9 0 -9 2 1 6 6 2 12 22 12 43 0 21 -6 41 -12 43 -8
4 -9 6 -2 6 6 1 17 -6 24 -14 7 -8 21 -15 31 -15 16 0 19 8 19 45 0 41 -2 45
-25 45 -13 0 -28 -8 -34 -17 -5 -10 -13 -14 -17 -10 -5 5 -2 12 5 16 9 6 12
23 9 49 -3 37 -2 40 13 26 32 -28 49 -18 49 31 0 39 -3 45 -21 45 -12 0 -28
-8 -35 -17 -7 -10 -16 -14 -20 -10 -5 4 -2 12 5 16 9 6 12 23 9 50 -3 34 -1
39 8 27 6 -9 21 -16 33 -16 18 0 21 6 21 45 0 50 -17 59 -52 28 -10 -9 -21
-13 -26 -8 -4 4 -1 10 6 12 6 3 12 19 12 37 0 30 2 32 30 28 30 -4 30 -4 30
42 0 38 -3 46 -19 46 -10 0 -24 -7 -31 -15 -7 -8 -18 -15 -24 -14 -7 0 -6 2 2
6 6 2 12 22 12 42 0 36 1 37 30 33 30 -4 30 -4 30 42 0 38 -3 46 -19 46 -10 0
-24 -7 -31 -15 -7 -8 -18 -15 -24 -14 -7 0 -6 2 2 6 7 2 12 22 12 44 0 37 2
39 20 29 30 -16 40 -4 40 46 0 36 -3 44 -19 44 -10 0 -24 -7 -31 -15 -7 -8
-18 -15 -24 -15 -6 0 -6 4 3 9 7 5 13 25 13 46 0 27 3 34 11 26 6 -6 19 -11
29 -11 15 0 18 9 18 50 0 42 -3 50 -19 50 -10 0 -24 -7 -31 -15 -7 -8 -18 -15
-24 -15 -6 0 -4 4 4 9 8 6 14 24 13 46 -1 27 2 34 10 26 6 -6 19 -11 29 -11
15 0 18 9 18 50 0 55 -9 61 -48 34 -13 -9 -26 -13 -29 -10 -4 3 -2 6 4 6 16 0
23 39 12 68 -10 25 -9 25 9 9 34 -31 52 -22 52 28 0 41 -2 45 -24 45 -14 0
-28 -4 -31 -10 -3 -5 -12 -10 -18 -10 -8 0 -9 3 -1 8 18 12 24 41 13 69 -10
26 -9 26 9 10 34 -31 52 -22 52 28 0 41 -2 45 -24 45 -13 0 -27 -7 -30 -16 -3
-8 -10 -12 -16 -9 -6 4 -5 12 5 21 18 18 19 38 4 67 -12 21 -11 21 8 5 36 -32
53 -23 53 27 0 37 -3 45 -19 45 -10 0 -24 -7 -31 -15 -7 -8 -16 -12 -21 -9 -5
3 -2 12 6 20 18 18 19 38 4 67 -12 21 -11 21 8 5 36 -32 53 -23 53 27 0 37 -3
45 -19 45 -10 0 -24 -7 -31 -15 -7 -8 -16 -12 -21 -9 -5 3 -2 12 6 20 18 18
19 38 4 67 -12 21 -11 21 8 5 36 -32 53 -23 53 27 0 37 -3 45 -19 45 -10 0
-24 -7 -31 -15 -7 -8 -17 -12 -22 -9 -6 4 -4 10 6 16 19 11 21 40 5 71 -12 21
-11 21 8 5 36 -32 53 -23 53 27 0 49 -17 59 -51 29 -13 -12 -19 -12 -25 -3 -4
8 -3 10 4 5 17 -11 26 42 12 72 -11 26 -11 26 7 9 35 -31 53 -22 53 28 0 37
-3 45 -19 45 -10 0 -24 -7 -31 -15z"/>
</g>
</svg>
