<?xml version="1.0" standalone="no"?>
<!DOCTYPE svg PUBLIC "-//W3C//DTD SVG 20010904//EN"
 "http://www.w3.org/TR/2001/REC-SVG-20010904/DTD/svg10.dtd">
<svg version="1.0" xmlns="http://www.w3.org/2000/svg"
 width="2048.000000pt" height="2048.000000pt" viewBox="0 0 2048.000000 2048.000000"
 preserveAspectRatio="xMidYMid meet">
<metadata>
Created by potrace 1.16, written by Peter Selinger 2001-2019
</metadata>
<g transform="translate(0.000000,2048.000000) scale(0.100000,-0.100000)"
fill="#000000" stroke="none">
<path d="M10278 15173 c12 -2 32 -2 45 0 12 2 2 4 -23 4 -25 0 -35 -2 -22 -4z
M10190 15166 c0 -10 28 -13 41 -5 10 6 7 9 -13 9 -16 0 -28 -2 -28 -4z M10205
15119 c-16 -6 -14 -8 13 -8 33 -1 41 4 20 12 -7 2 -22 1 -33 -4z M10275 15100
c28 -12 65 -12 65 0 0 6 -19 10 -42 9 -33 0 -38 -2 -23 -9z M10295 15059 c-3
-4 -28 -11 -56 -15 -27 -4 -52 -11 -56 -17 -4 -6 11 -7 43 -1 27 4 64 8 82 9
17 0 32 5 32 11 0 14 -38 25 -45 13z M10184 14981 c5 -8 56 -3 56 5 0 2 -14 4
-31 4 -16 0 -28 -4 -25 -9z M10305 14970 c-16 -4 -24 -8 -17 -9 6 0 12 -9 12
-20 0 -19 -34 -31 -91 -31 l-29 0 0 -174 0 -174 24 11 c14 7 21 17 19 28 -6
21 5 28 61 35 l46 7 0 -36 c0 -31 -3 -36 -27 -39 -27 -3 -27 -4 5 -9 l32 -6 0
122 c0 138 8 129 -88 105 -52 -13 -62 -8 -62 31 0 27 3 29 38 30 32 0 34 1 14
9 -12 5 -29 7 -37 4 -11 -4 -15 0 -15 16 0 16 4 21 16 16 9 -4 22 -1 30 5 7 6
33 11 58 12 29 1 46 7 46 14 0 7 -7 10 -15 7 -10 -4 -15 0 -15 15 0 12 6 21
15 21 8 0 15 5 15 10 0 6 -1 9 -2 9 -2 -1 -16 -5 -33 -9z m25 -230 c0 -28 -3
-30 -37 -31 l-38 -2 38 -10 c51 -15 46 -31 -14 -45 -82 -19 -89 -17 -89 23 0
33 2 35 33 36 17 1 24 3 15 6 -10 2 -18 11 -18 18 0 20 30 34 73 35 35 0 37
-2 37 -30z m-120 0 c0 -11 -4 -20 -10 -20 -5 0 -10 9 -10 20 0 11 5 20 10 20
6 0 10 -9 10 -20z m0 -135 c0 -8 -4 -15 -10 -15 -5 0 -10 7 -10 15 0 8 5 15
10 15 6 0 10 -7 10 -15z M10272 14835 c9 -9 68 -12 68 -4 0 5 -16 9 -37 9 -20
0 -34 -2 -31 -5z M10275 14519 c-11 -4 -37 -8 -57 -8 -25 -1 -38 -6 -38 -15 0
-9 9 -12 28 -8 15 2 51 6 80 9 33 3 52 9 52 18 0 14 -34 16 -65 4z M10180
14450 c0 -4 21 -10 48 -13 26 -4 59 -8 74 -11 16 -2 30 -1 33 4 4 7 -25 12
-127 24 -16 1 -28 0 -28 -4z M10282 14388 c-5 -5 -30 -10 -56 -11 -29 -1 -46
-7 -46 -14 0 -7 5 -12 12 -10 20 4 21 -31 1 -36 -10 -3 -2 -5 17 -5 19 0 29 2
23 5 -7 2 -13 13 -13 23 0 20 27 30 83 30 21 0 36 4 33 9 -9 14 -43 20 -54 9z
M10265 14300 c25 -11 65 -12 65 -2 0 4 -19 8 -43 9 -31 1 -37 -1 -22 -7z
M10261 14248 c-19 -5 -45 -8 -58 -5 -14 3 -23 -1 -23 -8 0 -16 35 -26 48 -13
6 6 31 11 56 12 29 1 46 6 46 14 0 14 -21 14 -69 0z M10198 14193 c-10 -3 -18
-9 -18 -14 0 -10 7 -11 34 0 23 9 9 19 -16 14z M10283 14163 c9 -2 25 -2 35 0
9 3 1 5 -18 5 -19 0 -27 -2 -17 -5z M10270 14118 c-14 -5 -40 -8 -57 -6 -26 3
-33 0 -33 -13 0 -12 7 -15 28 -12 15 3 48 7 75 10 26 3 47 8 47 13 0 13 -34
18 -60 8z M10180 14046 c0 -8 12 -11 36 -8 41 5 39 11 -5 17 -20 2 -31 -1 -31
-9z M10262 14035 c10 -10 68 -14 68 -4 0 5 -16 9 -37 9 -20 0 -34 -2 -31 -5z
M10245 13979 c-21 -5 -45 -7 -52 -5 -7 3 -13 -1 -13 -8 0 -10 8 -13 28 -9 15
2 48 6 75 8 26 1 47 7 47 11 1 13 -39 14 -85 3z M10198 13922 c-30 -6 -20 -19
12 -14 17 2 30 6 30 7 0 6 -26 11 -42 7z M10265 13900 c26 -11 65 -12 65 -2 0
4 -19 8 -43 8 -30 1 -36 -1 -22 -6z M10288 13858 c-2 -6 -27 -11 -56 -12 -31
-1 -52 -5 -52 -12 0 -16 36 -24 48 -12 6 6 31 11 56 12 27 0 46 6 46 12 0 15
-38 25 -42 12z M10198 13793 c-27 -6 -22 -20 7 -20 14 0 25 3 25 8 0 12 -12
16 -32 12z M10295 13770 c-16 -4 -24 -8 -17 -9 6 0 12 -10 12 -21 0 -19 -15
-24 -90 -32 -20 -2 -26 -9 -28 -35 -3 -31 -1 -33 26 -33 16 0 44 -3 61 -6 25
-5 31 -11 29 -27 -3 -23 -56 -41 -95 -32 -23 5 -23 4 -23 -100 l0 -105 43 1
42 2 -37 10 c-21 6 -38 17 -38 24 0 8 6 13 13 12 6 -2 32 3 56 10 24 7 52 10
62 8 13 -4 19 0 19 13 0 17 -3 17 -52 4 -86 -23 -98 -20 -98 21 0 33 2 35 33
35 24 0 28 3 17 10 -8 5 -23 7 -32 4 -19 -6 -26 20 -8 31 6 3 10 2 10 -4 0 -5
14 -3 31 6 16 8 46 13 65 11 27 -3 34 -1 34 14 0 11 -5 15 -15 12 -11 -4 -15
0 -15 16 0 16 4 20 15 16 9 -3 15 0 15 8 0 9 -7 12 -20 9 -36 -10 -90 6 -90
26 0 23 19 31 71 31 28 0 39 4 39 15 0 9 -6 12 -15 9 -10 -4 -15 0 -15 15 0
12 6 21 15 21 8 0 15 5 15 10 0 6 -1 9 -2 9 -2 -1 -16 -5 -33 -9z m-90 -100
c0 -7 -6 -15 -12 -17 -8 -3 -13 4 -13 17 0 13 5 20 13 18 6 -3 12 -11 12 -18z
M10300 13500 l-25 -8 28 -1 c15 -1 27 4 27 9 0 6 -1 10 -2 9 -2 -1 -14 -5 -28
-9z M10295 13371 l-30 -7 33 -5 c22 -4 32 -2 32 8 0 7 -1 12 -2 12 -2 -1 -16
-4 -33 -8z M10320 13331 c0 -6 -8 -10 -17 -10 -64 -2 -133 -15 -133 -26 0 -8
10 -11 33 -7 17 3 53 6 80 6 42 1 47 3 47 24 0 12 -2 22 -5 22 -3 0 -5 -4 -5
-9z M10185 13251 c-15 -6 -8 -9 30 -14 28 -4 65 -9 83 -11 17 -3 32 -2 32 3 0
5 -21 11 -47 14 -27 2 -55 7 -63 10 -8 3 -24 2 -35 -2z M10268 13185 c-2 -3
-24 -6 -48 -9 -24 -2 -46 -9 -48 -16 -3 -9 3 -11 24 -6 16 3 53 9 82 12 55 7
72 24 24 24 -16 0 -31 -2 -34 -5z M10185 13119 c-15 -6 -11 -8 18 -8 20 -1 37
1 37 3 0 9 -37 12 -55 5z M10265 13099 c26 -10 65 -11 65 -1 0 4 -19 8 -42 8
-31 1 -37 -1 -23 -7z M10260 13050 c-14 -4 -40 -8 -57 -9 -18 -1 -33 -5 -33
-10 0 -12 39 -21 45 -11 3 5 30 12 60 15 30 4 55 11 55 16 0 11 -35 10 -70 -1z
M10188 12993 c-10 -3 -18 -9 -18 -14 0 -10 7 -11 34 0 23 9 9 19 -16 14z
M10278 12963 c12 -2 30 -2 40 0 9 3 -1 5 -23 4 -22 0 -30 -2 -17 -4z M10270
12919 c-14 -4 -42 -7 -62 -8 l-38 -1 0 -150 c0 -129 2 -149 15 -144 9 4 15 0
15 -10 0 -9 -7 -16 -15 -16 -8 0 -15 -6 -15 -13 0 -9 11 -12 35 -9 31 4 34 6
19 17 -27 19 -10 41 36 49 51 8 60 3 60 -35 0 -26 -3 -29 -32 -30 -18 0 -27
-3 -20 -6 6 -2 12 -13 12 -23 0 -21 -53 -37 -90 -27 -15 4 -20 0 -20 -14 0
-10 6 -18 13 -16 6 1 12 -5 12 -13 0 -8 -6 -14 -12 -12 -7 1 -13 -2 -13 -8 0
-5 17 -9 38 -9 20 1 29 3 20 6 -22 6 -24 39 -2 47 9 3 33 6 55 6 28 0 39 4 39
15 0 9 -6 12 -15 9 -10 -4 -15 0 -15 15 0 14 6 21 20 21 19 0 20 6 19 98 -1
57 -4 87 -8 72 -6 -22 -13 -25 -47 -23 -29 1 -34 -1 -19 -7 11 -5 30 -9 43 -9
42 -2 23 -27 -29 -39 -82 -19 -89 -17 -89 23 0 31 3 35 28 36 15 0 21 3 15 6
-7 2 -13 13 -13 23 0 15 10 20 45 26 25 3 52 4 60 0 10 -3 15 0 15 11 0 13 -7
15 -47 8 -93 -15 -98 -13 -101 23 -3 30 -1 32 30 32 27 1 30 2 16 11 -10 5
-18 16 -18 24 0 16 23 23 85 27 35 3 38 4 20 14 -11 6 -31 8 -45 3z m-70 -49
c0 -11 -4 -20 -10 -20 -5 0 -10 9 -10 20 0 11 5 20 10 20 6 0 10 -9 10 -20z
m0 -136 c0 -8 -4 -14 -10 -14 -5 0 -10 9 -10 21 0 11 5 17 10 14 6 -3 10 -13
10 -21z M10252 12835 c10 -10 68 -13 73 -4 4 5 -13 9 -36 9 -23 0 -40 -2 -37
-5z M10263 12433 c12 -3 17 -12 15 -26 -3 -23 -56 -42 -90 -34 -11 3 -18 0
-18 -10 0 -8 4 -12 9 -8 5 3 13 0 17 -6 5 -8 9 -8 14 1 5 7 30 13 59 14 33 1
51 5 51 14 0 6 -7 12 -16 12 -10 0 -14 7 -12 18 2 9 10 16 16 15 7 -2 12 2 12
7 0 6 -17 9 -37 9 -21 -1 -30 -3 -20 -6z M10188 12322 c-30 -6 -20 -19 12 -14
17 2 30 6 30 7 0 6 -26 11 -42 7z M10290 12300 l-25 -8 28 -1 c15 -1 27 4 27
9 0 6 -1 10 -2 9 -2 -1 -14 -5 -28 -9z M10235 12248 c-75 -15 -84 -20 -55 -28
14 -4 30 -3 37 2 6 5 32 10 57 11 29 1 46 7 46 15 0 14 -13 14 -85 0z M10165
12180 c3 -5 23 -10 43 -10 28 0 33 3 22 10 -20 13 -73 13 -65 0z M10273 12163
c9 -2 25 -2 35 0 9 3 1 5 -18 5 -19 0 -27 -2 -17 -5z M10283 12113 c9 -2 23
-2 30 0 6 3 -1 5 -18 5 -16 0 -22 -2 -12 -5z M10228 12103 c6 -2 18 -2 25 0 6
3 1 5 -13 5 -14 0 -19 -2 -12 -5z"/>
</g>
</svg>
