<?xml version="1.0" standalone="no"?>
<!DOCTYPE svg PUBLIC "-//W3C//DTD SVG 20010904//EN"
 "http://www.w3.org/TR/2001/REC-SVG-20010904/DTD/svg10.dtd">
<svg version="1.0" xmlns="http://www.w3.org/2000/svg"
 width="2048.000000pt" height="2048.000000pt" viewBox="0 0 2048.000000 2048.000000"
 preserveAspectRatio="xMidYMid meet">
<metadata>
Created by potrace 1.16, written by Peter Selinger 2001-2019
</metadata>
<g transform="translate(0.000000,2048.000000) scale(0.100000,-0.100000)"
fill="#000000" stroke="none">
<path d="M10180 15172 c0 -11 78 -28 108 -24 55 8 0 32 -74 32 -19 0 -34 -4
-34 -8z M10180 15134 c0 -14 3 -14 15 -4 8 7 15 14 15 16 0 2 -7 4 -15 4 -8 0
-15 -7 -15 -16z M10213 14856 c-39 -12 -42 -21 -10 -31 l22 -8 -22 -4 c-28 -5
-30 -23 -3 -23 11 0 20 -4 20 -10 0 -5 -9 -10 -20 -10 -27 0 -25 -18 3 -23
l22 -4 -22 -2 c-13 0 -23 -7 -23 -15 0 -8 10 -17 23 -19 l22 -4 -22 -2 c-28
-1 -31 -21 -3 -21 11 0 20 -4 20 -10 0 -5 -9 -10 -20 -10 -11 0 -20 -4 -20
-10 0 -5 9 -10 20 -10 11 0 20 -4 20 -10 0 -5 -9 -10 -20 -10 -27 0 -25 -18 3
-23 l22 -4 -22 -2 c-13 0 -23 -5 -23 -10 0 -5 10 -12 23 -16 l22 -8 -22 -4
c-28 -5 -30 -23 -3 -23 11 0 20 -4 20 -10 0 -5 -9 -10 -20 -10 -27 0 -25 -18
3 -23 l22 -4 -22 -8 c-13 -4 -23 -11 -23 -15 0 -5 10 -11 23 -13 l22 -4 -22
-2 c-28 -1 -31 -21 -3 -21 11 0 20 -4 20 -10 0 -5 -9 -10 -20 -10 -11 0 -20
-4 -20 -10 0 -5 9 -10 20 -10 11 0 20 -4 20 -10 0 -5 -9 -10 -20 -10 -27 0
-25 -18 3 -23 l22 -4 -22 -2 c-13 0 -23 -7 -23 -15 0 -8 10 -17 23 -19 l22 -4
-22 -2 c-28 -1 -31 -21 -3 -21 11 0 20 -4 20 -10 0 -5 -9 -10 -20 -10 -11 0
-20 -4 -20 -10 0 -5 9 -10 20 -10 11 0 20 -4 20 -10 0 -5 -9 -10 -20 -10 -27
0 -25 -18 3 -23 l22 -4 -22 -2 c-13 0 -23 -6 -23 -11 0 -6 10 -15 23 -20 l22
-9 -22 0 c-28 -1 -31 -21 -3 -21 11 0 20 -4 20 -10 0 -5 -9 -10 -20 -10 -27 0
-25 -18 3 -23 l22 -4 -22 -8 c-13 -4 -23 -11 -23 -15 0 -5 10 -11 23 -13 l22
-4 -22 -2 c-13 0 -23 -5 -23 -10 0 -5 10 -12 23 -16 l22 -8 -22 -4 c-28 -5
-30 -23 -3 -23 11 0 20 -4 20 -10 0 -5 -9 -10 -20 -10 -28 0 -25 -20 3 -21
l22 0 -22 -9 c-13 -5 -23 -14 -23 -19 0 -5 10 -12 23 -14 l22 -4 -22 -2 c-28
-1 -31 -21 -3 -21 11 0 20 -4 20 -10 0 -5 -9 -10 -20 -10 -11 0 -20 -4 -20
-10 0 -5 9 -10 20 -10 11 0 20 -4 20 -10 0 -5 -9 -10 -20 -10 -27 0 -25 -18 3
-23 l22 -4 -22 -2 c-13 0 -23 -7 -23 -15 0 -8 10 -17 23 -19 l22 -4 -22 -2
c-28 -1 -31 -21 -3 -21 11 0 20 -4 20 -10 0 -5 -9 -10 -20 -10 -11 0 -20 -4
-20 -10 0 -5 9 -10 20 -10 11 0 20 -4 20 -10 0 -5 -9 -10 -20 -10 -27 0 -25
-18 3 -23 l22 -4 -22 -2 c-13 0 -23 -5 -23 -10 0 -5 10 -12 23 -16 l22 -8 -22
-4 c-28 -5 -30 -23 -3 -23 11 0 20 -4 20 -10 0 -5 -9 -10 -20 -10 -27 0 -25
-18 3 -23 l22 -4 -22 -8 c-13 -4 -23 -11 -23 -15 0 -5 10 -11 23 -13 l22 -4
-22 -2 c-28 -1 -31 -21 -3 -21 11 0 20 -4 20 -10 0 -5 -9 -10 -20 -10 -11 0
-20 -4 -20 -10 0 -5 9 -10 20 -10 11 0 20 -4 20 -10 0 -5 -9 -10 -20 -10 -27
0 -25 -18 3 -23 l22 -4 -22 -2 c-13 0 -23 -7 -23 -15 0 -8 10 -17 23 -19 l22
-4 -22 -2 c-28 -1 -31 -21 -3 -21 11 0 20 -4 20 -10 0 -5 -9 -10 -20 -10 -11
0 -20 -4 -20 -10 0 -5 9 -10 20 -10 11 0 20 -4 20 -10 0 -5 -9 -10 -20 -10
-27 0 -25 -18 3 -23 l22 -4 -22 -2 c-13 0 -23 -5 -23 -10 0 -5 10 -12 23 -16
l22 -8 -22 -4 c-28 -5 -30 -23 -3 -23 11 0 20 -4 20 -10 0 -5 -9 -10 -20 -10
-27 0 -25 -18 3 -23 l22 -4 -22 -8 c-13 -4 -23 -11 -23 -15 0 -5 10 -11 23
-13 l22 -4 -22 -2 c-28 -1 -31 -21 -3 -21 11 0 20 -4 20 -10 0 -5 -9 -10 -20
-10 -11 0 -20 -4 -20 -10 0 -5 9 -10 20 -10 11 0 20 -4 20 -10 0 -5 -9 -10
-20 -10 -28 0 -25 -20 3 -21 l22 0 -22 -9 c-13 -5 -23 -14 -23 -19 0 -5 10
-12 23 -14 l22 -4 -22 -2 c-28 -1 -31 -21 -3 -21 11 0 20 -4 20 -10 0 -5 -9
-10 -20 -10 -11 0 -20 -4 -20 -10 0 -5 9 -10 20 -10 11 0 20 -4 20 -10 0 -5
-9 -10 -20 -10 -27 0 -25 -18 3 -23 l22 -4 -22 -2 c-13 0 -23 -6 -23 -11 0 -6
10 -15 23 -20 l22 -9 -22 0 c-28 -1 -31 -21 -3 -21 11 0 20 -4 20 -10 0 -5 -9
-10 -20 -10 -11 0 -20 -4 -20 -10 0 -5 9 -10 20 -10 11 0 20 -4 20 -10 0 -5
-9 -10 -20 -10 -27 0 -25 -18 3 -23 l22 -4 -22 -2 c-13 0 -23 -5 -23 -10 0 -5
10 -12 23 -16 l22 -8 -22 -4 c-28 -5 -30 -23 -3 -23 11 0 20 -4 20 -10 0 -5
-9 -10 -20 -10 -28 0 -25 -20 3 -21 l22 0 -22 -9 c-13 -5 -23 -14 -23 -19 0
-5 10 -12 23 -14 l22 -4 -22 -2 c-28 -1 -31 -21 -3 -21 11 0 20 -4 20 -10 0
-5 -9 -10 -20 -10 -11 0 -20 -4 -20 -10 0 -5 9 -10 20 -10 11 0 20 -4 20 -10
0 -5 -9 -10 -20 -10 -27 0 -25 -18 3 -23 l22 -4 -22 -2 c-13 0 -23 -6 -23 -11
0 -6 10 -15 23 -20 l22 -9 -22 0 c-28 -1 -31 -21 -3 -21 11 0 20 -4 20 -10 0
-5 -9 -10 -20 -10 -11 0 -20 -4 -20 -10 0 -5 9 -10 20 -10 11 0 20 -4 20 -10
0 -5 -9 -10 -20 -10 -27 0 -25 -18 3 -23 l22 -4 -22 -2 c-28 -1 -31 -21 -3
-21 11 0 20 -4 20 -10 0 -5 -9 -10 -20 -10 -11 0 -20 -4 -20 -10 0 -5 9 -10
20 -10 11 0 20 -4 20 -10 0 -5 -9 -10 -20 -10 -28 0 -25 -20 3 -21 l22 0 -22
-9 c-13 -5 -23 -14 -23 -19 0 -5 10 -12 23 -14 l22 -4 -22 -2 c-28 -1 -31 -21
-3 -21 11 0 20 -4 20 -10 0 -5 -9 -10 -20 -10 -11 0 -20 -4 -20 -10 0 -5 9
-10 20 -10 11 0 20 -4 20 -10 0 -5 -9 -10 -20 -10 -27 0 -25 -18 3 -23 l22 -4
-22 -2 c-13 0 -23 -5 -23 -10 0 -5 10 -12 23 -16 l22 -8 -22 -4 c-28 -5 -30
-23 -3 -23 11 0 20 -4 20 -10 0 -5 -9 -10 -20 -10 -27 0 -25 -18 3 -23 l22 -4
-22 -8 c-13 -4 -23 -11 -23 -15 0 -5 10 -11 23 -13 l22 -4 -22 -2 c-28 -1 -31
-21 -3 -21 11 0 20 -4 20 -10 0 -5 -9 -10 -20 -10 -11 0 -20 -4 -20 -10 0 -5
9 -10 20 -10 25 0 26 -17 3 -23 -10 -3 -2 -5 18 -6 35 -1 89 18 89 31 0 4 -10
9 -22 11 l-23 4 23 2 c27 1 30 21 2 21 -11 0 -20 5 -20 10 0 6 9 10 20 10 11
0 20 5 20 10 0 6 -9 10 -20 10 -11 0 -20 5 -20 10 0 6 9 10 20 10 27 0 25 18
-2 23 l-23 4 23 2 c12 0 22 7 22 15 0 8 -10 17 -22 19 l-23 4 23 2 c27 1 30
21 2 21 -11 0 -20 5 -20 10 0 6 9 10 20 10 11 0 20 5 20 10 0 6 -9 10 -20 10
-11 0 -20 5 -20 10 0 6 9 10 20 10 27 0 25 18 -2 23 l-23 4 23 2 c12 0 22 5
22 10 0 5 -10 12 -22 16 l-23 8 23 4 c27 5 29 23 2 23 -11 0 -20 5 -20 10 0 6
9 10 20 10 27 0 25 18 -2 23 l-23 4 23 8 c12 4 22 11 22 15 0 5 -10 11 -22 13
l-23 4 23 2 c27 1 30 21 2 21 -11 0 -20 5 -20 10 0 6 9 10 20 10 11 0 20 5 20
10 0 6 -9 10 -20 10 -11 0 -20 5 -20 10 0 6 9 10 20 10 27 0 25 18 -2 23 l-23
4 23 2 c12 0 22 7 22 15 0 8 -10 17 -22 19 l-23 4 23 2 c27 1 30 21 2 21 -11
0 -20 5 -20 10 0 6 9 10 20 10 11 0 20 5 20 10 0 6 -9 10 -20 10 -11 0 -20 5
-20 10 0 6 9 10 20 10 27 0 25 18 -2 23 l-23 4 23 2 c12 0 22 5 22 10 0 5 -10
12 -22 16 l-23 8 23 4 c27 5 29 23 2 23 -11 0 -20 5 -20 10 0 6 9 10 20 10 28
0 25 20 -2 21 l-23 0 23 9 c12 5 22 14 22 19 0 5 -10 12 -22 14 l-23 4 23 2
c27 1 30 21 2 21 -11 0 -20 5 -20 10 0 6 9 10 20 10 11 0 20 5 20 10 0 6 -9
10 -20 10 -11 0 -20 5 -20 10 0 6 9 10 20 10 27 0 25 18 -2 23 l-23 4 23 2
c12 0 22 6 22 11 0 6 -10 15 -22 20 l-23 9 23 0 c27 1 30 21 2 21 -11 0 -20 5
-20 10 0 6 9 10 20 10 11 0 20 5 20 10 0 6 -9 10 -20 10 -11 0 -20 5 -20 10 0
6 9 10 20 10 27 0 25 18 -2 23 l-23 4 23 2 c27 1 30 21 2 21 -11 0 -20 5 -20
10 0 6 9 10 20 10 11 0 20 5 20 10 0 6 -9 10 -20 10 -11 0 -20 5 -20 10 0 6 9
10 20 10 27 0 25 18 -2 23 l-23 4 23 8 c12 4 22 11 22 15 0 5 -10 11 -22 13
l-23 4 23 2 c27 1 30 21 2 21 -11 0 -20 5 -20 10 0 6 9 10 20 10 11 0 20 5 20
10 0 6 -9 10 -20 10 -11 0 -20 5 -20 10 0 6 9 10 20 10 27 0 25 18 -2 23 l-23
4 23 2 c12 0 22 6 22 11 0 6 -10 15 -22 20 l-23 9 23 0 c27 1 30 21 2 21 -11
0 -20 5 -20 10 0 6 9 10 20 10 11 0 20 5 20 10 0 6 -9 10 -20 10 -11 0 -20 5
-20 10 0 6 9 10 20 10 27 0 25 18 -2 23 l-23 4 23 2 c12 0 22 5 22 10 0 5 -10
12 -22 16 l-23 8 23 4 c27 5 29 23 2 23 -11 0 -20 5 -20 10 0 6 9 10 20 10 11
0 20 5 20 10 0 6 -9 10 -20 10 -11 0 -20 5 -20 10 0 6 9 10 20 10 27 0 25 18
-2 23 l-23 4 23 2 c27 1 30 21 2 21 -11 0 -20 5 -20 10 0 6 9 10 20 10 11 0
20 5 20 10 0 6 -9 10 -20 10 -11 0 -20 5 -20 10 0 6 9 10 20 10 28 0 25 20 -2
21 l-23 0 23 9 c12 5 22 12 22 15 0 3 -10 10 -22 15 l-23 9 23 0 c27 1 30 21
2 21 -11 0 -20 5 -20 10 0 6 9 10 20 10 11 0 20 5 20 10 0 6 -9 10 -20 10 -11
0 -20 5 -20 10 0 6 9 10 20 10 27 0 25 18 -2 23 l-23 4 23 2 c12 0 22 5 22 10
0 5 -10 12 -22 16 l-23 8 23 4 c27 5 29 23 2 23 -11 0 -20 5 -20 10 0 6 9 10
20 10 11 0 20 5 20 10 0 6 -9 10 -20 10 -11 0 -20 5 -20 10 0 6 9 10 20 10 27
0 25 18 -2 23 l-23 4 23 2 c27 1 30 21 2 21 -11 0 -20 5 -20 10 0 6 9 10 20
10 11 0 20 5 20 10 0 6 -9 10 -20 10 -11 0 -20 5 -20 10 0 6 9 10 20 10 28 0
25 20 -2 21 l-23 0 23 9 c12 5 22 14 22 19 0 5 -10 12 -22 14 l-23 4 23 2 c27
1 30 21 2 21 -11 0 -20 5 -20 10 0 6 9 10 20 10 11 0 20 5 20 10 0 6 -9 10
-20 10 -11 0 -20 5 -20 10 0 6 9 10 20 10 28 0 25 20 -2 21 l-23 0 23 9 c12 5
22 12 22 15 0 3 -10 10 -22 15 l-23 9 23 0 c27 1 30 21 2 21 -11 0 -20 5 -20
10 0 6 9 10 20 10 11 0 20 5 20 10 0 6 -9 10 -20 10 -11 0 -20 5 -20 10 0 6 9
10 20 10 27 0 25 18 -2 23 l-23 4 23 2 c27 1 30 21 2 21 -11 0 -20 5 -20 10 0
6 9 10 20 10 11 0 20 5 20 10 0 6 -9 10 -20 10 -11 0 -20 5 -20 10 0 6 9 10
20 10 11 0 20 5 20 10 0 6 -9 10 -20 10 -11 0 -20 5 -20 10 0 6 9 10 20 10 27
0 25 18 -2 23 l-23 4 23 2 c27 1 30 21 2 21 -11 0 -20 5 -20 10 0 6 9 10 20
10 11 0 20 5 20 10 0 6 -9 10 -20 10 -11 0 -20 5 -20 10 0 6 9 10 20 10 28 0
25 20 -2 21 l-23 0 23 9 c12 5 22 12 22 15 0 3 -10 10 -22 15 l-23 9 23 0 c27
1 30 21 2 21 -11 0 -20 5 -20 10 0 6 9 10 20 10 11 0 20 5 20 10 0 6 -9 10
-20 10 -11 0 -20 5 -20 10 0 6 9 10 20 10 27 0 25 18 -2 23 l-23 4 23 2 c27 1
30 21 2 21 -11 0 -20 5 -20 10 0 6 9 10 20 10 11 0 20 5 20 10 0 6 -9 10 -20
10 -11 0 -20 5 -20 10 0 6 9 10 20 10 11 0 20 5 20 10 0 6 -9 10 -20 10 -11 0
-20 5 -20 10 0 6 9 10 20 10 27 0 25 18 -2 23 l-23 4 23 2 c27 1 30 21 2 21
-11 0 -20 5 -20 10 0 6 10 10 22 10 29 0 20 6 -17 12 -16 2 -45 0 -62 -6z"/>
</g>
</svg>
