<?xml version="1.0" standalone="no"?>
<!DOCTYPE svg PUBLIC "-//W3C//DTD SVG 20010904//EN"
 "http://www.w3.org/TR/2001/REC-SVG-20010904/DTD/svg10.dtd">
<svg version="1.0" xmlns="http://www.w3.org/2000/svg"
 width="2360.000000pt" height="1640.000000pt" viewBox="0 0 2360.000000 1640.000000"
 preserveAspectRatio="xMidYMid meet">
<metadata>
Created by potrace 1.16, written by Peter Selinger 2001-2019
</metadata>
<g transform="translate(0.000000,1640.000000) scale(0.100000,-0.100000)"
fill="#000000" stroke="none">
<path d="M8932 14473 c-7 -54 -25 -291 -42 -528 -58 -827 -80 -1162 -95 -1405
-20 -324 -80 -1107 -110 -1445 -13 -148 -38 -441 -55 -650 -16 -209 -43 -549
-60 -755 -16 -206 -39 -487 -50 -625 -61 -770 -117 -1865 -145 -2840 -24 -838
-63 -1417 -135 -1993 -64 -516 -210 -1185 -329 -1505 -45 -119 -163 -356 -198
-394 -13 -13 -26 -35 -29 -48 -3 -14 -11 -25 -17 -25 -21 0 8 -17 50 -28 43
-13 117 -10 828 33 143 9 346 20 450 25 241 11 1425 3 1610 -11 77 -5 260 -12
407 -15 147 -2 273 -6 280 -9 7 -2 42 -11 78 -20 130 -32 140 -36 140 -50 0
-8 6 -15 14 -15 30 0 38 30 42 153 28 951 35 1184 39 1307 3 80 17 489 30 910
14 421 30 900 35 1065 5 165 25 793 44 1395 19 602 37 1145 40 1205 3 61 13
370 22 688 10 317 21 577 24 577 3 0 14 -260 24 -577 9 -318 19 -627 22 -688
3 -60 21 -603 40 -1205 19 -602 39 -1230 44 -1395 5 -165 21 -644 35 -1065 13
-421 27 -830 30 -910 4 -123 11 -356 39 -1307 4 -123 12 -153 42 -153 8 0 14
7 14 15 0 14 10 18 140 50 36 9 71 18 78 20 7 3 133 7 280 9 147 3 330 10 407
15 185 14 1369 22 1610 11 105 -5 307 -16 450 -25 711 -43 785 -46 828 -33 42
11 71 28 50 28 -6 0 -14 11 -17 25 -3 13 -16 35 -29 48 -35 38 -153 275 -198
394 -119 320 -265 989 -329 1505 -71 574 -111 1154 -135 1988 -28 990 -84
2073 -145 2845 -11 138 -34 419 -50 625 -17 206 -44 546 -60 755 -17 209 -42
502 -55 650 -30 338 -90 1121 -110 1445 -14 241 -35 550 -95 1410 -17 239 -37
478 -44 530 l-12 95 -18 -77 c-17 -74 -17 -89 -2 -295 9 -120 27 -382 41 -583
14 -201 34 -493 45 -650 11 -157 25 -361 30 -455 16 -261 88 -1211 105 -1380
8 -82 26 -292 40 -465 14 -173 52 -639 85 -1035 76 -925 79 -966 125 -1790 25
-454 49 -1001 60 -1350 26 -859 36 -1092 70 -1520 55 -683 101 -1025 210
-1530 82 -383 126 -548 195 -736 43 -118 166 -365 200 -402 31 -32 24 -39 -32
-33 -29 3 -136 10 -238 16 -1023 57 -1031 57 -1395 66 -273 6 -985 -10 -1240
-27 -82 -6 -206 -10 -275 -9 -166 2 -376 -16 -478 -41 -46 -12 -85 -19 -87
-17 -1 1 -8 161 -14 353 -6 193 -16 483 -21 645 -5 162 -21 657 -35 1100 -39
1254 -68 2164 -131 4085 -24 748 -51 1441 -58 1540 -12 147 -15 560 -15 2241
-1 2170 1 2090 -42 2063 -12 -7 -15 -328 -20 -2191 l-5 -2183 -57 -1750 c-31
-962 -64 -1961 -72 -2220 -15 -483 -21 -651 -55 -1750 -11 -352 -25 -773 -30
-935 -5 -162 -15 -452 -21 -645 -6 -192 -13 -352 -14 -353 -2 -2 -41 5 -87 17
-102 25 -312 43 -478 41 -69 -1 -188 3 -265 8 -77 6 -342 16 -590 22 -500 13
-923 5 -1520 -30 -187 -10 -428 -24 -535 -30 -107 -6 -216 -13 -242 -16 -52
-6 -58 1 -28 33 34 37 157 284 200 402 69 188 113 353 195 736 109 505 155
847 210 1530 34 428 44 661 70 1520 11 349 35 896 60 1350 46 824 49 865 125
1790 33 396 71 862 85 1035 14 173 32 383 40 465 17 169 89 1119 105 1380 5
94 19 298 30 455 11 157 31 449 45 650 14 201 32 463 41 583 15 202 15 223 -1
292 -9 41 -18 75 -19 75 -2 0 -8 -44 -14 -97z"/>
</g>
</svg>
