<?xml version="1.0" standalone="no"?>
<!DOCTYPE svg PUBLIC "-//W3C//DTD SVG 20010904//EN"
 "http://www.w3.org/TR/2001/REC-SVG-20010904/DTD/svg10.dtd">
<svg version="1.0" xmlns="http://www.w3.org/2000/svg"
 width="2360.000000pt" height="1640.000000pt" viewBox="0 0 2360.000000 1640.000000"
 preserveAspectRatio="xMidYMid meet">
<metadata>
Created by potrace 1.16, written by Peter Selinger 2001-2019
</metadata>
<g transform="translate(0.000000,1640.000000) scale(0.100000,-0.100000)"
fill="#000000" stroke="none">
<path d="M8931 14500 c-1 -8 -8 -58 -16 -110 -30 -196 -104 -925 -145 -1425
-11 -137 -25 -302 -30 -365 -50 -587 -149 -2123 -195 -3025 -14 -274 -36 -706
-50 -960 -94 -1763 -160 -3901 -181 -5901 -6 -581 6 -1467 19 -1481 5 -4 16 1
26 13 15 19 27 21 196 22 99 1 234 4 300 7 1114 45 1598 70 1900 95 66 5 190
10 276 10 119 0 159 3 168 13 8 10 8 51 0 153 -15 186 -5 640 20 919 11 121
27 326 36 455 14 212 71 854 184 2075 22 237 54 594 71 795 17 201 47 527 66
725 54 568 81 878 129 1505 61 798 88 1120 95 1120 7 0 37 -350 95 -1120 48
-626 74 -934 129 -1505 19 -198 49 -524 66 -725 17 -201 49 -558 71 -795 113
-1221 170 -1863 184 -2075 9 -129 25 -334 36 -455 25 -279 35 -733 20 -919 -8
-102 -8 -143 0 -153 9 -10 49 -13 168 -13 86 0 210 -5 276 -10 302 -25 786
-50 1900 -95 66 -3 201 -6 300 -7 169 -1 181 -3 196 -22 10 -12 21 -17 26 -13
19 20 27 1287 12 2062 -23 1208 -40 2005 -44 2130 -3 77 -12 349 -20 605 -26
808 -69 1811 -110 2585 -14 254 -36 686 -50 960 -46 902 -145 2438 -195 3025
-5 63 -19 228 -30 365 -52 644 -146 1524 -165 1543 -2 2 -7 -22 -10 -53 -11
-82 0 -264 29 -530 92 -834 242 -2859 311 -4220 8 -165 29 -545 45 -845 71
-1301 119 -2473 150 -3680 5 -212 12 -533 15 -715 3 -181 7 -402 10 -490 17
-549 26 -1687 17 -2143 -5 -277 -11 -504 -13 -506 -14 -10 -1848 71 -2244 99
-115 8 -278 16 -362 18 -84 2 -154 5 -156 7 -2 3 0 79 6 170 9 168 -4 641 -23
800 -4 41 -16 174 -24 295 -9 121 -21 283 -27 360 -10 144 -78 898 -149 1660
-21 237 -60 671 -85 965 -25 294 -61 699 -80 900 -49 519 -60 646 -115 1375
-28 358 -68 862 -90 1120 l-40 470 2 745 c2 752 9 1882 23 3273 l7 757 -26 0
c-19 0 -27 -6 -30 -22 -3 -13 -7 -511 -10 -1108 -6 -1102 -12 -1862 -22 -3015
-5 -636 -6 -643 -45 -1105 -21 -256 -61 -757 -89 -1115 -55 -729 -66 -856
-115 -1375 -19 -201 -55 -606 -80 -900 -25 -294 -66 -753 -90 -1020 -76 -819
-134 -1458 -144 -1605 -6 -77 -18 -239 -27 -360 -8 -121 -20 -254 -24 -295
-19 -157 -32 -632 -23 -800 6 -91 8 -167 6 -170 -2 -2 -72 -5 -156 -7 -84 -2
-246 -10 -362 -18 -115 -8 -253 -17 -305 -20 -180 -10 -1215 -55 -1525 -65
-170 -5 -333 -12 -362 -14 l-51 -4 -6 131 c-19 441 -16 1451 9 2512 3 121 7
355 10 520 25 1344 81 2831 165 4375 16 300 37 680 45 845 70 1365 220 3398
311 4220 29 262 40 491 26 550 -6 22 -11 33 -11 25z"/>
</g>
</svg>
