<?xml version="1.0" standalone="no"?>
<!DOCTYPE svg PUBLIC "-//W3C//DTD SVG 20010904//EN"
 "http://www.w3.org/TR/2001/REC-SVG-20010904/DTD/svg10.dtd">
<svg version="1.0" xmlns="http://www.w3.org/2000/svg"
 width="2360.000000pt" height="1640.000000pt" viewBox="0 0 2360.000000 1640.000000"
 preserveAspectRatio="xMidYMid meet">
<metadata>
Created by potrace 1.16, written by Peter Selinger 2001-2019
</metadata>
<g transform="translate(0.000000,1640.000000) scale(0.100000,-0.100000)"
fill="#000000" stroke="none">
<path d="M8907 14388 c-9 -62 -24 -201 -32 -308 -8 -107 -28 -366 -44 -575
-47 -605 -85 -1263 -126 -2195 -14 -316 -32 -717 -40 -890 -16 -354 -28 -731
-50 -1600 -18 -689 -29 -903 -71 -1283 -18 -158 -13 -189 22 -148 16 19 25 20
104 15 62 -4 197 5 494 35 383 38 430 41 710 40 166 0 378 -4 471 -9 496 -25
608 -31 800 -46 116 -8 251 -19 302 -25 50 -5 96 -9 102 -9 14 0 14 37 1 45
-7 4 -6 13 1 27 7 14 9 45 5 87 -14 136 -4 508 24 916 19 264 100 1204 119
1385 11 96 27 261 35 365 25 300 49 465 66 465 17 0 41 -165 66 -465 8 -104
24 -269 35 -365 19 -181 100 -1121 119 -1385 28 -408 38 -780 24 -916 -4 -42
-2 -73 5 -87 7 -14 8 -23 1 -27 -13 -8 -13 -45 1 -45 6 0 52 4 102 9 51 6 187
17 302 25 192 15 304 21 800 46 94 5 305 9 471 9 280 1 327 -2 710 -40 297
-30 432 -39 494 -35 79 5 88 4 104 -15 35 -41 40 -10 22 148 -42 380 -53 594
-71 1283 -22 869 -34 1246 -50 1600 -8 173 -26 574 -40 890 -41 932 -79 1590
-126 2195 -16 209 -36 468 -44 575 -16 208 -44 420 -55 420 -4 0 -12 -25 -19
-55 -9 -42 -10 -82 -2 -167 62 -656 145 -1952 191 -2973 11 -247 29 -646 39
-885 11 -239 23 -520 26 -625 3 -104 8 -255 10 -335 3 -80 10 -345 15 -590 11
-463 23 -761 40 -965 18 -217 41 -440 47 -459 4 -16 1 -18 -18 -12 -31 8 -125
18 -579 63 -312 30 -416 37 -620 37 -331 1 -704 -7 -710 -16 -3 -3 -109 -12
-235 -18 -127 -6 -311 -17 -410 -25 -99 -8 -217 -17 -263 -21 l-83 -6 6 133
c10 184 -20 839 -55 1229 -5 58 -21 247 -35 420 -14 173 -43 494 -65 713 -22
219 -40 425 -40 458 0 98 -49 369 -71 394 -5 5 -9 796 -9 1766 l0 1757 -31 4
-32 5 6 -1791 c3 -985 2 -1777 -2 -1761 -9 35 -13 28 -35 -60 -23 -94 -46
-249 -46 -314 0 -33 -18 -239 -40 -458 -22 -219 -51 -540 -65 -713 -14 -173
-30 -362 -35 -420 -35 -390 -65 -1045 -55 -1229 l6 -133 -83 6 c-46 4 -164 13
-263 21 -99 8 -283 19 -410 25 -126 6 -232 15 -235 18 -6 9 -379 17 -710 16
-204 0 -308 -7 -620 -37 -454 -45 -548 -55 -579 -63 -19 -6 -22 -4 -18 12 6
19 29 242 47 459 17 204 29 502 40 965 5 245 12 510 15 590 2 80 7 231 10 335
3 105 15 386 26 625 10 239 28 638 39 885 46 1021 129 2317 191 2973 8 85 7
125 -2 167 -7 30 -15 55 -19 55 -4 0 -14 -51 -23 -112z"/>
</g>
</svg>
