<?xml version="1.0" standalone="no"?>
<!DOCTYPE svg PUBLIC "-//W3C//DTD SVG 20010904//EN"
 "http://www.w3.org/TR/2001/REC-SVG-20010904/DTD/svg10.dtd">
<svg version="1.0" xmlns="http://www.w3.org/2000/svg"
 width="2360.000000pt" height="1640.000000pt" viewBox="0 0 2360.000000 1640.000000"
 preserveAspectRatio="xMidYMid meet">
<metadata>
Created by potrace 1.16, written by Peter Selinger 2001-2019
</metadata>
<g transform="translate(0.000000,1640.000000) scale(0.100000,-0.100000)"
fill="#000000" stroke="none">
<path d="M8921 14480 c-68 -215 -156 -696 -215 -1170 -46 -367 -122 -1197
-171 -1870 -9 -118 -34 -433 -55 -700 -143 -1753 -169 -2648 -141 -4775 16
-1223 35 -1757 77 -2205 36 -383 99 -868 145 -1115 36 -194 37 -198 55 -191 8
3 14 2 14 -3 0 -14 124 -30 195 -26 539 38 741 41 1352 20 466 -16 594 -30
836 -90 153 -38 180 -41 194 -22 5 6 15 48 21 92 7 44 23 152 37 240 13 88 40
279 59 425 20 146 51 375 70 510 20 135 47 355 61 489 14 134 28 247 30 251 4
7 35 388 60 745 8 121 24 342 35 490 19 257 33 467 65 980 8 127 17 266 20
310 5 77 34 617 55 1025 5 107 14 382 20 610 9 363 20 620 46 1073 4 64 10
117 14 117 4 0 10 -53 14 -117 26 -453 37 -710 46 -1073 10 -387 17 -550 55
-1275 22 -411 81 -1334 110 -1715 8 -107 21 -296 30 -420 24 -351 56 -743 60
-750 2 -4 16 -117 30 -251 14 -134 41 -354 61 -489 19 -135 50 -364 70 -510
19 -146 46 -337 59 -425 14 -88 30 -196 37 -240 6 -44 16 -86 21 -92 14 -19
41 -16 194 22 242 60 370 74 836 90 611 21 813 18 1352 -20 71 -4 195 12 195
26 0 5 6 6 14 3 18 -7 19 -3 55 191 46 247 109 732 145 1115 42 448 61 982 77
2205 28 2127 2 3022 -141 4775 -21 267 -46 582 -55 700 -49 673 -125 1503
-171 1870 -59 474 -147 955 -215 1170 l-24 75 -3 -82 c-2 -66 5 -116 33 -245
123 -552 207 -1271 315 -2693 11 -148 41 -513 65 -810 92 -1121 116 -1551 145
-2615 13 -465 13 -940 0 -2020 -19 -1630 -42 -2103 -136 -2855 -39 -316 -89
-637 -110 -707 -5 -16 -20 -18 -122 -18 -81 0 -124 -4 -137 -13 -15 -10 -47
-12 -135 -6 -443 28 -567 30 -837 20 -153 -6 -390 -16 -528 -21 -283 -11 -397
-26 -607 -76 -81 -20 -151 -33 -157 -30 -5 3 -12 30 -16 59 -4 28 -20 138 -35
242 -16 105 -41 282 -55 395 -14 113 -41 313 -60 445 -68 469 -120 992 -165
1660 -11 165 -22 318 -25 340 -2 22 -7 85 -10 140 -3 55 -21 341 -40 635 -19
294 -41 663 -50 820 -8 157 -22 407 -30 555 -8 149 -22 509 -30 801 -14 500
-21 656 -45 1054 -13 216 -19 278 -35 380 -9 59 -15 249 -19 615 -3 292 -11
780 -18 1085 -9 435 -8 674 1 1105 14 563 19 1144 13 1432 -3 127 -7 164 -18
174 -10 8 -18 9 -25 2 -19 -19 -32 -2479 -17 -3113 5 -173 9 -515 10 -760 3
-385 1 -457 -14 -535 -31 -164 -62 -699 -83 -1440 -8 -291 -22 -651 -30 -800
-8 -148 -22 -398 -30 -555 -9 -157 -31 -526 -50 -820 -19 -294 -37 -580 -40
-635 -3 -55 -8 -118 -10 -140 -3 -22 -14 -175 -25 -340 -45 -668 -97 -1191
-165 -1660 -19 -132 -46 -332 -60 -445 -14 -113 -39 -290 -55 -395 -15 -104
-31 -214 -35 -242 -4 -29 -11 -56 -16 -59 -6 -3 -76 10 -157 30 -210 50 -324
65 -607 76 -137 5 -375 15 -528 21 -270 10 -394 8 -837 -20 -88 -6 -120 -4
-135 6 -13 9 -56 13 -137 13 -102 0 -117 2 -122 18 -21 70 -71 391 -110 707
-94 752 -117 1225 -136 2855 -13 1080 -13 1555 0 2020 29 1064 53 1494 145
2615 24 297 54 662 65 810 108 1422 192 2141 315 2693 28 129 35 179 33 245
l-3 82 -24 -75z"/>
</g>
</svg>
