<?xml version="1.0" standalone="no"?>
<!DOCTYPE svg PUBLIC "-//W3C//DTD SVG 20010904//EN"
 "http://www.w3.org/TR/2001/REC-SVG-20010904/DTD/svg10.dtd">
<svg version="1.0" xmlns="http://www.w3.org/2000/svg"
 width="2360.000000pt" height="1640.000000pt" viewBox="0 0 2360.000000 1640.000000"
 preserveAspectRatio="xMidYMid meet">
<metadata>
Created by potrace 1.16, written by Peter Selinger 2001-2019
</metadata>
<g transform="translate(0.000000,1640.000000) scale(0.100000,-0.100000)"
fill="#000000" stroke="none">
<path d="M8922 14440 c-31 -162 -124 -897 -157 -1250 -9 -91 -27 -277 -40
-415 -34 -340 -69 -743 -105 -1215 -17 -217 -50 -642 -75 -945 -24 -302 -51
-647 -60 -765 -17 -236 -52 -659 -150 -1820 -35 -421 -78 -965 -95 -1210 -17
-245 -39 -557 -50 -695 -56 -718 -85 -1126 -120 -1705 -11 -184 -31 -461 -45
-615 -14 -154 -32 -359 -41 -455 -8 -96 -24 -256 -34 -355 -33 -318 -51 -606
-48 -779 l3 -169 75 -17 c125 -29 1055 -52 2245 -55 556 -1 1034 -6 1062 -10
46 -7 53 -5 59 10 5 11 1 22 -8 29 -13 10 -13 13 -2 24 8 7 14 28 14 46 0 32
71 1100 195 2926 66 977 146 2150 212 3143 21 306 40 557 43 557 3 0 22 -251
43 -557 66 -993 146 -2166 212 -3143 124 -1826 195 -2894 195 -2926 0 -18 6
-39 14 -46 11 -11 11 -14 -2 -24 -9 -7 -13 -18 -8 -29 6 -15 13 -17 59 -10 28
4 507 9 1062 10 1192 3 2121 25 2245 54 l75 18 3 169 c3 173 -15 461 -48 779
-10 99 -26 259 -34 355 -9 96 -27 301 -41 455 -14 154 -34 431 -45 615 -35
579 -64 987 -120 1705 -11 138 -33 450 -50 695 -17 245 -60 789 -95 1210 -105
1243 -133 1589 -155 1885 -11 154 -34 438 -50 630 -16 193 -43 535 -60 760
-16 226 -39 514 -50 640 -11 127 -25 286 -31 355 -5 69 -26 285 -45 480 -18
195 -39 405 -44 465 -30 314 -123 1047 -152 1195 l-23 115 -9 -105 c-9 -98 -6
-135 48 -570 31 -256 70 -604 87 -775 16 -170 36 -375 44 -455 18 -179 90
-1021 105 -1225 14 -202 23 -317 70 -885 22 -267 51 -638 65 -825 14 -187 35
-441 46 -565 91 -1032 159 -1864 194 -2370 14 -206 37 -514 50 -685 45 -577
74 -989 100 -1400 33 -541 32 -537 60 -855 59 -665 67 -752 80 -870 25 -218
37 -408 44 -663 l6 -247 -200 -1 c-110 0 -371 -6 -580 -13 -563 -19 -1262 -25
-1935 -16 -217 3 -448 1 -512 -3 l-118 -9 0 48 c0 26 -22 383 -50 793 -27 410
-131 1959 -229 3441 l-180 2695 -5 1315 c-3 723 -6 1921 -6 2661 0 1176 -2
1348 -15 1353 -8 3 -21 -2 -30 -10 -13 -14 -15 -146 -10 -1212 14 -3311 15
-3863 6 -3880 -5 -9 -46 -573 -91 -1252 -45 -679 -151 -2274 -236 -3545 -84
-1270 -154 -2332 -154 -2358 l0 -49 -117 9 c-65 4 -296 6 -513 3 -673 -9
-1372 -3 -1935 16 -209 7 -470 13 -580 13 l-200 1 6 247 c7 255 19 445 44 663
13 118 21 205 80 870 28 318 27 314 60 855 26 411 55 823 100 1400 13 171 36
479 50 685 35 506 103 1338 194 2370 11 124 32 378 46 565 14 187 43 558 65
825 47 568 56 683 70 885 15 204 87 1046 105 1225 8 80 28 285 44 455 17 171
56 519 87 775 54 435 57 472 48 570 l-9 105 -23 -115z"/>
</g>
</svg>
