<?xml version="1.0" standalone="no"?>
<!DOCTYPE svg PUBLIC "-//W3C//DTD SVG 20010904//EN"
 "http://www.w3.org/TR/2001/REC-SVG-20010904/DTD/svg10.dtd">
<svg version="1.0" xmlns="http://www.w3.org/2000/svg"
 width="2360.000000pt" height="1640.000000pt" viewBox="0 0 2360.000000 1640.000000"
 preserveAspectRatio="xMidYMid meet">
<metadata>
Created by potrace 1.16, written by Peter Selinger 2001-2019
</metadata>
<g transform="translate(0.000000,1640.000000) scale(0.100000,-0.100000)"
fill="#000000" stroke="none">
<path d="M8906 14468 c-7 -18 -16 -69 -20 -113 -3 -44 -15 -190 -26 -325 -41
-511 -101 -1496 -125 -2065 -47 -1130 -59 -1866 -52 -3440 3 -731 10 -1517 16
-1745 6 -228 15 -613 21 -855 17 -730 36 -1245 65 -1825 68 -1314 135 -2366
156 -2415 9 -23 13 -26 16 -12 5 18 18 23 27 8 3 -5 56 -12 118 -15 62 -4 167
-11 233 -17 66 -5 256 -18 422 -28 265 -17 308 -18 355 -5 29 7 65 14 81 14
24 0 26 2 16 18 -9 14 8 102 79 422 188 840 311 1459 486 2450 97 551 296
1744 385 2310 121 768 136 870 391 2640 77 531 160 1100 185 1265 25 165 49
321 52 348 3 26 9 47 13 47 4 0 10 -21 13 -47 3 -27 27 -183 52 -348 25 -165
108 -734 185 -1265 255 -1770 270 -1872 391 -2640 89 -566 288 -1759 385
-2310 175 -991 298 -1610 486 -2450 71 -320 88 -408 79 -422 -10 -16 -8 -18
16 -18 16 0 52 -7 81 -14 47 -13 90 -12 355 5 166 10 356 23 422 28 66 6 171
13 233 17 62 3 115 10 118 15 9 15 22 10 27 -8 3 -14 7 -11 16 12 21 49 88
1101 156 2415 29 580 48 1095 65 1825 6 242 15 627 21 855 6 228 13 1014 16
1745 7 1574 -5 2310 -52 3440 -24 569 -84 1554 -125 2065 -11 135 -23 281 -26
325 -7 89 -27 150 -45 139 -14 -8 -10 -98 25 -534 20 -257 77 -1127 101 -1560
14 -255 38 -888 56 -1450 13 -427 20 -3069 9 -3630 -22 -1107 -50 -2190 -70
-2665 -25 -576 -94 -1825 -130 -2353 -11 -155 -23 -349 -26 -430 l-7 -147 -68
3 c-37 2 -166 -3 -286 -12 -251 -19 -817 -55 -819 -53 -2 7 -222 1012 -258
1182 -147 701 -309 1596 -535 2955 -187 1125 -287 1780 -526 3440 -147 1019
-194 1343 -250 1709 -30 195 -55 365 -55 378 0 19 -5 23 -30 23 -25 0 -30 -4
-30 -23 0 -13 -25 -183 -55 -378 -57 -375 -103 -689 -265 -1814 -228 -1583
-321 -2191 -511 -3335 -225 -1357 -388 -2253 -535 -2955 -36 -170 -256 -1175
-258 -1182 -2 -2 -568 34 -819 53 -120 9 -249 14 -287 12 l-70 -4 0 66 c0 36
-11 230 -25 430 -99 1470 -151 2646 -186 4180 -25 1108 -27 1404 -24 2780 4
1490 11 1883 55 2900 19 428 82 1460 116 1880 35 436 39 526 25 534 -7 5 -16
-5 -25 -26z"/>
</g>
</svg>
