<?xml version="1.0" standalone="no"?>
<!DOCTYPE svg PUBLIC "-//W3C//DTD SVG 20010904//EN"
 "http://www.w3.org/TR/2001/REC-SVG-20010904/DTD/svg10.dtd">
<svg version="1.0" xmlns="http://www.w3.org/2000/svg"
 width="2360.000000pt" height="1640.000000pt" viewBox="0 0 2360.000000 1640.000000"
 preserveAspectRatio="xMidYMid meet">
<metadata>
Created by potrace 1.16, written by Peter Selinger 2001-2019
</metadata>
<g transform="translate(0.000000,1640.000000) scale(0.100000,-0.100000)"
fill="#000000" stroke="none">
<path d="M11813 10633 c-20 -4 -23 -11 -23 -52 0 -41 -3 -49 -25 -59 -32 -15
-35 -72 -6 -93 26 -20 36 -88 13 -96 -39 -15 -45 -74 -9 -98 19 -12 23 -22 21
-62 -1 -36 -7 -51 -23 -61 -31 -21 -29 -79 2 -93 22 -10 23 -16 19 -62 -3 -35
-11 -56 -23 -65 -28 -20 -26 -80 4 -91 20 -8 22 -14 19 -64 -3 -44 -8 -56 -23
-60 -27 -7 -27 -72 1 -89 16 -10 20 -24 20 -63 0 -39 -4 -53 -20 -63 -29 -18
-28 -79 3 -93 19 -9 22 -16 19 -64 -3 -42 -8 -54 -23 -58 -28 -8 -28 -87 1
-94 17 -5 20 -14 20 -60 0 -46 -3 -56 -20 -60 -16 -4 -20 -14 -20 -48 0 -35 4
-45 20 -50 17 -5 20 -15 20 -60 0 -44 -3 -53 -20 -58 -16 -4 -20 -14 -20 -50
0 -36 4 -46 20 -50 16 -4 20 -14 20 -52 0 -38 -5 -52 -25 -71 -14 -13 -25 -32
-25 -44 0 -12 11 -31 25 -44 20 -19 25 -33 25 -71 0 -39 -4 -48 -20 -52 -39
-10 -34 -103 5 -103 12 0 15 -12 15 -55 0 -43 -3 -55 -15 -55 -38 0 -44 -93
-7 -102 16 -5 19 -14 17 -59 -1 -41 -6 -55 -18 -57 -34 -7 -34 -97 0 -104 13
-2 17 -15 17 -55 1 -45 -2 -53 -22 -63 -19 -8 -23 -17 -20 -48 2 -26 9 -40 23
-46 29 -13 26 -101 -4 -122 -30 -22 -29 -81 2 -93 20 -8 22 -14 19 -64 -3 -44
-8 -56 -23 -60 -30 -8 -27 -80 4 -94 19 -9 22 -16 19 -62 -3 -38 -9 -54 -23
-62 -29 -15 -26 -76 4 -90 19 -9 22 -16 19 -64 -3 -42 -8 -54 -23 -58 -28 -8
-28 -87 1 -94 17 -5 20 -14 20 -59 0 -43 -4 -55 -20 -64 -15 -8 -20 -21 -20
-50 0 -30 5 -40 20 -45 17 -5 20 -15 20 -60 0 -45 -3 -55 -20 -60 -16 -5 -20
-15 -20 -50 0 -34 4 -44 20 -48 29 -7 29 -101 1 -116 -37 -20 -34 -101 4 -101
11 0 15 -13 15 -56 0 -47 -3 -57 -19 -61 -39 -10 -35 -103 4 -103 11 0 15 -13
15 -53 0 -45 -3 -54 -22 -62 -37 -16 -37 -88 -1 -97 26 -7 25 -111 0 -116 -35
-7 -36 -81 -1 -96 17 -7 20 -18 20 -62 -1 -45 -4 -55 -24 -64 -19 -8 -23 -17
-20 -48 2 -26 9 -40 24 -46 30 -13 27 -100 -4 -122 -15 -11 -22 -26 -22 -50 0
-28 5 -36 26 -44 18 -7 24 -15 20 -26 -3 -9 -6 -33 -6 -54 0 -29 -4 -39 -20
-43 -16 -4 -20 -14 -20 -46 0 -34 4 -43 23 -50 20 -8 22 -14 19 -60 -3 -38 -9
-54 -23 -62 -27 -14 -26 -74 1 -91 16 -10 20 -24 20 -64 0 -43 -3 -53 -20 -57
-16 -4 -20 -14 -20 -46 0 -30 5 -43 20 -51 16 -8 20 -21 20 -60 0 -39 -4 -52
-20 -60 -15 -8 -20 -21 -20 -51 0 -32 4 -42 20 -46 17 -4 20 -14 20 -58 0 -44
-3 -54 -20 -58 -16 -4 -20 -14 -20 -46 0 -30 5 -43 20 -51 16 -8 20 -21 20
-60 0 -39 -4 -52 -20 -60 -15 -8 -20 -21 -20 -51 0 -32 4 -42 20 -46 17 -5 20
-14 20 -58 0 -44 -3 -55 -19 -60 -38 -12 -38 -88 0 -100 16 -5 19 -16 19 -61
0 -42 -3 -54 -15 -54 -39 0 -44 -93 -5 -103 17 -4 20 -13 20 -56 0 -40 -4 -53
-17 -58 -24 -9 -33 -23 -33 -54 0 -34 17 -49 60 -49 19 0 53 -5 74 -11 52 -14
69 5 63 73 -3 42 -2 47 17 50 17 2 22 11 24 46 3 36 0 44 -17 49 -15 4 -20 15
-23 58 -3 48 0 55 20 64 31 14 32 86 2 96 -17 5 -20 15 -20 60 0 44 3 53 20
58 16 4 20 14 20 50 0 36 -4 46 -20 50 -17 4 -20 14 -20 61 0 43 4 56 15 56
39 0 43 80 5 100 -16 9 -20 21 -20 61 0 43 3 52 20 56 38 10 38 86 -1 98 -16
5 -19 16 -19 58 0 45 3 54 23 62 32 14 38 84 8 92 -12 3 -21 8 -21 12 -1 3 -2
28 -4 54 -3 38 0 50 13 54 9 4 19 11 23 17 14 20 8 65 -10 78 -12 8 -21 31
-25 63 -5 46 -3 52 16 60 32 14 37 84 8 92 -17 4 -21 13 -21 43 0 21 -3 45 -6
54 -4 10 1 18 12 23 11 3 22 11 26 17 14 21 8 65 -11 78 -12 9 -20 30 -23 65
-4 46 -3 52 19 62 30 14 33 73 4 93 -12 9 -20 30 -23 65 -5 48 -3 52 19 57 19
5 23 13 23 46 0 28 -5 42 -19 49 -14 8 -20 24 -23 62 -3 46 -1 52 20 60 18 7
22 16 22 50 0 32 -4 42 -19 46 -15 4 -20 16 -23 59 -3 50 -1 55 20 61 18 4 22
12 22 48 0 35 -4 45 -20 50 -17 5 -20 15 -20 60 0 44 3 53 20 58 16 4 20 14
20 50 0 36 -4 46 -20 50 -17 4 -20 14 -20 61 0 43 4 56 15 56 39 0 43 80 5
100 -29 16 -29 106 0 115 38 12 38 88 -1 100 -16 5 -19 16 -19 61 0 42 3 54
15 54 37 0 45 95 8 102 -23 4 -27 107 -4 116 39 14 43 74 6 98 -19 12 -23 22
-19 44 4 15 2 36 -4 46 -9 15 -5 21 19 31 24 10 29 18 29 46 0 24 -6 39 -21
48 -29 19 -36 119 -9 119 35 0 44 88 10 97 -16 4 -20 14 -20 43 0 21 -3 45 -6
54 -4 11 2 19 20 26 21 8 26 16 26 44 0 23 -7 39 -19 48 -12 9 -20 30 -23 65
-5 48 -3 52 19 57 19 5 23 13 23 46 0 28 -5 42 -19 49 -14 8 -20 24 -23 62 -3
46 -1 52 20 60 18 7 22 16 22 50 0 32 -4 42 -19 46 -15 4 -20 16 -23 59 -3 50
-1 55 20 61 18 4 22 12 22 48 0 35 -4 45 -20 50 -17 5 -20 15 -20 60 0 44 3
53 20 58 16 4 20 14 20 46 0 30 -5 43 -20 51 -16 9 -20 21 -20 64 0 45 3 54
20 59 16 4 20 14 20 46 0 30 -5 43 -20 51 -28 15 -29 106 -1 115 35 11 35 89
0 100 -16 5 -19 16 -19 61 0 41 4 54 15 54 39 0 43 93 4 103 -27 7 -28 104 -1
114 38 14 45 73 10 97 -16 12 -22 27 -23 65 -2 43 1 51 22 60 30 14 33 72 4
92 -13 9 -21 31 -24 67 -5 46 -4 52 12 52 36 0 46 88 11 97 -16 4 -20 14 -20
43 0 21 -3 45 -6 54 -4 11 2 19 20 26 22 8 26 16 26 49 0 31 -4 41 -20 46 -15
5 -20 15 -20 45 0 21 -2 44 -5 52 -3 7 5 17 17 23 32 14 38 73 9 94 -14 12
-20 30 -22 65 -3 43 0 50 19 57 30 11 32 83 3 98 -12 7 -20 24 -23 50 -3 35 0
41 19 46 20 5 23 12 23 50 0 43 -1 45 -29 45 -15 0 -48 2 -72 4 -24 2 -54 2
-66 -1z m144 -39 c9 -24 -6 -31 -79 -37 -66 -6 -68 -6 -68 17 0 33 6 36 77 36
49 0 65 -4 70 -16z m-43 -109 c10 -26 -5 -47 -28 -41 -11 3 -42 6 -68 6 -44 0
-48 2 -48 25 0 24 2 25 69 25 52 0 70 -4 75 -15z m43 -87 c11 -20 -24 -36 -82
-40 -59 -3 -60 -2 -63 24 l-3 28 71 -2 c39 0 73 -5 77 -10z m-53 -101 c27 -19
13 -61 -17 -53 -12 3 -41 6 -65 6 -44 0 -60 15 -48 45 7 19 104 21 130 2z m50
-114 c9 -24 -2 -31 -59 -35 -27 -2 -56 -6 -64 -9 -16 -4 -26 23 -17 47 8 22
132 20 140 -3z m-41 -112 c8 -33 -5 -39 -76 -34 -62 5 -67 7 -67 29 0 23 3 24
69 24 59 0 69 -3 74 -19z m44 -106 c6 -22 -15 -32 -79 -37 l-68 -6 0 30 0 29
72 -3 c39 -2 73 -7 75 -13z m-47 -124 l0 -29 -67 6 c-68 5 -86 14 -76 39 4 9
26 13 74 13 l69 0 0 -29z m38 -99 c4 -26 -4 -29 -80 -35 -57 -4 -58 -3 -58 23
0 38 7 41 75 38 54 -3 60 -5 63 -26z m-43 -117 c0 -24 -4 -30 -20 -28 -11 2
-40 5 -64 8 -54 6 -69 18 -51 40 10 12 28 15 74 13 60 -3 61 -3 61 -33z m45
-100 c0 -22 -4 -25 -39 -25 -21 0 -53 -3 -70 -6 -29 -6 -31 -5 -31 25 l0 31
70 0 c68 0 70 -1 70 -25z m-42 -117 l3 -27 -68 6 c-74 6 -89 13 -79 38 5 13
19 15 73 13 66 -3 68 -4 71 -30z m42 -98 c0 -24 -6 -27 -82 -33 -50 -5 -58 -3
-63 14 -10 32 3 39 76 39 63 0 69 -2 69 -20z m-42 -117 c-3 -28 -4 -28 -68
-25 -70 4 -86 12 -77 36 5 13 22 16 77 16 l71 0 -3 -27z m40 -100 c3 -19 -2
-22 -50 -25 -29 -2 -60 -8 -69 -12 -20 -9 -33 17 -23 46 5 16 14 19 72 16 60
-3 67 -5 70 -25z m-43 -118 c0 -24 -4 -29 -20 -27 -11 2 -40 6 -65 9 -52 6
-65 15 -56 38 5 13 19 15 73 13 l68 -3 0 -30z m45 -95 c0 -24 -6 -27 -83 -34
-45 -3 -59 -1 -64 10 -13 34 4 44 77 44 64 0 70 -2 70 -20z m-45 -120 c0 -24
-1 -25 -65 -22 -70 4 -86 12 -76 37 5 13 19 15 73 13 65 -3 68 -4 68 -28z m33
-80 c19 0 14 -38 -5 -44 -10 -2 -43 -6 -73 -8 -51 -3 -55 -1 -58 21 -5 32 14
41 73 36 28 -2 56 -4 63 -5z m-38 -115 c6 -8 10 -22 8 -32 -3 -15 -12 -18 -58
-15 -74 4 -90 10 -90 32 0 23 13 28 76 29 34 1 56 -4 64 -14z m45 -120 c0 -17
-9 -21 -55 -26 -30 -4 -61 -8 -69 -10 -16 -4 -26 24 -17 47 4 12 21 14 73 12
60 -3 68 -5 68 -23z m-40 -96 c4 -5 4 -22 1 -35 -5 -20 -11 -24 -24 -18 -9 4
-41 10 -69 12 -42 3 -53 7 -53 21 0 10 3 21 7 24 11 11 131 8 138 -4z m42
-115 c9 -24 -6 -31 -75 -37 -66 -5 -82 3 -68 38 8 22 134 21 143 -1z m-42
-124 c0 -24 -1 -25 -65 -21 -76 4 -80 6 -80 32 0 18 6 20 73 17 69 -3 72 -4
72 -28z m35 -86 c21 -25 -7 -42 -75 -46 -51 -3 -60 0 -63 15 -8 38 5 47 66 47
42 0 63 -5 72 -16z m-40 -109 c6 -8 9 -23 6 -33 -6 -17 -14 -19 -54 -15 -77 7
-92 12 -92 32 0 27 9 31 70 31 38 0 62 -5 70 -15z m44 -112 c9 -24 -2 -31 -59
-35 -27 -2 -56 -6 -64 -9 -16 -4 -26 23 -17 47 8 22 132 20 140 -3z m-46 -125
c-2 -24 -7 -32 -18 -29 -8 3 -39 7 -67 9 -48 3 -53 6 -53 28 0 23 3 24 71 24
l70 0 -3 -32z m49 -93 c6 -22 -15 -32 -79 -37 l-68 -6 0 30 0 29 72 -3 c39 -2
73 -7 75 -13z m-47 -124 l0 -29 -62 5 c-68 6 -90 16 -81 39 4 10 24 14 74 14
l69 0 0 -29z m38 -95 c6 -28 -7 -34 -73 -37 -50 -2 -60 0 -63 15 -8 39 5 47
70 44 52 -2 63 -6 66 -22z m-43 -121 c0 -22 -4 -29 -15 -26 -8 2 -39 6 -68 9
-57 5 -70 15 -51 38 9 11 28 14 73 12 60 -3 61 -3 61 -33z m45 -100 c0 -22 -4
-25 -39 -25 -21 0 -53 -3 -70 -6 -29 -6 -31 -5 -31 25 l0 31 70 0 c68 0 70 -1
70 -25z m-42 -117 l3 -27 -68 6 c-74 6 -89 13 -79 38 5 13 19 15 73 13 66 -3
68 -4 71 -30z m42 -98 c0 -24 -6 -27 -82 -33 -43 -4 -58 -2 -62 9 -13 34 4 44
75 44 63 0 69 -2 69 -20z m-42 -117 c-3 -28 -4 -28 -68 -25 -70 4 -86 12 -77
36 5 13 22 16 77 16 l71 0 -3 -27z m40 -97 c5 -25 -15 -36 -58 -34 -19 1 -45
-2 -56 -6 -25 -8 -38 14 -28 46 5 16 14 19 72 16 56 -3 67 -6 70 -22z m-43
-121 c0 -24 -4 -29 -20 -27 -11 2 -40 6 -65 9 -52 6 -65 15 -56 38 5 13 19 15
73 13 l68 -3 0 -30z m43 -102 c3 -21 -1 -23 -45 -23 -26 0 -58 -3 -70 -6 -25
-7 -40 14 -29 41 5 13 20 15 73 13 62 -3 68 -5 71 -25z m-43 -113 c0 -24 -1
-25 -65 -22 -70 4 -86 12 -76 37 5 13 19 15 73 13 65 -3 68 -4 68 -28z m45
-100 c0 -24 -7 -27 -83 -33 -61 -4 -76 5 -63 38 4 11 22 15 76 15 64 0 70 -2
70 -20z m-45 -120 c0 -24 -1 -25 -65 -21 -75 4 -80 5 -80 32 0 18 6 20 73 17
69 -3 72 -4 72 -28z m43 -97 c3 -19 -3 -22 -50 -26 -29 -3 -62 -6 -73 -8 -20
-4 -31 20 -21 47 4 12 21 14 73 12 61 -3 68 -5 71 -25z m-43 -118 c0 -25 -4
-29 -20 -26 -11 2 -44 5 -72 8 -42 4 -53 9 -53 22 0 28 10 32 80 29 65 -3 65
-3 65 -33z m42 -91 c9 -24 -6 -31 -79 -37 -66 -6 -68 -6 -68 17 0 33 6 36 77
36 49 0 65 -4 70 -16z m-42 -124 c0 -24 -1 -25 -65 -21 -76 4 -80 6 -80 32 0
18 6 20 73 17 69 -3 72 -4 72 -28z m40 -94 c14 -23 -8 -35 -67 -37 -27 -1 -54
-2 -60 -3 -18 -1 -23 45 -7 55 24 15 122 4 134 -15z m-47 -102 c5 -9 7 -25 5
-35 -4 -15 -12 -17 -52 -13 -80 9 -91 13 -91 33 0 24 13 29 77 30 38 1 54 -3
61 -15z m47 -119 c0 -17 -9 -21 -55 -26 -30 -3 -61 -7 -69 -10 -16 -4 -26 23
-17 47 4 12 21 14 73 12 60 -3 68 -5 68 -23z m-47 -117 c-2 -24 -7 -32 -18
-29 -8 3 -39 7 -67 9 -48 3 -53 6 -53 28 0 23 3 24 71 24 l70 0 -3 -32z m49
-93 c6 -22 -15 -32 -79 -37 l-68 -6 0 30 0 29 72 -3 c39 -2 73 -7 75 -13z
m-47 -124 l0 -30 -57 6 c-77 6 -83 9 -83 33 0 18 6 20 70 20 l70 0 0 -29z m39
-90 c15 -27 -3 -37 -76 -44 l-63 -5 0 27 c0 38 5 41 71 41 47 0 60 -4 68 -19z
m-41 -130 c3 -31 2 -33 -20 -27 -13 4 -44 10 -71 13 -53 6 -65 16 -46 39 9 11
28 14 73 12 l61 -3 3 -34z m42 -95 c0 -22 -5 -25 -52 -28 -29 -2 -60 -6 -68
-9 -11 -3 -16 5 -18 29 l-3 32 70 0 c68 0 71 -1 71 -24z m-45 -121 c0 -22 -4
-29 -15 -26 -8 3 -37 7 -65 9 -56 4 -71 13 -61 37 5 13 19 15 73 13 l68 -3 0
-30z m45 -95 c0 -24 -6 -27 -82 -33 -43 -4 -58 -2 -62 9 -13 34 4 44 75 44 63
0 69 -2 69 -20z m-42 -117 c-3 -28 -4 -28 -63 -25 -60 4 -93 20 -81 41 4 6 37
11 77 11 l70 0 -3 -27z m40 -100 c3 -19 -2 -22 -50 -25 -29 -2 -61 -8 -70 -12
-13 -6 -19 -2 -24 18 -10 40 2 47 74 44 60 -3 67 -5 70 -25z m-43 -118 c0 -22
-4 -29 -15 -26 -8 3 -37 7 -65 9 -56 4 -71 13 -61 37 5 13 19 15 73 13 l68 -3
0 -30z m45 -95 c0 -24 -6 -27 -83 -34 -45 -3 -59 -1 -64 10 -13 34 4 44 77 44
64 0 70 -2 70 -20z m-40 -120 l0 -29 -67 6 c-74 6 -89 13 -80 37 5 13 22 16
77 16 l70 0 0 -30z m38 -97 c3 -17 -3 -24 -22 -29 -14 -3 -33 -4 -41 0 -8 3
-27 1 -42 -5 -33 -12 -48 1 -39 36 6 25 9 26 74 23 60 -3 67 -5 70 -25z m-43
-118 c0 -24 -4 -29 -20 -27 -11 2 -44 6 -72 9 -41 4 -53 9 -53 23 0 27 11 31
80 28 65 -3 65 -3 65 -33z m42 -91 c9 -24 -6 -31 -79 -37 -66 -6 -68 -6 -68
17 0 33 6 36 77 36 49 0 65 -4 70 -16z m-42 -124 c0 -24 -1 -25 -65 -22 -70 4
-86 12 -76 37 5 13 19 15 73 13 65 -3 68 -4 68 -28z m42 -96 c9 -24 -7 -31
-76 -36 -65 -5 -80 4 -67 37 8 22 134 21 143 -1z m-42 -124 c0 -24 -1 -25 -65
-21 -76 4 -80 6 -80 32 0 18 6 20 73 17 69 -3 72 -4 72 -28z m40 -95 c0 -16
-9 -21 -50 -27 -27 -3 -59 -8 -70 -10 -20 -3 -31 21 -21 48 4 12 21 14 73 12
60 -3 68 -5 68 -23z m-45 -100 c17 -20 3 -58 -18 -49 -10 3 -41 9 -69 12 -41
3 -53 8 -53 22 0 26 9 30 70 30 38 0 62 -5 70 -15z M11650 10113 c0 -285 -3
-833 -6 -1218 -4 -477 -3 -708 4 -725 8 -18 11 245 12 895 0 506 3 1065 6
1243 4 229 3 322 -5 322 -8 0 -11 -150 -11 -517z M12060 10524 c1 -49 -1 -498
-4 -997 -4 -842 -1 -1076 9 -781 6 191 7 1855 1 1862 -3 3 -6 -35 -6 -84z
M12050 7964 c0 -307 -2 -727 -4 -931 -3 -236 -2 -373 4 -373 6 0 10 178 10
478 1 262 1 679 1 925 1 247 -2 451 -5 454 -3 4 -6 -245 -6 -553z M11638 7549
c-4 -1031 -3 -1444 3 -1504 4 -33 7 307 8 755 1 448 2 922 3 1052 1 130 -1
240 -5 244 -4 4 -8 -242 -9 -547z M12040 6545 c0 -14 5 -25 10 -25 6 0 10 11
10 25 0 14 -4 25 -10 25 -5 0 -10 -11 -10 -25z M12039 5593 c-1 -997 -1 -1155
6 -1161 3 -3 5 177 5 399 1 222 3 655 4 962 2 320 0 559 -5 563 -5 3 -9 -315
-10 -763z M11637 5923 c-11 -10 -8 -53 3 -53 6 0 10 14 10 30 0 31 -2 35 -13
23z M11629 5274 c-1 -1208 0 -1556 5 -1562 3 -3 6 240 6 539 0 299 1 750 1
1002 1 252 -2 461 -5 464 -3 4 -6 -196 -7 -443z M12034 4394 c-4 -14 -2 -30 5
-37 8 -8 11 -1 11 26 0 43 -7 48 -16 11z M12036 4203 c-7 -47 -8 -1118 0
-1111 7 7 19 1148 12 1148 -3 0 -8 -17 -12 -37z M11620 3514 c0 -14 4 -23 10
-19 6 3 10 15 10 26 0 10 -4 19 -10 19 -5 0 -10 -12 -10 -26z M11623 3265 c0
-150 1 -158 6 -65 4 58 4 134 0 170 -4 41 -6 3 -6 -105z"/>
</g>
</svg>
