<?xml version="1.0" standalone="no"?>
<!DOCTYPE svg PUBLIC "-//W3C//DTD SVG 20010904//EN"
 "http://www.w3.org/TR/2001/REC-SVG-20010904/DTD/svg10.dtd">
<svg version="1.0" xmlns="http://www.w3.org/2000/svg"
 width="2360.000000pt" height="1640.000000pt" viewBox="0 0 2360.000000 1640.000000"
 preserveAspectRatio="xMidYMid meet">
<metadata>
Created by potrace 1.16, written by Peter Selinger 2001-2019
</metadata>
<g transform="translate(0.000000,1640.000000) scale(0.100000,-0.100000)"
fill="#000000" stroke="none">
<path d="M11730 10504 c0 -46 0 -46 30 -42 27 4 30 2 30 -22 0 -22 -4 -26 -27
-25 -26 0 -28 -3 -31 -43 -4 -49 17 -65 48 -37 10 9 25 15 32 12 8 -4 7 -6 -4
-6 -13 -1 -18 -10 -18 -34 0 -29 -3 -33 -27 -32 -26 0 -28 -3 -31 -43 -4 -49
17 -65 48 -37 10 9 25 15 32 12 8 -4 7 -6 -4 -6 -13 -1 -18 -10 -18 -34 0 -29
-3 -33 -27 -32 -26 0 -28 -3 -31 -42 -3 -40 -1 -43 22 -43 14 0 28 5 31 10 3
6 14 9 23 9 15 -1 15 -2 0 -6 -13 -3 -18 -14 -18 -37 0 -30 -2 -32 -30 -28
-30 4 -30 4 -30 -42 0 -42 2 -46 24 -46 14 0 28 5 31 10 3 6 14 9 23 9 15 -1
15 -2 0 -6 -13 -3 -18 -14 -18 -37 0 -30 -2 -32 -30 -28 -30 4 -30 4 -30 -42
0 -42 2 -46 24 -46 14 0 28 5 31 10 3 6 14 9 23 9 15 -1 15 -2 0 -6 -13 -3
-18 -14 -18 -37 0 -30 -2 -32 -30 -28 -30 4 -30 4 -30 -42 0 -41 3 -46 22 -46
12 0 29 7 39 16 11 10 19 12 24 5 3 -6 -1 -11 -9 -11 -11 0 -16 -10 -16 -33 0
-32 -2 -33 -30 -29 -30 4 -30 4 -30 -42 0 -41 3 -46 22 -46 12 0 29 7 39 16
11 10 19 12 24 5 3 -6 -1 -11 -9 -11 -11 0 -16 -10 -16 -33 0 -32 -2 -33 -30
-29 -30 4 -30 4 -30 -42 0 -41 3 -46 22 -46 12 0 30 7 40 17 11 9 18 11 18 5
0 -7 -4 -12 -10 -12 -5 0 -10 -15 -10 -33 0 -32 -2 -33 -30 -29 -30 4 -30 4
-30 -42 0 -41 3 -46 22 -46 12 0 31 8 42 17 12 10 15 11 9 3 -7 -8 -13 -28
-13 -45 0 -29 -2 -31 -30 -27 -30 4 -30 4 -30 -42 0 -43 2 -46 25 -46 14 0 28
7 31 15 4 8 11 15 17 15 7 0 7 -4 -1 -12 -7 -7 -12 -26 -12 -43 0 -29 -2 -31
-30 -27 -30 4 -30 4 -30 -42 0 -43 2 -46 25 -46 14 0 28 7 31 15 4 8 11 15 17
15 7 0 7 -4 -1 -12 -7 -7 -12 -26 -12 -43 0 -29 -2 -31 -30 -27 -30 4 -30 4
-30 -43 0 -47 0 -47 30 -43 28 4 30 2 30 -27 0 -29 -2 -31 -30 -27 -30 4 -30
4 -30 -42 0 -42 2 -46 24 -46 13 0 26 7 30 15 3 8 11 15 18 15 10 0 10 -2 -1
-9 -9 -6 -12 -22 -9 -49 3 -38 2 -40 -14 -25 -29 26 -48 9 -48 -42 0 -37 3
-45 19 -45 10 0 24 7 31 15 7 8 18 15 24 14 7 0 6 -2 -1 -6 -7 -2 -13 -22 -13
-43 0 -21 6 -41 13 -43 7 -4 8 -6 1 -6 -6 -1 -17 6 -24 14 -7 8 -21 15 -31 15
-16 0 -19 -8 -19 -50 0 -42 3 -50 19 -50 10 0 24 7 31 15 7 8 18 15 24 14 7 0
6 -2 -1 -6 -7 -2 -13 -22 -13 -43 0 -21 6 -41 13 -43 7 -4 8 -6 1 -6 -6 -1
-17 6 -24 14 -7 8 -21 15 -31 15 -16 0 -19 -8 -19 -50 0 -42 3 -50 19 -50 10
0 24 7 31 15 7 8 18 15 24 14 7 0 6 -2 -1 -6 -7 -2 -13 -22 -13 -43 0 -21 6
-41 13 -43 7 -4 8 -6 1 -6 -6 -1 -17 6 -24 14 -7 8 -21 15 -31 15 -16 0 -19
-8 -19 -50 0 -42 3 -50 19 -50 10 0 24 7 31 15 7 8 18 15 24 14 7 0 6 -2 -1
-6 -7 -2 -13 -22 -13 -43 0 -21 6 -41 13 -43 7 -4 8 -6 1 -6 -6 -1 -17 6 -24
14 -7 8 -21 15 -31 15 -16 0 -19 -8 -19 -45 0 -41 2 -45 24 -45 14 0 28 5 31
10 3 6 12 10 18 9 9 0 9 -2 0 -6 -7 -2 -13 -22 -13 -43 0 -21 6 -41 13 -43 7
-4 8 -6 1 -6 -6 -1 -17 6 -24 14 -7 8 -21 15 -31 15 -16 0 -19 -8 -19 -45 0
-41 2 -45 24 -45 14 0 28 5 31 10 3 6 12 10 18 9 9 0 9 -2 0 -6 -7 -2 -13 -19
-13 -37 0 -30 -2 -32 -30 -28 -30 4 -30 4 -30 -42 0 -42 2 -46 24 -46 14 0 28
5 31 10 3 6 12 10 18 9 9 0 9 -2 0 -6 -7 -2 -13 -19 -13 -37 0 -30 -2 -32 -30
-28 -30 4 -30 4 -30 -42 0 -42 2 -46 24 -46 14 0 28 5 31 10 3 6 12 10 18 9 9
0 9 -2 0 -6 -7 -2 -13 -19 -13 -37 0 -30 -2 -32 -30 -28 -30 4 -30 4 -30 -42
0 -42 2 -46 24 -46 14 0 28 5 31 10 3 6 12 10 18 9 9 0 9 -2 0 -6 -7 -2 -13
-19 -13 -37 0 -30 -2 -32 -30 -28 -30 4 -30 4 -30 -42 0 -42 2 -46 24 -46 14
0 28 5 31 10 3 6 12 10 18 9 9 0 9 -2 0 -6 -7 -2 -13 -19 -13 -37 0 -30 -2
-32 -30 -28 -30 4 -30 4 -30 -42 0 -42 2 -46 25 -46 13 0 28 8 34 17 5 10 13
14 18 9 4 -5 2 -11 -4 -13 -7 -3 -13 -19 -13 -37 0 -30 -2 -32 -30 -28 -30 4
-30 4 -30 -43 0 -47 0 -47 30 -43 28 4 30 2 30 -27 0 -29 -2 -31 -30 -27 -30
4 -30 4 -30 -43 0 -47 0 -47 29 -42 27 6 29 4 29 -27 0 -30 -2 -32 -29 -28
-28 4 -29 3 -29 -42 0 -38 3 -46 19 -46 10 0 24 7 31 15 7 8 18 15 24 15 6 0
4 -4 -3 -9 -9 -6 -15 -25 -15 -45 0 -30 -2 -33 -17 -25 -32 17 -39 10 -39 -41
0 -42 3 -50 19 -50 10 0 24 7 31 15 7 8 17 15 22 15 5 0 2 -7 -6 -16 -9 -8
-16 -24 -16 -34 0 -10 7 -26 16 -34 8 -9 11 -16 6 -16 -5 0 -15 7 -22 15 -7 8
-21 15 -31 15 -16 0 -19 -8 -19 -50 0 -42 3 -50 19 -50 10 0 24 7 31 15 7 8
17 15 22 15 5 0 2 -7 -6 -16 -9 -8 -16 -24 -16 -34 0 -10 7 -26 16 -34 8 -9
11 -16 6 -16 -5 0 -15 7 -22 15 -7 8 -21 15 -31 15 -16 0 -19 -8 -19 -50 0
-54 10 -62 46 -35 26 19 39 19 20 -1 -21 -21 -20 -61 2 -73 9 -6 12 -11 6 -11
-6 0 -17 7 -24 15 -7 8 -21 15 -31 15 -16 0 -19 -8 -19 -45 0 -41 2 -45 25
-45 14 0 25 5 25 10 0 6 8 10 18 10 16 -1 16 -1 0 -11 -11 -6 -18 -22 -18 -39
0 -17 7 -33 18 -39 9 -6 12 -11 6 -11 -6 0 -17 7 -24 15 -7 8 -21 15 -31 15
-16 0 -19 -8 -19 -45 0 -41 2 -45 25 -45 14 0 25 5 25 10 0 6 8 10 18 10 16
-1 16 -1 0 -11 -11 -6 -18 -22 -18 -39 0 -17 7 -33 18 -39 9 -6 12 -11 6 -11
-6 0 -17 7 -24 15 -7 8 -21 15 -31 15 -16 0 -19 -8 -19 -45 0 -38 3 -45 19
-45 11 0 23 5 26 10 3 6 14 9 23 9 15 -1 15 -2 0 -6 -13 -3 -18 -14 -18 -38 0
-22 6 -38 18 -44 9 -6 12 -11 6 -11 -6 0 -17 7 -24 15 -7 8 -21 15 -31 15 -16
0 -19 -8 -19 -45 0 -37 3 -45 19 -45 10 0 24 7 31 15 12 14 15 14 30 0 26 -24
31 -18 28 28 -2 28 -7 41 -16 39 -8 -1 -11 2 -7 9 5 7 15 3 31 -12 33 -31 54
-19 54 31 0 48 -20 62 -50 35 -11 -10 -23 -15 -27 -12 -3 4 -1 7 6 7 9 0 12
13 9 44 -3 42 -2 44 14 29 28 -25 48 -9 48 37 0 48 -20 62 -50 35 -11 -10 -23
-15 -27 -12 -3 4 -1 7 6 7 9 0 12 13 9 44 -3 42 -2 44 14 29 28 -25 48 -9 48
37 0 48 -20 62 -50 35 -11 -10 -23 -15 -27 -12 -3 4 -1 7 6 7 9 0 12 13 9 44
-3 42 -2 44 14 29 28 -25 48 -9 48 37 0 48 -20 62 -50 35 -11 -10 -23 -15 -27
-12 -3 4 -1 7 6 7 9 0 12 13 9 44 -3 42 -2 44 14 29 28 -25 48 -9 48 37 0 48
-20 62 -50 35 -11 -10 -23 -15 -27 -12 -3 4 -1 7 5 7 7 0 12 17 12 42 0 33 3
39 12 30 7 -7 20 -12 30 -12 15 0 18 8 18 45 0 41 -2 45 -24 45 -14 0 -28 -4
-31 -10 -3 -5 -12 -10 -18 -9 -9 0 -9 2 1 6 6 2 12 23 13 46 0 23 3 36 6 30 2
-7 16 -13 29 -13 22 0 24 4 24 45 0 40 -3 45 -22 45 -12 0 -29 -7 -39 -16 -11
-10 -19 -12 -24 -5 -3 6 1 11 9 11 11 0 16 10 16 33 0 32 2 33 30 29 30 -4 30
-4 30 42 0 43 -2 46 -25 46 -14 0 -28 -7 -31 -15 -4 -8 -11 -15 -17 -15 -7 0
-7 4 1 12 7 7 12 26 12 43 0 29 2 31 30 27 30 -4 30 -4 30 42 0 42 -2 46 -24
46 -13 0 -26 -7 -30 -15 -3 -8 -11 -15 -18 -15 -9 0 -9 3 0 12 7 7 12 26 12
43 0 29 2 31 30 27 30 -4 30 -4 30 42 0 38 -3 46 -19 46 -10 0 -24 -7 -31 -15
-7 -8 -18 -15 -24 -14 -7 0 -6 2 2 6 6 2 12 22 12 42 0 36 1 37 30 33 30 -4
30 -4 30 42 0 38 -3 46 -19 46 -10 0 -24 -7 -31 -15 -7 -8 -18 -15 -24 -14 -7
0 -6 2 2 6 7 2 12 22 12 45 0 35 2 39 15 28 27 -22 45 -4 45 45 0 37 -3 45
-19 45 -10 0 -24 -7 -31 -15 -7 -8 -18 -15 -24 -14 -7 0 -6 2 2 6 7 2 12 22
12 45 0 35 2 39 15 28 27 -22 45 -4 45 45 0 37 -3 45 -19 45 -10 0 -24 -7 -31
-15 -7 -8 -18 -15 -24 -14 -7 0 -6 2 2 6 7 2 12 22 12 45 0 35 2 39 15 28 27
-22 45 -4 45 45 0 37 -3 45 -19 45 -10 0 -24 -7 -31 -15 -7 -8 -18 -15 -24
-14 -7 0 -6 2 2 6 7 2 12 22 12 45 0 35 2 39 15 28 27 -22 45 -4 45 45 0 37
-3 45 -19 45 -10 0 -24 -7 -31 -15 -7 -8 -18 -15 -24 -14 -7 0 -6 2 2 6 7 3
12 22 12 46 0 32 3 38 12 29 7 -7 20 -12 30 -12 15 0 18 9 18 50 0 42 -3 50
-19 50 -10 0 -24 -7 -31 -15 -7 -8 -18 -15 -24 -14 -7 0 -6 2 2 6 7 3 12 22
12 46 0 32 3 38 12 29 7 -7 20 -12 30 -12 15 0 18 9 18 50 0 42 -3 50 -19 50
-10 0 -24 -7 -31 -15 -7 -8 -18 -15 -24 -15 -6 0 -5 4 3 9 9 6 12 22 9 49 -3
37 -2 40 13 26 33 -30 49 -18 49 36 0 42 -3 50 -19 50 -10 0 -24 -7 -31 -15
-7 -8 -18 -15 -24 -15 -6 0 -5 4 3 9 9 6 12 22 9 49 -3 37 -2 40 13 26 33 -30
49 -18 49 36 0 54 -10 62 -46 35 -10 -8 -23 -14 -29 -15 -5 0 -3 4 5 9 8 6 14
24 13 46 -1 27 2 34 10 26 6 -6 19 -11 29 -11 15 0 18 8 18 45 0 41 -2 45 -24
45 -14 0 -28 -4 -31 -10 -3 -5 -12 -10 -18 -10 -7 0 -6 4 3 9 8 6 14 24 13 46
-1 27 2 34 10 26 6 -6 19 -11 29 -11 15 0 18 8 18 45 0 41 -2 45 -25 45 -13 0
-28 -7 -33 -16 -6 -11 -11 -13 -16 -5 -4 6 -3 11 2 11 15 0 22 40 11 68 -10
25 -9 25 9 9 34 -31 52 -22 52 28 0 41 -2 45 -24 45 -13 0 -27 -7 -30 -16 -3
-8 -10 -12 -16 -9 -6 4 -5 12 5 21 18 18 18 24 4 60 -10 27 -9 27 9 11 34 -31
52 -22 52 28 0 37 -3 45 -19 45 -10 0 -24 -7 -31 -15 -7 -8 -16 -12 -21 -9 -5
3 -2 12 7 21 10 10 13 25 10 39 -6 22 -4 23 24 18 30 -6 30 -6 30 40 0 50 -17
61 -51 30 -13 -12 -19 -12 -25 -3 -4 7 -3 10 3 6 13 -8 26 35 18 56 -5 10 1
13 25 9 30 -4 30 -4 30 42 0 51 -17 61 -53 29 -19 -18 -20 -17 -8 6 7 13 11
33 9 45 -4 19 -1 21 24 18 27 -4 28 -3 28 42 0 51 -17 61 -53 29 -19 -18 -20
-17 -8 6 7 13 11 33 9 45 -4 19 -1 21 24 18 27 -4 28 -3 28 42 0 51 -17 61
-53 29 -19 -18 -20 -17 -8 6 7 13 11 34 8 47 -3 20 -2 22 15 13 28 -15 38 -3
38 47 0 49 -17 58 -53 27 -19 -18 -20 -17 -8 6 7 13 11 34 8 47 -3 20 -1 22
14 14 32 -18 39 -11 39 40 0 56 -15 65 -54 33 -12 -10 -15 -11 -8 -3 6 8 12
27 12 42 0 25 3 28 25 22 24 -6 25 -5 25 45 0 43 -3 51 -19 51 -10 0 -24 -7
-31 -15 -7 -8 -18 -15 -24 -15 -6 0 -3 5 7 11 10 6 17 22 17 40 0 26 3 29 25
23 24 -6 25 -5 25 45 0 55 -10 63 -46 36 -10 -8 -23 -14 -29 -14 -5 0 -2 4 8
10 10 6 17 22 17 40 0 26 3 29 25 23 24 -6 25 -5 25 45 0 55 -10 63 -46 36
-10 -8 -23 -14 -29 -14 -5 0 -2 4 8 10 10 6 17 22 17 40 0 26 3 29 25 23 24
-6 25 -5 25 46 0 51 -1 52 -25 46 -22 -6 -25 -3 -25 22 0 26 3 29 25 24 24 -4
25 -2 25 42 0 50 -17 61 -51 30 -11 -10 -19 -12 -24 -5 -3 6 1 11 9 11 11 0
16 10 16 33 0 42 -7 49 -31 34 -14 -9 -21 -9 -31 1 -6 6 -22 12 -35 12 -21 0
-23 -5 -23 -46z m87 -20 c-3 -3 -12 -4 -19 -1 -8 3 -5 6 6 6 11 1 17 -2 13 -5z
M11847 5733 c-13 -13 -19 -14 -29 -5 -22 22 -38 13 -38 -22 0 -30 -2 -33 -25
-28 -24 4 -25 2 -25 -42 0 -38 3 -46 19 -46 10 0 24 7 31 15 12 14 15 14 30 0
25 -23 30 -19 30 23 0 37 1 38 31 34 30 -4 30 -4 27 39 -3 49 -22 61 -51 32z
M11844 5593 c-10 -15 -14 -16 -25 -5 -24 22 -39 14 -39 -22 0 -30 -2 -33 -25
-28 -24 4 -25 2 -25 -42 0 -51 17 -61 53 -29 18 17 19 17 28 0 14 -25 29 -11
29 27 0 31 2 32 31 28 30 -4 30 -4 27 39 -2 35 -7 45 -23 47 -11 1 -25 -5 -31
-15z M11787 5463 c-4 -3 -7 -21 -7 -38 0 -29 -3 -32 -25 -27 -24 4 -25 2 -25
-42 0 -51 17 -61 53 -29 18 17 19 17 28 0 14 -25 29 -11 29 27 0 30 2 32 30
28 30 -4 30 -4 30 42 0 42 -2 46 -24 46 -13 0 -29 -7 -36 -15 -12 -14 -15 -14
-30 0 -9 8 -20 12 -23 8z M11787 5323 c-12 -11 -8 -68 6 -83 6 -8 3 -7 -9 3
-37 31 -54 22 -54 -28 0 -37 3 -45 19 -45 10 0 24 7 31 15 7 8 18 15 24 15 6
0 3 -5 -6 -11 -21 -12 -24 -68 -5 -89 6 -8 3 -7 -9 3 -37 31 -54 22 -54 -28 0
-37 3 -45 19 -45 10 0 24 7 31 15 7 8 17 15 23 15 6 0 3 -6 -7 -13 -14 -10
-17 -23 -14 -50 3 -25 1 -34 -6 -27 -6 6 -18 10 -28 10 -15 0 -18 -8 -18 -45
0 -39 3 -45 20 -45 11 0 23 7 26 15 4 8 13 15 22 15 13 0 13 -2 -2 -13 -14
-10 -17 -23 -14 -50 3 -25 1 -34 -6 -27 -6 6 -18 10 -28 10 -15 0 -18 -8 -18
-45 0 -39 3 -45 20 -45 11 0 23 7 26 15 4 8 13 15 22 15 13 0 13 -2 -2 -13
-14 -10 -17 -23 -14 -50 3 -25 1 -34 -6 -27 -6 6 -18 10 -28 10 -15 0 -18 -8
-18 -45 0 -39 3 -45 20 -45 11 0 23 7 26 15 4 8 13 15 22 15 13 0 13 -2 -2
-13 -14 -10 -17 -23 -14 -50 3 -25 1 -34 -6 -27 -6 6 -18 10 -28 10 -15 0 -18
-8 -18 -45 0 -39 3 -45 20 -45 11 0 23 7 26 15 4 8 14 15 23 15 14 -1 14 -2
-1 -11 -12 -6 -18 -22 -18 -44 0 -24 5 -35 18 -38 15 -4 15 -5 0 -6 -9 0 -20
4 -23 9 -3 6 -15 10 -26 10 -16 0 -19 -7 -19 -46 0 -44 1 -46 25 -42 23 5 25
2 25 -28 0 -23 5 -34 18 -37 14 -4 14 -5 1 -6 -9 0 -22 6 -29 14 -25 31 -40
17 -40 -36 0 -49 1 -51 25 -47 22 5 25 2 25 -22 0 -24 -3 -27 -25 -22 -24 4
-25 2 -25 -47 0 -43 3 -51 19 -51 10 0 21 7 25 15 3 8 13 14 23 14 17 -1 17
-2 1 -6 -13 -3 -18 -14 -18 -37 0 -30 -3 -33 -25 -29 -19 4 -25 0 -30 -20 -15
-59 19 -102 49 -62 7 10 19 15 27 12 10 -4 9 -6 -3 -6 -13 -1 -18 -10 -18 -34
0 -29 -3 -33 -27 -32 -26 0 -28 -3 -31 -43 -4 -49 17 -65 48 -37 10 9 25 15
32 12 8 -4 7 -6 -4 -6 -13 -1 -18 -10 -18 -34 0 -29 -3 -33 -27 -32 -26 0 -28
-3 -31 -43 -4 -49 17 -65 48 -37 10 9 25 15 32 12 8 -4 7 -6 -4 -6 -13 -1 -18
-10 -18 -34 0 -29 -3 -33 -27 -32 -26 0 -28 -3 -31 -42 -3 -40 -1 -43 22 -43
14 0 28 5 31 10 3 6 14 9 23 9 15 -1 15 -2 0 -6 -13 -3 -18 -14 -18 -37 0 -30
-2 -32 -30 -28 -30 4 -30 4 -30 -42 0 -41 3 -46 22 -46 12 0 29 7 39 16 11 10
19 12 24 5 3 -6 -1 -11 -9 -11 -11 0 -16 -10 -16 -33 0 -32 -2 -33 -30 -29
-30 4 -30 4 -30 -42 0 -43 2 -46 25 -46 14 0 28 7 31 15 4 8 13 15 22 15 13 0
13 -2 -2 -13 -14 -10 -17 -23 -14 -50 3 -25 1 -34 -6 -27 -6 6 -20 10 -33 10
-21 0 -23 -5 -23 -45 0 -41 2 -45 24 -45 13 0 26 7 30 15 3 8 13 14 23 14 17
-1 17 -2 1 -6 -23 -6 -26 -83 -4 -83 8 0 16 6 19 13 3 9 9 7 24 -5 36 -32 53
-23 53 27 0 49 -17 59 -51 29 -11 -10 -19 -12 -24 -5 -3 6 1 11 9 11 11 0 16
10 16 34 0 30 2 33 25 28 24 -4 25 -2 25 42 0 50 -17 61 -51 30 -11 -10 -19
-12 -24 -5 -3 6 1 11 9 11 11 0 16 10 16 34 0 30 2 33 25 28 24 -4 25 -2 25
42 0 51 -16 60 -54 29 -12 -10 -15 -11 -8 -3 6 8 12 30 12 49 0 27 3 32 12 23
26 -26 38 -13 38 39 0 50 -1 51 -25 45 -23 -6 -25 -4 -25 31 0 29 3 34 12 25
26 -26 38 -13 38 38 0 52 -15 65 -40 35 -7 -8 -20 -14 -29 -14 -13 1 -13 2 2
6 13 3 17 15 17 46 0 32 3 38 12 29 26 -26 38 -13 38 38 0 52 -15 65 -40 35
-7 -8 -20 -14 -29 -14 -13 1 -13 2 2 6 12 3 17 15 17 44 0 37 1 38 20 27 17
-11 22 -10 30 2 19 29 9 90 -15 90 -7 0 -18 -7 -25 -15 -7 -8 -20 -14 -29 -14
-13 1 -13 2 2 6 13 3 17 15 17 45 0 35 2 39 15 28 26 -21 45 -4 45 40 0 47
-20 62 -50 35 -10 -9 -25 -15 -32 -12 -8 4 -7 6 5 6 12 1 17 10 17 34 0 29 3
33 28 32 25 0 27 3 30 43 3 38 1 42 -19 42 -12 0 -30 -7 -40 -16 -11 -10 -19
-12 -24 -5 -3 6 1 11 9 11 11 0 16 10 16 33 0 29 3 33 28 32 25 0 27 3 30 43
3 38 1 42 -19 42 -12 0 -30 -7 -40 -16 -11 -10 -19 -12 -24 -5 -3 6 1 11 9 11
11 0 16 10 16 33 0 29 3 33 28 32 25 0 27 3 30 43 3 38 1 42 -19 42 -12 0 -30
-7 -40 -16 -11 -10 -19 -12 -24 -5 -3 6 1 11 9 11 11 0 16 10 16 33 0 29 3 33
28 32 25 0 27 3 30 43 3 38 1 42 -19 42 -12 0 -30 -7 -40 -16 -11 -10 -19 -12
-24 -5 -3 6 1 11 9 11 11 0 16 10 16 33 0 29 3 33 28 32 25 0 27 3 30 43 3 38
1 42 -19 42 -12 0 -30 -7 -40 -16 -11 -10 -19 -12 -24 -5 -3 6 1 11 9 11 11 0
16 10 16 33 0 29 3 33 28 32 25 0 27 3 30 43 3 38 1 42 -19 42 -12 0 -30 -7
-40 -16 -11 -10 -19 -12 -24 -4 -3 6 -1 9 7 8 8 -2 15 10 18 32 4 29 9 35 30
35 22 0 25 5 28 43 3 38 1 42 -19 42 -12 0 -30 -7 -40 -16 -11 -10 -19 -12
-24 -4 -4 6 -1 9 7 8 8 -2 14 9 16 33 3 33 5 35 32 31 30 -4 30 -4 30 42 0 41
-3 46 -22 46 -12 0 -29 -7 -39 -16 -11 -10 -19 -12 -24 -4 -4 6 -1 9 7 8 8 -2
14 9 16 33 3 33 5 35 32 31 30 -4 30 -4 30 42 0 42 -2 46 -24 46 -13 0 -29 -7
-36 -15 -12 -14 -15 -14 -30 0 -9 8 -20 12 -23 8z m43 -477 c0 -2 -8 -10 -17
-17 -16 -13 -17 -12 -4 4 13 16 21 21 21 13z m-23 -492 c-3 -3 -12 -4 -19 -1
-8 3 -5 6 6 6 11 1 17 -2 13 -5z m0 -140 c-3 -3 -12 -4 -19 -1 -8 3 -5 6 6 6
11 1 17 -2 13 -5z m0 -90 c-3 -3 -12 -4 -19 -1 -8 3 -5 6 6 6 11 1 17 -2 13
-5z m0 -140 c-3 -3 -12 -4 -19 -1 -8 3 -5 6 6 6 11 1 17 -2 13 -5z m0 -140
c-3 -3 -12 -4 -19 -1 -8 3 -5 6 6 6 11 1 17 -2 13 -5z m0 -140 c-3 -3 -12 -4
-19 -1 -8 3 -5 6 6 6 11 1 17 -2 13 -5z m0 -140 c-3 -3 -12 -4 -19 -1 -8 3 -5
6 6 6 11 1 17 -2 13 -5z"/>
</g>
</svg>
