<?xml version="1.0" standalone="no"?>
<!DOCTYPE svg PUBLIC "-//W3C//DTD SVG 20010904//EN"
 "http://www.w3.org/TR/2001/REC-SVG-20010904/DTD/svg10.dtd">
<svg version="1.0" xmlns="http://www.w3.org/2000/svg"
 width="2360.000000pt" height="1640.000000pt" viewBox="0 0 2360.000000 1640.000000"
 preserveAspectRatio="xMidYMid meet">
<metadata>
Created by potrace 1.16, written by Peter Selinger 2001-2019
</metadata>
<g transform="translate(0.000000,1640.000000) scale(0.100000,-0.100000)"
fill="#000000" stroke="none">
<path d="M11867 10533 c-3 -4 24 -6 59 -5 l64 4 0 -36 0 -36 -58 0 c-32 0 -64
6 -72 13 -12 10 -12 9 0 -6 11 -14 25 -17 74 -15 l61 3 0 40 0 40 -62 3 c-34
2 -63 -1 -66 -5z M11810 10494 c-5 -13 -7 -31 -3 -40 4 -11 -1 -22 -12 -30
-10 -8 -14 -14 -8 -14 7 0 15 5 18 10 3 6 16 10 27 10 l21 0 -21 18 c-14 13
-19 26 -15 40 3 12 9 19 14 16 5 -3 6 -11 2 -17 -4 -7 0 -6 10 2 21 17 21 18
-4 24 -15 4 -22 -1 -29 -19z M11664 10440 c1 -20 6 -25 29 -26 24 -1 24 -1 3
3 -16 3 -26 12 -29 26 -3 18 -4 17 -3 -3z M11967 10424 c16 -4 23 -14 26 -37
4 -31 5 -31 3 3 -1 30 -5 35 -26 37 -21 1 -21 0 -3 -3z M11813 10393 c-3 -7
-12 -13 -20 -13 -12 0 -12 -3 2 -16 9 -9 14 -23 11 -31 -3 -8 -6 -17 -6 -19 0
-2 -29 -4 -65 -4 l-65 0 0 29 c0 16 5 32 10 34 6 3 5 4 -2 3 -8 -2 -13 -17
-13 -37 l0 -34 68 -3 c54 -2 68 0 73 13 4 10 13 13 25 10 15 -5 19 -1 19 15 0
13 4 19 11 14 8 -4 8 0 0 15 -7 12 -10 25 -7 29 2 4 -5 8 -16 8 -11 0 -22 -6
-25 -13z m30 -30 c-7 -3 -9 -12 -5 -21 5 -14 3 -14 -13 2 -13 13 -16 21 -8 23
7 3 9 12 5 21 -5 14 -3 14 13 -2 13 -13 16 -21 8 -23z M11840 10290 c-14 -19
-15 -19 -22 -3 -6 17 -7 17 -7 1 -1 -10 -6 -18 -12 -18 -8 0 -8 -5 1 -15 7 -8
10 -21 7 -29 -4 -10 -1 -13 8 -9 8 3 12 9 9 14 -3 5 3 9 13 10 10 0 50 1 88 2
l70 2 1 35 2 35 -5 -32 -4 -33 -64 0 c-65 0 -82 11 -69 45 8 21 1 19 -16 -5z
m10 -31 c0 -5 -9 -9 -20 -9 -11 0 -20 4 -20 8 0 4 9 8 20 9 11 1 20 -2 20 -8z
M11664 10256 c-3 -8 -4 -23 -2 -33 3 -11 6 -6 9 15 6 34 2 42 -7 18z M11898
10213 c18 -2 45 -2 60 0 15 2 0 4 -33 4 -33 0 -45 -2 -27 -4z M11993 10175 c0
-22 2 -30 4 -17 2 12 2 30 0 40 -3 9 -5 -1 -4 -23z M11809 10173 c-5 -13 -6
-29 -3 -37 3 -7 -2 -21 -11 -30 -9 -9 -12 -16 -6 -16 5 0 13 5 16 10 3 6 16
10 28 11 21 0 21 1 2 9 -11 5 -15 9 -10 9 6 1 5 5 -2 9 -7 4 -10 17 -6 31 4
15 8 19 13 11 8 -12 30 -6 30 8 0 19 -43 6 -51 -15z M11663 10128 c2 -29 6
-33 32 -34 27 -1 27 0 3 3 -20 3 -28 11 -32 34 -6 28 -6 27 -3 -3z M11846
10143 c-6 -14 -5 -15 5 -6 7 7 10 15 7 18 -3 3 -9 -2 -12 -12z M11898 10133
c18 -2 45 -2 60 0 15 2 0 4 -33 4 -33 0 -45 -2 -27 -4z M11850 10089 c0 -6 -9
-8 -20 -4 -16 5 -20 2 -20 -14 0 -15 -4 -19 -17 -14 -17 6 -17 6 0 -11 10 -10
16 -25 13 -33 -3 -8 -6 -17 -6 -19 0 -2 -29 -4 -65 -4 l-65 0 0 29 c0 16 5 32
10 34 6 3 5 4 -2 3 -8 -2 -13 -17 -13 -37 l0 -34 68 -3 c54 -2 68 0 73 13 4
10 13 13 25 10 15 -5 19 -1 19 15 0 13 4 19 11 14 8 -5 8 -1 0 14 -6 11 -8 28
-5 36 3 9 3 16 0 16 -3 0 -6 -5 -6 -11z m-7 -46 c-7 -3 -9 -12 -5 -21 5 -14 3
-14 -13 2 -13 13 -16 21 -8 23 7 3 9 12 5 21 -5 14 -3 14 13 -2 13 -13 16 -21
8 -23z M11992 10070 c0 -19 2 -27 5 -17 2 9 2 25 0 35 -3 9 -5 1 -5 -18z
M11850 9979 c0 -6 -9 -8 -20 -4 -14 5 -20 2 -20 -9 0 -9 -5 -16 -10 -16 -7 0
-7 -7 0 -20 6 -11 8 -25 5 -30 -3 -6 1 -7 9 -4 9 3 13 10 10 15 -3 5 -1 9 5 9
5 0 12 -6 14 -12 4 -9 6 -8 6 2 1 12 16 15 73 15 l73 0 1 35 2 35 -5 -32 -4
-33 -64 0 c-65 0 -82 11 -69 45 4 8 3 15 0 15 -3 0 -6 -5 -6 -11z m0 -43 c0
-3 -10 -6 -22 -5 -13 0 -18 3 -11 5 7 3 9 13 5 22 -5 16 -5 16 11 0 9 -9 17
-19 17 -22z M11663 9915 c0 -22 2 -30 4 -17 2 12 2 30 0 40 -3 9 -5 -1 -4 -23z
M11898 9893 c18 -2 45 -2 60 0 15 2 0 4 -33 4 -33 0 -45 -2 -27 -4z M11850
9881 c0 -7 -7 -11 -15 -8 -8 4 -17 1 -21 -5 -4 -7 -3 -8 4 -4 7 4 12 3 12 -3
0 -5 -6 -11 -12 -13 -7 -3 -13 -17 -13 -31 -1 -21 4 -27 21 -27 14 0 24 8 27
22 8 29 1 36 -8 9 -3 -12 -11 -21 -16 -21 -6 0 -7 5 -4 10 3 6 1 10 -4 10 -18
0 -12 18 8 25 19 6 36 33 26 43 -3 3 -5 0 -5 -7z M11992 9860 c0 -19 2 -27 5
-17 2 9 2 25 0 35 -3 9 -5 1 -5 -18z M11663 9808 c2 -33 3 -33 55 -34 l52 -1
-49 4 c-46 4 -50 6 -55 34 -6 28 -6 28 -3 -3z M11898 9813 c18 -2 45 -2 60 0
15 2 0 4 -33 4 -33 0 -45 -2 -27 -4z M11850 9769 c0 -6 -9 -8 -20 -4 -12 4
-20 2 -20 -5 0 -6 5 -8 10 -5 6 3 10 2 10 -4 0 -5 -10 -12 -22 -14 -13 -2 -8
-3 10 -1 17 1 32 -1 32 -7 0 -7 -19 -13 -40 -11 -3 0 -6 -7 -6 -17 0 -21 37
-21 45 0 4 10 25 14 76 14 l70 0 1 35 2 35 -5 -32 -4 -33 -64 0 c-65 0 -82 11
-69 45 4 8 3 15 0 15 -3 0 -6 -5 -6 -11z m-10 -69 c0 -5 -2 -10 -4 -10 -3 0
-8 5 -11 10 -3 6 -1 10 4 10 6 0 11 -4 11 -10z M11662 9703 l3 -38 70 -1 70
-1 -69 4 -68 4 4 34 c2 19 0 35 -5 35 -4 0 -7 -17 -5 -37z M11880 9684 c34 -7
108 -8 103 -1 -2 4 -30 6 -61 6 -31 -1 -50 -3 -42 -5z M11843 9665 c-7 -8 -13
-19 -13 -25 0 -6 -5 -8 -12 -4 -7 4 -8 3 -4 -4 4 -6 14 -8 23 -5 13 5 15 2 10
-11 -4 -10 -7 -20 -7 -22 0 -2 -5 -4 -11 -4 -5 0 -7 5 -4 10 3 6 0 10 -8 10
-7 0 -14 -7 -14 -15 0 -9 10 -15 24 -15 13 0 23 6 23 13 0 8 19 12 62 11 61
-1 61 -1 8 3 -59 4 -73 15 -65 51 6 26 5 26 -12 7z M11660 9595 c0 -19 4 -35
8 -35 4 0 6 16 4 35 -2 19 -6 35 -8 35 -2 0 -4 -16 -4 -35z M11854 9565 c-4
-10 -14 -14 -28 -10 -11 2 -15 2 -8 -1 19 -9 14 -22 -10 -27 -13 -2 -8 -3 10
-1 22 2 32 -2 32 -11 0 -8 -9 -12 -23 -11 -16 2 -23 -2 -23 -15 0 -17 1 -17
20 -1 18 16 19 16 13 0 -4 -10 -2 -18 3 -18 6 0 11 8 12 18 1 9 2 26 3 37 1
11 3 25 4 32 0 8 25 13 64 16 l62 3 -63 2 c-48 2 -64 -2 -68 -13z M11664 9516
c-3 -8 -4 -25 -2 -38 3 -21 8 -23 68 -24 l65 0 -64 3 -63 4 4 34 c4 37 1 45
-8 21z M11850 9449 c0 -6 -10 -8 -22 -5 -13 3 -17 3 -10 0 17 -8 15 -22 -5
-27 -10 -2 -6 -3 10 -1 15 2 27 -1 27 -6 0 -6 -11 -10 -25 -10 -18 0 -23 -4
-19 -15 4 -8 10 -15 16 -15 5 0 6 5 3 10 -3 6 -2 10 4 10 5 0 12 -6 14 -12 4
-9 6 -8 6 2 1 12 15 15 68 14 68 -1 68 -1 8 3 -61 4 -78 15 -69 46 3 9 3 17 0
17 -3 0 -6 -5 -6 -11z M11664 9380 l1 -35 59 -3 c32 -2 63 1 67 5 4 4 -21 7
-56 5 l-64 -4 -4 34 -4 33 1 -35z M11847 9349 c-13 -15 -15 -24 -7 -34 11 -14
4 -45 -12 -45 -5 0 -6 5 -3 10 3 6 0 10 -8 10 -7 0 -14 -7 -14 -15 0 -9 10
-15 24 -15 13 0 23 6 23 13 0 9 17 11 61 9 34 -2 65 0 70 5 4 4 -21 7 -56 5
-55 -3 -64 -1 -69 16 -14 42 2 54 69 50 35 -2 61 0 58 5 -2 4 -30 7 -61 7 -46
0 -61 -4 -75 -21z M11797 9316 c-4 -10 -1 -13 8 -9 8 3 12 9 9 14 -7 12 -11
11 -17 -5z M11660 9275 c0 -19 4 -35 8 -35 4 0 6 16 4 35 -2 19 -6 35 -8 35
-2 0 -4 -16 -4 -35z M11853 9244 c-3 -9 -12 -13 -21 -9 -15 6 -56 -28 -46 -38
11 -11 63 15 70 35 5 17 13 19 69 16 35 -2 61 0 58 5 -2 4 -31 7 -64 7 -45 0
-61 -4 -66 -16z m-23 -24 c0 -5 -4 -10 -10 -10 -5 0 -10 5 -10 10 0 6 5 10 10
10 6 0 10 -4 10 -10z M11660 9170 l0 -40 69 0 c50 0 70 4 74 14 4 9 14 12 25
9 14 -3 21 2 25 18 4 13 4 25 2 28 -3 2 -5 -1 -5 -8 0 -7 -4 -9 -10 -6 -6 3
-7 -1 -4 -9 3 -9 1 -16 -5 -16 -6 0 -11 5 -11 10 0 6 -5 10 -12 10 -6 0 -8 -3
-5 -7 17 -17 -19 -33 -75 -33 l-60 0 4 35 c2 19 0 35 -4 35 -4 0 -8 -18 -8
-40z M11800 9109 c-8 -14 -8 -24 -1 -33 6 -7 8 -16 4 -19 -3 -4 1 -7 11 -7 9
0 14 5 11 10 -3 6 -2 10 4 10 5 0 12 -6 14 -12 4 -9 6 -8 6 2 1 12 14 14 71
12 l70 -4 -1 29 c-1 23 -2 24 -6 6 -4 -21 -10 -23 -64 -23 -32 0 -59 4 -59 9
0 12 -29 41 -40 41 -5 0 -14 -9 -20 -21z m30 2 c0 -5 -6 -12 -12 -15 -7 -3 -3
-3 10 0 12 3 22 1 22 -5 0 -6 -11 -11 -25 -11 -27 0 -28 1 -19 24 7 17 24 22
24 7z M11664 9060 l1 -35 59 -3 c32 -2 63 1 67 5 4 4 -21 7 -56 5 l-64 -4 -4
34 -4 33 1 -35z M11853 9037 c-4 -8 -14 -16 -22 -18 -11 -4 -11 -8 3 -21 22
-23 20 -28 -11 -28 -14 0 -23 -3 -20 -7 4 -3 2 -12 -5 -20 -6 -7 -8 -16 -4
-20 3 -3 6 -1 6 5 0 7 11 12 25 12 14 0 25 6 25 13 0 8 20 12 67 12 l68 0 0
40 0 40 -62 3 c-45 2 -64 -1 -70 -11z m127 -32 l0 -35 -59 0 c-62 0 -78 12
-66 51 5 16 17 19 66 19 l59 0 0 -35z M11797 9001 c-4 -17 -3 -21 5 -13 5 5 8
16 6 23 -3 8 -7 3 -11 -10z M11660 8955 c0 -19 4 -35 8 -35 4 0 6 16 4 35 -2
19 -6 35 -8 35 -2 0 -4 -16 -4 -35z M11857 8933 c-3 -4 23 -7 58 -5 l64 4 4
-36 4 -36 -1 37 -1 38 -62 3 c-34 2 -63 -1 -66 -5z M11804 8905 c-4 -8 -14
-15 -23 -15 -13 0 -13 -2 -2 -9 16 -10 71 6 71 20 0 5 -4 9 -10 9 -5 0 -10 -4
-10 -10 0 -5 -5 -10 -11 -10 -6 0 -9 7 -5 15 3 8 3 15 0 15 -2 0 -7 -7 -10
-15z M11660 8850 l0 -40 70 0 c39 0 70 3 70 8 0 4 -30 5 -66 4 l-66 -4 4 36
c2 20 0 36 -4 36 -4 0 -8 -18 -8 -40z M11850 8871 c0 -7 -4 -9 -10 -6 -6 3 -7
-1 -4 -9 3 -9 2 -16 -4 -16 -6 0 -12 6 -15 13 -2 6 -8 8 -13 4 -8 -8 12 -27
28 -27 10 0 31 41 24 48 -3 3 -6 0 -6 -7z M11981 8797 l-1 -37 -90 1 c-49 0
-90 5 -90 10 0 4 6 6 13 4 16 -6 44 12 33 22 -5 4 -11 2 -13 -4 -3 -7 -9 -13
-15 -13 -6 0 -7 8 -3 17 5 15 3 15 -13 -2 -16 -17 -17 -22 -7 -35 11 -12 11
-18 0 -33 -11 -16 -24 -18 -73 -15 -33 1 -58 0 -55 -4 2 -5 30 -8 62 -8 50 0
61 3 77 25 19 26 40 35 29 13 -4 -7 -1 -6 7 2 9 11 30 14 76 12 68 -3 77 3 69
55 -3 23 -4 22 -6 -10z M11857 8723 c-3 -4 24 -6 59 -5 l64 4 0 -36 0 -36 -90
1 -90 1 5 26 c5 25 5 26 -4 4 -6 -12 -8 -29 -5 -37 4 -8 1 -22 -6 -30 -9 -10
-9 -15 -1 -15 6 0 11 5 11 10 0 6 10 10 23 10 18 0 19 2 7 10 -17 11 -23 10
90 13 l65 2 0 40 0 40 -62 3 c-34 2 -63 -1 -66 -5z M11823 8685 c0 -11 4 -12
14 -4 7 6 13 13 13 15 0 2 -6 4 -13 4 -8 0 -14 -7 -14 -15z M11983 8575 c0
-22 2 -30 4 -17 2 12 2 30 0 40 -3 9 -5 -1 -4 -23z M11797 8580 c-10 -12 -12
-21 -5 -28 5 -5 7 -19 3 -31 -5 -17 -16 -21 -73 -24 l-67 -3 68 -2 c53 -2 69
1 73 13 4 10 14 14 28 10 17 -5 18 -4 6 4 -13 10 -13 12 0 22 13 9 12 10 -2 5
-10 -3 -20 -1 -23 4 -4 6 0 10 8 10 8 0 20 6 26 14 9 11 7 15 -8 19 -11 2 -25
-3 -34 -13z m28 0 c3 -5 1 -10 -4 -10 -6 0 -11 5 -11 10 0 6 2 10 4 10 3 0 8
-4 11 -10z M11850 8550 c0 -5 5 -10 11 -10 5 0 7 5 4 10 -3 6 -8 10 -11 10 -2
0 -4 -4 -4 -10z M11981 8477 l-1 -37 -90 1 c-49 0 -90 5 -90 10 0 5 3 8 8 8 4
-1 14 -1 23 0 19 1 21 28 3 28 -7 0 -11 -4 -8 -8 2 -4 0 -10 -6 -14 -5 -3 -10
2 -10 11 0 37 -12 3 -14 -43 -2 -26 -1 -42 1 -35 3 6 14 12 26 12 18 0 19 2 7
10 -18 11 -9 12 88 10 68 -2 77 6 69 57 -3 23 -4 22 -6 -10z M11857 8403 c-3
-4 23 -7 58 -5 l64 4 4 -36 4 -36 -1 37 -1 38 -62 3 c-34 2 -63 -1 -66 -5z
M11803 8369 c-3 -10 -10 -16 -15 -13 -6 4 -5 -3 2 -16 21 -39 7 -50 -64 -50
-53 0 -65 3 -70 18 -4 13 -4 13 -3 -3 2 -17 11 -20 68 -23 49 -2 69 1 78 12 7
8 20 12 29 9 12 -4 10 0 -5 14 -26 23 -29 33 -9 33 7 0 19 6 25 14 9 11 7 15
-10 19 -15 4 -23 0 -26 -14z m22 1 c3 -5 1 -10 -4 -10 -6 0 -11 5 -11 10 0 6
2 10 4 10 3 0 8 -4 11 -10z M11893 8323 c15 -2 39 -2 55 0 15 2 2 4 -28 4 -30
0 -43 -2 -27 -4z M11981 8263 l-1 -32 -67 -4 -68 -3 68 -2 c73 -2 83 5 74 50
-3 18 -5 16 -6 -9z M11797 8260 c-10 -12 -12 -21 -5 -28 5 -5 7 -19 3 -31 -5
-17 -16 -21 -73 -24 l-67 -3 68 -2 c53 -2 69 1 73 13 4 10 13 13 25 10 11 -4
19 -2 19 5 0 6 -4 8 -10 5 -5 -3 -10 -2 -10 4 0 5 3 11 8 14 4 2 2 2 -5 1 -7
-2 -15 1 -18 6 -4 6 -2 10 4 10 6 0 7 8 4 18 -6 15 -5 15 10 3 9 -7 17 -9 17
-3 0 19 -27 20 -43 2z M11654 8236 c-3 -8 -4 -23 -1 -33 3 -12 5 -9 6 9 0 14
7 29 14 31 9 4 9 6 -1 6 -7 1 -15 -5 -18 -13z M11981 8158 l-1 -37 -62 -4 -63
-3 63 -2 c69 -2 77 4 69 55 -3 24 -4 23 -6 -9z M11800 8160 c-5 -39 -6 -94 -3
-82 3 6 14 12 26 13 21 0 21 1 3 8 -19 7 -19 8 1 13 15 4 21 13 20 30 -2 27
-27 35 -28 9 0 -12 -3 -11 -9 4 -6 14 -9 16 -10 5z m40 -31 c0 -5 -9 -9 -20
-9 -11 0 -20 4 -20 8 0 4 9 8 20 9 11 1 20 -2 20 -8z M11657 8133 c-9 -9 -9
-51 1 -56 4 -3 7 10 7 29 0 19 0 34 -1 34 0 0 -4 -3 -7 -7z M11917 8083 l62
-4 4 -35 c4 -34 4 -34 3 3 l-1 38 -65 1 -65 1 62 -4z M11799 8042 c-5 -13 -7
-27 -4 -32 3 -4 2 -15 -1 -24 -5 -12 -21 -16 -69 -16 -62 0 -64 1 -68 28 -4
25 -4 25 -3 -3 1 -30 1 -30 67 -33 49 -2 69 1 78 12 7 8 20 12 29 9 11 -4 8 2
-7 16 -26 23 -26 23 7 40 28 15 28 27 1 27 -13 0 -25 -9 -30 -24z M11888 8003
c18 -2 45 -2 60 0 15 2 0 4 -33 4 -33 0 -45 -2 -27 -4z M11840 7959 c0 -6 -9
-8 -20 -4 -14 5 -20 2 -20 -9 0 -9 -7 -16 -16 -16 -14 0 -14 -2 1 -16 9 -9 14
-23 11 -31 -3 -8 -6 -17 -6 -19 0 -2 -29 -4 -65 -4 l-65 0 0 29 c0 16 5 32 10
34 6 3 5 4 -2 3 -8 -2 -13 -17 -13 -37 l0 -34 68 -3 c54 -2 68 0 73 13 4 10
13 13 25 10 14 -5 19 -1 19 12 0 15 8 18 52 17 48 -1 49 -1 8 3 -48 5 -63 17
-54 46 3 9 3 17 0 17 -3 0 -6 -5 -6 -11z m-7 -46 c-7 -3 -9 -12 -5 -21 5 -14
3 -14 -13 2 -13 13 -16 21 -8 23 7 3 9 12 5 21 -5 14 -3 14 13 -2 13 -13 16
-21 8 -23z M11979 7938 c-3 -22 -1 -34 4 -29 5 5 7 21 5 37 -3 27 -4 26 -9 -8z
M11840 7849 c0 -5 -4 -7 -10 -4 -5 3 -10 -2 -11 -12 0 -16 -1 -16 -9 2 -7 17
-9 17 -9 3 -1 -10 -6 -18 -12 -18 -8 0 -8 -5 1 -15 7 -8 10 -21 7 -28 -4 -10
2 -13 21 -9 24 5 25 6 7 13 -20 8 -20 8 0 9 11 1 52 2 90 3 l70 2 1 35 2 35
-5 -32 -4 -33 -64 0 c-65 0 -82 11 -69 45 4 8 3 15 0 15 -3 0 -6 -5 -6 -11z
m0 -40 c0 -5 -9 -9 -20 -9 -11 0 -20 4 -20 8 0 4 9 8 20 9 11 1 20 -2 20 -8z
M11653 7785 c0 -22 2 -30 4 -17 2 12 2 30 0 40 -3 9 -5 -1 -4 -23z M11888
7763 c18 -2 45 -2 60 0 15 2 0 4 -33 4 -33 0 -45 -2 -27 -4z M11840 7751 c0
-8 -7 -11 -15 -7 -16 6 -40 -38 -30 -54 3 -4 2 -15 -1 -24 -5 -12 -21 -16 -69
-16 -62 0 -64 1 -68 28 -4 25 -4 25 -3 -3 1 -30 1 -30 69 -33 51 -2 69 0 73
11 3 9 13 13 25 10 10 -3 19 -1 19 5 0 6 3 19 6 29 3 10 2 14 -3 8 -11 -14
-43 -18 -43 -6 0 5 9 12 19 16 19 6 36 33 26 43 -3 3 -5 0 -5 -7z m-10 -71 c0
-5 -5 -10 -11 -10 -5 0 -7 5 -4 10 3 6 8 10 11 10 2 0 4 -4 4 -10z M11982
7730 c0 -19 2 -27 5 -17 2 9 2 25 0 35 -3 9 -5 1 -5 -18z M11888 7683 c18 -2
45 -2 60 0 15 2 0 4 -33 4 -33 0 -45 -2 -27 -4z M11840 7639 c0 -6 -9 -8 -20
-4 -14 5 -20 2 -20 -9 0 -9 -7 -16 -16 -16 -14 0 -14 -2 1 -16 9 -9 14 -22 12
-28 -3 -6 6 -12 19 -12 17 -1 24 3 24 16 0 13 6 17 23 14 12 -2 15 -1 7 2 -22
10 -30 26 -24 47 3 9 3 17 0 17 -3 0 -6 -5 -6 -11z m-7 -46 c-7 -3 -9 -12 -5
-21 5 -14 3 -14 -13 2 -13 13 -16 21 -8 23 7 3 9 12 5 21 -5 14 -3 14 13 -2
13 -13 16 -21 8 -23z M11979 7618 c-3 -22 -1 -34 4 -29 5 5 7 21 5 37 -3 27
-4 26 -9 -8z M11654 7596 c-3 -8 -4 -25 -2 -38 3 -21 8 -23 68 -24 l65 0 -64
3 -63 4 4 34 c4 37 1 45 -8 21z M11830 7520 c-14 -19 -15 -19 -22 -3 -6 16 -7
16 -7 1 -1 -9 -7 -19 -13 -22 -7 -4 2 -4 20 -1 17 2 32 0 32 -5 0 -6 -12 -10
-26 -10 -15 0 -23 -4 -19 -10 4 -6 1 -18 -7 -27 -12 -15 -11 -15 9 -3 12 8 19
18 17 22 -3 4 -1 8 5 8 5 0 12 -6 14 -12 4 -9 6 -8 6 2 1 12 16 15 73 15 l73
0 1 35 2 35 -5 -32 -4 -33 -64 0 c-65 0 -82 11 -69 45 8 21 1 19 -16 -5z
M11653 7465 c0 -22 2 -30 4 -17 2 12 2 30 0 40 -3 9 -5 -1 -4 -23z M11888
7443 c18 -2 45 -2 60 0 15 2 0 4 -33 4 -33 0 -45 -2 -27 -4z M11840 7429 c0
-6 -7 -9 -15 -6 -8 4 -17 1 -21 -5 -4 -7 -3 -8 4 -4 7 4 12 3 12 -3 0 -5 -6
-12 -12 -14 -9 -4 -10 -6 -1 -6 13 -1 43 26 43 40 0 5 -2 9 -5 9 -3 0 -5 -5
-5 -11z M11982 7405 c0 -16 2 -22 5 -12 2 9 2 23 0 30 -3 6 -5 -1 -5 -18z
M11652 7358 l-2 -38 73 2 72 2 -67 3 -67 4 -4 32 c-4 31 -4 31 -5 -5z M11835
7371 c-3 -12 -11 -21 -16 -21 -6 0 -7 5 -4 10 3 6 2 10 -3 10 -6 0 -12 -7 -16
-15 -4 -11 1 -15 18 -15 16 0 26 7 29 22 8 29 1 36 -8 9z M11888 7363 c18 -2
45 -2 60 0 15 2 0 4 -33 4 -33 0 -45 -2 -27 -4z M11840 7319 c0 -6 -9 -8 -20
-4 -12 4 -20 2 -20 -5 0 -6 5 -8 10 -5 6 3 10 2 10 -4 0 -5 -10 -12 -22 -14
-13 -2 -8 -3 10 -1 17 1 32 -1 32 -7 0 -5 -4 -9 -8 -9 -12 0 -9 -36 5 -49 10
-9 11 -5 7 19 -6 27 -4 29 12 23 18 -7 18 -6 1 11 -11 11 -15 26 -12 37 4 10
4 19 1 19 -3 0 -6 -5 -6 -11z M11652 7253 l3 -38 70 -1 70 -1 -69 4 -68 4 4
34 c2 19 0 35 -5 35 -4 0 -7 -17 -5 -37z M11794 7250 c0 -13 4 -16 10 -10 7 7
7 13 0 20 -6 6 -10 3 -10 -10z M11811 7183 c-12 -13 -11 -14 8 -8 12 4 21 2
21 -4 0 -6 -10 -11 -23 -11 -14 0 -24 -6 -24 -15 0 -8 7 -15 14 -15 8 0 11 5
8 10 -3 6 -2 10 4 10 5 0 12 -6 14 -12 4 -9 6 -8 6 2 1 12 15 15 68 14 l68 -1
-62 4 c-51 3 -63 7 -68 23 -8 24 -15 25 -34 3z M11653 7145 c0 -22 2 -30 4
-17 2 12 2 30 0 40 -3 9 -5 -1 -4 -23z M11843 7114 c-3 -8 -12 -13 -19 -10 -8
3 -11 0 -7 -10 3 -8 -1 -14 -10 -14 -9 0 -18 -4 -22 -10 -3 -5 6 -5 24 1 17 6
33 20 37 31 5 17 13 19 69 16 35 -2 61 0 58 5 -2 4 -31 7 -64 7 -45 0 -61 -4
-66 -16z M11657 7073 c-4 -3 -7 -21 -7 -40 l0 -33 73 2 72 2 -69 3 -68 4 4 34
c4 38 4 38 -5 28z M11835 7051 c-3 -12 -11 -21 -16 -21 -6 0 -7 5 -4 10 3 6 0
10 -8 10 -23 0 -15 -26 9 -28 15 -1 24 5 27 20 8 29 1 36 -8 9z M11915 7050
l-60 -7 57 -1 c31 -1 60 3 63 8 3 6 5 9 3 8 -2 -1 -30 -4 -63 -8z M11840 6999
c0 -6 -7 -8 -17 -5 -10 4 -24 -2 -36 -15 l-21 -22 37 6 c21 3 37 2 37 -4 0 -8
-22 -13 -42 -10 -4 0 -4 -7 -1 -16 4 -11 8 -13 11 -5 2 7 8 12 14 12 6 0 7 -7
4 -16 -3 -8 -2 -12 4 -9 6 3 10 12 10 18 0 8 21 11 70 9 38 -2 70 0 70 5 0 4
-28 6 -61 5 -65 -4 -84 6 -73 41 3 9 3 17 0 17 -3 0 -6 -5 -6 -11z m-20 -19
c0 -5 -4 -10 -10 -10 -5 0 -10 5 -10 10 0 6 5 10 10 10 6 0 10 -4 10 -10z
M11652 6933 l3 -38 59 -3 c32 -2 63 1 67 5 4 4 -21 6 -58 5 l-65 -4 4 36 c2
20 0 36 -5 36 -4 0 -7 -17 -5 -37z M11870 6914 c34 -7 108 -8 103 -1 -2 4 -30
6 -61 6 -31 -1 -50 -3 -42 -5z M11833 6895 c-16 -17 -17 -35 -3 -35 6 0 10 -4
10 -10 0 -5 -10 -10 -23 -10 -14 0 -24 -6 -24 -15 0 -9 10 -15 24 -15 13 0 23
6 23 13 0 9 17 11 61 9 34 -2 65 0 70 5 4 4 -19 6 -53 5 -66 -4 -82 6 -73 46
6 26 5 26 -12 7z M11786 6863 c-6 -14 -5 -15 5 -6 7 7 10 15 7 18 -3 3 -9 -2
-12 -12z M11653 6825 c0 -22 2 -30 4 -17 2 12 2 30 0 40 -3 9 -5 -1 -4 -23z
M11947 6803 c16 -3 23 -13 26 -36 4 -31 4 -31 3 3 -1 30 -4 35 -26 36 -21 1
-21 0 -3 -3z M11788 6771 c-15 -17 -14 -21 8 -47 23 -28 24 -29 39 -10 19 25
19 37 1 30 -8 -3 -12 -12 -9 -20 8 -21 -10 -17 -25 6 -10 16 -10 20 0 20 7 0
20 5 28 10 13 9 13 11 0 20 -20 13 -23 13 -42 -9z m32 -1 c0 -5 -4 -10 -10
-10 -5 0 -10 5 -10 10 0 6 5 10 10 10 6 0 10 -4 10 -10z M11652 6723 l3 -38
68 -3 c37 -2 67 1 67 5 0 4 -30 6 -66 5 l-66 -4 4 36 c2 20 0 36 -5 36 -4 0
-7 -17 -5 -37z M11836 6684 c-3 -8 -10 -12 -16 -9 -6 3 -7 -1 -4 -9 3 -9 10
-16 15 -16 5 0 9 -4 9 -10 0 -5 -12 -10 -27 -10 -14 0 -23 -3 -20 -7 4 -3 2
-12 -5 -20 -6 -7 -8 -16 -4 -20 3 -3 6 -1 6 5 0 7 11 12 25 12 14 0 25 6 25
13 0 8 20 12 67 12 l68 0 1 38 1 37 -4 -35 -4 -35 -59 0 c-48 0 -60 3 -65 19
-3 10 -3 26 1 35 3 9 4 16 1 16 -3 0 -8 -7 -11 -16z M11787 6657 c-3 -8 1 -14
8 -14 7 0 11 6 8 14 -3 7 -6 13 -8 13 -2 0 -5 -6 -8 -13z M11653 6615 c0 -22
2 -30 4 -17 2 12 2 30 0 40 -3 9 -5 -1 -4 -23z M11847 6593 c-3 -4 23 -7 58
-5 l64 4 4 -36 4 -36 -1 37 -1 38 -62 3 c-34 2 -63 -1 -66 -5z M11794 6565
c-4 -8 -14 -15 -23 -15 -13 0 -13 -2 -2 -9 16 -10 71 6 71 20 0 5 -4 9 -10 9
-5 0 -10 -4 -10 -10 0 -5 -5 -10 -11 -10 -6 0 -9 7 -5 15 3 8 3 15 0 15 -2 0
-7 -7 -10 -15z M11650 6510 l0 -40 70 0 c39 0 70 3 70 8 0 4 -30 5 -66 4 l-66
-4 4 36 c2 20 0 36 -4 36 -4 0 -8 -18 -8 -40z M11840 6531 c0 -7 -4 -9 -10 -6
-6 3 -7 -1 -4 -9 3 -9 2 -16 -4 -16 -6 0 -12 6 -15 13 -2 6 -8 8 -13 4 -8 -8
12 -27 28 -27 10 0 31 41 24 48 -3 3 -6 0 -6 -7z M11971 6457 l-1 -37 -90 1
c-50 0 -90 5 -90 11 0 5 4 6 10 3 6 -3 7 1 4 9 -3 9 -2 16 4 16 6 0 12 -6 15
-12 2 -7 8 -9 13 -5 8 8 -12 27 -28 27 -16 0 -30 -41 -18 -55 7 -9 8 -15 0
-20 -5 -3 -10 -12 -9 -18 0 -9 2 -9 6 1 2 6 17 12 31 13 24 0 25 1 7 9 l-20 9
20 1 c11 1 48 1 83 0 68 -2 77 6 69 57 -3 23 -4 22 -6 -10z M11847 6383 c-3
-4 23 -7 58 -5 l64 4 4 -36 4 -36 -1 37 -1 38 -62 3 c-34 2 -63 -1 -66 -5z
M11793 6349 c-3 -10 -10 -16 -16 -12 -5 3 -7 1 -4 -5 8 -12 42 -5 57 13 8 9 5
14 -11 18 -15 4 -23 0 -26 -14z m22 1 c3 -5 1 -10 -4 -10 -6 0 -11 5 -11 10 0
6 2 10 4 10 3 0 8 -4 11 -10z M11650 6329 c0 -5 5 -7 10 -4 6 3 10 8 10 11 0
2 -4 4 -10 4 -5 0 -10 -5 -10 -11z M11836 6313 c-6 -14 -5 -15 5 -6 7 7 10 15
7 18 -3 3 -9 -2 -12 -12z M11787 6290 c-4 -16 -16 -20 -73 -23 l-69 -3 72 -2
72 -2 -3 -52 c-2 -29 -1 -47 1 -40 3 6 14 12 26 12 18 0 19 2 7 10 -17 11 -23
10 90 13 l65 2 1 35 c1 35 1 35 -3 2 l-4 -32 -90 1 c-50 0 -89 5 -89 11 0 5 4
6 10 3 7 -4 7 3 0 20 -12 32 -5 46 18 38 16 -6 16 -6 0 10 -21 22 -25 21 -31
-3z M11817 6244 c6 -15 23 -19 23 -5 0 5 -7 11 -14 14 -10 4 -13 1 -9 -9z
M11847 6173 c-3 -4 23 -7 58 -5 l64 4 4 -36 4 -36 -1 37 -1 38 -62 3 c-34 2
-63 -1 -66 -5z M11793 6139 c-3 -10 -10 -16 -15 -13 -13 9 12 -39 26 -48 23
-15 28 -7 8 11 -25 21 -28 31 -8 31 7 0 19 6 25 14 9 11 7 15 -10 19 -15 4
-23 0 -26 -14z m22 1 c3 -5 1 -10 -4 -10 -6 0 -11 5 -11 10 0 6 2 10 4 10 3 0
8 -4 11 -10z M11715 6060 l-70 -6 67 -2 c37 -1 70 3 73 8 3 6 5 9 3 8 -2 -1
-34 -4 -73 -8z M11971 6037 l-1 -39 -64 4 c-35 1 -62 0 -59 -4 2 -5 31 -8 64
-8 65 0 74 7 66 57 -3 23 -4 21 -6 -10z M11789 6036 c-1 -6 -2 -27 -3 -47 l-3
-36 22 21 c20 20 20 21 3 24 -10 2 -18 8 -18 13 0 5 3 8 8 8 18 -3 30 2 35 14
3 7 -5 13 -19 13 -13 1 -24 -3 -25 -10z M11641 5974 c0 -11 3 -14 6 -6 3 7 2
16 -1 19 -3 4 -6 -2 -5 -13z M11847 5963 c-3 -4 24 -6 59 -5 l64 4 0 -36 0
-36 -58 0 c-32 0 -64 6 -72 13 -12 10 -12 9 0 -6 11 -14 25 -17 74 -15 l61 3
0 40 0 40 -62 3 c-34 2 -63 -1 -66 -5z M11794 5938 c-4 -6 -7 -27 -8 -47 l-1
-36 -67 -3 c-65 -3 -67 -2 -71 23 -4 24 -4 24 -3 -2 1 -27 3 -28 65 -31 36 -2
69 2 74 7 6 6 20 11 31 11 18 0 18 1 -2 19 -25 21 -28 31 -8 31 7 0 19 6 25
14 9 11 7 15 -9 19 -11 3 -23 0 -26 -5z m21 -8 c3 -5 1 -10 -4 -10 -6 0 -11 5
-11 10 0 6 2 10 4 10 3 0 8 -4 11 -10z M11971 5823 l-1 -33 -64 0 c-49 0 -65
4 -70 16 -3 9 -4 19 -2 22 2 4 -7 8 -20 8 -15 1 -24 -4 -24 -12 0 -8 -5 -14
-11 -14 -8 0 -8 -4 1 -15 6 -8 9 -23 5 -34 -5 -17 -17 -21 -73 -24 l-67 -3 68
-2 c53 -2 69 1 73 13 4 10 13 13 25 10 11 -4 19 -2 19 5 0 6 -4 8 -10 5 -5 -3
-10 -1 -10 4 0 13 3 13 93 11 72 -1 83 6 74 52 -3 17 -5 15 -6 -9z m-151 -33
c-8 -5 -19 -6 -24 -3 -6 4 -6 8 1 10 7 3 9 12 5 21 -5 15 -3 15 13 -1 15 -15
16 -20 5 -27z M11644 5796 c-3 -8 -4 -23 -2 -33 3 -11 6 -6 9 15 6 34 2 42 -7
18z M11840 5745 c-7 -9 -19 -14 -27 -11 -16 7 -35 -36 -27 -59 4 -8 0 -23 -7
-33 -11 -14 -11 -15 1 -4 8 6 23 12 35 13 19 0 19 1 1 8 -19 7 -19 8 3 14 17
4 22 11 17 22 -13 35 11 54 72 58 l57 3 -56 2 c-41 1 -60 -2 -69 -13z m-33
-34 c-3 -14 -1 -18 9 -14 8 3 14 0 14 -6 0 -6 -9 -11 -21 -11 -15 0 -19 4 -15
16 3 9 6 20 6 25 0 5 3 9 6 9 4 0 4 -9 1 -19z M11971 5718 l-1 -37 -62 -4 -63
-3 63 -2 c69 -2 77 4 69 55 -3 24 -4 23 -6 -9z M11640 5671 c0 -17 4 -32 8
-35 4 -2 6 11 4 30 -5 42 -12 45 -12 5z M11907 5643 c58 -4 62 -5 66 -31 4
-25 4 -24 3 3 l-1 30 -65 1 -65 1 62 -4z M11830 5629 c0 -6 -7 -8 -16 -5 -10
4 -18 0 -21 -13 -3 -13 -10 -18 -21 -13 -15 5 -14 3 1 -12 10 -10 16 -25 13
-33 -3 -8 -6 -17 -6 -19 0 -2 -29 -4 -65 -4 l-65 0 0 29 c0 16 5 32 10 34 6 3
5 4 -2 3 -8 -2 -13 -17 -13 -37 l0 -34 68 -3 c54 -2 68 0 73 13 4 10 14 14 28
10 11 -2 15 -2 9 1 -7 3 -13 10 -13 15 0 6 5 7 10 4 6 -3 10 -1 10 5 0 6 5 8
11 4 8 -5 8 -1 0 14 -6 11 -8 28 -5 36 3 9 3 16 0 16 -3 0 -6 -5 -6 -11z m-11
-50 c-19 -12 -29 -11 -29 1 0 6 4 10 10 10 5 0 6 8 3 18 -6 15 -5 15 12 -1 15
-16 16 -20 4 -28z M11830 5519 c0 -6 -9 -8 -20 -4 -14 5 -20 2 -20 -9 0 -9 -5
-16 -10 -16 -7 0 -7 -7 0 -20 6 -11 8 -25 5 -30 -3 -6 1 -7 9 -4 9 3 13 10 10
15 -3 5 3 9 13 10 10 0 50 1 88 2 l70 2 1 35 2 35 -5 -32 -4 -33 -64 0 c-65 0
-82 11 -69 45 4 8 3 15 0 15 -3 0 -6 -5 -6 -11z m0 -43 c0 -3 -10 -6 -22 -5
-13 0 -18 3 -11 5 7 3 9 13 5 22 -5 16 -5 16 11 0 9 -9 17 -19 17 -22z M11644
5476 c-3 -8 -4 -25 -2 -38 3 -17 5 -13 9 15 5 38 2 47 -7 23z M11878 5433 c18
-2 45 -2 60 0 15 2 0 4 -33 4 -33 0 -45 -2 -27 -4z M11971 5398 l-1 -37 -62
-4 -63 -3 63 -2 c69 -2 77 4 69 55 -3 24 -4 23 -6 -9z M11688 5413 c18 -2 45
-2 60 0 15 2 0 4 -33 4 -33 0 -45 -2 -27 -4z M11789 5393 c-5 -13 -6 -30 -3
-38 4 -8 0 -23 -7 -33 -11 -14 -11 -15 1 -4 8 6 23 13 35 13 17 1 17 2 2 6 -9
2 -15 9 -12 14 4 5 1 9 -4 9 -20 0 -11 16 10 17 15 1 19 -2 14 -15 -3 -9 -3
-13 2 -9 4 5 8 21 9 36 1 20 -3 27 -18 27 -12 0 -24 -10 -29 -23z m18 -5 c-3
-8 -6 -5 -6 6 -1 11 2 17 5 13 3 -3 4 -12 1 -19z M11640 5351 c0 -17 4 -32 8
-35 4 -2 6 11 4 30 -5 42 -12 45 -12 5z M11878 5323 c18 -2 45 -2 60 0 15 2 0
4 -33 4 -33 0 -45 -2 -27 -4z M11830 5309 c0 -6 -7 -8 -16 -5 -10 4 -18 0 -21
-13 -3 -13 -10 -18 -21 -13 -15 5 -14 3 1 -12 10 -10 15 -26 12 -34 -4 -12 0
-11 16 4 20 17 22 17 16 2 -4 -10 -2 -18 4 -18 6 0 9 8 7 18 -2 10 -11 16 -21
14 -9 -2 -17 1 -17 6 0 15 33 24 40 12 4 -6 7 3 7 20 0 16 -2 30 -4 30 -1 0
-3 -5 -3 -11z M11972 5290 c0 -19 2 -27 5 -17 2 9 2 25 0 35 -3 9 -5 1 -5 -18z
M11644 5266 c-3 -8 -4 -25 -2 -38 3 -21 8 -23 68 -24 l65 0 -62 3 c-62 4 -63
4 -63 33 0 15 6 31 13 33 9 4 9 6 -1 6 -7 1 -15 -5 -18 -13z M11830 5199 c0
-6 -9 -8 -20 -4 -14 4 -20 2 -20 -8 0 -9 -6 -18 -12 -20 -7 -3 -3 -6 9 -6 17
-1 21 3 16 17 -6 16 -6 16 10 0 23 -22 21 -28 -6 -28 -16 0 -23 -6 -23 -19 0
-11 5 -17 13 -14 7 3 10 9 7 14 -3 5 -1 9 5 9 5 0 12 -6 14 -12 4 -9 6 -8 6 2
1 12 16 15 73 15 l73 0 1 35 2 35 -5 -32 -4 -33 -64 0 c-65 0 -82 11 -69 45 4
8 3 15 0 15 -3 0 -6 -5 -6 -11z M11642 5133 l3 -38 65 -1 65 -1 -64 4 -63 4 4
35 c2 18 0 34 -5 34 -4 0 -7 -17 -5 -37z M11878 5113 c18 -2 45 -2 60 0 15 2
0 4 -33 4 -33 0 -45 -2 -27 -4z M11823 5095 c-7 -8 -13 -19 -13 -25 0 -6 -4
-9 -8 -6 -4 2 -14 0 -22 -5 -11 -6 -5 -8 19 -4 28 5 32 3 27 -10 -3 -9 -6 -19
-6 -21 0 -2 -5 -4 -11 -4 -5 0 -7 5 -4 10 3 6 0 10 -8 10 -7 0 -14 -7 -14 -15
0 -9 10 -15 24 -15 13 0 23 6 23 13 0 8 19 12 62 11 61 -1 61 -1 8 3 -59 4
-73 15 -65 51 6 26 5 26 -12 7z M11972 5075 c0 -16 2 -22 5 -12 2 9 2 23 0 30
-3 6 -5 -1 -5 -18z M11640 5025 c0 -19 4 -35 8 -35 4 0 6 16 4 35 -2 19 -6 35
-8 35 -2 0 -4 -16 -4 -35z M11834 4995 c-4 -10 -13 -13 -25 -10 -11 4 -19 2
-19 -5 0 -6 5 -8 10 -5 6 3 10 2 10 -4 0 -5 -3 -11 -7 -14 -5 -2 -2 -2 6 0 8
2 18 -2 23 -9 6 -9 8 -7 4 7 -9 33 6 44 69 48 l60 3 -63 2 c-48 2 -64 -2 -68
-13z M11644 4946 c-3 -8 -4 -25 -2 -38 3 -21 8 -23 68 -24 l65 0 -62 3 c-62 4
-63 4 -63 33 0 15 6 31 13 33 9 4 9 6 -1 6 -7 1 -15 -5 -18 -13z M11784 4919
c0 -17 1 -17 20 -1 18 16 19 16 13 0 -4 -10 -2 -18 4 -18 6 0 9 8 7 17 -4 23
-44 25 -44 2z M11800 4870 c13 -9 13 -11 0 -21 -12 -8 -10 -9 8 -4 13 4 22 2
22 -4 0 -6 -11 -11 -25 -11 -18 0 -23 -4 -19 -15 4 -8 10 -15 16 -15 5 0 6 5
3 10 -3 6 -2 10 4 10 5 0 12 -6 14 -12 4 -9 6 -8 6 2 1 12 15 15 68 14 l68 -1
-62 4 c-35 2 -63 8 -63 13 0 13 -29 40 -43 40 -7 0 -6 -4 3 -10z M11643 4815
c0 -22 2 -30 4 -17 2 12 2 30 0 40 -3 9 -5 -1 -4 -23z M11833 4784 c-3 -8 -12
-13 -19 -10 -8 3 -11 0 -7 -10 3 -8 -1 -14 -10 -14 -9 0 -18 -4 -22 -10 -3 -5
6 -5 24 1 17 6 33 20 37 31 5 17 13 19 69 16 35 -2 61 0 58 5 -2 4 -31 7 -64
7 -45 0 -61 -4 -66 -16z M11647 4743 c-4 -3 -7 -21 -7 -40 l0 -33 73 2 72 2
-69 3 -68 4 4 34 c4 38 4 38 -5 28z M11825 4721 c-3 -12 -11 -21 -16 -21 -6 0
-7 5 -4 10 3 6 0 10 -8 10 -23 0 -15 -26 9 -28 15 -1 24 5 27 20 8 29 1 36 -8
9z M11905 4720 l-60 -7 57 -1 c31 -1 60 3 63 8 3 6 5 9 3 8 -2 -1 -30 -4 -63
-8z M11780 4651 c-9 -18 -7 -19 20 -16 17 2 30 0 30 -5 0 -6 -10 -10 -23 -10
-14 0 -24 -6 -24 -15 0 -8 7 -15 14 -15 8 0 11 5 8 10 -3 6 -2 10 4 10 5 0 12
-6 14 -12 4 -9 6 -8 6 2 1 12 14 14 71 12 38 -2 70 0 70 5 0 4 -29 6 -65 5
-39 -2 -65 0 -65 6 0 13 -28 42 -40 42 -5 0 -14 -9 -20 -19z m30 -1 c0 -5 -4
-10 -10 -10 -5 0 -10 5 -10 10 0 6 5 10 10 10 6 0 10 -4 10 -10z M11644 4600
l1 -35 59 -3 c32 -2 63 1 67 5 4 4 -21 7 -56 5 l-64 -4 -4 34 -4 33 1 -35z
M11827 4570 c-19 -23 -21 -30 -8 -30 5 0 13 9 16 21 6 19 13 20 70 17 35 -2
61 0 58 5 -2 4 -30 7 -61 7 -45 0 -61 -4 -75 -20z M11777 4536 c-4 -10 -1 -13
8 -9 8 3 12 9 9 14 -7 12 -11 11 -17 -5z M11640 4495 c0 -19 4 -35 8 -35 4 0
6 16 4 35 -2 19 -6 35 -8 35 -2 0 -4 -16 -4 -35z M11826 4513 c-4 -13 -12 -23
-17 -23 -6 0 -7 5 -4 10 3 6 -2 10 -11 10 -10 0 -14 -3 -11 -7 4 -3 0 -15 -10
-25 -9 -11 -11 -18 -5 -18 7 0 12 5 12 10 0 6 11 10 25 10 14 0 25 6 25 13 0
8 20 12 67 12 46 0 67 4 69 13 1 7 0 8 -3 2 -7 -15 -120 -13 -126 3 -2 7 -7 2
-11 -10z M11960 4437 c4 -41 5 -41 8 -8 2 18 0 37 -5 42 -5 5 -6 -11 -3 -34z
M11779 4441 c-15 -17 -15 -20 2 -42 10 -13 19 -19 19 -13 0 5 -5 15 -12 22 -9
9 -9 12 3 12 7 0 21 5 29 10 13 9 13 11 0 20 -20 13 -23 13 -41 -9z m31 -1 c0
-5 -4 -10 -10 -10 -5 0 -10 5 -10 10 0 6 5 10 10 10 6 0 10 -4 10 -10z M11642
4393 l3 -38 68 -3 c37 -2 67 1 67 5 0 4 -30 6 -66 5 l-66 -4 4 36 c2 20 0 36
-5 36 -4 0 -7 -17 -5 -37z M11825 4412 c-12 -9 -16 -44 -4 -36 5 3 9 12 9 20
0 9 5 12 12 8 7 -4 8 -3 4 4 -8 14 -8 14 -21 4z M11961 4337 l-1 -37 -90 1
c-49 0 -90 5 -90 10 0 4 6 6 13 4 6 -3 19 0 27 5 13 9 13 11 0 20 -22 14 -28
12 -40 -11 -8 -14 -8 -24 -1 -33 6 -7 8 -16 4 -19 -3 -4 6 -7 20 -7 15 0 27 6
27 13 0 9 18 11 65 9 71 -4 80 2 72 55 -3 23 -4 22 -6 -10z m-151 -7 c0 -5 -4
-10 -10 -10 -5 0 -10 5 -10 10 0 6 5 10 10 10 6 0 10 -4 10 -10z M11643 4285
c0 -22 2 -30 4 -17 2 12 2 30 0 40 -3 9 -5 -1 -4 -23z M11834 4255 c-4 -9 -15
-15 -26 -13 -14 2 -23 -5 -29 -19 -7 -20 -6 -21 21 -11 16 5 32 18 35 29 5 16
16 19 66 19 l59 0 0 -35 0 -35 -59 0 c-37 0 -61 4 -63 12 -3 8 -6 6 -10 -4 -6
-14 3 -16 65 -14 l72 1 0 40 0 40 -63 3 c-50 2 -64 0 -68 -13z m-29 -25 c3 -5
1 -10 -4 -10 -6 0 -11 5 -11 10 0 6 2 10 4 10 3 0 8 -4 11 -10z M11642 4178
l-2 -38 48 2 47 1 -42 4 c-39 4 -42 7 -46 36 -4 31 -4 31 -5 -5z M11783 4183
c4 -3 0 -15 -10 -25 -9 -11 -11 -18 -5 -18 7 0 12 5 12 10 0 6 12 11 28 11 17
1 20 3 9 6 -9 2 -15 9 -12 14 4 5 -2 9 -11 9 -10 0 -14 -3 -11 -7z M11960
4117 c4 -41 5 -41 8 -8 2 18 0 37 -5 42 -5 5 -6 -11 -3 -34z M11779 4122 c-12
-14 -13 -23 -5 -38 13 -22 27 -34 41 -33 6 0 4 3 -2 6 -7 2 -13 9 -13 15 0 6
6 8 13 5 19 -7 43 8 28 17 -6 4 -11 3 -11 -2 0 -9 -36 -10 -45 0 -3 3 6 8 20
12 24 6 36 26 15 26 -5 0 -10 -4 -10 -10 0 -5 -5 -10 -11 -10 -6 0 -9 7 -5 15
7 20 4 19 -15 -3z M11640 4099 c0 -5 5 -7 10 -4 6 3 10 8 10 11 0 2 -4 4 -10
4 -5 0 -10 -5 -10 -11z M11640 4038 c0 -5 29 -8 64 -8 36 0 67 3 69 8 3 4 -26
7 -64 7 -38 0 -69 -3 -69 -7z M11961 4017 l-1 -37 -90 1 c-50 0 -90 5 -90 11
0 5 4 6 10 3 6 -4 7 1 3 11 -6 15 -7 15 -15 0 -6 -11 -6 -22 2 -31 7 -9 8 -15
0 -20 -5 -3 -10 -12 -9 -18 0 -9 2 -9 6 1 2 6 14 12 26 12 18 0 19 2 7 10 -18
11 -9 12 88 10 68 -2 77 6 69 57 -3 23 -4 22 -6 -10z M11807 4014 c3 -7 9 -14
14 -14 14 0 10 17 -5 23 -10 4 -13 1 -9 -9z M11837 3943 c-3 -4 24 -6 59 -5
l64 4 0 -37 0 -36 -70 2 c-39 1 -73 0 -76 -4 -3 -3 30 -4 73 -4 l78 2 0 40 0
40 -62 3 c-34 2 -63 -1 -66 -5z M11784 3918 c-4 -6 -7 -27 -8 -47 l-1 -36 -70
-6 -70 -5 73 -2 c42 -1 72 2 72 8 0 6 10 10 22 10 l21 0 -21 19 c-25 21 -28
31 -8 31 7 0 19 6 25 14 9 11 7 15 -9 19 -11 3 -23 0 -26 -5z m21 -8 c3 -5 1
-10 -4 -10 -6 0 -11 5 -11 10 0 6 2 10 4 10 3 0 8 -4 11 -10z M11963 3795 c0
-22 2 -30 4 -17 2 12 2 30 0 40 -3 9 -5 -1 -4 -23z M11777 3799 c-19 -22 -10
-30 19 -19 30 12 37 27 15 33 -11 2 -25 -3 -34 -14z m28 1 c3 -5 1 -10 -4 -10
-6 0 -11 5 -11 10 0 6 2 10 4 10 3 0 8 -4 11 -10z M11786 3754 c-9 -8 -16 -19
-16 -24 0 -5 -30 -11 -67 -13 l-68 -3 68 -2 c53 -2 69 1 73 13 4 10 14 14 28
10 17 -5 18 -4 6 4 -13 10 -13 12 0 21 9 6 10 10 3 10 -6 0 -19 -7 -27 -16z
M11837 3733 c-3 -4 23 -7 58 -5 l64 4 4 -36 4 -36 -1 37 -1 38 -62 3 c-34 2
-63 -1 -66 -5z M11783 3699 c-3 -10 -10 -16 -15 -13 -6 4 -5 -3 2 -16 21 -39
7 -50 -64 -50 -61 0 -65 1 -69 25 -4 23 -4 23 -3 -2 1 -28 2 -28 72 -31 l71
-3 -1 -96 c-1 -53 0 -91 2 -84 2 6 13 11 25 12 21 0 21 1 3 8 -19 7 -19 8 1
13 15 4 21 13 20 32 -2 29 -27 37 -28 9 0 -13 -3 -12 -10 6 -7 19 -5 27 12 42
l22 19 -21 0 c-12 0 -22 5 -22 10 0 6 3 9 8 9 18 -3 30 2 36 16 3 8 2 14 -2
14 -21 -3 -42 2 -38 10 3 4 18 7 33 5 16 -2 20 -1 9 2 -20 6 -46 28 -46 38 0
3 6 6 14 6 7 0 19 6 25 14 9 11 7 15 -10 19 -15 4 -23 0 -26 -14z m22 1 c3 -5
1 -10 -4 -10 -6 0 -11 5 -11 10 0 6 2 10 4 10 3 0 8 -4 11 -10z m15 -221 c0
-5 -9 -9 -20 -9 -11 0 -20 4 -20 8 0 4 9 8 20 9 11 1 20 -2 20 -8z M11888
3653 c12 -2 32 -2 45 0 12 2 2 4 -23 4 -25 0 -35 -2 -22 -4z M11961 3608 l-1
-37 -62 -4 -63 -3 63 -2 c69 -2 77 4 69 55 -3 24 -4 23 -6 -9z M11634 3576
c-3 -8 -4 -23 -2 -33 3 -11 6 -6 9 15 6 34 2 42 -7 18z M11863 3543 c9 -2 25
-2 35 0 9 3 1 5 -18 5 -19 0 -27 -2 -17 -5z M11961 3508 l-1 -37 -62 -4 -63
-3 63 -2 c69 -2 77 4 69 55 -3 24 -4 23 -6 -9z M11630 3456 c0 -14 4 -27 8
-30 5 -3 6 8 4 25 -5 35 -12 38 -12 5z M11897 3433 l62 -4 4 -35 c4 -34 4 -34
3 3 l-1 38 -65 1 -65 1 62 -4z M11783 3399 c-3 -12 -11 -15 -21 -11 -15 5 -14
3 1 -12 10 -10 16 -25 13 -33 -3 -8 -6 -17 -6 -19 0 -2 -29 -4 -65 -4 l-65 0
0 29 c0 16 5 32 10 34 6 3 5 4 -2 3 -8 -2 -13 -17 -13 -37 l0 -34 68 -3 c54
-2 68 0 73 13 4 10 14 14 28 10 11 -2 15 -2 9 1 -7 3 -13 10 -13 15 0 6 5 7
12 3 7 -4 8 -3 4 4 -4 6 -13 9 -21 5 -8 -3 -15 -1 -15 5 0 19 32 23 47 5 13
-16 13 -16 3 5 -6 12 -9 26 -6 30 2 4 -5 8 -16 8 -12 0 -23 -8 -25 -17z
M11820 3309 c0 -6 -9 -8 -20 -4 -14 5 -20 2 -20 -9 0 -9 -5 -16 -10 -16 -7 0
-7 -6 0 -19 20 -38 3 -51 -67 -51 l-65 0 4 35 c2 20 0 31 -5 26 -5 -5 -7 -21
-5 -37 3 -28 5 -29 68 -32 51 -2 67 0 77 13 6 10 16 14 22 11 5 -4 13 -1 17 5
4 8 3 9 -4 5 -7 -4 -12 -2 -12 3 0 6 6 11 13 12 6 0 44 1 82 2 l70 2 1 35 2
35 -5 -32 -4 -33 -64 0 c-65 0 -82 11 -69 45 4 8 3 15 0 15 -3 0 -6 -5 -6 -11z
m0 -43 c0 -3 -10 -6 -22 -5 -13 0 -18 3 -11 5 7 3 9 13 5 22 -5 16 -5 16 11 0
9 -9 17 -19 17 -22z M11868 3223 c18 -2 45 -2 60 0 15 2 0 4 -33 4 -33 0 -45
-2 -27 -4z M11820 3209 c0 -6 -7 -8 -15 -5 -16 6 -40 -38 -30 -54 3 -4 2 -15
-1 -24 -5 -12 -21 -16 -69 -16 -62 0 -64 1 -68 28 -4 25 -4 25 -3 -3 l1 -30
75 -6 c41 -3 67 -6 57 -7 -17 -2 -17 -3 -2 -18 9 -9 14 -22 12 -28 -3 -6 6
-12 19 -12 16 -1 24 4 24 15 0 13 12 16 72 16 l73 0 1 35 2 35 -5 -32 -4 -33
-63 0 c-58 0 -64 2 -74 26 -7 14 -8 23 -3 20 5 -3 11 1 14 9 4 10 25 15 69 17
l63 3 1 38 1 37 -4 -35 -4 -35 -65 0 c-67 0 -70 2 -66 53 1 9 0 17 -3 17 -3 0
-5 -5 -5 -11z m2 -55 c2 -11 -4 -20 -16 -22 -11 -3 -16 0 -11 7 3 6 11 8 17 5
7 -4 8 -2 4 4 -4 6 -13 9 -21 5 -8 -3 -15 0 -15 6 0 6 4 11 10 11 5 0 6 8 3
18 -6 16 -6 16 9 1 9 -9 18 -24 20 -35z m-9 -81 c-7 -3 -9 -12 -5 -21 5 -14 3
-14 -13 2 -13 13 -16 21 -8 23 7 3 9 12 5 21 -5 14 -3 14 13 -2 13 -13 16 -21
8 -23z M11634 3076 c-3 -8 -4 -25 -2 -38 3 -21 8 -23 68 -24 l65 0 -62 3 c-62
4 -63 4 -63 33 0 15 6 31 13 33 9 4 9 6 -1 6 -7 1 -15 -5 -18 -13z"/>
</g>
</svg>
