<?xml version="1.0" standalone="no"?>
<!DOCTYPE svg PUBLIC "-//W3C//DTD SVG 20010904//EN"
 "http://www.w3.org/TR/2001/REC-SVG-20010904/DTD/svg10.dtd">
<svg version="1.0" xmlns="http://www.w3.org/2000/svg"
 width="2360.000000pt" height="1640.000000pt" viewBox="0 0 2360.000000 1640.000000"
 preserveAspectRatio="xMidYMid meet">
<metadata>
Created by potrace 1.16, written by Peter Selinger 2001-2019
</metadata>
<g transform="translate(0.000000,1640.000000) scale(0.100000,-0.100000)"
fill="#000000" stroke="none">
<path d="M11726 10501 c-14 -16 -19 -35 -18 -83 1 -35 1 -76 1 -93 -1 -35 -1
-125 1 -157 1 -13 -2 -47 -6 -75 -4 -35 -2 -63 6 -83 10 -23 10 -34 1 -43 -15
-15 -14 -120 1 -135 10 -10 10 -17 0 -32 -15 -24 -16 -114 -1 -142 8 -14 8
-23 0 -31 -15 -15 -14 -130 1 -145 9 -9 9 -15 0 -24 -15 -15 -16 -130 0 -146
8 -8 8 -15 -3 -28 -8 -10 -13 -37 -11 -73 1 -31 2 -67 2 -81 1 -14 -2 -51 -6
-82 -4 -40 -3 -63 6 -73 9 -11 9 -22 0 -50 -7 -20 -9 -57 -6 -83 7 -57 7 -61
0 -136 -4 -39 -2 -67 7 -82 10 -19 10 -27 1 -36 -15 -15 -16 -112 -1 -140 8
-14 8 -23 0 -31 -15 -15 -14 -130 1 -145 9 -9 9 -15 0 -24 -15 -15 -16 -122
-2 -148 7 -13 7 -21 0 -25 -13 -8 -13 -142 -1 -149 5 -4 3 -19 -6 -37 -10 -21
-13 -44 -9 -77 4 -26 6 -60 5 -77 -1 -27 -1 -113 0 -167 1 -13 -2 -47 -5 -77
-4 -35 -2 -62 7 -77 10 -19 10 -27 1 -36 -15 -15 -16 -112 -1 -140 8 -14 8
-23 0 -31 -15 -15 -14 -130 1 -145 9 -9 9 -15 0 -24 -14 -14 -16 -126 -2 -148
5 -9 5 -19 -1 -26 -17 -20 -21 -107 -7 -134 12 -21 12 -30 0 -53 -9 -19 -12
-44 -8 -75 4 -26 6 -60 5 -77 -1 -27 -1 -120 0 -162 0 -10 -2 -44 -5 -77 -4
-39 -2 -67 7 -82 10 -19 10 -27 1 -36 -16 -16 -15 -121 0 -136 10 -10 10 -17
0 -32 -15 -25 -16 -132 0 -148 9 -9 9 -15 0 -24 -14 -14 -16 -126 -2 -148 5
-9 5 -19 -2 -27 -6 -8 -10 -41 -10 -76 1 -34 1 -75 1 -92 -1 -16 -1 -55 -1
-85 1 -30 1 -68 0 -85 0 -16 0 -56 0 -87 0 -32 0 -67 0 -78 0 -80 0 -153 1
-167 0 -10 -2 -46 -5 -81 -4 -41 -2 -68 6 -77 8 -10 8 -19 1 -34 -14 -26 -14
-124 0 -138 8 -8 8 -17 0 -31 -14 -26 -14 -139 -1 -147 7 -4 7 -12 0 -25 -13
-24 -13 -137 -1 -145 6 -3 4 -20 -5 -42 -11 -24 -14 -50 -9 -77 3 -23 5 -53 5
-68 -1 -34 -1 -140 -1 -170 1 -13 -2 -47 -5 -77 -4 -34 -2 -62 6 -76 9 -17 9
-28 1 -43 -14 -27 -14 -107 0 -134 8 -14 8 -23 0 -31 -14 -14 -15 -134 -1
-142 7 -4 7 -12 0 -25 -14 -26 -13 -133 2 -148 8 -8 8 -15 -3 -28 -13 -16 -20
-126 -8 -139 4 -3 24 -8 45 -12 22 -3 45 -13 52 -22 12 -15 14 -15 23 2 8 13
23 17 74 17 44 0 68 5 79 16 19 19 22 104 4 122 -7 7 -39 12 -74 12 -35 0 -66
5 -69 10 -4 6 18 10 59 10 80 0 96 13 96 78 0 26 -4 52 -8 59 -4 6 -39 15 -77
21 l-70 9 58 2 c85 2 97 11 97 74 0 29 -4 57 -8 64 -4 7 -36 13 -71 15 -94 4
-93 26 1 30 l73 3 3 63 c3 59 2 63 -23 72 -15 6 -49 10 -76 10 -27 0 -49 5
-49 10 0 6 26 10 59 10 87 0 91 3 91 69 0 31 -5 62 -12 69 -7 7 -39 12 -75 12
-35 0 -63 4 -63 10 0 6 28 10 63 10 34 0 68 4 75 9 9 5 12 27 10 72 l-3 64
-65 3 c-86 4 -104 22 -22 22 76 0 102 20 102 78 0 59 -15 71 -90 74 -84 4 -84
22 0 26 35 2 70 8 77 14 19 15 17 103 -3 122 -11 11 -35 16 -80 16 -36 0 -64
4 -64 10 0 6 29 10 68 10 40 0 73 5 80 12 7 7 12 35 12 63 0 28 -5 56 -12 63
-7 7 -40 12 -80 12 -39 0 -68 4 -68 10 0 6 29 10 68 10 40 0 73 5 80 12 7 7
12 35 12 63 0 28 -5 56 -12 63 -7 7 -39 12 -75 12 -35 0 -63 4 -63 10 0 6 28
10 63 10 36 0 68 5 75 12 7 7 12 35 12 63 0 28 -5 56 -12 63 -7 7 -39 12 -75
12 -35 0 -63 4 -63 10 0 6 26 10 58 10 82 0 94 11 90 85 l-3 60 -68 5 c-37 3
-67 10 -67 15 0 6 30 12 67 15 l68 5 0 65 c0 50 -3 65 -15 67 -8 1 -41 5 -72
8 -80 9 -73 25 11 25 41 0 73 5 77 11 4 7 7 36 8 66 1 66 -8 73 -91 73 -35 0
-63 4 -63 10 0 6 30 10 70 10 78 0 90 10 90 75 0 65 -12 75 -90 75 -40 0 -70
4 -70 10 0 6 28 10 64 10 45 0 69 5 80 16 20 19 22 107 3 122 -7 6 -42 12 -77
14 -85 4 -80 22 7 26 38 2 71 8 75 15 10 16 10 98 0 114 -4 7 -40 15 -80 19
-86 8 -85 24 2 24 35 0 67 5 74 12 7 7 12 35 12 63 0 28 -5 56 -12 63 -7 7
-39 12 -75 12 -35 0 -63 4 -63 10 0 6 28 10 63 10 36 0 68 5 75 12 7 7 12 38
12 69 0 66 -4 69 -92 69 -43 0 -58 3 -55 13 2 8 20 11 55 9 69 -5 89 8 94 60
3 24 1 53 -3 66 -8 20 -15 22 -79 22 -56 0 -70 3 -70 15 0 12 14 15 70 15 79
0 90 9 90 79 0 53 -25 71 -102 71 -32 0 -58 4 -58 10 0 6 30 10 70 10 79 0 90
9 90 79 0 57 -19 71 -96 71 -36 0 -64 4 -64 10 0 6 28 10 64 10 45 0 69 5 80
16 20 19 22 107 3 122 -7 6 -42 12 -77 14 -87 4 -83 22 5 26 40 2 73 8 77 15
9 14 10 89 2 111 -4 10 -18 16 -38 16 -49 0 -106 12 -106 21 0 5 31 9 69 9 54
0 70 4 75 16 10 27 6 110 -6 122 -7 7 -39 12 -75 12 -35 0 -63 4 -63 10 0 6
28 10 63 10 36 0 68 5 75 12 7 7 12 35 12 63 0 28 -5 56 -12 63 -7 7 -40 12
-76 12 -46 0 -63 3 -59 13 2 8 25 12 65 12 33 0 66 5 72 11 6 6 10 36 8 70
l-3 59 -69 5 c-43 3 -71 10 -74 18 -3 9 15 12 67 12 68 0 72 1 81 26 16 40 12
82 -10 104 -16 16 -33 20 -80 20 -33 0 -60 4 -60 10 0 6 30 10 70 10 79 0 90
9 90 79 0 57 -19 71 -96 71 -36 0 -64 4 -64 10 0 6 28 10 64 10 45 0 69 5 80
16 20 19 22 107 3 122 -7 6 -41 12 -75 14 -81 4 -76 23 6 24 74 1 82 8 82 74
0 66 -8 74 -89 78 -86 5 -84 22 3 22 35 0 67 5 74 12 7 7 12 36 12 65 0 63
-13 73 -94 73 -31 0 -56 5 -56 10 0 6 28 10 63 10 36 0 68 5 75 12 7 7 12 35
12 63 0 28 -5 56 -12 63 -7 7 -39 12 -75 12 -35 0 -63 4 -63 10 0 6 26 10 58
10 82 0 94 11 90 85 l-3 60 -69 5 c-43 3 -71 10 -74 18 -3 9 15 12 67 12 68 0
72 1 81 26 14 37 12 76 -6 102 -13 19 -24 22 -80 22 -36 0 -64 4 -64 10 0 6
30 10 70 10 78 0 90 10 90 75 0 65 -12 75 -90 75 -40 0 -70 4 -70 10 0 6 28
10 64 10 45 0 69 5 80 16 20 19 22 107 3 122 -7 6 -41 12 -75 14 -87 4 -83 22
5 26 82 3 87 9 81 93 l-3 44 -72 5 c-115 8 -111 27 7 32 l65 3 3 60 c4 74 -8
85 -90 85 -32 0 -58 4 -58 10 0 6 28 10 63 10 36 0 68 5 75 12 7 7 12 38 12
69 0 66 -4 69 -91 69 -33 0 -59 4 -59 10 0 6 26 10 58 10 32 0 65 6 74 13 19
15 30 81 18 112 -8 22 -16 24 -77 27 -87 4 -89 22 -3 26 74 3 90 16 90 72 0
58 -18 73 -94 78 -87 6 -85 22 4 22 79 0 90 9 90 79 0 57 -19 71 -94 71 -34 0
-66 4 -71 9 -6 5 -28 12 -50 16 -34 5 -44 2 -59 -14z m64 -36 c15 -9 54 -14
98 -15 l72 0 0 -34 c0 -19 -5 -38 -11 -41 -6 -4 -55 -4 -110 0 l-99 7 0 42 c0
59 7 65 50 41z m-12 -167 c7 -7 49 -15 95 -18 l82 -5 0 -35 0 -35 -105 0 -105
0 -3 39 c-5 60 9 81 36 54z m97 -187 l80 -6 0 -35 0 -35 -107 -3 -108 -3 0 44
c0 51 7 61 35 51 11 -4 56 -10 100 -13z m-82 -166 c20 -8 66 -15 102 -15 l66
0 -3 -32 -3 -33 -107 -3 c-105 -3 -108 -2 -113 21 -5 20 8 77 19 77 2 0 20 -7
39 -15z m-15 -167 c7 -7 49 -15 95 -18 l82 -5 0 -35 0 -35 -99 -3 c-64 -2
-103 1 -112 9 -16 14 -18 52 -4 80 12 22 21 24 38 7z m97 -188 c82 0 93 -7 81
-55 l-7 -26 -107 3 -107 3 -3 38 c-2 21 2 45 9 53 10 13 15 13 35 -1 16 -10
48 -15 99 -15z m-10 -169 l80 -6 3 -38 3 -38 -108 3 -108 3 -3 33 c-5 50 4 66
31 57 12 -4 58 -11 102 -14z m-79 -166 c17 -9 56 -15 97 -15 l67 0 0 -34 c0
-19 -6 -36 -12 -38 -7 -2 -57 -2 -110 0 l-98 4 0 42 c0 60 8 66 56 41z m-6
-170 c15 -9 54 -14 98 -15 l73 0 -3 -37 -3 -38 -105 0 -105 0 -3 39 c-4 41 2
66 15 66 4 -1 19 -7 33 -15z m85 -184 l80 -6 0 -35 0 -35 -107 -3 -108 -3 0
52 c0 51 0 51 28 44 15 -4 63 -10 107 -14z m-20 -172 c39 -4 78 -8 88 -8 14
-1 18 -8 15 -33 l-3 -33 -107 -3 c-105 -3 -108 -2 -113 21 -3 12 -1 35 5 51 8
21 14 26 28 20 9 -4 49 -11 87 -15z m-77 -161 c7 -7 49 -15 95 -18 76 -5 82
-7 85 -28 6 -42 -13 -52 -105 -52 -46 0 -93 5 -104 10 -21 12 -25 50 -9 81 12
22 21 24 38 7z m101 -188 c61 0 70 -3 76 -20 3 -11 3 -29 0 -40 -6 -19 -13
-20 -113 -18 l-107 3 -3 38 c-5 54 11 71 49 52 17 -9 56 -15 98 -15z m-34
-167 c100 -6 105 -9 105 -49 l0 -35 -107 3 -108 3 -3 33 c-5 50 4 66 31 57 12
-4 49 -10 82 -12z m-59 -168 c17 -9 56 -15 97 -15 l67 0 0 -34 c0 -19 -6 -36
-13 -39 -6 -2 -56 -2 -110 1 l-97 5 0 42 c0 59 8 65 56 40z m-18 -167 c7 -7
49 -15 95 -18 l82 -5 0 -35 0 -35 -105 0 -105 0 -3 39 c-5 60 9 81 36 54z m97
-187 l80 -6 0 -35 0 -35 -107 -3 -108 -3 0 52 c0 51 0 51 28 44 15 -4 63 -10
107 -14z m-10 -172 c44 -4 84 -8 88 -8 5 -1 7 -16 5 -33 l-3 -33 -104 -3
c-113 -3 -125 2 -115 48 11 48 14 52 32 44 9 -4 53 -11 97 -15z m-87 -161 c7
-7 49 -15 95 -18 76 -5 82 -7 85 -28 6 -42 -14 -52 -99 -52 -98 0 -129 11
-129 45 0 28 16 65 28 65 5 0 13 -5 20 -12z m7 -178 c3 -5 42 -10 85 -10 70 0
79 -2 85 -20 3 -11 3 -29 0 -40 -6 -19 -13 -20 -113 -18 -104 3 -107 4 -110
27 -6 39 7 71 28 71 10 0 22 -4 25 -10z m80 -179 l80 -6 3 -38 3 -38 -108 3
-108 3 -3 33 c-5 50 4 66 31 57 12 -4 58 -11 102 -14z m-79 -166 c17 -9 56
-15 97 -15 l67 0 0 -34 c0 -19 -4 -36 -10 -38 -5 -1 -55 -2 -110 0 l-100 3 0
43 c0 60 8 66 56 41z m-12 -170 c14 -10 45 -15 99 -15 l78 0 -3 -37 -3 -38
-105 0 -105 0 -3 39 c-5 64 6 78 42 51z m91 -184 l80 -6 0 -35 0 -35 -107 -3
-108 -3 0 52 c0 51 0 51 28 44 15 -4 63 -10 107 -14z m-2 -174 l87 -11 0 -33
0 -33 -109 0 c-101 0 -110 2 -116 20 -4 11 -3 34 0 51 6 26 10 30 28 24 12 -4
61 -12 110 -18z m-95 -159 c7 -7 49 -15 95 -18 76 -5 82 -7 85 -28 6 -42 -14
-52 -97 -51 -103 1 -125 8 -129 41 -3 28 13 68 26 68 5 0 13 -5 20 -12z m101
-188 c61 0 70 -3 76 -20 3 -11 3 -29 0 -40 -6 -19 -13 -20 -113 -18 l-107 3
-3 38 c-5 54 11 71 49 52 17 -9 56 -15 98 -15z m-14 -169 l80 -6 3 -38 3 -38
-108 3 -108 3 -3 33 c-5 50 4 66 31 57 12 -4 58 -11 102 -14z m-87 -163 c6 -6
47 -13 92 -16 l80 -5 0 -33 0 -34 -110 0 -110 0 0 43 c0 24 3 47 7 50 10 10
28 8 41 -5z m2 -173 c15 -9 54 -14 98 -15 l73 0 -3 -37 -3 -38 -85 -3 c-122
-4 -130 -1 -130 52 0 59 7 65 50 41z m85 -185 l80 -5 0 -35 0 -35 -105 0 -105
0 -3 39 c-5 57 2 70 30 54 13 -7 59 -15 103 -18z m0 -169 l80 -6 0 -35 0 -35
-106 -3 c-119 -3 -125 0 -113 65 6 32 9 34 33 28 14 -4 62 -10 106 -14z m-15
-168 c84 -5 102 -15 98 -52 -3 -26 -3 -26 -110 -29 l-107 -3 -7 26 c-3 14 -3
37 0 51 6 22 11 25 29 19 12 -5 56 -10 97 -12z m3 -172 c87 -8 103 -18 93 -56
l-7 -26 -107 3 c-104 3 -107 4 -110 27 -2 12 -1 34 3 48 5 21 10 24 28 18 12
-4 57 -11 100 -14z m-77 -166 c17 -9 56 -15 97 -15 l67 0 0 -35 0 -35 -110 0
-110 0 0 34 c0 39 8 66 20 66 4 0 21 -7 36 -15z m-6 -170 c15 -9 54 -14 98
-15 l73 0 -3 -37 -3 -38 -85 -3 c-117 -4 -130 0 -130 42 0 37 8 66 19 66 3 -1
17 -7 31 -15z m85 -184 l80 -6 0 -35 0 -35 -105 0 -105 0 -3 33 c-5 50 4 66
31 57 12 -4 58 -11 102 -14z m-90 -161 c3 -5 37 -10 75 -10 90 0 100 -5 100
-46 l0 -34 -110 0 -110 0 0 43 c0 24 3 47 7 50 10 10 31 8 38 -3z m-2 -172
c12 -7 56 -15 97 -18 l75 -5 3 -31 c2 -19 -2 -33 -10 -36 -7 -2 -57 -2 -110 0
l-98 4 0 42 c0 57 7 64 43 44z m92 -188 l80 -5 0 -35 0 -35 -99 -3 c-64 -2
-103 1 -112 9 -17 14 -18 52 -4 80 9 17 14 18 33 7 12 -7 58 -15 102 -18z
m-90 -160 c3 -5 42 -10 85 -10 70 0 79 -2 85 -20 3 -11 3 -29 0 -40 -6 -19
-13 -20 -113 -18 -104 3 -107 4 -110 27 -6 39 7 71 28 71 10 0 22 -4 25 -10z
m90 -180 l75 0 0 -40 0 -41 -107 3 -108 3 -3 38 c-2 21 2 45 9 53 10 13 15 13
35 -1 16 -10 48 -15 99 -15z m-100 -160 c3 -5 37 -10 75 -10 90 0 100 -5 100
-46 l0 -34 -110 0 -110 0 0 43 c0 24 3 47 7 50 10 10 31 8 38 -3z"/>
</g>
</svg>
