<?xml version="1.0" standalone="no"?>
<!DOCTYPE svg PUBLIC "-//W3C//DTD SVG 20010904//EN"
 "http://www.w3.org/TR/2001/REC-SVG-20010904/DTD/svg10.dtd">
<svg version="1.0" xmlns="http://www.w3.org/2000/svg"
 width="2360.000000pt" height="1640.000000pt" viewBox="0 0 2360.000000 1640.000000"
 preserveAspectRatio="xMidYMid meet">
<metadata>
Created by potrace 1.16, written by Peter Selinger 2001-2019
</metadata>
<g transform="translate(0.000000,1640.000000) scale(0.100000,-0.100000)"
fill="#000000" stroke="none">
<path d="M11664 10516 c-14 -37 3 -49 63 -43 60 6 84 20 66 38 -5 5 -35 13
-66 16 -47 5 -58 3 -63 -11z M11800 10471 c-87 -17 -65 -51 32 -51 55 0 58 1
58 24 0 35 -20 41 -90 27z M11660 10375 c0 -23 3 -25 49 -25 27 0 62 5 78 11
27 10 27 11 9 25 -12 8 -43 14 -78 14 -55 0 -58 -1 -58 -25z M11773 10339
c-63 -18 -26 -42 67 -43 42 -1 45 1 45 24 0 22 -4 25 -40 27 -22 1 -55 -3 -72
-8z M11664 10266 c-3 -9 -3 -23 0 -32 5 -14 16 -16 63 -10 104 12 107 44 4 53
-50 5 -62 3 -67 -11z M11792 10220 c-79 -19 -49 -50 49 -50 49 0 50 1 47 28
-2 22 -8 27 -33 29 -16 1 -45 -2 -63 -7z M11662 10128 c3 -20 10 -23 49 -26
25 -2 58 2 75 8 28 11 28 12 10 26 -12 8 -43 14 -79 14 -55 0 -58 -1 -55 -22z
M11773 10090 c-30 -12 -29 -28 2 -35 14 -3 37 -7 51 -10 40 -9 64 3 64 31 0
22 -4 24 -47 23 -27 0 -58 -4 -70 -9z M11664 10015 c-4 -8 -3 -22 0 -31 5 -14
16 -16 60 -10 63 7 86 14 86 27 0 28 -136 41 -146 14z M11792 9970 c-44 -10
-51 -19 -28 -36 28 -20 122 -19 130 2 15 38 -27 52 -102 34z M11681 9898 c-14
-5 -21 -14 -19 -25 3 -15 14 -18 65 -18 56 0 96 15 81 30 -11 12 -106 21 -127
13z M11773 9840 c-13 -5 -23 -14 -23 -19 0 -20 111 -35 134 -18 32 23 10 47
-43 46 -25 0 -56 -4 -68 -9z M11664 9765 c-12 -31 18 -48 73 -40 100 13 96 46
-7 53 -49 4 -61 1 -66 -13z M11792 9720 c-18 -4 -36 -11 -39 -14 -15 -14 20
-30 77 -34 49 -4 61 -1 66 12 15 39 -29 54 -104 36z M11671 9646 c-23 -28 -6
-46 43 -46 73 0 126 30 79 44 -57 16 -110 17 -122 2z M11773 9590 c-13 -5 -23
-14 -23 -19 0 -13 56 -23 105 -19 32 2 40 7 40 23 0 17 -7 20 -50 22 -27 1
-60 -2 -72 -7z M11663 9514 c-11 -30 20 -47 74 -39 67 9 84 21 59 40 -28 21
-125 20 -133 -1z M11792 9470 c-41 -10 -49 -17 -33 -33 7 -7 38 -12 74 -12 59
0 62 1 62 25 0 22 -5 25 -35 27 -19 1 -50 -2 -68 -7z M11672 9397 c-22 -26 -4
-47 42 -46 52 1 88 11 93 26 5 13 -14 21 -75 29 -36 4 -51 2 -60 -9z M11770
9339 c-25 -10 -25 -11 -5 -25 13 -10 38 -14 75 -12 47 3 55 6 55 23 0 17 -7
20 -50 22 -27 1 -61 -2 -75 -8z M11667 9268 c-2 -7 0 -21 5 -32 8 -15 17 -17
56 -11 67 9 82 15 82 30 0 16 -31 25 -92 25 -28 0 -48 -5 -51 -12z M11783
9219 c-18 -5 -33 -14 -33 -19 0 -14 70 -32 110 -28 30 3 35 7 35 28 0 22 -4
25 -40 27 -22 1 -55 -3 -72 -8z M11674 9146 c-14 -37 3 -49 63 -43 60 6 84 20
66 38 -5 5 -35 13 -66 16 -47 5 -58 3 -63 -11z M11810 9101 c-87 -17 -65 -51
32 -51 55 0 58 1 58 24 0 35 -20 41 -90 27z M11670 9005 c0 -23 3 -25 49 -25
27 0 62 5 78 11 27 10 27 11 9 25 -12 8 -43 14 -78 14 -55 0 -58 -1 -58 -25z
M11776 8967 c-25 -11 -27 -14 -13 -25 8 -7 41 -14 74 -15 56 -2 58 -1 58 23 0
23 -4 25 -45 27 -25 2 -58 -3 -74 -10z M11674 8896 c-14 -36 3 -49 56 -43 108
13 114 48 10 55 -48 4 -61 1 -66 -12z M11802 8850 c-79 -19 -49 -50 49 -50 49
0 50 1 47 28 -2 22 -8 27 -33 29 -16 1 -45 -2 -63 -7z M11672 8758 c3 -20 10
-23 49 -26 25 -2 58 2 75 8 28 11 28 12 10 26 -12 8 -43 14 -79 14 -55 0 -58
-1 -55 -22z M11783 8720 c-13 -5 -23 -14 -23 -19 0 -6 10 -13 23 -15 97 -20
117 -16 117 20 0 22 -4 24 -47 23 -27 0 -58 -4 -70 -9z M11674 8645 c-4 -8 -3
-22 0 -31 5 -14 16 -16 60 -10 63 7 86 14 86 27 0 28 -136 41 -146 14z M11793
8599 c-18 -5 -33 -14 -33 -19 0 -31 133 -44 144 -14 15 39 -37 54 -111 33z
M11686 8527 c-32 -24 -13 -47 38 -47 81 0 129 32 66 44 -16 3 -42 8 -58 11
-16 3 -35 0 -46 -8z M11783 8470 c-53 -22 -11 -43 73 -38 41 3 49 6 49 23 0
17 -7 20 -50 22 -27 1 -60 -2 -72 -7z M11674 8395 c-12 -31 18 -48 73 -40 100
13 96 46 -7 53 -49 4 -61 1 -66 -13z M11802 8350 c-18 -4 -36 -11 -39 -14 -15
-14 20 -30 77 -34 49 -4 61 -1 66 12 15 39 -29 54 -104 36z M11680 8276 c-22
-28 -5 -46 44 -46 72 0 127 30 79 43 -57 16 -110 17 -123 3z M11783 8220 c-13
-5 -23 -14 -23 -19 0 -13 56 -23 105 -19 32 2 40 7 40 23 0 17 -7 20 -50 22
-27 1 -60 -2 -72 -7z M11676 8143 c-12 -30 17 -46 71 -38 67 9 84 21 59 40
-29 22 -122 20 -130 -2z M11802 8100 c-41 -10 -49 -17 -33 -33 7 -7 38 -12 74
-12 59 0 62 1 62 25 0 22 -5 25 -35 27 -19 1 -50 -2 -68 -7z M11687 8028 c-31
-23 -11 -48 38 -48 72 0 125 30 78 44 -53 14 -99 16 -116 4z M11780 7969 c-25
-10 -25 -11 -5 -25 13 -10 38 -14 75 -12 47 3 55 6 55 23 0 17 -7 20 -50 22
-27 1 -61 -2 -75 -8z M11677 7896 c-3 -8 0 -22 7 -31 10 -14 21 -16 63 -10 29
4 60 13 70 20 17 13 16 14 -10 24 -42 16 -124 14 -130 -3z M11802 7850 c-41
-10 -49 -17 -33 -33 7 -7 38 -12 74 -12 59 0 62 1 62 25 0 22 -5 25 -35 27
-19 1 -50 -2 -68 -7z M11693 7784 c-7 -3 -13 -17 -13 -30 0 -22 4 -24 44 -24
72 0 126 30 79 44 -34 9 -98 15 -110 10z M11780 7719 c-24 -10 -24 -11 -6 -25
12 -8 43 -14 79 -14 55 0 58 1 55 23 -3 19 -10 22 -53 24 -27 1 -61 -2 -75 -8z
M11684 7646 c-14 -36 3 -49 56 -43 108 13 114 48 10 55 -48 4 -61 1 -66 -12z
M11803 7599 c-18 -5 -35 -14 -38 -19 -10 -16 44 -31 94 -28 42 3 46 5 46 28 0
22 -5 25 -35 27 -19 1 -49 -3 -67 -8z M11692 7531 c-8 -4 -12 -17 -10 -27 4
-25 72 -31 119 -11 32 13 33 14 14 24 -29 15 -108 24 -123 14z M11780 7469
c-24 -10 -24 -11 -6 -25 12 -8 43 -14 78 -14 55 0 58 1 58 25 0 24 -3 25 -52
24 -29 0 -64 -5 -78 -10z M11684 7396 c-14 -36 3 -49 56 -43 108 13 114 48 10
55 -48 4 -61 1 -66 -12z M11803 7349 c-18 -5 -33 -14 -33 -20 0 -15 46 -29 96
-29 44 0 45 1 42 28 -3 23 -8 27 -38 29 -19 1 -50 -3 -67 -8z M11692 7282
c-27 -18 -9 -47 30 -50 68 -6 140 27 91 42 -41 11 -109 16 -121 8z M11784
7215 c-16 -13 -17 -16 -4 -25 19 -12 127 -13 134 -1 4 5 3 16 0 25 -8 21 -102
22 -130 1z M11684 7145 c-12 -31 18 -48 73 -40 100 13 96 46 -7 53 -49 4 -61
1 -66 -13z M11803 7099 c-18 -5 -33 -14 -33 -20 0 -29 133 -41 144 -13 15 39
-37 54 -111 33z M11691 7026 c-7 -9 -11 -23 -7 -31 9 -25 134 -15 143 12 5 13
-13 19 -78 28 -35 5 -48 3 -58 -9z M11793 6970 c-13 -5 -23 -14 -23 -19 0 -13
56 -23 105 -19 32 2 40 7 40 23 0 17 -7 20 -50 22 -27 1 -60 -2 -72 -7z
M11683 6894 c-11 -30 20 -47 74 -39 67 9 84 21 59 40 -28 21 -125 20 -133 -1z
M11803 6849 c-18 -5 -33 -14 -33 -20 0 -15 46 -29 95 -29 48 0 60 10 50 40 -7
22 -53 26 -112 9z M11692 6777 c-22 -26 -4 -47 42 -46 52 1 88 11 93 26 5 13
-14 21 -75 29 -36 4 -51 2 -60 -9z M11786 6717 c-19 -14 -19 -15 2 -26 13 -7
46 -11 75 -9 44 3 52 6 52 23 0 17 -8 20 -55 23 -36 2 -62 -2 -74 -11z M11686
6643 c-10 -26 21 -44 64 -37 69 11 80 15 80 28 0 17 -31 26 -91 26 -35 0 -49
-4 -53 -17z M11803 6599 c-18 -5 -33 -14 -33 -19 0 -13 75 -32 113 -28 27 2
32 7 32 28 0 22 -4 25 -40 27 -22 1 -55 -3 -72 -8z M11694 6525 c-10 -26 4
-45 33 -45 39 0 103 19 103 31 0 28 -126 41 -136 14z M11822 6480 c-19 -4 -39
-13 -45 -19 -16 -16 38 -33 92 -29 36 2 47 7 49 22 7 33 -27 42 -96 26z
M11690 6385 c0 -24 3 -25 53 -25 28 1 63 7 76 14 24 13 24 14 3 25 -11 6 -46
11 -76 11 -53 0 -56 -1 -56 -25z M11805 6353 c-54 -14 -33 -36 45 -47 51 -7
74 3 68 30 -2 15 -13 19 -48 21 -25 0 -54 -1 -65 -4z M11692 6264 c3 -28 5
-29 56 -27 113 5 118 44 6 51 l-66 4 4 -28z M11810 6227 c-19 -7 -34 -16 -33
-22 4 -14 58 -27 101 -23 32 3 37 6 37 28 0 21 -5 25 -35 27 -19 1 -51 -3 -70
-10z M11694 6156 c-17 -44 27 -58 109 -35 64 17 46 34 -49 45 -44 6 -55 4 -60
-10z M11790 6099 c-24 -10 -24 -11 -6 -25 12 -8 43 -14 78 -14 55 0 58 1 58
25 0 24 -3 25 -52 24 -29 0 -64 -5 -78 -10z M11697 6033 c-13 -12 -7 -41 9
-47 19 -7 92 3 118 17 19 9 19 10 1 23 -19 14 -116 20 -128 7z M11807 5978
c-15 -5 -26 -15 -24 -21 5 -15 61 -29 101 -25 26 2 31 7 31 28 0 22 -5 25 -40
27 -22 1 -53 -3 -68 -9z M11694 5905 c-11 -27 4 -45 38 -45 43 0 108 18 108
30 0 12 -65 30 -108 30 -20 0 -35 -6 -38 -15z M11870 5864 c-8 -2 -32 -5 -52
-9 -82 -13 -24 -51 67 -43 31 2 40 7 40 22 0 19 -28 34 -55 30z M11694 5775
c-12 -30 15 -46 65 -39 25 4 55 11 65 17 19 9 19 10 1 23 -27 20 -124 19 -131
-1z M11812 5729 c-61 -18 -22 -46 64 -48 43 -1 59 14 48 44 -7 17 -60 19 -112
4z M11695 5650 c-9 -29 2 -40 38 -40 42 0 107 18 107 30 0 12 -65 30 -107 30
-23 0 -33 -6 -38 -20z M11837 5610 c-59 -10 -68 -17 -43 -36 27 -20 125 -19
132 1 7 17 -13 46 -30 44 -6 -1 -33 -5 -59 -9z M11694 5525 c-11 -28 16 -47
55 -40 79 13 91 17 91 30 0 27 -136 37 -146 10z M11812 5479 c-61 -18 -22 -46
65 -48 33 -1 43 3 48 19 3 11 3 24 0 30 -8 12 -68 12 -113 -1z M11701 5406
c-20 -24 -2 -46 39 -46 47 0 102 19 97 33 -8 25 -117 36 -136 13z M11840 5361
c-20 -4 -42 -11 -49 -16 -25 -15 19 -35 76 -35 57 0 77 17 53 45 -13 16 -24
17 -80 6z M11696 5275 c-8 -21 21 -46 47 -41 12 3 39 8 60 11 41 7 50 29 15
39 -45 12 -116 7 -122 -9z M11813 5229 c-18 -5 -33 -14 -33 -19 0 -13 75 -32
113 -28 27 2 32 7 32 28 0 22 -4 25 -40 27 -22 1 -55 -3 -72 -8z M11704 5156
c-14 -37 3 -49 63 -43 31 3 61 11 66 16 18 18 -6 32 -66 38 -47 5 -58 3 -63
-11z M11837 5110 c-85 -16 -57 -53 36 -48 41 2 53 7 55 22 7 33 -18 40 -91 26z
M11700 5015 c0 -24 3 -25 58 -25 33 0 66 6 77 14 18 13 18 14 -3 25 -11 6 -46
11 -76 11 -53 0 -56 -1 -56 -25z M11813 4979 c-18 -5 -33 -14 -33 -19 0 -13
75 -32 113 -28 27 2 32 7 32 28 0 22 -4 25 -40 27 -22 1 -55 -3 -72 -8z
M11704 4905 c-4 -8 -3 -22 0 -31 5 -14 16 -16 62 -11 30 3 62 12 71 19 14 11
12 14 -13 25 -42 18 -113 17 -120 -2z M11837 4860 c-86 -16 -56 -50 44 -50 45
0 49 2 49 24 0 35 -20 41 -93 26z M11700 4765 c0 -24 3 -25 58 -25 33 0 66 6
77 14 18 13 18 14 -3 25 -11 6 -46 11 -76 11 -53 0 -56 -1 -56 -25z M11820
4731 c-44 -12 -30 -35 27 -45 64 -11 85 -4 81 26 -2 19 -10 23 -43 25 -22 1
-51 -2 -65 -6z M11704 4655 c-11 -27 4 -45 38 -45 48 0 110 19 105 33 -9 27
-134 37 -143 12z M11855 4615 c-5 -2 -22 -6 -37 -9 -34 -8 -37 -31 -5 -40 40
-11 115 -7 120 7 12 33 -32 57 -78 42z M11704 4525 c-3 -8 -3 -19 1 -25 9 -15
108 -12 130 4 18 13 18 14 -3 25 -31 17 -121 14 -128 -4z M11821 4481 c-14 -4
-26 -11 -28 -18 -5 -13 14 -21 75 -29 52 -7 78 9 66 40 -6 17 -65 21 -113 7z
M11704 4405 c-11 -27 4 -45 38 -45 44 0 108 18 108 31 0 28 -136 41 -146 14z
M11832 4360 c-44 -10 -51 -19 -28 -36 27 -20 125 -19 132 1 15 38 -30 53 -104
35z M11704 4277 c-10 -27 5 -37 60 -37 51 0 99 21 83 36 -4 5 -37 10 -72 12
-52 4 -66 1 -71 -11z M11821 4231 c-14 -4 -26 -11 -28 -18 -5 -13 14 -21 75
-29 52 -7 80 10 68 41 -6 16 -68 19 -115 6z M11706 4154 c-9 -23 12 -44 43
-44 38 0 101 19 101 31 0 29 -133 41 -144 13z M11832 4110 c-44 -10 -51 -19
-28 -36 27 -20 125 -19 132 1 15 38 -30 53 -104 35z M11706 4031 c-4 -5 -3
-16 0 -25 8 -21 102 -22 130 -1 16 13 17 16 4 25 -19 12 -127 13 -134 1z
M11821 3981 c-30 -8 -38 -28 -14 -35 57 -16 110 -17 122 -2 23 28 6 46 -41 45
-24 -1 -54 -4 -67 -8z M11706 3904 c-9 -23 12 -44 43 -44 38 0 101 19 101 31
0 29 -133 41 -144 13z M11833 3859 c-18 -5 -35 -14 -38 -19 -10 -16 44 -31 94
-28 42 3 46 5 46 28 0 22 -5 25 -35 27 -19 1 -49 -3 -67 -8z M11723 3793 c-7
-2 -13 -16 -13 -29 0 -22 4 -24 44 -24 75 0 130 33 74 44 -50 10 -94 14 -105
9z M11811 3729 c-33 -13 -15 -30 41 -38 66 -10 90 -3 86 22 -3 19 -10 22 -53
24 -27 1 -61 -2 -74 -8z M11712 3644 c3 -28 5 -29 56 -27 113 5 118 44 6 51
l-66 4 4 -28z M11833 3609 c-18 -5 -35 -14 -38 -19 -10 -16 44 -31 94 -28 42
3 46 5 46 28 0 22 -5 25 -35 27 -19 1 -49 -3 -67 -8z M11714 3536 c-17 -44 27
-58 109 -35 64 17 46 34 -49 45 -44 6 -55 4 -60 -10z M11810 3479 c-24 -10
-24 -11 -6 -25 12 -8 43 -14 78 -14 55 0 58 1 58 25 0 24 -3 25 -52 24 -29 0
-64 -5 -78 -10z M11717 3413 c-14 -13 -6 -42 13 -48 22 -7 86 3 114 18 19 9
19 10 1 23 -19 14 -116 20 -128 7z M11833 3359 c-18 -5 -33 -14 -33 -20 0 -16
50 -30 94 -27 36 3 41 6 41 28 0 22 -5 25 -35 27 -19 1 -50 -3 -67 -8z M11722
3292 c-26 -18 -9 -47 28 -50 39 -4 110 14 110 27 0 19 -116 38 -138 23z
M11818 3233 c-25 -6 -22 -30 5 -37 40 -11 115 -7 119 7 11 27 -4 37 -55 36
-29 -1 -60 -3 -69 -6z M11714 3155 c-12 -30 15 -46 65 -39 25 4 55 11 65 17
19 9 19 10 1 23 -27 20 -124 19 -131 -1z M11827 3108 c-51 -18 -15 -45 64 -47
40 -1 63 17 53 43 -7 19 -71 21 -117 4z"/>
</g>
</svg>
