<?xml version="1.0" standalone="no"?>
<!DOCTYPE svg PUBLIC "-//W3C//DTD SVG 20010904//EN"
 "http://www.w3.org/TR/2001/REC-SVG-20010904/DTD/svg10.dtd">
<svg version="1.0" xmlns="http://www.w3.org/2000/svg"
 width="2360.000000pt" height="1640.000000pt" viewBox="0 0 2360.000000 1640.000000"
 preserveAspectRatio="xMidYMid meet">
<metadata>
Created by potrace 1.16, written by Peter Selinger 2001-2019
</metadata>
<g transform="translate(0.000000,1640.000000) scale(0.100000,-0.100000)"
fill="#000000" stroke="none">
<path d="M11760 12205 c0 -14 -4 -25 -10 -25 -5 0 -10 -11 -10 -25 0 -14 5
-25 10 -25 6 0 10 -11 10 -25 0 -14 -4 -25 -10 -25 -5 0 -10 -11 -10 -25 0
-20 5 -25 28 -26 16 -1 20 -3 10 -6 -11 -3 -18 -14 -18 -29 0 -13 -4 -24 -10
-24 -15 0 -12 -40 3 -46 15 -5 11 -64 -4 -64 -12 0 -11 -37 1 -45 6 -3 10 -17
10 -30 0 -13 -4 -27 -10 -30 -20 -12 -11 -45 13 -46 12 0 16 -3 10 -6 -7 -2
-13 -16 -13 -29 0 -13 -4 -24 -10 -24 -5 0 -10 -11 -10 -25 0 -19 5 -25 23
-26 12 0 16 -3 10 -6 -7 -2 -13 -16 -13 -29 0 -13 -4 -24 -10 -24 -5 0 -10
-11 -10 -25 0 -14 6 -25 13 -25 9 0 12 -10 9 -30 -2 -16 -8 -30 -13 -30 -12 0
-11 -37 1 -45 6 -3 10 -17 10 -30 0 -13 -4 -27 -10 -30 -5 -3 -10 -15 -10 -26
0 -14 7 -19 28 -20 16 -1 20 -3 10 -6 -11 -3 -18 -14 -18 -29 0 -13 -4 -24
-10 -24 -5 0 -10 -11 -10 -25 0 -20 5 -25 28 -26 16 -1 20 -3 10 -6 -11 -3
-18 -14 -18 -29 0 -13 -4 -24 -10 -24 -5 0 -10 -11 -10 -25 0 -19 5 -25 23
-26 12 0 16 -3 10 -6 -7 -2 -13 -16 -13 -29 0 -13 -4 -24 -10 -24 -5 0 -10
-11 -10 -25 0 -14 6 -25 13 -25 9 0 12 -10 9 -30 -2 -16 -8 -30 -13 -30 -12 0
-11 -37 1 -45 6 -3 10 -17 10 -30 0 -13 -4 -27 -10 -30 -20 -12 -11 -45 13
-46 12 0 16 -3 10 -6 -7 -2 -13 -16 -13 -29 0 -13 -4 -24 -10 -24 -5 0 -10
-11 -10 -25 0 -20 5 -25 28 -26 16 -1 20 -3 10 -6 -11 -3 -18 -14 -18 -29 0
-13 -4 -24 -10 -24 -5 0 -10 -11 -10 -25 0 -19 5 -25 23 -26 12 0 16 -3 10 -6
-7 -2 -13 -16 -13 -29 0 -13 -4 -24 -10 -24 -5 0 -10 -11 -10 -25 0 -14 5 -25
10 -25 14 0 12 -36 -2 -60 -10 -16 -10 -24 0 -40 14 -24 16 -60 2 -60 -5 0
-10 -11 -10 -25 0 -19 5 -25 23 -26 12 0 16 -3 10 -6 -7 -2 -13 -16 -13 -29 0
-13 -4 -24 -10 -24 -5 0 -10 -11 -10 -25 0 -20 5 -25 28 -26 16 -1 20 -3 10
-6 -28 -7 -21 -21 7 -15 13 2 33 1 42 -3 15 -5 16 -8 3 -15 -8 -4 -26 -7 -40
-6 -30 2 -50 -15 -50 -43 0 -15 7 -21 23 -22 12 0 16 -3 10 -6 -27 -10 -11
-18 27 -15 25 3 40 0 40 -7 0 -9 -42 -16 -71 -13 -15 2 -39 -36 -33 -52 3 -9
9 -16 13 -16 11 0 5 -48 -8 -64 -11 -13 -11 -19 0 -32 17 -21 18 -64 0 -73
-20 -12 -6 -41 21 -41 21 0 21 -1 4 -13 -11 -8 -17 -20 -14 -28 3 -8 -2 -19
-10 -25 -21 -15 -8 -44 20 -44 20 -1 21 -2 6 -11 -10 -5 -18 -18 -18 -27 0
-10 -5 -23 -11 -29 -17 -17 -3 -43 23 -44 17 -1 18 -2 6 -6 -10 -2 -18 -13
-18 -24 0 -11 -6 -28 -12 -40 -11 -17 -10 -22 2 -32 16 -13 15 -67 -1 -67 -14
0 -11 -40 4 -46 15 -5 11 -64 -4 -64 -5 0 -9 -9 -9 -20 0 -15 7 -20 28 -20 23
-1 24 -2 10 -11 -10 -5 -18 -19 -18 -29 0 -10 -4 -22 -10 -25 -5 -3 -10 -15
-10 -26 0 -14 7 -19 28 -20 16 -1 20 -3 10 -6 -11 -3 -18 -14 -18 -28 0 -13
-4 -27 -10 -30 -5 -3 -10 -15 -10 -26 0 -14 7 -19 28 -20 16 -1 20 -3 10 -6
-11 -3 -18 -14 -18 -29 0 -13 -4 -24 -10 -24 -15 0 -12 -40 3 -46 15 -5 11
-64 -4 -64 -14 0 -10 -40 4 -46 15 -5 11 -64 -4 -64 -5 0 -9 -9 -9 -20 0 -13
7 -20 20 -20 17 0 19 -3 10 -20 -5 -11 -14 -29 -20 -40 -14 -28 -12 -50 4 -50
7 0 28 -3 45 -6 29 -6 31 -5 31 25 0 17 5 31 10 31 6 0 10 11 10 25 0 14 -4
25 -9 25 -5 0 -9 14 -9 30 1 17 5 30 10 30 4 0 8 11 8 25 0 14 -4 25 -9 25
-11 0 -8 46 2 57 10 9 9 43 -2 43 -4 0 -8 13 -7 30 1 16 4 30 7 30 13 0 17 40
4 48 -16 9 -14 54 3 65 16 11 15 34 -2 44 -16 10 -16 55 2 66 6 4 12 14 12 22
0 8 -6 18 -12 22 -7 4 -13 19 -13 33 0 14 6 29 13 33 16 11 16 36 -1 43 -15 5
-11 64 4 64 14 0 11 38 -3 47 -7 4 -13 17 -13 28 0 11 6 24 13 28 16 11 15 47
-2 47 -17 0 -16 58 2 65 6 2 12 11 12 19 0 8 -6 19 -12 23 -7 4 -13 19 -13 33
0 14 6 29 13 33 6 4 12 14 12 22 0 8 -6 18 -12 22 -17 11 -18 63 -1 63 17 0
17 39 0 46 -15 5 -11 64 4 64 14 0 10 40 -5 46 -14 5 -10 50 5 60 12 7 12 44
0 44 -15 0 -19 59 -4 64 17 7 17 46 1 46 -8 0 -13 13 -13 30 0 17 5 30 13 30
6 0 12 9 12 20 0 10 -6 23 -12 27 -17 11 -18 63 -1 63 17 0 17 39 0 46 -15 5
-11 64 4 64 12 0 11 37 -1 45 -5 3 -10 17 -10 30 0 13 5 27 10 30 6 3 10 15
10 26 0 10 -4 19 -10 19 -5 0 -10 14 -10 30 0 17 5 30 10 30 6 0 10 11 10 25
0 14 -4 25 -9 25 -5 0 -11 14 -13 30 -3 20 0 30 9 30 15 0 18 36 3 45 -5 3
-10 19 -10 36 0 16 5 29 10 29 6 0 10 9 10 19 0 11 -4 23 -10 26 -5 3 -10 19
-10 36 0 16 5 29 10 29 6 0 10 9 10 19 0 11 -4 23 -10 26 -5 3 -10 17 -10 30
0 13 5 27 10 30 6 3 10 15 10 26 0 10 -4 19 -10 19 -5 0 -10 14 -10 30 0 17 5
30 10 30 6 0 10 11 10 25 0 14 -4 25 -10 25 -5 0 -10 14 -10 30 0 17 5 30 10
30 6 0 10 11 10 25 0 14 -4 25 -10 25 -5 0 -10 14 -10 30 0 17 5 30 10 30 6 0
10 11 10 25 0 14 -4 25 -10 25 -5 0 -10 14 -10 30 0 17 5 30 10 30 6 0 10 9
10 19 0 11 -4 23 -10 26 -5 3 -10 17 -10 30 0 13 5 27 10 30 6 3 10 15 10 26
0 10 -4 19 -10 19 -5 0 -10 14 -10 30 0 17 5 30 10 30 6 0 10 11 10 25 0 14
-4 25 -10 25 -5 0 -10 14 -10 30 0 17 5 30 10 30 6 0 10 11 10 25 0 14 -4 25
-10 25 -5 0 -10 14 -10 30 0 17 5 30 10 30 6 0 10 9 10 19 0 11 -4 23 -10 26
-5 3 -10 17 -10 30 0 13 5 27 10 30 6 3 10 15 10 26 0 10 -4 19 -10 19 -5 0
-10 14 -10 30 0 17 5 30 10 30 6 0 10 11 10 25 0 14 -4 25 -10 25 -5 0 -10 11
-10 25 0 14 5 25 10 25 6 0 10 11 10 25 0 23 -4 25 -45 25 -41 0 -45 -2 -45
-25z m80 5 c0 -5 -9 -10 -19 -10 -11 0 -26 -3 -35 -6 -11 -4 -16 -1 -16 10 0
12 10 16 35 16 19 0 35 -4 35 -10z m-20 -55 c0 -10 -11 -15 -35 -15 -24 0 -35
5 -35 15 0 10 11 15 35 15 24 0 35 -5 35 -15z m20 -45 c0 -5 -6 -10 -12 -10
-7 0 -23 -3 -35 -6 -17 -5 -23 -2 -23 10 0 12 9 16 35 16 19 0 35 -4 35 -10z
m-20 -55 c0 -10 -11 -15 -35 -15 -24 0 -35 5 -35 15 0 10 11 15 35 15 24 0 35
-5 35 -15z m20 -55 c0 -5 -9 -10 -19 -10 -11 0 -26 -3 -35 -6 -11 -4 -16 -1
-16 10 0 12 10 16 35 16 19 0 35 -4 35 -10z m-20 -56 c0 -11 -8 -14 -32 -12
-46 4 -49 28 -4 28 26 0 36 -4 36 -16z m20 -54 c0 -5 -16 -10 -35 -10 -19 0
-35 5 -35 10 0 6 16 10 35 10 19 0 35 -4 35 -10z m-20 -56 c0 -11 -5 -14 -16
-10 -9 3 -24 6 -35 6 -10 0 -19 5 -19 10 0 6 16 10 35 10 25 0 35 -4 35 -16z
m20 -54 c0 -5 -16 -10 -35 -10 -19 0 -35 5 -35 10 0 6 16 10 35 10 19 0 35 -4
35 -10z m-20 -53 c0 -9 -11 -12 -35 -9 -19 2 -35 8 -35 13 0 5 16 9 35 9 22 0
35 -5 35 -13z m18 -49 c-7 -20 -68 -23 -68 -4 0 12 10 16 36 16 24 0 34 -4 32
-12z m-20 -55 c2 -9 -8 -13 -32 -13 -26 0 -36 4 -36 16 0 19 61 16 68 -3z m22
-53 c0 -5 -9 -10 -19 -10 -11 0 -26 -3 -35 -6 -11 -4 -16 -1 -16 10 0 12 10
16 35 16 19 0 35 -4 35 -10z m-20 -55 c0 -10 -11 -15 -35 -15 -24 0 -35 5 -35
15 0 10 11 15 35 15 24 0 35 -5 35 -15z m20 -55 c0 -5 -16 -10 -35 -10 -19 0
-35 5 -35 10 0 6 16 10 35 10 19 0 35 -4 35 -10z m-20 -56 c0 -11 -5 -14 -16
-10 -9 3 -24 6 -35 6 -10 0 -19 5 -19 10 0 6 16 10 35 10 25 0 35 -4 35 -16z
m20 -54 c0 -5 -16 -10 -35 -10 -19 0 -35 5 -35 10 0 6 16 10 35 10 19 0 35 -4
35 -10z m-20 -53 c0 -9 -11 -12 -35 -9 -19 2 -35 8 -35 13 0 5 16 9 35 9 22 0
35 -5 35 -13z m15 -52 c0 -5 -15 -11 -32 -13 -25 -3 -33 1 -33 13 0 12 8 16
33 13 17 -2 32 -7 32 -13z m-15 -55 c0 -5 -16 -10 -35 -10 -19 0 -35 5 -35 10
0 6 16 10 35 10 19 0 35 -4 35 -10z m20 -50 c0 -5 -6 -10 -12 -10 -7 0 -23 -3
-35 -6 -17 -5 -23 -2 -23 10 0 12 9 16 35 16 19 0 35 -4 35 -10z m-22 -57 c2
-9 -8 -13 -32 -13 -26 0 -36 4 -36 16 0 19 61 16 68 -3z m22 -53 c0 -5 -9 -10
-19 -10 -11 0 -26 -3 -35 -6 -11 -4 -16 -1 -16 10 0 12 10 16 35 16 19 0 35
-4 35 -10z m-20 -55 c0 -10 -11 -15 -35 -15 -24 0 -35 5 -35 15 0 10 11 15 35
15 24 0 35 -5 35 -15z m20 -54 c0 -5 -16 -11 -35 -13 -24 -3 -35 0 -35 9 0 8
13 13 35 13 19 0 35 -4 35 -9z m-20 -57 c0 -11 -5 -14 -16 -10 -9 3 -24 6 -35
6 -10 0 -19 5 -19 10 0 6 16 10 35 10 25 0 35 -4 35 -16z m20 -54 c0 -5 -16
-10 -35 -10 -19 0 -35 5 -35 10 0 6 16 10 35 10 19 0 35 -4 35 -10z m-22 -51
c-2 -6 -7 -10 -11 -10 -4 1 -18 1 -32 1 -14 0 -25 5 -25 10 0 6 16 10 36 10
21 0 34 -4 32 -11z m15 -54 c1 -5 -13 -11 -30 -13 -31 -3 -42 6 -26 22 10 10
53 3 56 -9z m-13 -55 c0 -5 -16 -10 -35 -10 -19 0 -35 5 -35 10 0 6 16 10 35
10 19 0 35 -4 35 -10z m15 -55 c0 -5 -15 -11 -32 -13 -25 -3 -33 1 -33 13 0
12 8 16 33 13 17 -2 32 -7 32 -13z m-17 -52 c2 -9 -8 -13 -32 -13 -26 0 -36 4
-36 16 0 19 61 16 68 -3z m22 -53 c0 -5 -9 -10 -19 -10 -11 0 -26 -3 -35 -6
-11 -4 -16 -1 -16 10 0 12 10 16 35 16 19 0 35 -4 35 -10z m-22 -57 c2 -9 -8
-13 -32 -13 -26 0 -36 4 -36 16 0 19 61 16 68 -3z m22 -52 c0 -5 -16 -11 -35
-13 -24 -3 -35 0 -35 9 0 8 13 13 35 13 19 0 35 -4 35 -9z m-22 -52 c-2 -6 -7
-10 -11 -10 -4 1 -18 1 -32 1 -14 0 -25 5 -25 10 0 6 16 10 36 10 21 0 34 -4
32 -11z m8 -49 c9 0 12 -4 9 -10 -7 -12 -65 -14 -65 -2 0 15 13 23 28 17 7 -3
20 -5 28 -5z m-6 -60 c0 -5 -16 -10 -35 -10 -19 0 -35 5 -35 10 0 6 16 10 35
10 19 0 35 -4 35 -10z m15 -55 c0 -5 -15 -11 -32 -13 -25 -3 -33 1 -33 13 0
12 8 16 33 13 17 -2 32 -7 32 -13z m-15 -55 c0 -5 -16 -10 -35 -10 -19 0 -35
5 -35 10 0 6 16 10 35 10 19 0 35 -4 35 -10z m-2 -107 c2 -9 -8 -13 -32 -13
-26 0 -36 4 -36 16 0 19 61 16 68 -3z m-3 -102 c3 -5 2 -12 -2 -14 -12 -8 -63
4 -63 14 0 12 57 12 65 0z m20 -60 c-16 -15 -68 -17 -72 -3 -3 8 8 12 38 12
26 0 39 -4 34 -9z m-25 -54 c0 -9 -10 -12 -30 -9 -16 2 -30 8 -30 13 0 5 14 9
30 9 18 0 30 -5 30 -13z m25 -57 c-3 -5 -22 -10 -41 -10 -19 0 -34 5 -34 10 0
6 18 10 41 10 24 0 38 -4 34 -10z m-25 -53 c0 -9 -10 -12 -30 -9 -44 6 -47 22
-6 22 23 0 36 -5 36 -13z m25 -52 c0 -5 -17 -11 -37 -13 -36 -3 -47 5 -31 22
11 10 68 3 68 -9z m-25 -55 c0 -5 -13 -10 -29 -10 -17 0 -33 5 -36 10 -4 6 8
10 29 10 20 0 36 -4 36 -10z m24 -49 c3 -5 -11 -11 -31 -14 -40 -7 -49 -4 -38
12 7 13 62 15 69 2z m-24 -56 c0 -16 -55 -22 -64 -6 -8 13 5 21 36 21 18 0 28
-5 28 -15z m25 -55 c4 -6 -7 -10 -24 -10 -17 0 -34 0 -38 -1 -4 0 -9 4 -11 10
-5 14 65 15 73 1z m-25 -55 c0 -16 -55 -22 -64 -6 -8 13 5 21 36 21 18 0 28
-5 28 -15z m20 -55 c0 -5 -11 -10 -25 -10 -14 0 -28 0 -32 -1 -4 0 -9 4 -11
10 -2 7 11 11 32 11 20 0 36 -4 36 -10z m-20 -56 c0 -11 -5 -14 -16 -10 -9 3
-24 6 -35 6 -10 0 -19 5 -19 10 0 6 16 10 35 10 25 0 35 -4 35 -16z m20 -54
c0 -5 -16 -10 -35 -10 -19 0 -35 5 -35 10 0 6 16 10 35 10 19 0 35 -4 35 -10z
m-20 -53 c0 -9 -11 -12 -35 -9 -19 2 -35 8 -35 13 0 5 16 9 35 9 22 0 35 -5
35 -13z m20 -52 c0 -10 -11 -15 -35 -15 -33 0 -43 8 -28 23 13 14 63 7 63 -8z
m-20 -58 c0 -9 -11 -12 -35 -9 -19 2 -35 8 -35 13 0 5 16 9 35 9 22 0 35 -5
35 -13z m20 -52 c0 -10 -11 -15 -35 -15 -33 0 -43 8 -28 23 13 14 63 7 63 -8z
m-20 -50 c0 -10 -11 -15 -35 -15 -33 0 -43 8 -28 23 13 14 63 7 63 -8z m20
-55 c0 -5 -9 -10 -19 -10 -11 0 -26 -3 -35 -6 -11 -4 -16 -1 -16 10 0 12 10
16 35 16 19 0 35 -4 35 -10z m-20 -56 c0 -11 -8 -14 -32 -12 -46 4 -49 28 -4
28 26 0 36 -4 36 -16z m20 -54 c0 -5 -11 -10 -25 -10 -14 0 -28 0 -32 -1 -4 0
-9 4 -11 10 -2 7 11 11 32 11 20 0 36 -4 36 -10z m-20 -56 c0 -11 -5 -14 -16
-10 -9 3 -24 6 -35 6 -10 0 -19 5 -19 10 0 6 16 10 35 10 25 0 35 -4 35 -16z
m20 -54 c0 -5 -16 -10 -35 -10 -19 0 -35 5 -35 10 0 6 16 10 35 10 19 0 35 -4
35 -10z m-20 -53 c0 -9 -11 -12 -35 -9 -19 2 -35 8 -35 13 0 5 16 9 35 9 22 0
35 -5 35 -13z m18 -54 c2 -9 -8 -13 -32 -13 -34 0 -44 8 -29 24 11 11 56 2 61
-11z m-18 -56 c0 -9 -11 -12 -35 -9 -19 2 -35 8 -35 13 0 5 16 9 35 9 22 0 35
-5 35 -13z"/>
</g>
</svg>
