<?xml version="1.0" standalone="no"?>
<!DOCTYPE svg PUBLIC "-//W3C//DTD SVG 20010904//EN"
 "http://www.w3.org/TR/2001/REC-SVG-20010904/DTD/svg10.dtd">
<svg version="1.0" xmlns="http://www.w3.org/2000/svg"
 width="2360.000000pt" height="1640.000000pt" viewBox="0 0 2360.000000 1640.000000"
 preserveAspectRatio="xMidYMid meet">
<metadata>
Created by potrace 1.16, written by Peter Selinger 2001-2019
</metadata>
<g transform="translate(0.000000,1640.000000) scale(0.100000,-0.100000)"
fill="#000000" stroke="none">
<path d="M11655 15454 c-189 -45 -347 -117 -536 -242 -197 -131 -324 -236
-510 -421 -350 -351 -613 -755 -893 -1373 -104 -231 -217 -548 -251 -706 -4
-18 -13 -36 -20 -39 -8 -2 -11 -12 -8 -21 5 -12 2 -14 -11 -9 -38 15 40 -95
186 -265 249 -287 300 -341 310 -326 11 17 41 -20 35 -44 -3 -11 35 -62 112
-149 78 -90 117 -127 119 -116 5 25 12 22 70 -33 29 -28 56 -50 60 -50 4 0 57
-51 118 -113 62 -61 171 -163 243 -226 72 -62 144 -126 158 -142 15 -15 31
-25 36 -22 6 3 7 1 4 -4 -9 -14 19 -37 34 -27 8 4 9 3 5 -4 -4 -7 -2 -13 3
-13 6 -1 15 -2 20 -3 5 0 13 -5 18 -10 5 -5 2 -6 -7 -2 -8 4 -6 1 4 -8 10 -8
22 -13 27 -11 4 3 11 0 15 -6 5 -8 2 -10 -7 -5 -8 4 -5 1 5 -8 10 -8 23 -13
29 -9 6 3 7 1 3 -5 -4 -7 -2 -13 3 -13 20 -3 26 -5 77 -31 27 -15 88 -57 135
-93 46 -37 94 -72 107 -78 21 -10 26 -19 23 -44 -1 -7 2 -13 8 -13 5 0 18 -3
28 -7 14 -5 16 -4 8 8 -5 8 -3 7 7 -3 9 -10 21 -18 26 -18 5 0 13 -7 16 -16 3
-8 10 -12 16 -9 5 3 10 1 10 -4 0 -6 6 -11 14 -11 8 0 17 -7 20 -16 3 -8 11
-12 17 -8 8 4 9 3 5 -4 -9 -14 39 -46 55 -36 7 4 9 3 6 -3 -7 -12 37 -38 50
-30 6 4 25 -9 43 -28 19 -19 39 -35 46 -35 7 0 14 -6 16 -12 6 -18 68 -19 75
-2 3 8 11 14 17 14 7 0 27 16 46 35 18 19 37 32 43 28 13 -8 57 18 50 30 -3 6
-1 7 6 3 16 -10 64 22 55 36 -4 7 -3 8 5 4 6 -4 14 0 17 8 3 9 12 16 20 16 8
0 14 5 14 11 0 5 5 7 10 4 6 -3 13 1 16 9 3 9 11 16 16 16 6 0 17 8 25 18 8 9
11 11 7 3 -5 -10 -1 -11 17 -6 31 10 37 17 21 22 -12 4 21 31 202 166 28 20
66 43 84 49 17 7 32 16 32 20 0 4 3 7 8 7 21 -4 32 2 26 14 -4 6 -4 9 1 5 11
-11 47 11 39 24 -4 6 -3 8 3 5 6 -4 19 1 29 9 10 9 12 12 4 8 -9 -4 -12 -3 -7
2 5 5 13 10 18 10 5 1 14 2 20 3 5 0 7 6 3 13 -4 7 -3 8 5 4 15 -10 43 13 34
27 -3 5 -2 7 4 4 5 -3 21 7 36 22 14 16 86 80 159 142 72 63 157 139 187 170
31 30 47 45 37 32 -11 -13 -15 -23 -8 -23 28 0 7 -31 -65 -96 -43 -38 -119
-109 -171 -157 -51 -48 -111 -99 -133 -113 -25 -15 -39 -31 -37 -42 2 -9 -3
-17 -9 -18 -7 -1 -18 -2 -24 -3 -5 0 -8 -5 -4 -10 3 -5 0 -13 -6 -17 -8 -5 -9
-3 -4 6 6 9 2 10 -16 5 -29 -9 -159 -105 -159 -118 0 -4 6 -5 13 -1 7 4 8 3 4
-2 -5 -5 -16 -9 -25 -9 -9 0 -16 -6 -14 -13 1 -8 -2 -11 -8 -7 -5 3 -13 0 -16
-9 -3 -8 -12 -12 -20 -9 -18 7 -56 -26 -47 -40 3 -6 1 -7 -6 -3 -15 10 -43
-13 -34 -27 3 -6 1 -7 -5 -3 -6 3 -14 1 -19 -6 -16 -26 -80 -67 -89 -58 -11
11 -65 -24 -84 -53 -9 -15 -9 -18 2 -12 7 5 3 -2 -10 -14 -12 -12 -27 -19 -32
-16 -6 4 -9 1 -8 -5 3 -14 -67 -69 -134 -105 -42 -22 -47 -23 -50 -7 -3 13
-10 8 -28 -20 -14 -21 -33 -38 -42 -38 -26 0 -48 -11 -42 -21 3 -5 -4 -9 -16
-9 -12 0 -19 4 -16 9 7 10 -16 21 -44 21 -10 0 -21 8 -25 19 -3 10 -14 26 -25
36 -18 17 -20 17 -20 1 0 -14 -7 -13 -47 9 -68 36 -138 91 -135 105 1 6 -1 9
-6 7 -4 -3 -19 4 -32 15 -14 11 -19 17 -12 13 25 -13 -8 29 -41 53 -19 13 -35
18 -41 12 -9 -9 -73 32 -89 58 -5 7 -13 9 -19 6 -6 -4 -8 -3 -5 3 9 14 -19 37
-34 27 -7 -4 -9 -3 -6 3 8 13 -28 46 -45 41 -7 -3 -21 6 -32 19 -10 13 -24 22
-32 19 -7 -3 -16 0 -20 6 -4 7 -3 8 4 4 7 -4 12 -3 12 1 0 13 -130 109 -159
118 -18 5 -22 4 -16 -5 5 -9 4 -11 -4 -6 -6 4 -9 12 -6 17 4 5 1 10 -4 10 -6
1 -17 2 -23 3 -7 1 -12 9 -10 18 2 11 -12 27 -37 42 -22 14 -82 65 -133 113
-52 48 -128 119 -171 157 -72 65 -93 96 -65 96 6 0 -1 14 -17 30 -21 22 -31
27 -36 18 -6 -9 -26 7 -67 50 -32 34 -62 62 -66 62 -5 0 -27 14 -50 32 -22 18
-33 23 -24 12 17 -20 15 -21 -88 -68 -58 -26 -118 -49 -133 -51 -93 -12 -341
-100 -691 -247 -388 -162 -555 -257 -810 -462 -69 -56 -160 -126 -202 -156
-43 -30 -76 -60 -74 -66 3 -7 -15 -52 -39 -100 -133 -275 -310 -703 -421
-1022 -203 -584 -318 -984 -544 -1900 -158 -637 -183 -730 -395 -1473 -94
-329 -151 -546 -148 -561 3 -15 -6 -66 -20 -115 -14 -48 -28 -105 -32 -125 -3
-23 -14 -42 -25 -48 -13 -7 -20 -21 -20 -38 0 -16 -4 -32 -9 -38 -17 -17 -49
-152 -40 -161 6 -6 6 -27 0 -54 -5 -24 -9 -58 -9 -74 2 -64 -24 -98 -41 -52
-8 21 -9 20 -15 -10 -4 -17 -9 -50 -11 -74 -3 -23 -14 -60 -25 -82 -13 -24
-17 -43 -12 -51 14 -17 21 -66 9 -66 -5 0 -7 -9 -4 -20 3 -11 2 -20 -1 -20
-13 0 -44 -91 -40 -115 3 -13 2 -22 -2 -20 -11 7 -32 -74 -25 -98 4 -15 3 -18
-3 -9 -7 11 -10 10 -14 -5 -3 -10 -18 -58 -32 -108 -15 -49 -29 -119 -32 -155
-3 -36 -7 -81 -9 -100 -4 -41 -61 -256 -72 -273 -4 -7 -8 -14 -9 -17 0 -3 -5
-14 -9 -24 -6 -13 -5 -21 3 -24 16 -5 15 -33 -3 -56 -8 -11 -15 -28 -15 -38 0
-10 -5 -18 -11 -18 -7 0 -9 -10 -5 -24 3 -14 1 -28 -5 -32 -6 -3 -9 -15 -6
-25 3 -10 1 -22 -5 -25 -5 -3 -8 -15 -5 -25 3 -10 1 -22 -4 -25 -5 -3 -9 -17
-9 -32 1 -15 -1 -38 -4 -52 -3 -14 -7 -40 -10 -58 -3 -17 -9 -47 -12 -65 -3
-17 -7 -42 -8 -54 0 -11 -4 -19 -7 -17 -4 2 -9 -5 -12 -16 -3 -10 0 -21 7 -23
8 -3 8 -13 -2 -39 -7 -20 -9 -43 -5 -53 4 -11 3 -16 -4 -12 -17 10 -39 -131
-25 -154 8 -13 9 -26 3 -37 -5 -9 -14 -51 -21 -92 -18 -114 -20 -121 -30 -115
-6 4 -10 -10 -9 -32 0 -30 2 -34 9 -18 8 19 9 18 11 -5 2 -14 4 -56 4 -95 3
-162 23 -308 55 -400 32 -89 57 -145 65 -145 2 0 10 7 18 15 13 12 20 12 53 0
26 -9 142 -19 334 -29 541 -29 853 -94 1130 -237 88 -45 108 -47 162 -16 51
28 168 171 161 197 -3 10 0 21 6 24 6 4 11 20 11 37 0 19 9 37 26 52 32 27 71
93 76 127 2 14 6 27 9 30 3 3 23 40 44 82 21 43 41 75 45 73 15 -10 35 29 35
69 0 29 11 58 38 102 20 34 37 67 37 74 0 7 29 60 64 119 35 58 74 126 86 151
13 25 27 48 32 51 5 3 9 9 9 13 -1 3 14 40 33 80 51 112 125 214 144 202 4 -3
14 5 21 17 11 18 11 20 0 10 -25 -24 -29 -13 -28 82 0 52 -2 98 -5 103 -17 28
2 519 21 542 2 2 8 -2 13 -10 13 -20 11 -122 -4 -265 -7 -66 -9 -125 -5 -130
4 -6 9 -74 11 -153 2 -78 6 -142 11 -142 4 0 7 -7 7 -16 0 -8 5 -12 10 -9 15
9 25 -24 11 -38 -6 -6 -11 -13 -11 -16 0 -4 1395 -6 3100 -6 1705 0 3100 2
3100 6 0 3 -5 10 -11 16 -14 14 -4 47 11 38 5 -3 10 1 10 9 0 9 3 16 8 16 4 0
8 64 10 142 2 79 7 147 11 153 4 5 2 64 -5 130 -15 143 -17 245 -4 265 5 8 11
12 13 10 19 -23 38 -514 21 -542 -3 -5 -5 -51 -5 -103 1 -95 -3 -106 -28 -83
-11 11 -11 9 0 -9 7 -12 17 -20 21 -17 9 6 34 -18 70 -66 32 -45 121 -220 111
-220 -5 0 -3 -4 3 -8 6 -4 21 -27 34 -52 12 -25 51 -93 86 -151 35 -59 64
-112 64 -119 0 -7 17 -40 37 -74 27 -44 38 -73 38 -102 0 -39 20 -79 34 -69 4
2 23 -26 41 -63 19 -37 38 -73 44 -81 6 -7 12 -25 14 -40 4 -34 43 -100 76
-128 17 -15 26 -33 26 -52 0 -17 5 -33 10 -36 6 -4 10 -15 8 -25 -4 -25 69
-123 85 -114 7 4 9 4 5 -1 -21 -23 81 -105 131 -105 14 0 59 17 101 39 277
143 589 208 1130 237 192 10 308 20 334 29 33 12 40 12 53 0 8 -8 16 -15 18
-15 8 0 33 56 65 145 32 92 52 238 55 400 2 103 3 113 15 95 7 -11 10 -5 10
23 0 21 -4 36 -9 32 -12 -7 -17 13 -26 90 -4 33 -13 77 -20 99 -10 29 -11 43
-2 56 13 22 -10 163 -26 153 -6 -4 -7 -1 -2 7 4 6 1 30 -6 53 -10 29 -10 42
-2 44 6 2 9 13 6 23 -3 11 -8 18 -12 16 -3 -2 -7 6 -7 17 -1 12 -5 37 -8 54
-3 18 -9 48 -12 65 -3 18 -7 44 -9 58 -3 14 -7 46 -9 73 -2 26 -9 53 -15 61
-6 7 -8 16 -5 19 4 3 3 14 -1 24 -4 10 -7 28 -6 41 1 12 -3 22 -9 22 -7 0 -10
6 -7 13 3 7 -4 24 -14 38 -21 27 -25 55 -7 61 8 3 9 11 3 24 -4 10 -9 21 -9
24 -1 3 -5 10 -9 17 -17 27 -69 243 -73 303 -6 96 -20 162 -65 311 -26 87 -38
145 -35 164 3 17 1 37 -4 45 -8 11 -9 7 -5 -15 4 -21 -1 -15 -17 20 -12 28
-25 51 -29 53 -4 2 -5 12 -2 22 3 11 1 20 -4 20 -12 0 -5 49 9 66 5 8 1 26
-11 50 -11 22 -22 62 -26 89 -7 62 -23 121 -24 88 -1 -27 -20 -40 -32 -22 -5
8 -9 32 -9 54 0 22 -5 60 -11 84 -6 27 -6 48 0 54 9 9 -23 144 -40 161 -5 6
-9 22 -9 38 0 17 -7 31 -20 38 -11 6 -22 25 -25 48 -4 20 -18 77 -32 125 -14
49 -23 100 -20 115 3 16 -50 217 -138 526 -206 722 -260 921 -415 1549 -183
743 -245 970 -397 1447 -166 525 -368 1043 -559 1433 -23 49 -41 94 -38 100 2
7 -31 37 -74 67 -42 30 -133 100 -202 156 -255 205 -422 300 -810 462 -350
147 -598 235 -691 247 -15 2 -75 25 -133 51 l-105 48 39 45 c21 25 81 95 133
154 62 70 93 114 90 125 -6 23 24 61 35 45 9 -15 45 21 203 202 206 235 258
299 284 346 21 39 23 48 9 42 -12 -4 -15 -2 -12 8 3 8 -1 19 -7 24 -6 6 -29
71 -50 145 -127 452 -414 1054 -703 1475 -138 202 -244 328 -421 505 -184 183
-311 288 -496 411 -313 208 -611 295 -830 243z m-1055 -747 c0 -2 -10 -12 -22
-23 l-23 -19 19 23 c18 21 26 27 26 19z m2425 -17 c10 -11 16 -20 13 -20 -3 0
-13 9 -23 20 -10 11 -16 20 -13 20 3 0 13 -9 23 -20z m-3082 -2017 c-7 -2 -21
-2 -30 0 -10 3 -4 5 12 5 17 0 24 -2 18 -5z m1360 0 c-7 -2 -19 -2 -25 0 -7 3
-2 5 12 5 14 0 19 -2 13 -5z m125 0 c-21 -2 -55 -2 -75 0 -21 2 -4 4 37 4 41
0 58 -2 38 -4z m860 0 c-26 -2 -71 -2 -100 0 -29 2 -8 3 47 3 55 0 79 -1 53
-3z m425 0 c-7 -2 -21 -2 -30 0 -10 3 -4 5 12 5 17 0 24 -2 18 -5z m975 0
c-10 -2 -26 -2 -35 0 -10 3 -2 5 17 5 19 0 27 -2 18 -5z m-1721 -9 c-3 -3 -12
-4 -19 -1 -8 3 -5 6 6 6 11 1 17 -2 13 -5z m-1130 -49 c53 -67 103 -170 95
-194 -2 -8 0 -11 5 -8 5 3 21 -17 36 -44 16 -27 25 -49 20 -49 -4 0 -2 -4 5
-9 7 -4 15 -14 16 -22 8 -37 29 -78 37 -73 5 3 6 -3 2 -12 -4 -12 -3 -15 5
-10 8 4 10 2 6 -7 -3 -8 8 -29 25 -47 16 -18 49 -78 73 -132 23 -54 46 -98 51
-98 4 0 5 -4 2 -10 -3 -5 -1 -10 5 -10 6 0 8 -4 5 -10 -3 -5 -1 -10 4 -10 6 0
10 -3 10 -7 -3 -21 2 -33 13 -27 7 4 8 3 4 -4 -8 -14 18 -55 28 -45 4 4 4 0 1
-8 -3 -9 5 -27 21 -45 15 -16 27 -30 26 -31 -7 -9 0 -23 8 -18 5 3 7 0 4 -8
-2 -7 5 -25 16 -38 12 -13 18 -18 14 -10 -5 9 -3 12 5 7 6 -4 9 -12 6 -17 -7
-11 19 -52 27 -43 3 3 5 -3 5 -13 -1 -10 4 -17 11 -15 8 1 11 -2 7 -8 -9 -14
33 -80 51 -80 9 0 13 -4 9 -9 -3 -6 1 -13 9 -18 14 -8 132 -162 152 -198 23
-44 39 -65 48 -65 5 0 1 10 -10 23 l-19 22 22 -19 c13 -10 20 -22 18 -26 -8
-13 33 -43 47 -34 18 12 61 13 76 1 13 -10 56 19 47 33 -2 4 5 16 18 26 l22
19 -19 -22 c-11 -13 -15 -23 -10 -23 9 0 25 22 48 65 19 34 130 179 149 193 9
7 15 18 12 23 -4 5 0 9 9 9 18 0 60 66 51 80 -4 6 -1 9 7 8 7 -2 12 5 12 15
-1 10 1 16 4 13 9 -10 34 33 26 46 -4 7 -3 8 4 4 14 -9 46 39 36 55 -4 7 -3 9
4 5 11 -6 28 30 23 49 -1 5 1 7 5 3 11 -11 36 30 28 45 -4 6 -4 9 1 5 11 -11
38 29 29 44 -4 6 -3 8 4 4 10 -6 28 30 24 47 -1 4 3 7 9 7 5 0 7 5 4 10 -3 6
-2 10 3 10 5 0 28 44 51 98 23 54 55 113 72 131 17 19 28 40 25 48 -4 9 -2 11
6 7 8 -5 9 -2 5 10 -4 9 -3 15 2 12 7 -5 34 50 31 62 -4 11 76 140 83 135 5
-3 7 0 5 8 -8 23 60 162 93 189 3 3 12 16 19 29 12 24 13 24 29 5 11 -13 28
-19 54 -18 l37 1 -35 -4 c-19 -2 -35 -9 -35 -16 0 -23 -121 -254 -159 -304
-22 -28 -37 -54 -34 -57 4 -3 1 -6 -6 -6 -7 0 -9 -4 -6 -10 3 -5 1 -10 -5 -10
-6 0 -8 -4 -5 -10 3 -5 2 -10 -4 -10 -6 0 -15 -10 -22 -21 -8 -16 -8 -19 0
-15 23 14 -195 -398 -219 -414 -4 -3 -10 -15 -14 -26 -8 -27 -154 -256 -196
-309 -18 -22 -38 -51 -44 -65 -11 -27 -26 -41 -36 -35 -3 2 -12 -5 -19 -17
-10 -16 -10 -19 1 -13 7 3 4 -1 -7 -10 -11 -9 -20 -20 -20 -25 0 -6 -4 -10
-10 -11 -18 -1 -36 -22 -31 -35 6 -14 -17 -37 -28 -27 -9 10 -96 -78 -89 -90
3 -6 1 -7 -5 -3 -6 3 -12 -1 -14 -10 -3 -14 -7 -13 -30 6 l-28 21 -27 -21
c-24 -19 -28 -20 -31 -6 -2 9 -8 13 -14 10 -6 -4 -8 -3 -5 3 7 12 -80 100 -89
90 -11 -10 -33 13 -28 28 5 13 -12 30 -31 30 -5 0 -10 5 -10 12 0 7 -9 19 -20
28 -11 9 -14 13 -7 10 11 -6 11 -3 1 13 -7 11 -18 18 -25 15 -8 -3 -19 9 -27
29 -8 18 -29 51 -46 73 -43 52 -189 282 -197 309 -4 11 -10 23 -14 26 -24 16
-242 429 -220 415 9 -6 9 -2 1 14 -7 11 -16 21 -22 21 -6 0 -7 5 -4 10 3 6 1
10 -5 10 -6 0 -8 5 -5 10 3 6 1 10 -5 10 -6 0 -9 4 -6 9 4 5 2 11 -2 13 -27
11 -192 309 -192 346 0 6 -15 13 -32 15 -29 3 -28 4 5 3 28 0 42 5 49 18 11
19 11 19 24 0 7 -10 17 -23 21 -29z m973 15 c0 -5 -4 -10 -10 -10 -5 0 -10 5
-10 10 0 6 5 10 10 10 6 0 10 -4 10 -10z m-2177 -7 c-7 -2 -21 -2 -30 0 -10 3
-4 5 12 5 17 0 24 -2 18 -5z m615 0 c-27 -2 -69 -2 -95 0 -27 2 -5 3 47 3 52
0 74 -1 48 -3z m3200 0 c-27 -2 -69 -2 -95 0 -27 2 -5 3 47 3 52 0 74 -1 48
-3z m489 1 c-3 -3 -12 -4 -19 -1 -8 3 -5 6 6 6 11 1 17 -2 13 -5z m66 -1 c-7
-2 -21 -2 -30 0 -10 3 -4 5 12 5 17 0 24 -2 18 -5z m-2406 -9 c-3 -3 -12 -4
-19 -1 -8 3 -5 6 6 6 11 1 17 -2 13 -5z m430 0 c-3 -3 -12 -4 -19 -1 -8 3 -5
6 6 6 11 1 17 -2 13 -5z m-2456 -91 c13 -16 12 -17 -3 -4 -17 13 -22 21 -14
21 2 0 10 -8 17 -17z m70 -80 c13 -16 12 -17 -3 -4 -10 7 -18 15 -18 17 0 8 8
3 21 -13z m4339 13 c0 -2 -8 -10 -17 -17 -16 -13 -17 -12 -4 4 13 16 21 21 21
13z m-4279 -83 c13 -16 12 -17 -3 -4 -17 13 -22 21 -14 21 2 0 10 -8 17 -17z
m4219 13 c0 -2 -8 -10 -17 -17 -16 -13 -17 -12 -4 4 13 16 21 21 21 13z
m-4089 -163 c13 -16 12 -17 -3 -4 -17 13 -22 21 -14 21 2 0 10 -8 17 -17z
m3959 13 c0 -2 -8 -10 -17 -17 -16 -13 -17 -12 -4 4 13 16 21 21 21 13z
m-3889 -93 c13 -16 12 -17 -3 -4 -10 7 -18 15 -18 17 0 8 8 3 21 -13z m3819
13 c0 -2 -8 -10 -17 -17 -16 -13 -17 -12 -4 4 13 16 21 21 21 13z m-3669 -183
c13 -16 12 -17 -3 -4 -17 13 -22 21 -14 21 2 0 10 -8 17 -17z m3519 13 c0 -2
-8 -10 -17 -17 -16 -13 -17 -12 -4 4 13 16 21 21 21 13z m-3410 -154 c0 -7 4
-11 9 -8 5 3 15 -2 22 -12 13 -15 12 -16 -3 -4 -14 11 -17 10 -23 -7 -10 -32
-21 -25 -55 35 -25 45 -29 59 -18 65 14 10 68 -44 68 -69z m3358 59 c-26 -55
-60 -111 -67 -111 -6 0 -13 9 -16 21 -6 17 -9 18 -23 7 -15 -12 -16 -11 -3 4
7 10 17 15 22 12 5 -3 9 0 9 7 0 23 50 78 66 72 8 -3 14 -8 12 -12z m-108
-150 c0 -18 -67 -81 -86 -81 -5 0 -35 -28 -67 -62 -43 -47 -60 -59 -66 -49 -6
9 6 29 37 62 25 27 49 49 53 49 5 0 32 22 61 50 58 55 68 59 68 31z m-3139
-18 c13 -16 12 -17 -3 -4 -17 13 -22 21 -14 21 2 0 10 -8 17 -17z m3079 13 c0
-2 -8 -10 -17 -17 -16 -13 -17 -12 -4 4 13 16 21 21 21 13z m-3000 -183 c0 -8
-9 0 -50 45 l-45 47 48 -45 c26 -24 47 -45 47 -47z m2990 84 c0 -2 -17 -19
-37 -38 l-38 -34 34 38 c33 34 41 42 41 34z m-2780 -292 c13 -14 21 -25 18
-25 -2 0 -15 11 -28 25 -13 14 -21 25 -18 25 2 0 15 -11 28 -25z m2500 12 c0
-2 -10 -12 -22 -23 l-23 -19 19 23 c18 21 26 27 26 19z m-2395 -107 c10 -11
16 -20 13 -20 -3 0 -13 9 -23 20 -10 11 -16 20 -13 20 3 0 13 -9 23 -20z
m2295 17 c0 -2 -10 -12 -22 -23 l-23 -19 19 23 c18 21 26 27 26 19z m-2169
-124 c13 -16 12 -17 -3 -4 -17 13 -22 21 -14 21 2 0 10 -8 17 -17z m-2507
-505 c-6 -9 -34 1 -34 12 0 5 6 10 13 13 13 4 28 -13 21 -25z m7066 12 c0 -10
-26 -20 -33 -13 -3 3 -3 11 0 18 5 14 33 9 33 -5z m-7002 -145 c-2 -5 -8 -10
-15 -11 -6 -1 -9 4 -6 12 6 16 27 15 21 -1z m6925 1 c5 -12 -2 -14 -31 -7 -2
1 0 6 3 11 9 14 22 12 28 -4z m-6783 -283 c0 -13 5 -23 10 -23 6 0 9 -3 8 -7
-4 -19 15 -82 23 -77 5 3 6 -2 3 -10 -4 -10 -1 -16 7 -16 7 0 10 -3 6 -6 -3
-3 6 -27 19 -52 14 -26 26 -58 28 -72 6 -41 25 -120 51 -205 24 -78 43 -263
24 -234 -6 11 -9 8 -9 -9 0 -15 4 -21 11 -16 9 5 10 -9 5 -52 -8 -71 -7 -67
-2 -126 4 -31 1 -48 -6 -48 -8 0 -8 -25 -3 -87 5 -49 9 -308 10 -578 1 -269 3
-592 5 -717 1 -125 -2 -233 -6 -240 -4 -6 -6 -89 -4 -182 4 -192 4 -196 -2
-321 -3 -49 -2 -141 1 -203 3 -63 3 -116 0 -118 -11 -6 -9 -324 2 -324 11 0 5
-723 -6 -740 -3 -6 -4 -18 -1 -28 3 -9 6 -55 7 -102 1 -47 5 -92 9 -100 4 -8
4 -132 0 -275 -5 -175 -4 -268 3 -283 8 -18 8 -25 -2 -31 -10 -7 -12 -30 -7
-97 3 -49 6 -100 6 -114 -1 -14 -2 -151 -4 -305 -5 -451 -8 -585 -16 -585 -4
0 -11 -11 -14 -25 -4 -14 -11 -25 -17 -25 -12 0 -9 187 3 206 4 6 2 57 -3 113
-6 57 -8 133 -5 169 9 99 7 154 -6 169 -8 10 -9 51 -4 141 10 175 10 194 7
917 -1 352 -7 697 -13 768 -8 98 -8 130 2 142 8 10 11 57 9 162 -5 272 -5 294
8 305 8 6 11 22 7 42 -5 24 -6 211 -3 406 0 8 -4 34 -9 57 -5 23 -6 46 -3 52
4 6 8 86 9 178 2 92 7 172 12 178 4 5 7 37 5 70 -16 312 -28 1788 -14 1779 5
-3 9 2 9 10 0 8 -6 19 -14 23 -8 4 -16 20 -18 35 -2 15 -7 30 -11 34 -4 4 -4
18 0 32 4 18 3 23 -6 18 -9 -6 -10 0 -5 20 5 18 3 25 -4 20 -6 -4 -8 2 -5 14
3 11 0 20 -6 20 -5 0 -8 7 -5 15 4 8 1 15 -7 15 -7 0 -10 3 -7 6 4 3 0 21 -8
40 -8 19 -12 39 -9 44 3 4 0 10 -7 12 -7 3 -13 18 -14 34 -1 16 -3 30 -3 32
-1 1 -2 5 -2 10 -1 4 -7 15 -14 26 -8 10 -11 25 -8 32 3 8 1 14 -5 14 -5 0
-10 6 -9 13 1 29 -4 48 -10 44 -10 -7 -14 41 -6 73 l6 25 13 -30 c7 -16 13
-40 14 -52z m6658 14 c-2 -19 -6 -33 -10 -30 -7 4 -12 -15 -11 -44 1 -7 -4
-13 -9 -13 -6 0 -8 -6 -5 -14 3 -7 -1 -23 -9 -35 -8 -11 -12 -21 -9 -21 3 0 3
-5 -1 -12 -4 -7 -8 -23 -9 -37 0 -13 -6 -26 -13 -29 -7 -2 -10 -8 -7 -12 3 -5
-1 -25 -9 -44 -8 -19 -12 -37 -8 -40 3 -3 0 -6 -7 -6 -8 0 -11 -7 -7 -15 3 -8
0 -15 -5 -15 -6 0 -9 -9 -6 -20 3 -12 1 -18 -5 -14 -7 5 -9 -2 -4 -20 5 -20 4
-26 -5 -20 -9 5 -10 0 -6 -18 4 -14 4 -28 0 -32 -4 -4 -9 -19 -11 -34 -2 -15
-10 -31 -18 -35 -8 -4 -14 -15 -14 -23 0 -8 4 -13 9 -10 14 9 2 -1467 -14
-1779 -2 -33 1 -65 5 -70 5 -6 10 -86 12 -178 1 -92 5 -172 9 -178 3 -6 2 -29
-3 -52 -5 -23 -9 -49 -9 -57 2 -138 0 -382 -3 -405 -3 -16 1 -37 7 -45 13 -15
13 -35 8 -303 -2 -105 0 -152 9 -162 10 -12 10 -44 2 -142 -6 -71 -12 -416
-13 -768 -3 -723 -3 -742 7 -917 5 -90 4 -131 -4 -141 -13 -15 -15 -70 -6
-170 3 -37 1 -113 -5 -168 -6 -56 -8 -106 -4 -112 12 -19 16 -197 4 -197 -5 0
-13 9 -16 20 -3 11 -10 20 -14 20 -9 0 -12 130 -17 585 -4 350 -4 314 2 419 4
66 2 91 -7 97 -10 6 -10 14 -2 31 7 15 8 108 3 283 -4 143 -4 267 0 275 4 8 8
53 9 100 1 47 4 93 7 102 3 10 2 22 -1 28 -11 17 -17 740 -6 740 11 0 13 318
2 324 -3 2 -3 55 0 118 3 62 4 154 1 203 -6 130 -6 124 -2 315 3 96 1 181 -4
188 -4 7 -7 115 -6 240 2 125 4 448 5 717 1 270 5 529 10 578 5 62 5 87 -3 87
-7 0 -10 17 -6 48 6 62 6 59 -2 125 -4 39 -3 57 5 57 6 0 11 8 11 18 0 14 -2
14 -9 3 -19 -29 0 156 24 234 26 85 45 164 51 205 2 14 14 46 28 72 13 25 22
49 19 52 -4 3 -1 6 6 6 8 0 11 6 7 16 -3 8 -2 13 3 10 8 -5 27 58 23 77 -1 4
2 7 7 7 5 0 11 19 15 42 4 22 9 45 13 51 10 16 23 -19 21 -56z m-6441 -5199
c-3 -8 -6 -5 -6 6 -1 11 2 17 5 13 3 -3 4 -12 1 -19z m6190 0 c-3 -8 -6 -5 -6
6 -1 11 2 17 5 13 3 -3 4 -12 1 -19z m-8890 -2400 c-3 -8 -6 -5 -6 6 -1 11 2
17 5 13 3 -3 4 -12 1 -19z m11590 0 c-3 -8 -6 -5 -6 6 -1 11 2 17 5 13 3 -3 4
-12 1 -19z m-11600 -210 c-2 -13 -4 -3 -4 22 0 25 2 35 4 23 2 -13 2 -33 0
-45z m250 -544 c-3 -3 -12 -4 -19 -1 -8 3 -5 6 6 6 11 1 17 -2 13 -5z m11130
0 c-3 -3 -12 -4 -19 -1 -8 3 -5 6 6 6 11 1 17 -2 13 -5z m-10954 -11 c-7 -2
-19 -2 -25 0 -7 3 -2 5 12 5 14 0 19 -2 13 -5z m10780 0 c-7 -2 -19 -2 -25 0
-7 3 -2 5 12 5 14 0 19 -2 13 -5z m-10590 -10 c-7 -2 -19 -2 -25 0 -7 3 -2 5
12 5 14 0 19 -2 13 -5z m10394 1 c-3 -3 -12 -4 -19 -1 -8 3 -5 6 6 6 11 1 17
-2 13 -5z m-10230 -10 c-3 -3 -12 -4 -19 -1 -8 3 -5 6 6 6 11 1 17 -2 13 -5z
m10070 0 c-3 -3 -12 -4 -19 -1 -8 3 -5 6 6 6 11 1 17 -2 13 -5z M8633 5160 c0
-41 2 -58 4 -37 2 20 2 54 0 75 -2 20 -4 3 -4 -38z M14963 5160 c0 -41 2 -58
4 -37 2 20 2 54 0 75 -2 20 -4 3 -4 -38z M6346 4505 c-3 -9 -6 -22 -5 -28 0
-7 5 -1 10 12 5 13 8 26 5 28 -2 2 -6 -3 -10 -12z M5997 2973 c-4 -3 -7 -16
-6 -27 0 -19 1 -19 10 3 10 24 8 36 -4 24z M17591 2973 c0 -4 4 -17 9 -28 8
-19 9 -19 9 2 1 12 -3 25 -9 28 -5 3 -10 3 -9 -2z M8295 2375 c-20 -30 -42
-55 -47 -55 -6 0 -5 -7 2 -15 7 -8 8 -15 3 -15 -5 0 -10 -7 -10 -15 0 -9 4
-12 8 -8 11 12 91 163 87 163 -3 0 -22 -25 -43 -55z M15310 2335 c31 -57 64
-104 43 -60 -6 11 -9 30 -8 42 1 13 0 21 -3 19 -2 -3 -18 10 -35 27 l-30 32
33 -60z"/>
</g>
</svg>
