<?xml version="1.0" standalone="no"?>
<!DOCTYPE svg PUBLIC "-//W3C//DTD SVG 20010904//EN"
 "http://www.w3.org/TR/2001/REC-SVG-20010904/DTD/svg10.dtd">
<svg version="1.0" xmlns="http://www.w3.org/2000/svg"
 width="2360.000000pt" height="1640.000000pt" viewBox="0 0 2360.000000 1640.000000"
 preserveAspectRatio="xMidYMid meet">
<metadata>
Created by potrace 1.16, written by Peter Selinger 2001-2019
</metadata>
<g transform="translate(0.000000,1640.000000) scale(0.100000,-0.100000)"
fill="#000000" stroke="none">
<path d="M8937 14488 c-4 -12 -4 -24 -2 -26 2 -3 645 -42 1427 -89 l1423 -83
1390 80 c765 44 1414 83 1443 86 49 5 52 7 46 27 -3 12 -7 23 -8 24 -1 1 -642
-36 -1426 -83 l-1425 -84 -1360 80 c-748 43 -1392 82 -1431 85 -68 5 -72 4
-77 -17z"/>
</g>
</svg>
