<?xml version="1.0" standalone="no"?>
<!DOCTYPE svg PUBLIC "-//W3C//DTD SVG 20010904//EN"
 "http://www.w3.org/TR/2001/REC-SVG-20010904/DTD/svg10.dtd">
<svg version="1.0" xmlns="http://www.w3.org/2000/svg"
 width="2360.000000pt" height="1640.000000pt" viewBox="0 0 2360.000000 1640.000000"
 preserveAspectRatio="xMidYMid meet">
<metadata>
Created by potrace 1.16, written by Peter Selinger 2001-2019
</metadata>
<g transform="translate(0.000000,1640.000000) scale(0.100000,-0.100000)"
fill="#000000" stroke="none">
<path d="M10105 11633 c-55 -25 -111 -46 -125 -48 -94 -12 -333 -97 -675 -240
-280 -117 -373 -162 -539 -263 -105 -63 -121 -75 -286 -207 -69 -55 -160 -125
-202 -155 -77 -53 -92 -70 -63 -70 51 0 248 -422 333 -715 92 -315 82 -92 82
-1917 0 -887 -3 -2363 -7 -3281 l-6 -1667 22 -21 22 -21 3139 0 3139 0 22 21
22 21 -6 1667 c-4 918 -7 2394 -7 3281 0 1825 -10 1602 82 1917 85 293 282
715 333 715 29 0 14 17 -62 70 -43 30 -134 100 -203 155 -165 132 -181 144
-286 207 -166 101 -259 146 -539 263 -342 143 -581 228 -675 240 -14 2 -71 24
-128 49 -112 51 -118 52 -125 33 -9 -24 7 -36 129 -90 113 -51 163 -66 244
-71 52 -4 241 -74 553 -206 392 -166 530 -246 792 -455 83 -66 169 -133 193
-149 23 -16 42 -33 42 -38 0 -5 -16 -34 -36 -65 -45 -71 -122 -234 -181 -381
-82 -209 -205 -655 -183 -664 4 -2 10 -1461 13 -3243 l6 -3240 -3139 0 -3139
0 6 3240 c3 1782 9 3241 13 3243 22 9 -101 455 -183 664 -59 147 -136 310
-181 381 -20 31 -36 60 -36 65 0 5 19 22 42 38 24 16 110 83 193 149 262 209
400 289 792 455 312 132 501 202 553 206 81 5 131 20 244 71 122 54 138 66
129 90 -8 19 -18 17 -128 -34z"/>
</g>
</svg>
