<?xml version="1.0" standalone="no"?>
<!DOCTYPE svg PUBLIC "-//W3C//DTD SVG 20010904//EN"
 "http://www.w3.org/TR/2001/REC-SVG-20010904/DTD/svg10.dtd">
<svg version="1.0" xmlns="http://www.w3.org/2000/svg"
 width="2360.000000pt" height="1640.000000pt" viewBox="0 0 2360.000000 1640.000000"
 preserveAspectRatio="xMidYMid meet">
<metadata>
Created by potrace 1.16, written by Peter Selinger 2001-2019
</metadata>
<g transform="translate(0.000000,1640.000000) scale(0.100000,-0.100000)"
fill="#000000" stroke="none">
<path d="M8227 10668 c-43 -69 -310 -545 -374 -668 -178 -343 -345 -766 -586
-1480 -350 -1039 -636 -2165 -832 -3280 -56 -319 -74 -411 -119 -600 -32 -135
-86 -456 -86 -510 0 -34 3 -41 17 -38 20 4 20 3 59 248 14 91 45 251 70 355
24 105 73 354 108 555 87 487 122 660 217 1075 219 950 391 1552 689 2415 266
771 394 1064 700 1605 86 151 149 275 160 313 10 34 17 62 15 62 -3 0 -19 -24
-38 -52z M15350 10658 c11 -38 74 -162 160 -313 306 -541 434 -834 700 -1605
298 -863 470 -1465 689 -2415 95 -415 130 -588 217 -1075 35 -201 84 -450 108
-555 25 -104 56 -264 70 -355 39 -245 39 -244 59 -248 14 -3 17 4 17 38 0 54
-54 375 -86 510 -45 189 -63 281 -119 600 -196 1115 -482 2241 -832 3280 -241
714 -408 1137 -586 1480 -115 220 -400 720 -412 720 -2 0 5 -28 15 -62z M8498
4663 c-63 -98 -186 -288 -273 -423 -87 -135 -160 -247 -162 -249 -2 -3 -31 5
-66 17 -97 34 -178 50 -372 74 -167 21 -220 23 -725 23 -300 0 -563 -4 -585
-9 l-40 -9 30 -13 c24 -11 110 -13 460 -8 434 6 581 1 870 -32 168 -19 221
-29 328 -65 l88 -30 33 32 c30 28 129 174 351 519 171 265 205 320 205 335 0
42 -37 -1 -142 -162z M14960 4825 c0 -15 34 -70 205 -335 222 -345 321 -491
351 -519 l33 -32 88 30 c107 36 160 46 328 65 289 33 436 38 870 32 350 -5
436 -3 460 8 l30 13 -40 9 c-22 5 -285 9 -585 9 -505 0 -558 -2 -725 -23 -194
-24 -275 -40 -372 -74 -35 -12 -64 -20 -66 -17 -2 2 -75 114 -162 249 -87 135
-210 325 -273 423 -105 161 -142 204 -142 162z"/>
</g>
</svg>
