<?xml version="1.0" standalone="no"?>
<!DOCTYPE svg PUBLIC "-//W3C//DTD SVG 20010904//EN"
 "http://www.w3.org/TR/2001/REC-SVG-20010904/DTD/svg10.dtd">
<svg version="1.0" xmlns="http://www.w3.org/2000/svg"
 width="2360.000000pt" height="1640.000000pt" viewBox="0 0 2360.000000 1640.000000"
 preserveAspectRatio="xMidYMid meet">
<metadata>
Created by potrace 1.16, written by Peter Selinger 2001-2019
</metadata>
<g transform="translate(0.000000,1640.000000) scale(0.100000,-0.100000)"
fill="#000000" stroke="none">
<path d="M8202 10628 c-91 -163 -333 -739 -450 -1073 -207 -590 -325 -1000
-546 -1898 -153 -617 -202 -800 -426 -1587 -87 -305 -168 -591 -180 -635 -12
-44 -102 -366 -200 -715 -98 -349 -197 -707 -219 -795 -130 -521 -231 -1174
-231 -1493 0 -102 21 -247 50 -351 25 -90 78 -229 90 -236 5 -3 15 1 23 10 13
12 20 12 53 0 26 -9 142 -19 334 -29 525 -28 821 -88 1097 -222 62 -29 123
-54 135 -54 65 0 182 123 284 298 165 284 303 539 454 843 150 300 171 349
168 384 -3 37 -16 14 -190 -335 -189 -381 -453 -862 -536 -980 -26 -36 -68
-86 -94 -113 -57 -57 -83 -60 -167 -17 -101 50 -224 98 -335 129 -107 30 -434
85 -576 96 -167 14 -557 32 -587 28 -30 -5 -31 -4 -62 75 -64 168 -83 262 -88
449 -3 98 0 229 6 305 34 374 151 991 270 1418 101 364 408 1455 553 1960 231
811 269 952 428 1595 169 679 242 947 370 1356 173 551 323 946 538 1414 50
110 85 225 69 225 -3 0 -18 -24 -35 -52z M15366 10633 c4 -27 34 -106 66 -178
215 -468 365 -863 538 -1414 128 -409 201 -677 370 -1356 159 -643 197 -784
428 -1595 145 -505 452 -1596 553 -1960 119 -427 236 -1044 270 -1418 6 -76 9
-207 6 -305 -5 -187 -24 -281 -88 -449 -31 -79 -32 -80 -62 -75 -30 4 -420
-14 -587 -28 -142 -11 -469 -66 -576 -96 -111 -31 -234 -79 -335 -129 -86 -44
-110 -41 -174 24 -29 30 -78 92 -108 138 -97 148 -356 624 -531 978 -160 322
-171 342 -174 305 -3 -35 18 -83 168 -384 151 -304 289 -559 454 -843 102
-175 219 -298 284 -298 12 0 73 25 135 54 276 134 572 194 1097 222 192 10
308 20 334 29 33 12 40 12 53 0 8 -9 18 -13 23 -10 27 17 104 264 125 405 32
203 7 521 -75 998 -78 448 -121 623 -360 1472 -98 349 -188 671 -200 715 -12
44 -93 330 -180 635 -224 787 -273 970 -426 1587 -221 898 -339 1308 -546
1898 -141 401 -453 1125 -485 1125 -2 0 -1 -21 3 -47z"/>
</g>
</svg>
