<?xml version="1.0" standalone="no"?>
<!DOCTYPE svg PUBLIC "-//W3C//DTD SVG 20010904//EN"
 "http://www.w3.org/TR/2001/REC-SVG-20010904/DTD/svg10.dtd">
<svg version="1.0" xmlns="http://www.w3.org/2000/svg"
 width="2360.000000pt" height="1640.000000pt" viewBox="0 0 2360.000000 1640.000000"
 preserveAspectRatio="xMidYMid meet">
<metadata>
Created by potrace 1.16, written by Peter Selinger 2001-2019
</metadata>
<g transform="translate(0.000000,1640.000000) scale(0.100000,-0.100000)"
fill="#000000" stroke="none">
<path d="M8238 10568 c-213 -577 -441 -1387 -637 -2263 -178 -798 -243 -1120
-455 -2270 -263 -1422 -303 -1615 -436 -2145 -117 -464 -202 -770 -415 -1503
-57 -196 -84 -305 -79 -320 8 -29 42 -65 76 -83 43 -22 412 -109 659 -154 123
-23 315 -61 426 -86 188 -42 282 -67 656 -174 133 -38 151 -41 164 -27 22 21
11 33 -44 46 -27 7 -122 34 -213 61 -321 95 -539 146 -981 229 -119 23 -312
64 -428 92 -179 43 -215 55 -241 79 -16 15 -30 37 -30 49 0 12 42 166 94 344
238 812 421 1494 515 1922 70 319 204 1018 437 2280 121 659 321 1592 474
2210 147 593 226 869 400 1400 64 194 101 324 105 368 4 37 5 67 3 67 -3 0
-25 -55 -50 -122z M15314 10625 c5 -47 39 -167 106 -370 174 -531 253 -807
400 -1400 153 -618 353 -1551 474 -2210 233 -1262 367 -1961 437 -2280 94
-428 277 -1110 515 -1922 52 -178 94 -332 94 -344 0 -12 -14 -34 -30 -49 -26
-24 -62 -36 -241 -79 -116 -28 -309 -69 -428 -92 -442 -83 -660 -134 -981
-229 -91 -27 -186 -54 -213 -61 -55 -13 -66 -25 -44 -46 13 -14 31 -11 164 27
374 107 468 132 656 174 111 25 303 63 426 86 247 45 616 132 659 154 34 18
68 54 76 83 5 15 -22 124 -79 320 -213 733 -298 1039 -415 1503 -133 530 -173
723 -436 2145 -189 1021 -207 1116 -315 1625 -264 1239 -409 1802 -671 2600
-69 212 -145 420 -155 430 -3 3 -2 -26 1 -65z M8606 2980 c-14 -47 -66 -242
-115 -435 -49 -192 -120 -453 -157 -580 -83 -287 -119 -424 -111 -431 14 -15
37 8 47 48 6 24 44 158 85 298 41 140 99 350 129 465 30 116 78 300 107 410
58 222 66 265 51 291 -8 15 -15 2 -36 -66z M14954 3035 c-8 -33 -6 -47 55
-280 29 -110 77 -294 107 -410 30 -115 88 -325 129 -465 41 -140 79 -274 85
-298 10 -40 33 -63 47 -48 8 7 -28 144 -111 431 -37 127 -108 388 -157 580
-90 350 -136 515 -144 515 -3 0 -7 -11 -11 -25z"/>
</g>
</svg>
