<?xml version="1.0" standalone="no"?>
<!DOCTYPE svg PUBLIC "-//W3C//DTD SVG 20010904//EN"
 "http://www.w3.org/TR/2001/REC-SVG-20010904/DTD/svg10.dtd">
<svg version="1.0" xmlns="http://www.w3.org/2000/svg"
 width="2360.000000pt" height="1640.000000pt" viewBox="0 0 2360.000000 1640.000000"
 preserveAspectRatio="xMidYMid meet">
<metadata>
Created by potrace 1.16, written by Peter Selinger 2001-2019
</metadata>
<g transform="translate(0.000000,1640.000000) scale(0.100000,-0.100000)"
fill="#000000" stroke="none">
<path d="M10517 11936 c-3 -8 -67 -60 -142 -117 -75 -57 -144 -113 -152 -126
-14 -22 -14 -25 0 -36 9 -7 20 -22 24 -33 10 -27 318 -359 518 -559 184 -184
297 -275 485 -395 235 -150 309 -182 478 -210 56 -9 88 -9 145 0 168 28 242
60 477 210 188 120 301 211 485 395 200 200 508 532 518 559 4 11 15 26 24 33
14 11 14 14 0 36 -8 13 -77 69 -152 126 -75 57 -139 109 -142 117 -5 14 -73
17 -73 4 0 -4 -22 -19 -49 -33 -34 -19 -63 -27 -99 -27 -28 0 -126 -15 -219
-34 -204 -42 -477 -89 -518 -89 -16 0 -34 -3 -40 -7 -24 -19 -151 -34 -285
-34 -134 0 -261 15 -285 34 -5 4 -23 7 -40 7 -41 0 -314 47 -518 89 -93 19
-191 34 -219 34 -36 0 -65 8 -99 27 -27 14 -49 29 -49 33 0 13 -68 10 -73 -4z
m163 -136 c0 -14 8 -37 17 -50 10 -14 17 -27 17 -30 -1 -3 5 -19 13 -35 13
-28 12 -41 -11 -145 -47 -207 -57 -262 -51 -279 7 -19 2 -14 -69 67 -37 42
-45 57 -36 67 17 21 110 352 110 392 0 31 -2 34 -22 28 -13 -4 -26 -10 -29
-14 -3 -3 -27 -85 -53 -181 -27 -96 -50 -179 -53 -183 -6 -10 -63 42 -63 57 0
6 32 93 71 193 l72 181 43 -21 c35 -17 44 -26 44 -47z m2399 -115 c39 -98 71
-184 71 -190 0 -16 -57 -68 -63 -58 -3 4 -26 87 -53 183 -26 96 -50 178 -53
181 -3 4 -16 10 -28 14 -21 6 -23 3 -23 -28 0 -40 93 -371 110 -392 9 -10 1
-25 -36 -67 -71 -81 -76 -86 -69 -67 6 17 -4 72 -51 279 -23 104 -24 117 -11
145 8 16 14 32 13 35 0 3 7 16 17 30 9 13 17 36 17 50 0 21 9 30 43 47 23 11
43 20 44 19 0 0 33 -82 72 -181z m-2580 123 c-12 -29 -24 -60 -27 -68 -3 -8
-13 -24 -22 -35 -10 -11 -25 -45 -35 -75 -9 -30 -19 -61 -21 -69 -3 -9 -19 1
-52 31 -26 24 -56 49 -67 56 -13 7 -17 14 -10 21 11 10 248 190 252 191 2 0
-7 -24 -18 -52z m2744 -67 c89 -68 112 -91 88 -91 -5 0 -34 -23 -65 -51 -37
-34 -57 -46 -60 -37 -3 7 -12 38 -21 68 -10 30 -25 64 -35 75 -9 11 -19 27
-22 35 -3 8 -16 39 -27 69 l-22 54 33 -25 c18 -13 77 -57 131 -97z m-2451 40
l56 -24 5 -51 c3 -28 3 -52 2 -54 -2 -2 -29 30 -61 70 -32 40 -63 77 -68 81
-14 11 -3 7 66 -22z m2082 21 c-5 -4 -36 -40 -68 -80 -32 -40 -59 -72 -61 -70
-1 2 -1 26 2 54 5 50 5 51 62 76 55 26 87 35 65 20z m-1900 -12 c18 0 19 -7
12 -142 -4 -78 -8 -143 -9 -144 -1 -1 -18 17 -37 39 l-35 42 3 108 c3 106 4
109 25 103 12 -3 31 -6 41 -6z m1718 -97 l3 -108 -35 -42 c-19 -22 -36 -40
-37 -39 -1 1 -5 65 -9 143 l-7 141 29 5 c16 2 34 5 41 6 8 1 13 -31 15 -106z
m-1576 67 c20 0 22 -7 28 -136 4 -75 6 -137 4 -139 -1 -2 -27 2 -55 7 l-53 11
0 96 c0 53 3 113 7 134 5 33 9 38 27 33 12 -3 31 -6 42 -6z m1438 -27 c3 -21
6 -81 6 -134 l0 -96 -52 -11 c-29 -5 -55 -9 -56 -7 -2 2 0 64 3 139 l8 135 31
4 c17 2 36 5 42 5 6 1 14 -15 18 -35z m-1234 -150 c0 -128 -2 -144 -16 -139
-9 3 -33 9 -53 12 l-38 6 -7 106 c-3 58 -6 122 -6 142 l0 37 60 -10 60 -10 0
-144z m1075 19 l-7 -140 -38 -6 c-21 -3 -45 -9 -54 -12 -14 -5 -16 11 -16 139
l0 145 58 9 c31 5 59 8 61 7 2 -2 0 -66 -4 -142z m-951 102 c14 -5 16 -28 16
-151 l0 -145 -22 6 c-13 3 -31 6 -40 6 -16 0 -18 14 -18 145 l0 145 24 0 c13
0 31 -3 40 -6z m776 -139 c0 -131 -2 -145 -17 -145 -10 0 -28 -3 -40 -6 l-23
-6 0 145 c0 155 0 155 53 156 l27 1 0 -145z m-620 110 l45 -7 -3 -141 c-2 -78
-5 -143 -7 -145 -2 -2 -31 2 -65 9 -55 11 -61 14 -56 33 3 12 6 76 6 144 0
113 2 123 18 118 9 -3 37 -8 62 -11z m480 -107 c0 -68 3 -132 6 -144 5 -19 -1
-22 -56 -33 -34 -7 -63 -11 -65 -9 -2 2 -5 67 -7 145 l-3 141 55 10 c30 5 58
10 63 11 4 0 7 -54 7 -121z m-182 -57 l-3 -146 -47 -7 c-27 -3 -69 -3 -95 0
l-48 7 -3 146 -3 146 101 0 101 0 -3 -146z m-1039 10 c-8 -14 -36 -198 -55
-355 l-7 -59 -61 63 c-55 57 -59 64 -40 70 20 8 39 79 87 329 l11 54 37 -43
c28 -32 35 -47 28 -59z m2008 -189 c13 -67 20 -85 37 -91 19 -8 16 -13 -40
-71 l-61 -63 -7 59 c-19 155 -47 341 -55 355 -6 11 1 27 27 58 l35 43 24 -103
c13 -57 30 -142 40 -187z m-1906 84 c-8 -9 -31 -308 -31 -397 l0 -31 -50 42
c-42 35 -48 44 -36 54 10 7 23 71 40 194 14 101 26 188 26 194 0 7 13 -1 30
-17 19 -18 26 -32 21 -39z m1754 -131 c18 -129 31 -194 41 -201 12 -10 6 -19
-36 -54 l-50 -42 0 31 c0 92 -23 387 -31 395 -5 6 1 21 18 38 15 15 28 27 29
25 1 -1 14 -87 29 -192z m-1615 150 c19 -4 100 -22 180 -40 80 -19 190 -41
245 -50 55 -10 106 -22 114 -28 9 -7 67 -12 161 -12 94 0 152 5 161 12 8 6 59
18 114 28 55 9 138 25 185 36 161 39 305 68 309 63 9 -9 -293 -299 -395 -381
-163 -129 -258 -173 -374 -173 -116 0 -211 44 -370 171 -104 82 -347 313 -382
362 -20 28 -20 29 -2 24 10 -3 35 -8 54 -12z m-25 -349 c6 -254 11 -239 -60
-174 l-31 28 7 97 c4 54 10 151 14 217 l7 118 29 -28 28 -29 6 -229z m1532
-19 l8 -128 -30 -27 c-71 -65 -66 -80 -60 174 l6 229 27 28 27 28 7 -88 c4
-48 11 -146 15 -216z m-1422 133 c13 -15 18 -33 16 -63 -1 -23 5 -118 14 -211
9 -92 14 -170 12 -172 -2 -2 -27 13 -55 33 -41 28 -50 39 -41 49 8 10 9 71 4
210 -7 190 -7 196 11 186 11 -6 28 -20 39 -32z m1280 -155 c-5 -139 -4 -199 4
-209 9 -10 0 -21 -41 -49 -28 -20 -53 -35 -55 -33 -2 2 3 80 12 172 9 93 15
189 13 213 -2 38 2 47 30 72 18 16 35 29 38 29 4 0 3 -88 -1 -195z m-1151 38
c32 -29 41 -45 43 -73 1 -19 9 -84 18 -145 9 -60 15 -134 13 -162 l-3 -53 -46
30 -46 30 -11 128 c-23 261 -25 282 -17 282 4 0 26 -17 49 -37z m1022 -40 c-4
-43 -12 -135 -18 -205 l-11 -128 -46 -30 -46 -30 -3 57 c-2 31 4 102 13 157 8
56 16 119 17 141 1 33 8 46 42 77 23 20 45 37 50 38 5 0 6 -34 2 -77z m-811
-286 c4 -93 4 -171 1 -174 -3 -3 -21 2 -41 11 l-35 17 0 72 c0 61 -13 167 -35
290 l-5 28 54 -38 53 -38 8 -168z m644 118 c-10 -66 -19 -152 -19 -192 l0 -72
-35 -17 c-20 -9 -38 -14 -41 -11 -3 3 -3 81 1 174 l8 168 51 36 c28 20 52 36
52 35 1 0 -7 -55 -17 -121z m-495 -63 c3 -25 6 -100 6 -168 l0 -122 -37 10
c-21 5 -41 13 -44 16 -4 4 -10 82 -14 174 l-7 166 45 -16 c42 -15 45 -19 51
-60z m339 -137 l-8 -129 -42 -12 -43 -13 0 123 c0 68 3 143 6 168 6 41 9 45
48 59 l41 14 3 -40 c1 -22 -1 -98 -5 -170z m-147 125 c-3 -19 -6 -92 -6 -162
l0 -128 -60 0 -60 0 0 128 c0 70 -3 143 -6 162 l-6 35 72 0 72 0 -6 -35z
M4090 11517 c0 -19 10 -27 26 -20 21 8 17 33 -6 33 -11 0 -20 -6 -20 -13z
M19470 11516 c0 -15 24 -28 34 -19 13 14 5 33 -14 33 -11 0 -20 -6 -20 -14z"/>
</g>
</svg>
