<?xml version="1.0" standalone="no"?>
<!DOCTYPE svg PUBLIC "-//W3C//DTD SVG 20010904//EN"
 "http://www.w3.org/TR/2001/REC-SVG-20010904/DTD/svg10.dtd">
<svg version="1.0" xmlns="http://www.w3.org/2000/svg"
 width="2360.000000pt" height="1640.000000pt" viewBox="0 0 2360.000000 1640.000000"
 preserveAspectRatio="xMidYMid meet">
<metadata>
Created by potrace 1.16, written by Peter Selinger 2001-2019
</metadata>
<g transform="translate(0.000000,1640.000000) scale(0.100000,-0.100000)"
fill="#000000" stroke="none">
<path d="M10318 12544 c-34 -6 -34 -7 -6 -52 18 -30 22 -53 26 -181 3 -110 0
-168 -12 -233 -24 -130 -63 -254 -102 -331 -39 -76 -42 -97 -16 -97 11 0 27
-9 36 -19 27 -30 48 -36 431 -120 420 -92 654 -133 928 -160 l197 -21 198 21
c273 27 507 68 927 160 383 84 404 90 431 120 9 10 25 19 36 19 26 0 23 21
-16 97 -39 77 -78 201 -102 331 -12 65 -15 123 -12 233 4 130 7 151 28 183 12
21 19 40 15 44 -4 4 -262 5 -573 2 -796 -6 -1215 -6 -1842 2 -300 4 -557 4
-572 2z m1482 -59 c217 0 600 3 850 8 l455 7 -155 -45 c-180 -53 -314 -87
-421 -109 -113 -23 -457 -73 -601 -87 -147 -14 -252 -7 -582 42 -292 43 -394
66 -696 154 l-155 45 455 -7 c250 -5 633 -8 850 -8z m-1297 -46 c45 -11 118
-31 162 -44 285 -86 575 -141 968 -184 162 -18 172 -18 334 0 393 43 683 98
968 184 44 13 117 33 162 44 45 12 88 23 96 27 12 4 14 -22 13 -168 -1 -169 0
-176 37 -323 23 -88 55 -184 78 -232 21 -45 39 -84 39 -87 0 -3 -11 -6 -25 -6
-13 0 -186 -36 -383 -79 -543 -121 -927 -181 -1152 -181 -225 0 -609 60 -1152
181 -197 43 -370 79 -383 79 -14 0 -25 3 -25 6 0 3 18 42 39 87 23 48 55 144
78 232 37 147 38 154 37 323 -1 146 1 172 13 168 8 -4 51 -15 96 -27z"/>
</g>
</svg>
