<?xml version="1.0" standalone="no"?>
<!DOCTYPE svg PUBLIC "-//W3C//DTD SVG 20010904//EN"
 "http://www.w3.org/TR/2001/REC-SVG-20010904/DTD/svg10.dtd">
<svg version="1.0" xmlns="http://www.w3.org/2000/svg"
 width="2360.000000pt" height="1640.000000pt" viewBox="0 0 2360.000000 1640.000000"
 preserveAspectRatio="xMidYMid meet">
<metadata>
Created by potrace 1.16, written by Peter Selinger 2001-2019
</metadata>
<g transform="translate(0.000000,1640.000000) scale(0.100000,-0.100000)"
fill="#000000" stroke="none">
<path d="M10463 11913 c-16 -8 -50 -31 -78 -52 -27 -21 -81 -60 -120 -88 -93
-68 -122 -100 -107 -115 7 -7 12 -23 12 -37 0 -40 70 -185 300 -628 407 -781
521 -988 704 -1276 100 -158 151 -222 324 -411 75 -82 154 -172 176 -202 36
-49 41 -52 83 -52 42 0 46 2 85 56 23 32 90 107 149 169 219 229 300 344 561
793 55 93 227 413 365 680 349 668 410 790 420 840 4 22 11 30 28 30 65 0 37
32 -127 145 -79 54 -157 113 -174 132 -27 28 -36 32 -65 27 -49 -9 -271 -66
-434 -112 -219 -62 -297 -80 -610 -147 -106 -22 -296 -22 -390 0 -38 9 -116
25 -173 36 -57 11 -115 25 -130 30 -15 6 -65 19 -112 29 -47 9 -143 34 -215
55 -375 106 -433 118 -472 98z m211 -97 c48 -14 90 -27 93 -30 8 -8 20 -339
13 -348 -3 -4 -19 1 -35 11 -30 18 -40 39 -170 354 -19 45 -19 45 99 13z
m2276 17 c0 -16 -154 -366 -167 -379 -8 -8 -23 -14 -33 -14 -18 0 -19 8 -13
168 3 92 9 171 13 176 9 9 155 53 183 55 9 1 17 -2 17 -6z m-2438 -76 c24 -56
36 -42 -114 -142 -125 -84 -126 -84 -139 -47 -6 17 -18 46 -28 65 l-17 34 88
67 c70 52 94 65 113 60 13 -3 32 -1 42 5 26 15 32 11 55 -42z m2543 43 c3 -5
15 -10 26 -10 11 0 63 -30 114 -66 l94 -65 -19 -51 c-11 -28 -24 -56 -30 -62
-11 -11 -237 136 -247 161 -8 20 26 103 42 103 8 0 17 -4 20 -10z m-2141 -52
c22 -6 45 -15 50 -19 8 -7 9 -359 1 -368 -3 -2 -24 4 -49 13 -29 11 -46 24
-50 39 -4 17 -9 293 -6 340 0 9 5 9 54 -5z m1746 -107 c0 -65 -3 -146 -7 -181
-6 -62 -6 -63 -50 -82 -24 -10 -48 -16 -53 -13 -6 4 -10 78 -10 185 l0 179 48
15 c76 23 72 29 72 -103z m-190 -96 c0 -85 5 -166 10 -181 6 -15 9 -29 6 -31
-4 -4 -144 -53 -152 -53 -6 0 -3 223 4 320 l7 85 55 11 c30 6 58 9 63 7 4 -2
7 -73 7 -158z m-1304 133 c9 -9 13 -67 15 -203 l2 -190 -24 3 c-50 7 -134 48
-130 63 12 44 20 128 20 233 l1 119 52 -6 c28 -4 57 -12 64 -19z m199 -50 c6
-4 9 -80 7 -206 l-3 -200 -56 17 -56 17 -5 187 c-2 103 -1 194 1 201 4 11 15
11 54 2 26 -6 53 -14 58 -18z m895 -168 l0 -200 -27 -11 c-16 -6 -42 -13 -59
-16 l-30 -5 1 203 0 204 55 11 c30 7 56 12 58 13 1 0 2 -89 2 -199z m-1679
133 c42 -98 44 -87 -22 -140 -34 -26 -86 -68 -116 -92 -30 -24 -56 -42 -57
-40 -18 20 -75 154 -69 160 16 16 228 158 236 159 4 0 17 -21 28 -47z m2447 5
c32 -24 83 -59 115 -78 31 -19 57 -38 57 -43 0 -15 -71 -157 -79 -157 -4 0
-18 11 -31 25 -14 15 -47 41 -75 60 -67 46 -115 89 -115 103 0 19 52 132 61
132 5 0 35 -19 67 -42z m-1482 -31 c-3 -16 -6 -108 -6 -203 l0 -174 -32 1
c-72 1 -70 -7 -68 213 0 110 3 202 5 206 2 4 27 2 55 -4 50 -10 51 -11 46 -39z
m527 -164 c-1 -216 1 -211 -64 -212 l-26 -1 -7 183 c-4 100 -8 191 -9 201 -2
15 8 22 43 31 26 7 49 8 55 3 6 -5 9 -88 8 -205z m-355 2 c2 -93 0 -185 -3
-203 -6 -32 -7 -33 -53 -30 l-47 3 -3 203 -2 203 52 -3 53 -3 3 -170z m186
-22 c4 -111 3 -200 -2 -205 -5 -5 -29 -8 -53 -6 l-44 3 -5 195 c-3 107 -4 198
-2 203 2 4 25 7 51 7 l48 0 7 -197z m-1222 -27 c15 -38 28 -75 28 -82 0 -8
-28 -31 -61 -51 -34 -21 -82 -53 -107 -71 -24 -19 -48 -30 -52 -25 -10 11 -80
147 -80 156 0 4 9 7 20 7 18 0 171 107 185 130 15 25 40 1 67 -64z m2253 33
c73 -60 131 -99 149 -99 9 0 16 -5 16 -10 0 -9 -66 -148 -75 -158 -4 -5 -225
143 -225 151 0 20 64 157 74 157 6 0 34 -19 61 -41z m-2000 -92 c77 -30 167
-62 200 -71 33 -9 77 -23 97 -31 20 -8 92 -29 160 -47 123 -33 124 -33 363
-33 231 0 244 1 348 28 138 36 438 135 547 181 46 20 88 36 92 36 10 0 3 -17
-67 -166 -146 -308 -378 -690 -600 -989 -110 -148 -305 -385 -316 -385 -13 0
-39 30 -187 213 -146 183 -170 216 -336 467 -175 265 -345 567 -440 784 -29
65 -32 81 -13 73 6 -3 75 -30 152 -60z m-125 -224 c0 -6 -24 -24 -52 -41 -29
-16 -74 -48 -100 -71 -25 -22 -50 -41 -55 -41 -8 0 -78 127 -78 142 0 4 50 39
110 77 l110 70 32 -62 c18 -34 32 -67 33 -74z m2073 63 c54 -35 100 -66 103
-69 8 -8 -65 -147 -77 -147 -6 0 -36 22 -67 49 -31 27 -70 56 -87 64 -60 32
-59 29 -24 100 19 37 38 67 44 67 5 0 54 -29 108 -64z m-1993 -213 l41 -77
-27 -21 c-16 -11 -65 -43 -111 -72 l-82 -52 -35 65 c-20 36 -36 70 -36 77 0
29 160 157 196 157 7 0 31 -35 54 -77z m1845 47 c28 -16 72 -49 99 -72 l48
-44 -32 -64 c-18 -36 -37 -70 -42 -77 -7 -8 -39 8 -119 59 l-109 71 43 78 c23
44 47 79 52 79 6 0 33 -13 60 -30z m2 -304 c18 -11 33 -23 33 -26 0 -6 -80
-160 -83 -160 -11 1 -197 191 -197 201 0 8 14 35 30 61 l30 48 77 -51 c43 -29
93 -61 110 -73z m-1760 102 c6 -7 20 -32 33 -55 l23 -42 -54 -48 c-30 -26 -75
-70 -101 -98 -26 -27 -48 -47 -51 -45 -15 19 -77 141 -77 153 0 15 184 145
206 146 6 1 16 -5 21 -11z m128 -213 c19 -31 35 -58 35 -61 0 -3 -33 -43 -73
-88 -40 -44 -85 -96 -100 -114 l-26 -33 -15 29 c-8 16 -26 50 -40 77 -14 26
-26 53 -25 59 1 12 188 186 200 186 5 0 24 -25 44 -55z m1456 -41 l96 -89 -30
-60 c-16 -33 -37 -70 -45 -83 l-15 -23 -15 23 c-22 32 -130 158 -159 186 l-24
22 37 60 c20 33 42 59 48 57 6 -2 54 -44 107 -93z m-1336 -140 c27 -39 36 -60
29 -69 -5 -7 -40 -48 -78 -91 -38 -44 -78 -94 -90 -111 -11 -18 -25 -31 -31
-30 -5 2 -28 34 -49 71 l-39 67 31 30 c17 16 61 66 99 109 37 44 73 80 79 80
6 0 28 -25 49 -56z m1200 -34 c43 -50 88 -98 101 -108 l23 -17 -41 -72 c-23
-40 -45 -73 -48 -73 -4 0 -35 37 -71 83 -35 45 -80 100 -101 122 l-37 41 37
57 c20 31 42 57 48 57 6 0 46 -41 89 -90z m-1081 -137 l39 -56 -18 -31 c-10
-17 -49 -85 -86 -150 -38 -66 -73 -124 -78 -129 -6 -6 -30 26 -64 84 l-56 94
23 20 c12 11 49 54 81 95 67 86 106 130 114 130 3 0 24 -26 45 -57z m983 -70
c47 -57 89 -103 94 -103 5 0 9 -6 8 -12 -1 -18 -102 -183 -112 -183 -5 0 -39
54 -76 121 -37 66 -77 134 -90 152 -13 19 -19 37 -15 44 5 7 23 35 42 61 41
57 33 61 149 -80z m-845 -112 l47 -59 -52 -79 c-29 -43 -72 -115 -97 -160 -25
-46 -49 -83 -55 -82 -11 0 -85 102 -85 118 0 11 89 177 143 269 18 28 36 52
42 52 5 0 31 -27 57 -59z m651 2 c19 -32 52 -89 72 -128 21 -38 46 -84 56
-101 l19 -31 -40 -62 c-22 -33 -44 -61 -49 -61 -5 0 -37 50 -72 110 -35 61
-80 133 -101 160 l-37 49 50 61 c28 33 55 60 59 60 5 0 24 -26 43 -57z m-534
-147 l22 -23 -27 -154 c-14 -85 -32 -189 -39 -232 -7 -42 -15 -80 -17 -83 -3
-3 -42 37 -87 88 -76 87 -94 119 -72 132 5 4 28 41 52 84 56 103 127 212 137
212 5 0 19 -11 31 -24z m392 -34 c20 -31 64 -104 97 -161 l62 -104 -24 -31
c-13 -17 -53 -62 -89 -101 l-65 -70 -6 50 c-7 47 -45 263 -66 368 -9 42 -7 51
12 77 12 17 27 30 32 30 6 0 27 -26 47 -58z m-290 -88 c15 -14 17 -29 14 -98
-3 -44 -7 -154 -10 -244 l-4 -162 29 -33 30 -32 25 30 26 30 -6 225 c-3 124
-8 234 -10 246 -4 19 30 65 38 53 7 -9 58 -299 67 -378 l10 -84 -44 -47 c-24
-25 -56 -65 -71 -88 -15 -23 -31 -42 -35 -42 -4 0 -28 26 -53 58 -25 31 -59
73 -76 93 l-30 35 13 90 c22 146 61 364 65 364 3 0 12 -7 22 -16z M2370 9441
c0 -11 4 -21 9 -21 18 0 21 18 6 30 -13 10 -15 9 -15 -9z M21125 9450 c-7 -12
2 -30 16 -30 12 0 12 27 0 35 -5 3 -12 1 -16 -5z M2030 9215 c0 -8 7 -15 15
-15 8 0 15 7 15 15 0 8 -7 15 -15 15 -8 0 -15 -7 -15 -15z M21457 9224 c-13
-13 -7 -24 14 -24 11 0 19 5 17 12 -5 14 -22 21 -31 12z"/>
</g>
</svg>
