<?xml version="1.0" standalone="no"?>
<!DOCTYPE svg PUBLIC "-//W3C//DTD SVG 20010904//EN"
 "http://www.w3.org/TR/2001/REC-SVG-20010904/DTD/svg10.dtd">
<svg version="1.0" xmlns="http://www.w3.org/2000/svg"
 width="2048.000000pt" height="2048.000000pt" viewBox="0 0 2048.000000 2048.000000"
 preserveAspectRatio="xMidYMid meet">
<metadata>
Created by potrace 1.16, written by Peter Selinger 2001-2019
</metadata>
<g transform="translate(0.000000,2048.000000) scale(0.100000,-0.100000)"
fill="#000000" stroke="none">
<path d="M4013 14867 c-270 -319 -384 -470 -736 -972 -517 -736 -1120 -1697
-1684 -2685 -230 -403 -471 -872 -752 -1467 -110 -234 -389 -873 -439 -1008
-47 -126 -132 -395 -132 -419 0 -19 23 -21 38 -3 5 6 33 86 62 177 69 218 106
314 275 700 183 416 225 507 444 958 302 621 429 852 1031 1868 178 299 599
969 815 1294 418 629 769 1114 1062 1465 87 105 163 197 169 205 15 19 28 80
17 80 -4 0 -81 -87 -170 -193z M16295 15029 c9 -40 -8 -18 188 -254 530 -636
1286 -1760 2024 -3008 456 -772 605 -1045 884 -1619 219 -451 261 -542 444
-958 169 -386 206 -482 275 -700 54 -171 63 -190 86 -190 21 0 18 20 -31 178
-67 217 -111 329 -287 730 -322 738 -670 1440 -991 2002 -130 228 -507 868
-610 1034 -479 781 -883 1393 -1333 2018 -168 234 -615 786 -646 797 -6 2 -7
-9 -3 -30z M240 8286 c0 -10 183 -68 885 -281 248 -75 565 -174 705 -220 140
-46 345 -111 455 -145 110 -34 349 -110 530 -170 182 -60 440 -143 575 -184
135 -41 272 -85 305 -96 33 -12 116 -37 185 -56 69 -20 170 -51 226 -70 55
-19 108 -34 117 -34 9 0 60 -14 112 -31 107 -34 138 -35 143 -3 2 17 127 184
248 331 33 40 41 63 28 76 -14 14 -46 -20 -183 -196 l-143 -185 -42 14 c-22 8
-88 26 -145 40 -58 13 -109 28 -115 33 -6 4 -69 25 -141 45 -181 52 -573 176
-1010 318 -203 67 -530 171 -725 233 -195 61 -483 153 -640 203 -157 50 -486
152 -731 226 -246 75 -459 140 -474 146 -24 9 -165 15 -165 6z M20070 8279
c-14 -6 -225 -71 -470 -145 -245 -75 -573 -176 -730 -226 -157 -50 -445 -142
-640 -203 -195 -62 -521 -166 -725 -233 -437 -142 -829 -266 -1010 -318 -71
-20 -135 -41 -141 -45 -6 -5 -57 -20 -115 -33 -57 -14 -123 -32 -145 -40 l-42
-14 -143 185 c-137 176 -169 210 -183 196 -13 -13 -5 -36 28 -76 121 -147 246
-314 248 -331 5 -32 36 -31 143 3 52 17 103 31 112 31 9 0 62 15 117 34 56 19
157 50 226 70 69 19 152 44 185 56 33 11 170 55 305 96 135 41 394 124 575
184 182 60 420 136 530 170 110 34 315 99 455 145 140 46 458 145 705 220 702
213 885 271 885 281 0 9 -147 2 -170 -7z"/>
</g>
</svg>
