<?xml version="1.0" standalone="no"?>
<!DOCTYPE svg PUBLIC "-//W3C//DTD SVG 20010904//EN"
 "http://www.w3.org/TR/2001/REC-SVG-20010904/DTD/svg10.dtd">
<svg version="1.0" xmlns="http://www.w3.org/2000/svg"
 width="2048.000000pt" height="2048.000000pt" viewBox="0 0 2048.000000 2048.000000"
 preserveAspectRatio="xMidYMid meet">
<metadata>
Created by potrace 1.16, written by Peter Selinger 2001-2019
</metadata>
<g transform="translate(0.000000,2048.000000) scale(0.100000,-0.100000)"
fill="#000000" stroke="none">
<path d="M4107 15030 c-14 -16 -30 -30 -36 -30 -6 0 -57 -62 -115 -137 -57
-76 -217 -286 -355 -468 -138 -181 -406 -535 -596 -785 -189 -250 -468 -617
-620 -815 -151 -198 -336 -441 -411 -540 -74 -99 -242 -321 -372 -494 -130
-173 -252 -334 -270 -359 -18 -24 -31 -49 -29 -55 13 -35 207 -233 382 -391
324 -292 590 -525 673 -589 42 -32 131 -105 197 -161 66 -56 190 -158 275
-226 190 -152 366 -299 485 -405 397 -355 876 -739 977 -782 26 -12 32 -7 225
188 171 173 198 205 201 235 2 19 -1 34 -5 34 -5 0 -100 -92 -212 -205 l-203
-204 -82 57 c-170 118 -573 449 -852 699 -127 113 -353 302 -544 454 -80 64
-185 151 -235 194 -49 42 -117 98 -150 123 -83 63 -219 179 -425 361 -366 324
-520 468 -612 574 -44 50 -49 59 -35 70 15 12 60 71 543 712 145 193 374 494
509 670 135 176 370 484 522 685 152 201 379 498 503 660 125 162 302 395 395
518 93 122 174 222 181 222 15 0 141 168 146 195 5 31 -27 29 -55 -5z M16317
15054 c-3 -3 -3 -13 0 -22 11 -30 135 -192 147 -192 7 0 88 -100 181 -222 93
-123 270 -356 395 -518 124 -162 351 -459 503 -660 152 -201 387 -509 522
-685 135 -176 364 -477 509 -670 483 -641 528 -700 543 -712 14 -11 9 -20 -35
-70 -92 -106 -246 -250 -612 -574 -206 -182 -342 -298 -425 -361 -33 -25 -100
-81 -150 -123 -49 -43 -155 -130 -235 -194 -191 -152 -417 -341 -544 -454
-279 -250 -682 -581 -852 -699 l-82 -57 -203 204 c-112 113 -207 205 -212 205
-4 0 -7 -15 -5 -34 3 -30 30 -62 201 -235 193 -195 199 -200 225 -188 101 43
580 427 977 782 119 106 295 253 485 405 85 68 209 170 275 226 66 56 155 129
197 161 83 64 349 297 673 589 175 158 369 356 382 391 2 6 -11 31 -29 55 -18
25 -140 186 -270 359 -130 173 -298 395 -372 494 -75 99 -260 342 -411 540
-152 198 -431 565 -620 815 -190 250 -458 604 -596 785 -138 182 -298 392
-355 468 -58 75 -109 137 -115 137 -6 0 -22 14 -36 30 -24 29 -43 37 -56 24z"/>
</g>
</svg>
