<?xml version="1.0" standalone="no"?>
<!DOCTYPE svg PUBLIC "-//W3C//DTD SVG 20010904//EN"
 "http://www.w3.org/TR/2001/REC-SVG-20010904/DTD/svg10.dtd">
<svg version="1.0" xmlns="http://www.w3.org/2000/svg"
 width="2048.000000pt" height="2048.000000pt" viewBox="0 0 2048.000000 2048.000000"
 preserveAspectRatio="xMidYMid meet">
<metadata>
Created by potrace 1.16, written by Peter Selinger 2001-2019
</metadata>
<g transform="translate(0.000000,2048.000000) scale(0.100000,-0.100000)"
fill="#000000" stroke="none">
<path d="M4142 15088 c-87 -119 -364 -582 -505 -848 -211 -395 -414 -819 -579
-1205 -92 -214 -181 -426 -198 -470 -129 -327 -452 -1175 -563 -1480 -74 -203
-173 -473 -220 -600 -229 -616 -258 -707 -235 -730 2 -3 78 -23 169 -45 90
-23 306 -81 479 -130 173 -49 441 -121 595 -160 154 -39 388 -103 520 -141
314 -90 1056 -269 1117 -269 16 0 7 40 -9 48 -10 5 -49 15 -88 21 -145 24
-749 174 -1030 256 -121 35 -362 100 -535 145 -173 45 -441 117 -595 160 -154
43 -347 96 -430 116 -82 20 -151 38 -153 40 -2 1 57 168 132 371 512 1397 464
1269 734 1968 183 473 196 504 362 890 170 398 207 478 370 800 194 383 299
577 467 857 84 141 153 259 153 263 0 3 32 49 71 101 67 91 79 122 52 131 -7
3 -43 -38 -81 -89z M16247 15173 c-15 -14 -4 -37 63 -127 39 -52 70 -98 70
-101 0 -4 69 -122 153 -263 168 -280 273 -474 467 -857 163 -322 200 -402 370
-800 166 -385 178 -416 362 -890 248 -642 248 -642 734 -1968 75 -203 134
-370 132 -371 -2 -2 -70 -20 -153 -40 -82 -20 -276 -73 -430 -116 -154 -43
-422 -115 -595 -160 -173 -45 -414 -110 -535 -145 -281 -82 -885 -232 -1030
-256 -38 -6 -78 -16 -87 -21 -17 -8 -26 -48 -10 -48 61 0 803 179 1117 269
132 38 366 102 520 141 154 39 422 111 595 160 173 49 389 107 479 130 91 22
167 42 169 45 23 23 -6 114 -235 730 -47 127 -146 397 -220 600 -111 305 -434
1153 -563 1480 -17 44 -106 256 -198 470 -165 386 -368 810 -579 1205 -206
388 -548 940 -581 940 -5 0 -12 -3 -15 -7z M4000 21 c6 -12 17 -21 25 -21 21
0 19 5 -11 25 -25 16 -25 16 -14 -4z M16460 20 c-20 -16 -21 -20 -8 -20 10 0
22 9 28 20 13 25 11 25 -20 0z"/>
</g>
</svg>
