<?xml version="1.0" standalone="no"?>
<!DOCTYPE svg PUBLIC "-//W3C//DTD SVG 20010904//EN"
 "http://www.w3.org/TR/2001/REC-SVG-20010904/DTD/svg10.dtd">
<svg version="1.0" xmlns="http://www.w3.org/2000/svg"
 width="2048.000000pt" height="2048.000000pt" viewBox="0 0 2048.000000 2048.000000"
 preserveAspectRatio="xMidYMid meet">
<metadata>
Created by potrace 1.16, written by Peter Selinger 2001-2019
</metadata>
<g transform="translate(0.000000,2048.000000) scale(0.100000,-0.100000)"
fill="#000000" stroke="none">
<path d="M4318 15198 c-82 -105 -135 -184 -117 -173 51 30 102 73 124 105 26
38 69 139 62 146 -2 2 -33 -33 -69 -78z M16095 15258 c28 -96 90 -178 165
-222 l33 -19 -33 49 c-39 58 -161 214 -167 214 -3 0 -1 -10 2 -22z M4111
15052 c-13 -26 -55 -119 -93 -207 -39 -88 -122 -270 -185 -403 -124 -264 -669
-1531 -788 -1832 -154 -390 -279 -751 -441 -1270 -282 -904 -446 -1608 -749
-3217 -53 -279 -120 -634 -150 -788 -88 -455 -110 -582 -225 -1283 -214 -1309
-237 -1464 -285 -1887 -131 -1164 -190 -1928 -183 -2340 3 -169 4 -179 23
-185 11 -3 31 -12 45 -22 14 -9 52 -21 85 -28 33 -6 139 -29 235 -51 293 -64
756 -137 1275 -198 94 -12 274 -34 400 -50 127 -16 295 -35 375 -41 80 -6 209
-22 287 -36 78 -13 149 -21 157 -18 23 9 19 33 -6 43 -44 16 -284 51 -453 66
-181 15 -990 116 -1340 166 -309 44 -425 65 -680 121 -126 27 -258 52 -292 55
l-61 6 -6 42 c-4 23 -2 177 4 341 15 434 45 820 111 1454 102 979 116 1084
335 2425 103 634 165 991 230 1325 31 157 80 416 110 575 258 1369 365 1879
545 2600 165 656 473 1610 717 2220 115 287 660 1552 770 1785 167 356 272
599 272 629 0 51 -15 53 -39 3z M16337 15086 c-4 -10 -7 -28 -7 -41 0 -26 112
-283 272 -625 110 -233 655 -1498 770 -1785 244 -610 552 -1564 717 -2220 180
-721 287 -1231 545 -2600 30 -159 79 -418 110 -575 84 -436 184 -1024 376
-2230 102 -634 215 -1655 275 -2470 19 -266 38 -791 29 -845 l-6 -42 -61 -6
c-34 -3 -165 -28 -292 -55 -255 -56 -371 -77 -680 -121 -350 -50 -1159 -151
-1340 -166 -169 -15 -409 -50 -452 -66 -26 -10 -30 -34 -7 -43 8 -3 79 5 157
18 78 14 207 30 287 36 80 6 249 25 375 41 127 16 307 38 400 50 519 61 982
134 1275 198 96 22 202 45 235 51 33 7 71 19 85 28 14 10 34 19 45 22 19 6 20
16 23 185 7 412 -52 1176 -183 2340 -48 423 -71 578 -285 1887 -115 701 -137
828 -225 1283 -30 154 -97 509 -150 788 -303 1609 -467 2313 -749 3217 -162
519 -287 880 -441 1270 -119 301 -664 1568 -788 1832 -63 133 -147 317 -187
408 -99 226 -115 257 -123 236z M4625 3263 c-107 -221 -207 -462 -290 -698
-42 -121 -108 -301 -145 -400 -115 -301 -209 -570 -255 -732 -48 -163 -50
-173 -37 -173 28 0 47 41 96 205 53 173 146 438 256 725 28 74 74 200 101 280
104 300 213 564 329 798 40 81 47 121 23 129 -6 2 -40 -55 -78 -134z M15767
3393 c-14 -14 -6 -46 34 -126 113 -227 224 -498 328 -797 27 -80 73 -206 101
-280 110 -287 203 -552 256 -725 49 -164 68 -205 96 -205 13 0 11 10 -37 173
-46 162 -140 431 -255 732 -37 99 -103 279 -145 400 -83 236 -183 477 -290
698 -63 131 -73 146 -88 130z"/>
</g>
</svg>
