<?xml version="1.0" standalone="no"?>
<!DOCTYPE svg PUBLIC "-//W3C//DTD SVG 20010904//EN"
 "http://www.w3.org/TR/2001/REC-SVG-20010904/DTD/svg10.dtd">
<svg version="1.0" xmlns="http://www.w3.org/2000/svg"
 width="2048.000000pt" height="2048.000000pt" viewBox="0 0 2048.000000 2048.000000"
 preserveAspectRatio="xMidYMid meet">
<metadata>
Created by potrace 1.16, written by Peter Selinger 2001-2019
</metadata>
<g transform="translate(0.000000,2048.000000) scale(0.100000,-0.100000)"
fill="#000000" stroke="none">
<path d="M3996 14826 c-327 -607 -743 -1477 -1070 -2234 -229 -531 -287 -668
-441 -1057 -68 -170 -160 -400 -205 -510 -117 -284 -321 -809 -395 -1015 -94
-262 -200 -620 -299 -1015 -54 -216 -77 -344 -110 -610 -66 -528 -70 -675 -71
-2375 0 -1357 2 -1537 22 -2085 13 -330 27 -753 33 -940 7 -246 19 -442 44
-710 19 -203 40 -437 46 -520 6 -82 13 -169 16 -191 6 -39 4 -42 -23 -49 l-28
-7 30 -11 c17 -5 33 -14 36 -19 4 -6 44 -11 90 -13 46 -2 176 -10 289 -19 382
-29 766 -48 1310 -66 168 -6 323 -12 345 -15 131 -13 1104 -25 1128 -13 25 13
22 47 -5 52 -13 3 -248 7 -523 10 -275 3 -579 10 -675 15 -96 6 -321 15 -500
21 -342 11 -881 41 -1185 65 -99 8 -192 15 -207 15 -35 0 -34 -4 -53 255 -9
116 -29 350 -46 520 -29 299 -34 419 -59 1230 -6 193 -18 546 -26 785 -29 774
-18 3184 16 3635 13 180 55 545 82 705 39 245 231 948 348 1280 76 215 228
606 407 1050 75 184 194 480 264 658 131 327 463 1106 603 1417 223 491 636
1337 799 1637 137 251 167 314 167 348 0 16 -4 30 -9 30 -4 0 -70 -114 -145
-254z M16330 15050 c0 -34 30 -97 167 -348 163 -300 576 -1146 799 -1637 140
-311 472 -1090 603 -1417 70 -178 189 -474 264 -658 179 -444 331 -835 407
-1050 117 -332 309 -1035 348 -1280 27 -160 69 -525 82 -705 34 -451 45 -2861
16 -3635 -8 -239 -20 -592 -26 -785 -25 -811 -30 -931 -59 -1230 -17 -170 -37
-404 -46 -520 -19 -259 -18 -255 -53 -255 -15 0 -108 -7 -207 -15 -304 -24
-843 -54 -1185 -65 -179 -6 -404 -15 -500 -21 -96 -5 -400 -12 -675 -15 -275
-3 -510 -7 -522 -10 -28 -5 -31 -39 -5 -52 23 -12 994 -1 1127 13 22 3 177 9
345 15 548 18 955 38 1315 66 110 9 238 17 284 19 46 2 86 7 90 13 3 5 20 14
36 19 l30 11 -28 7 c-27 7 -29 10 -23 49 3 22 10 109 16 191 6 83 27 317 46
520 25 268 37 464 44 710 6 187 20 610 33 940 20 548 22 728 22 2085 -1 1700
-5 1847 -71 2375 -33 266 -56 394 -110 610 -99 395 -205 753 -299 1015 -74
206 -278 731 -395 1015 -45 110 -137 340 -205 510 -368 927 -766 1817 -1204
2696 -191 382 -440 849 -452 849 -5 0 -9 -14 -9 -30z"/>
</g>
</svg>
