<?xml version="1.0" standalone="no"?>
<!DOCTYPE svg PUBLIC "-//W3C//DTD SVG 20010904//EN"
 "http://www.w3.org/TR/2001/REC-SVG-20010904/DTD/svg10.dtd">
<svg version="1.0" xmlns="http://www.w3.org/2000/svg"
 width="2048.000000pt" height="2048.000000pt" viewBox="0 0 2048.000000 2048.000000"
 preserveAspectRatio="xMidYMid meet">
<metadata>
Created by potrace 1.16, written by Peter Selinger 2001-2019
</metadata>
<g transform="translate(0.000000,2048.000000) scale(0.100000,-0.100000)"
fill="#000000" stroke="none">
<path d="M4189 15158 c-19 -23 -42 -59 -51 -80 -9 -20 -102 -185 -206 -365
-297 -515 -336 -589 -592 -1128 -168 -352 -279 -601 -380 -850 -40 -99 -115
-282 -167 -407 -51 -125 -124 -312 -162 -416 -93 -251 -214 -558 -353 -892
-180 -432 -388 -978 -482 -1266 -104 -320 -409 -1483 -404 -1538 l3 -31 260
-88 c143 -48 449 -144 680 -213 231 -69 524 -157 650 -194 127 -38 336 -101
465 -140 129 -39 375 -111 546 -160 171 -49 402 -121 514 -160 112 -38 210
-70 217 -70 21 0 15 28 -10 44 -42 28 -395 145 -714 236 -175 50 -421 123
-548 161 -307 94 -639 193 -1110 334 -214 64 -498 152 -630 196 -132 44 -248
78 -257 75 -29 -7 -23 31 42 278 33 126 79 301 101 390 54 217 180 668 236
846 82 262 294 823 480 1270 156 375 234 570 348 874 53 142 125 327 160 411
35 84 101 244 146 356 122 304 233 555 410 925 277 581 307 638 621 1182 93
161 176 309 185 330 8 20 26 48 40 61 24 25 28 61 7 68 -7 2 -27 -15 -45 -39z
M16237 15193 c-14 -13 -6 -41 17 -64 13 -13 31 -41 39 -61 9 -21 92 -169 185
-330 314 -544 344 -601 621 -1182 177 -370 288 -621 410 -925 45 -112 111
-272 146 -356 35 -84 107 -269 160 -411 114 -304 192 -499 348 -874 186 -447
398 -1008 480 -1270 56 -178 182 -629 236 -846 22 -89 68 -264 101 -390 65
-247 71 -285 43 -278 -10 3 -126 -31 -258 -75 -132 -44 -415 -132 -630 -196
-471 -141 -803 -240 -1110 -334 -126 -38 -373 -111 -548 -161 -319 -91 -672
-208 -714 -236 -25 -16 -31 -44 -10 -44 7 0 105 32 217 70 112 39 343 111 514
160 171 49 417 121 546 160 129 39 339 102 465 140 127 37 419 125 650 194
231 69 537 165 680 213 l260 88 3 31 c5 53 -297 1202 -400 1524 -94 291 -300
835 -486 1280 -139 334 -260 641 -353 892 -38 104 -111 291 -162 416 -52 125
-127 308 -167 407 -101 249 -212 498 -380 850 -256 539 -295 613 -592 1128
-104 180 -197 345 -206 365 -18 41 -79 122 -91 122 -4 0 -11 -3 -14 -7z"/>
</g>
</svg>
