<?xml version="1.0" standalone="no"?>
<!DOCTYPE svg PUBLIC "-//W3C//DTD SVG 20010904//EN"
 "http://www.w3.org/TR/2001/REC-SVG-20010904/DTD/svg10.dtd">
<svg version="1.0" xmlns="http://www.w3.org/2000/svg"
 width="2048.000000pt" height="2048.000000pt" viewBox="0 0 2048.000000 2048.000000"
 preserveAspectRatio="xMidYMid meet">
<metadata>
Created by potrace 1.16, written by Peter Selinger 2001-2019
</metadata>
<g transform="translate(0.000000,2048.000000) scale(0.100000,-0.100000)"
fill="#000000" stroke="none">
<path d="M4170 15100 c-6 -11 -17 -20 -24 -20 -7 0 -33 -37 -57 -82 -24 -45
-104 -168 -178 -273 -148 -208 -197 -283 -466 -705 -469 -735 -933 -1623
-1205 -2305 -87 -217 -269 -738 -353 -1010 -112 -361 -249 -819 -251 -839 -2
-28 42 -55 110 -68 l61 -11 -29 -96 c-51 -169 -145 -510 -192 -696 -54 -216
-77 -344 -110 -610 -66 -528 -70 -675 -71 -2375 0 -1357 2 -1537 22 -2085 13
-330 27 -753 33 -940 7 -246 19 -442 44 -710 19 -203 40 -437 46 -520 6 -82
13 -169 16 -191 6 -39 4 -42 -23 -49 l-28 -7 30 -11 c17 -6 35 -17 41 -25 8
-11 15 -12 30 -4 63 35 817 50 1471 31 546 -17 919 -18 931 -4 4 6 4 118 -1
250 -4 132 -4 485 0 785 4 300 7 880 5 1290 -5 1024 8 1601 58 2655 32 672 50
942 95 1430 13 143 33 395 45 560 12 165 26 377 33 471 l12 171 58 -25 c40
-17 57 -30 57 -43 0 -41 33 -3 81 94 28 55 98 169 155 254 102 150 118 185 90
196 -16 6 -210 -280 -272 -401 -20 -39 -41 -72 -46 -72 -5 0 -25 7 -46 16 -91
40 -157 64 -174 64 -25 0 -616 164 -938 260 -146 44 -398 116 -560 161 -162
44 -351 97 -420 116 -251 69 -362 94 -392 88 -19 -5 -35 -2 -46 8 -9 8 -32 17
-50 20 -18 4 -45 16 -61 28 -30 22 -30 22 -11 48 10 14 60 166 110 336 200
677 390 1230 555 1615 141 328 398 861 537 1115 241 438 510 890 732 1230 167
256 241 362 306 439 42 50 93 123 115 161 21 39 59 102 85 140 63 93 81 131
74 149 -8 22 -21 20 -34 -4z m-2045 -5390 c570 -157 835 -231 1065 -300 287
-85 986 -280 1006 -280 10 0 11 -27 8 -112 -13 -306 -47 -787 -79 -1128 -45
-479 -60 -721 -95 -1450 -49 -1041 -63 -1739 -54 -2555 4 -384 2 -780 -5
-1100 -9 -346 -9 -604 -3 -840 5 -187 7 -357 4 -379 l-4 -39 -287 6 c-157 3
-452 11 -656 17 -512 17 -1084 6 -1358 -24 -32 -4 -40 -1 -47 17 -5 12 -16
119 -25 237 -9 118 -29 355 -46 525 -29 299 -34 418 -59 1230 -6 193 -18 546
-26 785 -29 774 -18 3184 16 3635 13 180 55 545 82 705 25 158 96 440 204 818
46 162 84 296 84 297 0 5 133 -26 275 -65z M16276 15104 c-7 -18 11 -56 74
-149 26 -38 64 -101 85 -140 22 -38 73 -111 115 -161 65 -77 139 -183 306
-439 222 -340 491 -792 732 -1230 139 -254 396 -787 537 -1115 165 -385 355
-938 555 -1615 50 -170 100 -322 110 -336 19 -26 19 -26 -11 -48 -16 -12 -43
-24 -61 -28 -18 -3 -41 -12 -50 -20 -11 -10 -27 -13 -46 -8 -30 6 -141 -19
-392 -88 -69 -19 -258 -72 -420 -116 -162 -45 -414 -117 -560 -161 -322 -96
-913 -260 -938 -260 -17 0 -83 -24 -174 -64 -21 -9 -41 -16 -46 -16 -5 0 -26
33 -46 73 -62 120 -256 406 -272 400 -28 -11 -12 -46 90 -196 57 -85 127 -199
155 -254 48 -97 81 -135 81 -94 0 13 17 26 58 43 l57 25 2 -21 c2 -21 6 -79
43 -621 11 -159 34 -436 50 -615 42 -465 59 -732 90 -1375 50 -1061 63 -1632
58 -2655 -2 -410 1 -990 5 -1290 4 -300 4 -653 0 -785 -5 -132 -5 -244 -1
-250 12 -14 385 -13 931 4 654 19 1408 4 1471 -31 15 -8 22 -7 30 4 6 8 25 19
41 25 l30 11 -28 7 c-27 7 -29 10 -23 49 3 22 10 109 16 191 6 83 27 317 46
520 25 268 37 464 44 710 6 187 20 610 33 940 20 548 22 728 22 2085 -1 1700
-5 1847 -71 2375 -33 266 -56 394 -110 610 -47 186 -141 527 -192 696 l-29 96
61 11 c68 13 112 40 110 68 -2 20 -139 478 -251 839 -84 272 -266 793 -353
1010 -272 682 -736 1570 -1205 2305 -269 422 -318 497 -466 705 -74 105 -154
228 -178 273 -24 45 -50 82 -57 82 -7 0 -18 9 -24 20 -13 24 -26 26 -34 4z
m2438 -5626 c108 -378 179 -660 204 -818 27 -160 69 -525 82 -705 34 -451 45
-2861 16 -3635 -8 -239 -20 -592 -26 -785 -25 -812 -30 -931 -59 -1230 -17
-170 -37 -407 -46 -525 -9 -118 -20 -225 -25 -237 -7 -18 -15 -21 -47 -17
-274 30 -846 41 -1358 24 -203 -6 -499 -14 -656 -17 l-287 -6 -4 39 c-3 22 -1
192 4 379 6 236 6 494 -3 840 -7 320 -9 716 -5 1100 9 816 -5 1514 -54 2555
-35 729 -50 971 -95 1450 -32 341 -66 822 -79 1128 -3 85 -2 112 8 112 20 0
719 195 1006 280 146 43 414 120 595 170 182 50 389 107 460 127 126 35 278
72 282 68 2 -1 41 -134 87 -297z M4706 9034 c-10 -25 -7 -34 9 -28 17 7 20 30
6 38 -5 3 -12 -1 -15 -10z M15754 9036 c-4 -11 -2 -21 7 -27 18 -11 24 5 10
28 -9 17 -10 17 -17 -1z M4663 1378 c15 -36 43 -46 76 -28 25 13 28 45 5 54
-9 3 -33 6 -55 6 l-39 0 13 -32z M15733 1403 c-20 -8 -15 -41 8 -53 33 -18 61
-8 76 28 l13 32 -42 -1 c-24 0 -49 -3 -55 -6z"/>
</g>
</svg>
