<?xml version="1.0" standalone="no"?>
<!DOCTYPE svg PUBLIC "-//W3C//DTD SVG 20010904//EN"
 "http://www.w3.org/TR/2001/REC-SVG-20010904/DTD/svg10.dtd">
<svg version="1.0" xmlns="http://www.w3.org/2000/svg"
 width="2048.000000pt" height="2048.000000pt" viewBox="0 0 2048.000000 2048.000000"
 preserveAspectRatio="xMidYMid meet">
<metadata>
Created by potrace 1.16, written by Peter Selinger 2001-2019
</metadata>
<g transform="translate(0.000000,2048.000000) scale(0.100000,-0.100000)"
fill="#000000" stroke="none">
<path d="M8076 17773 c-155 -220 -151 -214 -349 -441 -45 -52 -90 -106 -100
-121 l-17 -28 155 -307 c167 -330 499 -921 651 -1156 317 -495 668 -947 891
-1147 48 -43 107 -97 130 -121 54 -54 67 -51 135 31 86 104 406 445 538 574
l125 122 109 -107 c138 -134 453 -471 525 -560 29 -37 69 -76 87 -87 l35 -19
23 24 c13 14 59 56 102 95 261 232 582 636 924 1165 77 119 300 495 300 505 0
2 21 39 46 82 101 170 187 330 312 578 184 367 170 326 133 377 -16 24 -80 99
-142 168 -102 115 -236 289 -320 417 -19 29 -40 55 -46 57 -7 3 -41 -8 -75
-24 -34 -16 -87 -34 -117 -40 -31 -6 -83 -17 -116 -25 -51 -13 -251 -43 -495
-75 -36 -5 -157 -16 -270 -25 -113 -8 -234 -20 -270 -25 -132 -20 -522 -42
-745 -42 -222 0 -601 22 -735 42 -36 5 -184 19 -329 30 -146 12 -268 23 -273
26 -4 3 -92 16 -193 29 -102 14 -211 31 -243 39 -31 8 -76 17 -100 21 -45 7
-160 50 -176 66 -21 20 -37 5 -110 -98z m144 -19 c23 -36 98 -145 166 -240 68
-96 161 -229 206 -297 227 -340 507 -717 827 -1117 332 -413 445 -545 619
-723 l166 -168 -151 -152 c-188 -190 -465 -487 -510 -547 l-33 -45 -137 130
c-75 72 -176 175 -226 230 -262 292 -669 874 -894 1280 -27 50 -104 185 -170
301 -66 116 -171 312 -234 435 -62 123 -128 250 -146 282 l-32 58 135 155
c134 154 191 227 309 397 33 47 61 86 62 87 0 0 20 -30 43 -66z m4115 13 c16
-23 56 -80 88 -126 31 -46 76 -107 100 -135 58 -70 201 -233 248 -282 23 -25
35 -44 29 -50 -5 -5 -73 -135 -151 -289 -468 -921 -1036 -1783 -1444 -2190
-133 -132 -222 -213 -239 -217 -7 -2 -37 26 -66 62 -71 85 -286 315 -478 511
l-153 156 136 134 c134 132 161 163 367 409 175 210 563 698 659 830 171 233
337 467 464 655 49 72 141 204 205 295 65 91 134 191 154 223 20 31 40 57 44
57 4 -1 20 -20 37 -43z m-3869 -43 c30 -7 127 -23 216 -34 90 -11 183 -25 208
-30 25 -6 180 -22 345 -36 165 -14 401 -34 525 -45 192 -17 275 -19 565 -14
187 3 399 12 470 19 72 8 270 26 440 40 171 14 317 29 325 32 8 3 99 16 202
29 102 13 212 31 245 39 32 8 82 18 112 22 48 6 54 5 48 -9 -3 -9 -55 -85
-115 -169 -60 -84 -157 -225 -217 -313 -187 -276 -200 -292 -242 -299 -21 -4
-65 -14 -98 -22 -33 -8 -143 -25 -245 -39 -102 -14 -232 -34 -290 -45 -102
-19 -569 -54 -720 -54 -225 0 -711 42 -842 74 -23 5 -115 19 -203 30 -88 11
-173 25 -190 29 -16 5 -60 15 -97 22 l-67 12 -98 141 c-54 77 -110 160 -126
184 -15 24 -85 125 -156 225 -70 100 -136 195 -147 211 l-18 29 58 -7 c32 -4
83 -14 112 -22z m529 -849 c39 -8 140 -23 225 -35 85 -11 198 -29 250 -40 157
-31 721 -68 868 -56 42 3 169 11 282 16 209 11 295 20 410 45 36 8 124 21 195
30 72 9 177 25 233 36 57 11 106 18 109 16 11 -12 -210 -311 -496 -671 -327
-411 -548 -671 -694 -815 l-136 -134 -124 119 c-152 146 -202 201 -348 378
-403 490 -738 922 -853 1099 -22 32 -20 32 79 12z"/>
</g>
</svg>
