<?xml version="1.0" standalone="no"?>
<!DOCTYPE svg PUBLIC "-//W3C//DTD SVG 20010904//EN"
 "http://www.w3.org/TR/2001/REC-SVG-20010904/DTD/svg10.dtd">
<svg version="1.0" xmlns="http://www.w3.org/2000/svg"
 width="2048.000000pt" height="2048.000000pt" viewBox="0 0 2048.000000 2048.000000"
 preserveAspectRatio="xMidYMid meet">
<metadata>
Created by potrace 1.16, written by Peter Selinger 2001-2019
</metadata>
<g transform="translate(0.000000,2048.000000) scale(0.100000,-0.100000)"
fill="#000000" stroke="none">
<path d="M8757 18763 c-4 -3 -2 -12 3 -18 7 -9 -4 -7 -34 3 -92 33 -63 -20 44
-82 109 -63 330 -172 405 -201 88 -33 406 -120 530 -144 186 -37 330 -51 535
-51 205 0 349 14 535 51 124 24 442 111 530 144 75 29 296 138 405 201 107 62
136 115 44 82 -35 -12 -42 -13 -33 -2 9 11 8 15 -5 20 -16 6 -303 -12 -641
-41 -93 -8 -267 -19 -385 -25 -118 -5 -268 -15 -332 -21 -88 -9 -148 -9 -240
0 -68 6 -217 16 -332 21 -115 6 -290 17 -390 26 -466 39 -628 49 -639 37z
m353 -64 c344 -29 1030 -74 1130 -74 100 0 786 45 1130 74 58 5 152 12 210 15
131 8 130 7 -110 -113 -125 -62 -211 -98 -301 -124 -220 -64 -349 -96 -504
-124 -139 -25 -170 -27 -425 -27 -255 0 -286 2 -425 27 -155 28 -284 60 -504
124 -90 26 -176 62 -301 124 -240 120 -241 121 -110 113 58 -3 152 -10 210
-15z M8611 18743 c-5 -11 -5 -39 0 -73 5 -30 13 -120 19 -200 11 -176 0 -236
-66 -365 -73 -143 -132 -219 -351 -460 -152 -166 -248 -262 -347 -344 -150
-125 -172 -151 -132 -151 34 0 274 202 396 334 329 353 392 432 482 596 66
120 81 179 80 325 -1 131 -17 290 -33 332 -10 27 -35 30 -48 6z M11821 18737
c-16 -42 -32 -201 -33 -332 -1 -146 14 -205 80 -325 90 -163 162 -253 477
-591 127 -137 367 -339 401 -339 40 0 18 26 -132 151 -99 82 -195 178 -347
344 -219 241 -278 317 -351 460 -66 129 -77 189 -66 365 6 80 14 170 19 200
10 59 1 90 -25 90 -8 0 -18 -10 -23 -23z M7688 17123 c16 -29 39 -45 165 -117
208 -118 341 -182 549 -264 629 -248 920 -312 1488 -328 764 -22 1212 12 1597
120 237 67 724 252 901 343 263 135 428 240 408 260 -11 12 -91 -23 -213 -92
-256 -146 -438 -228 -783 -352 -461 -167 -714 -214 -1215 -229 -558 -16 -1009
2 -1285 52 -399 72 -1005 299 -1390 521 -136 78 -158 89 -198 98 -31 6 -33 5
-24 -12z"/>
</g>
</svg>
