<?xml version="1.0" standalone="no"?>
<!DOCTYPE svg PUBLIC "-//W3C//DTD SVG 20010904//EN"
 "http://www.w3.org/TR/2001/REC-SVG-20010904/DTD/svg10.dtd">
<svg version="1.0" xmlns="http://www.w3.org/2000/svg"
 width="2048.000000pt" height="2048.000000pt" viewBox="0 0 2048.000000 2048.000000"
 preserveAspectRatio="xMidYMid meet">
<metadata>
Created by potrace 1.16, written by Peter Selinger 2001-2019
</metadata>
<g transform="translate(0.000000,2048.000000) scale(0.100000,-0.100000)"
fill="#000000" stroke="none">
<path d="M8535 17656 c-14 -20 -206 -123 -400 -213 -88 -41 -215 -105 -282
-144 -66 -38 -130 -69 -141 -69 -13 0 -26 -12 -36 -31 -14 -29 -14 -33 0 -43
20 -15 87 -176 224 -536 234 -617 285 -732 602 -1362 424 -843 620 -1137 879
-1321 107 -75 244 -153 338 -191 79 -31 415 -108 544 -124 34 -4 106 7 257 38
25 5 87 17 139 25 164 28 324 98 524 231 262 175 450 439 872 1229 323 603
437 847 684 1468 131 329 160 412 164 464 2 24 7 28 35 31 17 2 32 7 32 12 0
25 -222 160 -440 267 -134 65 -382 201 -431 235 -17 12 -57 1 -274 -76 -55
-19 -167 -53 -250 -76 -82 -22 -211 -58 -285 -80 -74 -22 -180 -49 -235 -59
-55 -11 -143 -29 -195 -41 -129 -29 -412 -60 -543 -60 -114 0 -386 36 -542 72
-277 63 -354 83 -495 128 -85 27 -209 65 -276 84 -66 19 -156 49 -200 66 -83
33 -244 90 -253 90 -4 0 -11 -7 -16 -14z m340 -160 c530 -172 731 -225 1090
-287 285 -48 449 -48 760 0 139 22 407 76 480 96 28 8 111 32 185 54 74 22
173 49 220 61 100 25 243 70 318 99 72 29 75 28 70 -21 -7 -62 -254 -759 -276
-779 -16 -14 -399 -89 -607 -119 -706 -101 -1298 -70 -2070 110 -49 12 -102
24 -117 27 -24 5 -31 17 -68 122 -89 248 -220 658 -220 688 l0 33 48 -19 c26
-11 110 -40 187 -65z m-191 -331 c184 -550 341 -929 611 -1474 270 -544 427
-794 630 -996 140 -140 224 -180 375 -179 140 0 220 38 359 169 244 231 520
686 886 1460 103 217 131 279 195 430 85 200 179 454 297 803 30 89 60 162 66
162 6 0 67 -31 136 -69 69 -38 191 -101 271 -141 197 -98 350 -189 350 -207 0
-8 -22 -68 -50 -132 -27 -65 -50 -125 -50 -133 0 -20 -148 -393 -273 -688
-141 -336 -587 -1202 -785 -1525 -261 -428 -384 -565 -654 -728 -175 -106
-277 -142 -523 -182 -55 -9 -131 -23 -168 -30 -65 -13 -76 -12 -220 17 -84 16
-188 36 -232 44 -197 36 -494 209 -661 386 -101 107 -186 228 -317 448 -140
235 -145 245 -380 715 -315 630 -378 775 -597 1360 -122 329 -137 364 -170
401 -27 31 -48 79 -39 89 17 17 215 125 331 181 79 38 211 103 293 146 83 43
158 76 168 75 14 -2 45 -86 151 -402z m495 -544 c127 -28 283 -57 348 -66 65
-9 143 -20 173 -25 268 -48 702 -59 1047 -29 315 28 496 55 870 130 35 7 65
10 68 8 12 -13 -228 -530 -411 -887 -229 -446 -372 -678 -545 -885 -140 -169
-239 -244 -360 -276 -74 -19 -77 -19 -142 -1 -96 27 -160 65 -241 145 -140
137 -280 333 -427 599 -223 400 -653 1336 -615 1336 3 0 109 -22 235 -49z"/>
</g>
</svg>
