<?xml version="1.0" standalone="no"?>
<!DOCTYPE svg PUBLIC "-//W3C//DTD SVG 20010904//EN"
 "http://www.w3.org/TR/2001/REC-SVG-20010904/DTD/svg10.dtd">
<svg version="1.0" xmlns="http://www.w3.org/2000/svg"
 width="2048.000000pt" height="2048.000000pt" viewBox="0 0 2048.000000 2048.000000"
 preserveAspectRatio="xMidYMid meet">
<metadata>
Created by potrace 1.16, written by Peter Selinger 2001-2019
</metadata>
<g transform="translate(0.000000,2048.000000) scale(0.100000,-0.100000)"
fill="#000000" stroke="none">
<path d="M8360 17601 c-91 -48 -196 -107 -235 -131 -87 -53 -180 -108 -220
-128 -31 -16 -253 -159 -269 -173 -14 -12 14 -40 36 -37 16 2 39 -36 128 -210
60 -118 132 -253 159 -300 27 -48 85 -152 129 -232 109 -199 127 -231 189
-340 77 -132 134 -220 143 -220 5 0 102 -100 216 -222 113 -123 223 -239 243
-258 20 -19 101 -98 181 -175 465 -451 885 -790 1074 -868 89 -36 137 -33 239
16 138 65 404 255 646 461 416 353 449 383 833 763 233 231 295 299 335 363
128 209 279 460 301 500 14 25 42 72 62 105 58 93 202 350 255 453 38 74 52
92 66 89 22 -6 57 18 46 30 -17 17 -205 144 -272 184 -38 23 -126 79 -195 124
-69 45 -179 111 -245 147 -66 36 -134 73 -152 84 -29 17 -33 17 -50 2 -21 -19
-270 -107 -421 -150 -59 -16 -179 -50 -267 -74 -239 -67 -417 -102 -640 -124
-218 -22 -560 -27 -642 -10 -26 6 -106 17 -178 25 -204 22 -426 75 -695 165
-30 11 -102 33 -160 50 -58 18 -132 42 -165 55 -185 71 -276 108 -281 116 -10
16 -27 9 -194 -80z m295 -31 c168 -66 349 -126 670 -223 79 -24 232 -61 370
-91 39 -8 126 -20 195 -26 69 -6 141 -16 161 -22 49 -14 473 -4 664 15 237 25
394 59 825 181 121 34 326 101 408 133 35 14 65 23 68 21 5 -6 -47 -270 -76
-388 -24 -96 -52 -193 -82 -291 l-21 -66 -71 -21 c-39 -12 -98 -27 -131 -32
-33 -6 -150 -29 -260 -50 -218 -43 -454 -75 -835 -115 -135 -14 -250 -27 -256
-30 -6 -2 -56 3 -110 11 -55 9 -160 24 -234 34 -340 47 -589 89 -746 125 -60
14 -158 36 -219 50 -60 13 -146 34 -190 47 -78 23 -80 25 -93 63 -33 99 -125
516 -137 620 -4 33 -9 69 -12 79 -6 22 -5 22 112 -24z m-162 -40 c10 -94 64
-360 104 -510 19 -74 35 -142 35 -150 0 -8 5 -31 13 -50 7 -19 32 -93 55 -165
119 -366 193 -480 514 -793 254 -247 370 -343 637 -529 162 -112 315 -183 397
-183 95 0 279 89 512 248 162 110 174 120 375 292 207 177 425 392 487 480 66
93 148 263 208 430 29 80 58 159 65 175 7 17 16 44 18 60 3 17 17 73 32 125
64 229 103 395 122 528 3 23 9 45 14 47 4 3 38 -11 76 -31 64 -35 455 -274
516 -316 16 -11 49 -33 73 -50 25 -17 48 -36 50 -43 4 -10 -46 -110 -151 -300
-35 -63 -283 -486 -379 -645 -140 -232 -171 -281 -192 -301 -10 -10 -143 -142
-294 -292 -308 -306 -594 -564 -890 -803 -351 -283 -525 -393 -640 -402 -98
-7 -223 63 -485 273 -329 265 -734 646 -1052 990 -102 110 -209 223 -237 250
-61 58 -156 216 -411 685 -38 69 -86 157 -107 195 -73 133 -208 404 -208 418
0 15 96 78 331 217 177 105 390 219 400 214 3 -2 9 -31 12 -64z m322 -766 c71
-18 236 -56 390 -90 140 -30 401 -73 755 -124 74 -11 165 -24 202 -30 84 -12
69 -13 403 21 370 38 821 101 882 124 6 2 65 13 130 25 65 12 137 28 161 36
84 28 84 27 42 -88 -73 -202 -141 -340 -216 -438 -84 -111 -447 -448 -664
-617 -84 -65 -317 -220 -400 -266 -89 -49 -214 -97 -252 -97 -180 0 -767 439
-1164 871 -126 137 -178 212 -237 344 -37 84 -127 332 -127 351 0 3 8 3 18 -1
9 -3 44 -13 77 -21z"/>
</g>
</svg>
