<?xml version="1.0" standalone="no"?>
<!DOCTYPE svg PUBLIC "-//W3C//DTD SVG 20010904//EN"
 "http://www.w3.org/TR/2001/REC-SVG-20010904/DTD/svg10.dtd">
<svg version="1.0" xmlns="http://www.w3.org/2000/svg"
 width="2048.000000pt" height="2048.000000pt" viewBox="0 0 2048.000000 2048.000000"
 preserveAspectRatio="xMidYMid meet">
<metadata>
Created by potrace 1.16, written by Peter Selinger 2001-2019
</metadata>
<g transform="translate(0.000000,2048.000000) scale(0.100000,-0.100000)"
fill="#000000" stroke="none">
<path d="M8099 17491 c-45 -9 -55 -17 -170 -124 -52 -48 -134 -116 -184 -150
-94 -66 -117 -97 -70 -97 27 0 108 50 213 132 49 40 62 46 62 31 1 -55 88
-268 175 -423 312 -559 313 -560 421 -682 225 -250 481 -434 770 -552 201 -82
325 -110 642 -147 211 -24 353 -24 564 0 317 37 441 65 642 147 289 118 545
302 770 552 108 122 109 123 421 682 87 155 174 368 175 423 0 15 13 9 63 -31
104 -82 185 -132 212 -132 47 0 24 31 -70 97 -50 34 -132 102 -184 150 -116
109 -125 115 -173 123 -32 6 -64 -1 -171 -36 -73 -24 -199 -55 -282 -69 -133
-24 -190 -27 -510 -35 -308 -7 -532 -16 -895 -34 -41 -2 -115 0 -165 5 -60 5
-94 4 -102 -3 -9 -7 -17 -7 -26 0 -8 7 -42 8 -102 3 -50 -5 -124 -7 -165 -5
-363 18 -587 27 -895 34 -320 8 -377 11 -510 35 -82 14 -206 44 -275 67 -155
50 -139 47 -181 39z m441 -162 c163 -28 201 -31 550 -39 206 -5 481 -14 610
-20 270 -14 502 -9 525 10 12 10 18 10 30 0 23 -19 255 -24 525 -10 129 6 404
15 610 20 349 8 387 11 550 39 118 20 216 44 301 73 l127 44 61 -50 c46 -36
60 -53 55 -65 -4 -9 -22 -59 -39 -111 -18 -53 -57 -147 -86 -209 l-54 -114
-330 -4 c-182 -2 -499 -10 -705 -18 -688 -27 -954 -37 -1030 -37 -76 0 -342
10 -1030 37 -206 8 -523 16 -705 18 l-330 4 -54 114 c-29 62 -68 156 -86 209
-17 52 -35 102 -39 111 -5 12 9 29 55 65 l61 50 127 -44 c85 -29 183 -53 301
-73z m730 -514 c201 -8 501 -20 667 -26 235 -9 371 -9 606 0 876 34 1061 41
1381 47 l348 6 -25 -43 c-14 -24 -76 -134 -137 -244 -133 -239 -184 -308 -340
-459 -172 -166 -306 -263 -485 -351 -189 -93 -320 -138 -493 -169 -378 -67
-726 -67 -1104 0 -173 31 -304 76 -493 169 -179 88 -313 185 -485 351 -156
151 -207 220 -340 459 -61 110 -123 220 -137 244 l-25 43 348 -6 c192 -4 513
-13 714 -21z M7560 17070 c-14 -33 -12 -37 46 -149 106 -205 384 -660 534
-873 82 -117 246 -288 374 -391 183 -146 472 -329 649 -412 282 -131 489 -179
894 -205 207 -14 446 -3 683 31 345 49 606 159 996 420 262 175 471 367 604
557 150 213 428 668 535 874 59 115 60 116 44 148 l-15 33 -21 -34 c-12 -19
-56 -99 -98 -179 -138 -260 -438 -739 -560 -895 -77 -98 -233 -250 -342 -333
-261 -198 -594 -383 -828 -461 -206 -68 -485 -103 -815 -103 -330 0 -609 35
-815 103 -234 78 -567 263 -828 461 -109 83 -265 235 -342 333 -123 157 -419
631 -566 906 -46 86 -91 167 -100 179 l-15 23 -14 -33z"/>
</g>
</svg>
