<?xml version="1.0" standalone="no"?>
<!DOCTYPE svg PUBLIC "-//W3C//DTD SVG 20010904//EN"
 "http://www.w3.org/TR/2001/REC-SVG-20010904/DTD/svg10.dtd">
<svg version="1.0" xmlns="http://www.w3.org/2000/svg"
 width="2048.000000pt" height="2048.000000pt" viewBox="0 0 2048.000000 2048.000000"
 preserveAspectRatio="xMidYMid meet">
<metadata>
Created by potrace 1.16, written by Peter Selinger 2001-2019
</metadata>
<g transform="translate(0.000000,2048.000000) scale(0.100000,-0.100000)"
fill="#000000" stroke="none">
<path d="M7697 17733 c-4 -3 -4 -118 0 -255 6 -239 6 -248 -13 -248 -16 0 -14
-4 11 -30 24 -24 69 -41 240 -94 510 -156 756 -219 1063 -270 353 -60 622 -76
1242 -76 1006 0 1341 50 2305 346 171 53 216 70 240 94 25 26 27 30 11 30 -19
0 -19 9 -13 249 5 157 3 252 -3 256 -5 3 -80 -1 -167 -10 -86 -9 -265 -20
-398 -25 -132 -5 -332 -15 -445 -22 -290 -18 -2770 -18 -3060 0 -113 7 -315
17 -450 22 -135 6 -310 17 -390 25 -170 17 -165 17 -173 8z m259 -148 c204
-75 294 -102 594 -179 250 -64 422 -95 720 -130 487 -58 512 -59 970 -59 458
0 483 1 970 59 365 43 644 101 1036 214 113 33 451 155 468 169 13 11 10 -388
-3 -423 -8 -21 -87 -47 -544 -182 -311 -91 -705 -172 -988 -203 -462 -51
-1416 -51 -1878 0 -283 31 -677 112 -988 203 -457 135 -536 161 -544 182 -13
35 -16 434 -3 423 6 -5 91 -38 190 -74z m609 44 c402 -24 2802 -31 3145 -9
309 19 747 32 765 23 42 -24 -646 -216 -955 -267 -162 -27 -468 -64 -749 -91
-114 -10 -278 -15 -531 -15 -253 0 -417 5 -531 15 -281 27 -587 64 -749 91
-298 49 -993 242 -958 266 14 9 292 3 563 -13z"/>
</g>
</svg>
