<?xml version="1.0" standalone="no"?>
<!DOCTYPE svg PUBLIC "-//W3C//DTD SVG 20010904//EN"
 "http://www.w3.org/TR/2001/REC-SVG-20010904/DTD/svg10.dtd">
<svg version="1.0" xmlns="http://www.w3.org/2000/svg"
 width="2048.000000pt" height="2048.000000pt" viewBox="0 0 2048.000000 2048.000000"
 preserveAspectRatio="xMidYMid meet">
<metadata>
Created by potrace 1.16, written by Peter Selinger 2001-2019
</metadata>
<g transform="translate(0.000000,2048.000000) scale(0.100000,-0.100000)"
fill="#000000" stroke="none">
<path d="M8544 17669 c-186 -128 -293 -194 -421 -260 -64 -33 -129 -69 -143
-78 -14 -10 -72 -44 -130 -77 -123 -68 -206 -120 -214 -133 -3 -5 1 -14 10
-21 12 -11 21 -10 50 3 19 10 37 17 40 17 2 0 13 -19 23 -42 10 -24 43 -86 73
-138 30 -52 110 -203 178 -335 68 -132 166 -321 219 -420 107 -200 272 -531
349 -700 48 -106 182 -374 201 -405 24 -38 160 -299 286 -550 76 -151 198
-385 270 -520 125 -233 213 -398 275 -520 16 -30 87 -174 159 -320 198 -404
218 -438 290 -489 68 -47 221 -121 251 -121 11 0 70 25 131 56 177 88 169 77
427 594 205 412 246 493 351 685 75 137 247 468 379 730 56 110 135 263 177
340 118 221 186 357 273 545 92 197 228 469 369 735 53 99 143 272 201 385 57
113 131 251 163 306 32 56 66 120 75 143 9 22 18 41 21 41 2 0 17 -7 34 -16
35 -18 72 -10 67 14 -2 9 -24 28 -49 42 -50 28 -164 94 -251 146 -31 19 -105
60 -164 90 -123 64 -218 122 -388 236 -101 69 -121 79 -140 70 -11 -6 -48 -19
-81 -30 -33 -11 -109 -39 -170 -62 -60 -23 -157 -55 -215 -70 -58 -16 -154
-43 -215 -60 -60 -18 -182 -47 -270 -64 -88 -18 -169 -36 -180 -39 -11 -4
-132 -20 -270 -38 -137 -17 -253 -32 -256 -35 -4 -2 -52 2 -106 10 -54 8 -162
22 -239 32 -158 18 -501 86 -669 132 -60 17 -159 44 -220 60 -60 17 -130 39
-155 50 -25 10 -99 38 -165 61 -66 24 -128 47 -137 52 -27 14 -31 12 -94 -32z
m3441 -170 c-9 -56 -22 -131 -30 -168 -8 -36 -26 -127 -40 -201 -14 -74 -30
-146 -34 -160 -5 -14 -12 -36 -15 -51 -5 -21 -15 -27 -68 -41 -35 -9 -99 -25
-143 -36 -44 -11 -159 -37 -255 -57 -96 -20 -233 -52 -305 -71 -292 -75 -324
-78 -790 -78 -452 0 -493 4 -730 64 -109 28 -352 85 -515 120 -104 22 -240 56
-307 75 -3 1 -50 220 -84 390 -46 235 -63 344 -56 351 6 7 105 -26 287 -96 47
-18 132 -45 190 -60 58 -15 170 -46 250 -68 80 -23 210 -52 290 -67 80 -14
166 -30 191 -36 53 -12 440 -61 484 -61 44 0 444 50 490 62 22 5 96 19 165 31
69 11 202 41 295 66 94 25 208 55 255 68 47 12 130 38 185 58 192 69 286 105
293 112 14 14 13 -48 -3 -146z m-3427 44 c66 -341 86 -437 111 -553 48 -224
88 -368 152 -561 73 -219 103 -294 204 -505 43 -87 115 -244 162 -349 47 -104
116 -247 154 -316 38 -70 69 -129 69 -132 0 -6 338 -569 395 -657 54 -85 98
-156 123 -200 11 -19 57 -96 102 -170 46 -74 88 -144 94 -155 25 -46 59 -85
86 -102 17 -9 30 -23 30 -30 0 -16 40 -33 76 -33 34 0 148 117 200 205 52 88
274 452 344 565 29 47 88 144 130 216 43 72 89 149 102 170 103 163 246 433
318 599 34 77 77 172 95 210 18 39 58 122 88 185 204 431 334 874 448 1535 12
66 24 123 28 127 4 4 33 -11 66 -34 88 -61 283 -178 334 -201 24 -11 87 -45
140 -76 53 -32 123 -73 156 -91 33 -18 62 -35 64 -36 2 -2 -4 -15 -13 -29 -9
-14 -27 -45 -40 -68 -12 -23 -46 -85 -76 -137 -29 -52 -99 -185 -155 -295 -56
-110 -148 -287 -204 -393 -130 -246 -254 -496 -321 -642 -29 -63 -90 -192
-136 -286 -46 -95 -84 -177 -84 -183 0 -6 -4 -11 -9 -11 -14 0 -104 -169 -361
-680 -63 -124 -160 -313 -218 -420 -215 -402 -181 -337 -447 -872 -134 -270
-175 -345 -206 -373 -40 -36 -227 -135 -255 -135 -29 0 -196 94 -246 138 -44
40 -68 84 -273 495 -123 249 -246 493 -273 542 -48 89 -118 221 -225 425 -30
58 -103 202 -162 320 -153 305 -285 551 -301 557 -8 3 -14 12 -14 19 0 8 -40
97 -89 197 -48 100 -99 207 -112 237 -37 86 -258 531 -336 675 -39 72 -130
247 -203 390 -73 143 -155 297 -181 343 -56 94 -102 183 -97 186 3 3 65 40
208 124 47 27 126 70 175 96 99 50 245 139 315 192 25 18 48 34 51 34 3 0 11
-26 17 -57z m347 -749 c44 -12 141 -34 215 -48 74 -14 207 -45 295 -67 371
-95 452 -104 895 -103 388 0 534 13 720 61 165 43 340 84 485 113 77 16 182
40 233 54 51 15 95 26 96 26 5 0 -18 -94 -44 -180 -77 -263 -147 -450 -240
-645 -34 -71 -75 -158 -91 -192 -16 -35 -42 -92 -59 -128 -16 -35 -30 -67 -30
-69 0 -3 -18 -44 -40 -91 -22 -47 -40 -87 -40 -89 0 -10 -209 -392 -254 -466
-29 -47 -93 -152 -142 -234 -49 -82 -105 -175 -124 -206 -19 -31 -109 -180
-200 -330 -153 -253 -169 -276 -218 -308 -49 -33 -54 -34 -80 -21 -58 30 -114
106 -281 385 -96 159 -251 415 -344 569 -93 154 -179 300 -191 325 -12 25 -37
72 -56 105 -44 77 -127 246 -150 304 -10 25 -81 181 -157 346 -163 349 -254
594 -308 820 -9 39 -19 78 -21 88 -6 20 -4 20 131 -19z"/>
</g>
</svg>
