<?xml version="1.0" standalone="no"?>
<!DOCTYPE svg PUBLIC "-//W3C//DTD SVG 20010904//EN"
 "http://www.w3.org/TR/2001/REC-SVG-20010904/DTD/svg10.dtd">
<svg version="1.0" xmlns="http://www.w3.org/2000/svg"
 width="2048.000000pt" height="2048.000000pt" viewBox="0 0 2048.000000 2048.000000"
 preserveAspectRatio="xMidYMid meet">
<metadata>
Created by potrace 1.16, written by Peter Selinger 2001-2019
</metadata>
<g transform="translate(0.000000,2048.000000) scale(0.100000,-0.100000)"
fill="#000000" stroke="none">
<path d="M11755 17654 c-353 -139 -649 -226 -935 -274 -69 -11 -147 -25 -175
-30 -240 -46 -768 -33 -1029 25 -39 8 -127 26 -196 40 -157 31 -493 134 -713
220 -93 36 -180 65 -193 65 -50 0 -371 -183 -620 -352 -91 -62 -178 -120 -195
-129 -27 -15 -69 -59 -69 -73 0 -3 13 -6 29 -6 16 0 33 -6 38 -12 6 -7 36 -78
68 -158 105 -262 214 -468 378 -715 188 -282 340 -469 528 -650 312 -299 799
-513 1324 -580 72 -9 153 -20 180 -24 28 -4 68 -4 90 0 22 4 85 12 140 18 525
59 1044 283 1367 589 186 176 443 512 638 832 70 114 209 401 258 530 68 178
69 180 100 180 16 0 31 3 35 6 8 8 -42 74 -55 74 -5 0 -94 56 -196 124 -286
190 -585 357 -636 356 -12 -1 -84 -26 -161 -56z m175 -7 c0 -11 -34 -134 -75
-267 -28 -92 -164 -413 -203 -481 -37 -62 -39 -64 -87 -71 -28 -4 -81 -14
-120 -23 -38 -9 -149 -30 -245 -46 -96 -16 -202 -33 -235 -38 -33 -6 -141 -20
-240 -31 -99 -11 -211 -25 -250 -32 -85 -14 -410 -14 -520 0 -44 6 -199 24
-345 41 -146 17 -283 35 -305 40 -22 5 -85 17 -140 26 -55 10 -138 26 -185 37
-47 11 -103 23 -124 26 -37 7 -42 12 -79 79 -95 177 -292 714 -270 734 5 3 89
-25 188 -63 181 -70 320 -116 515 -170 58 -16 121 -33 140 -39 59 -16 418 -77
535 -90 269 -30 690 -9 980 50 321 65 589 144 875 259 197 79 190 76 190 59z
m182 -89 c161 -87 469 -281 562 -353 18 -14 16 -21 -49 -187 -153 -389 -384
-779 -658 -1113 -237 -289 -423 -438 -728 -584 -259 -124 -581 -213 -872 -240
-60 -6 -113 -13 -118 -17 -5 -3 -42 -1 -82 5 -39 5 -112 15 -162 21 -213 25
-358 58 -554 126 -269 94 -511 228 -696 385 -88 74 -279 286 -388 432 -162
215 -305 444 -413 659 -69 137 -204 458 -204 483 0 10 272 195 430 292 70 43
253 143 262 143 3 0 8 -8 11 -17 170 -594 408 -1028 708 -1293 102 -91 153
-130 229 -176 94 -57 356 -175 497 -223 l122 -42 228 4 228 3 135 51 c191 72
435 193 532 265 181 133 366 339 493 548 119 196 239 477 315 737 25 84 48
153 52 153 4 0 58 -28 120 -62z m-573 -851 c-88 -144 -277 -345 -429 -459 -92
-69 -328 -187 -515 -259 l-140 -53 -215 -3 c-157 -1 -229 2 -265 12 -181 49
-524 210 -655 306 -47 34 -134 112 -195 173 -127 128 -272 323 -254 341 3 2
27 -2 54 -11 45 -13 361 -68 540 -94 102 -15 412 -49 545 -60 63 -6 141 -13
174 -16 32 -4 88 -2 125 4 36 6 145 18 241 26 97 9 198 20 225 26 28 5 124 19
215 30 155 18 504 81 553 99 33 13 32 -3 -4 -62z"/>
</g>
</svg>
