<?xml version="1.0" standalone="no"?>
<!DOCTYPE svg PUBLIC "-//W3C//DTD SVG 20010904//EN"
 "http://www.w3.org/TR/2001/REC-SVG-20010904/DTD/svg10.dtd">
<svg version="1.0" xmlns="http://www.w3.org/2000/svg"
 width="2048.000000pt" height="2048.000000pt" viewBox="0 0 2048.000000 2048.000000"
 preserveAspectRatio="xMidYMid meet">
<metadata>
Created by potrace 1.16, written by Peter Selinger 2001-2019
</metadata>
<g transform="translate(0.000000,2048.000000) scale(0.100000,-0.100000)"
fill="#000000" stroke="none">
<path d="M8124 17870 c-12 -4 -34 -30 -49 -57 -16 -26 -69 -107 -119 -180
-103 -149 -145 -216 -226 -355 -32 -54 -60 -95 -64 -91 -18 18 -1 -29 40 -110
254 -503 545 -1031 752 -1365 229 -367 578 -779 782 -924 170 -120 287 -159
420 -138 97 15 148 38 237 106 136 105 223 218 294 387 22 50 39 77 49 77 10
0 27 -27 49 -77 71 -169 158 -282 294 -387 89 -68 140 -91 237 -106 133 -21
250 18 420 138 204 145 553 557 782 924 207 334 498 862 752 1365 41 81 58
128 40 110 -4 -4 -32 37 -64 91 -80 138 -122 204 -230 361 -52 77 -107 159
-122 184 -37 63 -63 67 -247 34 -368 -66 -1030 -164 -1365 -202 -73 -8 -1016
-9 -1083 -1 -27 3 -106 13 -178 21 -264 32 -1037 150 -1240 190 -88 17 -129
18 -161 5z m133 -175 c200 -301 494 -705 773 -1060 70 -88 188 -242 264 -343
261 -349 746 -921 837 -988 27 -20 49 -37 49 -39 0 -2 -22 -51 -49 -108 -63
-134 -115 -210 -193 -282 -135 -123 -221 -160 -361 -153 -70 3 -94 9 -161 41
-44 21 -109 59 -145 84 -186 132 -499 494 -716 826 -174 268 -379 633 -704
1255 l-122 233 44 77 c61 106 191 309 268 417 35 50 75 114 89 142 14 28 26
50 26 49 1 0 47 -69 101 -151z m4193 -55 c77 -108 192 -289 257 -402 l44 -77
-122 -233 c-325 -622 -530 -987 -704 -1255 -217 -332 -530 -694 -716 -826 -36
-25 -101 -63 -145 -84 -67 -32 -91 -38 -161 -41 -140 -7 -226 30 -361 153 -79
72 -130 148 -194 283 l-50 106 34 28 c18 15 36 28 40 28 23 1 626 720 813 970
76 102 195 257 265 345 272 346 614 815 794 1091 l79 121 30 -56 c16 -31 60
-99 97 -151z m-3885 120 c259 -42 659 -102 945 -142 156 -22 196 -23 730 -23
534 0 574 1 730 23 276 38 751 110 1005 151 132 22 241 38 243 37 7 -8 -497
-724 -566 -804 -27 -31 -30 -32 -217 -57 -632 -83 -1087 -135 -1195 -135 -108
0 -563 52 -1195 135 -187 25 -190 26 -217 57 -62 72 -568 788 -568 805 0 2 12
2 28 -1 15 -3 140 -24 277 -46z m580 -885 c336 -43 755 -94 927 -111 156 -15
179 -15 340 1 173 17 990 117 1102 135 33 5 61 8 63 7 1 -2 -75 -102 -169
-223 -95 -120 -214 -277 -266 -349 -212 -290 -738 -910 -828 -975 -59 -42 -89
-42 -148 0 -90 65 -614 682 -831 980 -55 74 -162 216 -240 315 -77 99 -154
197 -170 219 l-29 39 29 -7 c17 -3 116 -17 220 -31z"/>
</g>
</svg>
