<?xml version="1.0" standalone="no"?>
<!DOCTYPE svg PUBLIC "-//W3C//DTD SVG 20010904//EN"
 "http://www.w3.org/TR/2001/REC-SVG-20010904/DTD/svg10.dtd">
<svg version="1.0" xmlns="http://www.w3.org/2000/svg"
 width="2048.000000pt" height="2048.000000pt" viewBox="0 0 2048.000000 2048.000000"
 preserveAspectRatio="xMidYMid meet">
<metadata>
Created by potrace 1.16, written by Peter Selinger 2001-2019
</metadata>
<g transform="translate(0.000000,2048.000000) scale(0.100000,-0.100000)"
fill="#000000" stroke="none">
<path d="M7263 7572 c-12 -7 -124 -327 -120 -341 0 -3 -3 -15 -9 -26 -6 -11
-34 -96 -64 -190 -29 -93 -61 -192 -71 -220 -18 -53 -119 -363 -196 -605 -25
-80 -50 -154 -54 -165 -5 -11 -45 -132 -90 -270 -44 -137 -114 -351 -154 -475
-71 -217 -247 -763 -299 -923 l-25 -78 71 -257 c38 -141 74 -270 78 -287 4
-16 24 -88 43 -160 20 -71 57 -206 82 -300 25 -93 52 -192 60 -220 63 -230 85
-315 85 -331 0 -11 4 -25 8 -32 7 -11 2202 -15 7083 -12 l147 0 5 38 c3 20 15
71 27 112 12 41 25 91 30 110 4 19 19 73 33 120 13 47 48 173 77 280 28 107
55 206 60 220 4 14 15 52 24 85 9 33 47 173 85 310 81 297 86 323 71 372 -36
116 -103 323 -115 353 -7 19 -28 82 -45 140 -18 58 -47 150 -65 205 -18 55
-75 228 -125 385 -51 157 -127 391 -170 520 -42 129 -107 327 -143 440 -37
113 -95 293 -130 400 -35 107 -81 249 -102 315 -21 66 -42 122 -47 123 -4 2
-8 12 -8 23 0 25 -75 263 -98 309 l-17 35 -2955 2 c-1625 2 -2961 -1 -2967 -5z
m5898 -49 c7 -9 11 -20 140 -415 50 -153 95 -280 100 -284 5 -3 7 -9 4 -14 -6
-9 21 -94 155 -500 32 -96 70 -213 84 -260 15 -47 56 -173 91 -280 35 -107
118 -364 185 -570 67 -206 142 -433 165 -505 23 -71 63 -193 88 -271 l46 -141
-18 -69 c-10 -38 -39 -144 -65 -235 -25 -91 -46 -174 -46 -183 0 -9 -5 -24
-10 -34 -6 -9 -23 -66 -39 -127 -81 -299 -221 -808 -224 -812 -2 -1 -24 0 -49
3 -43 6 -45 8 -39 33 6 20 14 27 39 29 50 5 37 22 -17 22 -46 0 -48 -1 -47
-27 0 -16 -3 -41 -7 -56 l-8 -29 61 4 61 3 -6 -35 c-9 -47 -15 -52 -66 -48
-35 2 -43 7 -41 20 4 28 -14 29 -27 2 -9 -20 -17 -25 -39 -22 -24 3 -27 7 -24
36 4 42 -12 42 -24 0 l-10 -33 -3344 -2 c-3125 -3 -3346 -2 -3357 14 -7 9 -13
27 -13 39 0 20 -6 23 -51 26 l-52 3 -14 48 c-16 54 -38 66 -28 15 11 -53 37
-82 80 -88 36 -5 60 -31 48 -52 -10 -17 -49 -6 -70 20 l-22 27 -1 -27 c0 -26
-3 -28 -45 -28 -38 0 -47 4 -54 23 -11 27 -6 37 20 37 10 0 19 5 19 10 0 6
-13 10 -29 10 -21 0 -30 6 -35 23 -11 41 -7 47 29 47 19 0 35 5 35 10 0 6 -18
10 -39 10 -29 0 -41 5 -45 18 -3 9 -21 76 -41 147 -39 136 -52 187 -129 475
-26 96 -53 195 -61 220 -16 49 -95 339 -126 460 l-20 75 47 145 c25 80 50 154
54 165 5 11 54 162 110 335 56 173 130 403 165 510 35 107 90 274 121 370 31
96 94 290 139 430 149 455 177 545 179 565 2 11 7 29 13 40 11 21 83 235 173
517 50 156 55 167 79 170 59 7 5845 -3 5852 -9z M10097 7454 c-17 -17 -3 -24
49 -24 40 0 55 4 52 13 -5 13 -89 22 -101 11z M10247 7454 c-15 -15 7 -24 59
-24 40 0 55 4 52 13 -5 13 -99 23 -111 11z M8422 7442 c-18 -2 -30 -8 -27 -13
8 -12 92 -12 99 0 7 11 -28 17 -72 13z M8557 7444 c-17 -18 -4 -25 41 -22 26
2 47 8 47 13 0 12 -77 19 -88 9z M8705 7440 c-3 -6 0 -13 8 -16 24 -9 80 0 85
14 5 15 -84 17 -93 2z M8856 7441 c-3 -5 1 -12 10 -15 35 -13 99 -2 88 15 -3
5 -25 9 -49 9 -24 0 -46 -4 -49 -9z M9010 7440 c0 -5 23 -10 50 -10 28 0 50 5
50 10 0 6 -22 10 -50 10 -27 0 -50 -4 -50 -10z M9165 7440 c-4 -6 15 -10 50
-10 35 0 54 4 50 10 -3 6 -26 10 -50 10 -24 0 -47 -4 -50 -10z M9320 7440 c0
-5 23 -10 50 -10 28 0 50 5 50 10 0 6 -22 10 -50 10 -27 0 -50 -4 -50 -10z
M9470 7440 c0 -5 23 -10 50 -10 28 0 50 5 50 10 0 6 -22 10 -50 10 -27 0 -50
-4 -50 -10z M9630 7440 c0 -5 23 -10 50 -10 28 0 50 5 50 10 0 6 -22 10 -50
10 -27 0 -50 -4 -50 -10z M9780 7440 c0 -5 23 -10 50 -10 28 0 50 5 50 10 0 6
-22 10 -50 10 -27 0 -50 -4 -50 -10z M9935 7440 c3 -5 26 -10 50 -10 24 0 47
5 50 10 4 6 -15 10 -50 10 -35 0 -54 -4 -50 -10z M10410 7440 c0 -5 23 -10 50
-10 28 0 50 5 50 10 0 6 -22 10 -50 10 -27 0 -50 -4 -50 -10z M10565 7440 c3
-5 28 -10 56 -10 27 0 49 5 49 10 0 6 -25 10 -56 10 -34 0 -53 -4 -49 -10z
M10720 7440 c0 -5 23 -10 50 -10 28 0 50 5 50 10 0 6 -22 10 -50 10 -27 0 -50
-4 -50 -10z M10870 7440 c0 -5 25 -10 56 -10 34 0 53 4 49 10 -3 6 -28 10 -56
10 -27 0 -49 -4 -49 -10z M11030 7440 c0 -5 23 -10 50 -10 28 0 50 5 50 10 0
6 -22 10 -50 10 -27 0 -50 -4 -50 -10z M11180 7440 c0 -5 23 -10 50 -10 28 0
50 5 50 10 0 6 -22 10 -50 10 -27 0 -50 -4 -50 -10z M11340 7440 c0 -5 23 -10
51 -10 31 0 48 4 44 10 -3 6 -26 10 -51 10 -24 0 -44 -4 -44 -10z M11495 7440
c-7 -11 34 -23 66 -18 12 2 24 9 27 16 5 15 -84 17 -93 2z M11645 7440 c-3 -5
0 -13 8 -16 23 -8 92 0 92 11 0 14 -92 19 -100 5z M11805 7440 c-3 -5 0 -13 8
-16 23 -8 82 0 82 11 0 14 -82 19 -90 5z M11972 7442 c-12 -2 -20 -8 -17 -13
8 -12 92 -12 99 0 6 10 -46 18 -82 13z M7319 7438 c0 -2 -2 -16 -3 -33 -1 -16
-5 -40 -10 -52 -7 -21 -4 -23 33 -23 28 0 43 -5 50 -17 8 -16 12 -13 25 19 18
41 20 68 8 68 -5 0 -14 -11 -20 -25 -9 -19 -19 -25 -42 -25 -16 0 -30 2 -30 4
0 1 5 17 11 35 9 25 16 31 40 31 16 0 29 5 29 10 0 8 -88 16 -91 8z M7470
7430 c0 -5 23 -10 50 -10 28 0 50 5 50 10 0 6 -22 10 -50 10 -27 0 -50 -4 -50
-10z M7620 7430 c0 -5 23 -10 50 -10 28 0 50 5 50 10 0 6 -22 10 -50 10 -27 0
-50 -4 -50 -10z M7780 7430 c0 -5 23 -10 50 -10 28 0 50 5 50 10 0 6 -22 10
-50 10 -27 0 -50 -4 -50 -10z M7930 7430 c0 -5 23 -10 50 -10 28 0 50 5 50 10
0 6 -22 10 -50 10 -27 0 -50 -4 -50 -10z M8085 7430 c3 -5 26 -10 50 -10 24 0
47 5 50 10 4 6 -15 10 -50 10 -35 0 -54 -4 -50 -10z M8240 7430 c0 -5 23 -10
50 -10 28 0 50 5 50 10 0 6 -22 10 -50 10 -27 0 -50 -4 -50 -10z M12110 7430
c0 -5 23 -10 50 -10 28 0 50 5 50 10 0 6 -22 10 -50 10 -27 0 -50 -4 -50 -10z
M12260 7430 c0 -5 23 -10 50 -10 28 0 50 5 50 10 0 6 -22 10 -50 10 -27 0 -50
-4 -50 -10z M12420 7430 c0 -5 23 -10 50 -10 28 0 50 5 50 10 0 6 -22 10 -50
10 -27 0 -50 -4 -50 -10z M12570 7430 c0 -5 23 -10 50 -10 28 0 50 5 50 10 0
6 -22 10 -50 10 -27 0 -50 -4 -50 -10z M12720 7430 c0 -5 25 -10 55 -10 30 0
55 5 55 10 0 6 -25 10 -55 10 -30 0 -55 -4 -55 -10z M12880 7430 c0 -5 23 -10
50 -10 28 0 50 5 50 10 0 6 -22 10 -50 10 -27 0 -50 -4 -50 -10z M13035 7431
c-4 -7 5 -11 24 -11 20 0 34 -7 41 -19 18 -35 12 -51 -18 -51 -22 0 -32 7 -42
28 -17 37 -24 13 -10 -37 10 -40 30 -56 30 -26 0 11 11 15 40 15 l40 0 -4 53
-4 52 -45 3 c-25 2 -48 -2 -52 -7z M9942 7363 c-24 -10 0 -23 43 -23 45 0 67
13 39 24 -18 7 -63 7 -82 -1z M10097 7364 c-18 -18 -3 -25 48 -22 30 2 56 8
58 13 2 11 -95 20 -106 9z M10245 7360 c-3 -5 0 -13 8 -16 23 -8 102 0 102 11
0 14 -102 19 -110 5z M10422 7364 c-24 -11 0 -24 44 -24 32 0 44 4 42 13 -5
12 -63 20 -86 11z M8092 7353 c-24 -10 0 -23 43 -23 45 0 67 13 39 24 -18 7
-63 7 -82 -1z M8240 7351 c-12 -9 -12 -11 2 -16 23 -9 93 -2 93 10 0 13 -76
18 -95 6z M8395 7350 c-3 -6 0 -13 8 -16 24 -9 80 0 85 14 5 15 -84 17 -93 2z
M8545 7350 c-4 -6 15 -10 50 -10 35 0 54 4 50 10 -3 6 -26 10 -50 10 -24 0
-47 -4 -50 -10z M8700 7350 c0 -5 23 -10 50 -10 28 0 50 5 50 10 0 6 -22 10
-50 10 -27 0 -50 -4 -50 -10z M8855 7350 c-4 -6 15 -10 50 -10 35 0 54 4 50
10 -3 6 -26 10 -50 10 -24 0 -47 -4 -50 -10z M9010 7350 c0 -5 23 -10 50 -10
28 0 50 5 50 10 0 6 -22 10 -50 10 -27 0 -50 -4 -50 -10z M9160 7350 c0 -5 23
-10 50 -10 28 0 50 5 50 10 0 6 -22 10 -50 10 -27 0 -50 -4 -50 -10z M9320
7350 c0 -5 23 -10 50 -10 28 0 50 5 50 10 0 6 -22 10 -50 10 -27 0 -50 -4 -50
-10z M9470 7350 c0 -5 23 -10 50 -10 28 0 50 5 50 10 0 6 -22 10 -50 10 -27 0
-50 -4 -50 -10z M9625 7350 c3 -5 26 -10 50 -10 24 0 47 5 50 10 4 6 -15 10
-50 10 -35 0 -54 -4 -50 -10z M9780 7350 c0 -5 23 -10 50 -10 28 0 50 5 50 10
0 6 -22 10 -50 10 -27 0 -50 -4 -50 -10z M10570 7350 c0 -5 20 -10 44 -10 25
0 48 5 51 10 4 6 -13 10 -44 10 -28 0 -51 -4 -51 -10z M10720 7350 c0 -5 23
-10 50 -10 28 0 50 5 50 10 0 6 -22 10 -50 10 -27 0 -50 -4 -50 -10z M10875
7350 c3 -5 28 -10 56 -10 27 0 49 5 49 10 0 6 -25 10 -56 10 -34 0 -53 -4 -49
-10z M11030 7350 c0 -5 23 -10 50 -10 28 0 50 5 50 10 0 6 -22 10 -50 10 -27
0 -50 -4 -50 -10z M11180 7350 c0 -5 23 -10 50 -10 28 0 50 5 50 10 0 6 -22
10 -50 10 -27 0 -50 -4 -50 -10z M11340 7350 c0 -5 23 -10 50 -10 28 0 50 5
50 10 0 6 -22 10 -50 10 -27 0 -50 -4 -50 -10z M11490 7350 c0 -5 23 -10 50
-10 28 0 50 5 50 10 0 6 -22 10 -50 10 -27 0 -50 -4 -50 -10z M11650 7350 c0
-5 23 -10 51 -10 31 0 48 4 44 10 -3 6 -26 10 -51 10 -24 0 -44 -4 -44 -10z
M11800 7350 c0 -5 23 -10 50 -10 28 0 50 5 50 10 0 6 -22 10 -50 10 -27 0 -50
-4 -50 -10z M11955 7351 c-3 -6 5 -13 18 -16 32 -8 77 -3 80 10 3 13 -89 19
-98 6z M12115 7350 c-3 -5 0 -13 8 -16 23 -8 82 0 82 11 0 14 -82 19 -90 5z
M12267 7354 c-14 -14 6 -24 48 -24 45 0 67 13 39 24 -21 8 -79 8 -87 0z M7465
7340 c3 -5 28 -10 56 -10 27 0 49 5 49 10 0 6 -25 10 -56 10 -34 0 -53 -4 -49
-10z M7620 7340 c0 -5 23 -10 50 -10 28 0 50 5 50 10 0 6 -22 10 -50 10 -27 0
-50 -4 -50 -10z M7775 7340 c3 -5 26 -10 50 -10 24 0 47 5 50 10 4 6 -15 10
-50 10 -35 0 -54 -4 -50 -10z M7930 7340 c0 -5 20 -10 44 -10 25 0 48 5 51 10
4 6 -13 10 -44 10 -28 0 -51 -4 -51 -10z M12420 7340 c0 -5 20 -10 44 -10 25
0 48 5 51 10 4 6 -13 10 -44 10 -28 0 -51 -4 -51 -10z M12575 7340 c3 -5 26
-10 51 -10 24 0 44 5 44 10 0 6 -23 10 -51 10 -31 0 -48 -4 -44 -10z M12730
7340 c0 -5 23 -10 50 -10 28 0 50 5 50 10 0 6 -22 10 -50 10 -27 0 -50 -4 -50
-10z M12880 7340 c0 -5 23 -10 50 -10 28 0 50 5 50 10 0 6 -22 10 -50 10 -27
0 -50 -4 -50 -10z M7267 7235 c-9 -26 -12 -47 -6 -50 9 -6 23 22 35 70 11 44
-13 27 -29 -20z M13150 7265 c0 -23 29 -89 37 -82 8 9 -17 97 -28 97 -5 0 -9
-7 -9 -15z M7350 7205 c-7 -25 -10 -48 -7 -52 8 -7 37 59 37 82 0 31 -18 13
-30 -30z M13070 7232 c0 -28 20 -82 31 -82 11 0 11 7 -1 52 -12 41 -30 60 -30
30z M7220 7095 c-15 -46 -8 -82 8 -42 20 47 25 77 14 77 -6 0 -16 -16 -22 -35z
M13200 7119 c0 -23 23 -89 32 -89 11 0 10 15 -4 61 -10 36 -28 53 -28 28z
M7300 7055 c-7 -25 -10 -48 -7 -52 8 -7 37 59 37 82 0 31 -18 13 -30 -30z
M13110 7097 c0 -2 7 -24 16 -50 16 -48 41 -67 30 -22 -12 46 -25 75 -36 75 -5
0 -10 -1 -10 -3z M7170 6945 c-18 -53 -7 -79 13 -33 10 21 17 44 17 53 0 28
-18 16 -30 -20z M13250 6969 c0 -23 23 -89 32 -89 12 0 10 26 -6 65 -15 35
-26 45 -26 24z M7255 6917 c-17 -41 -19 -67 -6 -67 11 0 36 88 28 97 -4 3 -14
-10 -22 -30z M13160 6947 c0 -2 7 -24 16 -50 16 -48 41 -67 30 -22 -12 46 -25
75 -36 75 -5 0 -10 -1 -10 -3z M7120 6785 c-7 -25 -10 -48 -7 -52 8 -7 37 59
37 82 0 31 -18 13 -30 -30z M13300 6812 c0 -28 20 -82 31 -82 11 0 11 7 -1 52
-12 41 -30 60 -30 30z M7213 6785 c-17 -31 -26 -85 -15 -85 13 0 35 64 30 87
-4 16 -5 16 -15 -2z M13215 6778 c13 -48 28 -78 37 -78 10 0 6 28 -12 75 -12
31 -34 34 -25 3z M7072 6641 c-14 -46 -15 -61 -4 -61 9 0 32 66 32 89 0 25
-18 8 -28 -28z M13348 6674 c-9 -8 22 -94 34 -94 10 0 6 28 -12 75 -10 26 -13
29 -22 19z M7160 6625 c-18 -47 -22 -75 -12 -75 14 0 43 88 31 95 -5 4 -13 -6
-19 -20z M13264 6625 c12 -46 25 -75 36 -75 13 0 13 -2 -6 53 -16 48 -41 67
-30 22z M7025 6497 c-17 -41 -19 -67 -6 -67 11 0 36 88 28 97 -4 3 -14 -10
-22 -30z M13398 6524 c-9 -8 22 -94 34 -94 10 0 6 28 -12 75 -10 26 -13 29
-22 19z M7110 6475 c-18 -47 -22 -75 -12 -75 6 0 17 21 26 47 19 55 19 53 6
53 -6 0 -15 -11 -20 -25z M13314 6475 c12 -48 26 -76 35 -70 12 7 -17 95 -31
95 -6 0 -8 -11 -4 -25z M6983 6365 c-17 -31 -26 -85 -15 -85 13 0 35 64 30 87
-4 16 -5 16 -15 -2z M13446 6353 c12 -50 23 -73 35 -73 11 0 8 26 -11 75 -13
34 -32 33 -24 -2z M7060 6325 c-19 -49 -22 -75 -11 -75 12 0 23 23 35 73 8 35
-11 36 -24 2z M13364 6325 c12 -48 26 -76 35 -70 12 7 -17 95 -31 95 -6 0 -8
-11 -4 -25z M6930 6205 c-18 -47 -22 -75 -12 -75 14 0 43 88 31 95 -5 4 -13
-6 -19 -20z M13494 6205 c12 -46 25 -75 36 -75 13 0 13 -2 -6 53 -16 48 -41
67 -30 22z M7006 6153 c-19 -55 -19 -53 -6 -53 11 0 24 29 36 75 11 45 -14 26
-30 -22z M13410 6185 c0 -9 7 -32 17 -53 20 -46 31 -20 13 33 -12 36 -30 48
-30 20z M6880 6055 c-18 -47 -22 -75 -12 -75 14 0 43 88 31 95 -5 4 -13 -6
-19 -20z M13544 6055 c12 -46 25 -75 36 -75 13 0 13 -2 -6 53 -16 48 -41 67
-30 22z M6956 6003 c-19 -55 -19 -53 -6 -53 11 0 24 29 36 75 11 45 -14 26
-30 -22z M13460 6035 c0 -23 29 -89 37 -82 8 9 -17 97 -28 97 -5 0 -9 -7 -9
-15z M6824 5885 c-16 -43 -14 -69 5 -49 14 14 30 83 21 89 -5 3 -16 -15 -26
-40z M13594 5905 c3 -13 11 -37 18 -52 16 -40 23 -4 8 42 -13 40 -36 49 -26
10z M6907 5855 c-9 -26 -12 -47 -6 -50 9 -6 23 22 35 70 11 44 -13 27 -29 -20z
M13510 5889 c0 -23 23 -89 32 -89 12 0 10 26 -6 65 -15 35 -26 45 -26 24z
M6776 5734 c-15 -46 -14 -67 3 -48 16 17 31 78 22 87 -5 5 -15 -11 -25 -39z
M13640 5765 c0 -9 7 -32 17 -53 20 -46 31 -20 13 33 -12 36 -30 48 -30 20z
M6860 5715 c-18 -53 -7 -79 13 -33 10 21 17 44 17 53 0 28 -18 16 -30 -20z
M13560 5738 c0 -27 21 -88 30 -88 14 0 12 25 -4 65 -15 36 -26 45 -26 23z
M6726 5583 c-19 -55 -19 -53 -6 -53 11 0 24 29 36 75 11 45 -14 26 -30 -22z
M13690 5619 c0 -23 23 -89 32 -89 12 0 10 26 -6 65 -15 35 -26 45 -26 24z
M6815 5567 c-17 -41 -19 -67 -6 -67 11 0 36 88 28 97 -4 3 -14 -10 -22 -30z
M13610 5581 c0 -28 21 -81 32 -81 10 0 6 28 -12 75 -11 29 -20 33 -20 6z
M6676 5433 c-19 -55 -19 -53 -6 -53 11 0 24 29 36 75 11 45 -14 26 -30 -22z
M13740 5469 c0 -23 23 -89 32 -89 12 0 10 26 -6 65 -15 35 -26 45 -26 24z
M6765 5417 c-17 -41 -19 -67 -6 -67 11 0 36 88 28 97 -4 3 -14 -10 -22 -30z
M13658 5444 c-9 -8 22 -94 34 -94 10 0 6 28 -12 75 -10 26 -13 29 -22 19z
M6642 5317 c-17 -20 -29 -93 -14 -83 13 8 35 72 30 87 -2 7 -8 6 -16 -4z
M13790 5318 c0 -27 21 -88 30 -88 14 0 12 25 -4 65 -15 36 -26 45 -26 23z
M6717 5268 c-19 -42 -22 -68 -8 -68 13 0 34 65 28 87 -3 13 -8 8 -20 -19z
M13708 5294 c-9 -8 22 -94 34 -94 10 0 6 28 -12 75 -10 26 -13 29 -22 19z
M6585 5147 c-17 -41 -19 -67 -6 -67 11 0 36 88 28 97 -4 3 -14 -10 -22 -30z
M13840 5161 c0 -28 21 -81 32 -81 10 0 6 28 -12 75 -11 29 -20 33 -20 6z
M6672 5127 c-20 -47 -25 -77 -14 -77 13 0 35 64 29 87 -3 14 -6 12 -15 -10z
M13758 5144 c-7 -7 10 -75 23 -88 17 -18 21 3 9 41 -14 42 -23 56 -32 47z
M6535 4997 c-17 -41 -19 -67 -6 -67 11 0 36 88 28 97 -4 3 -14 -10 -22 -30z
M13890 5011 c0 -28 21 -81 32 -81 10 0 6 28 -12 75 -11 29 -20 33 -20 6z
M6622 4977 c-20 -47 -25 -77 -14 -77 13 0 35 64 29 87 -3 14 -6 12 -15 -10z
M13807 4993 c-9 -14 16 -86 32 -91 10 -3 11 2 6 19 -17 55 -32 83 -38 72z
M6486 4848 c-18 -42 -21 -68 -6 -68 11 0 33 76 27 93 -3 7 -12 -5 -21 -25z
M13938 4874 c-9 -8 22 -94 34 -94 10 0 6 28 -12 75 -10 26 -13 29 -22 19z
M6570 4825 c-18 -47 -22 -75 -12 -75 14 0 43 88 31 95 -5 4 -13 -6 -19 -20z
M13857 4843 c-9 -14 16 -86 32 -91 10 -3 11 2 6 19 -17 55 -32 83 -38 72z
M6442 4707 c-20 -47 -25 -77 -14 -77 13 0 35 64 29 87 -3 14 -6 12 -15 -10z
M13986 4698 c15 -51 24 -68 34 -68 14 0 13 14 -4 55 -17 39 -42 49 -30 13z
M6516 4660 c-19 -48 -20 -63 -4 -58 16 6 40 80 29 91 -5 5 -15 -9 -25 -33z
M13904 4677 c12 -48 25 -77 36 -77 17 0 -10 83 -31 96 -9 5 -10 0 -5 -19z
M6392 4557 c-20 -47 -25 -77 -14 -77 13 0 35 64 29 87 -3 14 -6 12 -15 -10z
M14036 4548 c16 -51 24 -68 34 -68 11 0 8 15 -11 68 -5 12 -13 22 -19 22 -7 0
-9 -9 -4 -22z M6466 4504 c-15 -46 -14 -67 3 -48 16 17 31 78 22 87 -5 5 -15
-11 -25 -39z M13950 4531 c0 -21 32 -86 37 -74 6 17 -11 76 -25 81 -7 2 -12
-1 -12 -7z M6306 4372 c-20 -44 -18 -93 3 -100 10 -3 12 2 7 21 -3 14 1 40 9
61 17 40 19 56 7 56 -5 0 -17 -17 -26 -38z M14100 4406 c0 -2 7 -21 17 -42 9
-22 15 -51 14 -66 -2 -35 16 -37 25 -3 7 29 -25 115 -43 115 -7 0 -13 -2 -13
-4z M6416 4354 c-15 -46 -14 -67 3 -48 16 17 31 78 22 87 -5 5 -15 -11 -25
-39z M14000 4389 c0 -23 23 -89 32 -89 12 0 10 26 -6 65 -15 35 -26 45 -26 24z
M6400 4249 c0 -23 23 -89 32 -89 12 0 10 26 -6 65 -15 35 -26 45 -26 24z
M14016 4214 c-15 -46 -14 -67 3 -48 16 17 31 78 22 87 -5 5 -15 -11 -25 -39z
M6320 4213 c0 -33 22 -85 31 -76 6 6 4 24 -2 44 -15 43 -29 60 -29 32z M14100
4185 c-7 -25 -10 -48 -7 -52 8 -7 37 59 37 82 0 31 -18 13 -30 -30z M6445
4088 c4 -18 12 -42 18 -53 10 -18 11 -18 15 -2 5 23 -17 87 -30 87 -6 0 -7
-13 -3 -32z M13986 4108 c-3 -7 -9 -28 -15 -45 -12 -38 4 -57 18 -21 17 47 21
78 11 78 -6 0 -12 -6 -14 -12z M6358 4095 c-9 -10 18 -89 32 -93 13 -5 10 20
-10 73 -10 26 -13 29 -22 20z M14062 4061 c-14 -47 -15 -61 -2 -61 9 0 30 61
30 88 0 26 -17 10 -28 -27z M6480 3979 c0 -23 23 -89 32 -89 11 0 10 15 -4 61
-10 36 -28 53 -28 28z M13940 3955 c-15 -46 -8 -82 8 -42 20 47 25 77 14 77
-6 0 -16 -16 -22 -35z M6398 3964 c-7 -7 10 -75 23 -88 16 -17 19 -1 8 40 -12
42 -22 58 -31 48z M14032 3947 c-20 -47 -25 -77 -14 -77 13 0 35 64 29 87 -3
14 -6 12 -15 -10z M6520 3848 c0 -27 21 -88 30 -88 14 0 12 25 -4 65 -15 36
-26 45 -26 23z M13900 3824 c-12 -32 -13 -64 -1 -64 5 0 12 12 15 28 4 15 9
35 12 45 8 27 -15 20 -26 -9z M6430 3828 c2 -23 29 -88 36 -86 17 6 -7 88 -26
88 -5 0 -10 -1 -10 -2z M13982 3791 c-14 -47 -15 -61 -2 -61 9 0 30 61 30 88
0 26 -17 10 -28 -27z M6560 3705 c0 -24 32 -91 37 -78 6 17 -16 93 -27 93 -6
0 -10 -7 -10 -15z M13860 3685 c-15 -46 -8 -82 8 -42 20 47 25 77 14 77 -6 0
-16 -16 -22 -35z M6476 3673 c12 -49 23 -73 34 -73 12 0 12 -4 -4 49 -15 51
-41 72 -30 24z M13953 3685 c-17 -31 -26 -85 -15 -85 13 0 35 64 30 87 -4 16
-5 16 -15 -2z M6600 3578 c0 -27 21 -88 30 -88 13 0 12 14 -2 61 -11 37 -28
53 -28 27z M13821 3559 c-13 -38 -14 -69 -2 -69 7 0 31 73 31 94 0 19 -20 1
-29 -25z M6517 3563 c-9 -14 16 -86 32 -91 10 -3 11 2 6 19 -17 55 -32 83 -38
72z M13912 3547 c-22 -52 -26 -80 -11 -75 15 5 32 61 26 86 -3 13 -7 10 -15
-11z M6640 3442 c0 -28 20 -82 31 -82 11 0 11 7 -1 52 -12 41 -30 60 -30 30z
M13785 3427 c-17 -41 -19 -67 -6 -67 11 0 36 88 28 97 -4 3 -14 -10 -22 -30z
M6556 3403 c12 -51 24 -74 33 -68 13 7 -11 87 -27 93 -9 3 -11 -4 -6 -25z
M13863 3388 c-7 -24 -8 -47 -4 -51 9 -9 31 44 31 74 0 34 -16 20 -27 -23z
M6680 3308 c0 -27 21 -88 30 -88 13 0 12 14 -2 61 -11 37 -28 53 -28 27z
M13740 3285 c-6 -19 -10 -43 -8 -52 4 -16 5 -16 15 2 6 11 14 35 18 53 9 44
-10 42 -25 -3z M6594 3275 c3 -13 11 -37 18 -52 16 -40 23 -4 8 42 -13 40 -36
49 -26 10z M13830 3275 c-20 -53 -23 -78 -10 -73 16 5 41 86 29 94 -5 3 -13
-7 -19 -21z M6720 3171 c0 -28 21 -81 32 -81 10 0 6 28 -12 75 -11 29 -20 33
-20 6z M13701 3153 c-13 -46 -14 -63 -3 -63 9 0 32 66 32 89 0 26 -20 8 -29
-26z M6630 3164 c0 -21 24 -94 31 -94 12 0 11 31 -2 69 -9 26 -29 44 -29 25z
M13796 3158 c-2 -7 -9 -28 -15 -47 -11 -35 -7 -52 8 -35 15 15 30 83 20 90 -5
3 -11 -1 -13 -8z M6760 3041 c0 -28 21 -81 32 -81 10 0 6 28 -12 75 -11 29
-20 33 -20 6z M13666 3028 c-18 -42 -21 -68 -6 -68 11 0 33 76 27 93 -3 7 -12
-5 -21 -25z M6674 3005 c3 -13 11 -37 18 -52 16 -40 23 -4 8 42 -13 40 -36 49
-26 10z M13751 3008 c-19 -50 -21 -67 -12 -72 5 -3 16 15 25 41 19 55 19 53 6
53 -6 0 -14 -10 -19 -22z M6800 2905 c0 -8 -9 -15 -19 -15 -11 0 -23 -4 -26
-10 -4 -6 5 -10 20 -10 17 0 29 -8 37 -25 13 -30 33 -34 25 -5 -3 11 -1 23 4
26 14 8 10 24 -6 24 -8 0 -15 7 -15 15 0 8 -4 15 -10 15 -5 0 -10 -7 -10 -15z
M13588 2913 c-58 -5 -64 -23 -8 -23 43 0 46 -4 30 -44 -7 -20 -16 -26 -40 -26
-16 0 -30 -4 -30 -10 0 -5 22 -10 49 -10 46 0 48 1 48 28 0 15 3 42 8 60 4 17
4 31 -1 30 -5 -1 -30 -3 -56 -5z M11402 2903 c-37 -7 -14 -23 33 -23 45 0 67
13 39 24 -17 6 -34 6 -72 -1z M11557 2904 c-14 -14 6 -24 49 -24 32 0 44 4 42
13 -5 13 -79 22 -91 11z M11720 2895 c0 -13 9 -16 48 -13 26 2 47 8 47 13 0 6
-21 11 -47 13 -39 3 -48 0 -48 -13z M11885 2900 c-3 -6 0 -13 8 -16 24 -9 80
0 85 14 5 15 -84 17 -93 2z M12052 2898 c5 -16 41 -22 74 -14 38 10 18 26 -32
26 -32 0 -44 -4 -42 -12z M12215 2901 c-3 -5 4 -13 16 -16 27 -9 91 3 84 16
-8 12 -92 12 -100 0z M12380 2900 c0 -5 23 -10 50 -10 28 0 50 5 50 10 0 6
-22 10 -50 10 -27 0 -50 -4 -50 -10z M12545 2900 c-4 -6 15 -10 50 -10 35 0
54 4 50 10 -3 6 -26 10 -50 10 -24 0 -47 -4 -50 -10z M12710 2900 c0 -5 23
-10 50 -10 28 0 50 5 50 10 0 6 -22 10 -50 10 -27 0 -50 -4 -50 -10z M12875
2900 c-4 -6 15 -10 50 -10 35 0 54 4 50 10 -3 6 -26 10 -50 10 -24 0 -47 -4
-50 -10z M13040 2900 c0 -5 23 -10 50 -10 28 0 50 5 50 10 0 6 -22 10 -50 10
-27 0 -50 -4 -50 -10z M13210 2900 c0 -5 23 -10 50 -10 28 0 50 5 50 10 0 6
-22 10 -50 10 -27 0 -50 -4 -50 -10z M13370 2900 c0 -5 23 -10 50 -10 28 0 50
5 50 10 0 6 -22 10 -50 10 -27 0 -50 -4 -50 -10z M8582 2893 c-24 -10 0 -23
43 -23 45 0 67 13 39 24 -18 7 -63 7 -82 -1z M8747 2894 c-17 -18 -4 -25 41
-22 26 2 47 8 47 13 0 12 -77 19 -88 9z M8905 2890 c-3 -5 0 -13 8 -16 23 -8
92 0 92 11 0 14 -92 19 -100 5z M9072 2888 c5 -15 87 -18 91 -3 1 6 -20 11
-47 13 -36 2 -47 0 -44 -10z M9236 2891 c-3 -5 4 -11 15 -14 28 -7 90 3 83 14
-7 12 -91 12 -98 0z M9400 2890 c0 -5 23 -10 50 -10 28 0 50 5 50 10 0 6 -22
10 -50 10 -27 0 -50 -4 -50 -10z M9565 2890 c-4 -6 15 -10 50 -10 35 0 54 4
50 10 -3 6 -26 10 -50 10 -24 0 -47 -4 -50 -10z M9730 2890 c0 -5 23 -10 50
-10 28 0 50 5 50 10 0 6 -22 10 -50 10 -27 0 -50 -4 -50 -10z M9900 2890 c0
-5 23 -10 50 -10 28 0 50 5 50 10 0 6 -22 10 -50 10 -27 0 -50 -4 -50 -10z
M10060 2890 c0 -5 23 -10 50 -10 28 0 50 5 50 10 0 6 -22 10 -50 10 -27 0 -50
-4 -50 -10z M10230 2890 c0 -5 23 -10 50 -10 28 0 50 5 50 10 0 6 -22 10 -50
10 -27 0 -50 -4 -50 -10z M10390 2890 c0 -5 23 -10 50 -10 28 0 50 5 50 10 0
6 -22 10 -50 10 -27 0 -50 -4 -50 -10z M10560 2890 c0 -5 23 -10 50 -10 28 0
50 5 50 10 0 6 -22 10 -50 10 -27 0 -50 -4 -50 -10z M10720 2890 c0 -5 22 -10
49 -10 28 0 53 5 56 10 4 6 -15 10 -49 10 -31 0 -56 -4 -56 -10z M10890 2890
c0 -5 23 -10 50 -10 28 0 50 5 50 10 0 6 -22 10 -50 10 -27 0 -50 -4 -50 -10z
M11055 2890 c3 -5 26 -10 50 -10 24 0 47 5 50 10 4 6 -15 10 -50 10 -35 0 -54
-4 -50 -10z M11220 2890 c0 -5 23 -10 50 -10 28 0 50 5 50 10 0 6 -22 10 -50
10 -27 0 -50 -4 -50 -10z M6920 2880 c0 -5 23 -10 50 -10 28 0 50 5 50 10 0 6
-22 10 -50 10 -27 0 -50 -4 -50 -10z M7085 2880 c-4 -6 15 -10 50 -10 35 0 54
4 50 10 -3 6 -26 10 -50 10 -24 0 -47 -4 -50 -10z M7250 2880 c0 -5 23 -10 50
-10 28 0 50 5 50 10 0 6 -22 10 -50 10 -27 0 -50 -4 -50 -10z M7420 2880 c0
-5 23 -10 50 -10 28 0 50 5 50 10 0 6 -22 10 -50 10 -27 0 -50 -4 -50 -10z
M7580 2880 c0 -5 23 -10 50 -10 28 0 50 5 50 10 0 6 -22 10 -50 10 -27 0 -50
-4 -50 -10z M7750 2880 c0 -5 23 -10 50 -10 28 0 50 5 50 10 0 6 -22 10 -50
10 -27 0 -50 -4 -50 -10z M7910 2880 c0 -5 23 -10 50 -10 28 0 50 5 50 10 0 6
-22 10 -50 10 -27 0 -50 -4 -50 -10z M8080 2880 c0 -5 20 -10 44 -10 25 0 48
5 51 10 4 6 -13 10 -44 10 -28 0 -51 -4 -51 -10z M8245 2880 c3 -5 26 -10 51
-10 24 0 44 5 44 10 0 6 -23 10 -51 10 -31 0 -48 -4 -44 -10z M8410 2880 c0
-5 20 -10 44 -10 25 0 48 5 51 10 4 6 -13 10 -44 10 -28 0 -51 -4 -51 -10z
M10902 2814 c-24 -11 0 -24 44 -24 32 0 44 4 42 13 -5 12 -63 20 -86 11z
M11060 2811 c-12 -9 -12 -11 2 -16 23 -9 93 -2 93 10 0 13 -76 18 -95 6z
M11225 2810 c-3 -6 0 -13 8 -16 24 -9 80 0 85 14 5 15 -84 17 -93 2z M11392
2808 c5 -15 87 -18 91 -3 1 6 -20 11 -47 13 -36 2 -47 0 -44 -10z M11555 2810
c-4 -6 15 -10 50 -10 35 0 54 4 50 10 -3 6 -26 10 -50 10 -24 0 -47 -4 -50
-10z M11720 2810 c0 -5 23 -10 50 -10 28 0 50 5 50 10 0 6 -22 10 -50 10 -27
0 -50 -4 -50 -10z M11885 2810 c-4 -6 15 -10 50 -10 35 0 54 4 50 10 -3 6 -26
10 -50 10 -24 0 -47 -4 -50 -10z M12050 2810 c0 -5 23 -10 50 -10 28 0 50 5
50 10 0 6 -22 10 -50 10 -27 0 -50 -4 -50 -10z M12215 2810 c-4 -6 15 -10 50
-10 35 0 54 4 50 10 -3 6 -26 10 -50 10 -24 0 -47 -4 -50 -10z M12380 2810 c0
-5 23 -10 50 -10 28 0 50 5 50 10 0 6 -22 10 -50 10 -27 0 -50 -4 -50 -10z
M12550 2810 c0 -5 23 -10 50 -10 28 0 50 5 50 10 0 6 -22 10 -50 10 -27 0 -50
-4 -50 -10z M12710 2810 c0 -5 23 -10 50 -10 28 0 50 5 50 10 0 6 -22 10 -50
10 -27 0 -50 -4 -50 -10z M12880 2810 c0 -5 23 -10 50 -10 28 0 50 5 50 10 0
6 -22 10 -50 10 -27 0 -50 -4 -50 -10z M13040 2810 c0 -5 23 -10 50 -10 28 0
50 5 50 10 0 6 -22 10 -50 10 -27 0 -50 -4 -50 -10z M13210 2810 c0 -5 23 -10
50 -10 28 0 50 5 50 10 0 6 -22 10 -50 10 -27 0 -50 -4 -50 -10z M13375 2810
c3 -5 26 -10 50 -10 24 0 47 5 50 10 4 6 -15 10 -50 10 -35 0 -54 -4 -50 -10z
M7773 2803 c-42 -8 -24 -23 27 -23 52 0 67 13 28 24 -13 3 -25 5 -28 5 -3 -1
-15 -4 -27 -6z M7920 2801 c-12 -9 -12 -11 2 -16 23 -9 93 -2 93 10 0 13 -76
18 -95 6z M8085 2800 c-3 -5 0 -13 8 -16 23 -8 82 0 82 11 0 14 -82 19 -90 5z
M8245 2800 c-3 -5 0 -13 8 -16 23 -8 92 0 92 11 0 14 -92 19 -100 5z M8415
2800 c-3 -6 0 -13 8 -16 24 -9 80 0 85 14 5 15 -84 17 -93 2z M8575 2801 c-3
-5 4 -12 14 -16 26 -8 92 5 85 16 -7 12 -91 12 -99 0z M8740 2800 c0 -5 23
-10 50 -10 28 0 50 5 50 10 0 6 -22 10 -50 10 -27 0 -50 -4 -50 -10z M8905
2800 c-4 -6 15 -10 50 -10 35 0 54 4 50 10 -3 6 -26 10 -50 10 -24 0 -47 -4
-50 -10z M9070 2800 c0 -5 23 -10 50 -10 28 0 50 5 50 10 0 6 -22 10 -50 10
-27 0 -50 -4 -50 -10z M9240 2800 c0 -5 23 -10 50 -10 28 0 50 5 50 10 0 6
-22 10 -50 10 -27 0 -50 -4 -50 -10z M9400 2800 c0 -5 23 -10 50 -10 28 0 50
5 50 10 0 6 -22 10 -50 10 -27 0 -50 -4 -50 -10z M9570 2800 c0 -5 23 -10 50
-10 28 0 50 5 50 10 0 6 -22 10 -50 10 -27 0 -50 -4 -50 -10z M9730 2800 c0
-5 23 -10 50 -10 28 0 50 5 50 10 0 6 -22 10 -50 10 -27 0 -50 -4 -50 -10z
M9900 2800 c0 -5 23 -10 50 -10 28 0 50 5 50 10 0 6 -22 10 -50 10 -27 0 -50
-4 -50 -10z M10060 2800 c0 -5 22 -10 49 -10 28 0 53 5 56 10 4 6 -15 10 -49
10 -31 0 -56 -4 -56 -10z M10230 2800 c0 -5 23 -10 50 -10 28 0 50 5 50 10 0
6 -22 10 -50 10 -27 0 -50 -4 -50 -10z M10395 2800 c3 -5 26 -10 50 -10 24 0
47 5 50 10 4 6 -15 10 -50 10 -35 0 -54 -4 -50 -10z M10560 2800 c0 -5 23 -10
50 -10 28 0 50 5 50 10 0 6 -22 10 -50 10 -27 0 -50 -4 -50 -10z M10725 2800
c3 -5 26 -10 50 -10 24 0 47 5 50 10 4 6 -15 10 -50 10 -35 0 -54 -4 -50 -10z
M6920 2790 c0 -5 23 -10 50 -10 28 0 50 5 50 10 0 6 -22 10 -50 10 -27 0 -50
-4 -50 -10z M7090 2790 c0 -5 23 -10 50 -10 28 0 50 5 50 10 0 6 -22 10 -50
10 -27 0 -50 -4 -50 -10z M7250 2790 c0 -5 23 -10 50 -10 28 0 50 5 50 10 0 6
-22 10 -50 10 -27 0 -50 -4 -50 -10z M7420 2790 c0 -5 23 -10 50 -10 28 0 50
5 50 10 0 6 -22 10 -50 10 -27 0 -50 -4 -50 -10z M7585 2790 c3 -5 26 -10 50
-10 24 0 47 5 50 10 4 6 -15 10 -50 10 -35 0 -54 -4 -50 -10z"/>
</g>
</svg>
