<?xml version="1.0" standalone="no"?>
<!DOCTYPE svg PUBLIC "-//W3C//DTD SVG 20010904//EN"
 "http://www.w3.org/TR/2001/REC-SVG-20010904/DTD/svg10.dtd">
<svg version="1.0" xmlns="http://www.w3.org/2000/svg"
 width="2048.000000pt" height="2048.000000pt" viewBox="0 0 2048.000000 2048.000000"
 preserveAspectRatio="xMidYMid meet">
<metadata>
Created by potrace 1.16, written by Peter Selinger 2001-2019
</metadata>
<g transform="translate(0.000000,2048.000000) scale(0.100000,-0.100000)"
fill="#000000" stroke="none">
<path d="M11365 13019 c-42 -12 -53 -31 -48 -86 2 -27 15 -183 29 -348 36
-432 40 -477 68 -820 15 -170 35 -416 46 -545 11 -129 28 -320 36 -425 9 -114
20 -198 28 -210 13 -20 43 -32 361 -150 94 -35 287 -107 430 -160 143 -53 297
-110 342 -126 l82 -30 488 182 c268 100 524 195 568 211 159 57 175 72 175
167 0 29 7 126 15 215 20 218 30 338 66 766 16 201 45 547 64 770 19 223 37
439 41 482 10 126 172 113 -1406 115 -781 1 -1368 -2 -1385 -8z m2759 -37 c10
-12 14 -29 11 -48 -4 -26 -17 -170 -70 -809 -9 -99 -20 -229 -25 -290 -6 -60
-24 -279 -40 -485 -17 -206 -37 -450 -45 -542 -8 -91 -15 -173 -15 -182 0 -36
30 -23 -610 -261 -217 -81 -435 -163 -485 -182 -101 -39 -117 -39 -216 1 -35
13 -127 48 -204 76 -467 172 -862 323 -874 334 -15 16 -23 89 -81 796 -23 272
-43 518 -45 545 -3 28 -14 160 -25 295 -11 135 -30 357 -42 494 -21 243 -21
249 -3 262 16 12 246 14 1385 14 1314 0 1368 -1 1384 -18z M11405 12910 c-13
-22 6 -50 34 -50 24 0 28 4 28 30 0 26 -4 30 -28 30 -15 0 -31 -5 -34 -10z
m43 -23 c2 -10 -3 -17 -12 -17 -18 0 -29 16 -21 31 9 14 29 6 33 -14z M11538
12913 c6 -2 18 -2 25 0 6 3 1 5 -13 5 -14 0 -19 -2 -12 -5z M11638 12913 c6
-2 18 -2 25 0 6 3 1 5 -13 5 -14 0 -19 -2 -12 -5z M11743 12913 c9 -2 23 -2
30 0 6 3 -1 5 -18 5 -16 0 -22 -2 -12 -5z M11848 12913 c6 -2 18 -2 25 0 6 3
1 5 -13 5 -14 0 -19 -2 -12 -5z M11948 12913 c6 -2 18 -2 25 0 6 3 1 5 -13 5
-14 0 -19 -2 -12 -5z M12053 12913 c9 -2 23 -2 30 0 6 3 -1 5 -18 5 -16 0 -22
-2 -12 -5z M12158 12913 c6 -2 18 -2 25 0 6 3 1 5 -13 5 -14 0 -19 -2 -12 -5z
M12258 12913 c6 -2 18 -2 25 0 6 3 1 5 -13 5 -14 0 -19 -2 -12 -5z M12368
12913 c6 -2 18 -2 25 0 6 3 1 5 -13 5 -14 0 -19 -2 -12 -5z M12468 12913 c6
-2 18 -2 25 0 6 3 1 5 -13 5 -14 0 -19 -2 -12 -5z M12573 12913 c9 -2 23 -2
30 0 6 3 -1 5 -18 5 -16 0 -22 -2 -12 -5z M12678 12913 c6 -2 18 -2 25 0 6 3
1 5 -13 5 -14 0 -19 -2 -12 -5z M12778 12913 c6 -2 18 -2 25 0 6 3 1 5 -13 5
-14 0 -19 -2 -12 -5z M12888 12913 c6 -2 18 -2 25 0 6 3 1 5 -13 5 -14 0 -19
-2 -12 -5z M12988 12913 c6 -2 18 -2 25 0 6 3 1 5 -13 5 -14 0 -19 -2 -12 -5z
M13093 12913 c9 -2 23 -2 30 0 6 3 -1 5 -18 5 -16 0 -22 -2 -12 -5z M13198
12913 c6 -2 18 -2 25 0 6 3 1 5 -13 5 -14 0 -19 -2 -12 -5z M13298 12913 c6
-2 18 -2 25 0 6 3 1 5 -13 5 -14 0 -19 -2 -12 -5z M13403 12913 c9 -2 23 -2
30 0 6 3 -1 5 -18 5 -16 0 -22 -2 -12 -5z M13508 12913 c6 -2 18 -2 25 0 6 3
1 5 -13 5 -14 0 -19 -2 -12 -5z M13613 12913 c9 -2 23 -2 30 0 6 3 -1 5 -18 5
-16 0 -22 -2 -12 -5z M13718 12913 c6 -2 18 -2 25 0 6 3 1 5 -13 5 -14 0 -19
-2 -12 -5z M13823 12913 c9 -2 23 -2 30 0 6 3 -1 5 -18 5 -16 0 -22 -2 -12 -5z
M13928 12913 c6 -2 18 -2 25 0 6 3 1 5 -13 5 -14 0 -19 -2 -12 -5z M14010
12890 c0 -27 3 -30 30 -30 27 0 30 3 30 30 0 27 -3 30 -30 30 -27 0 -30 -3
-30 -30z m50 -6 c0 -8 -9 -14 -20 -14 -22 0 -28 26 -7 33 16 6 27 -1 27 -19z
M11533 12863 c9 -2 25 -2 35 0 9 3 1 5 -18 5 -19 0 -27 -2 -17 -5z M11633
12863 c9 -2 25 -2 35 0 9 3 1 5 -18 5 -19 0 -27 -2 -17 -5z M11743 12863 c9
-2 23 -2 30 0 6 3 -1 5 -18 5 -16 0 -22 -2 -12 -5z M11843 12863 c9 -2 25 -2
35 0 9 3 1 5 -18 5 -19 0 -27 -2 -17 -5z M11943 12863 c9 -2 25 -2 35 0 9 3 1
5 -18 5 -19 0 -27 -2 -17 -5z M12053 12863 c9 -2 25 -2 35 0 9 3 1 5 -18 5
-19 0 -27 -2 -17 -5z M12153 12863 c9 -2 25 -2 35 0 9 3 1 5 -18 5 -19 0 -27
-2 -17 -5z M12253 12863 c9 -2 25 -2 35 0 9 3 1 5 -18 5 -19 0 -27 -2 -17 -5z
M12363 12863 c9 -2 25 -2 35 0 9 3 1 5 -18 5 -19 0 -27 -2 -17 -5z M12463
12863 c9 -2 25 -2 35 0 9 3 1 5 -18 5 -19 0 -27 -2 -17 -5z M12573 12863 c9
-2 23 -2 30 0 6 3 -1 5 -18 5 -16 0 -22 -2 -12 -5z M12673 12863 c9 -2 25 -2
35 0 9 3 1 5 -18 5 -19 0 -27 -2 -17 -5z M12783 12863 c9 -2 23 -2 30 0 6 3
-1 5 -18 5 -16 0 -22 -2 -12 -5z M12883 12863 c9 -2 25 -2 35 0 9 3 1 5 -18 5
-19 0 -27 -2 -17 -5z M12983 12863 c9 -2 25 -2 35 0 9 3 1 5 -18 5 -19 0 -27
-2 -17 -5z M13093 12863 c9 -2 23 -2 30 0 6 3 -1 5 -18 5 -16 0 -22 -2 -12 -5z
M13193 12863 c9 -2 25 -2 35 0 9 3 1 5 -18 5 -19 0 -27 -2 -17 -5z M13303
12863 c9 -2 23 -2 30 0 6 3 -1 5 -18 5 -16 0 -22 -2 -12 -5z M13403 12863 c9
-2 25 -2 35 0 9 3 1 5 -18 5 -19 0 -27 -2 -17 -5z M13503 12863 c9 -2 25 -2
35 0 9 3 1 5 -18 5 -19 0 -27 -2 -17 -5z M13613 12863 c9 -2 23 -2 30 0 6 3
-1 5 -18 5 -16 0 -22 -2 -12 -5z M13713 12863 c9 -2 25 -2 35 0 9 3 1 5 -18 5
-19 0 -27 -2 -17 -5z M13823 12863 c9 -2 23 -2 30 0 6 3 -1 5 -18 5 -16 0 -22
-2 -12 -5z M13923 12863 c9 -2 25 -2 35 0 9 3 1 5 -18 5 -19 0 -27 -2 -17 -5z
M11462 12795 c0 -16 2 -22 5 -12 2 9 2 23 0 30 -3 6 -5 -1 -5 -18z M11410
12790 c0 -11 4 -20 9 -20 5 0 7 9 4 20 -3 11 -7 20 -9 20 -2 0 -4 -9 -4 -20z
M14002 12790 c0 -14 2 -19 5 -12 2 6 2 18 0 25 -3 6 -5 1 -5 -13z M14052
12790 c0 -14 2 -19 5 -12 2 6 2 18 0 25 -3 6 -5 1 -5 -13z M11422 12695 c0
-16 2 -22 5 -12 2 9 2 23 0 30 -3 6 -5 -1 -5 -18z M11472 12695 c0 -16 2 -22
5 -12 2 9 2 23 0 30 -3 6 -5 -1 -5 -18z M13992 12690 c0 -14 2 -19 5 -12 2 6
2 18 0 25 -3 6 -5 1 -5 -13z M14041 12684 c0 -11 3 -14 6 -6 3 7 2 16 -1 19
-3 4 -6 -2 -5 -13z M11432 12595 c0 -16 2 -22 5 -12 2 9 2 23 0 30 -3 6 -5 -1
-5 -18z M13987 12601 c-4 -17 -3 -21 5 -13 5 5 8 16 6 23 -3 8 -7 3 -11 -10z
M14030 12595 c1 -26 2 -28 11 -12 8 14 8 22 0 30 -8 8 -11 3 -11 -18z M11481
12594 c0 -11 3 -14 6 -6 3 7 2 16 -1 19 -3 4 -6 -2 -5 -13z M13982 12505 c0
-16 2 -22 5 -12 2 9 2 23 0 30 -3 6 -5 -1 -5 -18z M14026 12504 c-4 -14 -5
-29 -2 -31 3 -3 8 7 12 21 3 15 4 29 1 32 -2 3 -8 -7 -11 -22z M11442 12495
c0 -16 2 -22 5 -12 2 9 2 23 0 30 -3 6 -5 -1 -5 -18z M11492 12500 c0 -14 2
-19 5 -12 2 6 2 18 0 25 -3 6 -5 1 -5 -13z M11440 12411 c0 -11 5 -23 10 -26
6 -3 10 3 10 14 0 11 -4 23 -10 26 -5 3 -10 -3 -10 -14z M11491 12425 c1 -19
18 -51 18 -35 0 8 -4 22 -9 30 -5 8 -9 11 -9 5z M14022 12405 c0 -16 2 -22 5
-12 2 9 2 23 0 30 -3 6 -5 -1 -5 -18z M13971 12404 c0 -11 3 -14 6 -6 3 7 2
16 -1 19 -3 4 -6 -2 -5 -13z M11502 12310 c0 -14 2 -19 5 -12 2 6 2 18 0 25
-3 6 -5 1 -5 -13z M13962 12310 c0 -14 2 -19 5 -12 2 6 2 18 0 25 -3 6 -5 1
-5 -13z M14012 12305 c0 -16 2 -22 5 -12 2 9 2 23 0 30 -3 6 -5 -1 -5 -18z
M11450 12315 c0 -5 5 -17 10 -25 5 -8 10 -10 10 -5 0 6 -5 17 -10 25 -5 8 -10
11 -10 5z M11462 12210 c0 -14 2 -19 5 -12 2 6 2 18 0 25 -3 6 -5 1 -5 -13z
M11511 12214 c0 -11 3 -14 6 -6 3 7 2 16 -1 19 -3 4 -6 -2 -5 -13z M13952
12210 c0 -14 2 -19 5 -12 2 6 2 18 0 25 -3 6 -5 1 -5 -13z M14002 12205 c0
-16 2 -22 5 -12 2 9 2 23 0 30 -3 6 -5 -1 -5 -18z M11522 12120 c0 -14 2 -19
5 -12 2 6 2 18 0 25 -3 6 -5 1 -5 -13z M11472 12110 c0 -14 2 -19 5 -12 2 6 2
18 0 25 -3 6 -5 1 -5 -13z M13941 12114 c0 -11 3 -14 6 -6 3 7 2 16 -1 19 -3
4 -6 -2 -5 -13z M13992 12105 c0 -16 2 -22 5 -12 2 9 2 23 0 30 -3 6 -5 -1 -5
-18z M13985 12020 c-4 -12 -5 -24 -2 -27 3 -2 8 5 12 17 4 12 5 24 2 27 -3 2
-8 -5 -12 -17z M11482 12010 c0 -14 2 -19 5 -12 2 6 2 18 0 25 -3 6 -5 1 -5
-13z M11531 12014 c0 -11 3 -14 6 -6 3 7 2 16 -1 19 -3 4 -6 -2 -5 -13z
M11492 11915 c0 -16 2 -22 5 -12 2 9 2 23 0 30 -3 6 -5 -1 -5 -18z M11542
11920 c0 -14 2 -19 5 -12 2 6 2 18 0 25 -3 6 -5 1 -5 -13z M13926 11925 c-9
-26 -7 -32 5 -12 6 10 9 21 6 23 -2 3 -7 -2 -11 -11z M13977 11926 c-4 -10 -5
-21 -2 -24 9 -9 17 6 13 25 -3 17 -4 17 -11 -1z M11552 11825 c0 -16 2 -22 5
-12 2 9 2 23 0 30 -3 6 -5 -1 -5 -18z M11497 11819 c4 -13 8 -18 11 -10 2 7
-1 18 -6 23 -8 8 -9 4 -5 -13z M13971 11824 c0 -11 3 -14 6 -6 3 7 2 16 -1 19
-3 4 -6 -2 -5 -13z M13911 11814 c0 -11 3 -14 6 -6 3 7 2 16 -1 19 -3 4 -6 -2
-5 -13z M13912 11730 c0 -14 2 -19 5 -12 2 6 2 18 0 25 -3 6 -5 1 -5 -13z
M13962 11725 c0 -16 2 -22 5 -12 2 9 2 23 0 30 -3 6 -5 -1 -5 -18z M11501
11724 c0 -11 3 -14 6 -6 3 7 2 16 -1 19 -3 4 -6 -2 -5 -13z M11510 11636 c0
-8 4 -17 9 -20 5 -4 7 3 4 14 -6 23 -13 26 -13 6z M11560 11636 c0 -8 5 -18
10 -21 6 -3 10 3 10 14 0 12 -4 21 -10 21 -5 0 -10 -6 -10 -14z M13902 11630
c0 -14 2 -19 5 -12 2 6 2 18 0 25 -3 6 -5 1 -5 -13z M13952 11630 c0 -14 2
-19 5 -12 2 6 2 18 0 25 -3 6 -5 1 -5 -13z M11571 11543 c-1 -12 4 -25 9 -28
12 -7 12 2 0 30 -8 19 -9 19 -9 -2z M11521 11534 c0 -11 3 -14 6 -6 3 7 2 16
-1 19 -3 4 -6 -2 -5 -13z M13892 11530 c0 -14 2 -19 5 -12 2 6 2 18 0 25 -3 6
-5 1 -5 -13z M13941 11524 c0 -11 3 -14 6 -6 3 7 2 16 -1 19 -3 4 -6 -2 -5
-13z M11582 11435 c0 -16 2 -22 5 -12 2 9 2 23 0 30 -3 6 -5 -1 -5 -18z
M13882 11435 c0 -16 2 -22 5 -12 2 9 2 23 0 30 -3 6 -5 -1 -5 -18z M11531
11434 c0 -11 3 -14 6 -6 3 7 2 16 -1 19 -3 4 -6 -2 -5 -13z M13932 11430 c0
-14 2 -19 5 -12 2 6 2 18 0 25 -3 6 -5 1 -5 -13z M11542 11340 c0 -14 2 -19 5
-12 2 6 2 18 0 25 -3 6 -5 1 -5 -13z M11592 11335 c0 -16 2 -22 5 -12 2 9 2
23 0 30 -3 6 -5 -1 -5 -18z M13872 11335 c0 -16 2 -22 5 -12 2 9 2 23 0 30 -3
6 -5 -1 -5 -18z M11602 11245 c0 -16 2 -22 5 -12 2 9 2 23 0 30 -3 6 -5 -1 -5
-18z M13871 11263 c0 -6 -4 -20 -7 -30 -5 -14 -4 -15 5 -7 7 7 11 20 8 30 -3
11 -5 14 -6 7z M11552 11240 c0 -14 2 -19 5 -12 2 6 2 18 0 25 -3 6 -5 1 -5
-13z M13911 11234 c0 -11 3 -14 6 -6 3 7 2 16 -1 19 -3 4 -6 -2 -5 -13z
M11612 11145 c0 -16 2 -22 5 -12 2 9 2 23 0 30 -3 6 -5 -1 -5 -18z M13857
11157 c-11 -29 -9 -43 4 -30 6 6 9 19 7 29 -3 18 -4 18 -11 1z M13907 11141
c-4 -17 -3 -21 5 -13 5 5 8 16 6 23 -3 8 -7 3 -11 -10z M11561 11134 c0 -11 3
-14 6 -6 3 7 2 16 -1 19 -3 4 -6 -2 -5 -13z M11611 11063 c-1 -12 4 -25 9 -28
12 -7 12 2 0 30 -8 19 -9 19 -9 -2z M13852 11055 c0 -16 2 -22 5 -12 2 9 2 23
0 30 -3 6 -5 -1 -5 -18z M11565 11060 c-3 -5 -1 -18 4 -27 9 -16 10 -14 11 10
0 28 -5 34 -15 17z M13902 11050 c0 -14 2 -19 5 -12 2 6 2 18 0 25 -3 6 -5 1
-5 -13z M11622 10955 c0 -16 2 -22 5 -12 2 9 2 23 0 30 -3 6 -5 -1 -5 -18z
M13842 10950 c0 -19 2 -27 5 -17 2 9 2 25 0 35 -3 9 -5 1 -5 -18z M11571
10965 c1 -19 18 -51 18 -35 0 8 -4 22 -9 30 -5 8 -9 11 -9 5z M13892 10950 c0
-14 2 -19 5 -12 2 6 2 18 0 25 -3 6 -5 1 -5 -13z M11582 10855 c0 -16 2 -22 5
-12 2 9 2 23 0 30 -3 6 -5 -1 -5 -18z M11632 10860 c0 -14 2 -19 5 -12 2 6 2
18 0 25 -3 6 -5 1 -5 -13z M13882 10855 c0 -16 2 -22 5 -12 2 9 2 23 0 30 -3
6 -5 -1 -5 -18z M13832 10850 c0 -14 2 -19 5 -12 2 6 2 18 0 25 -3 6 -5 1 -5
-13z M11592 10755 c0 -16 2 -22 5 -12 2 9 2 23 0 30 -3 6 -5 -1 -5 -18z
M11642 10755 c0 -16 2 -22 5 -12 2 9 2 23 0 30 -3 6 -5 -1 -5 -18z M13820
10759 c0 -11 5 -17 10 -14 6 3 10 13 10 21 0 8 -4 14 -10 14 -5 0 -10 -9 -10
-21z M13872 10755 c0 -16 2 -22 5 -12 2 9 2 23 0 30 -3 6 -5 -1 -5 -18z
M11601 10659 c-1 -28 10 -41 44 -52 20 -7 20 -7 1 8 -11 8 -23 15 -27 15 -4 0
-10 12 -12 28 l-4 27 -2 -26z M11650 10671 c0 -5 5 -13 10 -16 6 -3 10 -2 10
4 0 5 -4 13 -10 16 -5 3 -10 2 -10 -4z M13809 10663 c-13 -16 -12 -17 4 -4 16
13 21 21 13 21 -2 0 -10 -8 -17 -17z M13864 10654 c-4 -14 -16 -29 -28 -34
-13 -5 -15 -9 -6 -9 8 0 20 3 26 7 11 7 28 62 19 62 -2 0 -8 -12 -11 -26z
M11730 10630 c8 -5 22 -10 30 -10 13 0 13 1 0 10 -8 5 -22 10 -30 10 -13 0
-13 -1 0 -10z M13720 10630 c-8 -5 -10 -10 -5 -10 6 0 17 5 25 10 8 5 11 10 5
10 -5 0 -17 -5 -25 -10z M11815 10600 c3 -5 16 -10 28 -9 21 0 21 1 2 9 -28
12 -37 12 -30 0z M13630 10600 c-13 -9 -13 -10 0 -10 8 0 22 5 30 10 13 9 13
10 0 10 -8 0 -22 -5 -30 -10z M11714 10585 c22 -17 40 -20 32 -6 -3 5 -16 11
-28 14 -22 6 -22 5 -4 -8z M13740 10585 c-14 -8 -20 -14 -14 -15 5 0 19 7 30
15 24 18 16 19 -16 0z M11908 10568 c5 -5 16 -8 23 -6 8 3 3 7 -10 11 -17 4
-21 3 -13 -5z M13545 10570 c-13 -6 -15 -9 -5 -9 8 0 22 4 30 9 18 12 2 12
-25 0z M11800 10556 c0 -2 7 -7 16 -10 8 -3 12 -2 9 4 -6 10 -25 14 -25 6z
M13645 10550 c-8 -13 5 -13 25 0 13 8 13 10 -2 10 -9 0 -20 -4 -23 -10z
M12000 10536 c0 -2 7 -7 16 -10 8 -3 12 -2 9 4 -6 10 -25 14 -25 6z M13458
10533 c7 -3 16 -2 19 1 4 3 -2 6 -13 5 -11 0 -14 -3 -6 -6z M11885 10520 c3
-5 14 -10 23 -10 15 0 15 2 2 10 -20 13 -33 13 -25 0z M13560 10520 c-13 -8
-13 -10 2 -10 9 0 20 5 23 10 8 13 -5 13 -25 0z M12085 10500 c3 -5 14 -10 23
-10 15 0 15 2 2 10 -20 13 -33 13 -25 0z M13360 10500 c-13 -8 -13 -10 2 -10
9 0 20 5 23 10 8 13 -5 13 -25 0z M11988 10483 c7 -3 16 -2 19 1 4 3 -2 6 -13
5 -11 0 -14 -3 -6 -6z M13478 10483 c7 -3 16 -2 19 1 4 3 -2 6 -13 5 -11 0
-14 -3 -6 -6z M12175 10470 c3 -5 14 -10 23 -10 15 0 15 2 2 10 -20 13 -33 13
-25 0z M13280 10470 c-13 -8 -12 -10 3 -10 9 0 17 5 17 10 0 12 -1 12 -20 0z
M12075 10450 c27 -12 43 -12 25 0 -8 5 -22 9 -30 9 -10 0 -8 -3 5 -9z M13370
10450 c-13 -9 -13 -10 0 -10 8 0 22 5 30 10 13 9 13 10 0 10 -8 0 -22 -5 -30
-10z M12254 10441 c3 -5 16 -11 28 -14 22 -6 22 -5 4 8 -22 17 -40 20 -32 6z
M13184 10435 c-18 -13 -18 -14 4 -8 12 3 25 9 28 14 8 14 -10 11 -32 -6z
M12160 10420 c20 -13 33 -13 25 0 -3 6 -14 10 -23 10 -15 0 -15 -2 -2 -10z
M13290 10420 c-8 -5 -10 -10 -5 -10 6 0 17 5 25 10 8 5 11 10 5 10 -5 0 -17
-5 -25 -10z M12350 10406 c0 -2 9 -6 20 -9 11 -3 18 -1 14 4 -5 9 -34 13 -34
5z M13090 10400 c-8 -5 -10 -10 -5 -10 6 0 17 5 25 10 8 5 11 10 5 10 -5 0
-17 -5 -25 -10z M12250 10390 c8 -5 20 -10 25 -10 6 0 3 5 -5 10 -8 5 -19 10
-25 10 -5 0 -3 -5 5 -10z M13200 10390 c-13 -8 -13 -10 2 -10 9 0 20 5 23 10
8 13 -5 13 -25 0z M12445 10370 c3 -5 14 -10 23 -10 15 0 15 2 2 10 -20 13
-33 13 -25 0z M13010 10370 c-9 -6 -10 -10 -3 -10 6 0 15 5 18 10 8 12 4 12
-15 0z M12340 10356 c0 -2 7 -7 16 -10 8 -3 12 -2 9 4 -6 10 -25 14 -25 6z
M13105 10350 c-3 -6 1 -7 9 -4 18 7 21 14 7 14 -6 0 -13 -4 -16 -10z M12530
10340 c0 -6 7 -10 15 -10 8 0 15 2 15 4 0 2 -7 6 -15 10 -8 3 -15 1 -15 -4z
M12918 10333 c7 -3 16 -2 19 1 4 3 -2 6 -13 5 -11 0 -14 -3 -6 -6z M12430
10320 c20 -13 33 -13 25 0 -3 6 -14 10 -23 10 -15 0 -15 -2 -2 -10z M13020
10320 c-8 -5 -10 -10 -5 -10 6 0 17 5 25 10 8 5 11 10 5 10 -5 0 -17 -5 -25
-10z M12620 10306 c0 -2 9 -6 20 -9 11 -3 18 -1 14 4 -5 9 -34 13 -34 5z
M12815 10300 c-7 -12 2 -12 30 0 19 8 19 9 -2 9 -12 1 -25 -3 -28 -9z M12515
10290 c3 -5 14 -10 23 -10 15 0 15 2 2 10 -20 13 -33 13 -25 0z M12930 10290
c-13 -9 -13 -10 0 -10 8 0 22 5 30 10 13 9 13 10 0 10 -8 0 -22 -5 -30 -10z
M12710 10270 c20 -13 47 -13 55 0 4 6 -9 10 -32 10 -28 0 -34 -3 -23 -10z
M12600 10260 c8 -5 22 -10 30 -10 13 0 13 1 0 10 -8 5 -22 10 -30 10 -13 0
-13 -1 0 -10z M12850 10260 c-8 -5 -10 -10 -5 -10 6 0 17 5 25 10 8 5 11 10 5
10 -5 0 -17 -5 -25 -10z M12704 10226 c22 -18 32 -19 61 -5 16 8 15 8 -8 4
-15 -3 -37 -1 -50 5 -21 11 -21 11 -3 -4z"/>
</g>
</svg>
