<?xml version="1.0" standalone="no"?>
<!DOCTYPE svg PUBLIC "-//W3C//DTD SVG 20010904//EN"
 "http://www.w3.org/TR/2001/REC-SVG-20010904/DTD/svg10.dtd">
<svg version="1.0" xmlns="http://www.w3.org/2000/svg"
 width="2360.000000pt" height="1640.000000pt" viewBox="0 0 2360.000000 1640.000000"
 preserveAspectRatio="xMidYMid meet">
<metadata>
Created by potrace 1.16, written by Peter Selinger 2001-2019
</metadata>
<g transform="translate(0.000000,1640.000000) scale(0.100000,-0.100000)"
fill="#000000" stroke="none">
<path d="M8931 14816 c-7 -8 -10 -19 -7 -24 3 -5 -3 -76 -14 -158 -21 -163
-25 -250 -11 -259 16 -9 41 25 41 58 0 34 38 339 42 341 2 1 59 0 127 -2 l123
-3 -7 -127 c-4 -70 -8 -138 -9 -152 -1 -31 39 -42 48 -13 5 16 25 232 26 273
0 13 19 15 121 12 l121 -3 -6 -112 c-12 -229 -13 -212 14 -212 22 0 26 6 32
45 3 25 7 84 7 131 1 48 4 100 7 116 l6 29 96 -4 c54 -2 98 -5 100 -7 1 -1 -2
-71 -7 -156 -5 -85 -6 -158 -2 -162 10 -10 38 1 45 19 3 8 8 80 12 160 l7 146
91 -7 c50 -4 92 -8 93 -9 2 -1 -1 -69 -7 -151 -5 -82 -7 -152 -4 -157 9 -14
41 -9 48 7 3 8 8 80 12 160 l7 146 86 -3 86 -3 3 -167 c2 -156 4 -168 21 -168
28 0 32 21 38 183 l6 147 81 0 81 0 -3 -166 -3 -166 23 4 c30 4 35 31 37 197
1 133 1 133 24 127 12 -3 49 -6 82 -6 l60 0 -3 -160 c-3 -153 -3 -160 16 -160
11 0 22 7 26 15 3 8 8 80 12 160 l7 145 47 0 c26 0 62 -3 79 -6 l31 -6 0 -174
c0 -164 1 -174 19 -174 28 0 32 20 38 193 l6 157 84 0 83 0 -7 -175 c-5 -154
-4 -175 9 -175 30 0 37 27 43 160 9 196 0 180 96 180 l81 0 -6 -117 c-4 -65
-9 -142 -13 -170 -4 -44 -2 -54 12 -59 34 -13 43 16 50 151 9 189 10 195 44
195 16 0 48 -3 72 -6 l44 -6 -7 -92 c-3 -50 -7 -132 -7 -183 -1 -84 1 -92 17
-86 27 10 30 20 36 122 4 53 9 129 12 169 l6 72 61 0 62 0 3 -98 c1 -53 5
-145 8 -204 6 -96 8 -108 25 -108 23 0 41 32 35 62 -3 13 -8 96 -11 186 l-6
162 80 0 79 0 6 -72 c3 -40 8 -116 12 -169 6 -102 9 -112 37 -122 15 -6 17 2
16 86 0 51 -4 133 -7 183 l-7 92 44 6 c24 3 56 6 72 6 34 0 35 -6 44 -195 7
-135 16 -164 50 -151 14 5 16 15 12 59 -4 28 -9 105 -13 170 l-6 117 81 0 c96
0 87 16 96 -180 6 -133 13 -160 43 -160 13 0 14 21 9 175 l-7 175 83 0 84 0 6
-157 c6 -173 10 -193 38 -193 18 0 19 10 19 174 l0 174 31 6 c17 3 53 6 79 6
l47 0 7 -145 c4 -80 9 -152 12 -160 4 -8 15 -15 26 -15 19 0 19 7 16 160 l-3
160 60 0 c33 0 70 3 83 6 22 6 22 6 23 -127 2 -166 7 -193 37 -197 l23 -4 -3
166 -3 166 81 0 81 0 6 -147 c6 -162 10 -183 38 -183 17 0 19 12 21 168 l3
167 86 3 86 3 7 -146 c4 -80 9 -152 12 -160 7 -16 39 -21 48 -7 3 5 1 75 -4
157 -6 82 -9 150 -7 151 1 1 43 5 93 9 l91 7 7 -146 c4 -80 9 -152 12 -160 7
-18 35 -29 45 -19 4 4 3 77 -2 162 -5 85 -8 155 -7 156 2 2 46 5 100 7 l96 4
6 -29 c3 -16 6 -68 7 -116 0 -47 4 -106 7 -131 6 -39 10 -45 32 -45 27 0 26
-17 14 212 l-6 112 121 3 c102 3 121 1 121 -12 1 -41 21 -257 26 -273 9 -29
49 -18 48 13 -1 14 -5 82 -9 152 l-7 127 123 3 c68 2 125 3 127 2 4 -2 42
-307 42 -341 0 -33 25 -67 41 -58 14 9 10 96 -11 259 -11 82 -17 153 -14 158
3 5 0 16 -7 24 -10 12 -36 14 -158 9 -673 -27 -2434 -78 -2711 -78 -277 0
-2038 51 -2711 78 -122 5 -148 3 -158 -9z"/>
</g>
</svg>
