<?xml version="1.0" standalone="no"?>
<!DOCTYPE svg PUBLIC "-//W3C//DTD SVG 20010904//EN"
 "http://www.w3.org/TR/2001/REC-SVG-20010904/DTD/svg10.dtd">
<svg version="1.0" xmlns="http://www.w3.org/2000/svg"
 width="2360.000000pt" height="1640.000000pt" viewBox="0 0 2360.000000 1640.000000"
 preserveAspectRatio="xMidYMid meet">
<metadata>
Created by potrace 1.16, written by Peter Selinger 2001-2019
</metadata>
<g transform="translate(0.000000,1640.000000) scale(0.100000,-0.100000)"
fill="#000000" stroke="none">
<path d="M8931 14816 c-7 -8 -10 -19 -7 -24 3 -5 -3 -76 -14 -158 -21 -163
-25 -250 -11 -259 16 -9 41 25 41 58 0 23 29 267 40 342 0 0 35 -1 78 -3 64
-2 1231 -39 2212 -69 135 -5 373 -8 530 -8 157 0 395 3 530 8 981 30 2148 67
2213 69 42 2 77 3 77 3 11 -75 40 -319 40 -342 0 -33 25 -67 41 -58 14 9 10
96 -11 259 -11 82 -17 153 -14 158 3 5 0 16 -7 24 -10 12 -36 14 -158 9 -673
-27 -2434 -78 -2711 -78 -277 0 -2038 51 -2711 78 -122 5 -148 3 -158 -9z"/>
</g>
</svg>
