<?xml version="1.0" standalone="no"?>
<!DOCTYPE svg PUBLIC "-//W3C//DTD SVG 20010904//EN"
 "http://www.w3.org/TR/2001/REC-SVG-20010904/DTD/svg10.dtd">
<svg version="1.0" xmlns="http://www.w3.org/2000/svg"
 width="2360.000000pt" height="1640.000000pt" viewBox="0 0 2360.000000 1640.000000"
 preserveAspectRatio="xMidYMid meet">
<metadata>
Created by potrace 1.16, written by Peter Selinger 2001-2019
</metadata>
<g transform="translate(0.000000,1640.000000) scale(0.100000,-0.100000)"
fill="#000000" stroke="none">
<path d="M8930 14815 c-7 -8 -9 -18 -6 -23 3 -5 -3 -76 -14 -158 -21 -163 -25
-250 -11 -259 16 -9 41 25 41 58 0 34 38 339 42 341 2 1 69 0 151 -2 l147 -3
0 -160 c0 -151 1 -159 20 -159 32 0 40 33 40 174 l0 136 36 0 c35 0 36 -1 31
-32 -4 -18 -9 -90 -13 -160 -7 -127 -6 -128 15 -128 31 0 38 27 46 184 l8 139
120 -7 c66 -3 151 -6 189 -6 l68 0 0 -175 c0 -96 4 -175 8 -175 5 0 16 6 25
13 15 10 18 38 24 175 l6 164 30 -6 c17 -3 32 -8 35 -11 2 -2 -1 -74 -8 -160
-13 -168 -9 -194 27 -158 16 16 21 40 27 134 4 63 10 131 13 152 l6 37 76 0
c42 0 120 -3 174 -7 l99 -6 -6 -51 c-3 -28 -8 -104 -12 -168 -6 -115 -6 -118
14 -118 12 0 25 8 31 18 5 9 12 86 16 170 l8 152 34 0 34 0 -7 -155 c-7 -153
-7 -155 14 -155 11 0 24 6 29 13 4 6 10 74 13 151 l5 138 120 -1 c66 -1 169
-4 229 -8 l108 -6 -6 -36 c-3 -20 -8 -98 -12 -173 -6 -120 -5 -138 8 -138 30
0 37 28 49 188 l13 162 34 0 34 0 -7 -165 c-7 -161 -7 -165 13 -165 28 0 42
45 43 139 1 42 4 100 7 130 l7 54 85 -1 c47 -1 165 -5 264 -8 152 -6 174 -9
149 -19 -38 -16 -89 -76 -98 -115 -30 -135 135 -252 273 -194 140 58 143 232
4 303 l-36 18 230 7 c126 3 254 7 284 8 l55 2 7 -55 c3 -29 6 -88 7 -130 1
-94 15 -139 43 -139 20 0 20 4 13 165 l-7 165 34 0 34 0 13 -162 c12 -160 19
-188 49 -188 13 0 14 18 8 138 -4 75 -9 153 -12 173 l-6 36 108 6 c60 4 163 7
229 8 l120 1 5 -138 c3 -77 9 -145 13 -151 5 -7 18 -13 29 -13 21 0 21 2 14
155 l-7 155 34 0 34 0 8 -152 c4 -84 11 -161 16 -170 6 -10 19 -18 31 -18 20
0 20 3 14 118 -4 64 -9 140 -12 168 l-6 51 99 6 c54 4 132 7 174 7 l76 0 6
-37 c3 -21 9 -89 13 -152 6 -94 11 -118 27 -134 36 -36 40 -10 27 158 -7 86
-10 158 -8 160 3 3 18 8 35 11 l30 6 6 -164 c6 -137 9 -165 24 -175 9 -7 20
-13 25 -13 4 0 8 79 8 175 l0 175 68 0 c38 0 123 3 189 6 l120 7 8 -139 c8
-157 15 -184 46 -184 21 0 22 1 15 128 -4 70 -9 142 -13 160 -5 31 -4 32 31
32 l36 0 0 -136 c0 -141 8 -174 40 -174 19 0 20 8 20 159 l0 160 148 3 c81 2
148 3 150 2 4 -2 42 -307 42 -341 0 -33 25 -67 41 -58 14 9 10 96 -11 259 -11
82 -17 153 -14 158 3 5 1 15 -6 23 -9 11 -50 12 -213 9 -111 -3 -249 -7 -307
-9 -448 -21 -2072 -68 -2350 -68 -278 0 -1902 47 -2350 68 -58 2 -196 6 -307
9 -163 3 -204 2 -213 -9z m2900 -193 c75 -37 102 -125 55 -180 -70 -83 -226
-21 -225 90 1 89 84 134 170 90z M11812 14584 c-17 -12 -25 -12 -40 -3 -40 25
-73 -21 -37 -51 13 -11 12 -15 -5 -38 -27 -34 -12 -51 31 -35 23 9 37 9 52 2
15 -8 23 -7 35 5 14 13 14 19 2 41 -10 19 -11 28 -2 37 16 16 15 45 -2 51 -7
3 -23 -1 -34 -9z"/>
</g>
</svg>
