<?xml version="1.0" standalone="no"?>
<!DOCTYPE svg PUBLIC "-//W3C//DTD SVG 20010904//EN"
 "http://www.w3.org/TR/2001/REC-SVG-20010904/DTD/svg10.dtd">
<svg version="1.0" xmlns="http://www.w3.org/2000/svg"
 width="2360.000000pt" height="1640.000000pt" viewBox="0 0 2360.000000 1640.000000"
 preserveAspectRatio="xMidYMid meet">
<metadata>
Created by potrace 1.16, written by Peter Selinger 2001-2019
</metadata>
<g transform="translate(0.000000,1640.000000) scale(0.100000,-0.100000)"
fill="#000000" stroke="none">
<path d="M8931 14816 c-7 -8 -10 -19 -7 -24 3 -5 -3 -76 -14 -158 -21 -163
-25 -245 -11 -260 5 -5 6 -32 1 -64 -5 -30 -32 -239 -59 -465 -44 -357 -69
-593 -136 -1290 -21 -213 -81 -930 -105 -1255 -11 -151 -36 -462 -55 -690 -19
-228 -44 -541 -55 -695 -22 -296 -51 -647 -155 -1885 -35 -421 -78 -965 -95
-1210 -17 -245 -44 -616 -60 -825 -56 -728 -81 -1080 -79 -1145 0 -36 -2 -88
-6 -116 -7 -47 -6 -52 14 -57 26 -6 29 -51 5 -85 -12 -17 -12 -22 -2 -22 8 0
9 -3 3 -8 -5 -4 -11 -29 -13 -57 -2 -27 -7 -66 -12 -85 -17 -70 -32 -304 -30
-467 1 -57 -2 -73 -13 -73 -17 0 -25 -47 -32 -203 -3 -61 -10 -148 -16 -192
-16 -132 -59 -574 -79 -830 -21 -253 -26 -577 -11 -618 13 -33 84 -52 191 -51
47 1 229 8 405 17 176 9 420 16 543 16 193 1 223 -1 229 -15 5 -13 33 -15 212
-13 113 0 215 -2 226 -6 16 -6 17 -5 5 4 -12 9 -9 11 15 11 20 0 26 -3 17 -9
-22 -13 129 -23 249 -15 101 6 134 16 92 27 -10 2 0 3 22 2 22 -1 66 -3 98 -4
43 -1 57 -5 57 -16 0 -12 24 -14 163 -10 89 3 268 7 397 10 129 3 298 12 375
20 77 8 141 15 143 15 1 0 2 20 2 43 0 42 62 982 195 2937 66 977 146 2150
212 3143 21 306 40 557 43 557 3 0 22 -251 43 -557 66 -993 146 -2166 212
-3143 163 -2404 194 -2893 187 -2907 -10 -17 -4 -61 9 -69 22 -13 303 -34 519
-39 129 -3 308 -7 398 -10 138 -4 162 -2 162 10 0 11 14 15 58 16 31 1 75 3
97 4 22 1 32 0 23 -2 -43 -11 -10 -21 91 -27 120 -8 271 2 249 15 -9 6 -3 9
17 9 24 0 27 -2 15 -11 -12 -9 -11 -10 5 -4 11 4 113 6 226 6 187 -2 207 -1
213 15 6 16 32 17 394 8 519 -12 811 -7 905 15 l72 18 3 177 c3 212 -47 863
-97 1261 -6 44 -13 131 -16 192 -7 156 -15 203 -32 203 -11 0 -14 16 -13 73 2
163 -13 397 -30 467 -5 19 -10 58 -12 85 -2 28 -7 53 -13 57 -6 5 -5 8 3 8 10
0 10 5 -2 22 -24 34 -21 79 5 85 20 5 21 10 14 57 -4 28 -6 80 -6 116 2 65
-23 417 -79 1145 -16 209 -43 580 -60 825 -17 245 -60 789 -95 1210 -105 1243
-133 1589 -155 1885 -11 154 -34 438 -50 630 -16 193 -41 503 -55 690 -28 378
-88 1089 -110 1320 -67 697 -92 933 -136 1290 -27 226 -54 435 -59 465 -5 32
-4 59 1 64 14 15 11 86 -11 254 -10 83 -17 158 -14 166 11 28 -31 37 -158 31
-68 -3 -481 -17 -918 -30 -437 -14 -1009 -32 -1270 -41 -579 -19 -458 -19
-1225 5 -352 12 -919 30 -1260 41 -341 10 -683 22 -761 25 -118 5 -143 4 -153
-9z m914 -12816 c-3 -5 -10 -10 -16 -10 -5 0 -9 5 -9 10 0 6 7 10 16 10 8 0
12 -4 9 -10z m195 0 c0 -5 -4 -10 -10 -10 -5 0 -10 5 -10 10 0 6 5 10 10 10 6
0 10 -4 10 -10z m3540 0 c0 -5 -4 -10 -10 -10 -5 0 -10 5 -10 10 0 6 5 10 10
10 6 0 10 -4 10 -10z m200 0 c0 -5 -4 -10 -9 -10 -6 0 -13 5 -16 10 -3 6 1 10
9 10 9 0 16 -4 16 -10z"/>
</g>
</svg>
