<?xml version="1.0" standalone="no"?>
<!DOCTYPE svg PUBLIC "-//W3C//DTD SVG 20010904//EN"
 "http://www.w3.org/TR/2001/REC-SVG-20010904/DTD/svg10.dtd">
<svg version="1.0" xmlns="http://www.w3.org/2000/svg"
 width="2360.000000pt" height="1640.000000pt" viewBox="0 0 2360.000000 1640.000000"
 preserveAspectRatio="xMidYMid meet">
<metadata>
Created by potrace 1.16, written by Peter Selinger 2001-2019
</metadata>
<g transform="translate(0.000000,1640.000000) scale(0.100000,-0.100000)"
fill="#000000" stroke="none">
<path d="M8931 14816 c-7 -8 -10 -19 -7 -24 3 -5 -3 -76 -14 -158 -22 -167
-25 -250 -10 -259 6 -4 9 -14 6 -23 -3 -10 -28 -199 -56 -422 -62 -505 -66
-538 -85 -740 -9 -91 -27 -277 -40 -415 -34 -340 -69 -743 -105 -1215 -17
-217 -50 -642 -75 -945 -24 -302 -51 -647 -60 -765 -17 -236 -52 -659 -150
-1820 -35 -421 -78 -965 -95 -1210 -17 -245 -39 -557 -50 -695 -39 -491 -79
-1055 -100 -1380 -41 -659 -51 -810 -55 -835 -3 -14 -16 -160 -30 -325 -14
-165 -35 -385 -45 -490 -53 -501 -76 -991 -51 -1057 16 -42 62 -48 305 -38
138 6 270 6 360 0 201 -14 339 -13 355 3 9 9 83 12 304 12 260 -1 299 -3 357
-20 62 -19 96 -20 780 -17 445 1 761 -2 838 -8 89 -8 128 -8 137 0 9 8 12 28
8 68 -2 31 18 394 46 806 47 682 50 751 35 759 -10 6 -14 17 -10 30 5 23 21
209 31 382 3 55 13 188 21 295 7 107 14 224 14 260 0 85 10 140 24 140 12 0
22 149 203 2833 43 636 80 1157 83 1157 3 0 40 -521 83 -1157 181 -2684 191
-2833 203 -2833 14 0 24 -55 24 -140 0 -36 7 -153 14 -260 8 -107 18 -240 21
-295 10 -173 26 -359 31 -382 4 -13 0 -24 -10 -30 -15 -8 -12 -76 34 -752 27
-409 46 -749 42 -757 -5 -8 -3 -40 3 -72 l12 -57 44 3 c24 2 404 4 844 6 753
2 804 3 865 21 57 17 101 19 351 19 227 1 291 -2 312 -13 21 -11 59 -13 189
-7 90 4 281 9 426 12 199 5 280 10 335 23 l72 18 3 177 c3 181 -18 490 -58
871 -10 105 -31 325 -45 490 -14 165 -27 311 -30 325 -4 25 -14 176 -55 835
-21 325 -61 889 -100 1380 -11 138 -33 450 -50 695 -17 245 -60 789 -95 1210
-105 1243 -133 1589 -155 1885 -11 154 -34 438 -50 630 -16 193 -43 535 -60
760 -16 226 -39 514 -50 640 -11 127 -25 286 -31 355 -5 69 -26 285 -45 480
-18 195 -38 405 -44 465 -19 199 -126 1077 -136 1107 -3 9 0 19 6 23 15 9 12
92 -10 259 -11 82 -17 153 -14 158 3 5 0 16 -7 24 -10 12 -36 14 -158 9 -673
-27 -2434 -78 -2711 -78 -277 0 -2038 51 -2711 78 -122 5 -148 3 -158 -9z
M9200 1990 c-10 -7 40 -10 164 -10 99 0 177 2 175 5 -11 10 -324 15 -339 5z
M14105 1989 c-27 -3 31 -6 130 -7 121 -1 175 2 165 8 -15 10 -206 10 -295 -1z"/>
</g>
</svg>
