<?xml version="1.0" standalone="no"?>
<!DOCTYPE svg PUBLIC "-//W3C//DTD SVG 20010904//EN"
 "http://www.w3.org/TR/2001/REC-SVG-20010904/DTD/svg10.dtd">
<svg version="1.0" xmlns="http://www.w3.org/2000/svg"
 width="2360.000000pt" height="1640.000000pt" viewBox="0 0 2360.000000 1640.000000"
 preserveAspectRatio="xMidYMid meet">
<metadata>
Created by potrace 1.16, written by Peter Selinger 2001-2019
</metadata>
<g transform="translate(0.000000,1640.000000) scale(0.100000,-0.100000)"
fill="#000000" stroke="none">
<path d="M8931 14816 c-7 -8 -10 -19 -7 -24 3 -5 -3 -76 -14 -158 -22 -167
-25 -250 -10 -259 6 -4 9 -14 6 -23 -3 -10 -28 -199 -56 -422 -62 -505 -66
-538 -85 -740 -9 -91 -27 -277 -40 -415 -34 -340 -69 -743 -105 -1215 -17
-217 -50 -642 -75 -945 -24 -302 -51 -647 -60 -765 -17 -236 -52 -659 -150
-1820 -35 -421 -78 -965 -95 -1210 -17 -245 -37 -528 -45 -630 -55 -692 -96
-1281 -130 -1855 -9 -143 -24 -352 -35 -465 -10 -113 -24 -268 -30 -345 -6
-77 -23 -250 -36 -385 -58 -570 -81 -1034 -55 -1103 16 -42 80 -53 281 -47
247 7 384 6 1183 -7 390 -7 928 -9 1195 -6 336 4 530 2 626 -6 99 -8 142 -9
151 -1 9 8 12 28 8 68 -4 53 19 414 192 2962 66 977 146 2150 212 3143 21 306
40 557 43 557 3 0 22 -251 43 -557 66 -993 146 -2166 212 -3143 161 -2372 194
-2893 187 -2906 -5 -8 -3 -40 3 -72 l12 -57 44 3 c24 1 503 4 1064 6 1206 4
2134 27 2255 55 l75 18 3 169 c3 173 -15 461 -48 779 -10 99 -26 259 -34 355
-9 96 -27 301 -41 455 -14 154 -34 431 -45 615 -35 579 -64 987 -120 1705 -11
138 -33 450 -50 695 -17 245 -60 789 -95 1210 -105 1243 -133 1589 -155 1885
-11 154 -34 438 -50 630 -16 193 -43 535 -60 760 -16 226 -39 514 -50 640 -11
127 -25 286 -31 355 -5 69 -26 285 -45 480 -18 195 -38 405 -44 465 -19 199
-126 1077 -136 1107 -3 9 0 19 6 23 15 9 12 92 -10 259 -11 82 -17 153 -14
158 3 5 0 16 -7 24 -10 12 -36 14 -158 9 -673 -27 -2434 -78 -2711 -78 -277 0
-2038 51 -2711 78 -122 5 -148 3 -158 -9z"/>
</g>
</svg>
