<?xml version="1.0" standalone="no"?>
<!DOCTYPE svg PUBLIC "-//W3C//DTD SVG 20010904//EN"
 "http://www.w3.org/TR/2001/REC-SVG-20010904/DTD/svg10.dtd">
<svg version="1.0" xmlns="http://www.w3.org/2000/svg"
 width="2360.000000pt" height="1640.000000pt" viewBox="0 0 2360.000000 1640.000000"
 preserveAspectRatio="xMidYMid meet">
<metadata>
Created by potrace 1.16, written by Peter Selinger 2001-2019
</metadata>
<g transform="translate(0.000000,1640.000000) scale(0.100000,-0.100000)"
fill="#000000" stroke="none">
<path d="M8931 14816 c-7 -8 -10 -19 -7 -24 3 -5 -3 -79 -14 -163 -22 -169
-25 -240 -11 -255 5 -5 6 -32 1 -64 -5 -30 -32 -239 -59 -465 -44 -357 -69
-593 -136 -1290 -21 -218 -81 -936 -105 -1255 -11 -151 -36 -462 -55 -690 -19
-228 -44 -541 -55 -695 -22 -296 -51 -647 -155 -1885 -35 -421 -78 -965 -95
-1210 -17 -245 -37 -528 -45 -630 -55 -692 -96 -1281 -130 -1855 -9 -143 -24
-352 -35 -465 -10 -113 -24 -268 -30 -345 -6 -77 -23 -250 -36 -385 -58 -570
-81 -1034 -55 -1103 16 -42 80 -53 281 -47 247 7 384 6 1183 -7 390 -7 928 -9
1195 -6 336 4 530 2 626 -6 99 -8 142 -9 151 -1 9 8 12 28 8 68 -4 53 19 414
192 2962 66 977 146 2150 212 3143 21 306 40 557 43 557 3 0 22 -251 43 -557
66 -993 146 -2166 212 -3143 161 -2372 194 -2893 187 -2906 -5 -8 -3 -40 3
-72 l12 -57 44 3 c24 1 503 4 1064 6 1206 4 2134 27 2255 55 l75 18 3 169 c3
173 -15 461 -48 779 -10 99 -26 259 -34 355 -9 96 -27 301 -41 455 -14 154
-34 431 -45 615 -35 579 -64 987 -120 1705 -11 138 -33 450 -50 695 -17 245
-60 789 -95 1210 -104 1240 -133 1589 -155 1885 -11 154 -36 467 -55 695 -19
228 -42 512 -50 630 -19 259 -89 1106 -110 1315 -70 724 -92 932 -136 1290
-27 226 -54 435 -59 465 -5 32 -4 59 1 64 14 15 11 86 -11 254 -10 83 -17 158
-14 165 3 8 -1 19 -8 25 -13 11 -196 6 -2178 -59 -766 -25 -604 -25 -1385 0
-352 12 -921 30 -1265 41 -344 10 -686 22 -761 25 -114 5 -138 4 -148 -9z"/>
</g>
</svg>
