<?xml version="1.0" standalone="no"?>
<!DOCTYPE svg PUBLIC "-//W3C//DTD SVG 20010904//EN"
 "http://www.w3.org/TR/2001/REC-SVG-20010904/DTD/svg10.dtd">
<svg version="1.0" xmlns="http://www.w3.org/2000/svg"
 width="2360.000000pt" height="1640.000000pt" viewBox="0 0 2360.000000 1640.000000"
 preserveAspectRatio="xMidYMid meet">
<metadata>
Created by potrace 1.16, written by Peter Selinger 2001-2019
</metadata>
<g transform="translate(0.000000,1640.000000) scale(0.100000,-0.100000)"
fill="#000000" stroke="none">
<path d="M8953 1714 c-3 -8 0 -82 6 -165 6 -82 10 -154 8 -160 -5 -24 115 -49
243 -49 69 0 281 -5 471 -11 l347 -11 61 27 c33 15 59 31 56 34 -2 4 14 78 36
166 22 87 38 164 35 171 -8 22 -36 16 -45 -8 -5 -13 -26 -92 -47 -175 l-38
-153 -39 0 c-30 0 -37 3 -29 13 16 19 36 247 23 260 -8 8 -15 7 -27 -4 -11
-11 -19 -53 -26 -140 l-12 -124 -48 3 -48 4 0 144 c0 111 -3 144 -13 144 -31
0 -37 -24 -37 -157 l0 -133 -67 0 -68 0 3 137 c2 141 -4 171 -32 160 -14 -5
-16 -28 -16 -150 l0 -143 -57 4 c-32 2 -60 6 -61 7 -2 2 -7 63 -10 137 -7 124
-8 133 -27 133 -19 0 -20 -7 -20 -138 l0 -137 -51 0 c-61 0 -64 4 -64 125 0
44 -3 104 -7 133 -5 47 -8 53 -27 50 -20 -3 -21 -7 -17 -150 l4 -148 -77 0
-76 0 0 139 c0 141 -6 165 -35 141 -12 -10 -15 -41 -15 -146 l0 -134 -45 0
c-25 0 -45 4 -45 9 0 29 -21 269 -25 289 -6 25 -33 30 -42 6z M13384 1716 c-3
-7 13 -84 35 -171 22 -88 38 -162 36 -166 -3 -3 23 -19 56 -34 l61 -27 347 11
c190 6 402 11 471 11 93 0 140 5 183 18 l58 19 4 59 c1 32 6 110 10 171 7 102
6 113 -10 119 -25 10 -32 -8 -39 -110 -4 -50 -9 -117 -13 -148 l-6 -58 -43 0
-44 0 0 134 c0 105 -3 136 -15 146 -29 24 -35 0 -35 -141 l0 -139 -76 0 -77 0
4 148 c4 143 3 147 -17 150 -19 3 -22 -3 -27 -50 -4 -29 -7 -89 -7 -133 0
-121 -3 -125 -64 -125 l-51 0 0 137 c0 131 -1 138 -20 138 -19 0 -20 -9 -27
-133 -3 -74 -8 -135 -10 -137 -1 -1 -29 -5 -60 -7 l-58 -4 0 143 c0 122 -2
145 -16 150 -28 11 -34 -19 -32 -160 l3 -137 -67 0 -68 0 0 133 c0 133 -6 157
-37 157 -10 0 -13 -33 -13 -144 l0 -144 -48 -4 -48 -3 -12 124 c-7 87 -15 129
-26 140 -12 11 -19 12 -27 4 -13 -13 7 -241 23 -260 8 -10 1 -13 -29 -13 l-39
0 -38 153 c-21 83 -42 162 -47 175 -9 24 -37 30 -45 8z"/>
</g>
</svg>
