<?xml version="1.0" standalone="no"?>
<!DOCTYPE svg PUBLIC "-//W3C//DTD SVG 20010904//EN"
 "http://www.w3.org/TR/2001/REC-SVG-20010904/DTD/svg10.dtd">
<svg version="1.0" xmlns="http://www.w3.org/2000/svg"
 width="2360.000000pt" height="1640.000000pt" viewBox="0 0 2360.000000 1640.000000"
 preserveAspectRatio="xMidYMid meet">
<metadata>
Created by potrace 1.16, written by Peter Selinger 2001-2019
</metadata>
<g transform="translate(0.000000,1640.000000) scale(0.100000,-0.100000)"
fill="#000000" stroke="none">
<path d="M8953 1714 c-3 -8 0 -82 6 -165 6 -82 10 -154 8 -160 -5 -24 115 -49
243 -49 69 0 281 -5 471 -11 l347 -11 61 27 c33 15 59 31 56 34 -2 4 14 78 36
166 22 87 38 164 35 171 -8 22 -36 16 -45 -8 -5 -13 -26 -92 -47 -176 l-38
-153 -146 6 c-254 9 -409 14 -665 21 -137 4 -251 7 -252 8 -1 1 -7 62 -13 136
-6 74 -13 145 -15 158 -6 25 -33 30 -42 6z M13384 1716 c-3 -7 13 -84 35 -171
22 -88 38 -162 36 -166 -3 -3 23 -19 56 -34 l61 -27 347 11 c190 6 402 11 471
11 93 0 140 5 183 19 l59 18 6 109 c11 192 9 238 -10 242 -22 4 -25 -9 -38
-178 -6 -74 -12 -135 -13 -136 -1 -1 -114 -4 -252 -8 -256 -7 -411 -12 -665
-21 l-146 -6 -38 153 c-21 84 -42 163 -47 176 -9 24 -37 30 -45 8z"/>
</g>
</svg>
