<?xml version="1.0" standalone="no"?>
<!DOCTYPE svg PUBLIC "-//W3C//DTD SVG 20010904//EN"
 "http://www.w3.org/TR/2001/REC-SVG-20010904/DTD/svg10.dtd">
<svg version="1.0" xmlns="http://www.w3.org/2000/svg"
 width="2360.000000pt" height="1640.000000pt" viewBox="0 0 2360.000000 1640.000000"
 preserveAspectRatio="xMidYMid meet">
<metadata>
Created by potrace 1.16, written by Peter Selinger 2001-2019
</metadata>
<g transform="translate(0.000000,1640.000000) scale(0.100000,-0.100000)"
fill="#000000" stroke="none">
<path d="M8564 2515 c-6 -14 51 -716 62 -763 8 -37 38 -24 42 18 3 40 -55 722
-64 745 -8 19 -33 20 -40 0z M14996 2515 c-9 -23 -67 -705 -64 -745 4 -42 34
-55 42 -18 11 47 68 749 62 763 -7 20 -32 19 -40 0z M11184 2435 c-4 -8 -30
-178 -58 -377 -42 -293 -55 -362 -67 -359 -29 9 -224 20 -519 30 -402 14
-1834 15 -1861 1 -24 -13 -25 -36 -1 -48 9 -5 324 -8 712 -7 692 2 1123 -5
1465 -24 114 -6 186 -6 197 0 15 8 18 6 18 -15 0 -31 18 -43 35 -25 10 11 126
773 125 827 0 17 -39 15 -46 -3z M12370 2438 c-1 -53 115 -816 125 -827 17
-18 35 -6 35 25 0 21 3 23 18 15 11 -6 83 -6 197 0 342 19 773 26 1465 24 388
-1 703 2 713 7 23 12 22 35 -2 48 -27 14 -1459 13 -1861 -1 -295 -10 -490 -21
-519 -30 -12 -3 -25 66 -67 359 -28 199 -54 369 -58 377 -7 18 -46 20 -46 3z"/>
</g>
</svg>
