<?xml version="1.0" standalone="no"?>
<!DOCTYPE svg PUBLIC "-//W3C//DTD SVG 20010904//EN"
 "http://www.w3.org/TR/2001/REC-SVG-20010904/DTD/svg10.dtd">
<svg version="1.0" xmlns="http://www.w3.org/2000/svg"
 width="2360.000000pt" height="1640.000000pt" viewBox="0 0 2360.000000 1640.000000"
 preserveAspectRatio="xMidYMid meet">
<metadata>
Created by potrace 1.16, written by Peter Selinger 2001-2019
</metadata>
<g transform="translate(0.000000,1640.000000) scale(0.100000,-0.100000)"
fill="#000000" stroke="none">
<path d="M8564 2515 c-6 -14 51 -716 62 -763 8 -37 38 -24 42 18 3 40 -55 722
-64 745 -8 19 -33 20 -40 0z M14996 2515 c-9 -23 -67 -705 -64 -745 4 -42 34
-55 42 -18 11 47 68 749 62 763 -7 20 -32 19 -40 0z M9662 2503 c-5 -10 -12
-157 -16 -328 -3 -170 -9 -338 -12 -372 l-6 -63 -118 0 -117 0 4 78 c13 289
22 643 17 656 -7 18 -13 19 -32 7 -10 -6 -17 -94 -27 -372 -7 -200 -14 -365
-14 -366 -1 -2 -43 -3 -94 -3 l-94 0 -6 128 c-4 70 -7 234 -7 364 0 130 -3
243 -6 252 -3 9 -15 16 -26 16 -20 0 -20 -4 -16 -380 l4 -380 -106 0 -107 0
-6 366 c-5 369 -9 400 -42 387 -12 -4 -13 -64 -8 -379 l6 -374 -67 0 c-71 0
-106 -11 -106 -35 0 -8 8 -18 18 -23 9 -5 324 -8 712 -7 692 2 1123 -5 1465
-24 114 -6 186 -6 197 0 15 8 18 6 18 -15 0 -31 18 -43 35 -25 10 11 126 773
125 827 0 14 -19 16 -38 4 -7 -5 -32 -144 -65 -378 -43 -298 -56 -368 -68
-365 -8 3 -38 7 -66 9 -44 3 -53 7 -53 23 0 10 16 156 35 323 19 168 35 309
35 313 0 4 -11 9 -24 9 -28 2 -23 31 -68 -363 l-33 -293 -67 0 -67 0 4 28 c9
55 58 662 54 666 -2 2 -13 6 -24 8 -19 3 -21 -10 -47 -287 -14 -159 -28 -317
-29 -351 l-3 -61 -116 5 c-63 2 -116 6 -118 7 -3 3 16 198 58 614 5 52 7 98 4
102 -2 4 -13 7 -24 6 -22 -1 -22 -1 -50 -292 -10 -110 -24 -253 -31 -317 l-12
-117 -106 6 c-58 3 -107 6 -107 7 -1 0 9 111 22 246 27 295 39 490 30 490 -26
0 -46 -24 -46 -53 0 -38 -48 -607 -56 -654 l-5 -33 -99 0 -100 0 0 33 c0 17 9
158 20 312 27 390 27 416 -9 383 -11 -10 -13 -10 -7 0 4 6 3 12 -2 12 -5 0
-12 -53 -15 -117 -4 -65 -14 -232 -24 -370 l-17 -253 -106 0 -105 0 3 117 c2
65 6 235 11 378 4 143 5 266 3 273 -6 18 -30 15 -40 -5z M13898 2508 c-2 -7
-1 -130 3 -273 5 -143 9 -313 11 -378 l3 -117 -105 0 -106 0 -17 253 c-10 138
-20 305 -24 370 -3 64 -10 117 -15 117 -5 0 -6 -6 -2 -12 6 -10 4 -10 -7 0
-36 33 -36 7 -9 -383 11 -154 20 -295 20 -312 l0 -33 -100 0 -99 0 -5 33 c-8
47 -56 616 -56 654 0 29 -20 53 -46 53 -9 0 3 -195 30 -490 13 -135 23 -246
22 -246 0 -1 -49 -4 -107 -7 l-106 -6 -12 117 c-7 64 -21 207 -31 317 -28 291
-28 291 -50 292 -11 1 -22 -2 -24 -6 -3 -4 -1 -50 4 -102 42 -416 61 -611 58
-614 -2 -1 -55 -5 -118 -7 l-116 -5 -3 61 c-1 34 -15 192 -29 351 -26 277 -28
290 -47 287 -11 -2 -22 -6 -24 -8 -4 -4 45 -611 54 -666 l5 -28 -68 0 -67 0
-33 293 c-45 394 -40 365 -68 363 -13 0 -24 -5 -24 -9 0 -4 16 -145 35 -313
19 -167 35 -313 35 -323 0 -16 -9 -20 -52 -23 -29 -2 -59 -6 -67 -9 -12 -3
-25 67 -68 365 -33 234 -58 373 -65 378 -19 12 -38 10 -38 -4 -1 -53 115 -816
125 -827 17 -18 35 -6 35 25 0 21 3 23 18 15 11 -6 83 -6 197 0 342 19 773 26
1465 24 388 -1 703 2 713 7 9 5 17 15 17 23 0 24 -35 35 -106 35 l-67 0 6 374
c5 315 4 375 -8 379 -33 13 -37 -18 -42 -387 l-6 -366 -107 0 -106 0 4 380 c4
376 4 380 -16 380 -11 0 -23 -7 -26 -16 -3 -9 -6 -122 -6 -252 0 -130 -3 -294
-7 -364 l-6 -128 -94 0 c-51 0 -93 1 -94 3 0 1 -7 166 -14 366 -10 278 -17
366 -27 372 -19 12 -25 11 -32 -7 -5 -13 4 -367 17 -656 l4 -78 -117 0 -118 0
-6 63 c-3 34 -9 202 -12 372 -4 171 -11 318 -16 328 -10 20 -34 23 -40 5z"/>
</g>
</svg>
