<?xml version="1.0" standalone="no"?>
<!DOCTYPE svg PUBLIC "-//W3C//DTD SVG 20010904//EN"
 "http://www.w3.org/TR/2001/REC-SVG-20010904/DTD/svg10.dtd">
<svg version="1.0" xmlns="http://www.w3.org/2000/svg"
 width="2360.000000pt" height="1640.000000pt" viewBox="0 0 2360.000000 1640.000000"
 preserveAspectRatio="xMidYMid meet">
<metadata>
Created by potrace 1.16, written by Peter Selinger 2001-2019
</metadata>
<g transform="translate(0.000000,1640.000000) scale(0.100000,-0.100000)"
fill="#000000" stroke="none">
<path d="M10150 11645 c0 -9 -12 -20 -26 -25 -28 -11 -24 -30 7 -30 12 0 19
-7 19 -20 0 -11 5 -20 10 -20 6 0 10 9 10 20 0 13 7 20 19 20 29 0 35 18 9 22
-15 2 -24 11 -26 26 -4 25 -22 31 -22 7z M13428 11638 c-2 -15 -11 -24 -26
-26 -26 -4 -20 -22 9 -22 12 0 19 -7 19 -20 0 -11 5 -20 10 -20 6 0 10 9 10
20 0 13 7 20 19 20 31 0 35 19 7 30 -14 5 -26 16 -26 25 0 24 -18 18 -22 -7z
M10255 11553 c-4 -13 -16 -23 -26 -23 -26 0 -33 -17 -9 -25 11 -3 20 -15 20
-25 0 -27 17 -34 23 -10 3 12 14 20 25 20 31 0 36 17 8 24 -17 4 -26 15 -29
34 -4 26 -4 26 -12 5z M13330 11546 c0 -19 -7 -27 -25 -32 -28 -7 -24 -24 7
-24 11 0 22 -8 25 -20 6 -24 23 -17 23 10 0 10 9 22 20 25 24 8 17 25 -11 25
-10 0 -19 6 -19 14 0 8 -4 18 -10 21 -6 4 -10 -5 -10 -19z M10337 11440 c-3
-12 -14 -20 -26 -20 -27 0 -27 -16 -1 -23 12 -3 20 -14 20 -26 0 -26 16 -28
23 -2 2 11 15 21 28 24 l24 4 -22 8 c-15 5 -23 15 -23 31 0 29 -16 32 -23 4z
M13240 11436 c0 -16 -8 -26 -22 -31 l-23 -8 24 -4 c13 -3 26 -13 28 -24 7 -26
23 -24 23 2 0 12 8 23 20 26 26 7 26 23 -1 23 -12 0 -23 8 -26 20 -7 28 -23
25 -23 -4z M10420 11330 c0 -13 -7 -20 -20 -20 -11 0 -20 -4 -20 -10 0 -5 7
-10 15 -10 9 0 21 -12 27 -27 11 -27 12 -27 15 -6 3 14 14 25 29 29 27 7 23
24 -7 24 -12 0 -19 7 -19 20 0 11 -4 20 -10 20 -5 0 -10 -9 -10 -20z M13160
11330 c0 -13 -7 -20 -19 -20 -30 0 -34 -17 -7 -24 15 -4 26 -15 29 -29 3 -21
4 -21 15 6 6 15 18 27 27 27 8 0 15 5 15 10 0 6 -9 10 -20 10 -13 0 -20 7 -20
20 0 11 -4 20 -10 20 -5 0 -10 -9 -10 -20z M10520 11241 c0 -11 -9 -23 -20
-26 -25 -8 -26 -25 -2 -25 11 0 24 -10 30 -22 l11 -23 6 22 c4 11 17 24 28 27
21 6 21 7 -5 22 -16 8 -28 21 -28 29 0 8 -4 15 -10 15 -5 0 -10 -9 -10 -19z
M13060 11245 c0 -8 -12 -21 -27 -29 -27 -15 -27 -16 -6 -22 11 -3 24 -16 28
-27 l6 -22 11 23 c6 12 19 22 30 22 24 0 23 17 -2 25 -11 3 -20 15 -20 26 0
10 -4 19 -10 19 -5 0 -10 -7 -10 -15z M10630 11151 c0 -12 -9 -21 -25 -25 -29
-7 -24 -26 6 -26 12 0 19 -7 19 -20 0 -11 5 -20 10 -20 6 0 10 9 10 20 0 13 7
20 19 20 30 0 34 17 6 24 -16 4 -25 13 -25 26 0 11 -4 20 -10 20 -5 0 -10 -9
-10 -19z M12950 11150 c0 -13 -9 -22 -25 -26 -28 -7 -24 -24 6 -24 12 0 19 -7
19 -20 0 -11 5 -20 10 -20 6 0 10 9 10 20 0 13 7 20 19 20 30 0 35 19 6 26
-16 4 -25 13 -25 25 0 10 -4 19 -10 19 -5 0 -10 -9 -10 -20z M10730 11059 c0
-12 -8 -23 -20 -26 -25 -7 -26 -23 -1 -23 10 0 22 -10 26 -22 l8 -23 4 23 c3
13 12 22 23 22 28 0 34 18 8 22 -15 2 -24 11 -26 26 -4 28 -22 29 -22 1z
M12848 11058 c-2 -15 -11 -24 -26 -26 -26 -4 -20 -22 8 -22 11 0 20 -9 23 -22
l4 -23 8 23 c4 12 16 22 26 22 25 0 24 16 -1 23 -12 3 -20 14 -20 26 0 28 -18
27 -22 -1z M10830 10969 c0 -12 -8 -23 -20 -26 -28 -7 -25 -23 5 -23 18 0 25
-5 25 -20 0 -11 5 -20 10 -20 6 0 10 9 10 19 0 11 9 23 20 26 26 8 26 25 -1
25 -12 0 -23 8 -26 20 -7 26 -23 26 -23 -1z M12747 10970 c-3 -12 -14 -20 -26
-20 -27 0 -27 -17 -1 -25 11 -3 20 -15 20 -26 0 -10 5 -19 10 -19 6 0 10 9 10
20 0 15 7 20 25 20 30 0 33 16 5 23 -12 3 -20 14 -20 26 0 27 -16 27 -23 1z
M10940 10887 c0 -17 -7 -26 -21 -30 -12 -3 -18 -10 -14 -17 4 -6 13 -9 21 -6
8 3 20 -6 28 -22 l15 -27 1 27 c0 18 7 29 20 33 28 9 25 25 -5 25 -15 0 -25 6
-25 14 0 8 -4 18 -10 21 -6 3 -10 -5 -10 -18z M12645 10893 c-5 -15 -15 -23
-31 -23 -29 0 -32 -16 -4 -25 13 -4 20 -15 20 -33 l1 -27 15 27 c8 16 20 25
28 22 8 -3 17 0 21 6 4 7 -1 14 -13 17 -13 3 -22 15 -25 32 -4 25 -4 25 -12 4z
M11059 10818 c-1 -7 -1 -17 0 -21 1 -5 -8 -11 -19 -14 -26 -7 -26 -23 -1 -23
11 0 23 -9 26 -20 9 -28 25 -25 25 5 0 18 5 25 20 25 11 0 20 5 20 10 0 6 -11
10 -25 10 -15 0 -25 6 -25 14 0 19 -20 32 -21 14z M12524 10813 c-4 -16 -14
-23 -30 -23 -13 0 -24 -4 -24 -10 0 -5 9 -10 20 -10 15 0 20 -7 20 -25 0 -30
16 -33 25 -5 3 11 15 20 26 20 26 0 24 16 -2 23 -12 3 -19 10 -16 14 3 5 1 15
-4 23 -7 12 -10 11 -15 -7z M11170 10729 c0 -12 -8 -23 -20 -26 -26 -7 -26
-23 1 -23 12 0 23 -8 26 -20 7 -26 23 -26 23 1 0 12 8 23 20 26 28 7 25 23 -5
23 -18 0 -25 5 -25 20 0 11 -4 20 -10 20 -5 0 -10 -9 -10 -21z M12410 10730
c0 -15 -7 -20 -25 -20 -30 0 -33 -16 -5 -23 12 -3 20 -14 20 -26 0 -27 16 -27
23 -1 3 12 14 20 26 20 27 0 27 16 1 23 -12 3 -20 14 -20 26 0 12 -4 21 -10
21 -5 0 -10 -9 -10 -20z M8436 10645 c-3 -8 -18 -15 -33 -15 l-28 0 22 -18
c12 -9 23 -28 26 -42 l4 -25 8 23 c6 18 13 23 31 19 29 -5 31 8 5 23 -13 6
-17 17 -14 30 6 23 -12 28 -21 5z M11273 10641 c3 -13 -1 -21 -14 -24 -27 -7
-23 -27 5 -27 16 0 26 -8 31 -22 8 -22 8 -22 12 4 2 16 13 30 24 33 27 9 24
25 -5 25 -13 0 -26 7 -30 15 -8 22 -29 18 -23 -4z M12304 10645 c-4 -8 -17
-15 -30 -15 -29 0 -32 -16 -5 -25 11 -3 22 -17 24 -33 4 -26 4 -26 12 -4 5 14
15 22 31 22 28 0 32 20 5 27 -13 3 -17 11 -14 24 6 22 -15 26 -23 4z M15143
10640 c3 -13 -1 -24 -14 -30 -26 -15 -24 -28 5 -23 18 4 25 -1 31 -19 l8 -23
4 25 c3 14 14 33 26 42 l22 18 -28 0 c-15 0 -30 7 -33 15 -9 23 -27 18 -21 -5z
M11390 10571 c0 -10 -10 -26 -22 -34 l-23 -16 26 0 c16 -1 33 -10 42 -23 l16
-23 0 27 c1 18 8 29 21 33 30 10 25 28 -6 21 -20 -5 -27 -3 -31 14 -7 25 -23
26 -23 1z M12187 10570 c-4 -17 -11 -19 -31 -14 -31 7 -36 -11 -6 -21 13 -4
20 -15 21 -33 l0 -27 16 23 c9 13 26 22 42 23 l26 0 -22 16 c-13 8 -23 24 -23
34 0 25 -16 24 -23 -1z M8513 10533 c-7 -12 -25 -24 -40 -26 -27 -4 -27 -4 -5
-12 14 -5 22 -15 22 -31 0 -27 15 -32 24 -9 3 8 15 15 26 15 11 0 20 5 20 10
0 6 -6 10 -14 10 -9 0 -16 12 -18 33 -3 31 -3 31 -15 10z M15070 10523 c0 -23
-5 -33 -15 -33 -8 0 -15 -4 -15 -10 0 -5 9 -10 20 -10 11 0 23 -7 26 -15 9
-23 24 -18 24 9 0 16 8 26 23 31 22 8 22 8 -3 12 -14 3 -33 14 -42 26 l-18 22
0 -32z M11510 10499 c0 -12 -8 -23 -20 -26 -23 -6 -17 -23 9 -23 10 0 26 -10
34 -22 l16 -23 0 26 c1 16 10 33 24 42 22 16 22 16 -10 16 -22 1 -33 6 -33 16
0 8 -4 15 -10 15 -5 0 -10 -9 -10 -21z M12070 10505 c0 -10 -11 -15 -32 -16
-33 0 -33 0 -10 -16 13 -9 22 -26 23 -42 l0 -26 16 23 c8 12 24 22 34 22 26 0
32 17 9 23 -12 3 -20 14 -20 26 0 12 -4 21 -10 21 -5 0 -10 -7 -10 -15z
M11630 10438 c0 -18 -7 -29 -20 -33 -26 -8 -14 -28 12 -22 14 4 22 0 25 -14 7
-27 23 -24 23 5 0 16 8 26 23 31 22 8 22 8 -3 12 -14 3 -33 14 -42 26 l-18 22
0 -27z M11952 10443 c-6 -12 -24 -24 -39 -26 -27 -4 -27 -4 -5 -12 14 -5 22
-15 22 -31 0 -29 16 -32 23 -5 3 14 11 18 25 14 26 -6 38 14 13 22 -12 3 -21
17 -23 33 -3 27 -3 27 -16 5z M8576 10405 c-3 -8 -18 -15 -33 -15 -27 -1 -27
-1 -8 -16 11 -8 19 -24 17 -34 -4 -24 16 -27 25 -4 3 8 12 13 20 10 26 -10 35
5 13 21 -14 10 -19 21 -15 34 7 22 -10 26 -19 4z M15005 10401 c4 -13 -1 -24
-15 -34 -22 -16 -13 -31 13 -21 8 3 17 -2 20 -10 9 -23 29 -20 25 4 -2 10 6
26 17 34 19 15 19 15 -8 16 -15 0 -30 7 -33 15 -9 22 -26 18 -19 -4z M11750
10366 c0 -16 -7 -26 -21 -29 -12 -3 -18 -10 -15 -15 3 -6 15 -8 27 -5 15 4 22
0 26 -16 7 -29 23 -27 23 4 0 14 5 25 10 25 6 0 10 -11 10 -25 0 -31 16 -33
23 -4 4 16 11 20 26 16 12 -3 24 -1 27 5 3 5 -3 12 -15 15 -14 3 -21 13 -21
29 0 27 -17 33 -22 7 -4 -23 -49 -25 -56 -1 -6 26 -22 22 -22 -6z M8630 10275
c-8 -9 -22 -13 -39 -9 l-26 5 22 -19 c15 -13 20 -26 16 -41 -6 -24 12 -29 21
-6 4 11 13 14 31 9 30 -7 33 6 6 23 -13 8 -18 19 -14 33 6 24 0 26 -17 5z
M14953 10272 c4 -16 0 -26 -14 -35 -27 -17 -24 -30 6 -23 18 5 27 2 31 -9 9
-23 27 -18 21 6 -4 15 1 28 16 41 l22 20 -25 -6 c-15 -3 -32 1 -44 12 -18 16
-19 16 -13 -6z M8676 10145 c-4 -11 -13 -14 -33 -9 -28 7 -28 7 -10 -14 12
-13 16 -28 12 -41 -7 -25 12 -29 22 -5 4 11 13 14 29 10 26 -7 34 11 9 20 -10
4 -13 14 -9 30 7 26 -10 34 -20 9z M14904 10136 c4 -16 1 -26 -9 -30 -25 -9
-17 -27 9 -20 16 4 25 1 29 -10 10 -24 29 -20 22 5 -4 13 0 28 12 41 18 21 18
21 -10 14 -20 -5 -29 -2 -33 9 -10 25 -27 17 -20 -9z M8720 10015 c-8 -10 -21
-13 -39 -8 -25 6 -25 5 -9 -13 11 -12 15 -28 11 -42 -6 -25 14 -31 23 -7 4 10
14 13 33 8 25 -6 25 -5 9 13 -11 12 -15 28 -11 42 6 26 1 28 -17 7z M14863
10010 c4 -16 0 -31 -11 -44 -16 -18 -16 -19 9 -13 19 5 29 2 33 -8 9 -24 29
-18 23 7 -4 14 0 30 11 42 16 18 16 19 -8 13 -16 -4 -31 0 -44 11 -18 16 -19
16 -13 -8z M8760 9885 c-9 -11 -22 -14 -44 -9 -31 6 -31 6 -13 -14 12 -13 16
-28 12 -41 -7 -22 9 -29 21 -10 3 6 17 8 30 5 24 -6 33 7 13 20 -6 3 -9 19 -5
35 6 33 4 35 -14 14z M14826 9873 c3 -18 1 -33 -5 -37 -20 -13 -11 -26 13 -20
13 3 27 1 30 -5 12 -19 28 -12 21 10 -4 13 0 28 12 41 18 21 18 21 -11 14 -20
-5 -34 -2 -47 10 -18 17 -19 16 -13 -13z M8784 9743 c-10 -15 -13 -16 -28 -4
-21 17 -33 7 -16 -14 7 -8 10 -25 6 -40 -7 -29 -3 -31 18 -10 12 12 20 14 36
5 16 -9 20 -8 20 5 0 8 -5 15 -11 15 -7 0 -9 11 -5 30 6 33 -3 39 -20 13z
M14797 9730 c3 -19 1 -30 -6 -30 -6 0 -11 -7 -11 -15 0 -13 4 -14 20 -5 16 9
24 7 36 -5 21 -21 25 -19 18 10 -4 15 -1 32 6 40 17 21 5 31 -16 14 -14 -11
-18 -11 -29 4 -18 25 -25 21 -18 -13z M8815 9609 c-4 -6 -20 -7 -38 -3 -31 6
-31 6 -15 -13 11 -12 15 -27 11 -43 -6 -22 -4 -23 9 -12 10 8 26 10 42 6 29
-7 36 9 10 24 -13 7 -14 13 -5 31 12 21 -2 31 -14 10z M14771 9599 c9 -18 8
-24 -5 -31 -26 -15 -19 -31 10 -24 16 4 32 2 42 -6 13 -11 15 -10 9 12 -4 16
0 31 11 43 16 19 16 19 -15 13 -18 -4 -34 -3 -38 3 -12 21 -26 11 -14 -10z
M8838 9474 c-12 -13 -20 -14 -36 -5 -31 17 -37 13 -16 -10 15 -17 16 -23 6
-40 -10 -15 -10 -19 2 -19 8 0 18 5 21 10 4 7 13 6 26 -1 27 -14 34 -6 14 15
-13 12 -14 20 -5 37 15 26 8 33 -12 13z M14740 9486 c0 -4 5 -16 10 -27 8 -15
7 -23 -5 -35 -20 -21 -13 -29 14 -15 13 7 22 8 26 1 3 -5 13 -10 21 -10 12 0
12 4 2 19 -10 17 -9 23 6 40 21 23 15 27 -15 10 -16 -8 -25 -7 -40 7 -10 9
-19 14 -19 10z M8850 9335 c-9 -11 -17 -12 -32 -4 -25 13 -35 4 -18 -16 10
-12 10 -18 0 -30 -16 -20 -5 -32 14 -16 11 9 20 10 35 1 17 -8 21 -8 21 4 0 8
-5 18 -10 21 -7 4 -6 13 1 26 13 26 6 35 -11 14z M14730 9346 c0 -4 5 -16 10
-26 7 -13 7 -21 0 -25 -5 -3 -10 -13 -10 -21 0 -12 4 -12 21 -4 15 9 24 8 35
-1 19 -16 30 -4 14 16 -10 12 -10 18 0 30 17 20 7 30 -17 17 -13 -8 -22 -7
-35 5 -10 9 -18 13 -18 9z M8802 9185 c8 -19 8 -28 -2 -40 -17 -21 -7 -29 18
-14 17 10 23 10 36 -1 22 -17 30 -7 15 18 -10 17 -10 23 1 36 18 22 7 30 -19
14 -16 -10 -23 -10 -33 0 -20 20 -28 14 -16 -13z M14720 9202 c0 -4 6 -14 12
-20 10 -10 10 -17 0 -33 -17 -27 -10 -34 16 -18 17 10 23 10 36 -1 21 -17 33
-5 16 15 -10 12 -10 21 -2 40 13 28 10 30 -18 13 -15 -10 -22 -10 -32 0 -14
14 -28 16 -28 4z M8802 9045 c8 -19 8 -28 -3 -41 -12 -15 -11 -16 18 -10 19 4
34 3 38 -4 3 -5 11 -8 16 -4 6 3 5 11 -2 21 -10 12 -10 19 0 35 15 24 7 36
-13 19 -11 -9 -20 -10 -35 -2 -29 16 -32 14 -19 -14z M14720 9062 c0 -4 6 -14
12 -20 10 -10 10 -17 0 -32 -6 -11 -8 -21 -2 -25 5 -3 12 0 15 5 4 7 19 8 38
4 29 -6 30 -5 18 10 -11 13 -11 22 -3 41 13 28 10 30 -20 14 -14 -8 -23 -8
-31 0 -13 13 -27 14 -27 3z M8790 8933 c0 -5 6 -15 12 -21 10 -10 10 -17 0
-33 -16 -26 -10 -34 15 -21 13 8 23 6 37 -6 18 -16 19 -16 12 11 -3 15 -2 36
4 47 12 21 1 27 -17 9 -8 -8 -18 -6 -37 6 -14 10 -26 13 -26 8z M14781 8924
c-17 -12 -26 -13 -34 -5 -18 18 -29 13 -17 -9 6 -11 7 -32 4 -47 -7 -27 -6
-27 12 -11 14 12 24 14 37 6 24 -13 34 -3 17 18 -11 13 -11 19 -1 36 17 27 10
31 -18 12z M8790 8792 c0 -4 6 -14 12 -20 10 -10 10 -17 0 -33 -16 -25 -8 -37
13 -19 12 10 18 10 30 0 20 -17 32 -5 15 15 -11 13 -10 19 5 35 14 16 15 20 4
20 -8 0 -20 -5 -25 -10 -8 -8 -15 -6 -24 5 -13 16 -30 20 -30 7z M14780 8785
c-9 -11 -16 -13 -24 -5 -5 5 -17 10 -25 10 -11 0 -10 -4 4 -20 15 -16 16 -22
5 -35 -17 -20 -5 -32 15 -15 12 10 18 10 30 0 21 -18 29 -6 13 19 -10 16 -10
23 0 33 6 6 12 16 12 20 0 13 -17 9 -30 -7z M8792 8635 c8 -19 8 -28 -3 -41
-13 -16 -11 -17 13 -11 15 4 30 3 33 -3 13 -21 27 -10 21 16 -4 15 -2 32 5 40
9 12 6 13 -19 8 -17 -4 -32 -1 -36 5 -14 22 -25 10 -14 -14z M14794 8649 c-4
-6 -19 -9 -36 -5 -25 5 -28 4 -19 -8 7 -8 9 -25 5 -40 -6 -26 8 -37 21 -16 3
6 18 7 33 3 24 -6 26 -5 13 11 -11 13 -11 22 -3 41 11 24 0 36 -14 14z M8786
8495 c4 -15 1 -32 -7 -42 -13 -15 -11 -16 14 -9 18 4 35 2 44 -6 14 -11 15 -9
9 19 -4 18 -3 34 3 38 21 12 11 26 -10 14 -15 -8 -24 -8 -32 0 -19 19 -28 12
-21 -14z M14740 8511 c0 -5 5 -13 11 -16 6 -4 7 -20 3 -38 -6 -28 -5 -30 9
-19 9 8 26 10 44 6 25 -7 27 -6 14 9 -8 10 -11 27 -7 42 7 26 -2 33 -21 14 -8
-8 -17 -8 -32 0 -13 7 -21 8 -21 2z M11190 3365 c-9 -11 -17 -12 -32 -4 -24
13 -35 5 -19 -15 7 -9 10 -24 6 -36 -6 -20 -5 -21 15 -10 16 9 25 9 36 -1 20
-16 30 -3 14 17 -11 12 -11 20 -2 34 14 23 -1 36 -18 15z M11325 3366 c-14
-10 -24 -11 -33 -4 -18 15 -28 2 -12 -17 10 -12 10 -18 0 -30 -17 -21 -6 -29
18 -14 16 10 23 10 35 0 9 -7 18 -8 21 -3 3 6 -1 15 -9 22 -11 10 -12 16 -4
26 18 22 6 37 -16 20z M11400 3372 c0 -4 5 -13 12 -20 9 -9 9 -18 0 -37 -11
-24 0 -36 13 -14 4 6 20 7 38 3 28 -6 30 -5 19 9 -8 9 -10 26 -6 44 7 25 6 27
-10 14 -13 -11 -22 -11 -41 -3 -14 7 -25 8 -25 4z M11530 3371 c0 -5 7 -14 15
-21 11 -9 12 -17 5 -30 -16 -29 -12 -35 10 -15 16 15 22 16 35 5 20 -17 32 -5
15 15 -10 12 -10 18 0 30 18 21 6 29 -19 13 -16 -10 -23 -10 -33 0 -14 14 -28
16 -28 3z M11670 3372 c0 -4 5 -13 11 -19 8 -8 8 -17 0 -32 -12 -22 -5 -27 19
-11 10 6 20 4 32 -7 14 -13 20 -13 33 -3 8 7 15 8 15 3 0 -5 9 -9 20 -9 11 0
20 4 20 9 0 5 7 4 15 -3 13 -10 19 -10 33 3 12 11 22 13 32 7 24 -16 31 -11
19 11 -8 15 -8 24 0 32 18 18 12 29 -9 17 -14 -8 -25 -7 -40 2 -17 11 -22 10
-31 -2 -8 -11 -12 -12 -16 -2 -2 6 -13 12 -23 12 -10 0 -21 -6 -23 -12 -4 -10
-8 -9 -16 2 -9 12 -14 13 -31 2 -15 -9 -26 -10 -40 -2 -11 6 -20 7 -20 2z
M11980 3372 c0 -4 5 -13 12 -20 8 -8 8 -15 -2 -27 -17 -20 -5 -32 15 -15 13
11 19 10 35 -5 21 -19 26 -11 10 15 -6 10 -4 20 7 32 21 23 11 33 -16 16 -16
-10 -23 -10 -33 0 -14 14 -28 16 -28 4z M12124 3357 c4 -18 2 -35 -6 -44 -11
-14 -9 -15 19 -9 18 4 34 3 38 -3 13 -22 24 -10 13 14 -9 19 -9 28 0 37 20 20
13 28 -13 16 -19 -8 -28 -8 -41 3 -16 13 -17 11 -10 -14z M12250 3367 c0 -9 5
-19 11 -22 7 -5 5 -13 -5 -24 -20 -22 -10 -34 14 -19 14 9 22 9 34 -2 21 -16
33 -5 16 15 -10 12 -10 18 0 30 15 18 5 34 -12 17 -8 -8 -17 -7 -34 5 -22 14
-24 14 -24 0z M12387 3374 c-3 -3 -1 -14 5 -24 9 -14 9 -22 -2 -34 -16 -20 -6
-33 14 -17 11 10 20 10 36 1 20 -11 21 -10 15 10 -4 12 -1 27 6 36 16 19 5 29
-18 16 -13 -8 -22 -7 -34 4 -9 8 -18 11 -22 8z M10520 3355 c-9 -11 -17 -12
-32 -4 -24 13 -35 5 -19 -15 9 -11 10 -20 1 -35 -12 -23 -1 -28 18 -9 10 10
17 10 33 0 25 -16 37 -8 20 12 -7 8 -9 25 -5 40 7 29 2 33 -16 11z M10650
3355 c-9 -11 -16 -13 -24 -5 -5 5 -17 10 -25 10 -11 0 -10 -4 4 -20 14 -16 16
-23 7 -32 -19 -19 -14 -30 8 -18 14 8 26 8 40 0 16 -8 20 -8 20 4 0 8 -5 18
-10 21 -7 4 -7 12 0 25 5 10 10 21 10 24 0 11 -18 6 -30 -9z M10730 3362 c0
-4 6 -14 12 -20 10 -10 10 -17 0 -33 -18 -28 -7 -37 17 -15 12 11 21 14 26 7
3 -6 13 -11 22 -11 12 0 13 3 4 14 -7 9 -9 25 -5 43 7 25 6 27 -10 14 -13 -11
-22 -11 -41 -3 -14 7 -25 8 -25 4z M10860 3361 c0 -5 7 -14 15 -21 11 -9 13
-16 5 -24 -5 -5 -10 -17 -10 -25 0 -11 4 -10 20 4 16 15 22 16 35 5 20 -17 32
-5 15 15 -10 12 -10 18 0 30 18 21 6 29 -19 13 -16 -10 -23 -10 -33 0 -14 14
-28 16 -28 3z M11000 3362 c0 -4 5 -13 11 -19 8 -8 8 -17 0 -32 -12 -22 -2
-28 16 -10 8 8 17 8 33 -1 28 -15 38 -5 17 18 -13 14 -14 21 -5 30 16 16 2 28
-16 13 -11 -9 -20 -10 -35 -1 -12 6 -21 7 -21 2z M12520 3361 c0 -6 5 -13 11
-16 7 -5 4 -14 -7 -26 -22 -24 -13 -34 16 -19 16 9 25 9 33 1 18 -18 28 -12
16 10 -8 15 -8 24 0 32 18 18 12 28 -10 16 -15 -8 -24 -8 -32 0 -13 13 -27 14
-27 2z M12650 3362 c0 -4 5 -13 12 -20 8 -8 8 -15 -2 -27 -17 -20 -5 -32 15
-15 13 11 19 10 35 -5 18 -16 20 -16 20 -2 0 9 -5 19 -11 22 -7 5 -4 14 7 26
22 24 13 35 -15 17 -16 -10 -23 -10 -33 0 -14 14 -28 16 -28 4z M12794 3347
c4 -18 2 -34 -5 -43 -9 -11 -8 -14 4 -14 9 0 19 5 22 11 5 7 14 4 26 -7 24
-22 35 -13 17 15 -10 16 -10 23 0 33 20 20 14 28 -13 16 -19 -8 -28 -8 -41 3
-16 13 -17 11 -10 -14z M12920 3364 c0 -3 5 -14 10 -24 7 -13 7 -21 0 -25 -5
-3 -10 -13 -10 -21 0 -12 4 -12 20 -4 14 8 26 8 40 0 22 -12 27 -1 8 18 -9 9
-7 16 7 32 14 16 15 20 4 20 -8 0 -20 -5 -25 -10 -8 -8 -15 -6 -24 5 -12 15
-30 20 -30 9z M13064 3347 c4 -18 2 -35 -5 -43 -17 -20 -5 -28 20 -12 16 10
23 10 33 0 19 -19 30 -14 18 9 -9 15 -8 24 1 35 16 19 5 29 -18 16 -13 -8 -23
-6 -37 6 -18 16 -19 16 -12 -11z M9790 3348 c0 -8 5 -19 11 -25 8 -8 8 -17 0
-32 -13 -23 -2 -28 17 -9 10 10 17 10 33 0 25 -16 37 -8 20 12 -7 8 -9 25 -5
43 7 27 6 27 -13 11 -17 -16 -21 -16 -41 -2 -18 12 -22 12 -22 2z M9920 3351
c0 -5 7 -14 15 -21 11 -9 12 -17 5 -30 -14 -26 -12 -34 4 -21 8 7 25 9 40 5
27 -7 34 4 14 24 -8 8 -8 15 2 27 17 20 5 32 -15 15 -12 -10 -21 -10 -40 -2
-14 7 -25 8 -25 3z M10060 3352 c0 -4 6 -14 12 -20 10 -10 10 -17 0 -32 -18
-30 -15 -34 12 -16 15 10 27 12 31 6 3 -6 13 -10 22 -10 13 0 13 3 3 15 -7 8
-10 25 -6 40 7 26 -2 33 -21 14 -8 -8 -17 -8 -32 0 -12 7 -21 8 -21 3z M10190
3351 c0 -5 7 -14 15 -21 12 -10 13 -16 4 -27 -16 -18 -3 -29 16 -13 12 10 18
10 30 0 20 -16 32 -5 16 14 -9 11 -10 20 -1 35 12 23 1 28 -18 9 -10 -10 -17
-10 -32 0 -23 14 -30 15 -30 3z M10335 3340 c15 -16 16 -22 5 -35 -16 -20 -5
-32 14 -16 11 9 20 10 35 1 17 -8 21 -8 21 4 0 8 -5 18 -10 21 -8 5 -7 11 1
21 16 19 4 30 -15 15 -11 -9 -20 -10 -35 -2 -30 17 -36 13 -16 -9z M13190
3351 c0 -6 5 -13 11 -17 8 -4 8 -9 0 -17 -6 -6 -11 -17 -11 -24 0 -11 5 -11
21 -3 15 9 24 8 35 -1 19 -16 30 -4 14 16 -11 13 -10 19 5 35 20 22 14 26 -17
9 -14 -8 -23 -8 -31 0 -13 13 -27 14 -27 2z M13330 3339 c9 -15 8 -24 -1 -35
-16 -19 -4 -30 16 -14 12 10 18 10 30 0 19 -15 34 -5 17 12 -9 9 -8 16 5 30
21 23 11 33 -16 16 -16 -10 -23 -10 -33 0 -19 19 -30 14 -18 -9z M13466 3335
c4 -15 1 -32 -6 -40 -10 -12 -10 -15 3 -15 9 0 19 4 22 10 4 6 16 4 31 -6 25
-17 33 -7 12 14 -10 10 -10 17 0 32 17 28 15 32 -9 19 -15 -8 -24 -8 -32 0
-19 19 -28 12 -21 -14z M13590 3352 c0 -4 5 -13 12 -20 9 -9 9 -15 0 -24 -20
-20 -14 -31 14 -24 15 4 32 2 40 -5 16 -13 18 -5 4 21 -7 13 -6 21 5 30 24 20
17 31 -10 18 -19 -9 -28 -9 -37 0 -14 14 -28 16 -28 4z M13734 3337 c4 -18 2
-35 -5 -43 -17 -20 -5 -28 20 -12 16 10 23 10 33 0 19 -19 30 -14 17 9 -8 15
-8 24 0 32 6 6 11 17 11 25 0 10 -4 10 -22 -2 -20 -14 -24 -14 -41 2 -19 16
-20 16 -13 -11z M9120 3337 c0 -7 5 -18 12 -25 8 -8 8 -15 -2 -27 -17 -21 -7
-29 18 -14 16 10 23 10 35 0 10 -7 18 -8 21 -2 4 5 1 13 -4 16 -7 4 -8 19 -5
37 7 28 6 29 -14 16 -17 -10 -25 -10 -41 0 -16 10 -20 10 -20 -1z M9250 3340
c0 -5 5 -12 11 -15 6 -4 7 -20 4 -38 -7 -30 -6 -31 10 -15 14 13 22 14 36 5
23 -14 36 -2 19 18 -10 12 -10 18 0 30 17 20 5 32 -15 15 -12 -10 -21 -10 -40
-2 -14 7 -25 7 -25 2z M9393 3327 c10 -15 12 -29 6 -38 -16 -25 -10 -33 11
-14 16 14 23 16 32 7 7 -7 19 -12 27 -12 11 0 10 4 -4 20 -15 16 -16 22 -5 35
16 20 5 32 -14 16 -11 -9 -20 -10 -35 -2 -30 17 -35 13 -18 -12z M9520 3342
c0 -4 6 -14 12 -20 10 -10 10 -17 0 -32 -10 -16 -10 -20 1 -20 7 0 18 5 25 12
8 8 15 8 27 -2 20 -16 32 -5 16 14 -9 11 -10 20 -1 35 8 16 8 21 -3 21 -7 0
-18 -5 -25 -12 -9 -9 -15 -9 -24 0 -14 14 -28 16 -28 4z M9665 3330 c15 -16
16 -22 5 -35 -16 -20 -5 -32 14 -16 11 9 20 10 35 1 17 -8 21 -8 21 4 0 8 -5
18 -10 21 -8 5 -7 11 1 21 16 19 3 30 -16 14 -12 -10 -19 -10 -27 -2 -7 7 -19
12 -27 12 -11 0 -10 -4 4 -20z M13860 3341 c0 -6 5 -13 11 -17 8 -4 8 -9 0
-17 -6 -6 -11 -17 -11 -24 0 -11 5 -11 21 -3 15 9 24 8 35 -1 19 -16 30 -4 14
16 -11 13 -10 19 5 35 14 16 15 20 4 20 -8 0 -20 -5 -27 -12 -9 -9 -15 -9 -24
0 -14 14 -28 16 -28 3z M14000 3329 c9 -15 8 -24 -1 -35 -16 -19 -4 -30 16
-14 12 10 19 10 27 2 7 -7 18 -12 25 -12 10 0 11 4 1 19 -9 15 -9 23 2 35 17
21 5 33 -15 16 -12 -10 -19 -10 -27 -2 -7 7 -18 12 -25 12 -11 0 -11 -5 -3
-21z M14130 3342 c0 -4 5 -13 12 -20 9 -9 7 -16 -7 -32 -14 -16 -15 -20 -4
-20 8 0 20 5 27 12 9 9 16 7 32 -7 21 -19 27 -11 11 14 -6 9 -4 23 6 38 17 25
12 29 -19 12 -14 -8 -23 -8 -31 0 -13 13 -27 14 -27 3z M14260 3342 c0 -4 5
-13 12 -20 8 -8 8 -15 -2 -27 -17 -20 -4 -32 19 -18 14 9 22 8 36 -5 16 -16
17 -15 10 15 -3 18 -2 34 4 38 22 13 10 24 -14 13 -19 -9 -28 -9 -37 0 -14 14
-28 16 -28 4z M14405 3322 c3 -18 2 -33 -5 -37 -5 -3 -8 -10 -5 -15 4 -6 14
-5 25 2 14 9 22 9 34 -2 21 -17 33 -5 16 15 -10 12 -10 19 -2 27 7 7 12 18 12
25 0 11 -4 11 -20 1 -16 -10 -24 -10 -41 0 -20 13 -21 12 -14 -16z M8723 3317
c10 -15 12 -29 6 -38 -15 -25 -10 -33 11 -14 16 15 22 16 35 5 20 -17 32 -5
15 15 -10 12 -10 18 0 30 16 20 5 32 -14 16 -11 -9 -20 -10 -35 -2 -30 17 -35
13 -18 -12z M8850 3332 c0 -4 5 -13 11 -19 8 -8 8 -17 0 -32 -13 -23 -2 -28
17 -9 10 10 17 10 33 0 25 -16 37 -8 20 12 -7 8 -10 24 -6 36 7 22 -4 27 -23
8 -9 -9 -15 -9 -24 0 -14 14 -28 16 -28 4z M8995 3320 c15 -16 16 -22 5 -35
-17 -20 -5 -32 15 -15 12 10 18 10 30 0 20 -16 32 -5 16 14 -9 11 -10 20 -1
35 8 17 8 21 -4 21 -8 0 -18 -5 -22 -11 -4 -8 -9 -8 -17 0 -6 6 -18 11 -26 11
-11 0 -10 -4 4 -20z M14540 3319 c9 -15 8 -24 -1 -35 -16 -19 -4 -30 16 -14
12 10 18 10 30 0 20 -17 32 -5 15 15 -11 13 -10 19 5 35 16 18 16 20 2 20 -9
0 -19 -5 -23 -11 -4 -8 -9 -8 -17 0 -6 6 -17 11 -24 11 -11 0 -11 -5 -3 -21z
M14675 3320 c4 -12 1 -28 -6 -36 -17 -20 -5 -28 20 -12 16 10 23 10 33 0 19
-19 30 -14 18 9 -9 15 -8 24 1 35 16 19 4 30 -16 14 -12 -10 -19 -10 -27 -2
-19 19 -30 14 -23 -8z M14800 3332 c0 -4 5 -13 12 -20 8 -8 8 -15 -2 -27 -17
-20 -5 -32 15 -15 13 11 19 10 35 -5 21 -19 26 -11 11 14 -6 9 -4 23 6 38 17
25 12 29 -19 12 -14 -8 -23 -8 -31 0 -13 13 -27 14 -27 3z M6120 2117 c0 -9 5
-19 11 -22 7 -5 5 -13 -5 -24 -19 -20 -9 -36 11 -19 10 8 20 8 38 0 26 -12 33
-4 14 15 -8 8 -8 17 0 31 16 30 14 33 -14 20 -19 -8 -28 -8 -40 2 -12 10 -15
10 -15 -3z M6265 2110 c4 -12 1 -28 -6 -36 -16 -19 -5 -29 18 -16 13 8 23 6
37 -6 18 -16 18 -16 12 15 -4 18 -3 34 3 38 21 12 11 26 -10 14 -15 -8 -24 -8
-32 0 -18 18 -29 13 -22 -9z M6404 2108 c3 -15 2 -30 -4 -33 -19 -12 -10 -27
12 -22 14 4 29 0 40 -10 16 -15 18 -15 18 0 0 9 -5 19 -11 22 -7 5 -4 14 7 26
20 22 12 38 -11 19 -13 -11 -19 -10 -37 6 -21 19 -21 19 -14 -8z M17178 2113
c-14 -14 -20 -14 -33 -3 -22 19 -31 4 -11 -19 11 -12 14 -21 7 -26 -6 -3 -11
-13 -11 -22 0 -15 2 -15 18 0 11 10 26 14 40 10 22 -5 31 10 12 22 -6 3 -7 17
-4 31 7 28 4 30 -18 7z M17260 2121 c0 -5 5 -13 11 -16 6 -4 7 -20 3 -38 -6
-31 -6 -31 12 -15 14 12 24 14 37 6 23 -13 34 -3 18 16 -7 8 -10 24 -6 36 7
22 -4 27 -22 9 -8 -8 -17 -8 -32 0 -13 7 -21 8 -21 2z M17400 2124 c0 -3 5
-15 11 -26 8 -14 8 -23 0 -31 -19 -19 -12 -27 14 -15 18 8 28 8 38 0 20 -17
30 -1 11 19 -10 11 -12 19 -5 24 6 3 11 13 11 22 0 13 -3 13 -15 3 -12 -10
-21 -10 -40 -2 -14 7 -25 9 -25 6z M6542 2099 c2 -14 -3 -34 -11 -43 -18 -21
-8 -31 17 -17 15 8 23 7 32 -4 19 -23 32 -18 19 7 -9 17 -9 24 5 33 24 18 19
28 -10 21 -19 -5 -30 -2 -40 11 -14 17 -14 16 -12 -8z M17043 2104 c-4 -11
-13 -13 -34 -9 -32 7 -38 -1 -13 -20 14 -9 14 -16 5 -33 -13 -25 0 -30 19 -7
9 11 17 12 32 4 25 -14 35 -4 17 17 -8 9 -12 27 -11 40 4 27 -6 32 -15 8z
M6676 2066 c3 -13 1 -27 -5 -30 -20 -13 -11 -26 13 -20 13 3 27 1 30 -5 12
-19 28 -12 21 10 -4 13 0 28 12 41 18 20 18 20 -14 14 -18 -4 -34 -3 -38 3
-12 20 -25 11 -19 -13z M16905 2079 c-4 -6 -20 -7 -38 -3 -32 6 -32 6 -14 -14
12 -13 16 -28 12 -41 -7 -22 9 -29 21 -10 3 6 17 8 30 5 24 -6 33 7 13 20 -6
3 -8 17 -5 30 6 24 -7 33 -19 13z M6816 2046 c4 -16 1 -25 -11 -30 -24 -9 -9
-24 19 -19 13 3 27 0 30 -6 13 -20 27 -12 17 8 -8 14 -7 22 4 31 22 18 18 28
-9 23 -13 -3 -27 0 -30 6 -13 20 -26 11 -20 -13z M16764 2059 c-3 -6 -17 -9
-30 -6 -27 5 -31 -5 -9 -23 11 -9 12 -17 4 -31 -10 -20 4 -28 17 -8 3 6 17 9
30 6 28 -5 43 10 19 19 -12 5 -15 14 -11 30 6 24 -7 33 -20 13z M6953 2027 c3
-18 -1 -31 -9 -34 -23 -8 -16 -26 7 -20 15 4 28 -1 41 -16 l19 -22 -6 29 c-4
20 -1 32 12 41 23 17 11 30 -15 16 -16 -9 -23 -6 -36 12 l-17 22 4 -28z
M16630 2030 c-9 -17 -14 -18 -31 -9 -27 14 -39 1 -16 -16 13 -9 16 -21 12 -41
l-6 -29 19 22 c13 15 26 20 41 16 23 -6 30 12 7 20 -9 3 -12 15 -9 31 6 31 -2
34 -17 6z M7086 1986 c4 -16 1 -25 -10 -29 -24 -10 -20 -29 5 -22 13 4 28 0
41 -12 21 -18 21 -18 15 7 -4 16 0 31 11 44 16 18 16 19 -9 13 -19 -5 -29 -2
-33 8 -9 25 -27 17 -20 -9z M16494 1995 c-4 -10 -14 -13 -33 -8 -25 6 -25 5
-9 -13 11 -13 15 -28 11 -44 -6 -25 -6 -25 15 -7 13 12 28 16 41 12 25 -7 29
12 5 22 -11 4 -14 13 -10 29 7 26 -11 34 -20 9z M7219 1975 c-1 -5 0 -18 0
-28 1 -9 -5 -20 -13 -23 -28 -11 -17 -26 13 -19 21 4 30 2 34 -9 9 -23 26 -19
20 4 -3 12 2 29 13 42 19 21 19 21 -10 14 -21 -5 -32 -2 -42 11 -7 10 -14 14
-15 8z M16364 1965 c-5 -12 -14 -14 -38 -9 -31 6 -31 6 -12 -14 11 -13 16 -30
13 -42 -6 -23 11 -27 20 -4 4 11 13 13 34 9 31 -7 41 8 13 19 -10 4 -14 14
-11 26 6 24 -11 38 -19 15z M7353 1919 c3 -12 0 -22 -9 -26 -25 -9 -16 -31 11
-25 17 3 27 -1 31 -12 10 -26 25 -18 18 9 -4 18 -1 27 10 31 26 10 18 27 -9
20 -18 -5 -27 -2 -31 9 -9 23 -27 18 -21 -6z M16226 1925 c-4 -11 -13 -14 -31
-9 -27 7 -35 -10 -9 -20 11 -4 14 -13 10 -31 -7 -27 8 -35 18 -9 4 11 14 15
31 12 27 -6 36 16 11 25 -9 4 -12 14 -9 26 6 24 -12 29 -21 6z M7485 1881 c3
-10 -1 -24 -10 -31 -22 -18 -18 -28 10 -22 17 3 27 -1 31 -12 10 -26 25 -18
18 9 -4 18 -1 27 10 31 25 10 19 27 -8 20 -16 -4 -26 -1 -30 9 -8 22 -28 18
-21 -4z M16094 1885 c-4 -10 -14 -13 -30 -9 -27 7 -33 -10 -8 -20 11 -4 14
-13 10 -31 -7 -27 8 -35 18 -9 4 11 14 15 31 12 28 -6 32 4 10 22 -9 7 -13 21
-10 31 7 22 -13 26 -21 4z M7616 1836 c4 -16 1 -25 -10 -29 -24 -9 -19 -26 5
-20 14 4 25 0 31 -11 14 -24 29 -19 22 8 -4 16 -1 25 10 29 24 9 19 26 -5 20
-14 -4 -25 0 -31 11 -14 24 -29 19 -22 -8z M15962 1844 c-6 -11 -17 -15 -31
-11 -24 6 -29 -11 -5 -20 11 -4 14 -13 10 -29 -7 -27 8 -32 22 -8 6 11 17 15
31 11 24 -6 29 11 5 20 -11 4 -14 13 -10 29 7 27 -8 32 -22 8z M7744 1794 c4
-10 -1 -25 -10 -35 -16 -18 -16 -19 6 -19 13 0 32 -8 42 -17 19 -17 19 -16 13
10 -5 20 -3 28 9 33 25 10 19 27 -8 20 -16 -4 -26 -1 -30 9 -3 8 -10 15 -17
15 -6 0 -8 -7 -5 -16z M15834 1795 c-4 -10 -14 -13 -30 -9 -27 7 -33 -10 -8
-20 12 -5 14 -13 9 -33 -6 -26 -6 -27 13 -10 10 9 29 17 42 17 22 0 22 1 6 19
-9 10 -14 25 -10 35 3 9 1 16 -5 16 -7 0 -14 -7 -17 -15z"/>
</g>
</svg>
