<?xml version="1.0" standalone="no"?>
<!DOCTYPE svg PUBLIC "-//W3C//DTD SVG 20010904//EN"
 "http://www.w3.org/TR/2001/REC-SVG-20010904/DTD/svg10.dtd">
<svg version="1.0" xmlns="http://www.w3.org/2000/svg"
 width="2360.000000pt" height="1640.000000pt" viewBox="0 0 2360.000000 1640.000000"
 preserveAspectRatio="xMidYMid meet">
<metadata>
Created by potrace 1.16, written by Peter Selinger 2001-2019
</metadata>
<g transform="translate(0.000000,1640.000000) scale(0.100000,-0.100000)"
fill="#000000" stroke="none">
<path d="M10140 11542 c0 -13 45 -52 60 -52 8 0 2 12 -15 30 -28 30 -45 38
-45 22z M13415 11520 c-20 -21 -24 -30 -14 -30 15 0 59 40 59 53 0 15 -17 6
-45 -23z M10258 11509 c19 -17 36 -28 40 -25 9 9 -40 56 -57 56 -11 0 -5 -11
17 -31z M13320 11515 c-34 -37 -17 -41 22 -6 22 20 28 31 17 31 -8 0 -26 -11
-39 -25z M10270 11446 c0 -16 49 -70 57 -62 6 5 -43 76 -53 76 -2 0 -4 -6 -4
-14z M13294 11425 c-15 -20 -24 -38 -21 -41 8 -8 57 46 57 62 0 21 -7 17 -36
-21z M10360 11423 c1 -13 51 -66 57 -60 7 7 -35 67 -48 67 -5 0 -9 -3 -9 -7z
M13200 11399 c-12 -16 -20 -33 -17 -36 6 -6 56 47 57 60 0 17 -20 5 -40 -24z
M10387 11288 c18 -18 36 -29 39 -25 10 10 -36 57 -55 57 -11 0 -6 -10 16 -32z
M13190 11295 c-35 -37 -14 -44 23 -7 22 22 27 32 16 32 -9 0 -26 -11 -39 -25z
M10460 11302 c0 -5 14 -21 30 -37 35 -34 39 -26 8 15 -21 29 -38 39 -38 22z
M13102 11280 c-31 -41 -27 -49 8 -15 17 16 30 32 30 37 0 17 -17 7 -38 -22z
M10470 11181 c0 -12 59 -55 67 -48 3 3 2 11 -2 16 -9 16 -65 43 -65 32z
M10565 11180 c8 -13 66 -43 71 -37 7 7 -47 47 -63 47 -8 0 -11 -5 -8 -10z
M12986 11169 c-15 -12 -25 -23 -22 -26 5 -6 63 24 71 37 11 18 -22 11 -49 -11z
M13092 11170 c-29 -18 -43 -40 -24 -40 12 0 67 48 62 54 -3 3 -20 -4 -38 -14z
M10630 11070 c35 -31 50 -37 50 -21 0 13 -55 51 -72 51 -7 -1 3 -14 22 -30z
M10728 11069 c19 -17 37 -27 40 -24 8 8 -44 55 -61 55 -7 0 3 -14 21 -31z
M12853 11076 c-15 -13 -25 -27 -21 -31 3 -3 21 7 40 24 39 36 22 42 -19 7z
M12948 11079 c-27 -20 -37 -39 -20 -39 4 0 23 13 42 30 40 33 21 41 -22 9z
M10730 11001 c0 -13 50 -51 68 -51 10 0 12 3 4 13 -17 19 -72 49 -72 38z
M10830 11002 c0 -13 61 -65 67 -58 8 7 -5 23 -37 46 -17 12 -30 17 -30 12z
M12729 10981 c-19 -16 -31 -32 -27 -36 3 -3 21 7 40 23 43 39 32 50 -13 13z
M12827 10984 c-40 -27 -45 -34 -23 -34 18 0 73 46 65 54 -3 3 -22 -6 -42 -20z
M10957 10903 c-4 -3 8 -17 25 -30 33 -24 54 -30 43 -13 -10 17 -62 50 -68 43z
M12599 10880 c-19 -16 -29 -29 -23 -30 16 0 76 47 66 54 -5 3 -24 -8 -43 -24z
M10860 10894 c0 -7 25 -29 52 -44 33 -20 28 8 -6 29 -35 22 -46 25 -46 15z
M12693 10879 c-33 -21 -37 -48 -5 -29 42 24 65 50 45 50 -5 0 -23 -10 -40 -21z
M10990 10800 c0 -10 58 -50 73 -50 17 0 5 16 -28 38 -39 25 -45 26 -45 12z
M11080 10806 c0 -2 18 -15 40 -30 44 -29 55 -19 14 13 -23 18 -54 28 -54 17z
M12466 10789 c-41 -32 -30 -42 14 -13 22 15 40 28 40 30 0 11 -31 1 -54 -17z
M12563 10787 c-31 -21 -42 -37 -25 -37 14 0 72 40 72 50 0 15 -11 12 -47 -13z
M8324 10698 c7 -34 22 -56 31 -46 7 7 -21 78 -31 78 -3 0 -4 -14 0 -32z
M15257 10698 c-20 -44 -20 -48 -7 -48 13 0 32 48 27 69 -3 10 -10 3 -20 -21z
M11245 10695 c27 -22 55 -33 55 -21 0 7 -66 46 -76 46 -5 -1 5 -12 21 -25z
M12333 10699 c-36 -23 -40 -29 -20 -29 14 0 76 49 62 49 -5 1 -25 -9 -42 -20z
M11120 10705 c0 -6 62 -45 73 -45 16 0 5 17 -22 33 -29 17 -51 22 -51 12z
M12428 10692 c-27 -16 -37 -32 -20 -32 10 0 72 39 72 45 0 10 -26 4 -52 -13z
M8400 10665 c1 -11 7 -33 16 -50 l14 -30 -5 39 c-5 42 -25 75 -25 41z M15182
10657 c-7 -16 -12 -38 -11 -50 0 -18 3 -16 15 12 8 18 13 41 11 50 -3 12 -7 8
-15 -12z M11361 10631 c3 -8 20 -26 39 -40 19 -15 31 -20 29 -12 -3 8 -20 26
-39 40 -19 15 -31 20 -29 12z M12199 10611 c-19 -16 -31 -32 -28 -35 3 -3 21
7 40 23 19 16 31 32 28 35 -3 3 -21 -7 -40 -23z M11289 10600 c19 -16 39 -27
44 -23 12 7 -43 52 -63 52 -9 0 -1 -11 19 -29z M12286 10606 c-15 -13 -24 -26
-19 -29 5 -4 25 7 44 23 41 35 18 41 -25 6z M8400 10573 c1 -15 49 -67 56 -61
3 4 -4 20 -17 37 -23 29 -39 39 -39 24z M15161 10549 c-13 -17 -20 -33 -17
-37 7 -6 55 46 56 61 0 15 -16 5 -39 -24z M8490 10552 c0 -14 59 -66 67 -59 3
4 -6 21 -22 37 -28 30 -45 38 -45 22z M15065 10530 c-16 -16 -25 -33 -22 -37
8 -7 67 45 67 59 0 16 -17 8 -45 -22z M11415 10510 c16 -16 36 -30 44 -30 11
0 5 10 -17 30 -42 39 -64 39 -27 0z M11490 10531 c0 -5 16 -21 35 -35 42 -32
46 -21 7 17 -29 28 -42 33 -42 18z M12067 10512 c-38 -39 -34 -48 8 -16 33 25
45 44 27 44 -5 0 -20 -13 -35 -28z M12158 10510 c-22 -20 -28 -30 -17 -30 8 0
28 14 44 30 37 39 15 39 -27 0z M8500 10456 c0 -14 41 -76 51 -76 5 0 9 4 9 8
0 11 -59 79 -60 68z M15066 10427 c-28 -36 -32 -47 -17 -47 12 0 55 69 48 76
-3 3 -17 -10 -31 -29z M11610 10432 c0 -10 71 -45 77 -38 5 5 -56 46 -69 46
-5 0 -8 -4 -8 -8z M11941 10419 c-18 -11 -31 -22 -28 -25 6 -7 77 28 77 38 0
13 -12 10 -49 -13z M8590 10423 c0 -15 48 -68 55 -61 8 8 -32 68 -46 68 -5 0
-9 -3 -9 -7z M14970 10399 c-12 -16 -19 -33 -15 -37 7 -7 55 46 55 61 0 17
-20 5 -40 -24z M11510 10415 c0 -9 78 -44 84 -38 8 9 -45 43 -66 43 -10 0 -18
-2 -18 -5z M12027 10402 c-15 -10 -24 -21 -21 -25 6 -6 84 29 84 38 0 11 -37
3 -63 -13z M11750 10342 c0 -12 32 -32 50 -32 18 0 50 20 50 32 0 2 -22 4 -50
4 -27 0 -50 -2 -50 -4z M11675 10315 c26 -22 65 -34 65 -20 0 6 -76 45 -87 45
-4 -1 6 -12 22 -25z M11898 10319 c-21 -11 -38 -22 -38 -24 0 -14 39 -2 65 20
36 29 24 31 -27 4z M8590 10320 c0 -18 30 -70 40 -70 14 0 13 4 -11 44 -22 37
-29 44 -29 26z M14982 10296 c-25 -42 -26 -46 -12 -46 12 0 42 58 38 72 -2 6
-14 -5 -26 -26z M8690 10250 c11 -22 25 -40 30 -40 15 0 12 11 -10 48 -28 46
-44 40 -20 -8z M14890 10258 c-22 -37 -25 -48 -10 -48 5 0 19 18 30 40 24 48
8 54 -20 8z M8660 10179 c0 -25 21 -79 32 -79 10 0 3 32 -18 70 -9 16 -13 19
-14 9z M14917 10152 c-20 -49 -20 -52 -8 -52 11 0 34 66 29 82 -3 7 -12 -7
-21 -30z M8740 10125 c0 -9 8 -30 17 -48 13 -24 18 -28 21 -15 3 16 -23 78
-33 78 -3 0 -5 -7 -5 -15z M14836 10112 c-9 -18 -16 -41 -14 -50 3 -12 9 -8
22 16 9 18 16 41 14 50 -3 12 -9 8 -22 -16z M8700 10028 c0 -33 13 -78 22 -78
6 0 7 15 3 38 -7 39 -25 68 -25 40z M14887 10033 c-12 -19 -19 -83 -9 -83 6 0
13 18 17 41 7 39 3 59 -8 42z M8775 9933 c8 -46 25 -68 25 -32 0 36 -11 69
-22 69 -6 0 -8 -15 -3 -37z M14806 9948 c-9 -36 -7 -73 3 -62 14 14 25 84 13
84 -5 0 -12 -10 -16 -22z M8750 9866 c0 -24 22 -76 32 -76 9 0 6 17 -13 68 -9
25 -19 29 -19 8z M14833 9860 c-20 -50 -24 -70 -14 -70 12 0 34 66 28 83 -3 7
-9 1 -14 -13z M8834 9798 c7 -34 36 -74 36 -50 0 18 -28 82 -36 82 -3 0 -4
-15 0 -32z M14745 9797 c-20 -47 -20 -63 -1 -48 16 13 31 69 22 78 -3 3 -13
-10 -21 -30z M8790 9718 c0 -33 13 -78 22 -78 6 0 7 15 3 38 -7 39 -25 68 -25
40z M14797 9723 c-12 -19 -19 -83 -9 -83 6 0 13 18 17 41 7 39 3 59 -8 42z
M8865 9628 c9 -44 25 -60 25 -26 0 33 -9 58 -22 58 -6 0 -7 -13 -3 -32z
M14716 9644 c-9 -25 -7 -69 3 -58 14 14 24 74 13 74 -5 0 -13 -7 -16 -16z
M8800 9523 c0 -35 3 -44 10 -33 13 20 13 80 0 80 -5 0 -10 -21 -10 -47z
M14780 9538 c0 -18 5 -40 10 -48 7 -11 10 -2 10 33 0 26 -4 47 -10 47 -5 0
-10 -15 -10 -32z M8857 9493 c-11 -10 -8 -83 3 -83 6 0 10 20 10 45 0 46 -2
50 -13 38z M14730 9456 c0 -25 5 -46 10 -46 6 0 10 18 10 39 0 22 -4 43 -10
46 -6 4 -10 -12 -10 -39z M8771 9387 c-7 -20 -11 -43 -8 -50 7 -17 29 42 25
67 -3 16 -7 12 -17 -17z M14815 9386 c2 -22 9 -44 15 -50 15 -15 12 23 -6 59
l-14 30 5 -39z M8818 9334 c-13 -20 -20 -84 -10 -84 6 0 14 16 18 34 6 37 2
67 -8 50z M14770 9320 c0 -37 11 -70 22 -70 6 0 8 15 3 38 -8 45 -25 67 -25
32z M8761 9203 c0 -36 3 -43 9 -28 12 28 12 75 0 75 -5 0 -10 -21 -9 -47z
M14821 9223 c0 -16 4 -37 9 -48 6 -15 9 -8 9 28 1 26 -3 47 -9 47 -5 0 -10
-12 -9 -27z M8817 9173 c-11 -10 -8 -83 3 -83 6 0 10 20 10 45 0 46 -2 50 -13
38z M14770 9136 c0 -25 5 -46 10 -46 6 0 10 18 10 39 0 22 -4 43 -10 46 -6 4
-10 -12 -10 -39z M8757 9053 c-4 -21 -2 -42 3 -47 7 -7 10 7 10 37 0 57 -5 60
-13 10z M14831 9046 c-1 -34 2 -47 9 -40 7 7 7 24 1 50 l-9 39 -1 -49z M8817
9013 c-11 -10 -8 -81 3 -88 6 -4 10 13 10 44 0 52 -1 56 -13 44z M14770 8970
c0 -32 4 -49 10 -45 6 3 10 24 10 45 0 21 -4 42 -10 45 -6 4 -10 -13 -10 -45z
M8755 8894 c-4 -22 -2 -41 4 -47 8 -8 11 3 11 36 0 56 -5 60 -15 11z M14831
8886 c-1 -37 2 -47 10 -39 8 8 8 22 1 50 l-10 38 -1 -49z M8810 8811 c0 -22 5
-43 10 -46 6 -4 10 12 10 39 0 25 -4 46 -10 46 -5 0 -10 -18 -10 -39z M14770
8804 c0 -27 4 -43 10 -39 6 3 10 24 10 46 0 21 -4 39 -10 39 -5 0 -10 -21 -10
-46z M8760 8726 c0 -25 5 -46 10 -46 6 0 10 18 10 39 0 22 -4 43 -10 46 -6 4
-10 -12 -10 -39z M14827 8763 c-11 -10 -8 -83 3 -83 6 0 10 20 10 45 0 46 -2
50 -13 38z M8820 8651 c0 -22 5 -43 10 -46 6 -4 10 12 10 39 0 25 -4 46 -10
46 -5 0 -10 -18 -10 -39z M14760 8644 c0 -27 4 -43 10 -39 6 3 10 24 10 46 0
21 -4 39 -10 39 -5 0 -10 -21 -10 -46z M8770 8561 c0 -22 5 -43 10 -46 6 -4
10 12 10 39 0 25 -4 46 -10 46 -5 0 -10 -18 -10 -39z M14810 8554 c0 -27 4
-43 10 -39 6 3 10 24 10 46 0 21 -4 39 -10 39 -5 0 -10 -21 -10 -46z M8834
8499 c3 -17 6 -38 6 -45 0 -8 5 -14 10 -14 11 0 14 49 4 74 -11 29 -27 17 -20
-15z M14746 8514 c-10 -25 -7 -74 4 -74 6 0 10 6 10 14 0 7 3 28 6 45 7 32 -9
44 -20 15z M11505 3350 c-15 -6 -8 -9 28 -9 30 -1 46 3 42 9 -7 12 -42 12 -70
0z M11660 3350 c-10 -7 8 -10 60 -10 52 0 70 3 60 10 -8 5 -35 10 -60 10 -25
0 -52 -5 -60 -10z M11820 3350 c-10 -7 8 -10 60 -10 52 0 70 3 60 10 -8 5 -35
10 -60 10 -25 0 -52 -5 -60 -10z M12025 3350 c-4 -6 12 -10 42 -9 36 0 43 3
28 9 -28 12 -63 12 -70 0z M10030 3340 c-20 -6 -16 -8 23 -9 30 -1 46 3 42 9
-7 11 -29 11 -65 0z M10185 3340 c-15 -6 -6 -9 33 -9 33 -1 51 3 47 9 -7 12
-52 12 -80 0z M10345 3340 c-4 -6 12 -10 39 -10 25 0 46 5 46 10 0 6 -18 10
-39 10 -22 0 -43 -4 -46 -10z M10505 3340 c-4 -6 12 -10 39 -10 25 0 46 5 46
10 0 6 -18 10 -39 10 -22 0 -43 -4 -46 -10z M10670 3340 c0 -5 20 -10 45 -10
25 0 45 5 45 10 0 6 -20 10 -45 10 -25 0 -45 -4 -45 -10z M10835 3340 c-4 -6
12 -10 39 -10 25 0 46 5 46 10 0 6 -18 10 -39 10 -22 0 -43 -4 -46 -10z
M11000 3340 c0 -5 18 -10 39 -10 22 0 43 5 46 10 4 6 -12 10 -39 10 -25 0 -46
-4 -46 -10z M11160 3340 c0 -5 18 -10 39 -10 22 0 43 5 46 10 4 6 -12 10 -39
10 -25 0 -46 -4 -46 -10z M11338 3339 c15 -5 36 -6 55 0 29 8 27 9 -23 9 -44
1 -50 -1 -32 -9z M12207 3339 c19 -6 40 -5 55 0 18 8 12 10 -32 9 -50 0 -52
-1 -23 -9z M12355 3340 c3 -5 24 -10 46 -10 21 0 39 5 39 10 0 6 -21 10 -46
10 -27 0 -43 -4 -39 -10z M12515 3340 c3 -5 24 -10 46 -10 21 0 39 5 39 10 0
6 -21 10 -46 10 -27 0 -43 -4 -39 -10z M12680 3340 c0 -5 21 -10 46 -10 27 0
43 4 39 10 -3 6 -24 10 -46 10 -21 0 -39 -4 -39 -10z M12840 3340 c0 -5 20
-10 45 -10 25 0 45 5 45 10 0 6 -20 10 -45 10 -25 0 -45 -4 -45 -10z M13010
3340 c0 -5 21 -10 46 -10 27 0 43 4 39 10 -3 6 -24 10 -46 10 -21 0 -39 -4
-39 -10z M13170 3340 c0 -5 21 -10 46 -10 27 0 43 4 39 10 -3 6 -24 10 -46 10
-21 0 -39 -4 -39 -10z M13335 3340 c-4 -6 14 -10 47 -9 39 0 48 3 33 9 -28 12
-73 12 -80 0z M13505 3340 c-4 -6 12 -10 42 -9 39 1 43 3 23 9 -36 11 -58 11
-65 0z M8710 3330 c-11 -7 -2 -10 33 -10 30 0 46 4 42 10 -8 13 -55 13 -75 0z
M8870 3330 c-11 -7 -2 -10 33 -10 26 0 47 5 47 10 0 13 -60 13 -80 0z M9035
3330 c-4 -6 12 -10 39 -10 25 0 46 5 46 10 0 6 -18 10 -39 10 -22 0 -43 -4
-46 -10z M9195 3330 c-4 -6 12 -10 39 -10 25 0 46 5 46 10 0 6 -18 10 -39 10
-22 0 -43 -4 -46 -10z M9360 3330 c0 -5 18 -10 39 -10 22 0 43 5 46 10 4 6
-12 10 -39 10 -25 0 -46 -4 -46 -10z M9520 3330 c0 -5 18 -10 39 -10 22 0 43
5 46 10 4 6 -12 10 -39 10 -25 0 -46 -4 -46 -10z M9685 3330 c3 -5 21 -10 40
-10 19 0 37 5 40 10 4 6 -12 10 -40 10 -28 0 -44 -4 -40 -10z M9867 3328 c15
-7 30 -7 50 0 26 10 24 10 -22 11 -42 0 -46 -2 -28 -11z M13683 3328 c20 -7
35 -7 50 0 18 9 14 11 -28 11 -46 -1 -48 -1 -22 -11z M13835 3330 c3 -5 21
-10 40 -10 19 0 37 5 40 10 4 6 -12 10 -40 10 -28 0 -44 -4 -40 -10z M13995
3330 c3 -5 24 -10 46 -10 21 0 39 5 39 10 0 6 -21 10 -46 10 -27 0 -43 -4 -39
-10z M14155 3330 c3 -5 24 -10 46 -10 21 0 39 5 39 10 0 6 -21 10 -46 10 -27
0 -43 -4 -39 -10z M14320 3330 c0 -5 21 -10 46 -10 27 0 43 4 39 10 -3 6 -24
10 -46 10 -21 0 -39 -4 -39 -10z M14480 3330 c0 -5 21 -10 46 -10 27 0 43 4
39 10 -3 6 -24 10 -46 10 -21 0 -39 -4 -39 -10z M14650 3330 c0 -5 21 -10 48
-10 34 0 43 3 32 10 -20 13 -80 13 -80 0z M14815 3330 c-4 -6 12 -10 42 -10
35 0 44 3 33 10 -20 13 -67 13 -75 0z M11087 3293 c-28 -7 -9 -23 28 -23 37 0
54 14 29 24 -17 6 -29 6 -57 -1z M11240 3291 c0 -15 38 -24 68 -16 20 5 23 8
11 16 -19 12 -79 12 -79 0z M11400 3290 c0 -5 21 -10 46 -10 27 0 43 4 39 10
-3 6 -24 10 -46 10 -21 0 -39 -4 -39 -10z M11565 3290 c-4 -6 22 -10 69 -10
44 0 76 4 76 10 0 6 -30 10 -69 10 -39 0 -73 -4 -76 -10z M11730 3290 c0 -6
30 -10 70 -10 40 0 70 4 70 10 0 6 -30 10 -70 10 -40 0 -70 -4 -70 -10z
M11890 3290 c0 -6 32 -10 76 -10 47 0 73 4 69 10 -3 6 -37 10 -76 10 -39 0
-69 -4 -69 -10z M12115 3290 c-4 -6 12 -10 39 -10 25 0 46 5 46 10 0 6 -18 10
-39 10 -22 0 -43 -4 -46 -10z M12281 3291 c-11 -7 -9 -10 8 -16 27 -8 71 1 71
15 0 12 -60 13 -79 1z M12452 3293 c-22 -9 -2 -23 33 -23 40 0 54 15 22 24
-25 7 -37 7 -55 -1z M9617 3283 c-28 -7 -9 -23 28 -23 40 0 54 15 22 24 -12 3
-24 5 -27 5 -3 -1 -13 -3 -23 -6z M9765 3280 c-8 -13 38 -24 64 -15 12 3 19
11 16 16 -8 12 -72 12 -80 -1z M9925 3280 c-4 -6 12 -10 40 -10 28 0 44 4 40
10 -3 6 -21 10 -40 10 -19 0 -37 -4 -40 -10z M10090 3280 c0 -5 21 -10 46 -10
27 0 43 4 39 10 -3 6 -24 10 -46 10 -21 0 -39 -4 -39 -10z M10250 3280 c0 -5
20 -10 45 -10 25 0 45 5 45 10 0 6 -20 10 -45 10 -25 0 -45 -4 -45 -10z
M10420 3280 c0 -5 21 -10 46 -10 27 0 43 4 39 10 -3 6 -24 10 -46 10 -21 0
-39 -4 -39 -10z M10580 3280 c0 -5 20 -10 45 -10 25 0 45 5 45 10 0 6 -20 10
-45 10 -25 0 -45 -4 -45 -10z M10745 3280 c3 -5 24 -10 46 -10 21 0 39 5 39
10 0 6 -21 10 -46 10 -27 0 -43 -4 -39 -10z M10915 3280 c3 -5 21 -10 40 -10
19 0 37 5 40 10 4 6 -12 10 -40 10 -28 0 -44 -4 -40 -10z M12605 3280 c3 -5
21 -10 40 -10 19 0 37 5 40 10 4 6 -12 10 -40 10 -28 0 -44 -4 -40 -10z
M12770 3280 c0 -5 18 -10 39 -10 22 0 43 5 46 10 4 6 -12 10 -39 10 -25 0 -46
-4 -46 -10z M12930 3280 c0 -5 20 -10 45 -10 25 0 45 5 45 10 0 6 -20 10 -45
10 -25 0 -45 -4 -45 -10z M13095 3280 c-4 -6 12 -10 39 -10 25 0 46 5 46 10 0
6 -18 10 -39 10 -22 0 -43 -4 -46 -10z M13260 3280 c0 -5 20 -10 45 -10 25 0
45 5 45 10 0 6 -20 10 -45 10 -25 0 -45 -4 -45 -10z M13425 3280 c-4 -6 12
-10 39 -10 25 0 46 5 46 10 0 6 -18 10 -39 10 -22 0 -43 -4 -46 -10z M13595
3280 c-4 -6 12 -10 40 -10 28 0 44 4 40 10 -3 6 -21 10 -40 10 -19 0 -37 -4
-40 -10z M13755 3280 c-8 -13 38 -24 64 -15 12 3 19 11 16 16 -8 12 -72 12
-80 -1z M13927 3283 c-28 -7 -9 -23 28 -23 40 0 54 15 22 24 -12 3 -24 5 -27
5 -3 -1 -13 -3 -23 -6z M8780 3270 c0 -5 21 -10 46 -10 27 0 43 4 39 10 -3 6
-24 10 -46 10 -21 0 -39 -4 -39 -10z M8940 3270 c0 -5 20 -10 45 -10 25 0 45
5 45 10 0 6 -20 10 -45 10 -25 0 -45 -4 -45 -10z M9105 3270 c3 -5 24 -10 46
-10 21 0 39 5 39 10 0 6 -21 10 -46 10 -27 0 -43 -4 -39 -10z M9270 3270 c0
-5 20 -10 45 -10 25 0 45 5 45 10 0 6 -20 10 -45 10 -25 0 -45 -4 -45 -10z
M9435 3270 c3 -5 24 -10 46 -10 21 0 39 5 39 10 0 6 -21 10 -46 10 -27 0 -43
-4 -39 -10z M14080 3270 c0 -5 18 -10 39 -10 22 0 43 5 46 10 4 6 -12 10 -39
10 -25 0 -46 -4 -46 -10z M14240 3270 c0 -5 20 -10 45 -10 25 0 45 5 45 10 0
6 -20 10 -45 10 -25 0 -45 -4 -45 -10z M14410 3270 c0 -5 18 -10 39 -10 22 0
43 5 46 10 4 6 -12 10 -39 10 -25 0 -46 -4 -46 -10z M14570 3270 c0 -5 20 -10
45 -10 25 0 45 5 45 10 0 6 -20 10 -45 10 -25 0 -45 -4 -45 -10z M14735 3270
c-4 -6 12 -10 39 -10 25 0 46 5 46 10 0 6 -18 10 -39 10 -22 0 -43 -4 -46 -10z
M6365 2100 c-4 -6 14 -10 47 -9 39 0 48 3 33 9 -28 12 -73 12 -80 0z M17155
2100 c-15 -6 -6 -9 33 -9 33 -1 51 3 47 9 -7 12 -52 12 -80 0z M6200 2090 c0
-5 20 -10 45 -10 25 0 45 5 45 10 0 6 -20 10 -45 10 -25 0 -45 -4 -45 -10z
M6530 2093 c0 -10 81 -26 89 -17 8 8 -4 13 -47 20 -26 4 -42 3 -42 -3z M17001
2089 c-13 -5 -22 -11 -20 -14 8 -7 89 7 89 16 0 12 -38 10 -69 -2z M17310
2090 c0 -5 20 -10 45 -10 25 0 45 5 45 10 0 6 -20 10 -45 10 -25 0 -45 -4 -45
-10z M6690 2072 c0 -11 34 -22 70 -22 19 1 21 3 10 9 -25 15 -80 23 -80 13z
M16850 2068 c-19 -6 -29 -13 -22 -15 19 -7 82 6 82 17 0 12 -14 11 -60 -2z
M6290 2040 c0 -5 18 -10 39 -10 22 0 43 5 46 10 4 6 -12 10 -39 10 -25 0 -46
-4 -46 -10z M6455 2040 c3 -5 24 -10 46 -10 24 0 38 4 34 10 -3 6 -24 10 -46
10 -24 0 -38 -4 -34 -10z M6855 2039 c-3 -5 7 -11 22 -15 15 -3 36 -8 46 -11
9 -2 17 0 17 5 0 13 -79 32 -85 21z M16698 2037 c-21 -5 -38 -13 -38 -18 0 -9
55 -1 79 11 24 13 -2 17 -41 7z M17065 2040 c-4 -6 10 -10 34 -10 22 0 43 5
46 10 4 6 -10 10 -34 10 -22 0 -43 -4 -46 -10z M17225 2040 c3 -5 24 -10 46
-10 21 0 39 5 39 10 0 6 -21 10 -46 10 -27 0 -43 -4 -39 -10z M6140 2030 c-8
-5 -11 -12 -8 -15 9 -10 88 5 88 16 0 12 -61 11 -80 -1z M17380 2031 c0 -11
79 -26 88 -16 11 10 -21 25 -55 25 -18 0 -33 -4 -33 -9z M6600 2025 c0 -9 81
-26 92 -19 8 5 5 10 -8 15 -21 8 -84 12 -84 4z M16916 2021 c-13 -5 -16 -10
-8 -15 11 -7 92 10 92 19 0 8 -63 4 -84 -4z M7015 2002 c6 -6 28 -14 50 -17
30 -6 37 -5 29 4 -6 7 -28 14 -50 18 -27 4 -36 2 -29 -5z M16523 2000 c-13 -5
-23 -12 -23 -16 0 -9 73 6 85 17 12 12 -32 11 -62 -1z M6766 1991 c14 -14 84
-25 84 -13 0 11 -33 22 -69 22 -16 0 -21 -4 -15 -9z M16768 1993 c-10 -2 -18
-9 -18 -15 0 -12 70 -2 85 13 9 9 -34 11 -67 2z M6945 1955 c35 -16 65 -19 65
-6 0 11 -36 21 -70 20 -24 -1 -24 -1 5 -14z M7170 1966 c0 -7 24 -17 70 -31
23 -6 24 -6 10 9 -16 16 -80 34 -80 22z M16374 1960 c-32 -13 -43 -34 -13 -25
45 14 69 25 69 30 0 8 -32 5 -56 -5z M16608 1963 c-10 -2 -18 -9 -18 -14 0
-13 30 -10 65 6 l30 13 -30 0 c-16 0 -38 -2 -47 -5z M7080 1930 c0 -8 60 -30
83 -30 22 0 2 18 -32 28 -47 14 -51 15 -51 2z M16463 1928 c-29 -10 -46 -28
-25 -28 22 0 82 22 82 30 0 12 -15 11 -57 -2z M7320 1916 c0 -7 24 -17 70 -31
23 -6 24 -6 10 9 -16 16 -80 34 -80 22z M16224 1910 c-32 -13 -43 -34 -13 -25
45 14 69 25 69 30 0 8 -32 5 -56 -5z M7230 1885 c0 -5 24 -16 68 -29 30 -10
28 8 -3 22 -27 12 -65 16 -65 7z M16303 1878 c-13 -6 -23 -15 -23 -20 0 -5 10
-6 23 -2 43 13 67 24 67 29 0 9 -44 4 -67 -7z M7480 1860 c0 -5 16 -17 36 -25
42 -17 44 -18 44 -7 0 7 -63 42 -75 42 -3 0 -5 -4 -5 -10z M16073 1853 c-27
-14 -44 -33 -29 -33 15 0 76 32 76 40 0 13 -9 12 -47 -7z M7390 1831 c0 -12
56 -34 72 -29 8 3 0 12 -19 21 -36 19 -53 21 -53 8z M16155 1823 c-18 -10 -25
-18 -17 -21 16 -5 72 17 72 29 0 13 -21 10 -55 -8z M7630 1800 c0 -10 63 -40
83 -40 18 0 -5 18 -45 35 -22 8 -38 11 -38 5z M15920 1789 c-25 -12 -40 -23
-34 -25 15 -6 84 24 84 36 0 13 3 13 -50 -11z M7540 1771 c0 -12 56 -34 72
-29 8 3 0 12 -19 21 -36 19 -53 21 -53 8z M16005 1763 c-18 -10 -25 -18 -17
-21 16 -5 72 17 72 29 0 13 -21 10 -55 -8z M7780 1734 c0 -5 63 -34 75 -34 15
0 2 18 -20 28 -27 13 -55 16 -55 6z M15763 1728 c-20 -10 -32 -28 -18 -28 12
0 75 29 75 34 0 9 -33 6 -57 -6z M7685 1703 c13 -14 77 -34 83 -28 11 11 -16
26 -54 32 -26 4 -36 2 -29 -4z M15853 1700 c-13 -5 -23 -14 -23 -20 0 -11 15
-9 68 11 12 5 22 11 22 14 0 8 -43 5 -67 -5z"/>
</g>
</svg>
