<?xml version="1.0" standalone="no"?>
<!DOCTYPE svg PUBLIC "-//W3C//DTD SVG 20010904//EN"
 "http://www.w3.org/TR/2001/REC-SVG-20010904/DTD/svg10.dtd">
<svg version="1.0" xmlns="http://www.w3.org/2000/svg"
 width="2360.000000pt" height="1640.000000pt" viewBox="0 0 2360.000000 1640.000000"
 preserveAspectRatio="xMidYMid meet">
<metadata>
Created by potrace 1.16, written by Peter Selinger 2001-2019
</metadata>
<g transform="translate(0.000000,1640.000000) scale(0.100000,-0.100000)"
fill="#000000" stroke="none">
<path d="M10200 11618 c0 -17 67 -98 81 -98 18 0 8 24 -28 64 -42 47 -53 54
-53 34z M13348 11585 c-37 -43 -47 -65 -29 -65 13 0 81 81 81 97 0 22 -13 14
-52 -32z M10310 11482 c0 -10 83 -92 93 -92 15 0 6 18 -29 58 -32 38 -64 55
-64 34z M13226 11448 c-35 -41 -44 -58 -28 -58 10 0 92 83 92 93 0 20 -32 2
-64 -35z M10440 11347 c0 -13 70 -87 83 -87 18 0 4 29 -31 63 -40 39 -52 45
-52 24z M13107 11322 c-35 -36 -47 -62 -29 -62 13 0 82 74 82 88 0 21 -15 13
-53 -26z M10560 11216 c0 -7 21 -30 47 -50 62 -48 72 -26 12 26 -47 41 -59 46
-59 24z M12981 11192 c-60 -52 -50 -74 12 -26 26 20 47 43 47 50 0 22 -12 17
-59 -24z M10690 11100 c0 -5 19 -22 43 -38 64 -43 67 -45 67 -28 0 8 -20 29
-44 46 -46 31 -66 37 -66 20z M12843 11079 c-24 -17 -43 -37 -43 -45 0 -17 3
-15 68 28 41 29 54 48 30 48 -7 -1 -32 -14 -55 -31z M10840 10997 c0 -12 11
-20 78 -60 26 -16 32 -16 32 -4 0 8 -22 29 -48 46 -54 34 -62 37 -62 18z
M12698 10979 c-56 -37 -70 -74 -15 -42 66 40 77 48 77 60 0 19 -10 16 -62 -18z
M10992 10898 c6 -16 78 -67 96 -68 25 0 11 19 -36 49 -53 34 -66 38 -60 19z
M12548 10879 c-47 -31 -60 -49 -35 -49 17 1 89 52 95 68 6 19 -9 14 -60 -19z
M11140 10801 c0 -10 88 -71 102 -71 20 0 4 21 -36 50 -45 31 -66 37 -66 21z
M12393 10779 c-40 -28 -55 -49 -35 -49 14 0 102 61 102 71 0 16 -24 8 -67 -22z
M8270 10694 c0 -21 52 -94 68 -94 19 0 14 14 -23 64 -39 50 -45 54 -45 30z
M11280 10705 c0 -10 94 -75 109 -75 22 1 -69 80 -91 80 -10 0 -18 -2 -18 -5z
M12240 10670 c-57 -50 -31 -54 34 -5 51 40 54 45 29 45 -10 0 -38 -18 -63 -40z
M15287 10666 c-39 -52 -45 -66 -24 -66 18 1 69 77 65 98 -2 12 -13 4 -41 -32z
M11430 10600 c0 -5 19 -22 43 -38 63 -43 67 -45 67 -29 0 7 -20 28 -44 45 -45
33 -66 40 -66 22z M12103 10578 c-24 -17 -43 -38 -43 -45 0 -16 4 -14 68 29
41 29 54 48 30 48 -7 -1 -32 -15 -55 -32z M8370 10558 c0 -12 38 -74 66 -107
1 -1 7 0 13 4 11 6 -32 79 -63 104 -13 11 -16 11 -16 -1z M15204 10548 c-42
-47 -65 -86 -54 -93 12 -7 25 7 61 63 26 40 21 61 -7 30z M11580 10500 c0 -10
89 -79 103 -80 18 0 -2 27 -42 58 -44 33 -61 39 -61 22z M11959 10478 c-40
-31 -60 -58 -42 -58 14 1 103 70 103 80 0 17 -17 11 -61 -22z M8470 10412 c0
-12 56 -98 68 -106 25 -15 18 15 -14 62 -31 47 -54 65 -54 44z M15076 10368
c-32 -47 -39 -77 -14 -62 12 8 68 94 68 106 0 21 -23 3 -54 -44z M11725 10400
c-3 -5 6 -17 20 -26 16 -10 24 -23 20 -33 -4 -13 3 -16 35 -16 32 0 39 3 35
16 -4 10 4 23 21 34 18 11 23 20 16 27 -7 7 -20 4 -41 -11 l-31 -22 -29 20
c-33 24 -37 25 -46 11z M8570 10257 c0 -24 53 -107 68 -107 9 0 5 16 -14 50
-31 58 -54 81 -54 57z M15004 10245 c-12 -17 -29 -45 -38 -62 -27 -53 4 -41
37 13 33 55 34 96 1 49z M8646 10101 c-10 -15 35 -121 51 -121 16 0 13 15 -18
86 -21 46 -24 50 -33 35z M14922 10067 c-32 -72 -35 -87 -19 -87 18 0 61 110
48 123 -6 6 -17 -8 -29 -36z M8703 9899 c8 -62 25 -105 37 -93 7 7 4 29 -6 65
-21 73 -38 89 -31 28z M14887 9933 c-16 -27 -36 -118 -27 -127 11 -11 28 30
37 91 5 39 1 54 -10 36z M8730 9746 c0 -32 22 -116 31 -116 10 0 10 49 0 94
-6 31 -31 48 -31 22z M14846 9751 c-12 -19 -19 -121 -8 -121 9 0 32 81 32 115
0 16 -16 20 -24 6z M8750 9538 c0 -51 9 -88 21 -88 10 0 12 90 3 114 -12 30
-24 16 -24 -26z M14826 9564 c-9 -24 -7 -114 3 -114 12 0 21 37 21 88 0 42
-12 56 -24 26z M8756 9395 c-3 -9 -6 -41 -6 -72 0 -77 24 -67 28 12 3 58 -9
92 -22 60z M14825 9399 c-10 -27 -1 -122 13 -127 9 -3 12 12 12 55 0 62 -14
101 -25 72z M8755 9208 c-9 -35 -2 -113 10 -111 13 4 19 113 6 126 -7 7 -12 2
-16 -15z M14825 9219 c-9 -25 -1 -124 10 -122 14 4 18 99 6 120 -9 16 -10 16
-16 2z M8756 9043 c-9 -10 -7 -121 3 -127 13 -9 21 19 21 74 0 46 -9 67 -24
53z M14826 9043 c-8 -8 -8 -96 0 -117 12 -31 24 -4 24 54 0 55 -9 78 -24 63z
M8748 8864 c-14 -22 -22 -124 -9 -124 6 0 14 6 17 14 8 20 0 123 -8 110z
M14842 8811 c2 -44 7 -66 17 -69 12 -4 13 6 7 54 -10 85 -28 96 -24 15z M8727
8683 c-12 -19 -19 -123 -9 -123 16 0 19 9 26 73 5 36 4 57 -3 57 -5 0 -12 -3
-14 -7z M14855 8634 c7 -58 18 -84 31 -71 11 11 -10 120 -24 125 -11 3 -12 -8
-7 -54z M11438 3283 c-52 -8 -28 -23 38 -23 48 0 65 3 62 13 -5 13 -53 18
-100 10z M11595 3281 c-17 -8 -18 -10 -4 -15 24 -10 119 -3 122 9 3 13 -91 17
-118 6z M11887 3284 c-15 -15 8 -24 63 -24 61 0 87 13 47 24 -29 8 -102 8
-110 0z M12067 3283 c-17 -17 -2 -23 58 -23 71 0 87 14 28 24 -49 8 -78 8 -86
-1z M10378 3273 c-40 -10 -14 -23 48 -23 48 0 65 3 62 13 -5 12 -78 19 -110
10z M10540 3271 c-13 -9 -12 -11 1 -16 25 -9 119 -1 119 10 0 13 -101 18 -120
6z M10717 3273 c-17 -17 -2 -23 58 -23 51 0 65 3 65 15 0 12 -13 15 -58 15
-32 0 -62 -3 -65 -7z M10887 3274 c-14 -15 7 -24 53 -24 53 0 80 7 80 21 0 10
-123 13 -133 3z M11060 3270 c0 -13 63 -23 99 -15 53 11 34 25 -34 25 -36 0
-65 -4 -65 -10z M11235 3270 c-4 -6 20 -10 64 -10 41 0 71 4 71 10 0 6 -28 10
-64 10 -36 0 -68 -4 -71 -10z M12230 3270 c0 -6 30 -10 71 -10 44 0 68 4 64
10 -3 6 -35 10 -71 10 -36 0 -64 -4 -64 -10z M12410 3270 c0 -13 63 -23 99
-15 53 11 34 25 -34 25 -36 0 -65 -4 -65 -10z M12580 3271 c0 -15 39 -23 91
-19 68 5 52 23 -23 26 -42 2 -68 -1 -68 -7z M12760 3265 c0 -12 13 -15 66 -15
48 0 65 3 62 13 -3 7 -28 13 -66 15 -51 2 -62 0 -62 -13z M12937 3274 c-15
-15 8 -24 63 -24 58 0 85 12 54 24 -21 8 -109 8 -117 0z M13117 3273 c-17 -17
-2 -23 58 -23 64 0 86 12 43 24 -31 8 -93 8 -101 -1z M9158 3263 c-54 -8 -27
-23 42 -23 39 0 70 4 70 9 0 19 -43 24 -112 14z M9323 3263 c-32 -12 -7 -23
52 -23 51 0 65 3 65 15 0 12 -12 15 -52 14 -29 0 -59 -3 -65 -6z M9490 3261
c-13 -9 -12 -11 1 -16 25 -9 119 -1 119 10 0 13 -101 18 -120 6z M9665 3260
c-9 -15 16 -22 70 -18 28 2 50 8 53 16 5 15 -114 17 -123 2z M9836 3261 c-8
-12 18 -21 64 -21 44 0 70 8 70 21 0 12 -127 12 -134 0z M10010 3260 c0 -6 28
-10 65 -10 37 0 65 4 65 10 0 6 -28 10 -65 10 -37 0 -65 -4 -65 -10z M10180
3260 c0 -6 30 -10 70 -10 40 0 70 4 70 10 0 6 -30 10 -70 10 -40 0 -70 -4 -70
-10z M13280 3260 c0 -6 30 -10 70 -10 40 0 70 4 70 10 0 6 -30 10 -70 10 -40
0 -70 -4 -70 -10z M13460 3260 c0 -6 28 -10 65 -10 37 0 65 4 65 10 0 6 -28
10 -65 10 -37 0 -65 -4 -65 -10z M13630 3261 c0 -13 26 -21 70 -21 46 0 72 9
64 21 -7 12 -134 12 -134 0z M13812 3258 c3 -9 24 -13 61 -13 79 0 77 19 -2
23 -48 2 -62 0 -59 -10z M13987 3264 c-15 -15 8 -24 63 -24 58 0 85 12 54 24
-21 8 -109 8 -117 0z M14160 3255 c0 -12 14 -15 65 -15 36 0 65 4 65 9 0 14
-27 21 -81 21 -37 0 -49 -4 -49 -15z M14343 3263 c-32 -13 -7 -23 57 -23 75 0
94 13 33 24 -43 7 -73 7 -90 -1z M8786 3251 c-3 -5 10 -12 29 -15 40 -8 105 2
105 15 0 12 -127 12 -134 0z M8960 3250 c0 -6 28 -10 65 -10 37 0 65 4 65 10
0 6 -28 10 -65 10 -37 0 -65 -4 -65 -10z M14510 3250 c0 -6 28 -10 65 -10 37
0 65 4 65 10 0 6 -28 10 -65 10 -37 0 -65 -4 -65 -10z M14680 3251 c0 -13 65
-23 105 -15 19 3 32 10 29 15 -7 12 -134 12 -134 0z M6478 2035 c-16 -17 7
-25 70 -25 50 0 63 3 54 12 -13 13 -113 24 -124 13z M17010 2027 c-23 -11 -20
-12 34 -15 64 -3 91 2 81 18 -8 13 -84 12 -115 -3z M6296 2021 c-3 -5 3 -11
13 -14 27 -7 121 4 121 14 0 12 -127 12 -134 0z M6650 2022 c0 -15 26 -22 88
-22 40 0 53 3 45 11 -15 15 -133 25 -133 11z M16845 2023 c-46 -11 -37 -23 17
-23 60 0 88 7 88 21 0 9 -69 10 -105 2z M17170 2021 c0 -10 94 -21 121 -14 10
3 16 9 13 14 -7 12 -134 12 -134 0z M6834 2008 c-9 -14 -3 -16 59 -26 53 -8
81 -2 57 13 -19 12 -111 22 -116 13z M16708 2009 c-52 -8 -71 -16 -63 -28 4
-8 115 5 124 15 13 13 -19 20 -61 13z M6205 2005 c-5 -2 -27 -6 -47 -10 -21
-3 -38 -10 -38 -15 0 -22 120 -5 128 18 3 11 -19 15 -43 7z M17352 1999 c5
-16 39 -27 91 -28 43 -1 50 15 10 23 -92 18 -106 19 -101 5z M7012 1979 c6
-17 109 -42 122 -29 11 11 -27 27 -86 36 -32 6 -40 4 -36 -7z M16525 1983
c-46 -12 -68 -24 -59 -33 12 -12 116 11 122 28 4 12 -24 14 -63 5z M7180 1942
c0 -10 21 -18 103 -38 35 -8 37 13 1 26 -44 17 -104 24 -104 12z M16336 1937
c-48 -15 -65 -44 -20 -33 82 20 104 28 104 36 0 13 -35 11 -84 -3z M7355 1901
c-7 -13 0 -16 68 -34 62 -16 78 -5 25 17 -51 21 -86 27 -93 17z M16176 1892
c-76 -26 -71 -45 5 -24 35 9 62 21 62 27 -2 16 -15 15 -67 -3z M7530 1851 c0
-13 7 -16 68 -34 44 -14 52 -14 52 -2 0 8 -21 21 -52 30 -60 18 -68 18 -68 6z
M15998 1844 c-28 -8 -48 -21 -48 -29 0 -12 8 -12 53 2 60 18 67 21 67 34 0 12
-15 11 -72 -7z M7700 1796 c0 -11 43 -28 100 -38 29 -5 19 17 -13 28 -66 23
-87 25 -87 10z M15830 1792 c-30 -10 -53 -22 -50 -27 5 -11 14 -10 78 7 23 6
42 17 42 24 0 17 -2 17 -70 -4z"/>
</g>
</svg>
