<?xml version="1.0" standalone="no"?>
<!DOCTYPE svg PUBLIC "-//W3C//DTD SVG 20010904//EN"
 "http://www.w3.org/TR/2001/REC-SVG-20010904/DTD/svg10.dtd">
<svg version="1.0" xmlns="http://www.w3.org/2000/svg"
 width="2360.000000pt" height="1640.000000pt" viewBox="0 0 2360.000000 1640.000000"
 preserveAspectRatio="xMidYMid meet">
<metadata>
Created by potrace 1.16, written by Peter Selinger 2001-2019
</metadata>
<g transform="translate(0.000000,1640.000000) scale(0.100000,-0.100000)"
fill="#000000" stroke="none">
<path d="M11655 15454 c-336 -80 -678 -296 -1041 -659 -184 -184 -292 -316
-438 -535 -185 -278 -298 -484 -460 -842 -104 -231 -217 -548 -251 -706 -4
-18 -13 -36 -20 -39 -8 -2 -11 -12 -8 -21 5 -12 2 -14 -11 -9 -14 6 -12 -2 9
-42 30 -54 63 -94 469 -556 159 -181 295 -337 302 -345 12 -14 0 -22 -94 -65
-59 -26 -116 -49 -127 -51 -101 -13 -337 -96 -695 -246 -388 -162 -555 -257
-810 -462 -69 -56 -160 -126 -202 -156 -43 -30 -76 -60 -74 -67 3 -6 -15 -51
-38 -100 -200 -409 -403 -933 -585 -1516 -132 -421 -198 -663 -381 -1402 -153
-621 -191 -763 -420 -1565 -87 -305 -168 -591 -180 -635 -12 -44 -102 -366
-200 -715 -98 -349 -197 -707 -219 -795 -130 -520 -231 -1174 -231 -1493 0
-102 21 -247 50 -351 25 -90 78 -229 90 -236 5 -3 15 1 23 10 13 12 20 12 53
0 26 -9 142 -19 334 -29 542 -29 852 -94 1130 -237 42 -22 86 -39 99 -39 58 0
146 81 239 221 81 120 322 561 492 901 104 207 190 372 192 367 5 -14 6291
-14 6296 0 2 5 88 -160 192 -367 170 -340 411 -781 492 -901 93 -140 181 -221
239 -221 13 0 57 17 99 39 277 143 589 208 1130 237 192 10 308 20 334 29 33
12 40 12 53 0 8 -9 18 -13 23 -10 27 17 104 264 125 405 32 203 7 521 -75 998
-78 447 -121 621 -360 1472 -98 349 -188 671 -200 715 -12 44 -93 330 -180
635 -229 805 -267 944 -421 1570 -226 912 -342 1318 -550 1911 -105 303 -279
723 -413 999 -22 47 -41 92 -41 101 0 10 -43 48 -100 89 -55 40 -145 110 -200
155 -218 179 -406 285 -785 443 -271 114 -510 204 -575 217 -16 4 -41 11 -55
16 -14 5 -39 11 -55 12 -17 2 -78 26 -137 52 -94 43 -106 51 -95 65 8 8 112
128 233 265 400 455 511 585 538 635 22 40 24 49 10 43 -12 -4 -15 -2 -12 8 3
8 -1 19 -7 24 -6 6 -29 71 -50 145 -127 452 -414 1054 -703 1475 -136 198
-243 327 -411 495 -499 498 -997 745 -1336 664z m159 -22 c2 -4 -4 -8 -14 -8
-10 0 -16 4 -14 8 3 4 9 8 14 8 5 0 11 -4 14 -8z m-1214 -725 c0 -2 -10 -12
-22 -23 l-23 -19 19 23 c18 21 26 27 26 19z m2425 -17 c10 -11 16 -20 13 -20
-3 0 -13 9 -23 20 -10 11 -16 20 -13 20 3 0 13 -9 23 -20z m-3027 -2017 c-27
-2 -69 -2 -95 0 -27 2 -5 3 47 3 52 0 74 -1 48 -3z m960 0 c-15 -2 -42 -2 -60
0 -18 2 -6 4 27 4 33 0 48 -2 33 -4z m425 0 c-46 -2 -120 -2 -165 0 -46 1 -9
3 82 3 91 0 128 -2 83 -3z m995 0 c-42 -2 -114 -2 -160 0 -46 1 -11 3 77 3 88
0 125 -2 83 -3z m335 0 c-7 -2 -21 -2 -30 0 -10 3 -4 5 12 5 17 0 24 -2 18 -5z
m914 1 c-3 -3 -12 -4 -19 -1 -8 3 -5 6 6 6 11 1 17 -2 13 -5z m61 -1 c-10 -2
-26 -2 -35 0 -10 3 -2 5 17 5 19 0 27 -2 18 -5z m-2031 -9 c-3 -3 -12 -4 -19
-1 -8 3 -5 6 6 6 11 1 17 -2 13 -5z m310 0 c-3 -3 -12 -4 -19 -1 -8 3 -5 6 6
6 11 1 17 -2 13 -5z m-190 -10 c-3 -3 -12 -4 -19 -1 -8 3 -5 6 6 6 11 1 17 -2
13 -5z m70 0 c-3 -3 -12 -4 -19 -1 -8 3 -5 6 6 6 11 1 17 -2 13 -5z m-37 -24
c0 -5 -4 -10 -10 -10 -5 0 -10 5 -10 10 0 6 5 10 10 10 6 0 10 -4 10 -10z
m-2267 -7 c-7 -2 -21 -2 -30 0 -10 3 -4 5 12 5 17 0 24 -2 18 -5z m90 0 c-13
-2 -35 -2 -50 0 -16 2 -5 4 22 4 28 0 40 -2 28 -4z m70 0 c-7 -2 -21 -2 -30 0
-10 3 -4 5 12 5 17 0 24 -2 18 -5z m545 0 c-26 -2 -71 -2 -100 0 -29 2 -8 3
47 3 55 0 79 -1 53 -3z m526 -1 c2 -4 -13 -6 -35 -4 -21 2 -39 6 -39 8 0 7 69
4 74 -4z m2126 4 c0 -2 -18 -6 -39 -8 -22 -2 -37 0 -35 4 5 8 74 11 74 4z
m543 -3 c-23 -2 -64 -2 -90 0 -26 2 -7 3 42 3 50 0 71 -1 48 -3z m494 1 c-3
-3 -12 -4 -19 -1 -8 3 -5 6 6 6 11 1 17 -2 13 -5z m61 -1 c-10 -2 -26 -2 -35
0 -10 3 -2 5 17 5 19 0 27 -2 18 -5z m-2395 -10 c-7 -2 -19 -2 -25 0 -7 3 -2
5 12 5 14 0 19 -2 13 -5z m420 0 c-7 -2 -19 -2 -25 0 -7 3 -2 5 12 5 14 0 19
-2 13 -5z m-290 -10 c-7 -2 -19 -2 -25 0 -7 3 -2 5 12 5 14 0 19 -2 13 -5z
m160 0 c-7 -2 -19 -2 -25 0 -7 3 -2 5 12 5 14 0 19 -2 13 -5z m-2322 -80 c13
-16 12 -17 -3 -4 -17 13 -22 21 -14 21 2 0 10 -8 17 -17z m64 -73 c10 -11 16
-20 13 -20 -3 0 -13 9 -23 20 -10 11 -16 20 -13 20 3 0 13 -9 23 -20z m4345 6
c0 -2 -8 -10 -17 -17 -16 -13 -17 -12 -4 4 13 16 21 21 21 13z m-4279 -83 c13
-16 12 -17 -3 -4 -17 13 -22 21 -14 21 2 0 10 -8 17 -17z m4219 13 c0 -2 -8
-10 -17 -17 -16 -13 -17 -12 -4 4 13 16 21 21 21 13z m-4089 -163 c13 -16 12
-17 -3 -4 -17 13 -22 21 -14 21 2 0 10 -8 17 -17z m3959 13 c0 -2 -8 -10 -17
-17 -16 -13 -17 -12 -4 4 13 16 21 21 21 13z m-3889 -93 c13 -16 12 -17 -3 -4
-10 7 -18 15 -18 17 0 8 8 3 21 -13z m3819 13 c0 -2 -8 -10 -17 -17 -16 -13
-17 -12 -4 4 13 16 21 21 21 13z m-3749 -93 c13 -16 12 -17 -3 -4 -17 13 -22
21 -14 21 2 0 10 -8 17 -17z m80 -90 c13 -16 12 -17 -3 -4 -17 13 -22 21 -14
21 2 0 10 -8 17 -17z m3519 13 c0 -2 -8 -10 -17 -17 -16 -13 -17 -12 -4 4 13
16 21 21 21 13z m-3379 -173 c13 -16 12 -17 -3 -4 -17 13 -22 21 -14 21 2 0
10 -8 17 -17z m3239 13 c0 -2 -8 -10 -17 -17 -16 -13 -17 -12 -4 4 13 16 21
21 21 13z m-3165 -96 c10 -11 16 -20 13 -20 -3 0 -13 9 -23 20 -10 11 -16 20
-13 20 3 0 13 -9 23 -20z m3085 6 c0 -2 -8 -10 -17 -17 -16 -13 -17 -12 -4 4
13 16 21 21 21 13z m-3000 -183 c0 -8 -9 0 -50 45 l-45 47 48 -45 c26 -24 47
-45 47 -47z m2950 42 c-24 -25 -46 -45 -49 -45 -3 0 15 20 39 45 24 25 46 45
49 45 3 0 -15 -20 -39 -45z m-2820 -90 c35 -36 62 -65 59 -65 -2 0 -34 29 -69
65 -35 36 -62 65 -59 65 2 0 34 -29 69 -65z m2710 62 c0 -1 -24 -25 -52 -52
l-53 -50 50 53 c46 48 55 57 55 49z m-2630 -222 c13 -14 21 -25 18 -25 -2 0
-15 11 -28 25 -13 14 -21 25 -18 25 2 0 15 -11 28 -25z m81 8 c13 -16 12 -17
-3 -4 -10 7 -18 15 -18 17 0 8 8 3 21 -13z m2339 13 c0 -2 -8 -10 -17 -17 -16
-13 -17 -12 -4 4 13 16 21 21 21 13z m80 -9 c0 -2 -10 -12 -22 -23 l-23 -19
19 23 c18 21 26 27 26 19z m-1419 -94 c13 -16 12 -17 -3 -4 -17 13 -22 21 -14
21 2 0 10 -8 17 -17z m339 13 c0 -2 -8 -10 -17 -17 -16 -13 -17 -12 -4 4 13
16 21 21 21 13z m-1315 -26 c10 -11 16 -20 13 -20 -3 0 -13 9 -23 20 -10 11
-16 20 -13 20 3 0 13 -9 23 -20z m2295 17 c0 -2 -10 -12 -22 -23 l-23 -19 19
23 c18 21 26 27 26 19z m-1260 -72 c13 -14 21 -25 18 -25 -2 0 -15 11 -28 25
-13 14 -21 25 -18 25 2 0 15 -11 28 -25z m230 22 c0 -2 -12 -14 -27 -28 l-28
-24 24 28 c23 25 31 32 31 24z m-309 -34 c13 -16 12 -17 -3 -4 -10 7 -18 15
-18 17 0 8 8 3 21 -13z m379 14 c0 -2 -10 -12 -22 -23 l-23 -19 19 23 c18 21
26 27 26 19z m-1209 -54 c13 -16 12 -17 -3 -4 -17 13 -22 21 -14 21 2 0 10 -8
17 -17z m2039 13 c0 -2 -8 -10 -17 -17 -16 -13 -17 -12 -4 4 13 16 21 21 21
13z m-1409 -383 c13 -16 12 -17 -3 -4 -17 13 -22 21 -14 21 2 0 10 -8 17 -17z
m392 -320 c-7 -2 -19 -2 -25 0 -7 3 -2 5 12 5 14 0 19 -2 13 -5z m-3136 -935
c-3 -7 -5 -2 -5 12 0 14 2 19 5 13 2 -7 2 -19 0 -25z m6250 0 c-3 -7 -5 -2 -5
12 0 14 2 19 5 13 2 -7 2 -19 0 -25z m-6250 -85 c-2 -16 -4 -5 -4 22 0 28 2
40 4 28 2 -13 2 -35 0 -50z m6250 15 c-2 -13 -4 -5 -4 17 -1 22 1 32 4 23 2
-10 2 -28 0 -40z m-6250 -170 c-3 -8 -6 -5 -6 6 -1 11 2 17 5 13 3 -3 4 -12 1
-19z m6250 0 c-3 -8 -6 -5 -6 6 -1 11 2 17 5 13 3 -3 4 -12 1 -19z m-6300
-2430 c-3 -8 -6 -5 -6 6 -1 11 2 17 5 13 3 -3 4 -12 1 -19z m6350 0 c-3 -8 -6
-5 -6 6 -1 11 2 17 5 13 3 -3 4 -12 1 -19z m-6350 -75 c-3 -10 -5 -4 -5 12 0
17 2 24 5 18 2 -7 2 -21 0 -30z m6350 0 c-3 -10 -5 -4 -5 12 0 17 2 24 5 18 2
-7 2 -21 0 -30z m-6350 -65 c-3 -7 -5 -2 -5 12 0 14 2 19 5 13 2 -7 2 -19 0
-25z m6350 0 c-3 -7 -5 -2 -5 12 0 14 2 19 5 13 2 -7 2 -19 0 -25z m-6350 -95
c-2 -16 -4 -3 -4 27 0 30 2 43 4 28 2 -16 2 -40 0 -55z m6350 0 c-2 -16 -4 -3
-4 27 0 30 2 43 4 28 2 -16 2 -40 0 -55z m-6350 -140 c-2 -21 -4 -4 -4 37 0
41 2 58 4 38 2 -21 2 -55 0 -75z m6350 0 c-2 -21 -4 -4 -4 37 0 41 2 58 4 38
2 -21 2 -55 0 -75z m-6350 -1085 c-1 -194 -2 -38 -2 347 0 385 1 544 2 353 2
-190 2 -505 0 -700z m6350 135 c-1 -169 -2 -33 -2 302 0 336 1 474 2 308 2
-166 2 -440 0 -610z m0 -446 c-2 -23 -3 -1 -3 48 0 50 1 68 3 42 2 -26 2 -67
0 -90z m-6310 46 c-3 -10 -5 -2 -5 17 0 19 2 27 5 18 2 -10 2 -26 0 -35z m0
-110 c-3 -10 -5 -2 -5 17 0 19 2 27 5 18 2 -10 2 -26 0 -35z m6270 0 c-3 -10
-5 -2 -5 17 0 19 2 27 5 18 2 -10 2 -26 0 -35z m-6310 -5 c-3 -8 -6 -5 -6 6
-1 11 2 17 5 13 3 -3 4 -12 1 -19z m40 -685 c-1 -125 -2 -25 -2 222 0 248 1
350 2 228 2 -122 2 -324 0 -450z m6270 0 c-1 -125 -2 -25 -2 222 0 248 1 350
2 228 2 -122 2 -324 0 -450z m-6310 610 c-3 -10 -5 -2 -5 17 0 19 2 27 5 18 2
-10 2 -26 0 -35z m40 -925 c-2 -18 -4 -6 -4 27 0 33 2 48 4 33 2 -15 2 -42 0
-60z m6270 0 c-2 -18 -4 -6 -4 27 0 33 2 48 4 33 2 -15 2 -42 0 -60z m-6270
-70 c-3 -7 -5 -2 -5 12 0 14 2 19 5 13 2 -7 2 -19 0 -25z m6270 0 c-3 -7 -5
-2 -5 12 0 14 2 19 5 13 2 -7 2 -19 0 -25z m-6270 -60 c-3 -8 -6 -5 -6 6 -1
11 2 17 5 13 3 -3 4 -12 1 -19z m6270 0 c-3 -8 -6 -5 -6 6 -1 11 2 17 5 13 3
-3 4 -12 1 -19z m-8930 -1240 c-3 -8 -6 -5 -6 6 -1 11 2 17 5 13 3 -3 4 -12 1
-19z m11590 0 c-3 -8 -6 -5 -6 6 -1 11 2 17 5 13 3 -3 4 -12 1 -19z m-11350
-754 c-3 -3 -12 -4 -19 -1 -8 3 -5 6 6 6 11 1 17 -2 13 -5z m11130 0 c-3 -3
-12 -4 -19 -1 -8 3 -5 6 6 6 11 1 17 -2 13 -5z m-10950 -10 c-3 -3 -12 -4 -19
-1 -8 3 -5 6 6 6 11 1 17 -2 13 -5z m10776 -1 c-7 -2 -19 -2 -25 0 -7 3 -2 5
12 5 14 0 19 -2 13 -5z m-10590 -10 c-7 -2 -19 -2 -25 0 -7 3 -2 5 12 5 14 0
19 -2 13 -5z m10394 1 c-3 -3 -12 -4 -19 -1 -8 3 -5 6 6 6 11 1 17 -2 13 -5z
m-10230 -10 c-3 -3 -12 -4 -19 -1 -8 3 -5 6 6 6 11 1 17 -2 13 -5z m10070 0
c-3 -3 -12 -4 -19 -1 -8 3 -5 6 6 6 11 1 17 -2 13 -5z"/>
</g>
</svg>
