<?xml version="1.0" standalone="no"?>
<!DOCTYPE svg PUBLIC "-//W3C//DTD SVG 20010904//EN"
 "http://www.w3.org/TR/2001/REC-SVG-20010904/DTD/svg10.dtd">
<svg version="1.0" xmlns="http://www.w3.org/2000/svg"
 width="2360.000000pt" height="1640.000000pt" viewBox="0 0 2360.000000 1640.000000"
 preserveAspectRatio="xMidYMid meet">
<metadata>
Created by potrace 1.16, written by Peter Selinger 2001-2019
</metadata>
<g transform="translate(0.000000,1640.000000) scale(0.100000,-0.100000)"
fill="#000000" stroke="none">
<path d="M10323 6488 c-58 -15 -136 -128 -209 -300 -20 -46 -42 -99 -50 -118
-9 -19 -19 -44 -24 -55 -11 -29 -75 -244 -104 -355 -60 -227 -122 -536 -161
-805 -70 -487 -75 -967 -10 -1121 11 -27 13 -50 6 -96 -7 -55 -6 -61 11 -66
16 -4 18 -11 14 -46 -3 -22 -8 -94 -11 -158 l-6 -118 95 0 96 0 -1 53 c-1 38
-3 45 -8 27 -4 -14 -6 34 -5 105 0 72 4 137 8 145 3 8 2 37 -3 63 -8 43 -6 51
15 76 252 300 548 1641 520 2361 -11 313 -64 438 -173 408z m77 -111 c36 -81
44 -163 44 -402 -2 -419 -77 -949 -205 -1445 -74 -290 -207 -652 -252 -689 -9
-7 -15 -17 -12 -21 3 -4 -2 -10 -10 -14 -21 -8 -19 2 10 36 32 37 32 79 1 115
-22 25 -22 29 -7 40 13 10 14 15 4 31 -13 21 -7 62 9 62 6 0 7 19 3 49 -5 39
-3 49 9 54 17 7 22 47 6 47 -13 0 -1 50 17 68 15 16 17 29 3 37 -14 9 -8 55 7
55 7 0 13 11 13 25 0 14 -4 25 -8 25 -5 0 -7 14 -4 30 2 17 10 30 18 30 15 0
19 35 5 44 -10 7 -2 56 9 56 14 0 21 32 9 46 -12 14 -3 54 12 54 5 0 9 11 9
25 0 14 -4 25 -8 25 -5 0 -7 14 -4 30 2 17 10 30 18 30 15 0 19 35 5 44 -10 7
-2 56 9 56 15 0 20 31 8 49 -9 15 -8 24 5 44 12 19 15 38 11 71 -6 38 -4 46
10 46 17 0 23 35 7 44 -10 7 -2 56 9 56 14 0 21 32 10 45 -12 15 -3 65 12 65
5 0 6 19 2 46 -5 37 -3 47 11 58 13 9 16 19 10 32 -11 25 -6 54 11 71 16 16
19 43 4 43 -5 0 -8 13 -7 30 1 17 8 30 15 30 11 0 12 11 7 49 -5 39 -3 49 9
54 17 7 23 47 7 47 -12 0 -1 48 15 61 16 13 19 39 4 39 -5 0 -8 13 -7 30 1 16
8 30 15 30 6 0 12 11 12 25 0 14 -4 25 -9 25 -13 0 0 44 16 53 15 9 18 47 3
47 -13 0 -1 50 17 68 15 16 17 32 3 32 -6 0 -9 14 -8 30 1 17 8 30 15 30 10 0
13 13 10 50 -3 37 -1 50 9 50 23 0 16 41 -7 47 -15 4 -17 8 -8 14 21 13 50
-10 69 -54z m-70 23 c11 -7 7 -10 -18 -10 -20 0 -31 4 -27 10 8 13 26 13 45 0z
m-33 -46 c33 -9 19 -21 -16 -16 -17 2 -28 8 -25 13 6 10 11 11 41 3z m-47 -54
c0 -10 -7 -20 -15 -24 -17 -6 -21 -46 -4 -46 11 0 2 -41 -11 -50 -15 -11 -19
-41 -6 -46 16 -6 9 -54 -10 -61 -16 -6 -19 -39 -5 -47 12 -8 1 -49 -16 -59
-19 -12 -16 -47 4 -47 13 0 14 -3 5 -12 -7 -7 -12 -18 -12 -26 0 -7 -7 -20
-16 -29 -11 -11 -12 -19 -5 -26 16 -16 13 -57 -4 -63 -16 -7 -21 -54 -6 -54
13 0 0 -44 -16 -53 -19 -12 -16 -47 4 -47 13 0 14 -3 5 -12 -7 -7 -12 -20 -12
-30 0 -10 -5 -18 -11 -18 -7 0 -8 -16 -3 -45 5 -36 3 -46 -10 -51 -17 -6 -23
-54 -7 -54 13 0 0 -44 -16 -53 -16 -10 -18 -47 -2 -47 13 0 3 -52 -13 -61 -6
-4 -7 -24 -3 -51 6 -36 4 -46 -9 -51 -16 -7 -23 -47 -7 -47 13 0 0 -51 -15
-57 -17 -6 -19 -43 -3 -43 13 0 2 -53 -12 -58 -12 -5 -12 -52 0 -52 13 0 0
-44 -16 -53 -14 -9 -18 -47 -5 -47 5 0 7 -13 4 -30 -2 -17 -10 -30 -18 -30
-16 0 -19 -36 -4 -45 11 -7 4 -45 -10 -55 -15 -11 -19 -41 -6 -46 16 -6 9 -45
-11 -57 -14 -9 -18 -47 -4 -47 14 0 -1 -54 -18 -67 -13 -10 -14 -15 -4 -31 12
-20 7 -62 -7 -62 -14 0 -19 -41 -5 -46 16 -6 8 -45 -12 -57 -14 -9 -18 -47 -4
-47 14 0 -1 -54 -18 -67 -13 -10 -14 -15 -4 -31 6 -11 9 -29 6 -41 -4 -17 -13
-21 -44 -21 -21 0 -41 -4 -44 -10 -19 -31 -25 4 -25 153 0 531 123 1249 310
1815 86 259 170 429 170 342z m78 -1 c-2 -6 -7 -10 -11 -10 -4 1 -18 1 -32 1
-14 0 -25 5 -25 10 0 6 16 10 36 10 21 0 34 -4 32 -11z m-28 -55 c0 -11 -7
-13 -27 -8 -36 9 -44 14 -39 23 8 13 66 0 66 -15z m-6 -40 c9 -3 16 -10 16
-16 0 -14 -63 -5 -68 10 -4 13 25 16 52 6z m-15 -53 c20 -13 -3 -23 -34 -15
-14 3 -25 10 -25 15 0 11 41 11 59 0z m2 -51 c10 0 19 -4 19 -10 0 -5 -16 -10
-35 -10 -25 0 -35 4 -35 16 0 11 5 14 16 10 9 -3 24 -6 35 -6z m-12 -56 c11
-10 -13 -21 -36 -15 -42 11 -43 35 -2 26 19 -4 36 -9 38 -11z m6 -55 c4 -6 5
-12 3 -15 -8 -7 -68 8 -68 17 0 13 58 11 65 -2z m-25 -55 c0 -11 -5 -14 -16
-10 -9 3 -24 6 -35 6 -10 0 -19 5 -19 10 0 6 16 10 35 10 25 0 35 -4 35 -16z
m-12 -40 c34 -10 26 -24 -13 -24 -24 0 -35 5 -35 15 0 16 12 18 48 9z m-21
-50 c13 -4 19 -11 17 -19 -4 -10 -12 -11 -35 -3 -49 17 -34 36 18 22z m26 -60
c4 -4 5 -10 2 -14 -6 -9 -65 0 -65 11 0 10 53 12 63 3z m-35 -44 c6 0 12 -7
12 -16 0 -11 -5 -14 -16 -10 -9 3 -24 6 -35 6 -11 0 -19 7 -19 16 0 12 6 15
23 10 12 -3 28 -6 35 -6z m20 -68 c3 -10 -5 -12 -29 -10 -18 2 -35 10 -37 17
-3 9 6 11 29 9 18 -2 34 -9 37 -16z m-28 -48 c0 -12 -6 -15 -22 -10 -13 3 -29
6 -35 6 -7 0 -13 5 -13 10 0 6 16 10 35 10 26 0 35 -4 35 -16z m-12 -40 c34
-10 26 -24 -13 -24 -33 0 -43 8 -28 23 8 8 12 8 41 1z m-21 -50 c12 -3 19 -12
17 -19 -6 -16 -56 -5 -62 13 -4 13 11 15 45 6z m28 -63 c3 -5 2 -12 -2 -14
-12 -8 -63 4 -63 14 0 12 57 12 65 0z m-44 -41 c11 0 19 -7 19 -16 0 -11 -5
-14 -16 -10 -9 3 -24 6 -35 6 -11 0 -19 7 -19 16 0 11 5 14 16 10 9 -3 24 -6
35 -6z m13 -56 c28 -11 17 -24 -19 -24 -24 0 -35 5 -35 15 0 15 26 20 54 9z
m-16 -66 c3 -14 -1 -15 -32 -6 -45 14 -47 30 -4 26 21 -2 34 -9 36 -20z m-2
-38 c8 0 14 -4 14 -10 0 -5 -16 -10 -35 -10 -33 0 -43 8 -28 24 4 3 13 4 21 1
7 -3 20 -5 28 -5z m-19 -50 c7 0 10 -6 7 -13 -7 -19 -64 -9 -64 10 0 11 6 14
23 9 12 -3 27 -6 34 -6z m15 -65 c-3 -16 -62 -13 -62 3 0 9 10 12 33 10 17 -2
31 -7 29 -13z m-22 -51 c0 -12 -6 -15 -22 -10 -13 3 -29 6 -35 6 -7 0 -13 5
-13 10 0 6 16 10 35 10 26 0 35 -4 35 -16z m-12 -40 c34 -10 26 -24 -13 -24
-24 0 -35 5 -35 15 0 16 12 18 48 9z m-19 -53 c7 -5 12 -13 10 -18 -5 -12 -69
4 -69 17 0 12 40 13 59 1z m21 -64 c0 -9 -11 -12 -35 -9 -19 2 -35 8 -35 13 0
5 16 9 35 9 22 0 35 -5 35 -13z m-27 -44 c4 -2 5 -8 3 -12 -8 -13 -66 0 -66
15 0 11 7 13 28 8 15 -4 30 -9 35 -11z m1 -49 c28 -11 17 -23 -19 -22 -22 1
-35 6 -35 15 0 14 27 17 54 7z m-19 -55 c4 -6 5 -12 3 -15 -8 -7 -68 8 -68 17
0 13 58 11 65 -2z m3 -49 c6 0 12 -4 12 -10 0 -5 -16 -10 -35 -10 -26 0 -35 4
-35 16 0 12 6 15 23 10 12 -3 28 -6 35 -6z m-20 -54 c13 -14 -7 -22 -35 -14
-43 11 -44 33 -1 24 17 -3 33 -8 36 -10z m12 -62 c0 -11 -5 -14 -16 -10 -9 3
-24 6 -35 6 -10 0 -19 5 -19 10 0 6 16 10 35 10 25 0 35 -4 35 -16z m-30 -49
c0 -5 -4 -10 -10 -9 -5 1 -19 2 -30 3 -11 0 -20 7 -20 15 0 10 8 12 30 7 17
-3 31 -10 30 -16z m-2 -41 c34 -10 26 -24 -13 -24 -24 0 -35 5 -35 15 0 16 12
18 48 9z m-13 -55 c4 -6 5 -13 2 -16 -8 -8 -67 7 -67 18 0 13 57 11 65 -2z m3
-49 c6 0 12 -4 12 -10 0 -5 -16 -10 -35 -10 -26 0 -35 4 -35 16 0 12 6 15 23
10 12 -3 28 -6 35 -6z m-40 -46 c12 -4 22 -12 22 -19 0 -16 -62 -5 -68 13 -4
13 11 15 46 6z m37 -63 c3 -5 1 -12 -4 -15 -13 -8 -71 5 -71 15 0 12 67 11 75
0z m-35 -56 c0 -5 -4 -10 -10 -9 -5 1 -19 2 -30 3 -11 0 -20 7 -20 15 0 10 8
12 30 7 17 -3 31 -10 30 -16z m-2 -41 c34 -10 26 -24 -13 -24 -24 0 -35 5 -35
15 0 16 12 18 48 9z m-18 -54 c8 -5 11 -12 8 -15 -9 -9 -68 5 -68 16 0 12 41
11 60 -1z m20 -61 c0 -5 -16 -9 -35 -9 -32 0 -43 8 -30 22 8 8 65 -3 65 -13z
m-44 -39 c8 0 14 -6 14 -14 0 -9 -7 -12 -22 -9 -43 9 -49 13 -43 24 4 6 14 8
22 5 8 -3 21 -6 29 -6z m29 -59 c3 -5 1 -12 -4 -15 -13 -8 -71 5 -71 15 0 12
67 11 75 0z m-109 -46 c-3 -9 0 -18 8 -21 17 -7 8 -54 -10 -54 -10 0 -14 13
-14 45 0 26 5 45 11 45 6 0 8 -7 5 -15z m-26 -94 c0 -55 -4 -102 -9 -106 -18
-11 -51 155 -38 189 4 9 16 16 27 16 19 0 20 -6 20 -99z m60 89 c0 -5 -4 -10
-10 -10 -5 0 -10 5 -10 10 0 6 5 10 10 10 6 0 10 -4 10 -10z m41 -5 c-1 -15
-24 -12 -29 3 -3 9 2 13 12 10 10 -1 17 -7 17 -13z m44 -56 c5 -31 3 -45 -11
-60 -24 -26 -44 -25 -36 4 3 12 11 26 19 30 16 10 17 44 1 49 -6 2 -8 10 -4
16 12 20 24 5 31 -39z m-88 -1 c-3 -8 -6 -5 -6 6 -1 11 2 17 5 13 3 -3 4 -12
1 -19z m63 1 c0 -12 -37 -12 -44 0 -3 4 -3 11 0 14 8 7 44 -4 44 -14z m-66
-38 c3 -4 3 -11 0 -14 -8 -8 -34 3 -34 14 0 11 27 12 34 0z m36 -11 c0 -5 -4
-10 -10 -10 -5 0 -10 5 -10 10 0 6 5 10 10 10 6 0 10 -4 10 -10z m-67 -40 c-3
-11 -7 -20 -9 -20 -2 0 -4 9 -4 20 0 11 4 20 9 20 5 0 7 -9 4 -20z m37 -10 c0
-5 -7 -10 -15 -10 -8 0 -15 5 -15 10 0 6 7 10 15 10 8 0 15 -4 15 -10z m40 0
c0 -5 -7 -10 -15 -10 -8 0 -15 5 -15 10 0 6 7 10 15 10 8 0 15 -4 15 -10z
m-40 -50 c0 -5 -9 -10 -19 -10 -11 0 -23 5 -26 10 -4 6 5 10 19 10 14 0 26 -4
26 -10z m-12 -38 c3 -9 -2 -13 -14 -10 -9 1 -19 9 -22 16 -3 9 2 13 14 10 9
-1 19 -9 22 -16z m-81 -86 c-3 -55 -17 -73 -17 -23 0 34 8 67 16 67 2 0 3 -20
1 -44z m157 -8 c4 -21 2 -39 -4 -43 -5 -3 -10 2 -10 13 0 11 -3 35 -6 53 -5
23 -3 31 3 24 6 -5 14 -27 17 -47z m-37 7 c-9 -21 -107 -22 -107 0 0 10 7 13
28 9 15 -3 38 -1 52 4 29 11 35 9 27 -13z m16 -152 c4 -71 7 -150 7 -176 l0
-48 -72 3 -73 3 1 60 c1 33 5 111 9 173 l7 112 57 0 58 0 6 -127z M13211 6484
c-136 -57 -147 -644 -26 -1364 108 -640 291 -1225 439 -1401 21 -25 23 -33 15
-76 -5 -26 -6 -55 -3 -63 4 -8 8 -73 8 -145 1 -71 -1 -119 -5 -105 -5 18 -7
11 -8 -27 l-1 -53 96 0 95 0 -6 118 c-3 64 -8 136 -11 158 -4 35 -2 42 14 46
17 5 18 11 11 66 -7 46 -5 69 6 96 65 154 60 634 -10 1121 -39 269 -101 578
-161 805 -29 111 -93 326 -104 355 -5 11 -15 36 -24 55 -8 19 -30 72 -50 118
-100 236 -189 332 -275 296z m51 -65 c-24 -9 -31 -49 -8 -49 10 0 12 -13 9
-50 -3 -37 0 -50 10 -50 7 0 14 -13 15 -30 1 -16 -2 -30 -8 -30 -14 0 -12 -16
3 -32 18 -18 30 -68 17 -68 -15 0 -12 -38 3 -47 16 -9 29 -53 16 -53 -5 0 -9
-11 -9 -25 0 -14 6 -25 13 -25 6 0 13 -14 14 -30 1 -17 -2 -30 -7 -30 -15 0
-12 -26 4 -39 16 -13 27 -61 15 -61 -16 0 -10 -40 7 -47 12 -5 14 -15 9 -54
-5 -38 -4 -49 7 -49 7 0 14 -13 15 -30 1 -17 -2 -30 -7 -30 -15 0 -12 -27 4
-43 17 -17 22 -46 11 -71 -6 -13 -3 -23 10 -32 14 -11 16 -21 11 -58 -4 -27
-3 -46 2 -46 15 0 24 -50 12 -65 -11 -13 -4 -45 10 -45 11 0 19 -49 9 -56 -16
-9 -10 -44 7 -44 14 0 16 -8 10 -46 -4 -33 -1 -52 11 -71 13 -20 14 -29 5 -44
-12 -18 -7 -49 8 -49 11 0 19 -49 9 -56 -14 -9 -10 -44 5 -44 8 0 16 -13 18
-30 3 -16 1 -30 -4 -30 -4 0 -8 -11 -8 -25 0 -14 4 -25 9 -25 15 0 24 -40 12
-54 -12 -14 -5 -46 9 -46 11 0 19 -49 9 -56 -14 -9 -10 -44 5 -44 8 0 16 -13
18 -30 3 -16 1 -30 -4 -30 -4 0 -8 -11 -8 -25 0 -14 6 -25 13 -25 15 0 21 -46
7 -55 -14 -8 -12 -21 3 -37 18 -18 30 -68 17 -68 -16 0 -11 -40 6 -47 12 -5
14 -15 9 -54 -4 -30 -3 -49 3 -49 16 0 22 -41 9 -62 -10 -16 -9 -21 4 -31 15
-11 15 -15 -7 -40 -31 -36 -31 -78 1 -115 29 -34 31 -44 10 -36 -8 4 -13 10
-10 14 3 4 -3 14 -12 21 -45 37 -178 399 -252 689 -178 691 -259 1527 -175
1810 18 61 54 103 80 93 15 -6 15 -7 -4 -14z m53 -19 c4 -6 -7 -10 -27 -10
-25 0 -29 3 -18 10 19 13 37 13 45 0z m29 -49 c3 -5 -8 -11 -25 -13 -32 -5
-51 8 -22 15 30 8 42 7 47 -2z m93 -168 c42 -94 124 -342 173 -523 134 -497
220 -1087 220 -1517 0 -149 -6 -184 -25 -153 -3 6 -23 10 -44 10 -31 0 -40 4
-44 21 -3 12 0 30 6 41 10 16 9 21 -4 31 -17 13 -32 67 -18 67 14 0 10 38 -4
47 -20 12 -28 51 -12 57 14 5 9 46 -5 46 -14 0 -19 42 -7 62 10 16 9 21 -4 31
-17 13 -32 67 -18 67 14 0 10 38 -4 47 -20 12 -27 51 -11 57 13 5 9 35 -6 46
-14 10 -21 48 -10 55 15 9 12 45 -4 45 -8 0 -16 13 -18 30 -3 17 -1 30 4 30
13 0 9 38 -5 47 -16 9 -29 53 -16 53 5 0 9 11 9 25 0 14 -4 25 -9 25 -13 0
-24 54 -12 58 16 5 14 39 -3 45 -15 6 -28 57 -15 57 16 0 9 40 -7 47 -13 5
-15 15 -9 51 4 27 3 47 -3 51 -16 9 -26 61 -13 61 16 0 14 37 -2 47 -16 9 -29
53 -16 53 16 0 10 48 -7 54 -13 5 -15 15 -10 51 5 29 4 45 -3 45 -6 0 -11 8
-11 18 0 10 -5 23 -12 30 -9 9 -8 12 5 12 20 0 23 35 4 47 -16 9 -29 53 -16
53 15 0 10 47 -6 54 -17 6 -20 47 -4 63 7 7 6 15 -5 26 -9 9 -16 22 -16 29 0
8 -5 19 -12 26 -9 9 -8 12 5 12 20 0 23 35 4 47 -17 10 -28 51 -16 59 14 8 11
41 -5 47 -19 7 -26 55 -10 61 13 5 9 35 -6 46 -13 9 -22 50 -11 50 17 0 13 40
-4 46 -15 6 -20 35 -8 47 8 8 37 -43 80 -140z m-97 117 c0 -5 -11 -10 -25 -10
-14 0 -28 0 -32 -1 -4 0 -9 4 -11 10 -2 7 11 11 32 11 20 0 36 -4 36 -10z m23
-50 c-4 -4 -20 -10 -35 -14 -21 -5 -28 -3 -28 8 0 8 12 16 28 18 32 4 47 -1
35 -12z m-5 -52 c-5 -15 -68 -24 -68 -9 0 12 18 19 48 20 15 1 22 -4 20 -11z
m22 -47 c0 -5 -11 -12 -25 -15 -31 -8 -54 2 -34 15 18 11 59 11 59 0z m-10
-56 c0 -10 -11 -15 -35 -15 -41 0 -47 17 -7 23 15 2 30 5 35 6 4 0 7 -6 7 -14z
m30 -45 c0 -11 -12 -17 -44 -22 -28 -4 -31 20 -4 25 41 8 48 7 48 -3z m-10
-59 c0 -9 -60 -24 -68 -17 -2 3 -1 9 3 15 7 13 65 15 65 2z m30 -51 c0 -5 -9
-10 -19 -10 -11 0 -26 -3 -35 -6 -11 -4 -16 -1 -16 10 0 12 10 16 35 16 19 0
35 -4 35 -10z m-10 -55 c0 -10 -11 -15 -35 -15 -56 0 -41 25 18 29 9 0 17 -6
17 -14z m20 -44 c0 -5 -13 -14 -29 -19 -23 -8 -31 -7 -35 3 -5 13 11 21 47 24
9 0 17 -3 17 -8z m-10 -60 c0 -11 -59 -20 -65 -11 -3 4 -2 10 2 14 10 9 63 7
63 -3z m30 -46 c0 -8 -9 -15 -19 -15 -11 0 -26 -3 -35 -6 -10 -4 -16 -1 -16 9
0 14 17 21 58 26 6 0 12 -6 12 -14z m-12 -57 c-5 -14 -68 -23 -68 -10 0 15 13
22 43 22 18 0 27 -5 25 -12z m32 -48 c0 -5 -6 -10 -12 -10 -7 0 -23 -3 -35 -6
-17 -5 -23 -2 -23 10 0 12 9 16 35 16 19 0 35 -4 35 -10z m-12 -57 c2 -9 -8
-13 -32 -13 -37 0 -49 15 -18 23 26 7 45 3 50 -10z m20 -45 c-6 -18 -56 -29
-62 -13 -5 14 11 22 47 24 10 0 17 -4 15 -11z m-8 -57 c0 -10 -51 -22 -63 -14
-4 2 -5 9 -2 14 8 12 65 12 65 0z m30 -46 c0 -8 -9 -15 -19 -15 -11 0 -26 -3
-35 -6 -10 -4 -16 -1 -16 9 0 9 11 17 28 20 15 2 30 5 35 6 4 0 7 -6 7 -14z
m-10 -60 c0 -10 -11 -15 -35 -15 -54 0 -43 27 13 29 13 1 22 -5 22 -14z m30
-43 c0 -5 -16 -13 -35 -19 -27 -9 -35 -8 -35 1 0 7 3 16 7 19 9 10 63 9 63 -1z
m-12 -60 c2 -8 -9 -12 -32 -12 -40 0 -49 16 -13 23 30 6 40 3 45 -11z m22 -46
c0 -18 -58 -27 -64 -10 -4 11 11 18 52 23 6 0 12 -5 12 -13z m-10 -59 c0 -7
-11 -12 -27 -11 -41 1 -45 3 -38 14 9 15 65 12 65 -3z m30 -47 c0 -5 -6 -10
-12 -10 -7 0 -23 -3 -35 -6 -17 -5 -23 -2 -23 10 0 12 9 16 35 16 19 0 35 -4
35 -10z m-10 -55 c0 -10 -11 -15 -35 -15 -56 0 -41 25 18 29 9 0 17 -6 17 -14z
m30 -45 c0 -13 -64 -29 -69 -17 -2 5 3 13 10 18 19 12 59 11 59 -1z m-10 -59
c0 -5 -16 -11 -35 -13 -24 -3 -35 0 -35 9 0 8 13 13 35 13 19 0 35 -4 35 -9z
m20 -46 c0 -9 -9 -15 -25 -15 -14 0 -27 0 -30 0 -15 0 -3 16 17 22 35 10 38 9
38 -7z m-10 -58 c0 -9 -13 -14 -35 -15 -34 -1 -47 11 -22 21 25 11 57 7 57 -6z
m30 -46 c0 -9 -60 -24 -68 -17 -2 3 -1 9 3 15 7 13 65 15 65 2z m-10 -56 c0
-10 -11 -15 -35 -15 -39 0 -48 16 -12 23 41 8 47 7 47 -8z m30 -45 c0 -5 -1
-10 -3 -10 -1 0 -17 -4 -35 -9 -25 -8 -32 -7 -32 4 0 13 18 22 53 24 9 0 17
-3 17 -9z m-10 -60 c0 -5 -9 -10 -19 -10 -11 0 -26 -3 -35 -6 -11 -4 -16 -1
-16 10 0 12 10 16 35 16 19 0 35 -4 35 -10z m18 -55 c-2 -2 -14 -5 -28 -7 -36
-4 -41 16 -5 22 26 5 45 -4 33 -15z m-8 -50 c0 -10 -11 -15 -35 -15 -56 0 -41
25 18 29 9 0 17 -6 17 -14z m30 -44 c0 -11 -59 -26 -67 -18 -3 3 -2 10 2 16 8
13 65 15 65 2z m-10 -56 c0 -10 -11 -15 -35 -15 -39 0 -48 16 -12 23 41 8 47
7 47 -8z m28 -47 c-6 -18 -68 -29 -68 -12 0 13 19 21 53 23 11 0 17 -4 15 -11z
m-8 -57 c0 -10 -58 -23 -71 -15 -5 3 -7 10 -4 15 8 11 75 12 75 0z m18 -56
c-2 -2 -14 -5 -28 -7 -36 -4 -41 16 -5 22 26 5 45 -4 33 -15z m-8 -50 c0 -10
-11 -15 -35 -15 -56 0 -41 25 18 29 9 0 17 -6 17 -14z m30 -44 c0 -11 -59 -25
-68 -16 -3 3 0 10 8 15 19 12 60 13 60 1z m-10 -62 c0 -5 -16 -9 -35 -9 -41 0
-47 17 -7 22 31 4 42 1 42 -13z m21 -44 c0 -16 -61 -25 -61 -9 0 7 10 15 23
17 29 5 39 4 38 -8z m-1 -54 c0 -10 -58 -23 -71 -15 -5 3 -7 10 -4 15 8 11 75
12 75 0z m50 -76 c0 -32 -4 -45 -14 -45 -18 0 -27 47 -10 54 8 3 11 12 8 21
-3 8 -1 15 5 15 6 0 11 -19 11 -45z m-60 26 c0 -14 -18 -23 -30 -16 -6 4 -8
11 -5 16 8 12 35 12 35 0z m30 -1 c0 -5 -4 -10 -10 -10 -5 0 -10 5 -10 10 0 6
5 10 10 10 6 0 10 -4 10 -10z m84 -55 c-1 -70 -21 -148 -34 -140 -6 4 -10 51
-10 106 0 98 0 100 23 97 20 -3 22 -8 21 -63z m-161 18 c-17 -6 -16 -40 0 -50
8 -4 16 -18 19 -30 8 -29 -12 -30 -37 -3 -13 15 -16 28 -10 57 9 49 15 57 29
43 8 -9 8 -14 -1 -17z m42 -24 c-8 -12 -45 -12 -45 0 0 10 30 20 43 14 4 -3 5
-9 2 -14z m22 -1 c-3 -8 -6 -5 -6 6 -1 11 2 17 5 13 3 -3 4 -12 1 -19z m33
-37 c0 -12 -28 -22 -34 -12 -3 5 -3 11 1 15 9 9 33 7 33 -3z m-50 -11 c0 -5
-4 -10 -10 -10 -5 0 -10 5 -10 10 0 6 5 10 10 10 6 0 10 -4 10 -10z m60 -40
c0 -11 -2 -20 -4 -20 -2 0 -6 9 -9 20 -3 11 -1 20 4 20 5 0 9 -9 9 -20z m-60
-10 c0 -5 -7 -10 -15 -10 -8 0 -15 5 -15 10 0 6 7 10 15 10 8 0 15 -4 15 -10z
m40 0 c0 -5 -7 -10 -15 -10 -8 0 -15 5 -15 10 0 6 7 10 15 10 8 0 15 -4 15
-10z m15 -50 c-3 -5 -15 -10 -26 -10 -10 0 -19 5 -19 10 0 6 12 10 26 10 14 0
23 -4 19 -10z m5 -30 c0 -12 -28 -25 -36 -17 -9 9 6 27 22 27 8 0 14 -5 14
-10z m-96 -103 c-4 -26 -11 -44 -16 -41 -8 5 -1 68 9 87 10 17 13 -2 7 -46z
m156 -11 c0 -54 -14 -36 -17 22 -2 34 0 43 7 32 5 -8 10 -33 10 -54z m-55 28
c19 5 25 2 25 -9 0 -24 -103 -17 -108 7 -3 15 0 16 27 7 17 -6 43 -8 56 -5z
m30 -146 c4 -62 8 -140 9 -173 l1 -60 -72 -3 -73 -3 0 48 c0 26 3 105 7 176
l6 127 58 0 57 0 7 -112z"/>
</g>
</svg>
