<?xml version="1.0" standalone="no"?>
<!DOCTYPE svg PUBLIC "-//W3C//DTD SVG 20010904//EN"
 "http://www.w3.org/TR/2001/REC-SVG-20010904/DTD/svg10.dtd">
<svg version="1.0" xmlns="http://www.w3.org/2000/svg"
 width="2360.000000pt" height="1640.000000pt" viewBox="0 0 2360.000000 1640.000000"
 preserveAspectRatio="xMidYMid meet">
<metadata>
Created by potrace 1.16, written by Peter Selinger 2001-2019
</metadata>
<g transform="translate(0.000000,1640.000000) scale(0.100000,-0.100000)"
fill="#000000" stroke="none">
<path d="M10244 6337 c-11 -31 6 -37 102 -37 91 0 94 -1 94 -22 0 -36 11 -68
21 -62 5 3 9 23 9 45 l0 39 650 -7 c522 -5 652 -4 665 7 12 10 18 10 30 0 13
-11 143 -12 665 -7 l650 7 0 -39 c0 -22 4 -42 9 -45 10 -6 21 26 21 62 0 21 3
22 89 22 110 0 125 4 110 33 -11 20 -12 20 -776 15 -628 -5 -767 -8 -774 -19
-8 -12 -10 -12 -18 0 -7 11 -146 14 -774 19 -697 5 -767 4 -773 -11z M10220
6275 c-10 -12 -11 -132 -6 -558 3 -298 9 -1019 12 -1602 4 -653 10 -1065 16
-1072 5 -6 17 -9 25 -6 15 6 16 100 10 1027 -4 562 -7 1248 -7 1526 -1 675 -5
739 -50 685z M13337 6193 c-4 -54 -6 -325 -7 -603 0 -278 -3 -964 -7 -1526 -6
-927 -5 -1021 10 -1027 8 -3 20 0 25 6 6 7 12 419 16 1072 3 583 9 1304 12
1602 7 558 6 573 -31 573 -8 0 -14 -30 -18 -97z M10322 6174 c-27 -12 2 -24
58 -24 l59 0 3 -52 c2 -31 8 -53 16 -56 10 -3 12 12 10 65 l-3 68 -65 2 c-36
1 -71 0 -78 -3z M10500 6171 c-13 -9 -12 -11 1 -16 25 -9 119 -1 119 10 0 13
-101 18 -120 6z M10680 6171 c-13 -9 -12 -11 1 -16 25 -9 119 -1 119 10 0 13
-101 18 -120 6z M10860 6171 c-13 -9 -12 -11 1 -16 25 -9 119 -1 119 10 0 13
-101 18 -120 6z M11047 6173 c-17 -17 -2 -23 58 -23 51 0 65 3 65 15 0 12 -13
15 -58 15 -32 0 -62 -3 -65 -7z M11227 6173 c-17 -17 -2 -23 58 -23 51 0 65 3
65 15 0 12 -13 15 -58 15 -32 0 -62 -3 -65 -7z M11407 6174 c-15 -15 8 -24 64
-24 46 0 59 3 59 15 0 12 -13 15 -58 15 -32 0 -62 -3 -65 -6z M11585 6170 c-3
-6 0 -12 7 -15 26 -10 423 0 421 10 -4 14 -419 19 -428 5z M12070 6165 c0 -13
11 -15 63 -13 34 2 62 8 62 13 0 6 -28 11 -62 13 -52 2 -63 0 -63 -13z M12250
6165 c0 -12 13 -15 66 -15 48 0 65 3 62 13 -3 7 -28 13 -66 15 -51 2 -62 0
-62 -13z M12430 6165 c0 -12 13 -15 66 -15 48 0 65 3 62 13 -3 7 -28 13 -66
15 -51 2 -62 0 -62 -13z M12617 6174 c-15 -15 8 -24 63 -24 58 0 85 12 54 24
-21 8 -109 8 -117 0z M12797 6174 c-15 -15 8 -24 63 -24 58 0 85 12 54 24 -21
8 -109 8 -117 0z M12977 6174 c-15 -15 8 -24 63 -24 58 0 85 12 54 24 -21 8
-109 8 -117 0z M13135 6172 c-3 -3 -5 -34 -5 -69 0 -47 3 -64 13 -61 7 3 13
26 15 56 l3 52 59 0 c60 0 87 13 51 25 -22 7 -128 4 -136 -3z M10445 5988
c-10 -24 -1 -123 10 -121 14 4 19 113 6 126 -7 7 -12 5 -16 -5z M13135 5988
c-10 -24 -1 -123 10 -121 14 4 19 113 6 126 -7 7 -12 5 -16 -5z M10440 5755
c0 -49 3 -66 13 -62 8 2 12 24 12 62 0 38 -4 60 -12 63 -10 3 -13 -14 -13 -63z
M13134 5806 c-9 -25 1 -109 14 -114 9 -3 12 14 12 62 0 61 -13 87 -26 52z
M10445 5639 c-9 -25 -1 -124 10 -122 14 4 18 99 6 120 -9 16 -10 16 -16 2z
M13135 5628 c-9 -35 -2 -113 10 -111 13 4 19 113 6 126 -7 7 -12 2 -16 -15z
M10440 5404 c0 -48 3 -65 13 -62 14 5 21 69 13 105 -12 45 -26 22 -26 -43z
M13134 5447 c-8 -36 -1 -100 14 -105 9 -3 12 14 12 62 0 65 -14 88 -26 43z
M10440 5225 c0 -37 4 -65 10 -65 6 0 10 28 10 65 0 37 -4 65 -10 65 -6 0 -10
-28 -10 -65z M13140 5225 c0 -37 4 -65 10 -65 6 0 10 28 10 65 0 37 -4 65 -10
65 -6 0 -10 -28 -10 -65z M10440 5051 c0 -41 4 -71 10 -71 6 0 10 28 10 64 0
36 -4 68 -10 71 -6 4 -10 -20 -10 -64z M13147 5113 c-11 -10 -8 -133 3 -133 6
0 10 30 10 70 0 70 -1 76 -13 63z M10435 4896 c-7 -46 0 -86 16 -86 5 0 9 29
9 65 0 74 -15 87 -25 21z M13140 4875 c0 -64 12 -85 25 -44 9 27 -3 109 -16
109 -5 0 -9 -29 -9 -65z M10435 4747 c-10 -37 -1 -110 13 -115 9 -3 12 14 12
62 0 66 -15 96 -25 53z M13147 4764 c-4 -4 -7 -36 -7 -71 0 -47 3 -64 13 -61
7 3 13 26 15 56 3 51 -8 89 -21 76z M10435 4578 c-10 -24 -1 -123 10 -121 14
4 19 113 6 126 -7 7 -12 5 -16 -5z M13145 4578 c-10 -24 -1 -123 10 -121 14 4
19 113 6 126 -7 7 -12 5 -16 -5z M10436 4403 c-3 -3 -6 -33 -6 -65 0 -45 3
-58 15 -58 12 0 15 13 15 59 0 56 -9 79 -24 64z M13146 4403 c-3 -3 -6 -33 -6
-65 0 -45 3 -58 15 -58 12 0 15 13 15 59 0 56 -9 79 -24 64z M10430 4164 c0
-48 3 -65 13 -62 14 5 21 69 13 105 -12 45 -26 22 -26 -43z M13144 4207 c-8
-36 -1 -100 14 -105 9 -3 12 14 12 62 0 65 -14 88 -26 43z M10437 4054 c-10
-11 -9 -134 2 -134 13 0 21 27 20 68 -1 43 -12 76 -22 66z M13146 4037 c-8
-29 -8 -81 0 -101 13 -35 24 -13 24 48 0 66 -13 94 -24 53z M10430 3816 c0
-36 5 -68 10 -71 6 -4 10 20 10 64 0 41 -4 71 -10 71 -6 0 -10 -28 -10 -64z
M13150 3809 c0 -44 4 -68 10 -64 6 3 10 35 10 71 0 36 -4 64 -10 64 -6 0 -10
-30 -10 -71z M10430 3635 c0 -37 4 -65 10 -65 6 0 10 28 10 65 0 37 -4 65 -10
65 -6 0 -10 -28 -10 -65z M13150 3635 c0 -37 4 -65 10 -65 6 0 10 28 10 65 0
37 -4 65 -10 65 -6 0 -10 -28 -10 -65z M10425 3485 c-8 -49 0 -95 15 -95 13 0
13 127 1 135 -6 3 -13 -15 -16 -40z M13157 3524 c-10 -11 -9 -134 2 -134 5 0
12 7 15 16 13 33 -1 133 -17 118z M10426 3334 c-10 -25 -7 -112 4 -119 6 -3
12 0 15 7 4 9 20 12 50 10 53 -5 95 4 95 19 0 7 -25 9 -70 7 l-70 -3 0 42 c0
44 -13 64 -24 37z M13157 3343 c-4 -3 -7 -25 -7 -47 l0 -41 -70 3 c-45 2 -70
0 -70 -7 0 -15 42 -24 95 -19 30 2 46 -1 50 -10 11 -28 25 2 25 51 0 52 -10
83 -23 70z M11020 3263 c-57 -10 -41 -23 28 -23 68 0 92 10 56 24 -17 6 -44 6
-84 -1z M11183 3264 c-31 -13 -8 -24 53 -24 48 0 65 3 62 13 -5 12 -92 21
-115 11z M11357 3263 c-17 -17 -2 -23 58 -23 51 0 65 3 65 15 0 12 -13 15 -58
15 -32 0 -62 -3 -65 -7z M11537 3263 c-18 -17 -2 -24 55 -21 38 2 63 8 66 16
3 9 -13 12 -55 12 -33 0 -63 -3 -66 -7z M11715 3260 c-3 -5 0 -13 8 -16 24 -9
162 0 162 11 0 14 -161 19 -170 5z M11942 3258 c3 -8 27 -14 67 -16 48 -2 62
0 59 10 -3 8 -27 14 -67 16 -48 2 -62 0 -59 -10z M12120 3255 c0 -12 13 -15
66 -15 48 0 65 3 62 13 -3 7 -28 13 -66 15 -51 2 -62 0 -62 -13z M12307 3263
c-17 -17 -2 -23 58 -23 62 0 84 11 49 24 -21 8 -99 8 -107 -1z M12493 3264
c-32 -14 -7 -24 59 -24 45 0 68 4 63 9 -12 12 -105 23 -122 15z M10626 3251
c-4 -5 12 -12 34 -16 44 -7 100 1 100 16 0 12 -127 12 -134 0z M10805 3250
c-4 -6 20 -10 64 -10 41 0 71 4 71 10 0 6 -28 10 -64 10 -36 0 -68 -4 -71 -10z
M12660 3250 c0 -6 30 -10 71 -10 44 0 68 4 64 10 -3 6 -35 10 -71 10 -36 0
-64 -4 -64 -10z M12840 3251 c0 -15 56 -23 100 -16 22 4 38 11 34 16 -7 12
-134 12 -134 0z M10420 3106 c0 -53 3 -66 15 -66 13 0 15 11 13 62 -2 38 -8
63 -15 66 -10 3 -13 -14 -13 -62z M13157 3163 c-4 -3 -7 -33 -7 -65 0 -45 3
-58 15 -58 12 0 15 14 15 65 0 60 -6 75 -23 58z"/>
</g>
</svg>
