<?xml version="1.0" standalone="no"?>
<!DOCTYPE svg PUBLIC "-//W3C//DTD SVG 20010904//EN"
 "http://www.w3.org/TR/2001/REC-SVG-20010904/DTD/svg10.dtd">
<svg version="1.0" xmlns="http://www.w3.org/2000/svg"
 width="2360.000000pt" height="1640.000000pt" viewBox="0 0 2360.000000 1640.000000"
 preserveAspectRatio="xMidYMid meet">
<metadata>
Created by potrace 1.16, written by Peter Selinger 2001-2019
</metadata>
<g transform="translate(0.000000,1640.000000) scale(0.100000,-0.100000)"
fill="#000000" stroke="none">
<path d="M10884 6913 c-181 -197 -410 -446 -509 -553 -100 -107 -334 -361
-520 -565 -224 -245 -347 -371 -361 -373 -13 -2 -26 -13 -30 -25 -10 -32 6
-1990 17 -2002 6 -6 15 -3 26 8 12 11 17 34 17 79 l1 62 47 -3 c75 -4 84 2 80
51 -4 62 -11 88 -22 88 -6 0 -10 -25 -10 -55 l0 -55 -50 0 -50 0 0 895 0 894
562 613 c309 337 609 665 667 728 250 274 434 470 441 470 5 0 63 -91 131
-202 67 -111 142 -225 166 -255 33 -41 41 -57 35 -71 -5 -9 -12 -197 -16 -417
-4 -220 -13 -735 -21 -1145 -8 -410 -17 -909 -20 -1110 -3 -201 -8 -411 -11
-467 l-6 -103 -191 0 c-456 0 -1724 -12 -1745 -16 -15 -3 -22 -11 -20 -22 3
-16 66 -17 983 -17 539 0 986 -4 993 -8 7 -5 18 -4 25 1 7 5 25 12 40 16 32 8
31 26 -2 41 -22 10 -23 11 -17 165 4 85 11 432 16 770 14 818 28 1625 36 2000
6 263 9 307 23 317 11 8 13 16 6 26 -5 8 -37 50 -70 93 -33 43 -102 149 -153
234 -52 85 -104 171 -115 189 -12 19 -21 44 -22 55 0 10 -5 21 -12 23 -6 2
-159 -157 -339 -354z M12362 7262 c-7 -5 -10 -16 -7 -24 4 -10 -31 -76 -91
-174 -145 -238 -154 -252 -213 -328 -47 -61 -52 -72 -41 -89 9 -14 14 -144 21
-461 25 -1246 39 -1995 44 -2301 3 -187 7 -372 10 -410 4 -65 3 -71 -18 -80
-30 -13 -28 -39 3 -43 14 -2 31 -9 38 -15 9 -7 16 -7 23 0 8 8 312 9 988 5
1010 -5 1020 -5 980 33 -11 10 -181 14 -794 19 -429 3 -866 6 -971 6 l-191 0
-7 438 c-4 240 -15 894 -26 1452 -11 558 -20 1079 -21 1157 0 78 -5 159 -9
179 -8 34 -5 42 33 93 55 73 101 144 194 299 42 70 81 135 88 144 10 16 22 6
105 -85 51 -56 240 -262 420 -457 180 -195 515 -560 744 -810 l416 -454 0
-712 c0 -391 -3 -793 -7 -892 l-6 -182 -44 0 -43 0 0 55 c0 30 -4 55 -10 55
-11 0 -18 -26 -22 -88 -3 -37 -1 -43 19 -48 13 -4 41 -4 63 -2 l40 4 0 -63 c0
-43 5 -66 16 -77 21 -22 33 -20 38 7 3 12 8 462 11 1000 5 745 3 982 -6 993
-6 8 -19 14 -29 14 -9 0 -52 39 -95 88 -43 48 -203 222 -355 387 -336 364
-549 595 -954 1038 -169 185 -311 337 -315 337 -3 0 -12 -4 -19 -8z M11076
6928 c-45 -52 -49 -85 -7 -44 l30 29 42 -37 c40 -34 69 -46 69 -28 0 4 -20 23
-44 42 -35 28 -43 40 -39 58 8 34 -12 26 -51 -20z M12473 6948 c4 -18 -4 -30
-39 -58 -24 -19 -44 -38 -44 -42 0 -18 29 -6 69 28 l42 37 30 -29 c42 -41 38
-8 -7 44 -39 46 -59 54 -51 20z M10946 6783 c-48 -62 -26 -72 25 -12 42 48 46
59 25 59 -7 0 -30 -21 -50 -47z M11253 6785 c50 -46 67 -54 66 -32 0 17 -77
77 -98 77 -10 -1 1 -16 32 -45z M12322 6798 c-38 -31 -54 -58 -33 -58 5 0 31
20 58 45 57 52 37 63 -25 13z M12590 6823 c1 -17 77 -96 89 -92 15 5 -56 99
-75 99 -8 0 -14 -3 -14 -7z M11330 6732 c0 -5 11 -19 24 -32 17 -15 26 -36 28
-64 3 -44 21 -52 26 -12 2 14 10 26 19 28 15 3 15 4 1 19 -9 8 -18 24 -20 35
-2 13 -10 18 -25 16 -12 -2 -24 2 -28 8 -7 12 -25 14 -25 2z M12245 6730 c-4
-6 -16 -10 -28 -8 -15 2 -23 -3 -25 -16 -2 -11 -11 -27 -20 -35 -14 -15 -14
-16 1 -19 9 -2 17 -14 19 -28 5 -40 23 -32 26 12 2 28 11 49 28 64 13 13 24
27 24 32 0 12 -18 10 -25 -2z M10831 6655 c-40 -43 -51 -65 -32 -65 12 0 91
87 91 100 0 20 -18 9 -59 -35z M12710 6690 c0 -13 79 -100 91 -100 19 0 8 22
-32 65 -41 44 -59 55 -59 35z M10706 6518 c-36 -42 -44 -58 -27 -58 9 0 91 85
91 95 0 18 -34 -1 -64 -37z M12830 6555 c0 -10 82 -95 91 -95 17 0 9 16 -27
58 -30 36 -64 55 -64 37z M11380 6475 c0 -36 4 -65 9 -65 11 0 22 80 14 108
-11 43 -23 21 -23 -43z M12197 6518 c-8 -28 3 -108 14 -108 5 0 9 29 9 65 0
64 -12 86 -23 43z M10590 6388 c-38 -41 -50 -68 -31 -68 13 0 81 81 81 97 0
21 -8 16 -50 -29z M12960 6417 c0 -16 67 -97 81 -97 17 0 9 23 -23 59 -38 44
-58 57 -58 38z M11375 6327 c-9 -44 -3 -103 10 -100 13 4 19 133 6 133 -6 0
-13 -15 -16 -33z M12202 6293 c3 -71 21 -93 26 -34 5 45 -6 101 -19 101 -6 0
-9 -27 -7 -67z M10466 6250 c-55 -61 -46 -86 9 -28 43 45 55 68 36 68 -5 0
-25 -18 -45 -40z M13080 6279 c0 -5 20 -31 45 -57 55 -58 64 -33 9 28 -36 40
-54 50 -54 29z M11377 6174 c-4 -4 -7 -36 -7 -71 0 -47 3 -64 13 -61 7 3 13
26 15 56 3 51 -8 89 -21 76z M12205 6157 c-10 -37 -1 -110 13 -115 9 -3 12 14
12 62 0 66 -15 96 -25 53z M10353 6128 c-30 -34 -57 -78 -46 -78 10 0 93 82
93 93 0 15 -27 6 -47 -15z M13200 6143 c0 -13 89 -98 95 -91 9 9 -59 93 -78
96 -9 2 -17 0 -17 -5z M10218 5974 c-38 -47 -46 -64 -29 -64 14 0 91 93 85
102 -9 15 -19 8 -56 -38z M13327 6012 c-6 -9 70 -102 84 -102 17 0 9 18 -27
62 -39 46 -49 54 -57 40z M11370 5925 c0 -37 4 -65 10 -65 6 0 10 28 10 65 0
37 -4 65 -10 65 -6 0 -10 -28 -10 -65z M12210 5925 c0 -37 4 -65 10 -65 6 0
10 28 10 65 0 37 -4 65 -10 65 -6 0 -10 -28 -10 -65z M10096 5840 c-35 -39
-45 -60 -28 -60 13 0 82 74 82 88 0 22 -17 13 -54 -28z M13450 5867 c0 -13 70
-87 83 -87 16 0 5 22 -29 60 -37 41 -54 50 -54 27z M11366 5794 c-3 -9 -6 -38
-6 -65 0 -37 4 -49 15 -49 12 0 15 13 15 59 0 59 -12 86 -24 55z M12217 5803
c-4 -3 -7 -33 -7 -65 0 -45 3 -58 15 -58 11 0 15 12 15 53 0 52 -10 83 -23 70z
M9975 5705 c-20 -24 -35 -50 -33 -56 5 -14 88 70 88 89 0 23 -19 12 -55 -33z
M13570 5738 c0 -19 83 -103 88 -89 4 13 -64 101 -79 101 -5 0 -9 -6 -9 -12z
M11367 5623 c-10 -10 -8 -133 2 -133 13 0 21 27 21 73 0 44 -11 72 -23 60z
M12216 5614 c-8 -20 -8 -88 0 -108 13 -35 24 -13 24 48 0 63 -12 92 -24 60z
M9849 5563 c-30 -33 -39 -48 -29 -51 14 -5 90 71 90 89 0 19 -19 7 -61 -38z
M13690 5601 c0 -18 76 -94 90 -89 10 3 1 18 -29 51 -42 45 -61 57 -61 38z
M9731 5434 c-40 -46 -49 -64 -32 -64 15 0 92 90 86 100 -9 15 -10 14 -54 -36z
M13816 5472 c-7 -12 68 -102 85 -102 18 0 8 19 -34 66 -28 31 -46 44 -51 36z
M11357 5390 c-6 -52 -1 -80 14 -80 5 0 9 29 9 65 0 77 -15 86 -23 15z M12220
5375 c0 -61 11 -84 23 -50 8 20 -4 115 -14 115 -5 0 -9 -29 -9 -65z M9605
5295 c-42 -52 -43 -77 -2 -45 l27 21 0 -55 c0 -31 5 -56 10 -56 6 0 10 31 10
74 0 41 5 78 10 81 15 9 12 25 -4 25 -7 0 -30 -20 -51 -45z M13930 5331 c0 -6
5 -13 10 -16 6 -3 10 -40 10 -81 0 -43 4 -74 10 -74 6 0 10 25 10 56 l0 55 27
-21 c41 -32 40 -7 -2 45 -34 41 -65 58 -65 36z M11356 5253 c-3 -3 -6 -33 -6
-65 0 -45 3 -58 15 -58 12 0 15 13 15 59 0 56 -9 79 -24 64z M12226 5253 c-3
-3 -6 -33 -6 -65 0 -45 3 -58 15 -58 12 0 15 13 15 59 0 56 -9 79 -24 64z
M9630 5045 c0 -37 4 -65 10 -65 6 0 10 28 10 65 0 37 -4 65 -10 65 -6 0 -10
-28 -10 -65z M13950 5045 c0 -37 4 -65 10 -65 6 0 10 28 10 65 0 37 -4 65 -10
65 -6 0 -10 -28 -10 -65z M11350 5010 c0 -38 4 -70 9 -70 11 0 22 86 15 116
-12 47 -24 23 -24 -46z M12226 5056 c-7 -30 4 -116 15 -116 5 0 9 32 9 70 0
69 -12 93 -24 46z M9628 4892 c-4 -59 1 -92 13 -92 12 0 12 127 0 134 -5 3
-11 -15 -13 -42z M13958 4934 c-11 -10 -10 -134 1 -134 5 0 10 10 12 23 6 33
-5 120 -13 111z M11345 4857 c-8 -55 -4 -89 13 -95 9 -3 12 14 12 62 0 76 -16
96 -25 33z M12237 4894 c-4 -4 -7 -36 -7 -71 0 -47 3 -64 13 -61 6 3 13 21 15
40 4 42 -10 103 -21 92z M9625 4715 c-8 -49 0 -95 15 -95 13 0 13 127 1 135
-6 3 -13 -15 -16 -40z M13957 4754 c-10 -11 -9 -134 2 -134 5 0 12 7 15 16 13
33 -1 133 -17 118z M11340 4645 c0 -49 3 -66 13 -62 8 2 12 24 12 62 0 38 -4
60 -12 63 -10 3 -13 -14 -13 -63z M12234 4696 c-9 -25 1 -109 14 -114 9 -3 12
14 12 62 0 61 -13 87 -26 52z M9625 4558 c-9 -35 -2 -113 10 -111 13 4 19 113
6 126 -7 7 -12 2 -16 -15z M13955 4569 c-9 -25 -1 -124 10 -122 14 4 18 99 6
120 -9 16 -10 16 -16 2z M11340 4460 c0 -40 4 -70 10 -70 6 0 10 30 10 70 0
40 -4 70 -10 70 -6 0 -10 -30 -10 -70z M12240 4460 c0 -40 4 -70 10 -70 6 0
10 30 10 70 0 40 -4 70 -10 70 -6 0 -10 -30 -10 -70z M9625 4388 c-10 -24 -1
-123 10 -121 14 4 19 113 6 126 -7 7 -12 5 -16 -5z M13955 4388 c-10 -24 -1
-123 10 -121 14 4 19 113 6 126 -7 7 -12 5 -16 -5z M11335 4318 c-9 -45 -3
-104 10 -101 6 2 11 28 13 59 4 66 -13 96 -23 42z M12245 4339 c-9 -24 -2
-124 10 -124 14 0 18 85 6 115 -7 20 -10 22 -16 9z M9626 4213 c-3 -3 -6 -33
-6 -65 0 -45 3 -58 15 -58 12 0 15 13 15 59 0 56 -9 79 -24 64z M13956 4213
c-3 -3 -6 -33 -6 -65 0 -45 3 -58 15 -58 12 0 15 13 15 59 0 56 -9 79 -24 64z
M11330 4095 c0 -49 3 -66 13 -62 8 2 12 24 12 62 0 38 -4 60 -12 63 -10 3 -13
-14 -13 -63z M12244 4146 c-9 -25 1 -109 14 -114 9 -3 12 14 12 62 0 61 -13
87 -26 52z M9620 3976 c0 -53 3 -66 15 -66 13 0 15 11 13 62 -2 38 -8 63 -15
66 -10 3 -13 -14 -13 -62z M13957 4033 c-4 -3 -7 -33 -7 -65 0 -45 3 -58 15
-58 12 0 15 14 15 65 0 60 -6 75 -23 58z M11328 3933 c-5 -57 1 -95 13 -87 12
7 12 134 0 134 -5 0 -11 -21 -13 -47z M12250 3916 c0 -64 14 -97 22 -53 6 34
-3 117 -13 117 -5 0 -9 -29 -9 -64z M9620 3794 c0 -48 3 -65 13 -62 14 5 21
69 13 105 -12 45 -26 22 -26 -43z M13954 3837 c-8 -36 -1 -100 14 -105 9 -3
12 14 12 62 0 65 -14 88 -26 43z M11325 3788 c-10 -24 -1 -123 10 -121 14 4
19 113 6 126 -7 7 -12 5 -16 -5z M12255 3788 c-10 -24 -1 -123 10 -121 14 4
19 113 6 126 -7 7 -12 5 -16 -5z M10703 3583 c-58 -8 -35 -23 33 -23 48 0 65
3 62 13 -5 13 -42 17 -95 10z M10873 3584 c-33 -14 -7 -25 55 -22 38 2 66 7
65 13 -3 11 -99 18 -120 9z M11060 3581 c-13 -9 -12 -11 1 -16 25 -9 119 -1
119 10 0 13 -101 18 -120 6z M11246 3581 c-8 -12 18 -21 57 -21 42 0 77 10 77
21 0 12 -127 12 -134 0z M12220 3581 c0 -11 35 -21 77 -21 39 0 65 9 57 21 -7
12 -134 12 -134 0z M12417 3584 c-15 -15 8 -24 63 -24 58 0 85 12 54 24 -21 8
-109 8 -117 0z M12607 3584 c-15 -16 9 -24 69 -24 61 0 83 11 48 24 -21 8
-109 8 -117 0z M12807 3583 c-17 -17 -2 -23 58 -23 75 0 86 14 19 24 -59 8
-69 8 -77 -1z M9918 3573 c-10 -2 -18 -9 -18 -14 0 -6 28 -9 68 -7 37 2 67 8
67 13 0 10 -87 17 -117 8z M10100 3571 c-13 -9 -12 -11 1 -16 25 -9 119 -1
119 10 0 13 -101 18 -120 6z M10291 3571 c-12 -8 -10 -11 10 -16 38 -10 112
-2 117 13 4 15 -104 17 -127 3z M10480 3570 c0 -6 28 -10 65 -10 37 0 65 4 65
10 0 6 -28 10 -65 10 -37 0 -65 -4 -65 -10z M12990 3570 c0 -6 28 -10 65 -10
37 0 65 4 65 10 0 6 -28 10 -65 10 -37 0 -65 -4 -65 -10z M13182 3568 c5 -15
79 -23 117 -13 41 10 5 25 -62 25 -43 0 -58 -3 -55 -12z M13377 3574 c-15 -15
8 -24 63 -24 58 0 85 12 54 24 -21 8 -109 8 -117 0z M13567 3574 c-15 -16 9
-24 69 -24 63 0 85 12 42 24 -30 8 -103 8 -111 0z M9710 3560 c0 -6 30 -10 70
-10 40 0 70 4 70 10 0 6 -30 10 -70 10 -40 0 -70 -4 -70 -10z M13750 3560 c0
-6 30 -10 70 -10 40 0 70 4 70 10 0 6 -30 10 -70 10 -40 0 -70 -4 -70 -10z"/>
</g>
</svg>
