<?xml version="1.0" standalone="no"?>
<!DOCTYPE svg PUBLIC "-//W3C//DTD SVG 20010904//EN"
 "http://www.w3.org/TR/2001/REC-SVG-20010904/DTD/svg10.dtd">
<svg version="1.0" xmlns="http://www.w3.org/2000/svg"
 width="2360.000000pt" height="1640.000000pt" viewBox="0 0 2360.000000 1640.000000"
 preserveAspectRatio="xMidYMid meet">
<metadata>
Created by potrace 1.16, written by Peter Selinger 2001-2019
</metadata>
<g transform="translate(0.000000,1640.000000) scale(0.100000,-0.100000)"
fill="#000000" stroke="none">
<path d="M11724 11856 c-8 -22 3 -33 18 -18 9 9 9 15 0 24 -9 9 -13 7 -18 -6z
M11855 11860 c-7 -12 2 -30 16 -30 12 0 12 27 0 35 -5 3 -12 1 -16 -5z M11605
6213 c-82 -2 -426 -7 -763 -12 -356 -5 -617 -12 -623 -18 -5 -5 -12 -94 -14
-199 -9 -331 -76 -800 -165 -1155 -92 -367 -208 -688 -354 -974 -117 -231
-214 -379 -379 -584 -159 -196 -178 -222 -175 -240 4 -21 149 -28 443 -21 313
8 1342 15 2225 15 883 0 1912 -7 2225 -15 294 -7 439 0 443 21 3 18 -16 44
-175 240 -165 205 -262 353 -379 584 -146 286 -262 607 -354 974 -89 355 -156
824 -165 1155 -2 105 -9 194 -14 199 -6 6 -267 13 -623 18 -337 4 -701 9 -808
11 -107 2 -262 2 -345 1z m1483 -70 l242 -6 0 -69 0 -68 -40 0 -40 0 0 60 c0
33 -4 60 -10 60 -15 0 -13 -125 3 -138 7 -6 30 -12 52 -14 l40 -3 6 -125 c14
-260 80 -679 155 -985 125 -505 310 -966 519 -1290 65 -102 224 -314 315 -422
l62 -73 -83 0 c-77 0 -85 2 -112 28 l-30 27 6 -29 5 -29 -912 7 c-1147 8
-1785 8 -2932 0 l-912 -7 5 29 6 29 -30 -27 c-27 -26 -35 -28 -112 -28 l-83 0
62 73 c91 108 250 320 315 422 209 324 394 785 519 1290 74 302 141 729 155
985 l6 125 40 3 c22 2 45 8 52 14 16 13 18 138 3 138 -6 0 -10 -27 -10 -60 l0
-60 -40 0 -40 0 0 70 0 70 108 1 c59 1 296 5 527 9 451 8 1784 4 2183 -7z
M11545 6033 c-69 -7 -64 -23 7 -23 65 0 94 12 62 24 -9 3 -19 5 -22 4 -4 -1
-25 -3 -47 -5z M11682 6033 c-35 -14 11 -23 118 -23 110 0 153 9 114 24 -19 7
-213 7 -232 -1z M11982 6033 c-29 -11 4 -23 66 -23 38 0 62 4 57 9 -12 10
-104 21 -123 14z M11178 6023 c-27 -2 -48 -8 -48 -14 0 -12 127 -12 134 0 6 9
-19 23 -32 19 -4 -1 -28 -3 -54 -5z M11322 6023 c-25 -10 1 -23 48 -23 55 0
83 8 74 21 -5 9 -100 11 -122 2z M12156 6021 c-9 -13 19 -21 74 -21 49 0 73
13 44 24 -24 9 -112 7 -118 -3z M12342 6024 c-6 -3 -10 -10 -6 -15 7 -12 134
-12 134 1 0 6 -17 10 -37 10 -21 0 -47 2 -58 5 -11 2 -26 2 -33 -1z M10813
6013 c-67 -6 -50 -23 23 -23 48 0 65 3 62 13 -5 13 -23 16 -85 10z M10963
6013 c-7 -2 -13 -9 -13 -14 0 -15 123 -6 128 9 3 9 -11 12 -50 11 -29 0 -59
-3 -65 -6z M12522 6008 c5 -15 128 -24 128 -10 0 15 -27 22 -82 22 -35 0 -48
-4 -46 -12z M12707 6014 c-17 -18 -3 -24 58 -24 37 0 65 4 65 10 0 6 -13 10
-29 10 -16 0 -41 3 -57 6 -16 3 -32 2 -37 -2z M10448 6003 c-63 -7 -43 -23 28
-23 48 0 65 3 62 13 -5 13 -32 16 -90 10z M10597 6003 c-18 -17 -2 -24 55 -21
38 2 63 8 66 16 3 9 -13 12 -55 12 -33 0 -63 -3 -66 -7z M12882 5998 c3 -8 27
-14 67 -16 48 -2 62 0 59 10 -3 8 -27 14 -67 16 -48 2 -62 0 -59 -10z M13068
6004 c-18 -18 -4 -24 57 -24 37 0 65 4 65 10 0 6 -10 10 -22 10 -13 0 -39 3
-58 6 -19 3 -38 2 -42 -2z M10346 5943 c-9 -10 -7 -121 3 -127 13 -9 21 19 21
74 0 46 -9 67 -24 53z M13236 5943 c-8 -8 -8 -96 0 -117 12 -31 24 -4 24 54 0
55 -9 78 -24 63z M10347 5763 c-10 -10 -8 -133 2 -133 12 0 24 121 13 132 -4
4 -11 5 -15 1z M13235 5760 c-9 -14 6 -130 16 -130 12 0 11 127 0 135 -5 3
-12 1 -16 -5z M10335 5579 c-10 -26 -10 -114 0 -119 13 -7 28 111 15 124 -6 6
-11 4 -15 -5z M13246 5579 c-8 -23 8 -124 19 -119 12 6 8 111 -5 124 -6 6 -11
4 -14 -5z M10316 5394 c-9 -24 -7 -114 3 -114 9 0 21 57 21 103 0 29 -14 36
-24 11z M13260 5383 c0 -46 12 -103 21 -103 10 0 12 90 3 114 -10 25 -24 18
-24 -11z M10295 5208 c-10 -45 -10 -97 0 -98 13 -1 23 34 24 83 1 40 -16 51
-24 15z M13281 5193 c1 -49 11 -84 24 -83 10 1 10 53 0 98 -8 36 -25 25 -24
-15z M10271 5024 c-13 -48 -14 -107 -2 -99 16 9 34 116 23 127 -7 7 -14 -2
-21 -28z M13306 5051 c-10 -15 12 -119 26 -127 8 -5 9 10 5 49 -6 62 -20 97
-31 78z M10240 4855 c-5 -14 -13 -44 -16 -66 -9 -54 12 -51 26 4 6 23 13 49
16 59 8 28 -15 31 -26 3z M13336 4872 c-5 -9 19 -110 28 -120 15 -14 18 13 7
63 -12 54 -24 74 -35 57z M10196 4679 c-23 -56 -30 -102 -15 -97 18 6 52 109
39 122 -6 6 -14 -2 -24 -25z M13376 4701 c-6 -9 22 -100 35 -115 18 -20 20 5
5 58 -16 55 -30 74 -40 57z M10145 4518 c-15 -42 -35 -101 -35 -104 0 -2 5 -4
10 -4 13 0 49 77 50 103 0 20 -18 23 -25 5z M13430 4513 c1 -27 37 -103 50
-103 11 0 10 8 -15 79 -13 38 -35 53 -35 24z M10094 4359 c-15 -18 -44 -87
-44 -105 0 -29 18 -12 39 37 24 54 26 94 5 68z M13490 4355 c0 -23 41 -115 51
-115 14 0 11 25 -10 73 -21 48 -41 69 -41 42z M10001 4151 c-34 -71 -23 -101
12 -34 15 29 27 59 27 68 0 29 -17 15 -39 -34z M13560 4185 c0 -9 12 -39 27
-68 35 -67 46 -37 12 34 -22 49 -39 63 -39 34z M9924 3984 c-17 -39 -22 -60
-15 -67 7 -7 18 7 36 47 28 62 30 76 14 76 -5 0 -21 -25 -35 -56z M13630 4030
c0 -5 11 -35 25 -66 18 -40 29 -54 36 -47 12 12 -33 123 -50 123 -6 0 -11 -4
-11 -10z M9856 3832 c-27 -53 -34 -88 -16 -77 21 13 62 107 52 117 -7 7 -19
-7 -36 -40z M13705 3870 c-6 -10 38 -105 55 -115 18 -11 11 24 -15 75 -27 52
-30 56 -40 40z M9768 3661 c-31 -54 -33 -61 -18 -61 10 0 70 87 70 102 0 24
-29 2 -52 -41z M13780 3702 c0 -15 60 -102 70 -102 15 0 13 7 -17 61 -24 43
-53 65 -53 41z M9680 3513 c-30 -47 -39 -80 -19 -67 13 8 69 94 69 106 0 21
-23 3 -50 -39z M13870 3552 c0 -12 56 -98 69 -106 20 -13 11 20 -19 67 -27 42
-50 60 -50 39z M9597 3378 c-35 -47 -48 -76 -38 -82 4 -3 21 14 38 37 42 59
45 65 34 71 -5 4 -21 -8 -34 -26z M13966 3402 c-7 -12 64 -113 76 -106 10 6
-27 77 -53 100 -9 8 -20 11 -23 6z M9510 3250 c0 -5 -29 -10 -65 -12 -79 -4
-91 -22 -17 -26 52 -3 52 -3 37 -25 -17 -25 -19 -37 -5 -37 10 0 79 89 80 103
0 4 -7 7 -15 7 -8 0 -15 -4 -15 -10z M14060 3253 c1 -14 70 -103 80 -103 14 0
12 12 -5 37 -15 22 -15 22 35 25 75 4 66 23 -12 26 -38 2 -68 7 -68 12 0 6 -7
10 -15 10 -8 0 -15 -3 -15 -7z M9557 3233 c-17 -17 -2 -23 58 -23 51 0 65 3
65 15 0 12 -13 15 -58 15 -32 0 -62 -3 -65 -7z M9737 3233 c-17 -17 -2 -23 58
-23 51 0 65 3 65 15 0 12 -13 15 -58 15 -32 0 -62 -3 -65 -7z M9923 3234 c-31
-13 -8 -24 53 -24 48 0 65 3 62 13 -5 12 -92 21 -115 11z M10103 3234 c-31
-13 -8 -24 53 -24 48 0 65 3 62 13 -5 12 -92 21 -115 11z M10293 3233 c-47 -9
-21 -23 42 -23 68 0 87 13 34 24 -33 6 -39 6 -76 -1z M13223 3233 c-47 -9 -21
-23 42 -23 68 0 87 13 34 24 -33 6 -39 6 -76 -1z M13387 3233 c-17 -17 -2 -23
58 -23 62 0 84 11 49 24 -21 8 -99 8 -107 -1z M13567 3233 c-17 -17 -2 -23 58
-23 62 0 84 11 49 24 -21 8 -99 8 -107 -1z M13740 3225 c0 -12 13 -15 66 -15
48 0 65 3 62 13 -3 7 -28 13 -66 15 -51 2 -62 0 -62 -13z M13920 3225 c0 -12
13 -15 66 -15 48 0 65 3 62 13 -3 7 -28 13 -66 15 -51 2 -62 0 -62 -13z
M10450 3220 c0 -6 28 -10 65 -10 37 0 65 4 65 10 0 6 -28 10 -65 10 -37 0 -65
-4 -65 -10z M10630 3220 c0 -6 28 -10 65 -10 37 0 65 4 65 10 0 6 -28 10 -65
10 -37 0 -65 -4 -65 -10z M10810 3221 c0 -10 71 -18 108 -13 48 7 19 22 -43
22 -36 0 -65 -4 -65 -9z M10990 3221 c0 -13 82 -25 109 -16 41 13 20 25 -44
25 -36 0 -65 -4 -65 -9z M11170 3220 c0 -24 120 -26 128 -2 3 9 -14 12 -62 12
-37 0 -66 -4 -66 -10z M11355 3220 c-9 -15 16 -22 70 -18 28 2 50 8 53 16 5
15 -114 17 -123 2z M11537 3224 c-15 -15 8 -24 64 -24 46 0 59 3 59 15 0 12
-13 15 -58 15 -32 0 -62 -3 -65 -6z M11715 3220 c-3 -5 0 -13 8 -16 24 -9 162
0 162 11 0 14 -161 19 -170 5z M11940 3215 c0 -13 11 -15 63 -13 34 2 62 8 62
13 0 6 -28 11 -62 13 -52 2 -63 0 -63 -13z M12122 3218 c3 -9 24 -13 61 -13
79 0 77 19 -2 23 -48 2 -62 0 -59 -10z M12302 3218 c5 -15 69 -22 105 -14 45
12 22 26 -43 26 -48 0 -65 -3 -62 -12z M12480 3221 c0 -16 40 -23 86 -16 66
10 53 25 -21 25 -36 0 -65 -4 -65 -9z M12660 3221 c0 -12 34 -17 88 -12 66 5
49 21 -23 21 -36 0 -65 -4 -65 -9z M12840 3220 c0 -6 28 -10 65 -10 37 0 65 4
65 10 0 6 -28 10 -65 10 -37 0 -65 -4 -65 -10z M13020 3220 c0 -6 28 -10 65
-10 37 0 65 4 65 10 0 6 -28 10 -65 10 -37 0 -65 -4 -65 -10z"/>
</g>
</svg>
