<?xml version="1.0" standalone="no"?>
<!DOCTYPE svg PUBLIC "-//W3C//DTD SVG 20010904//EN"
 "http://www.w3.org/TR/2001/REC-SVG-20010904/DTD/svg10.dtd">
<svg version="1.0" xmlns="http://www.w3.org/2000/svg"
 width="2360.000000pt" height="1640.000000pt" viewBox="0 0 2360.000000 1640.000000"
 preserveAspectRatio="xMidYMid meet">
<metadata>
Created by potrace 1.16, written by Peter Selinger 2001-2019
</metadata>
<g transform="translate(0.000000,1640.000000) scale(0.100000,-0.100000)"
fill="#000000" stroke="none">
<path d="M9456 9892 c-3 -5 -11 -326 -18 -715 l-12 -705 68 -76 68 -76 598 0
598 0 72 77 73 78 -7 145 c-3 80 -8 314 -11 520 -3 206 -8 462 -11 568 l-6
192 -704 0 c-386 0 -705 -4 -708 -8z m1405 -287 c3 -154 10 -472 14 -706 l8
-426 -68 -71 -67 -72 -588 0 -588 0 -67 73 -67 72 6 235 c3 129 9 444 12 700
5 320 10 467 18 472 6 4 319 7 696 5 l685 -2 6 -280z M9491 9844 c0 -11 3 -14
6 -6 3 7 2 16 -1 19 -3 4 -6 -2 -5 -13z M10831 9384 c0 -11 3 -14 6 -6 3 7 2
16 -1 19 -3 4 -6 -2 -5 -13z"/>
</g>
</svg>
