<?xml version="1.0" standalone="no"?>
<!DOCTYPE svg PUBLIC "-//W3C//DTD SVG 20010904//EN"
 "http://www.w3.org/TR/2001/REC-SVG-20010904/DTD/svg10.dtd">
<svg version="1.0" xmlns="http://www.w3.org/2000/svg"
 width="2360.000000pt" height="1640.000000pt" viewBox="0 0 2360.000000 1640.000000"
 preserveAspectRatio="xMidYMid meet">
<metadata>
Created by potrace 1.16, written by Peter Selinger 2001-2019
</metadata>
<g transform="translate(0.000000,1640.000000) scale(0.100000,-0.100000)"
fill="#000000" stroke="none">
<path d="M10257 6468 c-8 -13 -36 -90 -62 -173 -26 -82 -80 -249 -120 -370
-40 -121 -112 -341 -160 -490 -48 -148 -114 -351 -146 -451 -32 -99 -59 -196
-59 -216 0 -20 9 -64 19 -99 11 -35 42 -147 70 -249 111 -415 126 -465 136
-472 13 -10 3717 -10 3730 0 6 4 16 32 24 62 7 30 16 66 21 80 5 14 20 68 34
120 14 52 53 195 86 316 33 122 60 234 60 248 0 15 -15 73 -34 129 -18 56 -73
224 -121 372 -48 149 -104 322 -125 385 -20 63 -65 198 -98 300 -33 102 -84
257 -112 345 -28 87 -56 165 -62 172 -8 11 -307 13 -1539 13 l-1529 0 -13 -22z
m3067 -9 c2 -2 25 -69 50 -149 26 -80 53 -161 60 -180 7 -19 26 -75 41 -125
15 -49 43 -135 61 -190 18 -55 87 -269 154 -475 67 -206 135 -415 152 -465 20
-59 28 -100 24 -120 -6 -30 -47 -183 -71 -265 -7 -25 -25 -88 -39 -140 -14
-52 -40 -144 -57 -205 -17 -60 -34 -123 -38 -140 -6 -27 -11 -30 -51 -32 -25
0 -51 4 -57 9 -9 7 -13 7 -13 -1 0 -8 -460 -11 -1740 -11 -1729 0 -1739 0
-1750 20 -6 12 -20 19 -33 19 l-22 -2 23 -4 c41 -8 25 -30 -23 -31 -44 -1 -68
14 -45 28 8 5 7 9 -4 13 -21 8 -20 27 2 28 13 0 12 2 -5 9 -13 5 -23 11 -23
13 0 4 -47 175 -146 532 -47 173 -49 188 -32 236 9 24 64 193 123 374 59 182
138 427 177 545 38 118 78 240 88 270 97 299 144 436 150 440 10 6 3038 5
3044 -1z M10325 6360 c3 -5 8 -10 11 -10 2 0 4 5 4 10 0 6 -5 10 -11 10 -5 0
-7 -4 -4 -10z M13260 6359 c0 -5 5 -7 10 -4 6 3 10 8 10 11 0 2 -4 4 -10 4 -5
0 -10 -5 -10 -11z M13331 6144 c0 -11 3 -14 6 -6 3 7 2 16 -1 19 -3 4 -6 -2
-5 -13z M13771 4744 c0 -11 3 -14 6 -6 3 7 2 16 -1 19 -3 4 -6 -2 -5 -13z
M13771 4584 c0 -11 3 -14 6 -6 3 7 2 16 -1 19 -3 4 -6 -2 -5 -13z M13651 4174
c0 -11 3 -14 6 -6 3 7 2 16 -1 19 -3 4 -6 -2 -5 -13z M13617 4063 c-4 -3 -7
-18 -6 -32 1 -26 1 -25 10 3 9 31 7 41 -4 29z M10010 4050 c-13 -8 -12 -10 3
-10 9 0 17 -6 17 -12 0 -9 3 -8 9 2 17 25 -1 38 -29 20z M10188 4043 c7 -3 16
-2 19 1 4 3 -2 6 -13 5 -11 0 -14 -3 -6 -6z M10278 4043 c7 -3 16 -2 19 1 4 3
-2 6 -13 5 -11 0 -14 -3 -6 -6z M10358 4043 c7 -3 16 -2 19 1 4 3 -2 6 -13 5
-11 0 -14 -3 -6 -6z M13556 4025 c-3 -8 -1 -15 4 -15 6 0 10 7 10 15 0 8 -2
15 -4 15 -2 0 -6 -7 -10 -15z M10108 4003 c7 -3 16 -2 19 1 4 3 -2 6 -13 5
-11 0 -14 -3 -6 -6z M10188 4003 c7 -3 16 -2 19 1 4 3 -2 6 -13 5 -11 0 -14
-3 -6 -6z M10268 4003 c6 -2 18 -2 25 0 6 3 1 5 -13 5 -14 0 -19 -2 -12 -5z
M10358 4003 c6 -2 18 -2 25 0 6 3 1 5 -13 5 -14 0 -19 -2 -12 -5z M10448 4003
c7 -3 16 -2 19 1 4 3 -2 6 -13 5 -11 0 -14 -3 -6 -6z M10528 4003 c6 -2 18 -2
25 0 6 3 1 5 -13 5 -14 0 -19 -2 -12 -5z M10618 4003 c7 -3 16 -2 19 1 4 3 -2
6 -13 5 -11 0 -14 -3 -6 -6z M10698 4003 c6 -2 18 -2 25 0 6 3 1 5 -13 5 -14
0 -19 -2 -12 -5z M10788 4003 c6 -2 18 -2 25 0 6 3 1 5 -13 5 -14 0 -19 -2
-12 -5z M10873 4003 c9 -2 23 -2 30 0 6 3 -1 5 -18 5 -16 0 -22 -2 -12 -5z
M10958 4003 c6 -2 18 -2 25 0 6 3 1 5 -13 5 -14 0 -19 -2 -12 -5z M11048 4003
c7 -3 16 -2 19 1 4 3 -2 6 -13 5 -11 0 -14 -3 -6 -6z M11138 4003 c7 -3 16 -2
19 1 4 3 -2 6 -13 5 -11 0 -14 -3 -6 -6z M11218 4003 c7 -3 16 -2 19 1 4 3 -2
6 -13 5 -11 0 -14 -3 -6 -6z M11298 4003 c6 -2 18 -2 25 0 6 3 1 5 -13 5 -14
0 -19 -2 -12 -5z M11388 4003 c6 -2 18 -2 25 0 6 3 1 5 -13 5 -14 0 -19 -2
-12 -5z M11478 4003 c6 -2 18 -2 25 0 6 3 1 5 -13 5 -14 0 -19 -2 -12 -5z
M11558 4003 c6 -2 18 -2 25 0 6 3 1 5 -13 5 -14 0 -19 -2 -12 -5z M11648 4003
c7 -3 16 -2 19 1 4 3 -2 6 -13 5 -11 0 -14 -3 -6 -6z M11738 4003 c7 -3 16 -2
19 1 4 3 -2 6 -13 5 -11 0 -14 -3 -6 -6z M11818 4003 c7 -3 16 -2 19 1 4 3 -2
6 -13 5 -11 0 -14 -3 -6 -6z M11908 4003 c7 -3 16 -2 19 1 4 3 -2 6 -13 5 -11
0 -14 -3 -6 -6z M11988 4003 c7 -3 16 -2 19 1 4 3 -2 6 -13 5 -11 0 -14 -3 -6
-6z"/>
</g>
</svg>
