<?xml version="1.0" standalone="no"?>
<!DOCTYPE svg PUBLIC "-//W3C//DTD SVG 20010904//EN"
 "http://www.w3.org/TR/2001/REC-SVG-20010904/DTD/svg10.dtd">
<svg version="1.0" xmlns="http://www.w3.org/2000/svg"
 width="2360.000000pt" height="1640.000000pt" viewBox="0 0 2360.000000 1640.000000"
 preserveAspectRatio="xMidYMid meet">
<metadata>
Created by potrace 1.16, written by Peter Selinger 2001-2019
</metadata>
<g transform="translate(0.000000,1640.000000) scale(0.100000,-0.100000)"
fill="#000000" stroke="none">
<path d="M12606 9921 c-12 -18 -16 -133 -21 -591 -3 -261 -8 -556 -11 -655
l-5 -180 74 -77 74 -78 589 0 589 0 74 77 73 78 -6 290 c-3 160 -8 459 -11
665 -3 206 -8 399 -11 428 l-5 52 -699 0 c-384 0 -701 -4 -704 -9z m1397 -253
c4 -134 9 -405 12 -603 3 -198 8 -405 11 -460 l5 -100 -66 -72 -67 -73 -593 0
-593 0 -63 71 -62 70 6 497 c4 273 10 590 14 705 l6 207 692 0 692 0 6 -242z
M13971 9874 c0 -11 3 -14 6 -6 3 7 2 16 -1 19 -3 4 -6 -2 -5 -13z M12648 9863
c7 -3 16 -2 19 1 4 3 -2 6 -13 5 -11 0 -14 -3 -6 -6z"/>
</g>
</svg>
