<?xml version="1.0" standalone="no"?>
<!DOCTYPE svg PUBLIC "-//W3C//DTD SVG 20010904//EN"
 "http://www.w3.org/TR/2001/REC-SVG-20010904/DTD/svg10.dtd">
<svg version="1.0" xmlns="http://www.w3.org/2000/svg"
 width="2048.000000pt" height="2048.000000pt" viewBox="0 0 2048.000000 2048.000000"
 preserveAspectRatio="xMidYMid meet">
<metadata>
Created by potrace 1.16, written by Peter Selinger 2001-2019
</metadata>
<g transform="translate(0.000000,2048.000000) scale(0.100000,-0.100000)"
fill="#000000" stroke="none">
<path d="M9904 15108 c-9 -29 -8 -95 6 -428 15 -326 15 -2557 0 -2930 -13
-339 -13 -2333 0 -2425 13 -87 45 -153 88 -182 47 -31 173 -58 272 -58 99 0
225 27 272 58 43 29 75 95 88 182 13 92 13 2086 0 2425 -15 374 -15 2605 0
2930 14 333 15 399 6 428 -4 12 -12 20 -17 16 -6 -3 -76 -5 -157 -3 -81 1
-167 2 -192 2 -25 0 -111 -1 -192 -2 -81 -2 -151 0 -157 3 -5 4 -13 -4 -17
-16z m672 -51 c2 -2 -1 -81 -6 -177 -10 -193 -26 -1005 -23 -1140 1 -47 4
-429 7 -850 2 -421 10 -997 17 -1280 12 -524 7 -1161 -10 -1324 -7 -61 -16
-98 -29 -115 -18 -24 -25 -26 -96 -26 -42 0 -76 3 -76 6 0 3 -40 6 -90 6 -49
0 -90 -3 -90 -6 0 -3 -34 -6 -76 -6 -71 0 -78 2 -96 26 -13 17 -22 54 -29 115
-17 163 -22 800 -10 1324 7 283 15 859 17 1280 3 421 6 803 7 850 5 195 -16
1078 -29 1247 l-6 72 84 4 c85 5 529 -1 534 -6z m-306 -4978 c223 0 266 3 287
16 l24 16 -3 -398 c-3 -383 -4 -400 -25 -445 -26 -56 -48 -72 -133 -94 -119
-31 -317 -15 -388 32 -13 9 -34 37 -45 62 -21 45 -22 62 -25 445 l-3 398 24
-16 c21 -13 64 -16 287 -16z M10205 14935 c-33 -13 -70 -36 -82 -50 -36 -41
-55 -120 -61 -244 -4 -101 -2 -116 15 -140 11 -14 23 -36 27 -48 7 -23 120
-73 166 -73 46 0 159 50 166 73 4 12 15 33 25 46 40 51 17 297 -35 376 -16 24
-86 63 -141 79 -11 3 -47 -6 -80 -19z M10195 14062 c-95 -65 -109 -96 -109
-227 0 -201 56 -285 189 -281 128 4 179 84 179 281 0 131 -14 162 -109 227
-38 26 -72 48 -75 48 -3 0 -37 -22 -75 -48z M10180 13066 c-55 -40 -60 -46
-90 -121 -22 -52 -25 -74 -24 -173 1 -100 4 -116 25 -146 13 -19 45 -46 71
-60 96 -52 230 -24 287 60 21 30 24 46 25 146 1 99 -2 121 -24 173 -29 71 -42
88 -97 126 -59 41 -113 40 -173 -5z M10203 12141 c-40 -25 -107 -114 -123
-164 -20 -64 -16 -202 8 -277 52 -156 84 -190 182 -190 98 0 130 34 182 190
24 75 28 213 8 277 -16 50 -83 139 -123 164 -18 10 -48 19 -67 19 -19 0 -49
-9 -67 -19z M10194 11087 c-33 -17 -85 -71 -104 -107 -13 -25 -20 -70 -25
-155 -6 -105 -5 -127 13 -180 11 -33 23 -72 26 -86 9 -40 68 -94 120 -109 38
-10 54 -10 92 0 52 15 111 69 120 109 3 14 15 53 26 86 18 53 19 75 13 180 -8
137 -21 171 -84 228 -23 20 -44 38 -49 38 -37 7 -133 4 -148 -4z"/>
</g>
</svg>
