<?xml version="1.0" standalone="no"?>
<!DOCTYPE svg PUBLIC "-//W3C//DTD SVG 20010904//EN"
 "http://www.w3.org/TR/2001/REC-SVG-20010904/DTD/svg10.dtd">
<svg version="1.0" xmlns="http://www.w3.org/2000/svg"
 width="2048.000000pt" height="2048.000000pt" viewBox="0 0 2048.000000 2048.000000"
 preserveAspectRatio="xMidYMid meet">
<metadata>
Created by potrace 1.16, written by Peter Selinger 2001-2019
</metadata>
<g transform="translate(0.000000,2048.000000) scale(0.100000,-0.100000)"
fill="#000000" stroke="none">
<path d="M9904 15108 c-9 -29 -9 -89 6 -428 8 -169 12 -596 12 -1105 -1 -566
2 -839 9 -857 21 -51 62 -58 339 -58 277 0 318 7 339 58 7 18 10 291 9 857 0
509 4 936 12 1105 15 339 15 399 6 428 -4 12 -12 20 -17 16 -6 -3 -76 -5 -157
-3 -81 1 -167 2 -192 2 -25 0 -111 -1 -192 -2 -81 -2 -151 0 -157 3 -5 4 -13
-4 -17 -16z m672 -51 c2 -2 -1 -81 -6 -177 -20 -389 -30 -1495 -14 -1551 4
-14 -8 -18 -70 -24 -41 -3 -138 -7 -216 -7 -78 0 -175 4 -216 7 -63 6 -74 10
-70 24 19 58 2 1404 -20 1663 l-6 67 84 4 c85 5 529 -1 534 -6z m-153 -1826
l127 -1 0 -239 c0 -210 -2 -240 -17 -252 -13 -11 -68 -14 -263 -14 -195 0
-250 3 -263 14 -15 12 -17 42 -17 252 l0 238 133 3 c72 2 141 2 152 1 11 -1
77 -2 148 -2z M10205 14935 c-33 -13 -70 -36 -82 -50 -36 -41 -55 -120 -61
-244 -4 -101 -2 -116 15 -140 11 -14 23 -36 27 -48 7 -23 120 -73 166 -73 46
0 159 50 166 73 4 12 15 33 25 46 40 51 17 297 -35 376 -16 24 -86 63 -141 79
-11 3 -47 -6 -80 -19z M10195 14062 c-95 -65 -109 -96 -109 -227 0 -201 56
-285 189 -281 128 4 179 84 179 281 0 131 -14 162 -109 227 -38 26 -72 48 -75
48 -3 0 -37 -22 -75 -48z"/>
</g>
</svg>
