<?xml version="1.0" standalone="no"?>
<!DOCTYPE svg PUBLIC "-//W3C//DTD SVG 20010904//EN"
 "http://www.w3.org/TR/2001/REC-SVG-20010904/DTD/svg10.dtd">
<svg version="1.0" xmlns="http://www.w3.org/2000/svg"
 width="2048.000000pt" height="2048.000000pt" viewBox="0 0 2048.000000 2048.000000"
 preserveAspectRatio="xMidYMid meet">
<metadata>
Created by potrace 1.16, written by Peter Selinger 2001-2019
</metadata>
<g transform="translate(0.000000,2048.000000) scale(0.100000,-0.100000)"
fill="#000000" stroke="none">
<path d="M9786 14744 c-7 -64 -5 -1265 4 -2364 5 -551 11 -788 19 -818 14 -51
76 -123 126 -147 82 -38 528 -38 610 0 50 24 112 96 126 147 8 30 14 267 19
818 9 1082 10 2326 1 2380 l-7 45 -23 -35 -22 -35 2 -625 c4 -892 -11 -2466
-23 -2515 -14 -57 -73 -110 -138 -124 -66 -14 -414 -14 -480 0 -65 14 -124 67
-138 124 -12 50 -27 1648 -23 2511 3 556 2 623 -13 651 -25 49 -33 47 -40 -13z
M10139 14544 c-150 -46 -254 -261 -220 -454 35 -193 168 -330 321 -330 200 0
359 235 322 478 -37 238 -218 370 -423 306z m214 -67 c18 -8 48 -32 68 -54
137 -152 91 -458 -84 -567 -164 -101 -357 79 -357 335 0 129 61 248 145 285
40 17 187 18 228 1z M10170 14251 c-44 -20 -51 -52 -16 -75 29 -19 32 -42 11
-70 -24 -31 -19 -66 8 -66 13 0 32 6 42 14 15 11 22 11 44 0 36 -19 47 -17 65
7 16 23 8 59 -20 90 -12 13 -11 20 6 54 15 29 17 42 9 52 -15 17 -34 17 -49
-2 -10 -12 -16 -13 -39 -1 -22 12 -31 12 -61 -3z M10153 12962 c-149 -53 -231
-194 -221 -380 7 -112 36 -187 101 -259 74 -80 127 -108 207 -108 80 0 133 28
207 109 73 80 98 152 98 286 -1 85 -5 116 -23 161 -62 156 -228 241 -369 191z
m198 -80 c60 -31 111 -96 130 -165 18 -69 7 -193 -24 -257 -44 -92 -150 -180
-217 -180 -67 0 -173 88 -217 180 -31 64 -42 188 -24 257 31 114 130 193 241
193 44 0 71 -7 111 -28z M10276 12710 c-35 -17 -41 -18 -66 -5 -22 11 -30 12
-38 2 -19 -24 -21 -53 -6 -81 12 -24 12 -36 4 -57 -16 -37 -9 -83 12 -87 10
-2 28 8 41 21 22 25 23 25 46 6 58 -47 90 1 52 78 l-21 44 21 28 c21 29 23 61
4 68 -6 2 -28 -6 -49 -17z"/>
</g>
</svg>
