<?xml version="1.0" standalone="no"?>
<!DOCTYPE svg PUBLIC "-//W3C//DTD SVG 20010904//EN"
 "http://www.w3.org/TR/2001/REC-SVG-20010904/DTD/svg10.dtd">
<svg version="1.0" xmlns="http://www.w3.org/2000/svg"
 width="2048.000000pt" height="2048.000000pt" viewBox="0 0 2048.000000 2048.000000"
 preserveAspectRatio="xMidYMid meet">
<metadata>
Created by potrace 1.16, written by Peter Selinger 2001-2019
</metadata>
<g transform="translate(0.000000,2048.000000) scale(0.100000,-0.100000)"
fill="#000000" stroke="none">
<path d="M9904 15108 c-9 -29 -8 -95 7 -428 7 -175 11 -691 10 -1515 0 -687 3
-1312 8 -1387 13 -219 13 -219 341 -219 328 0 328 0 341 219 5 75 8 700 8
1387 -1 824 3 1340 10 1515 15 333 16 399 7 428 -4 12 -12 20 -17 16 -6 -3
-76 -5 -157 -3 -81 1 -167 2 -192 2 -25 0 -111 -1 -192 -2 -81 -2 -151 0 -157
3 -5 4 -13 -4 -17 -16z m672 -51 c2 -2 -1 -81 -6 -177 -9 -184 -26 -994 -23
-1140 0 -47 4 -406 8 -799 8 -699 7 -714 -11 -706 -50 22 -495 26 -534 5 -10
-6 -22 -10 -26 -10 -5 0 1 1044 9 1510 4 214 -16 1083 -29 1247 l-6 72 84 4
c85 5 529 -1 534 -6z m-21 -3112 c-4 -137 -11 -260 -16 -272 -16 -43 -41 -47
-269 -47 -228 0 -253 4 -269 47 -5 12 -12 135 -16 272 l-7 250 292 0 292 0 -7
-250z M10205 14935 c-33 -13 -70 -36 -82 -50 -36 -41 -55 -120 -61 -244 -4
-101 -2 -116 15 -140 11 -14 23 -36 27 -48 7 -23 120 -73 166 -73 46 0 159 50
166 73 4 12 15 33 25 46 40 51 17 297 -35 376 -16 24 -86 63 -141 79 -11 3
-47 -6 -80 -19z M10195 14062 c-95 -65 -109 -96 -109 -227 0 -201 56 -285 189
-281 128 4 179 84 179 281 0 131 -14 162 -109 227 -38 26 -72 48 -75 48 -3 0
-37 -22 -75 -48z M10180 13066 c-55 -40 -60 -46 -90 -121 -22 -52 -25 -74 -24
-173 1 -100 4 -116 25 -146 13 -19 45 -46 71 -60 96 -52 230 -24 287 60 21 30
24 46 25 146 1 99 -2 121 -24 173 -29 71 -42 88 -97 126 -59 41 -113 40 -173
-5z"/>
</g>
</svg>
