<?xml version="1.0" standalone="no"?>
<!DOCTYPE svg PUBLIC "-//W3C//DTD SVG 20010904//EN"
 "http://www.w3.org/TR/2001/REC-SVG-20010904/DTD/svg10.dtd">
<svg version="1.0" xmlns="http://www.w3.org/2000/svg"
 width="2048.000000pt" height="2048.000000pt" viewBox="0 0 2048.000000 2048.000000"
 preserveAspectRatio="xMidYMid meet">
<metadata>
Created by potrace 1.16, written by Peter Selinger 2001-2019
</metadata>
<g transform="translate(0.000000,2048.000000) scale(0.100000,-0.100000)"
fill="#000000" stroke="none">
<path d="M4677 933 c3 -274 8 -500 10 -503 2 -2 25 -10 51 -16 34 -9 105 -10
257 -5 149 6 212 5 217 -3 5 -8 14 -7 29 2 16 10 155 15 642 20 812 8 752 8
1427 0 322 -4 889 -10 1260 -13 805 -7 1393 -21 1510 -36 108 -14 212 -14 320
0 117 15 705 29 1510 36 371 3 938 9 1260 13 675 8 615 8 1427 0 487 -5 626
-10 642 -20 15 -9 24 -10 29 -2 5 8 68 9 217 3 158 -5 223 -4 260 6 l50 12 7
499 c4 274 5 501 2 504 -3 3 -14 -5 -23 -17 -15 -18 -19 -54 -24 -264 -4 -133
-7 -348 -7 -476 0 -218 -1 -234 -17 -231 -20 4 -22 57 -14 606 3 214 1 296 -7
304 -8 8 -15 9 -22 2 -5 -5 -12 -196 -16 -457 l-7 -447 -29 0 -28 0 0 448 c0
360 -3 452 -13 467 -34 46 -37 13 -37 -456 l0 -459 -25 0 -25 0 -2 468 c-3
407 -5 467 -18 467 -13 0 -15 -60 -18 -468 l-2 -468 -23 7 c-12 3 -24 8 -26
10 -2 2 -9 195 -16 430 -8 262 -17 430 -23 436 -6 6 -18 8 -28 4 -15 -6 -16
-20 -11 -139 4 -72 9 -258 12 -412 4 -154 8 -290 11 -303 4 -20 1 -22 -46 -22
l-50 0 0 450 c1 248 -2 455 -5 460 -3 6 -13 10 -21 10 -12 0 -14 -66 -14 -461
l0 -460 -32 3 -33 3 -3 433 c-2 424 -3 432 -22 432 -20 0 -20 -7 -20 -430 l0
-430 -40 0 -40 0 -2 438 c-3 429 -3 437 -23 437 -20 0 -20 -5 -16 -437 l4
-438 -53 0 -52 0 7 435 c7 402 6 435 -9 441 -9 4 -20 4 -23 0 -5 -5 -19 -511
-22 -813 l-1 -63 -41 0 -42 0 7 173 c5 150 10 621 7 670 -1 9 -9 17 -19 17
-17 0 -19 -14 -25 -187 -4 -104 -7 -297 -7 -430 l0 -243 -50 0 -50 0 6 403 c3
255 2 407 -4 416 -6 8 -17 11 -26 8 -14 -6 -16 -50 -16 -417 l0 -410 -42 0
-43 0 0 427 c0 421 0 428 -20 428 -20 0 -20 -8 -23 -427 l-2 -428 -38 0 c-68
0 -65 -22 -57 396 7 351 6 381 -9 394 -15 12 -19 12 -27 -1 -7 -12 -17 -639
-11 -746 1 -33 1 -33 -43 -33 l-45 0 0 409 c0 342 -2 410 -14 414 -8 3 -17 3
-20 0 -3 -4 -6 -190 -6 -415 l0 -408 -40 0 -40 0 0 374 c0 246 4 376 10 378
16 5 -12 58 -31 58 -14 0 -17 -27 -22 -202 -4 -112 -7 -294 -7 -405 l0 -203
-28 0 -28 0 -13 398 c-7 218 -16 401 -21 406 -5 5 -15 6 -23 3 -12 -5 -14 -21
-11 -84 6 -106 24 -622 24 -678 l0 -45 -43 0 -44 0 -6 153 c-4 83 -10 254 -13
380 -7 227 -16 279 -43 252 -10 -10 -4 -317 13 -678 l6 -107 -50 0 -50 0 0
405 c0 398 0 405 -20 405 -20 0 -20 -7 -20 -405 l0 -405 -34 0 c-34 0 -35 0
-40 53 -3 28 -8 205 -12 392 -3 212 -10 345 -16 353 -18 21 -39 -6 -34 -42 3
-17 8 -194 11 -393 l7 -363 -51 0 -51 0 -1 183 c-1 100 -4 272 -8 382 -6 191
-7 200 -26 200 -15 0 -20 -6 -19 -25 1 -14 4 -188 8 -387 l8 -363 -40 0 -39 0
-5 371 c-4 300 -7 372 -18 379 -8 5 -18 6 -22 4 -9 -6 -9 -314 1 -577 6 -177
6 -177 -16 -177 -20 0 -22 6 -25 78 -2 42 -5 212 -6 376 -2 165 -5 303 -8 308
-3 4 -12 8 -20 8 -12 0 -14 -56 -14 -385 l0 -385 -40 0 -40 0 0 374 c0 312 -2
375 -14 379 -8 3 -17 3 -20 0 -3 -4 -6 -174 -6 -380 l0 -373 -32 0 -33 0 3
365 c3 327 1 366 -13 371 -9 4 -18 4 -21 2 -2 -3 -7 -170 -11 -372 l-6 -366
-33 0 -34 0 -2 368 c-3 318 -5 367 -18 367 -13 0 -15 -49 -18 -367 l-2 -368
-38 0 -38 0 0 363 c1 356 1 362 -19 362 -20 0 -20 -8 -23 -362 l-2 -363 -35 0
-35 0 -1 313 c-1 370 -6 430 -33 435 -19 4 -19 -5 -13 -372 l6 -376 -33 0 -33
0 -6 167 c-4 91 -7 255 -7 363 0 149 -3 201 -13 215 -9 11 -19 15 -27 10 -10
-6 -12 -41 -6 -159 3 -83 6 -252 7 -376 l1 -225 -39 -2 -38 -3 8 382 c6 304 5
383 -5 389 -7 5 -17 4 -23 -2 -8 -8 -19 -302 -24 -696 l-1 -73 -28 0 -29 0 5
365 c5 358 4 365 -15 365 -19 0 -20 -10 -26 -262 -4 -145 -7 -309 -7 -365 l0
-103 -30 0 -31 0 6 208 c3 114 7 281 10 372 5 165 0 198 -28 187 -12 -5 -16
-58 -22 -339 -4 -183 -6 -355 -4 -381 4 -45 3 -47 -22 -47 l-26 0 -5 360 c-3
259 -8 364 -16 372 -29 29 -33 -11 -30 -370 l3 -362 -32 0 -33 0 -1 323 c-1
177 -2 336 -3 352 -2 17 -4 38 -4 48 -1 10 -10 17 -22 17 -20 0 -20 -7 -20
-370 l0 -370 -35 0 -34 0 2 367 c2 332 0 368 -14 371 -10 2 -19 -6 -23 -20 -3
-13 -6 -179 -6 -370 l0 -348 -30 0 -30 0 0 293 c0 160 -3 322 -7 360 -5 58 -8
67 -26 67 -20 0 -20 -5 -15 -360 l6 -360 -39 0 -39 0 0 370 0 371 -22 8 c-31
12 -46 -3 -30 -29 9 -15 12 -111 12 -370 l0 -350 -35 0 -35 0 -1 273 c-1 348
-8 451 -30 455 -9 2 -18 -3 -20 -10 -2 -7 -2 -170 1 -363 3 -192 5 -351 5
-351 0 -1 -15 -5 -32 -9 l-33 -7 0 371 c0 364 0 371 -20 371 -20 0 -20 -7 -20
-370 l0 -370 -30 0 -30 0 -2 363 c-3 354 -3 362 -23 362 -20 0 -20 -8 -23
-362 l-2 -363 -29 0 -28 0 4 93 c13 311 21 631 16 643 -3 8 -13 14 -22 12 -14
-3 -17 -33 -23 -233 -4 -127 -10 -294 -14 -373 l-6 -142 -25 0 -25 0 6 118 c3
64 7 236 8 382 3 240 1 265 -14 268 -13 3 -17 -9 -22 -70 -5 -68 -16 -497 -16
-635 l0 -63 -31 0 -31 0 7 375 c7 346 7 375 -9 381 -9 4 -20 4 -23 1 -3 -4 -8
-175 -11 -382 l-5 -375 -25 0 -24 0 3 382 c4 345 2 383 -12 386 -25 5 -29 -55
-29 -429 0 -199 -4 -339 -9 -339 -5 0 -16 -3 -25 -6 -14 -5 -16 33 -18 372 -3
371 -3 379 -23 379 -20 0 -20 -5 -16 -377 l4 -378 -27 0 -26 0 0 385 c0 338
-2 386 -15 392 -9 3 -18 3 -21 0 -3 -3 -6 -179 -7 -391 l-2 -386 -21 0 c-21 0
-22 3 -28 268 -4 147 -10 319 -14 382 -6 101 -9 115 -26 118 -18 4 -18 -4 -12
-235 3 -131 9 -304 12 -385 l7 -148 -32 0 -31 0 0 380 c0 334 -2 381 -15 387
-9 3 -19 3 -22 -1 -4 -3 -8 -174 -10 -379 -3 -204 -6 -378 -8 -385 -3 -6 -9
-12 -15 -12 -7 0 -10 127 -10 384 0 337 -2 385 -16 397 -13 10 -17 10 -25 -2
-5 -8 -9 -185 -9 -396 l0 -383 -21 0 -21 0 3 398 c3 313 1 397 -8 396 -7 -1
-17 -2 -23 -2 -6 -1 -10 -141 -10 -397 0 -344 -2 -395 -15 -395 -13 0 -15 49
-15 384 0 211 -3 391 -6 400 -7 19 -64 22 -95 6 -18 -10 -19 -23 -19 -188 0
-97 -3 -275 -7 -395 -5 -194 -8 -217 -23 -217 -15 0 -18 23 -23 217 -4 120 -7
298 -7 395 0 165 -1 178 -19 188 -31 16 -88 13 -95 -6 -3 -9 -6 -189 -6 -400
0 -335 -2 -384 -15 -384 -13 0 -15 51 -15 395 0 256 -4 396 -10 397 -5 0 -16
1 -22 2 -10 1 -12 -83 -9 -396 l3 -398 -21 0 -21 0 0 383 c0 211 -4 388 -9
396 -8 12 -12 12 -25 2 -14 -12 -16 -60 -16 -397 0 -257 -3 -384 -10 -384 -6
0 -12 6 -15 13 -2 6 -5 180 -8 384 -2 205 -6 376 -10 379 -3 4 -13 4 -22 1
-13 -6 -15 -53 -15 -387 l0 -380 -31 0 -32 0 7 148 c3 81 9 254 12 385 6 231
6 239 -12 235 -17 -3 -20 -17 -26 -118 -4 -63 -10 -235 -14 -382 -6 -265 -7
-268 -28 -268 l-21 0 -2 386 c-1 212 -4 388 -7 391 -3 3 -12 3 -21 0 -13 -6
-15 -54 -15 -392 l0 -385 -26 0 -27 0 4 378 c4 372 4 377 -16 377 -20 0 -20
-8 -23 -379 -2 -339 -4 -377 -18 -372 -9 3 -20 6 -25 6 -5 0 -9 140 -9 339 0
374 -4 434 -29 429 -14 -3 -16 -41 -12 -386 l3 -382 -24 0 -25 0 -5 375 c-3
207 -8 378 -11 382 -3 3 -14 3 -23 -1 -16 -6 -16 -35 -9 -381 l7 -375 -31 0
-31 0 0 63 c0 138 -11 567 -16 635 -5 61 -9 73 -22 70 -15 -3 -17 -28 -14
-268 1 -146 5 -318 8 -383 l6 -117 -25 0 -25 0 -6 143 c-4 78 -10 245 -14 372
-6 200 -9 230 -23 233 -9 2 -19 -4 -22 -12 -5 -12 3 -332 16 -643 l4 -93 -28
0 -29 0 -2 363 c-3 354 -3 362 -23 362 -20 0 -20 -8 -23 -362 l-2 -363 -30 0
-30 0 0 370 c0 363 0 370 -20 370 -20 0 -20 -7 -20 -371 l0 -371 -32 7 c-18 4
-33 8 -33 9 0 0 2 159 5 351 3 193 3 356 1 363 -2 7 -11 12 -20 10 -22 -4 -29
-107 -30 -455 l-1 -273 -35 0 -35 0 0 350 c0 259 3 355 12 370 16 26 1 41 -29
29 l-23 -8 0 -371 0 -370 -39 0 -39 0 6 360 c5 355 5 360 -15 360 -18 0 -21
-9 -26 -67 -4 -38 -7 -200 -7 -360 l0 -293 -30 0 -30 0 0 348 c0 191 -3 357
-6 370 -4 14 -13 22 -23 20 -14 -3 -16 -39 -14 -371 l2 -367 -34 0 -35 0 0
370 c0 363 0 370 -20 370 -12 0 -21 -7 -22 -17 0 -10 -2 -31 -4 -48 -1 -16 -2
-175 -3 -352 l-1 -323 -32 0 -33 0 3 362 c3 359 -1 399 -30 370 -8 -8 -13
-113 -16 -372 l-5 -360 -26 0 c-25 0 -26 2 -22 47 2 26 0 198 -4 381 -6 281
-10 334 -22 339 -28 11 -33 -22 -28 -187 3 -91 7 -258 10 -372 l6 -208 -31 0
-30 0 0 108 c0 60 -3 224 -7 365 -6 247 -7 257 -26 257 -19 0 -20 -7 -15 -365
l5 -365 -29 0 -28 0 -1 73 c-5 394 -16 688 -24 696 -6 6 -16 7 -23 2 -10 -6
-11 -85 -5 -389 l8 -382 -38 3 -39 2 1 225 c1 124 4 293 7 376 6 118 4 153 -6
159 -8 5 -18 1 -27 -10 -10 -14 -13 -66 -13 -215 0 -108 -3 -272 -7 -363 l-6
-167 -33 0 -33 0 6 376 c6 367 6 376 -13 372 -27 -5 -32 -65 -33 -435 l-1
-313 -35 0 -35 0 -2 363 c-3 354 -3 362 -23 362 -20 0 -20 -6 -19 -362 l0
-363 -38 0 -38 0 -2 368 c-3 318 -5 367 -18 367 -13 0 -15 -49 -18 -367 l-2
-368 -34 0 -33 0 -6 366 c-4 202 -9 369 -11 372 -3 2 -12 2 -21 -2 -14 -5 -16
-44 -13 -371 l3 -365 -32 0 -33 0 0 373 c0 206 -3 376 -6 380 -3 3 -12 3 -20
0 -12 -4 -14 -67 -14 -379 l0 -374 -40 0 -40 0 0 385 c0 329 -2 385 -14 385
-8 0 -17 -4 -20 -8 -3 -5 -6 -143 -8 -308 -1 -164 -4 -334 -6 -376 -3 -72 -5
-78 -25 -78 -22 0 -22 0 -16 177 10 263 10 571 1 577 -4 2 -14 1 -22 -4 -11
-7 -14 -79 -18 -379 l-5 -371 -39 0 -40 0 8 363 c4 199 7 373 8 387 1 19 -4
25 -19 25 -19 0 -20 -9 -26 -200 -4 -110 -7 -282 -8 -382 l-1 -183 -51 0 -51
0 7 363 c3 199 8 376 11 393 5 36 -16 63 -34 42 -6 -8 -13 -141 -16 -353 -4
-187 -9 -364 -12 -393 -5 -52 -6 -52 -40 -52 l-34 0 0 405 c0 398 0 405 -20
405 -20 0 -20 -7 -20 -405 l0 -405 -50 0 -50 0 6 108 c17 360 23 667 13 677
-27 27 -36 -25 -43 -252 -3 -126 -9 -297 -13 -381 l-6 -152 -44 0 -43 0 0 45
c0 56 18 572 24 678 3 63 1 79 -11 84 -8 3 -18 2 -23 -3 -5 -5 -14 -188 -21
-406 l-13 -398 -28 0 -28 0 0 203 c0 111 -3 293 -7 405 -5 175 -8 202 -22 202
-19 0 -47 -53 -31 -58 6 -2 10 -132 10 -378 l0 -374 -40 0 -40 0 0 408 c0 225
-3 411 -6 415 -3 3 -12 3 -20 0 -12 -4 -14 -72 -14 -414 l0 -409 -45 0 c-44 0
-44 0 -43 33 6 107 -4 734 -11 746 -8 13 -12 13 -27 1 -15 -13 -16 -43 -9
-394 8 -418 11 -396 -57 -396 l-38 0 -2 428 c-3 419 -3 427 -23 427 -20 0 -20
-7 -20 -428 l0 -427 -42 0 -43 0 0 410 c0 367 -2 411 -16 417 -9 3 -20 0 -26
-8 -6 -9 -7 -161 -4 -416 l6 -403 -50 0 -50 0 0 243 c0 133 -3 326 -7 430 -6
173 -8 187 -25 187 -10 0 -18 -8 -19 -17 -3 -49 2 -520 7 -670 l7 -173 -42 0
-41 0 -1 63 c-3 302 -17 808 -22 813 -3 4 -14 4 -23 0 -15 -6 -16 -39 -9 -441
l7 -435 -52 0 -53 0 4 438 c4 432 4 437 -16 437 -20 0 -20 -8 -23 -437 l-2
-438 -40 0 -40 0 0 430 c0 423 0 430 -20 430 -19 0 -20 -8 -22 -432 l-3 -433
-32 -3 -33 -3 0 460 c0 395 -2 461 -14 461 -8 0 -18 -4 -21 -10 -3 -5 -6 -212
-5 -460 l0 -450 -50 0 c-47 0 -50 2 -46 22 3 13 7 149 11 303 3 154 8 340 12
412 5 119 4 133 -11 139 -10 4 -22 2 -28 -4 -6 -6 -15 -174 -23 -436 -7 -235
-14 -428 -16 -430 -2 -2 -14 -7 -26 -10 l-23 -7 -2 468 c-3 408 -5 468 -18
468 -13 0 -15 -60 -18 -467 l-2 -468 -25 0 -25 0 0 459 c0 469 -3 502 -37 456
-10 -15 -13 -107 -13 -467 l0 -448 -28 0 -29 0 -7 447 c-4 261 -11 452 -16
457 -7 7 -14 6 -22 -2 -8 -8 -10 -90 -7 -304 7 -536 6 -602 -12 -606 -14 -3
-16 46 -22 469 -6 399 -9 476 -22 496 -9 13 -20 23 -25 23 -6 0 -7 -192 -3
-497z m5491 -35 c1 -172 5 -352 8 -400 7 -91 2 -102 -34 -80 -17 12 -5 792 13
792 8 0 12 -87 13 -312z m176 -80 c7 -407 7 -407 -33 -408 -11 0 -12 17 -7 88
3 48 7 228 8 400 1 225 5 312 13 312 9 0 14 -109 19 -392z"/>
</g>
</svg>
