<?xml version="1.0" standalone="no"?>
<!DOCTYPE svg PUBLIC "-//W3C//DTD SVG 20010904//EN"
 "http://www.w3.org/TR/2001/REC-SVG-20010904/DTD/svg10.dtd">
<svg version="1.0" xmlns="http://www.w3.org/2000/svg"
 width="2048.000000pt" height="2048.000000pt" viewBox="0 0 2048.000000 2048.000000"
 preserveAspectRatio="xMidYMid meet">
<metadata>
Created by potrace 1.16, written by Peter Selinger 2001-2019
</metadata>
<g transform="translate(0.000000,2048.000000) scale(0.100000,-0.100000)"
fill="#000000" stroke="none">
<path d="M4690 1106 c0 -302 0 -305 23 -330 l22 -24 715 -11 c2843 -44 3880
-61 4115 -66 346 -8 1004 -8 1350 0 235 5 1272 22 4115 66 l715 11 23 24 c22
25 22 28 22 330 0 297 0 304 -20 304 -20 0 -20 -7 -20 -310 l0 -310 -192 -1
c-106 0 -200 -2 -208 -3 -8 -2 -260 -6 -560 -10 -300 -3 -624 -8 -720 -11 -96
-3 -344 -7 -550 -10 -206 -3 -928 -15 -1605 -26 -1529 -25 -1821 -25 -3350 0
-676 11 -1399 23 -1605 26 -206 3 -454 7 -550 10 -96 3 -420 8 -720 11 -300 4
-552 8 -560 10 -8 1 -102 3 -207 3 l-193 1 0 310 c0 303 0 310 -20 310 -20 0
-20 -7 -20 -304z"/>
</g>
</svg>
