<?xml version="1.0" standalone="no"?>
<!DOCTYPE svg PUBLIC "-//W3C//DTD SVG 20010904//EN"
 "http://www.w3.org/TR/2001/REC-SVG-20010904/DTD/svg10.dtd">
<svg version="1.0" xmlns="http://www.w3.org/2000/svg"
 width="2360.000000pt" height="1640.000000pt" viewBox="0 0 2360.000000 1640.000000"
 preserveAspectRatio="xMidYMid meet">
<metadata>
Created by potrace 1.16, written by Peter Selinger 2001-2019
</metadata>
<g transform="translate(0.000000,1640.000000) scale(0.100000,-0.100000)"
fill="#000000" stroke="none">
<path d="M11069 11667 c-81 -55 -122 -157 -124 -318 -2 -113 -3 -117 -38 -180
-65 -116 -95 -234 -98 -386 -1 -96 -24 -253 -69 -493 -40 -207 -77 -474 -90
-645 -6 -77 -17 -189 -25 -250 -8 -60 -17 -153 -20 -205 -11 -178 -26 -285
-55 -411 -63 -268 -72 -344 -68 -627 3 -238 5 -260 25 -304 27 -59 49 -71 119
-62 75 9 113 37 149 109 l30 60 6 335 c4 201 11 349 18 370 6 19 16 67 22 105
5 39 16 102 24 140 29 149 38 227 45 435 5 149 11 227 22 255 8 22 20 67 27
100 7 33 17 76 23 95 5 19 14 150 18 290 6 210 11 267 28 325 36 123 50 187
72 315 12 69 30 152 40 185 10 33 22 76 25 95 4 19 21 55 38 79 17 25 34 65
39 90 4 26 17 80 28 121 68 238 -65 476 -211 377z m97 -54 c14 -9 34 -33 44
-53 24 -47 41 -150 31 -187 -7 -27 -8 -26 -19 19 -11 43 -15 47 -59 62 -61 21
-80 20 -88 -4 -3 -11 -22 -39 -42 -62 l-36 -43 5 70 c6 80 34 153 74 190 31
29 55 31 90 8z m-11 -227 c0 0 6 -17 14 -36 7 -19 18 -56 24 -82 10 -43 9 -51
-10 -75 -11 -16 -32 -35 -46 -43 -24 -13 -30 -13 -54 0 -16 9 -38 34 -51 57
l-23 42 22 43 c25 51 58 89 70 82 5 -3 9 2 9 11 0 12 6 15 23 9 12 -3 22 -7
22 -8z m-119 -285 c23 -18 38 -22 70 -18 l40 4 -14 -42 c-20 -61 -66 -85 -166
-85 -67 0 -76 2 -76 18 0 28 37 129 61 169 l21 34 18 -29 c10 -16 31 -39 46
-51z m49 -237 c-8 -32 -20 -61 -25 -62 -6 -2 -23 -14 -38 -26 -38 -32 -67 -46
-96 -46 -52 0 -56 7 -56 90 l0 78 31 6 c17 3 61 6 98 6 36 0 73 4 81 10 8 5
16 8 17 6 2 -2 -3 -30 -12 -62z m-44 -207 c-14 -63 -21 -77 -56 -108 -22 -20
-60 -44 -85 -53 -25 -10 -51 -21 -59 -24 -14 -5 -14 -4 11 146 l10 62 52 0
c35 0 66 8 96 24 25 13 45 24 46 25 0 0 -7 -32 -15 -72z m-45 -199 c-8 -18
-19 -73 -26 -123 -10 -73 -18 -95 -39 -118 -28 -31 -148 -94 -158 -84 -6 6 10
101 38 232 11 51 11 51 70 70 33 10 72 26 87 36 39 25 43 23 28 -13z m-36
-403 c0 -90 -3 -115 -13 -115 -8 0 -39 -22 -69 -48 -48 -42 -142 -91 -153 -80
-4 4 20 188 31 241 3 15 12 27 20 27 24 0 116 41 149 66 17 13 31 23 33 24 1
0 2 -52 2 -115z m-23 -259 c-9 -33 -21 -90 -28 -125 -7 -35 -17 -67 -23 -73
-37 -31 -192 -125 -194 -117 -7 17 18 241 29 260 5 11 16 19 23 19 24 0 151
69 176 95 32 34 36 18 17 -59z m-95 -516 c-16 -22 -152 -99 -175 -100 -5 0 -6
17 -3 38 3 20 8 71 11 114 5 58 10 77 23 82 9 3 49 28 87 55 l70 49 3 -106 c2
-91 0 -110 -16 -132z m12 -142 c-9 -117 -24 -137 -172 -221 l-53 -30 5 34 c3
19 10 73 16 120 l12 86 46 17 c26 9 70 29 97 45 28 16 51 29 52 30 1 1 0 -36
-3 -81z m-47 -304 l-22 -101 -64 -53 c-50 -41 -73 -54 -107 -58 -52 -5 -51 -8
-24 103 29 114 29 115 49 115 10 0 56 24 102 53 46 29 85 50 86 47 1 -3 -8
-50 -20 -106z m-42 -281 l-7 -97 -42 -38 c-34 -30 -138 -78 -172 -78 -8 0 2
178 11 202 4 11 23 19 53 24 55 8 109 33 136 63 11 12 21 21 24 21 2 0 1 -44
-3 -97z m-36 -362 c-40 -41 -120 -81 -159 -81 l-31 0 3 86 3 86 79 28 c43 15
90 37 105 48 l26 19 3 -77 c3 -75 2 -79 -29 -109z m29 -134 c-6 -94 -37 -178
-71 -195 -12 -6 -41 -13 -65 -16 -43 -6 -43 -6 -62 36 -13 28 -20 65 -20 109
0 65 1 66 24 62 26 -5 157 49 177 73 6 8 14 14 17 14 2 0 2 -37 0 -83z M12399
11668 c-86 -57 -122 -228 -79 -378 11 -41 24 -95 28 -121 5 -25 22 -65 39 -90
17 -24 34 -60 38 -79 3 -19 15 -62 25 -95 10 -33 28 -116 40 -185 22 -128 36
-192 72 -315 17 -58 22 -115 28 -325 4 -140 13 -271 18 -290 6 -19 16 -62 23
-95 7 -33 19 -78 27 -100 11 -28 17 -106 22 -255 7 -208 16 -286 45 -435 8
-38 19 -101 24 -140 6 -38 16 -86 22 -105 7 -21 14 -169 18 -370 l6 -335 30
-60 c36 -72 74 -100 149 -109 70 -9 92 3 119 62 20 44 22 66 25 304 4 283 -5
359 -68 627 -29 126 -44 233 -55 411 -3 52 -12 145 -20 205 -8 61 -19 173 -25
250 -13 171 -50 438 -90 645 -45 240 -68 397 -69 493 -3 152 -33 270 -98 386
-35 63 -36 67 -38 180 -1 83 -7 130 -20 166 -53 147 -150 210 -236 153z m125
-63 c40 -37 68 -110 74 -190 l5 -70 -36 43 c-20 23 -39 51 -42 62 -8 24 -27
25 -88 4 -44 -15 -48 -19 -59 -62 -11 -45 -12 -46 -19 -19 -9 35 6 139 27 181
20 39 63 76 90 76 12 0 33 -11 48 -25z m-34 -221 c0 -8 4 -13 9 -10 12 7 45
-31 70 -82 l22 -43 -23 -42 c-13 -23 -35 -48 -50 -57 -25 -13 -31 -13 -55 0
-14 8 -35 27 -46 43 -19 24 -20 32 -10 75 19 78 37 121 53 126 27 7 30 6 30
-10z m191 -304 c11 -30 23 -70 26 -87 l6 -33 -78 0 c-101 0 -147 24 -167 85
l-14 42 41 -5 c36 -4 47 0 78 27 20 18 39 42 43 53 6 21 7 21 25 -3 10 -13 28
-49 40 -79z m-78 -170 c36 0 79 -3 96 -6 l31 -6 0 -78 c0 -83 -4 -90 -56 -90
-29 0 -58 14 -96 46 -15 12 -32 24 -38 26 -8 2 -40 102 -40 124 0 3 9 0 19 -6
11 -5 49 -10 84 -10z m83 -230 l52 0 10 -62 c25 -150 25 -151 11 -146 -8 3
-34 14 -59 24 -25 9 -63 33 -85 53 -34 30 -42 45 -55 106 l-16 70 45 -22 c29
-15 62 -23 97 -23z m-54 -209 c18 -10 58 -27 88 -37 30 -10 56 -19 57 -19 7
-2 55 -276 50 -281 -10 -11 -130 52 -158 83 -21 23 -29 45 -39 118 -7 50 -18
105 -26 123 -15 38 -15 38 28 13z m125 -369 c28 -12 58 -22 67 -22 8 0 17 -12
20 -27 11 -53 35 -237 31 -241 -11 -11 -105 38 -153 80 -30 26 -61 48 -69 48
-10 0 -13 25 -13 116 l0 115 33 -24 c17 -13 55 -33 84 -45z m27 -313 c34 -16
66 -29 73 -29 7 0 17 -8 22 -19 11 -19 36 -243 29 -260 -2 -8 -157 86 -194
117 -6 6 -16 38 -23 73 -7 35 -19 89 -27 120 -23 89 -20 96 23 59 20 -18 64
-45 97 -61z m77 -351 c20 -15 42 -28 48 -28 6 0 11 -8 11 -17 0 -10 5 -61 10
-113 5 -52 7 -96 5 -98 -8 -9 -156 71 -174 95 -18 22 -21 40 -21 134 l0 109
43 -27 c23 -15 58 -40 78 -55z m65 -308 c7 0 17 -35 23 -87 7 -49 14 -103 17
-122 l5 -34 -53 30 c-147 84 -163 104 -171 218 l-6 80 87 -42 c48 -24 92 -43
98 -43z m35 -290 c20 0 20 -1 49 -115 27 -111 28 -108 -24 -103 -34 4 -57 17
-107 58 l-64 53 -22 101 c-12 56 -22 104 -23 108 0 4 39 -18 87 -48 47 -30 94
-54 104 -54z m-46 -253 c17 -8 51 -17 77 -21 30 -5 49 -13 53 -24 9 -24 19
-202 11 -202 -34 0 -138 48 -172 78 l-42 38 -7 99 -7 100 28 -26 c16 -15 43
-33 59 -42z m61 -277 l79 -28 3 -86 3 -86 -31 0 c-39 0 -119 40 -159 80 -30
30 -31 35 -31 111 l0 80 29 -22 c16 -12 64 -34 107 -49z m-33 -231 c41 -19 77
-29 92 -26 25 4 25 3 25 -62 0 -44 -7 -81 -20 -109 -19 -42 -19 -42 -62 -36
-24 3 -53 10 -65 16 -35 17 -65 101 -71 198 -5 83 -4 85 14 68 11 -9 50 -31
87 -49z"/>
</g>
</svg>
