<?xml version="1.0" standalone="no"?>
<!DOCTYPE svg PUBLIC "-//W3C//DTD SVG 20010904//EN"
 "http://www.w3.org/TR/2001/REC-SVG-20010904/DTD/svg10.dtd">
<svg version="1.0" xmlns="http://www.w3.org/2000/svg"
 width="2360.000000pt" height="1640.000000pt" viewBox="0 0 2360.000000 1640.000000"
 preserveAspectRatio="xMidYMid meet">
<metadata>
Created by potrace 1.16, written by Peter Selinger 2001-2019
</metadata>
<g transform="translate(0.000000,1640.000000) scale(0.100000,-0.100000)"
fill="#000000" stroke="none">
<path d="M11273 11321 c-66 -42 -105 -134 -103 -244 1 -40 -6 -85 -20 -127
-110 -333 -132 -410 -141 -499 -5 -52 -20 -149 -33 -215 -14 -67 -30 -170 -36
-231 -13 -134 -24 -195 -55 -300 -30 -100 -43 -180 -56 -348 -5 -73 -18 -184
-29 -248 -24 -140 -25 -189 -4 -278 11 -50 14 -108 12 -212 -4 -141 -5 -148
-61 -344 -32 -110 -67 -249 -78 -310 -11 -60 -27 -139 -35 -175 -9 -36 -14
-86 -12 -110 l3 -45 70 -3 c39 -2 74 -7 79 -13 6 -5 27 -9 48 -9 46 0 62 21
78 100 7 30 23 88 36 128 14 42 24 91 23 116 -2 23 1 47 5 54 14 22 33 164 35
255 1 50 5 95 8 100 3 5 9 62 13 126 5 64 13 174 20 245 6 71 9 137 7 145 -3
9 -17 48 -32 86 -33 86 -34 139 -6 307 12 70 21 148 21 173 0 25 7 61 14 80
27 64 57 183 66 262 5 43 22 126 39 183 31 110 46 245 60 551 l6 147 40 58
c22 32 56 77 76 100 20 23 42 63 49 90 7 27 21 60 30 74 62 92 53 259 -18 323
-31 28 -82 31 -119 8z m74 -56 c21 -15 59 -112 48 -123 -3 -3 -13 3 -24 12
-16 15 -25 16 -59 6 -24 -6 -49 -22 -61 -38 l-20 -27 0 40 c-1 68 44 143 84
145 6 0 20 -7 32 -15z m7 -199 c-4 -11 -10 -37 -13 -56 -5 -27 -12 -36 -29
-38 -26 -4 -51 13 -62 43 -9 24 23 65 51 65 10 0 20 4 24 10 11 18 36 -1 29
-24z m-70 -153 c20 -3 36 -10 36 -14 0 -5 -15 -26 -33 -46 -18 -21 -46 -58
-63 -83 -64 -93 -68 -105 -75 -265 -14 -307 -28 -444 -60 -553 -17 -56 -34
-141 -40 -188 -5 -46 -25 -131 -44 -189 -19 -57 -35 -124 -35 -148 0 -25 -9
-104 -20 -177 -27 -179 -26 -218 10 -321 l31 -88 -12 -133 c-19 -216 -27 -324
-38 -489 -11 -171 -28 -235 -65 -245 -12 -3 -47 -4 -77 -2 l-54 3 -1 40 c-1
44 16 115 79 330 38 131 41 150 45 290 3 115 0 165 -12 212 -21 80 -20 146 4
284 10 63 24 175 29 249 12 152 28 245 65 374 15 50 35 162 46 255 10 91 30
221 44 288 15 67 26 144 26 172 0 35 19 110 59 235 33 101 63 200 67 220 l6
37 23 -21 c12 -11 39 -23 59 -27z m-410 -3059 c-9 -33 -23 -86 -32 -119 l-15
-60 -71 3 c-39 3 -73 6 -75 8 -3 3 1 33 9 67 7 34 16 82 19 107 l6 45 85 5
c47 3 86 4 88 4 2 -1 -4 -28 -14 -60z M12240 11333 c-94 -35 -124 -234 -50
-343 9 -14 23 -47 30 -74 7 -27 29 -67 49 -90 20 -23 54 -68 76 -100 l40 -58
6 -147 c14 -306 29 -441 60 -551 17 -57 34 -140 39 -183 9 -79 39 -198 66
-262 7 -19 14 -55 14 -80 0 -25 9 -103 21 -173 28 -168 27 -221 -6 -307 -15
-38 -29 -77 -32 -86 -2 -8 1 -74 7 -145 7 -71 15 -181 20 -245 4 -64 10 -121
13 -126 3 -5 7 -50 8 -100 2 -91 21 -233 35 -255 4 -7 7 -31 5 -54 -1 -25 9
-74 23 -116 13 -40 29 -98 36 -128 16 -79 32 -100 78 -100 21 0 42 4 48 9 5 6
41 11 79 13 l70 3 3 45 c2 24 -3 74 -12 110 -8 36 -24 115 -35 175 -11 61 -46
200 -78 310 -56 196 -57 203 -61 344 -2 104 1 162 12 212 21 89 20 138 -4 278
-11 64 -24 175 -29 248 -13 168 -26 248 -56 348 -31 105 -42 166 -55 300 -6
61 -22 164 -36 231 -13 66 -28 163 -33 215 -9 89 -31 166 -141 499 -14 42 -21
87 -20 127 1 34 -4 81 -10 105 -28 106 -111 176 -180 151z m72 -64 c27 -15 58
-85 57 -134 l0 -40 -20 27 c-12 16 -37 32 -61 38 -34 10 -43 9 -59 -6 -11 -9
-21 -15 -24 -12 -11 11 27 108 48 123 26 18 32 18 59 4z m-13 -189 c23 0 60
-40 54 -59 -16 -44 -78 -72 -87 -38 -21 78 -24 102 -13 109 7 4 16 3 21 -2 6
-6 17 -10 25 -10z m181 -407 c34 -102 50 -168 50 -203 0 -28 11 -106 26 -173
14 -67 34 -197 44 -288 11 -93 31 -205 46 -255 37 -129 53 -222 65 -374 5 -74
19 -186 29 -249 24 -138 25 -204 4 -284 -12 -47 -15 -97 -12 -212 4 -140 7
-159 45 -290 63 -215 80 -286 79 -330 l-1 -40 -54 -3 c-30 -2 -65 -1 -77 2
-37 10 -54 74 -65 245 -11 165 -19 273 -38 489 l-12 133 31 88 c36 103 37 142
10 321 -11 73 -20 152 -20 177 0 24 -16 91 -35 148 -19 58 -39 143 -44 189 -6
47 -23 132 -40 188 -32 109 -46 246 -60 553 -7 160 -11 172 -75 265 -17 25
-45 62 -63 83 -18 20 -33 41 -33 46 0 5 17 11 38 15 21 3 47 15 57 26 19 21
19 21 37 -47 11 -37 41 -136 68 -220z m411 -2813 c3 -25 12 -73 19 -107 8 -34
12 -64 9 -67 -2 -2 -36 -6 -76 -8 l-72 -4 -6 39 c-4 21 -15 62 -25 90 -10 29
-21 66 -24 82 l-7 30 88 -5 88 -5 6 -45z"/>
</g>
</svg>
