<?xml version="1.0" standalone="no"?>
<!DOCTYPE svg PUBLIC "-//W3C//DTD SVG 20010904//EN"
 "http://www.w3.org/TR/2001/REC-SVG-20010904/DTD/svg10.dtd">
<svg version="1.0" xmlns="http://www.w3.org/2000/svg"
 width="2360.000000pt" height="1640.000000pt" viewBox="0 0 2360.000000 1640.000000"
 preserveAspectRatio="xMidYMid meet">
<metadata>
Created by potrace 1.16, written by Peter Selinger 2001-2019
</metadata>
<g transform="translate(0.000000,1640.000000) scale(0.100000,-0.100000)"
fill="#000000" stroke="none">
<path d="M11243 11515 c-44 -19 -87 -83 -108 -159 -23 -84 -17 -221 11 -286
20 -44 20 -46 2 -104 -10 -32 -28 -111 -39 -175 -11 -64 -29 -150 -40 -192
-10 -42 -26 -128 -34 -190 -20 -151 -31 -189 -105 -354 -62 -139 -99 -260
-160 -515 -19 -81 -51 -179 -80 -245 -26 -60 -53 -128 -60 -150 -21 -66 -60
-136 -111 -202 -59 -73 -100 -159 -111 -228 -4 -27 -10 -64 -13 -81 -9 -41 1
-44 105 -28 113 17 226 17 275 -1 83 -30 119 -7 88 55 -13 28 -15 56 -10 179
5 134 9 156 45 271 22 69 65 177 95 240 30 63 60 137 67 164 6 28 42 118 79
200 68 151 87 215 142 466 33 151 69 390 69 459 0 44 17 168 45 326 8 44 17
125 22 180 17 231 -12 332 -104 371 -38 16 -30 17 -70 -1z m81 -92 c14 -21 28
-50 31 -64 6 -25 4 -27 -37 -31 -24 -3 -61 -14 -83 -24 -40 -19 -40 -20 -45
-84 l-5 -65 -7 46 c-12 78 14 196 54 247 6 6 23 12 39 12 22 0 34 -9 53 -37z
m19 -225 c4 -62 2 -79 -16 -111 -21 -38 -53 -54 -83 -43 -11 4 -14 13 -10 29
3 12 9 57 12 100 7 83 16 95 70 96 19 1 22 -6 27 -71z m-5 -235 c-5 -32 -15
-98 -23 -148 -8 -49 -17 -133 -20 -185 -4 -52 -8 -97 -10 -100 -2 -3 -8 -48
-14 -100 -12 -105 -25 -167 -82 -406 -29 -121 -53 -193 -95 -285 -31 -68 -72
-170 -90 -227 -19 -57 -52 -139 -74 -181 -87 -170 -140 -383 -140 -568 l0 -88
-107 0 c-60 0 -134 -3 -165 -8 l-58 -7 6 47 c9 73 30 121 89 198 54 72 112
179 135 250 7 22 30 77 51 122 41 88 65 165 100 313 46 199 84 320 150 471 74
170 82 195 105 362 8 61 24 146 34 187 11 41 26 116 34 165 9 50 23 117 32
150 l16 60 36 -3 c31 -2 59 8 98 37 1 1 -3 -25 -8 -56z M12285 11516 c-64 -29
-102 -104 -107 -213 -3 -79 10 -241 27 -338 28 -158 45 -282 45 -326 0 -69 36
-308 69 -459 55 -251 74 -315 142 -466 37 -82 73 -172 79 -200 7 -27 37 -101
67 -164 30 -63 73 -171 95 -240 36 -115 40 -137 45 -271 5 -123 3 -151 -10
-179 -31 -62 5 -85 88 -55 49 18 162 18 275 1 104 -16 114 -13 105 28 -3 17
-9 54 -13 81 -11 69 -52 155 -111 228 -51 66 -90 136 -111 202 -7 22 -34 90
-60 150 -29 66 -61 164 -80 245 -61 255 -98 376 -160 515 -74 165 -85 203
-105 354 -8 62 -24 148 -34 190 -11 42 -29 128 -40 192 -11 64 -29 143 -39
175 -18 58 -18 60 2 104 28 64 34 207 11 286 -36 126 -109 191 -180 160z m102
-101 c27 -50 44 -153 35 -214 l-7 -46 -5 65 c-5 64 -5 65 -45 84 -22 10 -59
21 -83 24 -41 4 -43 6 -37 31 3 14 17 43 31 64 22 33 30 38 57 35 25 -2 36
-11 54 -43z m-64 -154 c22 -8 25 -17 31 -88 3 -43 9 -88 12 -100 4 -16 1 -25
-10 -29 -30 -11 -62 5 -83 43 -18 32 -20 49 -16 111 6 78 12 83 66 63z m31
-279 c34 4 34 4 50 -57 9 -33 23 -100 32 -150 8 -49 23 -124 34 -165 10 -41
26 -126 34 -187 23 -167 31 -192 105 -362 66 -151 104 -272 150 -471 35 -148
59 -225 100 -313 21 -45 44 -100 51 -122 23 -71 81 -178 135 -250 59 -77 80
-125 89 -198 l6 -47 -58 7 c-31 5 -105 8 -165 8 l-107 0 0 88 c0 185 -53 398
-140 568 -22 42 -55 124 -74 181 -18 57 -59 159 -90 227 -42 92 -66 164 -95
285 -57 239 -70 301 -82 406 -6 52 -12 97 -14 100 -2 3 -6 48 -10 100 -3 52
-12 136 -20 185 -8 50 -18 115 -23 146 l-8 56 33 -19 c21 -13 45 -19 67 -16z"/>
</g>
</svg>
