<?xml version="1.0" standalone="no"?>
<!DOCTYPE svg PUBLIC "-//W3C//DTD SVG 20010904//EN"
 "http://www.w3.org/TR/2001/REC-SVG-20010904/DTD/svg10.dtd">
<svg version="1.0" xmlns="http://www.w3.org/2000/svg"
 width="2048.000000pt" height="2048.000000pt" viewBox="0 0 2048.000000 2048.000000"
 preserveAspectRatio="xMidYMid meet">
<metadata>
Created by potrace 1.16, written by Peter Selinger 2001-2019
</metadata>
<g transform="translate(0.000000,2048.000000) scale(0.100000,-0.100000)"
fill="#000000" stroke="none">
<path d="M10226 15205 c-30 -28 -32 -54 -11 -115 8 -24 13 -45 11 -48 -3 -2 2
-11 10 -20 11 -11 14 -26 10 -51 -14 -91 -19 -358 -6 -395 25 -77 68 -16 69
99 1 33 -6 123 -14 200 -8 77 -15 141 -15 143 0 1 3 1 8 0 4 -2 8 2 10 7 1 6
-2 11 -8 11 -21 3 -21 4 -6 19 16 17 30 20 21 6 -3 -5 -1 -12 4 -15 5 -3 11 9
14 27 4 17 9 47 13 65 5 28 2 38 -22 63 -34 35 -53 36 -88 4z m34 -171 c0 -8
-4 -12 -10 -9 -5 3 -10 10 -10 16 0 5 5 9 10 9 6 0 10 -7 10 -16z"/>
</g>
</svg>
