<?xml version="1.0" standalone="no"?>
<!DOCTYPE svg PUBLIC "-//W3C//DTD SVG 20010904//EN"
 "http://www.w3.org/TR/2001/REC-SVG-20010904/DTD/svg10.dtd">
<svg version="1.0" xmlns="http://www.w3.org/2000/svg"
 width="2048.000000pt" height="2048.000000pt" viewBox="0 0 2048.000000 2048.000000"
 preserveAspectRatio="xMidYMid meet">
<metadata>
Created by potrace 1.16, written by Peter Selinger 2001-2019
</metadata>
<g transform="translate(0.000000,2048.000000) scale(0.100000,-0.100000)"
fill="#000000" stroke="none">
<path d="M10210 15163 c-14 -9 -30 -24 -37 -33 -15 -18 -17 -106 -3 -115 15
-10 12 -81 -10 -204 -19 -105 -19 -114 -4 -147 40 -84 158 -84 198 0 16 34 16
41 -10 161 -17 83 -24 139 -19 163 20 117 19 126 -20 160 -41 36 -60 39 -95
15z m75 -18 c27 -20 54 -75 37 -75 -14 0 -42 35 -42 52 0 13 -8 18 -30 18 -21
0 -30 -5 -30 -16 0 -9 -11 -29 -25 -46 l-25 -30 0 27 c0 25 56 95 76 95 4 0
22 -11 39 -25z m-15 -81 c0 -47 -3 -55 -17 -52 -14 2 -19 15 -21 56 -3 47 -1
52 17 52 19 0 21 -6 21 -56z m8 -86 c-3 -25 -34 -36 -50 -20 -17 17 -1 42 27
42 22 0 26 -4 23 -22z m-5 -45 c-7 -2 -21 -2 -30 0 -10 3 -4 5 12 5 17 0 24
-2 18 -5z"/>
</g>
</svg>
