<?xml version="1.0" standalone="no"?>
<!DOCTYPE svg PUBLIC "-//W3C//DTD SVG 20010904//EN"
 "http://www.w3.org/TR/2001/REC-SVG-20010904/DTD/svg10.dtd">
<svg version="1.0" xmlns="http://www.w3.org/2000/svg"
 width="2048.000000pt" height="2048.000000pt" viewBox="0 0 2048.000000 2048.000000"
 preserveAspectRatio="xMidYMid meet">
<metadata>
Created by potrace 1.16, written by Peter Selinger 2001-2019
</metadata>
<g transform="translate(0.000000,2048.000000) scale(0.100000,-0.100000)"
fill="#000000" stroke="none">
<path d="M10180 15157 c-36 -18 -38 -60 -5 -103 18 -23 24 -41 20 -52 -4 -9
-9 -37 -11 -62 -2 -25 -7 -88 -12 -140 -13 -125 -10 -130 77 -130 44 0 72 5
79 13 12 15 -2 199 -18 228 -5 9 -6 27 -3 39 3 11 0 32 -6 44 -11 20 -9 28 14
61 46 69 19 115 -70 115 -22 0 -51 -6 -65 -13z m22 -44 c-5 -77 -7 -80 -25
-46 -23 44 -22 72 6 83 12 5 22 9 22 9 0 1 -1 -20 -3 -46z m126 8 c2 -12 -6
-36 -17 -54 l-21 -32 0 47 c0 25 -3 54 -6 62 -5 13 -2 15 17 7 13 -4 25 -18
27 -30z m-105 -179 c7 -9 6 -11 -7 -6 -9 3 -16 16 -15 28 0 14 2 16 6 6 3 -8
10 -21 16 -28z m71 13 c-4 -8 -11 -15 -16 -15 -6 0 -5 6 2 15 7 8 14 15 16 15
2 0 1 -7 -2 -15z m0 -47 c3 -7 7 -34 10 -60 l6 -48 -60 0 -60 0 0 41 c0 61 14
79 61 79 23 0 41 -5 43 -12z m20 -144 c14 -36 6 -64 -20 -74 -36 -14 -77 -12
-99 3 -14 11 -16 21 -11 50 l7 37 58 0 c44 0 60 -4 65 -16z"/>
</g>
</svg>
