<?xml version="1.0" standalone="no"?>
<!DOCTYPE svg PUBLIC "-//W3C//DTD SVG 20010904//EN"
 "http://www.w3.org/TR/2001/REC-SVG-20010904/DTD/svg10.dtd">
<svg version="1.0" xmlns="http://www.w3.org/2000/svg"
 width="2360.000000pt" height="1640.000000pt" viewBox="0 0 2360.000000 1640.000000"
 preserveAspectRatio="xMidYMid meet">
<metadata>
Created by potrace 1.16, written by Peter Selinger 2001-2019
</metadata>
<g transform="translate(0.000000,1640.000000) scale(0.100000,-0.100000)"
fill="#000000" stroke="none">
<path d="M8815 13392 l-29 -7 29 -20 c29 -20 43 -20 571 -16 367 2 612 -1 767
-10 220 -13 226 -13 222 -33 -3 -12 -12 -70 -20 -130 -26 -186 -56 -278 -153
-454 -143 -263 -372 -410 -812 -522 -167 -43 -243 -52 -460 -57 -118 -3 -221
-9 -229 -13 -26 -14 35 -42 102 -47 95 -8 357 14 492 42 244 49 516 151 658
246 148 100 235 195 314 342 l44 82 -6 -50 c-3 -27 -14 -149 -25 -270 -12
-121 -27 -274 -35 -340 -8 -66 -30 -259 -50 -430 -19 -170 -51 -436 -70 -590
-19 -154 -48 -408 -65 -565 -42 -403 -59 -519 -81 -570 -10 -25 -28 -75 -39
-111 -15 -51 -29 -75 -59 -102 -92 -83 -344 -120 -566 -81 -186 32 -451 107
-668 190 -49 19 -100 34 -114 34 -24 0 -25 -1 -11 -22 20 -31 61 -49 251 -114
167 -57 369 -111 516 -138 105 -20 304 -20 396 -1 213 45 285 98 324 235 46
162 61 255 102 628 37 350 53 488 84 732 50 389 125 1053 150 1316 35 379 51
495 81 604 14 52 31 118 38 146 7 27 16 55 19 61 11 17 -23 46 -42 37 -9 -5
-56 -7 -106 -7 -380 7 -1496 10 -1520 5z M13126 13385 c-9 -9 -13 -22 -9 -28
3 -6 12 -34 19 -61 7 -28 24 -94 38 -146 30 -109 46 -225 81 -604 25 -263 100
-927 150 -1316 31 -244 47 -382 84 -732 41 -373 56 -466 102 -628 39 -137 111
-190 324 -235 92 -19 291 -19 396 1 147 27 349 81 516 138 190 65 231 83 251
114 14 21 13 22 -11 22 -14 0 -65 -15 -114 -34 -217 -83 -482 -158 -668 -190
-222 -39 -474 -2 -566 81 -30 27 -44 51 -59 102 -11 36 -29 86 -39 111 -22 51
-39 167 -81 570 -17 157 -46 411 -65 565 -19 154 -51 420 -70 590 -20 171 -42
364 -50 430 -8 66 -23 219 -35 340 -11 121 -22 243 -25 270 l-6 50 44 -82 c79
-147 166 -242 314 -342 142 -95 414 -197 658 -246 135 -28 397 -50 492 -42 67
5 128 33 102 47 -8 4 -111 10 -229 13 -217 5 -293 14 -460 57 -440 112 -669
259 -812 522 -97 176 -127 268 -153 454 -8 60 -17 118 -20 130 -4 20 2 20 222
33 155 9 400 12 767 10 525 -4 542 -3 570 16 l29 19 -39 9 c-31 6 -1013 3
-1509 -6 -49 0 -97 2 -106 7 -10 4 -23 1 -33 -9z M9920 7847 c-49 -11 -923
-16 -1335 -7 -246 5 -292 0 -240 -27 19 -11 85 -18 219 -24 273 -12 1174 -11
1296 1 56 6 104 9 107 7 9 -9 -30 -163 -64 -250 -48 -125 -85 -197 -155 -298
-96 -142 -236 -273 -383 -361 -193 -116 -646 -251 -960 -288 -100 -11 -152
-31 -139 -52 18 -29 362 25 618 98 386 110 604 228 796 431 85 90 184 229 226
318 13 28 24 46 24 41 0 -5 -16 -110 -36 -235 -37 -237 -87 -601 -154 -1111
-21 -168 -49 -368 -60 -445 -23 -153 -32 -233 -85 -735 -42 -403 -59 -510 -95
-615 -73 -213 -115 -248 -305 -247 -72 0 -121 8 -245 40 -197 51 -558 170
-638 211 -34 17 -85 40 -112 51 -27 11 -68 32 -90 46 -33 22 -43 24 -55 14
-39 -32 -10 -55 171 -138 142 -65 482 -181 701 -238 293 -76 482 -49 558 80
44 76 93 210 114 319 12 56 43 314 71 574 28 260 63 563 80 675 16 112 36 259
45 328 70 546 130 972 200 1414 47 301 50 364 17 414 -16 24 -25 25 -92 9z
M13588 7838 c-33 -50 -30 -112 17 -414 70 -442 130 -868 200 -1414 9 -69 29
-216 45 -328 17 -112 52 -415 80 -675 28 -260 59 -518 71 -574 21 -109 70
-243 114 -319 76 -129 265 -156 558 -80 219 57 559 173 701 238 181 83 210
106 171 138 -12 10 -22 8 -55 -14 -22 -14 -63 -35 -90 -46 -27 -11 -78 -34
-112 -51 -80 -41 -441 -160 -638 -211 -124 -32 -173 -40 -245 -40 -190 -1
-232 34 -305 247 -36 105 -53 212 -95 615 -53 502 -62 582 -85 735 -11 77 -39
277 -60 445 -67 510 -117 874 -154 1111 -20 125 -36 230 -36 235 0 5 11 -13
24 -41 42 -89 141 -228 226 -318 192 -203 410 -321 796 -431 256 -73 600 -127
618 -98 13 21 -39 41 -139 52 -314 37 -767 172 -960 288 -147 88 -287 219
-383 361 -70 101 -107 173 -155 298 -34 87 -73 241 -64 250 3 2 51 -1 107 -7
122 -12 1023 -13 1296 -1 139 7 199 13 220 24 27 14 28 16 9 24 -11 4 -54 8
-95 7 -41 0 -336 -4 -655 -8 -543 -8 -783 -2 -886 20 -20 4 -29 0 -41 -18z"/>
</g>
</svg>
