<?xml version="1.0" standalone="no"?>
<!DOCTYPE svg PUBLIC "-//W3C//DTD SVG 20010904//EN"
 "http://www.w3.org/TR/2001/REC-SVG-20010904/DTD/svg10.dtd">
<svg version="1.0" xmlns="http://www.w3.org/2000/svg"
 width="2360.000000pt" height="1640.000000pt" viewBox="0 0 2360.000000 1640.000000"
 preserveAspectRatio="xMidYMid meet">
<metadata>
Created by potrace 1.16, written by Peter Selinger 2001-2019
</metadata>
<g transform="translate(0.000000,1640.000000) scale(0.100000,-0.100000)"
fill="#000000" stroke="none">
<path d="M9370 14468 c-5 -13 -77 -608 -160 -1323 -83 -715 -154 -1305 -158
-1311 -11 -18 -188 -219 -272 -310 -91 -98 -270 -302 -270 -308 0 -2 7 -7 16
-10 28 -11 68 21 154 121 47 54 115 129 151 168 117 125 266 300 272 320 4 11
32 229 62 485 142 1189 255 2154 255 2171 0 27 -38 25 -50 -3z M14180 14472
c0 -18 112 -969 255 -2172 30 -256 58 -474 62 -485 6 -20 155 -195 272 -320
36 -39 104 -114 151 -168 86 -100 126 -132 154 -121 9 3 16 8 16 10 0 6 -179
210 -270 308 -84 91 -261 292 -272 310 -4 6 -75 594 -158 1306 -82 712 -154
1306 -158 1320 -9 32 -52 41 -52 12z"/>
</g>
</svg>
