<?xml version="1.0" standalone="no"?>
<!DOCTYPE svg PUBLIC "-//W3C//DTD SVG 20010904//EN"
 "http://www.w3.org/TR/2001/REC-SVG-20010904/DTD/svg10.dtd">
<svg version="1.0" xmlns="http://www.w3.org/2000/svg"
 width="2360.000000pt" height="1640.000000pt" viewBox="0 0 2360.000000 1640.000000"
 preserveAspectRatio="xMidYMid meet">
<metadata>
Created by potrace 1.16, written by Peter Selinger 2001-2019
</metadata>
<g transform="translate(0.000000,1640.000000) scale(0.100000,-0.100000)"
fill="#000000" stroke="none">
<path d="M9086 14007 c-51 -53 -56 -64 -101 -245 -93 -372 -166 -921 -205
-1527 -17 -268 -30 -1015 -23 -1303 6 -255 6 -263 -14 -285 -29 -31 -53 -81
-53 -109 0 -13 9 -41 20 -63 11 -22 20 -51 20 -65 0 -14 5 -31 12 -38 9 -9 14
-74 18 -207 6 -222 7 -225 87 -232 42 -5 53 -2 82 22 l32 28 -1 261 -2 261 31
95 c87 266 170 602 205 830 87 571 128 1093 130 1655 1 383 -5 472 -46 700
-16 93 -59 226 -80 247 -30 30 -65 23 -112 -25z m74 -38 c0 -5 -4 -9 -10 -9
-5 0 -10 7 -10 16 0 8 5 12 10 9 6 -3 10 -10 10 -16z m-30 -9 c0 -5 -5 -10
-11 -10 -5 0 -7 5 -4 10 3 6 8 10 11 10 2 0 4 -4 4 -10z m45 -31 c11 -17 -1
-21 -34 -14 -17 4 -29 11 -25 16 7 12 51 11 59 -2z m-55 -56 c0 -13 -4 -23
-10 -23 -5 0 -10 -11 -10 -25 0 -19 5 -25 23 -26 16 -1 18 -2 5 -6 -11 -3 -18
-14 -18 -29 0 -13 -4 -24 -10 -24 -5 0 -10 -11 -10 -25 0 -14 4 -25 8 -25 5 0
7 -13 4 -30 -2 -16 -8 -30 -13 -30 -5 0 -9 -9 -9 -20 0 -11 5 -20 10 -20 12 0
1 -53 -12 -58 -4 -2 -8 -15 -8 -28 0 -18 5 -24 23 -24 20 -1 20 -2 5 -11 -10
-5 -18 -19 -18 -29 0 -11 -4 -20 -10 -20 -5 0 -10 -11 -10 -25 0 -19 5 -25 23
-25 20 -1 20 -2 5 -11 -10 -5 -18 -19 -18 -29 0 -11 -4 -20 -10 -20 -5 0 -10
-11 -10 -25 0 -19 5 -25 23 -26 16 -1 18 -2 5 -6 -11 -3 -18 -14 -18 -29 0
-13 -4 -24 -10 -24 -12 0 -13 -37 -2 -44 11 -7 3 -66 -9 -66 -15 0 -10 -38 5
-42 12 -2 11 -10 -5 -42 -24 -51 -24 -66 2 -66 19 0 19 -1 5 -16 -9 -8 -16
-22 -16 -30 0 -8 -4 -14 -10 -14 -5 0 -10 -11 -10 -25 0 -20 5 -25 28 -26 16
-1 20 -3 10 -6 -10 -2 -21 -15 -24 -29 -3 -13 -10 -24 -15 -24 -5 0 -9 -11 -9
-25 0 -19 5 -25 23 -26 12 0 16 -3 10 -6 -24 -9 -13 -18 22 -18 19 0 35 -4 35
-10 0 -5 -17 -10 -38 -9 -20 0 -43 -5 -49 -12 -15 -15 -17 -44 -3 -44 16 0 12
-57 -5 -64 -25 -9 -19 -46 8 -47 12 0 16 -3 10 -6 -7 -2 -13 -15 -13 -28 0
-12 -7 -25 -15 -29 -8 -3 -15 -15 -15 -26 0 -15 7 -20 28 -21 16 -1 20 -3 10
-6 -10 -2 -18 -14 -18 -25 0 -11 -7 -26 -17 -33 -22 -16 -10 -45 19 -46 17 -1
18 -2 6 -6 -10 -2 -18 -13 -18 -23 0 -9 -7 -23 -15 -30 -19 -15 -19 -39 -1
-46 16 -6 9 -54 -10 -61 -18 -7 -18 -43 0 -43 17 0 9 -52 -10 -63 -8 -4 -14
-17 -14 -27 0 -15 7 -20 28 -21 16 -1 20 -3 10 -6 -10 -2 -18 -13 -18 -24 0
-11 -7 -27 -15 -36 -20 -20 -15 -36 16 -44 16 -5 18 -7 7 -8 -11 -1 -18 -9
-18 -22 0 -11 -7 -27 -15 -36 -20 -20 -15 -36 16 -44 16 -5 18 -7 7 -8 -12 -1
-18 -9 -18 -26 0 -14 -4 -25 -10 -25 -5 0 -10 -11 -10 -25 0 -14 4 -25 9 -25
10 0 2 -48 -10 -56 -12 -7 -11 -44 1 -44 12 0 1 -53 -12 -58 -4 -2 -8 -15 -8
-28 0 -18 5 -24 23 -24 20 -1 20 -2 5 -11 -10 -5 -18 -19 -18 -29 0 -11 -4
-20 -10 -20 -5 0 -10 -11 -10 -25 0 -19 5 -25 23 -26 16 -1 18 -2 5 -6 -11 -3
-18 -14 -18 -29 0 -13 -4 -24 -10 -24 -5 0 -10 -11 -10 -25 0 -19 5 -25 23
-26 16 -1 18 -2 5 -6 -11 -3 -18 -14 -18 -29 0 -13 -4 -24 -10 -24 -12 0 -13
-37 -1 -44 10 -7 2 -54 -10 -62 -5 -3 -9 -14 -9 -25 0 -13 7 -19 23 -19 20 -1
20 -2 5 -11 -10 -5 -18 -19 -18 -29 0 -11 -4 -20 -10 -20 -5 0 -10 -11 -10
-25 0 -19 5 -25 23 -25 20 -1 20 -2 5 -11 -10 -5 -18 -19 -18 -29 0 -11 -4
-20 -10 -20 -5 0 -10 -8 -10 -17 1 -31 26 -53 58 -53 44 0 49 -17 6 -22 -19
-2 -38 0 -41 5 -3 4 -11 0 -18 -10 -11 -15 -14 -10 -21 42 -11 95 4 1173 21
1445 27 430 72 849 126 1165 30 176 99 476 119 524 10 23 11 23 25 5 8 -11 15
-29 15 -41z m68 7 c6 0 12 -4 12 -10 0 -5 -16 -10 -35 -10 -26 0 -35 4 -35 16
0 12 6 15 23 10 12 -3 28 -6 35 -6z m22 -33 c0 -2 12 -75 26 -163 25 -146 27
-189 31 -519 6 -460 -13 -821 -68 -1310 -55 -485 -105 -731 -241 -1188 l-12
-39 -18 24 c-22 28 -23 64 -3 72 17 6 21 46 5 46 -17 0 -11 52 8 66 14 11 15
16 5 33 -17 28 -16 56 2 71 17 14 20 40 5 40 -16 0 -12 50 5 66 19 19 19 33 1
40 -16 6 -9 52 11 72 17 17 17 31 0 38 -14 5 -11 64 3 64 14 0 19 41 5 46 -14
6 -12 21 8 62 7 16 8 29 1 40 -11 20 -7 62 7 62 5 0 9 11 9 25 0 14 -4 25 -8
25 -5 0 -7 14 -4 30 2 17 8 30 13 30 5 0 9 11 9 25 0 14 -3 25 -7 25 -5 0 -8
14 -8 30 0 17 5 30 13 30 6 0 12 11 12 25 0 14 -4 25 -8 25 -5 0 -7 14 -4 30
2 17 8 30 13 30 12 0 12 37 0 44 -10 7 -2 54 10 62 12 7 11 44 -1 44 -12 0 -3
49 11 64 12 13 12 46 0 46 -4 0 -8 13 -7 30 1 17 7 30 14 30 6 0 12 11 12 25
0 14 -4 25 -9 25 -4 0 -8 13 -7 30 1 17 7 30 14 30 13 0 17 32 5 44 -13 13 -9
66 5 66 14 0 16 36 2 45 -14 8 -8 53 7 59 15 6 18 46 3 46 -15 0 -8 59 7 64
16 6 18 46 2 46 -15 0 -7 53 11 67 12 10 13 15 3 32 -18 29 -16 62 5 77 14 11
15 16 5 33 -17 28 -16 60 2 67 17 7 21 44 5 44 -16 0 -12 57 5 64 17 6 21 46
5 46 -16 0 -12 57 5 64 19 7 20 35 1 42 -16 6 -9 52 11 72 17 17 17 31 -1 38
-16 6 -9 52 11 72 17 17 17 31 -1 38 -16 6 -11 37 11 71 10 14 11 23 4 28 -14
8 -14 65 -1 65 6 0 10 11 10 25 0 14 -4 25 -8 25 -5 0 -7 14 -4 30 2 17 8 30
13 30 5 0 9 11 9 25 0 14 -4 25 -8 25 -5 0 -7 14 -4 30 2 17 8 30 13 30 5 0 9
11 9 25 0 14 -4 25 -8 25 -5 0 -7 14 -4 30 2 17 8 30 13 30 5 0 9 -1 9 -3z
m-31 -23 c1 -1 1 -7 -3 -12 -9 -14 -66 -2 -66 15 0 11 7 13 33 8 17 -4 34 -9
36 -11z m9 -61 c2 -9 -8 -13 -32 -13 -26 0 -36 4 -36 16 0 19 61 16 68 -3z
m-34 -39 c9 -3 16 -10 16 -16 0 -14 -63 -5 -68 10 -4 13 25 16 52 6z m26 -68
c0 -10 -11 -14 -35 -13 -22 1 -35 6 -35 14 0 8 13 13 35 13 23 0 35 -5 35 -14z
m-25 -47 c4 -6 5 -13 2 -16 -8 -8 -67 7 -67 18 0 13 57 11 65 -2z m15 -59 c0
-5 -16 -10 -35 -10 -19 0 -35 5 -35 10 0 6 16 10 35 10 19 0 35 -4 35 -10z
m-20 -56 c0 -11 -5 -14 -16 -10 -9 3 -24 6 -35 6 -10 0 -19 5 -19 10 0 6 16
10 35 10 25 0 35 -4 35 -16z m10 -55 c0 -5 -16 -9 -35 -9 -32 0 -43 8 -30 22
8 8 65 -3 65 -13z m-22 -51 c-2 -5 -7 -9 -11 -9 -4 1 -18 1 -32 1 -14 0 -25 6
-25 13 0 9 11 12 35 9 20 -2 34 -9 33 -14z m-10 -44 c34 -10 26 -24 -13 -24
-33 0 -43 8 -28 23 8 8 12 8 41 1z m-20 -50 c34 -10 26 -24 -13 -24 -24 0 -35
5 -35 15 0 16 12 18 48 9z m32 -69 c0 -10 -11 -15 -35 -15 -24 0 -35 5 -35 15
0 10 11 15 35 15 24 0 35 -5 35 -15z m-22 -52 c2 -8 -5 -13 -16 -13 -28 0 -52
10 -52 22 0 14 63 5 68 -9z m12 -57 c0 -9 -10 -13 -32 -11 -45 3 -49 25 -4 25
24 0 36 -5 36 -14z m-20 -52 c0 -12 -6 -15 -22 -10 -13 3 -29 6 -35 6 -7 0
-13 5 -13 10 0 6 16 10 35 10 26 0 35 -4 35 -16z m15 -54 c4 -6 -10 -10 -34
-10 -23 0 -41 5 -41 10 0 6 15 10 34 10 19 0 38 -4 41 -10z m-25 -56 c0 -11
-5 -14 -16 -10 -9 3 -24 6 -35 6 -10 0 -19 5 -19 10 0 6 16 10 35 10 25 0 35
-4 35 -16z m1 -44 c11 0 17 -4 14 -10 -7 -12 -75 -14 -75 -2 0 15 13 23 28 17
7 -3 23 -5 33 -5z m-30 -50 c10 0 19 -6 19 -13 0 -9 -11 -12 -35 -9 -23 3 -35
9 -35 19 0 10 6 13 16 9 9 -3 24 -6 35 -6z m23 -56 c25 -10 8 -24 -30 -24 -32
0 -42 8 -27 23 8 9 36 9 57 1z m-30 -50 c9 -3 16 -12 16 -19 0 -16 -62 -5 -68
13 -4 13 25 16 52 6z m6 -119 c0 -16 -12 -18 -47 -9 -35 10 -27 24 12 24 24 0
35 -5 35 -15z m14 -54 c3 -5 -10 -11 -29 -13 -24 -3 -35 0 -35 9 0 15 56 18
64 4z m-24 -57 c0 -11 -5 -14 -16 -10 -9 3 -24 6 -35 6 -10 0 -19 5 -19 10 0
6 16 10 35 10 25 0 35 -4 35 -16z m20 -54 c0 -5 -16 -10 -35 -10 -19 0 -35 5
-35 10 0 6 16 10 35 10 19 0 35 -4 35 -10z m-30 -53 c0 -9 -11 -12 -35 -9 -19
2 -35 8 -35 13 0 5 16 9 35 9 22 0 35 -5 35 -13z m-2 -43 c34 -10 26 -24 -13
-24 -24 0 -35 5 -35 15 0 16 12 18 48 9z m-30 -50 c12 -4 22 -12 22 -19 0 -8
-8 -11 -22 -8 -42 9 -49 13 -43 23 7 12 12 12 43 4z m37 -69 c0 -5 -15 -11
-32 -13 -25 -3 -33 1 -33 13 0 12 8 16 33 13 17 -2 32 -7 32 -13z m-27 -52 c2
-8 -5 -13 -16 -13 -28 0 -52 10 -52 22 0 14 63 5 68 -9z m15 -58 c-4 -15 -63
-12 -63 3 0 9 11 12 33 10 17 -2 31 -7 30 -13z m-23 -51 c0 -12 -6 -15 -22
-10 -13 3 -29 6 -35 6 -7 0 -13 5 -13 10 0 6 16 10 35 10 26 0 35 -4 35 -16z
m20 -54 c0 -5 -16 -10 -35 -10 -19 0 -35 5 -35 10 0 6 16 10 35 10 19 0 35 -4
35 -10z m-30 -55 c0 -12 -7 -14 -27 -9 -45 11 -51 24 -10 24 26 0 37 -4 37
-15z m20 -56 c0 -5 -16 -9 -35 -9 -32 0 -43 8 -30 22 8 8 65 -3 65 -13z m-30
-54 c0 -8 -8 -11 -22 -8 -41 9 -49 13 -44 21 8 13 66 1 66 -13z m-2 -41 c34
-10 26 -24 -13 -24 -24 0 -35 5 -35 15 0 16 12 18 48 9z m-11 -54 c7 0 10 -6
7 -14 -5 -13 -21 -13 -62 0 -22 7 -1 26 22 20 11 -3 26 -6 33 -6z m21 -67 c2
-9 -8 -13 -32 -13 -26 0 -36 4 -36 16 0 19 61 16 68 -3z m-28 -43 c12 -8 12
-10 -2 -15 -23 -9 -50 -3 -56 13 -4 14 36 16 58 2z m18 -61 c-6 -17 -68 -20
-68 -3 0 9 12 14 36 14 22 0 34 -4 32 -11z m-23 -48 c3 -5 2 -12 -2 -14 -12
-8 -63 4 -63 14 0 12 57 12 65 0z m15 -61 c0 -5 -16 -10 -35 -10 -19 0 -35 5
-35 10 0 6 16 10 35 10 19 0 35 -4 35 -10z m-22 -51 c-2 -6 -7 -10 -11 -10 -4
1 -18 1 -32 1 -14 0 -25 5 -25 10 0 6 16 10 36 10 21 0 34 -4 32 -11z m-2 -49
c8 0 14 -4 14 -10 0 -5 -16 -10 -35 -10 -33 0 -43 8 -28 24 4 3 13 4 21 1 7
-3 20 -5 28 -5z m-7 -56 c1 -1 1 -7 -3 -12 -8 -13 -66 -2 -66 14 0 10 9 12 33
7 17 -3 34 -7 36 -9z m9 -61 c2 -9 -8 -13 -32 -13 -26 0 -36 4 -36 16 0 19 61
16 68 -3z m-34 -39 c9 -3 16 -10 16 -16 0 -14 -63 -5 -68 10 -4 13 25 16 52 6z
m26 -68 c0 -10 -11 -14 -35 -13 -22 1 -35 6 -35 14 0 8 13 13 35 13 23 0 35
-5 35 -14z m-25 -47 c4 -6 5 -13 2 -16 -8 -8 -67 7 -67 18 0 13 57 11 65 -2z
m15 -59 c0 -5 -16 -10 -35 -10 -19 0 -35 5 -35 10 0 6 16 10 35 10 19 0 35 -4
35 -10z m-20 -56 c0 -11 -5 -14 -16 -10 -9 3 -24 6 -35 6 -10 0 -19 5 -19 10
0 6 16 10 35 10 25 0 35 -4 35 -16z m-4 -44 c8 0 14 -4 14 -10 0 -5 -16 -10
-35 -10 -33 0 -43 8 -28 24 4 3 13 4 21 1 7 -3 20 -5 28 -5z m-25 -50 c10 0
19 -6 19 -13 0 -9 -11 -12 -35 -9 -23 3 -35 9 -35 19 0 10 6 13 16 9 9 -3 24
-6 35 -6z m31 -65 c-3 -15 -65 -12 -70 3 -3 10 6 13 34 10 22 -2 38 -7 36 -13z
m-27 -46 c4 -6 5 -13 2 -16 -8 -8 -67 7 -67 18 0 13 57 11 65 -2z m-5 -109 c0
-5 -7 -7 -15 -4 -8 4 -15 8 -15 10 0 2 7 4 15 4 8 0 15 -4 15 -10z m-60 -40
c0 -5 -4 -10 -10 -10 -5 0 -10 5 -10 10 0 6 5 10 10 10 6 0 10 -4 10 -10z m70
-20 c0 -5 -4 -10 -10 -10 -5 0 -10 5 -10 10 0 6 5 10 10 10 6 0 10 -4 10 -10z
m-136 -152 c-8 -27 -19 -22 -40 17 -18 34 -18 35 6 82 l24 48 8 -65 c4 -36 5
-73 2 -82z m153 89 l-11 -32 -6 30 c-3 17 -1 33 4 37 19 13 25 -3 13 -35z
m-49 8 c-3 -12 -29 -8 -43 7 -7 6 -1 8 18 6 15 -2 26 -7 25 -13z m-4 -41 c25
-9 19 -24 -9 -24 -24 0 -32 10 -18 23 8 8 8 8 27 1z m6 -68 c0 -9 -7 -12 -20
-9 -11 3 -20 9 -20 14 0 5 9 9 20 9 11 0 20 -6 20 -14z m-87 -138 c8 -5 6 -8
-5 -8 -16 0 -18 9 -16 63 l2 62 3 -55 c3 -30 10 -58 16 -62z m155 39 l-3 -42
-50 -1 -50 -2 45 7 45 6 0 53 c-1 33 2 47 8 37 4 -8 7 -34 5 -58z m-78 53 c0
-5 -7 -10 -15 -10 -8 0 -15 5 -15 10 0 6 7 10 15 10 8 0 15 -4 15 -10z m47
-66 c-3 -3 -12 -4 -19 -1 -8 3 -5 6 6 6 11 1 17 -2 13 -5z m23 -212 c0 -182
-2 -190 -58 -207 -29 -9 -90 12 -102 35 -11 21 -14 323 -3 333 3 4 42 7 85 7
l78 0 0 -168z M14402 14032 c-21 -21 -64 -154 -80 -247 -41 -228 -47 -317 -46
-700 2 -562 43 -1084 130 -1655 35 -228 118 -564 205 -830 l31 -95 -2 -261 -1
-261 32 -28 c29 -24 40 -27 82 -22 80 7 81 10 87 232 4 133 9 198 18 207 7 7
12 24 12 38 0 14 9 43 20 65 11 22 20 50 20 63 0 28 -24 78 -53 109 -20 22
-20 30 -14 285 7 288 -6 1035 -23 1303 -39 606 -112 1155 -205 1527 -45 181
-50 192 -101 245 -47 48 -82 55 -112 25z m54 -69 c-10 -10 -19 5 -10 18 6 11
8 11 12 0 2 -7 1 -15 -2 -18z m29 -3 c3 -5 1 -10 -4 -10 -6 0 -11 5 -11 10 0
6 2 10 4 10 3 0 8 -4 11 -10z m-1 -29 c4 -5 -8 -12 -25 -16 -33 -7 -45 -3 -34
14 8 13 52 14 59 2z m81 -193 c93 -375 162 -898 200 -1518 17 -272 32 -1351
21 -1445 -7 -52 -10 -57 -21 -42 -7 10 -15 14 -18 10 -3 -5 -22 -7 -41 -5 -43
5 -38 22 6 22 32 0 57 22 58 53 0 9 -4 17 -10 17 -5 0 -10 9 -10 20 0 10 -8
24 -17 29 -16 9 -16 10 5 11 17 0 22 6 22 25 0 14 -4 25 -10 25 -5 0 -10 9
-10 20 0 10 -8 24 -17 29 -16 9 -16 10 5 11 15 0 22 6 22 19 0 11 -4 22 -9 25
-12 8 -20 55 -10 62 12 7 11 44 -1 44 -5 0 -10 11 -10 24 0 15 -7 26 -17 29
-14 4 -12 5 5 6 17 1 22 7 22 26 0 14 -4 25 -10 25 -5 0 -10 11 -10 24 0 15
-7 26 -17 29 -14 4 -12 5 5 6 17 1 22 7 22 26 0 14 -4 25 -10 25 -5 0 -10 9
-10 20 0 10 -8 24 -17 29 -16 9 -16 10 5 11 17 0 22 6 22 24 0 13 -4 26 -8 28
-13 5 -24 58 -12 58 12 0 13 37 1 44 -12 8 -20 56 -10 56 5 0 9 11 9 25 0 14
-4 25 -10 25 -5 0 -10 11 -10 25 0 17 -6 25 -17 26 -12 1 -10 3 6 8 31 8 36
24 16 44 -8 9 -15 25 -15 36 0 13 -7 21 -17 22 -12 1 -10 3 6 8 31 8 36 24 16
44 -8 9 -15 25 -15 36 0 11 -8 22 -17 24 -11 3 -7 5 10 6 20 1 27 6 27 21 0
10 -6 23 -14 27 -19 11 -27 63 -10 63 18 0 18 36 0 43 -19 7 -26 55 -10 61 18
7 18 31 -1 46 -8 7 -15 21 -15 30 0 10 -8 21 -17 23 -13 4 -12 5 5 6 29 1 41
30 19 46 -10 7 -17 22 -17 33 0 11 -8 23 -17 25 -11 3 -7 5 10 6 20 1 27 6 27
21 0 11 -7 23 -15 26 -8 4 -15 17 -15 29 0 13 -6 26 -12 28 -7 3 -3 6 10 6 26
1 32 38 7 47 -17 7 -21 64 -5 64 14 0 12 29 -2 44 -7 7 -30 12 -50 12 -21 -1
-38 4 -38 9 0 6 16 10 35 10 35 0 46 9 23 18 -7 3 -3 6 10 6 17 1 22 7 22 26
0 14 -4 25 -9 25 -5 0 -12 11 -15 24 -3 14 -14 27 -24 29 -10 3 -6 5 11 6 22
1 27 6 27 26 0 14 -4 25 -10 25 -5 0 -10 6 -10 14 0 8 -7 22 -16 30 -14 15
-14 16 5 16 26 0 26 15 2 66 -16 32 -17 40 -5 42 15 4 20 42 5 42 -12 0 -20
59 -9 66 11 7 10 44 -2 44 -5 0 -10 11 -10 24 0 15 -7 26 -17 29 -14 4 -12 5
5 6 17 1 22 7 22 26 0 14 -4 25 -10 25 -5 0 -10 9 -10 20 0 10 -8 24 -17 29
-16 9 -16 10 5 11 17 0 22 6 22 25 0 14 -4 25 -10 25 -5 0 -10 9 -10 20 0 10
-8 24 -17 29 -16 9 -16 10 5 11 17 0 22 6 22 24 0 13 -4 26 -8 28 -13 5 -24
58 -12 58 5 0 10 9 10 20 0 11 -4 20 -9 20 -5 0 -11 14 -13 30 -3 17 -1 30 4
30 4 0 8 11 8 25 0 14 -4 25 -10 25 -5 0 -10 11 -10 24 0 15 -7 26 -17 29 -14
4 -12 5 5 6 17 1 22 7 22 26 0 14 -4 25 -10 25 -5 0 -10 9 -10 20 0 28 22 62
33 51 5 -5 29 -87 52 -183z m-95 137 c0 -10 -11 -15 -35 -15 -39 0 -48 16 -12
23 41 8 47 7 47 -8z m-58 -55 c3 -16 1 -30 -4 -30 -4 0 -8 -11 -8 -25 0 -14 4
-25 9 -25 5 0 11 -13 13 -30 3 -16 1 -30 -4 -30 -4 0 -8 -11 -8 -25 0 -14 4
-25 9 -25 5 0 11 -13 13 -30 3 -16 1 -30 -4 -30 -4 0 -8 -11 -8 -25 0 -14 5
-25 10 -25 13 0 13 -57 -1 -65 -7 -5 -6 -14 4 -28 22 -34 27 -65 11 -71 -18
-7 -18 -21 -1 -38 20 -20 27 -66 11 -72 -18 -7 -18 -21 -1 -38 20 -20 27 -66
11 -72 -19 -7 -18 -35 1 -42 17 -7 21 -64 5 -64 -16 0 -12 -40 5 -46 17 -7 21
-64 5 -64 -16 0 -12 -37 5 -44 18 -7 19 -39 3 -67 -11 -17 -10 -22 5 -33 20
-15 22 -48 5 -77 -11 -17 -10 -22 2 -32 18 -14 26 -67 11 -67 -16 0 -14 -40 2
-46 15 -5 22 -64 7 -64 -15 0 -12 -40 3 -46 15 -6 21 -51 7 -59 -14 -9 -12
-45 3 -45 13 0 17 -53 5 -66 -13 -12 -9 -44 5 -44 6 0 12 -13 13 -30 1 -17 -3
-30 -7 -30 -5 0 -9 -11 -9 -25 0 -14 6 -25 13 -25 6 0 12 -13 13 -30 1 -17 -3
-30 -7 -30 -12 0 -12 -33 0 -46 14 -15 23 -64 11 -64 -12 0 -13 -37 -1 -44 12
-8 20 -55 10 -62 -12 -7 -12 -44 0 -44 5 0 11 -13 13 -30 3 -16 1 -30 -4 -30
-4 0 -8 -11 -8 -25 0 -14 6 -25 13 -25 7 0 12 -13 12 -30 0 -16 -3 -30 -7 -30
-5 0 -8 -11 -8 -25 0 -14 4 -25 9 -25 5 0 11 -13 13 -30 3 -16 1 -30 -4 -30
-4 0 -8 -11 -8 -25 0 -14 4 -25 9 -25 14 0 18 -42 7 -62 -7 -11 -6 -24 1 -40
20 -41 22 -56 8 -62 -14 -5 -9 -46 5 -46 14 0 17 -59 3 -64 -17 -7 -17 -21 0
-38 20 -20 27 -66 11 -72 -18 -7 -18 -21 1 -40 17 -16 21 -66 5 -66 -15 0 -12
-26 5 -40 18 -15 19 -43 3 -71 -11 -17 -10 -22 5 -33 18 -14 24 -66 7 -66 -16
0 -12 -40 5 -46 20 -8 19 -44 -3 -72 l-18 -24 -12 39 c-136 457 -186 703 -241
1188 -55 489 -74 850 -68 1310 4 330 6 373 31 519 14 88 26 161 26 163 0 2 4
3 9 3 5 0 11 -13 13 -30z m78 5 c0 -9 -9 -15 -25 -15 -14 0 -28 0 -32 -1 -20
-2 -11 20 9 24 42 8 48 7 48 -8z m-10 -60 c0 -10 -11 -15 -35 -15 -33 0 -43 8
-28 23 13 14 63 7 63 -8z m18 -47 c-5 -15 -68 -24 -68 -9 0 12 18 19 48 20 15
1 22 -4 20 -11z m-8 -61 c0 -8 -13 -13 -35 -14 -24 -1 -35 3 -35 13 0 9 12 14
35 14 22 0 35 -5 35 -13z m20 -46 c0 -11 -59 -26 -67 -18 -3 3 -2 10 2 16 8
13 65 15 65 2z m-10 -61 c0 -5 -16 -10 -35 -10 -19 0 -35 5 -35 10 0 6 16 10
35 10 19 0 35 -4 35 -10z m20 -50 c0 -5 -9 -10 -19 -10 -11 0 -26 -3 -35 -6
-11 -4 -16 -1 -16 10 0 12 10 16 35 16 19 0 35 -4 35 -10z m-10 -61 c0 -5 -16
-9 -35 -9 -41 0 -47 17 -7 22 31 4 42 1 42 -13z m19 -54 c-11 -10 -63 -8 -66
2 -5 13 60 23 66 10 1 -5 1 -10 0 -12z m-11 -52 c2 -9 -8 -13 -32 -13 -37 0
-49 15 -18 23 26 7 45 3 50 -10z m22 -48 c0 -10 -11 -15 -35 -15 -56 0 -41 25
18 29 9 0 17 -6 17 -14z m-10 -60 c0 -10 -11 -15 -35 -15 -24 0 -35 5 -35 15
0 10 11 15 35 15 24 0 35 -5 35 -15z m20 -44 c0 -11 -25 -21 -51 -21 -19 0
-25 11 -12 23 10 10 63 8 63 -2z m-12 -62 c-6 -17 -68 -20 -68 -3 0 9 12 14
36 14 22 0 34 -4 32 -11z m22 -49 c0 -5 -6 -10 -12 -10 -7 0 -23 -3 -35 -6
-17 -5 -23 -2 -23 10 0 12 9 16 35 16 19 0 35 -4 35 -10z m-10 -60 c0 -5 -18
-10 -41 -10 -24 0 -38 4 -34 10 3 6 22 10 41 10 19 0 34 -4 34 -10z m20 -50
c0 -5 -9 -10 -19 -10 -11 0 -26 -3 -35 -6 -11 -4 -16 -1 -16 10 0 12 10 16 35
16 19 0 35 -4 35 -10z m-12 -58 c2 -8 -9 -12 -32 -12 -43 0 -57 17 -19 23 37
5 46 3 51 -11z m22 -46 c0 -8 -14 -15 -35 -18 -42 -5 -49 18 -7 25 15 2 30 5
35 6 4 0 7 -5 7 -13z m-12 -63 c2 -9 -8 -13 -32 -13 -36 0 -56 14 -34 24 22 8
61 2 66 -11z m20 -45 c-6 -18 -68 -29 -68 -13 0 15 16 23 48 24 15 1 22 -4 20
-11z m12 -107 c0 -9 -33 -21 -57 -21 -7 0 -13 7 -13 15 0 10 11 15 35 15 19 0
35 -4 35 -9z m-20 -64 c0 -9 -11 -12 -35 -9 -41 5 -37 22 6 22 17 0 29 -5 29
-13z m30 -47 c0 -5 -9 -10 -19 -10 -11 0 -26 -3 -35 -6 -11 -4 -16 -1 -16 10
0 12 10 16 35 16 19 0 35 -4 35 -10z m-20 -60 c0 -5 -16 -10 -35 -10 -19 0
-35 5 -35 10 0 6 16 10 35 10 19 0 35 -4 35 -10z m30 -49 c0 -5 -16 -11 -35
-13 -24 -3 -35 0 -35 9 0 8 13 13 35 13 19 0 35 -4 35 -9z m-20 -56 c0 -10
-11 -15 -35 -15 -56 0 -41 25 18 29 9 0 17 -6 17 -14z m21 -50 c0 -5 -14 -13
-31 -16 -33 -7 -45 16 -12 24 25 7 43 4 43 -8z m-11 -60 c0 -16 -55 -22 -64
-6 -8 13 5 21 36 21 18 0 28 -5 28 -15z m30 -44 c0 -11 -25 -21 -51 -21 -19 0
-25 11 -12 23 10 10 63 8 63 -2z m-20 -63 c0 -8 -12 -12 -30 -12 -41 2 -42 3
-35 14 9 15 65 12 65 -2z m30 -48 c0 -5 -6 -10 -12 -10 -7 0 -23 -3 -35 -6
-17 -5 -23 -2 -23 10 0 12 9 16 35 16 19 0 35 -4 35 -10z m-20 -60 c0 -5 -16
-10 -35 -10 -19 0 -35 5 -35 10 0 6 16 10 35 10 19 0 35 -4 35 -10z m25 -49
c-6 -4 -22 -11 -37 -15 -21 -5 -28 -3 -28 9 0 11 11 15 37 15 22 0 33 -4 28
-9z m-15 -62 c0 -5 -16 -9 -35 -9 -41 0 -47 17 -7 22 31 4 42 1 42 -13z m25
-49 c-9 -14 -65 -18 -65 -4 0 7 12 14 28 16 31 4 44 0 37 -12z m-15 -55 c0
-10 -11 -15 -35 -15 -56 0 -41 25 18 29 9 0 17 -6 17 -14z m21 -50 c0 -16 -59
-24 -65 -9 -3 7 4 15 17 17 31 6 48 4 48 -8z m-11 -60 c0 -10 -11 -15 -35 -15
-33 0 -43 8 -28 23 13 14 63 7 63 -8z m18 -47 c-6 -16 -33 -22 -56 -13 -14 5
-14 7 -2 15 22 14 62 12 58 -2z m-8 -62 c0 -9 -10 -13 -32 -11 -45 3 -49 25
-4 25 24 0 36 -5 36 -14z m20 -45 c0 -10 -51 -22 -63 -14 -4 2 -5 9 -2 14 8
12 65 12 65 0z m-10 -61 c0 -5 -16 -10 -35 -10 -19 0 -35 5 -35 10 0 6 16 10
35 10 19 0 35 -4 35 -10z m20 -50 c0 -5 -11 -10 -25 -10 -14 0 -28 0 -32 -1
-4 0 -9 4 -11 10 -2 7 11 11 32 11 20 0 36 -4 36 -10z m-12 -58 c2 -8 -9 -12
-32 -12 -40 0 -49 16 -13 23 30 6 40 3 45 -11z m22 -47 c0 -9 -9 -15 -25 -15
-14 0 -28 0 -32 -1 -4 0 -9 4 -11 10 -2 5 9 11 25 14 15 2 31 5 36 6 4 0 7 -6
7 -14z m-10 -60 c0 -10 -11 -15 -35 -15 -33 0 -43 8 -28 23 13 14 63 7 63 -8z
m18 -47 c-5 -15 -68 -24 -68 -9 0 12 18 19 48 20 15 1 22 -4 20 -11z m-8 -61
c0 -8 -13 -13 -35 -14 -24 -1 -35 3 -35 13 0 9 12 14 35 14 22 0 35 -5 35 -13z
m20 -46 c0 -11 -59 -26 -67 -18 -3 3 -2 10 2 16 8 13 65 15 65 2z m-10 -61 c0
-5 -16 -10 -35 -10 -19 0 -35 5 -35 10 0 6 16 10 35 10 19 0 35 -4 35 -10z
m20 -50 c0 -5 -9 -10 -19 -10 -11 0 -26 -3 -35 -6 -11 -4 -16 -1 -16 10 0 12
10 16 35 16 19 0 35 -4 35 -10z m-12 -58 c2 -8 -9 -12 -32 -12 -40 0 -49 16
-13 23 30 6 40 3 45 -11z m22 -46 c0 -8 -14 -15 -35 -18 -42 -5 -49 18 -7 25
15 2 30 5 35 6 4 0 7 -5 7 -13z m-12 -58 c-5 -13 -43 -20 -66 -12 -24 8 -1 24
34 24 24 0 34 -4 32 -12z m22 -47 c0 -11 -59 -26 -67 -18 -3 3 -2 10 2 16 8
13 65 15 65 2z m-30 -105 c0 -2 -7 -6 -15 -10 -8 -3 -15 -1 -15 4 0 6 7 10 15
10 8 0 15 -2 15 -4z m50 -46 c0 -5 -4 -10 -10 -10 -5 0 -10 5 -10 10 0 6 5 10
10 10 6 0 10 -4 10 -10z m-70 -20 c0 -5 -4 -10 -10 -10 -5 0 -10 5 -10 10 0 6
5 10 10 10 6 0 10 -4 10 -10z m155 -60 c18 -40 18 -42 0 -76 -32 -61 -47 -37
-38 61 3 35 9 63 13 60 3 -2 15 -23 25 -45z m-173 -3 l-5 -32 -13 30 c-13 33
-10 47 10 39 8 -3 11 -16 8 -37z m78 18 c0 -8 -44 -23 -53 -18 -14 8 4 23 29
23 13 0 24 -2 24 -5z m-12 -63 c2 -7 -7 -12 -22 -12 -27 0 -35 15 -13 23 17 7
30 3 35 -11z m2 -51 c0 -5 -9 -11 -20 -14 -13 -3 -20 0 -20 9 0 8 9 14 20 14
11 0 20 -4 20 -9z m-95 -83 l0 -53 45 -6 45 -7 -50 2 c-49 1 -50 2 -53 35 -3
30 4 81 11 81 2 0 3 -24 2 -52z m165 -8 c0 -51 -3 -60 -17 -59 -11 0 -13 3 -5
6 7 3 12 25 12 59 0 30 2 54 5 54 3 0 5 -27 5 -60z m-70 40 c0 -5 -7 -10 -15
-10 -8 0 -15 5 -15 10 0 6 7 10 15 10 8 0 15 -4 15 -10z m-53 -66 c-3 -3 -12
-4 -19 -1 -8 3 -5 6 6 6 11 1 17 -2 13 -5z m121 -199 c1 -82 0 -160 -3 -173
-7 -29 -67 -56 -104 -47 -59 15 -61 23 -61 207 l0 169 83 -3 82 -3 3 -150z"/>
</g>
</svg>
