<?xml version="1.0" standalone="no"?>
<!DOCTYPE svg PUBLIC "-//W3C//DTD SVG 20010904//EN"
 "http://www.w3.org/TR/2001/REC-SVG-20010904/DTD/svg10.dtd">
<svg version="1.0" xmlns="http://www.w3.org/2000/svg"
 width="2360.000000pt" height="1640.000000pt" viewBox="0 0 2360.000000 1640.000000"
 preserveAspectRatio="xMidYMid meet">
<metadata>
Created by potrace 1.16, written by Peter Selinger 2001-2019
</metadata>
<g transform="translate(0.000000,1640.000000) scale(0.100000,-0.100000)"
fill="#000000" stroke="none">
<path d="M9230 13486 c-5 -15 -10 -82 -10 -148 0 -101 -3 -125 -17 -140 -14
-16 -15 -21 -4 -28 16 -9 15 -46 -24 -1265 -18 -580 -21 -753 -12 -761 8 -8
272 -24 791 -50 725 -35 779 -37 791 -21 16 22 20 126 46 1182 18 730 24 872
36 882 10 7 12 17 7 25 -5 7 -11 81 -14 163 l-5 150 -65 6 c-36 4 -249 9 -475
13 -225 3 -550 9 -722 13 l-312 6 -11 -27z m1103 -53 c296 -4 427 -10 428 -17
1 -25 -2 -231 -4 -232 -2 -3 -1481 27 -1484 30 -1 0 1 55 4 120 l6 119 311 -6
c171 -4 503 -10 739 -14z m-113 -294 c294 -6 536 -11 537 -12 0 -1 -7 -312
-18 -692 -10 -379 -21 -831 -25 -1002 -7 -304 -8 -313 -27 -313 -53 0 -1472
72 -1475 75 -3 3 10 447 43 1436 8 245 15 465 15 489 l0 42 208 -6 c114 -4
448 -11 742 -17z M13959 13506 c-2 -2 -238 -7 -524 -11 -286 -4 -549 -10 -585
-14 l-65 -6 -5 -150 c-3 -82 -9 -156 -14 -163 -5 -8 -3 -18 7 -25 12 -10 18
-152 36 -882 26 -1056 30 -1160 46 -1182 12 -16 66 -14 791 21 519 26 783 42
791 50 9 8 6 181 -12 761 -39 1219 -40 1256 -24 1265 11 7 10 12 -4 28 -14 15
-17 39 -17 140 0 66 -4 132 -10 146 l-10 26 -198 0 c-109 0 -201 -2 -203 -4z
m364 -173 c3 -65 5 -119 4 -119 -3 -3 -1482 -33 -1484 -30 -2 1 -5 205 -4 234
1 9 57 12 244 13 133 1 373 5 532 8 160 4 383 8 496 9 l206 3 6 -118z m7 -215
c0 -22 7 -242 15 -487 33 -989 46 -1433 43 -1436 -3 -3 -1422 -75 -1475 -75
-19 0 -20 9 -27 313 -4 171 -15 623 -25 1002 -11 380 -18 691 -17 692 1 1 258
7 571 13 314 6 604 12 645 13 41 2 119 4 173 5 l97 2 0 -42z"/>
</g>
</svg>
