<?xml version="1.0" standalone="no"?>
<!DOCTYPE svg PUBLIC "-//W3C//DTD SVG 20010904//EN"
 "http://www.w3.org/TR/2001/REC-SVG-20010904/DTD/svg10.dtd">
<svg version="1.0" xmlns="http://www.w3.org/2000/svg"
 width="2360.000000pt" height="1640.000000pt" viewBox="0 0 2360.000000 1640.000000"
 preserveAspectRatio="xMidYMid meet">
<metadata>
Created by potrace 1.16, written by Peter Selinger 2001-2019
</metadata>
<g transform="translate(0.000000,1640.000000) scale(0.100000,-0.100000)"
fill="#000000" stroke="none">
<path d="M10283 14347 c-35 -74 -66 -187 -148 -527 -137 -568 -165 -648 -383
-1093 -144 -295 -244 -474 -328 -588 -51 -68 -187 -230 -190 -226 -1 1 18 187
42 412 52 490 52 475 20 475 -13 0 -26 -4 -28 -9 -2 -5 -133 -13 -293 -16
-159 -4 -298 -12 -307 -17 -22 -11 -23 -34 -3 -42 8 -3 59 -3 112 -1 54 3 185
7 291 10 l192 5 0 -40 c0 -38 -1 -40 -32 -40 -18 0 -148 -5 -288 -11 -191 -8
-259 -15 -270 -25 -11 -11 -11 -17 -2 -26 9 -9 76 -9 293 0 155 7 284 11 286
9 2 -2 -13 -152 -33 -333 -19 -181 -34 -346 -32 -367 4 -37 0 -41 -167 -205
-93 -92 -213 -202 -265 -244 -116 -93 -195 -172 -186 -187 14 -22 48 -10 89
32 23 23 101 91 173 150 154 126 485 460 598 602 43 55 109 150 148 210 76
121 375 717 432 861 49 123 117 368 221 794 72 297 86 366 83 420 l-3 65 -22
-48z M13290 14327 c0 -115 224 -1001 306 -1211 57 -144 356 -740 432 -861 39
-60 105 -155 148 -210 113 -142 444 -476 598 -602 72 -59 150 -127 173 -150
41 -42 75 -54 89 -32 9 15 -70 94 -186 187 -52 42 -172 152 -265 244 -167 164
-171 168 -167 205 2 21 -13 186 -32 367 -20 181 -35 331 -33 333 2 2 131 -2
286 -9 217 -9 284 -9 293 0 9 9 9 15 -2 26 -11 10 -79 17 -270 25 -140 6 -270
11 -287 11 -32 0 -33 2 -33 40 l0 40 193 -5 c105 -3 236 -7 290 -10 53 -2 104
-2 112 1 20 8 19 31 -2 42 -10 5 -148 13 -308 17 -160 3 -291 11 -293 16 -2 5
-15 9 -28 9 -32 0 -32 15 20 -475 24 -225 43 -411 42 -412 -4 -5 -170 197
-216 263 -80 116 -168 276 -308 564 -212 432 -241 516 -376 1080 -77 319 -136
523 -161 556 -13 17 -14 12 -15 -49z"/>
</g>
</svg>
