<?xml version="1.0" standalone="no"?>
<!DOCTYPE svg PUBLIC "-//W3C//DTD SVG 20010904//EN"
 "http://www.w3.org/TR/2001/REC-SVG-20010904/DTD/svg10.dtd">
<svg version="1.0" xmlns="http://www.w3.org/2000/svg"
 width="2360.000000pt" height="1640.000000pt" viewBox="0 0 2360.000000 1640.000000"
 preserveAspectRatio="xMidYMid meet">
<metadata>
Created by potrace 1.16, written by Peter Selinger 2001-2019
</metadata>
<g transform="translate(0.000000,1640.000000) scale(0.100000,-0.100000)"
fill="#000000" stroke="none">
<path d="M8815 13392 l-29 -7 29 -20 c29 -20 43 -20 571 -16 367 2 612 -1 767
-10 220 -13 226 -13 222 -33 -3 -12 -12 -70 -20 -130 -26 -186 -56 -278 -153
-454 -143 -263 -372 -410 -812 -522 -167 -43 -243 -52 -460 -57 -118 -3 -221
-9 -229 -13 -11 -6 -7 -12 15 -26 25 -17 47 -19 184 -18 86 1 196 7 245 13 86
11 282 52 316 66 15 6 15 1 3 -43 -14 -58 -44 -335 -79 -752 -14 -162 -44
-504 -66 -760 -22 -256 -44 -563 -48 -683 -5 -120 -12 -221 -15 -224 -15 -15
-338 75 -567 158 -76 28 -148 49 -159 47 -19 -3 -20 -4 -5 -26 20 -27 45 -38
250 -108 165 -57 367 -111 514 -138 105 -20 304 -20 396 -1 213 45 285 98 324
235 46 162 61 255 102 628 37 350 53 488 84 732 50 389 125 1053 150 1316 35
379 51 495 81 604 14 52 31 118 38 146 7 27 16 55 19 61 11 17 -23 46 -42 37
-9 -5 -56 -7 -106 -7 -380 7 -1496 10 -1520 5z m1465 -918 c-17 -170 -34 -343
-40 -384 -5 -41 -26 -214 -45 -385 -20 -170 -51 -436 -70 -590 -19 -154 -48
-408 -65 -565 -42 -403 -59 -519 -81 -570 -10 -25 -28 -75 -39 -111 -33 -109
-112 -160 -290 -189 -122 -19 -338 -8 -333 17 1 5 7 113 12 239 15 322 127
1635 169 1964 9 74 16 168 16 207 l0 73 107 35 c319 107 533 273 647 502 20
40 37 71 39 70 1 -2 -11 -142 -27 -313z M13126 13385 c-9 -9 -13 -22 -9 -28 3
-6 12 -34 19 -61 7 -28 24 -94 38 -146 30 -109 46 -225 81 -604 25 -263 100
-927 150 -1316 31 -244 47 -382 84 -732 41 -373 56 -466 102 -628 39 -137 111
-190 324 -235 92 -19 291 -19 396 1 147 27 349 81 514 138 205 70 230 81 250
108 15 22 14 23 -5 26 -11 2 -83 -19 -159 -47 -229 -83 -552 -173 -567 -158
-3 3 -10 104 -15 224 -4 120 -26 427 -48 683 -22 256 -52 598 -66 760 -35 417
-65 694 -79 752 -12 44 -12 49 3 43 34 -14 230 -55 316 -66 49 -6 159 -12 245
-13 137 -1 159 1 184 18 22 14 26 20 15 26 -8 4 -111 10 -229 13 -217 5 -293
14 -460 57 -440 112 -669 259 -812 522 -97 176 -127 268 -153 454 -8 60 -17
118 -20 130 -4 20 2 20 222 33 155 9 400 12 767 10 525 -4 542 -3 570 16 l29
19 -39 9 c-31 6 -1013 3 -1509 -6 -49 0 -97 2 -106 7 -10 4 -23 1 -33 -9z
m291 -808 c112 -147 319 -281 562 -362 l107 -35 0 -73 c0 -39 7 -133 16 -207
42 -329 154 -1642 169 -1964 5 -126 11 -234 12 -239 5 -25 -211 -36 -333 -17
-178 29 -257 80 -290 189 -11 36 -29 86 -39 111 -22 51 -39 167 -81 570 -17
157 -46 411 -65 565 -19 154 -51 420 -70 590 -20 171 -42 364 -50 430 -8 66
-23 219 -35 340 -11 121 -22 243 -25 270 l-6 50 44 -82 c24 -45 62 -106 84
-136z"/>
</g>
</svg>
