<?xml version="1.0" standalone="no"?>
<!DOCTYPE svg PUBLIC "-//W3C//DTD SVG 20010904//EN"
 "http://www.w3.org/TR/2001/REC-SVG-20010904/DTD/svg10.dtd">
<svg version="1.0" xmlns="http://www.w3.org/2000/svg"
 width="2360.000000pt" height="1640.000000pt" viewBox="0 0 2360.000000 1640.000000"
 preserveAspectRatio="xMidYMid meet">
<metadata>
Created by potrace 1.16, written by Peter Selinger 2001-2019
</metadata>
<g transform="translate(0.000000,1640.000000) scale(0.100000,-0.100000)"
fill="#000000" stroke="none">
<path d="M10063 14365 c-19 -13 -20 -28 -26 -247 -24 -929 -263 -1877 -605
-2398 -74 -113 -209 -247 -287 -285 -132 -65 -262 -38 -367 74 -29 31 -68 78
-85 104 -34 49 -52 57 -73 32 -27 -33 116 -203 217 -258 298 -161 644 149 902
808 215 547 343 1232 367 1955 6 174 5 207 -8 217 -11 10 -19 9 -35 -2z
M13500 14365 c-10 -12 -12 -59 -6 -218 29 -851 210 -1680 485 -2219 177 -347
367 -539 571 -578 141 -27 295 58 405 222 31 48 36 60 25 73 -21 25 -39 17
-73 -32 -135 -199 -287 -259 -452 -178 -78 38 -213 172 -287 285 -343 522
-579 1463 -607 2409 -6 213 -7 224 -27 238 -18 12 -23 11 -34 -2z"/>
</g>
</svg>
