<?xml version="1.0" standalone="no"?>
<!DOCTYPE svg PUBLIC "-//W3C//DTD SVG 20010904//EN"
 "http://www.w3.org/TR/2001/REC-SVG-20010904/DTD/svg10.dtd">
<svg version="1.0" xmlns="http://www.w3.org/2000/svg"
 width="2360.000000pt" height="1640.000000pt" viewBox="0 0 2360.000000 1640.000000"
 preserveAspectRatio="xMidYMid meet">
<metadata>
Created by potrace 1.16, written by Peter Selinger 2001-2019
</metadata>
<g transform="translate(0.000000,1640.000000) scale(0.100000,-0.100000)"
fill="#000000" stroke="none">
<path d="M10296 14378 c-29 -45 -78 -213 -157 -541 -142 -589 -168 -663 -387
-1110 -203 -416 -286 -549 -463 -752 -121 -139 -426 -436 -537 -525 -93 -73
-192 -179 -192 -206 0 -8 10 -14 24 -14 16 0 35 15 62 49 22 27 100 99 174
159 157 128 489 462 604 607 43 55 109 150 148 210 76 121 375 717 432 861 49
126 110 343 201 716 42 174 92 360 111 414 19 54 34 109 32 123 -4 34 -33 39
-52 9z M13257 14393 c-14 -13 -6 -55 27 -148 19 -53 69 -239 111 -413 91 -373
152 -590 201 -716 57 -144 356 -740 432 -861 39 -60 105 -155 148 -210 115
-145 447 -479 604 -607 74 -60 152 -132 174 -159 27 -34 46 -49 62 -49 14 0
24 6 24 14 0 27 -99 133 -192 206 -118 93 -420 390 -548 538 -172 198 -251
328 -458 752 -213 434 -239 511 -381 1097 -79 326 -128 496 -157 541 -14 22
-34 28 -47 15z"/>
</g>
</svg>
