<?xml version="1.0" standalone="no"?>
<!DOCTYPE svg PUBLIC "-//W3C//DTD SVG 20010904//EN"
 "http://www.w3.org/TR/2001/REC-SVG-20010904/DTD/svg10.dtd">
<svg version="1.0" xmlns="http://www.w3.org/2000/svg"
 width="2048.000000pt" height="2048.000000pt" viewBox="0 0 2048.000000 2048.000000"
 preserveAspectRatio="xMidYMid meet">
<metadata>
Created by potrace 1.16, written by Peter Selinger 2001-2019
</metadata>
<g transform="translate(0.000000,2048.000000) scale(0.100000,-0.100000)"
fill="#000000" stroke="none">
<path d="M1314 11343 c-26 -38 -94 -129 -150 -203 -91 -121 -109 -155 -105
-197 1 -7 92 -89 204 -182 111 -93 292 -245 402 -338 607 -509 1091 -916 1350
-1133 161 -135 441 -370 624 -523 182 -153 329 -283 326 -288 -4 -5 2 -9 12
-9 10 1 92 72 183 159 126 122 162 162 154 171 -13 13 -46 -15 -227 -187 -78
-74 -90 -83 -105 -71 -26 20 -424 353 -662 553 -118 100 -386 325 -595 500
-209 175 -661 555 -1005 844 -344 288 -627 525 -628 527 -5 3 51 81 183 259
58 77 105 148 105 157 0 37 -20 25 -66 -39z M19104 11396 c-9 -23 -5 -28 110
-184 140 -189 179 -243 175 -246 -2 -1 -285 -239 -629 -527 -344 -289 -796
-669 -1005 -844 -209 -175 -477 -400 -595 -500 -238 -200 -636 -533 -662 -553
-15 -12 -27 -3 -105 71 -181 172 -214 200 -227 187 -8 -9 28 -49 154 -171 91
-87 173 -158 183 -159 10 0 16 4 12 9 -3 5 144 135 326 288 183 153 463 388
624 523 259 217 743 624 1350 1133 110 93 291 245 403 338 111 93 202 175 203
182 4 42 -16 78 -134 237 -73 97 -142 190 -154 206 -19 26 -22 27 -29 10z"/>
</g>
</svg>
