<?xml version="1.0" standalone="no"?>
<!DOCTYPE svg PUBLIC "-//W3C//DTD SVG 20010904//EN"
 "http://www.w3.org/TR/2001/REC-SVG-20010904/DTD/svg10.dtd">
<svg version="1.0" xmlns="http://www.w3.org/2000/svg"
 width="2048.000000pt" height="2048.000000pt" viewBox="0 0 2048.000000 2048.000000"
 preserveAspectRatio="xMidYMid meet">
<metadata>
Created by potrace 1.16, written by Peter Selinger 2001-2019
</metadata>
<g transform="translate(0.000000,2048.000000) scale(0.100000,-0.100000)"
fill="#000000" stroke="none">
<path d="M1194 11213 c-140 -207 -206 -300 -360 -508 -59 -80 -64 -91 -49
-100 10 -5 30 -23 44 -38 14 -16 79 -74 144 -130 64 -56 117 -107 117 -114 0
-7 7 -13 15 -13 9 0 68 -44 133 -98 64 -54 169 -138 232 -187 121 -94 403
-319 525 -420 40 -33 162 -132 271 -220 342 -278 551 -452 691 -578 210 -189
236 -211 371 -310 69 -50 143 -106 166 -122 23 -17 76 -52 118 -78 60 -37 83
-46 102 -41 15 3 96 76 189 168 89 89 215 203 280 255 116 93 144 131 96 131
-41 0 -191 -123 -414 -340 l-160 -156 -53 35 -52 35 270 271 c148 148 270 275
270 282 0 40 -47 0 -300 -252 l-278 -277 -61 43 c-33 24 -61 46 -61 49 0 3
126 127 280 275 257 247 308 305 267 305 -7 0 -141 -124 -298 -275 -156 -151
-288 -274 -294 -275 -5 0 -27 15 -47 33 l-38 32 255 270 c141 149 263 280 272
293 18 26 5 50 -19 36 -8 -5 -117 -119 -242 -254 -126 -135 -246 -263 -266
-284 l-38 -39 -46 38 c-25 20 -46 41 -46 45 0 4 119 133 265 286 146 153 265
284 265 291 0 28 -23 21 -64 -19 -24 -24 -147 -151 -272 -283 -125 -132 -231
-241 -234 -243 -3 -1 -24 17 -47 40 l-42 43 240 265 c273 301 279 308 258 320
-18 12 -19 11 -297 -297 l-236 -262 -45 41 c-25 23 -47 45 -49 49 -1 3 112
130 253 282 140 151 255 283 255 291 0 9 -6 16 -14 16 -10 0 -349 -356 -521
-548 -10 -11 -18 -8 -43 13 l-31 26 249 277 c138 152 250 283 250 290 0 41
-57 -13 -283 -263 l-249 -276 -36 33 c-20 17 -37 35 -37 38 0 4 116 130 258
279 141 150 257 279 257 286 0 32 -24 24 -68 -22 -26 -26 -146 -153 -266 -280
-120 -128 -221 -233 -225 -233 -8 1 -61 47 -61 54 0 3 117 132 260 287 143
155 260 288 260 296 0 35 -46 -3 -180 -147 -79 -85 -197 -212 -261 -282 l-118
-127 -40 32 c-22 18 -40 35 -40 39 -1 4 83 103 187 220 315 358 332 378 332
388 0 6 -9 10 -19 10 -13 0 -106 -97 -277 -292 -142 -161 -259 -295 -260 -296
-1 -2 -30 18 -62 46 l-60 50 255 278 c140 154 259 287 264 297 7 13 6 19 -6
24 -20 7 -15 13 -310 -312 -125 -137 -232 -251 -236 -253 -5 -2 -40 22 -79 54
l-72 58 279 278 c153 152 278 283 278 289 0 39 -53 -6 -305 -255 -153 -152
-282 -276 -287 -276 -5 0 -31 19 -57 43 l-49 43 229 224 c126 124 253 248 283
277 50 49 60 72 33 81 -6 2 -111 -95 -234 -215 -323 -317 -344 -336 -361 -326
-25 15 -116 88 -117 93 0 3 124 129 275 280 151 151 274 279 272 285 -2 5 -11
10 -20 10 -8 0 -137 -120 -285 -267 -149 -148 -276 -268 -284 -268 -7 0 -33
18 -58 39 l-45 39 50 54 c27 29 146 156 265 282 118 125 219 234 223 242 5 9
2 16 -8 20 -21 8 -32 -3 -323 -313 -130 -139 -240 -253 -244 -253 -5 0 -31 18
-59 40 l-50 39 271 288 c248 264 294 323 256 323 -7 0 -128 -123 -268 -272
-141 -150 -265 -281 -276 -292 -21 -18 -22 -18 -64 15 -24 18 -45 34 -46 35
-2 2 110 129 250 284 139 155 257 288 261 296 11 19 0 35 -18 27 -8 -3 -130
-133 -270 -289 -279 -310 -258 -294 -322 -237 l-32 28 264 305 c146 168 263
311 262 319 -1 8 -7 16 -13 18 -7 2 -132 -136 -278 -307 l-267 -311 -44 37
c-25 20 -45 40 -45 45 0 4 119 150 265 325 172 206 262 321 256 327 -5 5 -16
7 -24 4 -7 -3 -128 -142 -267 -309 -139 -166 -257 -307 -261 -312 -9 -11 -90
55 -85 70 2 6 117 151 256 324 164 205 248 316 241 323 -5 5 -16 7 -23 4 -10
-3 -436 -523 -504 -615 -9 -13 -17 -10 -47 19 l-37 34 250 330 c138 182 249
336 248 344 -2 8 -8 16 -14 18 -6 2 -124 -147 -263 -332 -139 -184 -254 -335
-256 -335 -1 0 -19 7 -39 15 l-37 16 39 47 c22 26 66 85 99 132 33 47 89 126
125 175 35 50 116 166 178 259 88 131 111 172 103 184 -5 9 -14 17 -20 19 -6
2 -78 -94 -159 -214z M19112 11418 c-7 -7 -12 -16 -12 -21 0 -11 194 -301 288
-432 36 -49 92 -128 125 -175 33 -47 77 -106 99 -132 l39 -47 -37 -16 c-20 -8
-38 -15 -39 -15 -2 0 -117 151 -256 335 -139 185 -257 334 -263 332 -6 -2 -12
-10 -14 -18 -1 -8 110 -162 248 -344 l250 -330 -37 -34 c-30 -29 -38 -32 -47
-19 -68 92 -494 612 -504 615 -7 3 -18 1 -23 -4 -7 -7 77 -118 241 -323 139
-173 254 -318 256 -324 5 -15 -76 -81 -85 -70 -4 5 -122 146 -261 312 -139
167 -260 306 -267 309 -8 3 -19 1 -24 -4 -6 -6 84 -121 256 -327 146 -175 265
-321 265 -325 0 -5 -20 -25 -45 -45 l-44 -37 -267 311 c-146 171 -271 309
-278 307 -6 -2 -12 -10 -13 -18 -1 -8 116 -151 262 -319 l263 -305 -31 -28
c-65 -57 -43 -73 -322 237 -140 156 -262 286 -270 289 -18 8 -29 -8 -18 -27 4
-8 122 -141 261 -296 140 -155 252 -282 250 -284 -1 -1 -22 -17 -46 -35 -42
-33 -43 -33 -64 -15 -11 11 -135 142 -276 292 -140 149 -261 272 -268 272 -38
0 8 -59 256 -323 l271 -288 -50 -39 c-28 -22 -54 -40 -59 -40 -4 0 -114 114
-244 253 -291 310 -302 321 -323 313 -10 -4 -13 -11 -8 -20 4 -8 105 -117 223
-242 119 -126 238 -253 265 -282 l50 -54 -45 -39 c-25 -21 -51 -39 -58 -39 -8
0 -135 120 -284 268 -148 147 -277 267 -285 267 -9 0 -18 -5 -20 -10 -2 -6
121 -134 272 -285 151 -151 275 -277 275 -280 -1 -5 -92 -78 -117 -93 -17 -10
-38 9 -361 326 -123 120 -228 217 -234 215 -27 -9 -17 -32 33 -81 30 -29 157
-153 283 -277 l229 -224 -49 -43 c-26 -24 -52 -43 -57 -43 -5 0 -134 124 -287
276 -252 249 -305 294 -305 255 0 -6 125 -137 278 -289 l279 -278 -72 -58
c-39 -32 -74 -56 -79 -54 -4 2 -111 116 -236 253 -295 325 -290 319 -310 312
-12 -5 -13 -11 -6 -24 5 -10 124 -143 264 -297 l255 -278 -60 -50 c-32 -28
-61 -48 -62 -46 -1 1 -118 135 -260 296 -171 195 -264 292 -277 292 -40 0 -60
26 313 -398 104 -117 188 -216 187 -220 0 -4 -18 -21 -40 -39 l-40 -32 -118
127 c-64 70 -182 197 -261 282 -134 144 -180 182 -180 147 0 -8 117 -141 260
-296 143 -155 260 -284 260 -287 0 -7 -53 -53 -61 -54 -4 0 -105 105 -225 233
-120 127 -240 254 -266 280 -44 46 -68 54 -68 22 0 -7 116 -136 258 -286 141
-149 257 -275 257 -279 0 -3 -17 -21 -37 -38 l-36 -33 -249 276 c-226 250
-283 304 -283 263 0 -7 112 -138 250 -290 l249 -277 -31 -26 c-25 -21 -33 -24
-43 -13 -172 192 -511 548 -521 548 -8 0 -14 -7 -14 -16 0 -8 115 -140 255
-291 141 -152 254 -279 253 -282 -2 -4 -24 -26 -49 -49 l-45 -41 -236 262
c-278 308 -279 309 -297 297 -21 -12 -15 -19 258 -320 l240 -265 -42 -43 c-23
-23 -44 -41 -47 -40 -3 2 -109 111 -234 243 -125 132 -248 259 -272 283 -41
40 -64 47 -64 19 0 -7 119 -138 265 -291 146 -153 265 -282 265 -286 0 -4 -21
-25 -46 -45 l-46 -38 -38 39 c-20 21 -140 149 -266 284 -125 135 -234 249
-242 254 -24 14 -37 -10 -19 -36 9 -13 131 -144 272 -293 l255 -270 -38 -32
c-20 -18 -41 -33 -47 -33 -5 1 -138 124 -294 275 -157 151 -291 275 -298 275
-41 0 10 -58 267 -305 154 -148 280 -272 280 -275 0 -3 -28 -25 -61 -49 l-61
-43 -278 277 c-253 252 -300 292 -300 252 0 -7 122 -134 270 -282 l270 -271
-52 -35 -53 -35 -160 156 c-223 217 -373 340 -414 340 -48 0 -20 -38 97 -131
64 -52 190 -166 279 -255 93 -92 174 -165 189 -168 19 -5 42 4 102 41 42 26
95 61 118 78 23 16 97 72 166 122 135 99 161 121 371 310 140 126 349 300 691
578 109 88 231 187 271 220 122 101 404 326 525 420 63 49 168 133 232 187 65
54 124 98 133 98 8 0 15 6 15 13 0 7 53 58 118 114 64 56 129 114 143 130 14
15 34 33 44 38 15 9 10 20 -49 100 -153 208 -220 301 -359 508 -82 119 -151
217 -155 217 -5 0 -13 -5 -20 -12z"/>
</g>
</svg>
