<?xml version="1.0" standalone="no"?>
<!DOCTYPE svg PUBLIC "-//W3C//DTD SVG 20010904//EN"
 "http://www.w3.org/TR/2001/REC-SVG-20010904/DTD/svg10.dtd">
<svg version="1.0" xmlns="http://www.w3.org/2000/svg"
 width="2360.000000pt" height="1640.000000pt" viewBox="0 0 2360.000000 1640.000000"
 preserveAspectRatio="xMidYMid meet">
<metadata>
Created by potrace 1.16, written by Peter Selinger 2001-2019
</metadata>
<g transform="translate(0.000000,1640.000000) scale(0.100000,-0.100000)"
fill="#000000" stroke="none">
<path d="M11124 14645 c-61 -42 -25 -144 71 -200 15 -9 16 -19 6 -101 -18
-150 -111 -414 -201 -569 -78 -134 -254 -490 -283 -571 -14 -39 -42 -129 -62
-200 -77 -268 -138 -415 -227 -547 -21 -31 -58 -106 -82 -165 -42 -104 -54
-149 -75 -272 -5 -30 -18 -98 -30 -150 -49 -228 -64 -386 -41 -430 6 -11 42
-51 80 -90 62 -63 74 -71 102 -68 51 5 69 48 79 181 13 201 64 461 121 617 22
62 39 124 64 225 25 106 62 210 109 310 24 50 59 132 79 183 41 107 75 169
126 232 20 25 48 65 61 90 14 25 41 70 59 100 19 30 64 105 101 165 56 92 73
129 99 225 17 63 42 151 55 195 55 181 66 270 64 509 -1 233 -4 250 -51 293
-53 50 -178 71 -224 38z m152 -49 c82 -38 109 -93 55 -116 -42 -17 -75 -10
-79 18 -4 26 -11 28 -27 5 -12 -16 -14 -16 -39 0 -14 10 -33 29 -43 43 -17 26
-16 27 11 50 34 30 58 30 122 0z m84 -336 c0 -138 -4 -188 -24 -286 -14 -66
-29 -131 -35 -146 -5 -15 -26 -89 -47 -165 -23 -87 -48 -157 -68 -190 -17 -28
-47 -78 -67 -110 -19 -32 -62 -103 -94 -158 -33 -55 -71 -114 -85 -131 -47
-55 -99 -149 -136 -245 -20 -52 -57 -137 -82 -189 -53 -110 -87 -201 -103
-279 -11 -58 -44 -172 -78 -276 -37 -115 -51 -168 -70 -269 -35 -181 -51 -296
-51 -360 0 -77 -15 -126 -40 -126 -10 0 -48 30 -84 68 l-66 67 0 65 c0 66 15
167 52 340 11 52 28 140 38 196 21 120 83 280 144 373 92 138 151 283 226 546
38 133 83 261 120 335 121 245 180 358 226 438 87 147 185 425 205 578 l11 90
54 0 54 1 0 -167z M12310 14644 c-41 -18 -77 -49 -95 -84 -9 -18 -13 -88 -14
-246 -2 -239 9 -328 64 -509 13 -44 38 -132 55 -195 26 -96 43 -133 99 -225
37 -60 82 -135 101 -165 18 -30 45 -75 59 -100 13 -25 41 -65 61 -90 51 -63
85 -125 126 -232 20 -51 55 -133 79 -183 47 -100 84 -204 109 -310 25 -101 42
-163 64 -225 57 -156 108 -416 121 -617 10 -133 28 -176 79 -181 28 -3 40 5
102 68 38 39 74 79 80 90 23 44 8 202 -41 430 -12 52 -25 120 -30 150 -21 123
-33 168 -75 272 -24 59 -61 134 -82 165 -89 132 -150 279 -227 547 -20 71 -48
161 -62 200 -29 81 -205 437 -283 571 -90 155 -183 419 -201 569 -10 82 -9 92
6 101 96 56 132 158 71 200 -27 19 -121 19 -166 -1z m136 -48 c27 -23 28 -24
11 -50 -10 -14 -29 -33 -43 -43 -25 -16 -27 -16 -39 0 -16 23 -23 21 -27 -5
-4 -28 -37 -35 -79 -18 -54 23 -27 78 55 116 64 30 88 30 122 0z m-87 -260
c20 -153 118 -431 205 -578 46 -80 105 -193 226 -438 37 -74 82 -202 120 -335
75 -263 134 -408 226 -546 61 -93 123 -253 144 -373 10 -56 27 -144 38 -196
35 -162 52 -272 52 -340 l0 -65 -66 -67 c-36 -38 -74 -68 -84 -68 -25 0 -40
49 -40 126 0 64 -16 179 -51 360 -19 101 -33 154 -70 269 -34 104 -67 218 -78
276 -16 78 -50 169 -103 279 -25 52 -62 137 -82 189 -37 96 -89 190 -136 245
-14 17 -52 76 -85 131 -32 55 -75 126 -94 158 -20 32 -50 82 -67 110 -20 33
-45 103 -68 190 -21 76 -42 150 -47 165 -6 15 -21 80 -35 146 -20 98 -24 148
-24 286 l0 167 54 -1 54 0 11 -90z"/>
</g>
</svg>
