<?xml version="1.0" standalone="no"?>
<!DOCTYPE svg PUBLIC "-//W3C//DTD SVG 20010904//EN"
 "http://www.w3.org/TR/2001/REC-SVG-20010904/DTD/svg10.dtd">
<svg version="1.0" xmlns="http://www.w3.org/2000/svg"
 width="2360.000000pt" height="1640.000000pt" viewBox="0 0 2360.000000 1640.000000"
 preserveAspectRatio="xMidYMid meet">
<metadata>
Created by potrace 1.16, written by Peter Selinger 2001-2019
</metadata>
<g transform="translate(0.000000,1640.000000) scale(0.100000,-0.100000)"
fill="#000000" stroke="none">
<path d="M11124 14645 c-33 -22 -38 -71 -13 -121 l20 -43 -60 -103 c-94 -161
-100 -177 -267 -672 -56 -167 -94 -388 -94 -550 0 -85 -5 -115 -30 -191 -16
-49 -38 -108 -50 -130 -14 -27 -20 -58 -20 -103 0 -53 4 -67 25 -87 30 -31 84
-34 109 -6 10 11 28 62 41 113 31 125 69 255 89 300 13 29 16 74 16 205 1 258
14 325 93 490 37 76 72 157 78 180 7 24 31 65 54 92 57 66 80 105 109 182 47
123 96 218 119 230 71 37 74 112 5 176 -53 50 -178 71 -224 38z m123 -35 c29
-11 30 -13 32 -76 2 -62 0 -65 -19 -60 -11 3 -29 9 -40 12 -23 6 -23 8 -11 52
11 37 2 41 -24 12 -23 -26 -32 -25 -46 2 -10 19 -8 25 15 45 30 26 49 28 93
13z m105 -74 c13 -29 5 -56 -17 -56 -11 0 -15 11 -15 40 0 45 15 52 32 16z
m-82 -123 c0 -7 -15 -45 -34 -85 -19 -40 -45 -100 -57 -132 -13 -33 -49 -92
-80 -131 -38 -47 -65 -93 -79 -134 -11 -34 -38 -97 -60 -139 -91 -179 -109
-264 -110 -525 0 -165 -4 -187 -72 -382 -6 -16 -19 -68 -30 -115 -22 -100 -36
-119 -73 -102 -22 10 -25 18 -25 61 0 29 9 70 24 102 52 119 76 221 76 326 0
156 36 369 88 529 140 425 198 565 297 719 l33 52 51 -16 c28 -9 51 -22 51
-28z M12310 14644 c-62 -27 -110 -86 -110 -136 0 -27 26 -61 57 -77 23 -12 72
-107 119 -230 29 -77 52 -116 109 -182 23 -27 47 -68 54 -92 6 -23 41 -104 78
-180 79 -165 92 -232 93 -490 0 -131 3 -176 16 -205 20 -45 58 -175 89 -300
13 -51 31 -102 41 -113 25 -28 79 -25 109 6 21 20 25 34 25 87 0 45 -6 76 -20
103 -12 22 -34 81 -50 130 -25 76 -30 106 -30 191 0 168 -41 398 -103 579 -19
55 -60 173 -90 263 -67 194 -89 244 -168 380 l-60 103 20 43 c25 50 20 99 -13
121 -27 19 -121 19 -166 -1z m136 -47 c23 -20 25 -26 15 -45 -14 -27 -23 -28
-46 -2 -26 29 -35 25 -24 -12 12 -44 12 -46 -11 -52 -11 -3 -29 -9 -40 -12
-19 -5 -21 -2 -19 60 2 61 4 66 28 75 43 16 68 12 97 -12z m-166 -77 c0 -29
-4 -40 -15 -40 -22 0 -30 27 -17 56 17 36 32 29 32 -16z m210 -156 c94 -158
132 -255 272 -678 52 -160 88 -373 88 -529 0 -105 24 -207 76 -326 15 -32 24
-73 24 -102 0 -43 -3 -51 -25 -61 -37 -17 -51 2 -73 102 -11 47 -24 99 -30
115 -68 195 -72 217 -72 382 -1 261 -19 346 -110 525 -22 42 -49 105 -60 139
-14 41 -41 87 -79 134 -31 39 -67 98 -80 131 -12 32 -38 92 -57 132 -19 40
-34 78 -34 85 0 12 88 46 102 39 5 -2 30 -41 58 -88z"/>
</g>
</svg>
