<?xml version="1.0" standalone="no"?>
<!DOCTYPE svg PUBLIC "-//W3C//DTD SVG 20010904//EN"
 "http://www.w3.org/TR/2001/REC-SVG-20010904/DTD/svg10.dtd">
<svg version="1.0" xmlns="http://www.w3.org/2000/svg"
 width="2360.000000pt" height="1640.000000pt" viewBox="0 0 2360.000000 1640.000000"
 preserveAspectRatio="xMidYMid meet">
<metadata>
Created by potrace 1.16, written by Peter Selinger 2001-2019
</metadata>
<g transform="translate(0.000000,1640.000000) scale(0.100000,-0.100000)"
fill="#000000" stroke="none">
<path d="M11120 14642 c-32 -26 -32 -90 -2 -132 28 -37 29 -30 -60 -255 -62
-155 -140 -310 -214 -427 -42 -65 -188 -358 -214 -428 -8 -19 -34 -75 -58
-125 -43 -87 -58 -120 -155 -361 -62 -154 -122 -359 -163 -559 -19 -93 -41
-199 -49 -235 -8 -36 -18 -113 -22 -172 l-6 -108 37 -74 c38 -77 79 -121 123
-132 55 -14 57 -5 65 217 10 325 36 465 136 729 28 74 69 192 92 262 40 124
194 446 244 512 48 65 147 247 172 317 15 41 32 81 38 89 23 28 143 275 159
325 24 75 67 261 67 289 0 35 10 56 27 56 22 0 63 50 63 77 0 52 -48 111 -112
138 -52 21 -140 20 -168 -3z m157 -46 c76 -36 111 -106 57 -114 -16 -2 -22 6
-33 48 -8 33 -18 50 -28 50 -13 0 -15 -9 -9 -54 l6 -55 -30 9 c-43 12 -50 19
-50 46 0 26 -9 31 -27 13 -8 -8 -14 -5 -23 12 -11 20 -10 25 14 46 34 29 58
29 123 -1z m-34 -162 c23 -6 27 -11 27 -42 0 -62 -50 -252 -66 -252 -8 0 -32
9 -54 20 -22 11 -47 20 -57 20 -23 0 39 -64 79 -81 34 -14 34 -15 -29 -142
-54 -110 -79 -147 -99 -147 -8 0 -32 19 -54 42 -21 23 -42 39 -46 36 -19 -20
35 -106 76 -120 13 -4 12 -14 -6 -71 -12 -37 -42 -100 -65 -141 -37 -64 -48
-75 -71 -76 -20 0 -34 10 -54 38 -16 20 -36 44 -45 52 -17 14 -16 19 15 85 18
39 57 108 87 155 73 113 176 324 238 487 28 73 51 138 51 144 0 7 9 9 23 5 12
-4 34 -9 50 -12z m-439 -961 c15 -18 34 -33 41 -33 26 0 25 -19 -1 -57 -14
-21 -37 -60 -50 -86 -14 -26 -31 -50 -39 -54 -23 -8 -81 6 -106 26 l-22 17 27
70 c15 38 42 97 59 132 32 63 32 63 47 40 8 -12 28 -37 44 -55z m-184 -233 c0
-14 55 -40 85 -40 14 0 25 -4 25 -8 0 -8 -109 -252 -116 -261 -8 -10 -77 12
-99 32 l-26 22 31 75 c49 120 83 190 92 190 4 0 8 -4 8 -10z m-66 -346 c53
-18 52 -11 11 -124 -13 -36 -26 -75 -30 -88 -5 -18 -11 -21 -33 -16 -15 4 -39
13 -54 20 -15 8 -34 14 -43 14 -8 0 -15 6 -15 14 0 15 37 123 66 191 14 35 16
36 33 21 10 -9 39 -23 65 -32z m-90 -264 c45 0 47 -12 16 -88 -16 -39 -32 -87
-35 -105 -12 -60 -17 -62 -76 -31 -30 16 -55 29 -57 30 -4 1 36 154 63 241 3
7 16 1 36 -18 17 -16 41 -29 53 -29z m-144 -240 c0 -6 20 -20 45 -32 51 -25
54 -35 30 -133 -8 -33 -14 -79 -15 -102 0 -24 -2 -43 -4 -43 -3 0 -32 12 -66
27 -52 22 -61 30 -57 47 3 12 16 72 28 134 13 61 27 112 31 112 4 0 8 -5 8
-10z m-35 -320 c5 0 24 -10 42 -22 l33 -23 0 -172 c0 -152 -2 -173 -16 -173
-24 0 -74 58 -102 119 -23 50 -24 61 -18 155 3 56 9 111 12 124 6 21 8 21 24
7 9 -8 20 -15 25 -15z M12310 14644 c-63 -27 -110 -86 -110 -137 0 -27 41 -77
63 -77 17 0 27 -21 27 -56 0 -28 43 -214 67 -289 16 -50 136 -297 159 -325 6
-8 23 -48 38 -89 25 -70 124 -252 172 -317 50 -66 204 -388 244 -512 23 -70
64 -188 92 -262 100 -264 126 -404 136 -729 8 -222 10 -231 65 -217 44 11 85
55 123 132 l37 74 -6 108 c-4 59 -14 136 -22 172 -8 36 -30 142 -49 235 -41
200 -101 405 -163 559 -97 241 -112 274 -155 361 -24 50 -50 106 -58 125 -26
70 -172 363 -214 428 -74 117 -152 272 -214 427 -89 225 -88 218 -60 255 30
42 30 106 -2 132 -28 23 -120 24 -170 2z m136 -47 c24 -21 25 -26 14 -46 -9
-17 -15 -20 -23 -12 -18 18 -27 13 -27 -13 0 -27 -7 -34 -50 -46 l-30 -9 6 55
c6 45 4 54 -9 54 -10 0 -20 -17 -28 -50 -11 -42 -17 -50 -33 -48 -54 8 -19 78
57 114 65 30 89 30 123 1z m-16 -157 c0 -6 23 -70 51 -143 62 -163 165 -374
238 -487 30 -47 69 -116 87 -155 31 -66 32 -71 15 -85 -9 -8 -29 -32 -45 -52
-20 -28 -34 -38 -54 -38 -23 1 -34 12 -71 76 -23 41 -53 104 -65 141 -18 57
-19 67 -6 71 41 14 95 100 76 120 -4 3 -25 -13 -46 -36 -22 -23 -46 -42 -54
-42 -20 0 -45 37 -99 147 -63 127 -63 128 -29 142 40 17 102 81 79 81 -10 0
-35 -9 -57 -20 -22 -11 -46 -20 -54 -20 -16 0 -66 190 -66 251 0 32 3 36 38
46 51 14 62 15 62 3z m507 -1064 l36 -90 -22 -18 c-25 -19 -83 -33 -105 -25
-7 3 -32 39 -55 81 -22 41 -45 78 -51 81 -17 11 -11 23 17 37 15 7 43 34 62
60 l35 47 24 -42 c13 -23 40 -82 59 -131z m86 -183 c14 -32 40 -92 57 -133
l31 -75 -26 -22 c-22 -20 -91 -42 -99 -32 -7 9 -116 253 -116 261 0 4 11 8 25
8 30 0 85 26 85 40 0 26 19 5 43 -47z m151 -365 c40 -108 43 -128 21 -128 -9
0 -28 -6 -43 -14 -15 -7 -39 -16 -54 -20 -22 -5 -28 -2 -33 16 -4 13 -17 52
-30 88 -41 114 -42 106 14 125 27 9 55 23 62 31 17 20 22 13 63 -98z m59 -170
c2 -13 16 -68 31 -122 14 -55 25 -100 24 -100 -2 -1 -27 -14 -57 -30 -59 -31
-64 -29 -76 31 -3 18 -19 66 -35 105 -31 76 -29 88 16 88 12 0 34 13 50 28 33
32 40 32 47 0z m86 -370 c12 -62 25 -122 28 -134 4 -17 -5 -25 -57 -47 -34
-15 -63 -27 -66 -27 -2 0 -4 19 -4 43 -1 23 -7 69 -15 102 -24 98 -21 108 30
133 25 12 45 26 45 32 0 5 4 10 8 10 4 0 18 -51 31 -112z m58 -333 c5 -95 4
-106 -19 -156 -28 -61 -78 -119 -102 -119 -14 0 -16 21 -16 173 l0 172 33 23
c18 12 38 22 44 22 6 0 16 7 24 16 12 14 14 13 21 -6 5 -13 11 -69 15 -125z"/>
</g>
</svg>
