<?xml version="1.0" standalone="no"?>
<!DOCTYPE svg PUBLIC "-//W3C//DTD SVG 20010904//EN"
 "http://www.w3.org/TR/2001/REC-SVG-20010904/DTD/svg10.dtd">
<svg version="1.0" xmlns="http://www.w3.org/2000/svg"
 width="2360.000000pt" height="1640.000000pt" viewBox="0 0 2360.000000 1640.000000"
 preserveAspectRatio="xMidYMid meet">
<metadata>
Created by potrace 1.16, written by Peter Selinger 2001-2019
</metadata>
<g transform="translate(0.000000,1640.000000) scale(0.100000,-0.100000)"
fill="#000000" stroke="none">
<path d="M11831 10623 c0 -7 -8 -13 -16 -13 -31 0 -71 -29 -93 -68 l-22 -40
35 -16 c43 -21 45 -36 6 -36 -18 0 -32 -7 -37 -17 -6 -14 -9 -11 -13 16 -3 19
-11 36 -17 38 -8 3 -11 -32 -10 -120 1 -77 -3 -129 -10 -138 -13 -16 -34 -97
-34 -128 0 -40 18 -20 33 37 12 47 15 52 16 25 1 -27 5 -33 22 -33 17 0 20 -4
14 -22 -31 -105 -44 -167 -39 -195 5 -28 12 -34 45 -43 44 -12 59 -7 59 19 0
26 33 54 48 39 8 -8 14 -4 23 16 11 23 10 29 -1 36 -8 5 -18 6 -22 4 -14 -9
-9 7 8 23 12 12 14 29 10 71 -4 38 -1 58 9 68 7 7 15 19 18 26 3 10 10 8 26
-6 25 -22 23 -24 45 35 9 26 34 76 56 112 44 73 48 87 24 87 -13 0 -15 6 -10
33 16 73 13 86 -25 127 -21 22 -40 35 -45 30 -14 -14 -92 10 -97 29 -3 9 -5
10 -6 4z m163 -224 c5 -4 5 -16 1 -26 -6 -16 -8 -16 -16 5 -5 13 -17 22 -29
22 -11 0 -20 5 -20 10 0 11 49 3 64 -11z m-274 -29 c0 -5 -4 -10 -10 -10 -5 0
-10 5 -10 10 0 6 5 10 10 10 6 0 10 -4 10 -10z m102 -144 c9 0 18 -10 21 -23
5 -27 -11 -29 -64 -12 -43 15 -41 13 -33 32 4 13 13 15 33 10 14 -4 34 -7 43
-7z m-20 -76 c-3 -31 -5 -32 -35 -25 -25 7 -26 8 -10 31 20 31 49 27 45 -6z
M11886 10132 c-11 -19 -18 -82 -8 -82 9 0 32 59 32 83 0 9 -17 9 -24 -1z
M11630 9835 c-15 -40 -13 -68 6 -61 8 3 25 -1 38 -9 20 -13 25 -13 46 2 22 16
23 16 18 -5 -4 -12 -4 -22 -2 -22 7 0 34 59 34 75 0 16 -26 21 -32 5 -4 -14
-78 8 -75 22 5 24 -24 18 -33 -7z M11599 9706 c12 -14 84 -36 120 -36 42 0 19
18 -44 34 -81 20 -91 21 -76 2z"/>
</g>
</svg>
