<?xml version="1.0" standalone="no"?>
<!DOCTYPE svg PUBLIC "-//W3C//DTD SVG 20010904//EN"
 "http://www.w3.org/TR/2001/REC-SVG-20010904/DTD/svg10.dtd">
<svg version="1.0" xmlns="http://www.w3.org/2000/svg"
 width="2360.000000pt" height="1640.000000pt" viewBox="0 0 2360.000000 1640.000000"
 preserveAspectRatio="xMidYMid meet">
<metadata>
Created by potrace 1.16, written by Peter Selinger 2001-2019
</metadata>
<g transform="translate(0.000000,1640.000000) scale(0.100000,-0.100000)"
fill="#000000" stroke="none">
<path d="M11880 10566 c0 -2 8 -10 18 -17 15 -13 16 -12 3 4 -13 16 -21 21
-21 13z M11756 10467 c-11 -34 -25 -71 -32 -82 -39 -65 -57 -194 -25 -187 24
5 62 -8 56 -18 -14 -23 24 -8 40 16 20 31 55 129 55 156 0 38 -16 16 -34 -48
-10 -36 -27 -75 -36 -87 -18 -21 -18 -21 -54 -2 -24 13 -31 22 -23 27 7 4 9 8
6 8 -4 0 13 63 36 140 23 77 40 140 36 140 -3 0 -15 -28 -25 -63z M11647
10368 c-4 -51 -9 -106 -12 -123 l-6 -30 15 26 c19 34 33 121 28 177 -7 71 -19
47 -25 -50z M11844 10399 c-9 -15 -2 -18 20 -9 17 6 18 7 3 13 -9 3 -19 2 -23
-4z M11897 10325 c-32 -41 -67 -117 -67 -148 0 -14 14 5 35 47 19 38 43 79 53
90 29 32 35 46 20 46 -7 0 -25 -16 -41 -35z M11611 10164 c0 -11 3 -14 6 -6 3
7 2 16 -1 19 -3 4 -6 -2 -5 -13z M11821 10134 c0 -11 3 -14 6 -6 3 7 2 16 -1
19 -3 4 -6 -2 -5 -13z M11594 10063 c-3 -16 -8 -35 -10 -43 -3 -10 -2 -11 4
-5 10 11 24 75 17 75 -3 0 -7 -12 -11 -27z M11746 9974 c-4 -14 -5 -28 -3 -31
3 -2 8 8 11 23 4 14 5 28 3 31 -3 2 -8 -8 -11 -23z M11590 9941 c0 -5 -3 -18
-6 -28 -6 -16 -5 -16 9 2 19 23 21 35 7 35 -5 0 -10 -4 -10 -9z M11680 9893
c0 -22 2 -25 10 -13 13 20 13 40 0 40 -5 0 -10 -12 -10 -27z M11686 9834 c-4
-14 -5 -28 -3 -31 3 -2 8 8 11 23 4 14 5 28 3 31 -3 2 -8 -8 -11 -23z M11578
9813 c7 -3 16 -2 19 1 4 3 -2 6 -13 5 -11 0 -14 -3 -6 -6z M11648 9793 c7 -3
16 -2 19 1 4 3 -2 6 -13 5 -11 0 -14 -3 -6 -6z"/>
</g>
</svg>
