<?xml version="1.0" standalone="no"?>
<!DOCTYPE svg PUBLIC "-//W3C//DTD SVG 20010904//EN"
 "http://www.w3.org/TR/2001/REC-SVG-20010904/DTD/svg10.dtd">
<svg version="1.0" xmlns="http://www.w3.org/2000/svg"
 width="2360.000000pt" height="1640.000000pt" viewBox="0 0 2360.000000 1640.000000"
 preserveAspectRatio="xMidYMid meet">
<metadata>
Created by potrace 1.16, written by Peter Selinger 2001-2019
</metadata>
<g transform="translate(0.000000,1640.000000) scale(0.100000,-0.100000)"
fill="#000000" stroke="none">
<path d="M11770 12170 c0 -5 6 -10 14 -10 8 0 18 5 21 10 3 6 -3 10 -14 10
-12 0 -21 -4 -21 -10z M11716 12144 c-3 -8 -12 -14 -20 -14 -17 0 -46 -37 -46
-58 0 -7 5 -10 10 -7 6 4 10 -5 10 -19 0 -14 -4 -26 -10 -26 -5 0 -10 -9 -10
-20 0 -11 -9 -34 -19 -52 -11 -17 -18 -35 -15 -40 3 -4 0 -8 -5 -8 -6 0 -10
-3 -9 -7 1 -5 -10 -29 -26 -55 -15 -26 -24 -53 -20 -59 4 -8 3 -9 -4 -5 -8 4
-12 0 -12 -12 0 -11 -9 -31 -21 -46 -11 -14 -17 -31 -13 -37 4 -7 3 -9 -4 -5
-6 4 -13 -7 -17 -26 -4 -18 -12 -42 -19 -53 -10 -19 -12 -25 -15 -52 0 -6 -8
-19 -17 -27 -14 -15 -14 -19 3 -49 24 -41 103 -81 144 -72 16 4 29 11 29 16 0
6 5 7 11 4 6 -4 9 -1 8 6 -2 8 7 34 19 58 12 24 19 48 15 54 -3 6 -1 7 5 3 11
-6 17 12 13 37 0 4 3 7 9 7 5 0 7 6 4 14 -3 8 4 33 16 55 11 23 18 47 14 53
-4 7 -3 8 4 4 7 -4 13 -4 13 1 1 4 3 22 5 40 2 17 13 49 25 70 19 33 23 50 28
112 1 8 4 12 7 8 3 -3 18 8 33 25 23 26 27 39 27 86 -1 30 -5 57 -11 59 -19 6
-53 -74 -50 -119 1 -24 1 -37 -2 -30 -7 18 -23 15 -23 -5 0 -9 -3 -13 -7 -10
-3 4 -12 -1 -19 -11 -9 -13 -10 -20 -1 -32 7 -8 -1 -4 -17 8 -16 12 -35 22
-43 22 -10 0 -11 4 -3 19 13 25 13 34 -1 26 -6 -4 -5 2 3 14 7 12 16 21 20 21
4 0 7 10 6 23 -1 13 5 39 14 58 9 19 18 40 20 48 4 18 -29 23 -36 5z m-6 -119
c0 -2 -10 -10 -22 -16 -21 -11 -22 -11 -9 4 13 16 31 23 31 12z m150 -29 c0
-2 -8 -10 -17 -17 -16 -13 -17 -12 -4 4 13 16 21 21 21 13z m-120 -115 c0 -15
-29 -21 -55 -11 -14 5 -25 12 -25 15 0 4 5 3 12 -1 7 -5 9 -2 5 8 -3 9 -3 19
0 22 7 7 63 -22 63 -33z m-33 -70 c28 -31 28 -28 3 -76 -11 -22 -20 -47 -20
-56 0 -22 -60 -163 -71 -167 -5 -2 -9 -15 -9 -29 0 -25 -23 -57 -34 -46 -3 4
-6 2 -6 -3 0 -5 -11 -11 -25 -12 -14 -1 -25 3 -25 10 0 6 -3 9 -6 5 -9 -9 -54
48 -54 70 0 10 12 26 28 35 15 10 21 18 15 18 -19 0 -16 14 13 78 65 141 96
197 112 203 26 9 55 -2 79 -30z m-80 -333 c-3 -8 -6 -5 -6 6 -1 11 2 17 5 13
3 -3 4 -12 1 -19z M11826 12145 c4 -8 13 -15 21 -15 13 0 13 3 3 15 -7 8 -16
15 -21 15 -5 0 -6 -7 -3 -15z"/>
</g>
</svg>
