<?xml version="1.0" standalone="no"?>
<!DOCTYPE svg PUBLIC "-//W3C//DTD SVG 20010904//EN"
 "http://www.w3.org/TR/2001/REC-SVG-20010904/DTD/svg10.dtd">
<svg version="1.0" xmlns="http://www.w3.org/2000/svg"
 width="2360.000000pt" height="1640.000000pt" viewBox="0 0 2360.000000 1640.000000"
 preserveAspectRatio="xMidYMid meet">
<metadata>
Created by potrace 1.16, written by Peter Selinger 2001-2019
</metadata>
<g transform="translate(0.000000,1640.000000) scale(0.100000,-0.100000)"
fill="#000000" stroke="none">
<path d="M11655 15454 c-342 -82 -671 -290 -1040 -659 -240 -240 -380 -422
-584 -762 -145 -241 -329 -624 -432 -897 -50 -130 -139 -419 -139 -449 0 -8
-8 -17 -17 -19 -13 -2 -11 -7 13 -23 28 -20 44 -20 664 -17 349 1 640 -1 645
-5 6 -5 39 -66 75 -138 245 -487 382 -732 543 -975 168 -253 255 -364 324
-411 24 -17 43 -34 43 -38 0 -5 -73 -53 -162 -106 -90 -54 -177 -109 -195
-121 l-31 -24 -109 75 c-578 400 -705 517 -1295 1190 -193 220 -377 429 -408
465 -32 36 -76 76 -100 89 l-43 24 27 -50 c28 -50 133 -176 388 -465 79 -90
195 -221 258 -293 283 -324 545 -579 765 -745 55 -41 234 -168 400 -282 165
-114 333 -231 374 -260 96 -68 150 -97 181 -97 31 0 85 29 181 97 41 29 209
146 374 260 166 114 345 241 400 282 220 166 482 421 765 745 63 72 179 203
258 293 255 289 360 415 388 465 l27 50 -43 -24 c-24 -13 -68 -53 -100 -89
-31 -36 -215 -245 -408 -465 -571 -651 -723 -795 -1197 -1122 -72 -49 -223
-154 -338 -234 -248 -172 -275 -189 -307 -189 -14 0 -42 10 -62 23 -60 35
-328 221 -328 227 0 5 79 54 320 201 143 87 230 165 323 292 77 104 240 349
315 474 60 99 260 477 392 738 36 72 70 133 75 138 6 4 296 6 645 5 620 -3
636 -3 664 17 24 16 26 21 13 23 -9 2 -17 11 -17 19 0 30 -89 319 -139 449
-103 273 -287 656 -432 897 -204 340 -344 522 -584 762 -187 187 -312 291
-500 416 -313 208 -611 295 -830 243z m245 -47 c198 -40 358 -110 561 -245
259 -171 531 -419 723 -657 99 -123 302 -426 393 -585 137 -239 316 -627 398
-860 42 -121 117 -372 112 -377 -2 -1 -406 -4 -898 -5 -844 -1 -1301 -9 -1355
-22 -27 -7 -33 -40 -9 -50 8 -3 59 -1 113 4 53 5 261 10 460 10 l364 0 -73
-137 c-39 -76 -122 -235 -184 -353 -164 -314 -289 -522 -436 -726 -113 -156
-165 -216 -219 -253 l-50 -34 -50 34 c-54 37 -106 97 -219 253 -147 204 -272
412 -436 726 -62 118 -145 277 -184 353 l-73 137 364 0 c199 0 407 -5 460 -10
54 -5 105 -7 113 -4 24 10 18 43 -9 50 -54 13 -511 21 -1355 22 -492 1 -896 4
-898 5 -5 5 70 256 112 377 82 233 261 621 398 860 91 159 294 462 393 585
192 238 464 486 723 657 204 135 368 207 560 244 41 8 77 17 80 20 3 3 15 3
26 1 11 -3 54 -12 95 -20z"/>
</g>
</svg>
