<?xml version="1.0" standalone="no"?>
<!DOCTYPE svg PUBLIC "-//W3C//DTD SVG 20010904//EN"
 "http://www.w3.org/TR/2001/REC-SVG-20010904/DTD/svg10.dtd">
<svg version="1.0" xmlns="http://www.w3.org/2000/svg"
 width="2360.000000pt" height="1640.000000pt" viewBox="0 0 2360.000000 1640.000000"
 preserveAspectRatio="xMidYMid meet">
<metadata>
Created by potrace 1.16, written by Peter Selinger 2001-2019
</metadata>
<g transform="translate(0.000000,1640.000000) scale(0.100000,-0.100000)"
fill="#000000" stroke="none">
<path d="M11713 15491 c-23 -4 -47 -12 -55 -18 -7 -6 -56 -25 -108 -42 -116
-39 -284 -120 -405 -196 -49 -32 -192 -133 -316 -226 -256 -191 -266 -201
-480 -501 -344 -480 -496 -759 -686 -1253 -187 -486 -225 -597 -197 -574 11 9
14 8 14 -4 0 -9 -4 -19 -10 -22 -17 -10 -11 -25 13 -34 13 -5 52 -49 87 -98
35 -48 132 -177 214 -287 152 -199 396 -530 449 -606 16 -22 110 -108 210
-191 100 -83 282 -239 404 -346 315 -279 533 -429 760 -522 40 -16 92 -43 117
-60 57 -40 95 -40 152 0 25 17 77 44 117 60 227 93 445 243 760 522 122 107
304 263 404 346 100 83 194 169 210 191 53 76 297 407 449 606 82 110 179 239
214 287 35 49 74 93 87 98 24 9 30 24 13 34 -5 3 -10 13 -10 22 0 12 3 13 14
4 28 -23 -10 88 -197 574 -190 494 -342 773 -686 1253 -214 300 -224 310 -480
501 -124 93 -266 194 -316 226 -120 76 -289 157 -404 196 -52 17 -104 37 -115
45 -25 16 -164 26 -223 15z m211 -81 c275 -72 433 -158 820 -447 164 -122 226
-163 247 -163 26 0 29 -4 29 -30 0 -24 36 -79 153 -240 83 -116 202 -288 264
-384 235 -365 314 -535 580 -1246 36 -96 72 -183 80 -192 39 -44 103 -43
-2297 -43 -2400 0 -2336 -1 -2297 43 8 9 44 96 80 192 266 711 345 881 580
1246 62 96 181 268 265 384 116 161 152 216 152 240 0 26 3 30 29 30 21 0 83
41 247 163 307 230 442 313 629 387 66 26 282 88 311 90 7 0 64 -14 128 -30z
m-1151 -2813 c3 -6 48 -118 100 -247 253 -629 583 -1305 757 -1552 74 -105
143 -218 137 -224 -2 -2 -21 5 -43 16 -21 11 -97 47 -169 80 -213 100 -391
226 -681 485 -93 83 -254 221 -359 308 -104 87 -204 177 -222 200 -228 299
-702 940 -699 945 2 4 267 6 589 4 453 -2 586 -5 590 -15z m3222 -14 c-13 -20
-578 -775 -688 -920 -18 -23 -118 -113 -222 -200 -105 -87 -266 -225 -359
-308 -290 -259 -468 -385 -681 -485 -72 -33 -148 -69 -169 -80 -22 -11 -41
-18 -43 -16 -6 6 63 119 137 224 174 247 504 923 757 1552 52 129 97 241 100
247 4 10 135 13 587 15 319 2 585 1 589 0 4 -2 1 -15 -8 -29z m-1229 14 c-3
-7 -45 -111 -94 -232 -50 -121 -131 -312 -182 -425 -51 -113 -107 -239 -125
-280 -48 -111 -228 -467 -307 -610 -39 -69 -104 -172 -145 -230 -42 -58 -82
-120 -91 -137 -9 -18 -19 -33 -22 -33 -3 0 -13 15 -22 33 -9 17 -49 79 -91
137 -41 58 -106 161 -145 230 -79 143 -259 499 -307 610 -18 41 -74 167 -125
280 -51 113 -132 304 -182 425 -49 121 -91 225 -94 232 -4 9 220 12 966 12
746 0 970 -3 966 -12z"/>
</g>
</svg>
