<?xml version="1.0" standalone="no"?>
<!DOCTYPE svg PUBLIC "-//W3C//DTD SVG 20010904//EN"
 "http://www.w3.org/TR/2001/REC-SVG-20010904/DTD/svg10.dtd">
<svg version="1.0" xmlns="http://www.w3.org/2000/svg"
 width="2360.000000pt" height="1640.000000pt" viewBox="0 0 2360.000000 1640.000000"
 preserveAspectRatio="xMidYMid meet">
<metadata>
Created by potrace 1.16, written by Peter Selinger 2001-2019
</metadata>
<g transform="translate(0.000000,1640.000000) scale(0.100000,-0.100000)"
fill="#000000" stroke="none">
<path d="M11630 15034 c-275 -60 -731 -454 -944 -817 -151 -256 -275 -574
-355 -907 -59 -250 -75 -397 -68 -660 4 -187 7 -215 35 -320 28 -107 85 -268
119 -333 14 -28 13 -29 -54 -100 -167 -176 -214 -243 -184 -261 5 -3 7 -23 5
-44 -3 -20 -1 -42 3 -48 14 -18 165 -129 253 -186 100 -64 142 -87 395 -208
272 -131 385 -166 625 -195 69 -9 133 -18 142 -21 35 -11 267 -13 348 -3 330
39 454 65 590 119 127 51 488 227 575 280 100 61 284 199 296 222 6 10 8 32 4
48 -3 16 -2 31 4 35 30 18 -12 79 -161 234 l-91 94 42 101 c60 148 87 237 110
368 50 281 9 697 -104 1066 -159 515 -326 819 -606 1101 -244 246 -464 394
-648 435 -107 24 -166 1 -132 -53 5 -8 30 -15 62 -16 167 -7 407 -154 653
-399 234 -235 374 -452 501 -781 54 -138 129 -376 151 -475 68 -312 79 -409
71 -653 -7 -230 -31 -336 -126 -561 -41 -96 -42 -100 -29 -143 9 -32 35 -69
88 -127 105 -113 126 -144 134 -197 l7 -46 -103 -75 c-169 -123 -188 -134
-430 -252 -258 -126 -327 -156 -408 -179 -178 -50 -530 -93 -670 -82 -364 27
-552 72 -785 184 -66 32 -176 86 -245 119 -126 61 -219 119 -363 226 l-78 57
7 52 c4 29 14 61 23 72 10 11 53 60 96 108 75 83 105 135 105 183 0 19 -10 47
-55 149 -16 36 -47 130 -69 205 -20 71 -46 284 -46 378 0 149 52 499 95 642
105 345 154 478 242 655 166 332 462 656 773 844 93 57 236 107 277 96 28 -7
73 17 73 39 0 37 -62 49 -150 30z M11695 14164 c-306 -46 -626 -206 -842 -419
-75 -74 -99 -105 -130 -170 -47 -98 -56 -198 -28 -298 20 -73 201 -464 319
-692 46 -88 150 -288 230 -445 226 -437 325 -603 443 -738 35 -40 63 -76 63
-81 0 -14 51 -32 66 -23 27 15 157 178 222 276 78 121 186 313 286 515 42 83
123 237 179 343 110 205 144 274 324 658 84 177 104 268 84 375 -24 129 -109
248 -265 369 -198 154 -393 248 -643 311 -63 16 -252 27 -308 19z m330 -92
c17 -6 62 -21 100 -33 103 -30 245 -100 360 -176 128 -86 272 -227 310 -305
51 -108 44 -247 -20 -383 -18 -38 -81 -171 -139 -294 -59 -124 -148 -302 -198
-395 -50 -94 -136 -259 -191 -366 -130 -254 -226 -424 -300 -534 -63 -95 -133
-176 -150 -176 -16 0 -71 66 -145 175 -77 113 -203 337 -315 560 -41 83 -112
218 -157 300 -77 140 -175 337 -250 500 -18 39 -56 122 -85 185 -92 199 -102
271 -55 393 32 84 102 172 203 252 167 134 367 238 559 290 86 23 107 24 268
21 97 -1 188 -8 205 -14z"/>
</g>
</svg>
