<?xml version="1.0" standalone="no"?>
<!DOCTYPE svg PUBLIC "-//W3C//DTD SVG 20010904//EN"
 "http://www.w3.org/TR/2001/REC-SVG-20010904/DTD/svg10.dtd">
<svg version="1.0" xmlns="http://www.w3.org/2000/svg"
 width="2360.000000pt" height="1640.000000pt" viewBox="0 0 2360.000000 1640.000000"
 preserveAspectRatio="xMidYMid meet">
<metadata>
Created by potrace 1.16, written by Peter Selinger 2001-2019
</metadata>
<g transform="translate(0.000000,1640.000000) scale(0.100000,-0.100000)"
fill="#000000" stroke="none">
<path d="M8931 14816 c-7 -8 -10 -19 -7 -24 3 -5 -3 -79 -14 -163 -22 -169
-25 -240 -11 -255 6 -5 6 -31 0 -64 -8 -53 -31 -237 -84 -675 -22 -180 -43
-387 -106 -1034 -25 -267 -95 -1103 -109 -1306 -6 -88 -26 -351 -46 -585 -19
-234 -52 -659 -74 -945 -22 -286 -49 -621 -60 -745 -26 -295 -65 -752 -95
-1124 -14 -164 -29 -346 -35 -405 -5 -58 -23 -302 -40 -541 -26 -372 -86
-1180 -120 -1625 -6 -71 -12 -161 -15 -200 -5 -66 -32 -504 -55 -885 -6 -96
-19 -265 -30 -375 -11 -110 -24 -265 -30 -345 -6 -80 -22 -253 -36 -385 -58
-569 -81 -1028 -55 -1098 16 -42 81 -53 276 -47 247 7 401 6 1295 -9 443 -7
834 -10 870 -7 114 11 740 8 864 -4 81 -8 122 -8 129 -1 6 6 9 38 8 73 -2 63
81 1325 254 3853 13 198 41 599 60 890 20 292 49 726 65 965 17 239 37 553 47
698 9 144 20 262 23 262 3 0 14 -118 23 -262 10 -145 31 -461 47 -703 16 -242
43 -642 60 -890 17 -247 44 -646 60 -885 40 -584 149 -2196 205 -3035 25 -374
47 -742 49 -818 2 -77 8 -143 14 -149 6 -6 51 -5 128 2 70 6 268 10 479 8
1110 -9 2615 19 2755 52 l75 17 3 169 c3 174 -15 462 -48 779 -26 241 -47 480
-95 1050 -8 94 -24 328 -35 520 -29 482 -39 635 -110 1555 -16 212 -41 554
-55 760 -14 206 -46 614 -70 905 -25 292 -52 613 -60 715 -9 102 -29 338 -45
525 -16 187 -43 522 -60 745 -17 223 -48 621 -70 885 -21 264 -44 552 -50 640
-12 179 -83 1029 -105 1260 -43 453 -77 795 -91 915 -24 215 -103 853 -109
877 -3 12 -1 25 5 28 15 9 12 93 -10 259 -11 82 -17 153 -14 158 3 5 0 16 -7
24 -10 12 -36 14 -158 9 -673 -27 -2434 -78 -2711 -78 -277 0 -2038 51 -2711
78 -122 5 -148 3 -158 -9z"/>
</g>
</svg>
