<?xml version="1.0" standalone="no"?>
<!DOCTYPE svg PUBLIC "-//W3C//DTD SVG 20010904//EN"
 "http://www.w3.org/TR/2001/REC-SVG-20010904/DTD/svg10.dtd">
<svg version="1.0" xmlns="http://www.w3.org/2000/svg"
 width="2360.000000pt" height="1640.000000pt" viewBox="0 0 2360.000000 1640.000000"
 preserveAspectRatio="xMidYMid meet">
<metadata>
Created by potrace 1.16, written by Peter Selinger 2001-2019
</metadata>
<g transform="translate(0.000000,1640.000000) scale(0.100000,-0.100000)"
fill="#000000" stroke="none">
<path d="M8931 14816 c-7 -8 -10 -19 -7 -24 3 -5 -3 -76 -14 -158 -22 -166
-25 -250 -10 -259 6 -3 8 -16 5 -28 -5 -22 -85 -651 -105 -832 -6 -55 -13
-111 -15 -125 -2 -14 -6 -54 -9 -90 -3 -36 -24 -249 -46 -475 -43 -443 -97
-1082 -130 -1530 -11 -154 -34 -437 -50 -630 -16 -192 -45 -561 -65 -820 -19
-258 -47 -600 -60 -760 -88 -1014 -140 -1651 -170 -2080 -20 -269 -58 -785
-85 -1145 -59 -788 -64 -861 -90 -1295 -23 -381 -31 -492 -60 -815 -11 -124
-27 -306 -36 -405 -8 -99 -22 -238 -30 -310 -45 -393 -69 -934 -45 -998 16
-42 80 -53 281 -47 251 7 389 6 1295 -9 446 -7 833 -10 861 -7 89 10 764 7
878 -4 73 -7 113 -7 119 -1 6 6 9 38 8 73 -1 55 54 898 189 2888 121 1792 189
2787 227 3368 15 226 30 412 33 412 3 0 13 -116 23 -257 9 -142 39 -595 67
-1008 48 -712 79 -1172 170 -2515 139 -2039 181 -2691 185 -2814 2 -76 7 -142
12 -147 6 -6 58 -5 129 1 67 6 276 10 479 8 1107 -9 2616 19 2755 51 l75 18 3
169 c3 176 -15 470 -48 779 -43 397 -106 1157 -130 1570 -20 333 -38 612 -60
900 -5 72 -26 339 -45 595 -19 256 -51 683 -70 950 -19 267 -59 775 -89 1130
-30 355 -69 805 -85 1000 -17 195 -44 540 -61 765 -17 226 -44 568 -60 760
-16 193 -39 476 -50 630 -32 445 -87 1086 -130 1530 -22 226 -43 439 -46 475
-3 36 -7 76 -9 90 -2 14 -6 48 -9 75 -27 231 -108 873 -112 887 -3 9 0 19 6
23 15 9 12 92 -10 259 -11 82 -17 153 -14 158 3 5 0 16 -7 24 -10 12 -35 14
-158 9 -135 -6 -2028 -66 -2526 -81 -136 -4 -405 0 -705 10 -267 9 -840 27
-1275 41 -434 13 -851 27 -926 30 -114 5 -138 4 -148 -9z"/>
</g>
</svg>
