<?xml version="1.0" standalone="no"?>
<!DOCTYPE svg PUBLIC "-//W3C//DTD SVG 20010904//EN"
 "http://www.w3.org/TR/2001/REC-SVG-20010904/DTD/svg10.dtd">
<svg version="1.0" xmlns="http://www.w3.org/2000/svg"
 width="2360.000000pt" height="1640.000000pt" viewBox="0 0 2360.000000 1640.000000"
 preserveAspectRatio="xMidYMid meet">
<metadata>
Created by potrace 1.16, written by Peter Selinger 2001-2019
</metadata>
<g transform="translate(0.000000,1640.000000) scale(0.100000,-0.100000)"
fill="#000000" stroke="none">
<path d="M8931 14816 c-7 -8 -10 -19 -7 -24 3 -5 -3 -76 -14 -158 -22 -166
-25 -250 -10 -259 6 -3 8 -16 5 -28 -7 -29 -122 -963 -130 -1052 -7 -81 -29
-316 -50 -525 -28 -279 -61 -659 -100 -1155 -48 -618 -76 -962 -90 -1140 -8
-99 -29 -360 -45 -580 -17 -220 -58 -715 -90 -1100 -122 -1432 -128 -1516
-175 -2195 -14 -201 -39 -538 -55 -750 -54 -688 -60 -778 -90 -1285 -17 -275
-37 -565 -45 -645 -8 -80 -21 -235 -30 -345 -9 -110 -27 -310 -41 -445 -43
-422 -55 -578 -61 -825 -3 -158 -2 -249 5 -267 9 -23 21 -29 86 -43 67 -15 97
-15 280 -5 156 9 294 10 568 1 390 -11 1308 -18 1893 -13 201 2 413 -2 479 -8
83 -7 123 -7 130 0 6 6 9 39 8 73 -2 34 13 298 33 587 19 289 44 662 55 830
11 168 31 467 45 665 50 724 202 2969 277 4093 18 265 35 482 39 482 3 0 9
-48 12 -107 4 -60 25 -376 47 -703 22 -327 56 -827 75 -1110 19 -283 46 -681
60 -885 14 -203 43 -635 65 -960 22 -324 58 -855 80 -1180 21 -324 53 -797 70
-1050 18 -253 33 -520 35 -593 1 -74 7 -138 12 -143 7 -7 54 -6 134 1 127 11
803 14 868 4 38 -6 1618 13 1661 20 14 2 160 7 325 11 233 5 317 11 375 24
l75 18 3 159 c3 159 -17 498 -43 734 -20 175 -43 423 -60 635 -8 99 -21 250
-29 335 -8 85 -20 234 -26 330 -48 809 -50 837 -120 1745 -22 286 -49 660 -60
830 -29 429 -96 1254 -185 2265 -13 157 -38 470 -55 695 -29 398 -60 774 -80
1000 -6 61 -21 265 -35 455 -27 371 -86 1082 -110 1332 -8 84 -28 295 -45 468
-40 418 -137 1239 -155 1317 -3 12 -1 25 5 28 15 9 12 93 -10 259 -11 82 -17
153 -14 158 3 5 0 16 -7 24 -10 12 -36 14 -158 9 -673 -27 -2434 -78 -2711
-78 -277 0 -2038 51 -2711 78 -122 5 -148 3 -158 -9z"/>
</g>
</svg>
