<?xml version="1.0" standalone="no"?>
<!DOCTYPE svg PUBLIC "-//W3C//DTD SVG 20010904//EN"
 "http://www.w3.org/TR/2001/REC-SVG-20010904/DTD/svg10.dtd">
<svg version="1.0" xmlns="http://www.w3.org/2000/svg"
 width="2360.000000pt" height="1640.000000pt" viewBox="0 0 2360.000000 1640.000000"
 preserveAspectRatio="xMidYMid meet">
<metadata>
Created by potrace 1.16, written by Peter Selinger 2001-2019
</metadata>
<g transform="translate(0.000000,1640.000000) scale(0.100000,-0.100000)"
fill="#000000" stroke="none">
<path d="M8931 14816 c-7 -8 -10 -19 -7 -24 3 -5 -3 -76 -14 -158 -22 -167
-25 -250 -10 -259 6 -4 9 -14 6 -23 -3 -10 -28 -199 -56 -422 -62 -505 -66
-538 -85 -740 -9 -91 -27 -277 -40 -415 -34 -340 -69 -743 -105 -1215 -17
-217 -50 -642 -75 -945 -24 -302 -51 -647 -60 -765 -17 -230 -49 -621 -144
-1755 -64 -757 -74 -894 -121 -1550 -16 -231 -41 -564 -54 -740 -38 -485 -63
-848 -91 -1305 -14 -228 -36 -539 -50 -690 -13 -151 -32 -358 -40 -460 -9
-102 -23 -241 -30 -310 -46 -400 -70 -939 -46 -1003 16 -42 80 -53 281 -47
249 7 387 6 1183 -7 389 -7 926 -9 1195 -6 336 4 530 2 626 -6 99 -8 142 -9
151 -1 9 7 12 28 8 68 -4 49 55 968 152 2377 66 951 187 2750 256 3800 18 264
34 482 36 484 1 2 5 2 6 0 2 -2 18 -220 36 -484 69 -1055 181 -2710 261 -3875
96 -1397 149 -2234 142 -2247 -5 -7 -3 -39 3 -71 l12 -57 44 3 c24 1 501 4
1059 6 1204 4 2140 27 2260 55 l75 18 3 169 c3 176 -15 471 -48 779 -11 99
-26 259 -35 355 -8 96 -26 301 -40 455 -14 154 -36 467 -50 695 -28 457 -53
820 -91 1305 -13 176 -38 509 -54 740 -47 656 -57 793 -121 1550 -102 1215
-128 1531 -149 1820 -11 154 -34 438 -50 630 -16 193 -43 535 -60 760 -16 226
-39 514 -50 640 -11 127 -25 286 -31 355 -5 69 -26 285 -45 480 -18 195 -38
405 -44 465 -19 199 -126 1077 -136 1107 -3 9 0 19 6 23 15 9 12 92 -10 259
-11 82 -17 153 -14 158 3 5 0 16 -7 24 -10 12 -36 14 -158 9 -673 -27 -2434
-78 -2711 -78 -277 0 -2038 51 -2711 78 -122 5 -148 3 -158 -9z"/>
</g>
</svg>
