<?xml version="1.0" standalone="no"?>
<!DOCTYPE svg PUBLIC "-//W3C//DTD SVG 20010904//EN"
 "http://www.w3.org/TR/2001/REC-SVG-20010904/DTD/svg10.dtd">
<svg version="1.0" xmlns="http://www.w3.org/2000/svg"
 width="2360.000000pt" height="1640.000000pt" viewBox="0 0 2360.000000 1640.000000"
 preserveAspectRatio="xMidYMid meet">
<metadata>
Created by potrace 1.16, written by Peter Selinger 2001-2019
</metadata>
<g transform="translate(0.000000,1640.000000) scale(0.100000,-0.100000)"
fill="#000000" stroke="none">
<path d="M8931 14816 c-7 -8 -10 -19 -7 -24 3 -5 -3 -79 -14 -163 -22 -172
-25 -245 -10 -254 6 -4 8 -14 6 -23 -3 -10 -17 -109 -30 -222 -14 -113 -34
-275 -45 -360 -37 -292 -112 -1041 -151 -1495 -11 -132 -24 -289 -30 -350 -14
-154 -38 -451 -50 -635 -14 -203 -26 -355 -45 -575 -24 -282 -43 -517 -65
-813 -38 -505 -45 -590 -80 -992 -17 -193 -33 -379 -90 -1070 -50 -605 -57
-699 -100 -1320 -11 -162 -27 -376 -35 -475 -34 -409 -72 -940 -100 -1400 -29
-478 -36 -571 -51 -730 -8 -88 -21 -243 -29 -345 -9 -102 -27 -297 -41 -435
-44 -439 -63 -705 -64 -892 0 -100 4 -193 9 -206 16 -42 81 -53 276 -47 247 7
399 6 1310 -8 451 -8 836 -11 856 -8 67 11 743 7 863 -4 86 -8 122 -8 130 0 6
6 9 37 8 73 -2 54 40 724 133 2082 13 198 29 430 35 515 21 324 50 753 84
1250 20 283 45 652 56 820 11 168 43 636 71 1040 27 404 52 783 56 843 3 59 9
107 13 107 4 0 10 -48 13 -107 4 -60 14 -205 22 -323 24 -357 108 -1599 140
-2085 8 -126 20 -291 25 -365 6 -74 21 -304 35 -510 14 -206 31 -472 40 -590
74 -1068 167 -2491 169 -2603 2 -77 8 -143 14 -149 6 -6 51 -5 128 2 125 11
701 14 889 4 131 -7 1363 11 1895 27 289 9 392 15 450 29 l75 17 3 169 c3 173
-14 447 -48 774 -38 362 -106 1159 -120 1400 -29 501 -62 981 -129 1855 -11
143 -30 395 -41 560 -29 419 -49 682 -60 805 -6 58 -22 245 -35 415 -22 270
-48 569 -110 1295 -8 96 -31 387 -50 645 -34 449 -43 568 -65 805 -5 58 -17
198 -25 312 -8 114 -19 272 -25 350 -30 406 -83 1020 -130 1483 -10 105 -26
267 -35 360 -16 167 -120 1029 -130 1072 -3 12 -1 25 5 28 15 9 12 83 -10 254
-11 84 -17 158 -14 163 3 5 0 16 -7 24 -10 13 -35 14 -153 9 -127 -5 -659 -23
-2181 -71 -455 -14 -717 -14 -1080 1 -60 3 -195 7 -300 10 -104 3 -327 10
-495 15 -168 5 -516 17 -775 25 -258 8 -531 17 -606 20 -114 5 -138 4 -148 -9z"/>
</g>
</svg>
