<?xml version="1.0" standalone="no"?>
<!DOCTYPE svg PUBLIC "-//W3C//DTD SVG 20010904//EN"
 "http://www.w3.org/TR/2001/REC-SVG-20010904/DTD/svg10.dtd">
<svg version="1.0" xmlns="http://www.w3.org/2000/svg"
 width="2360.000000pt" height="1640.000000pt" viewBox="0 0 2360.000000 1640.000000"
 preserveAspectRatio="xMidYMid meet">
<metadata>
Created by potrace 1.16, written by Peter Selinger 2001-2019
</metadata>
<g transform="translate(0.000000,1640.000000) scale(0.100000,-0.100000)"
fill="#000000" stroke="none">
<path d="M8931 14816 c-7 -8 -10 -19 -7 -24 3 -5 -3 -76 -14 -158 -22 -166
-25 -250 -10 -259 6 -3 8 -16 5 -28 -5 -22 -82 -634 -109 -872 -9 -71 -25
-227 -36 -345 -11 -118 -29 -305 -40 -415 -29 -297 -96 -1092 -125 -1485 -13
-190 -31 -421 -40 -515 -21 -240 -40 -479 -75 -945 -17 -223 -42 -533 -55
-690 -66 -763 -157 -1866 -175 -2130 -31 -451 -49 -696 -75 -1035 -13 -170
-29 -373 -35 -450 -5 -77 -12 -167 -15 -200 -5 -55 -39 -600 -65 -1035 -6 -96
-19 -263 -30 -370 -11 -107 -24 -258 -30 -335 -12 -157 -36 -409 -50 -530 -40
-330 -64 -898 -41 -958 16 -42 81 -53 276 -47 248 7 403 6 1295 -9 443 -7 835
-10 871 -7 113 10 728 7 857 -4 89 -8 127 -8 137 0 9 8 12 28 8 68 -4 49 34
643 167 2607 17 248 39 583 50 745 19 275 49 724 85 1245 8 121 26 387 40 590
13 204 38 570 55 815 16 245 33 498 36 563 4 64 10 117 13 117 4 0 28 -323 54
-717 26 -395 59 -880 72 -1078 14 -198 30 -430 35 -515 6 -85 24 -348 40 -585
153 -2230 249 -3718 242 -3732 -5 -7 -3 -39 3 -71 l12 -57 69 3 c38 2 132 6
209 10 77 4 286 4 465 0 430 -8 1227 -1 1955 18 485 13 603 19 665 34 l75 17
3 179 c3 186 -16 458 -62 909 -14 132 -32 328 -41 435 -8 107 -22 263 -30 345
-8 83 -19 229 -25 325 -46 755 -68 1085 -120 1745 -16 209 -43 578 -60 820
-16 242 -32 467 -35 500 -3 33 -12 139 -20 235 -8 96 -24 283 -35 415 -11 132
-42 503 -70 825 -27 322 -63 767 -80 990 -32 425 -63 820 -80 1005 -10 111
-17 209 -45 590 -17 227 -89 1090 -105 1245 -5 52 -25 262 -45 465 -31 324
-136 1212 -150 1272 -3 12 -1 25 5 28 15 9 12 93 -10 259 -11 82 -17 153 -14
158 3 5 0 16 -7 24 -10 12 -36 14 -158 9 -673 -27 -2434 -78 -2711 -78 -277 0
-2038 51 -2711 78 -122 5 -148 3 -158 -9z"/>
</g>
</svg>
