<?xml version="1.0" standalone="no"?>
<!DOCTYPE svg PUBLIC "-//W3C//DTD SVG 20010904//EN"
 "http://www.w3.org/TR/2001/REC-SVG-20010904/DTD/svg10.dtd">
<svg version="1.0" xmlns="http://www.w3.org/2000/svg"
 width="2048.000000pt" height="2048.000000pt" viewBox="0 0 2048.000000 2048.000000"
 preserveAspectRatio="xMidYMid meet">
<metadata>
Created by potrace 1.16, written by Peter Selinger 2001-2019
</metadata>
<g transform="translate(0.000000,2048.000000) scale(0.100000,-0.100000)"
fill="#000000" stroke="none">
<path d="M7620 17154 c-25 -14 -97 -49 -160 -76 -232 -101 -429 -203 -895
-461 -628 -348 -980 -559 -1465 -875 -285 -187 -908 -620 -985 -687 l-30 -25
30 6 c23 4 26 3 15 -5 -9 -6 -10 -11 -3 -11 6 0 9 -8 6 -19 -3 -12 32 -80 101
-194 169 -280 340 -630 422 -867 24 -69 45 -126 45 -127 6 -11 9 -110 14 -463
5 -307 3 -487 -9 -745 -26 -537 -39 -2504 -25 -3680 21 -1760 21 -1904 10
-2065 -6 -85 -16 -222 -22 -305 -14 -192 -13 -762 1 -1505 11 -587 9 -777 -21
-2030 -12 -488 -8 -816 11 -1070 6 -80 12 -248 13 -375 l2 -230 70 -2 c395
-12 387 -11 1355 -73 1049 -66 2652 -118 3230 -103 644 15 963 17 1458 6 939
-19 2151 12 3517 92 138 8 277 17 310 20 33 3 209 14 390 25 289 18 419 24
730 33 l70 2 2 230 c1 127 7 295 13 375 19 254 23 582 11 1070 -30 1253 -32
1443 -21 2030 14 743 15 1313 1 1505 -37 507 -36 320 -12 2370 14 1176 1 3143
-25 3680 -12 258 -14 438 -9 745 5 353 8 452 14 463 0 1 21 58 45 127 82 237
253 587 422 867 69 114 104 182 101 194 -3 11 0 19 6 19 7 0 6 5 -3 11 -11 8
-8 9 15 5 l30 -6 -30 25 c-77 67 -700 500 -985 687 -485 316 -837 527 -1465
875 -466 258 -663 360 -895 461 -63 27 -135 62 -160 76 -54 31 -93 35 -88 9 3
-18 97 -68 364 -193 76 -36 176 -86 221 -112 46 -27 89 -48 96 -48 28 0 939
-513 1307 -735 484 -293 1455 -945 1532 -1029 l26 -29 -25 -41 c-167 -264
-282 -478 -421 -786 -109 -242 -142 -348 -152 -505 -12 -175 -12 -760 0 -1020
5 -115 14 -336 20 -490 12 -348 21 -3277 10 -3740 -19 -840 -23 -1391 -11
-1550 34 -469 39 -647 33 -1178 -11 -831 -6 -2074 10 -2732 15 -614 15 -656
-3 -855 -5 -63 -13 -254 -16 -425 l-6 -310 -91 4 c-94 3 -291 -6 -816 -40
-587 -37 -788 -49 -1175 -68 -214 -11 -469 -23 -565 -26 -96 -3 -209 -8 -250
-10 -249 -16 -1022 -28 -1555 -25 -784 4 -1346 4 -2130 0 -533 -3 -1306 9
-1555 25 -41 2 -154 7 -250 10 -96 3 -350 15 -565 26 -387 19 -588 31 -1175
68 -525 34 -722 43 -816 40 l-91 -4 -6 310 c-3 171 -11 362 -16 425 -18 199
-18 241 -3 855 16 658 21 1901 10 2732 -6 531 -1 709 33 1178 12 159 8 710
-11 1550 -11 463 -2 3392 10 3740 6 154 15 375 20 490 12 260 12 845 0 1020
-10 157 -43 263 -152 505 -139 308 -254 522 -421 786 l-25 41 26 29 c77 84
1048 736 1532 1029 368 222 1279 735 1307 735 7 0 50 21 96 48 45 26 145 76
221 112 267 125 361 175 364 193 5 26 -34 22 -88 -9z"/>
</g>
</svg>
